<?xml version="1.0" encoding="utf-8" standalone="no"?>
<!DOCTYPE svg PUBLIC "-//W3C//DTD SVG 1.1//EN"
  "http://www.w3.org/Graphics/SVG/1.1/DTD/svg11.dtd">
<svg xmlns:xlink="http://www.w3.org/1999/xlink" width="843.108125pt" height="370.537812pt" viewBox="0 0 843.108125 370.537812" xmlns="http://www.w3.org/2000/svg" version="1.1">
 <metadata>
  <rdf:RDF xmlns:dc="http://purl.org/dc/elements/1.1/" xmlns:cc="http://creativecommons.org/ns#" xmlns:rdf="http://www.w3.org/1999/02/22-rdf-syntax-ns#">
   <cc:Work>
    <dc:type rdf:resource="http://purl.org/dc/dcmitype/StillImage"/>
    <dc:date>2026-01-06T17:44:33.510413</dc:date>
    <dc:format>image/svg+xml</dc:format>
    <dc:creator>
     <cc:Agent>
      <dc:title>Matplotlib v3.10.7, https://matplotlib.org/</dc:title>
     </cc:Agent>
    </dc:creator>
   </cc:Work>
  </rdf:RDF>
 </metadata>
 <defs>
  <style type="text/css">*{stroke-linejoin: round; stroke-linecap: butt}</style>
 </defs>
 <g id="figure_1">
  <g id="patch_1">
   <path d="M 0 370.537812 
L 843.108125 370.537812 
L 843.108125 0 
L 0 0 
z
" style="fill: #ffffff"/>
  </g>
  <g id="axes_1">
   <g id="patch_2">
    <path d="M 54.708125 320.4 
L 394.360299 320.4 
L 394.360299 43.2 
L 54.708125 43.2 
z
" style="fill: #ffffff"/>
   </g>
   <g id="matplotlib.axis_1">
    <g id="xtick_1">
     <g id="line2d_1">
      <defs>
       <path id="m21e3db30e9" d="M 0 0 
L 0 3.5 
" style="stroke: #000000; stroke-width: 0.8"/>
      </defs>
      <g>
       <use xlink:href="#m21e3db30e9" x="70.14686" y="320.4" style="stroke: #000000; stroke-width: 0.8"/>
      </g>
     </g>
     <g id="text_1">
      <!-- 0 -->
      <g transform="translate(65.374985 338.797656) scale(0.15 -0.15)">
       <defs>
        <path id="DejaVuSans-30" d="M 2034 4250 
Q 1547 4250 1301 3770 
Q 1056 3291 1056 2328 
Q 1056 1369 1301 889 
Q 1547 409 2034 409 
Q 2525 409 2770 889 
Q 3016 1369 3016 2328 
Q 3016 3291 2770 3770 
Q 2525 4250 2034 4250 
z
M 2034 4750 
Q 2819 4750 3233 4129 
Q 3647 3509 3647 2328 
Q 3647 1150 3233 529 
Q 2819 -91 2034 -91 
Q 1250 -91 836 529 
Q 422 1150 422 2328 
Q 422 3509 836 4129 
Q 1250 4750 2034 4750 
z
" transform="scale(0.015625)"/>
       </defs>
       <use xlink:href="#DejaVuSans-30"/>
      </g>
     </g>
    </g>
    <g id="xtick_2">
     <g id="line2d_2">
      <g>
       <use xlink:href="#m21e3db30e9" x="147.340536" y="320.4" style="stroke: #000000; stroke-width: 0.8"/>
      </g>
     </g>
     <g id="text_2">
      <!-- 20 -->
      <g transform="translate(137.796786 338.797656) scale(0.15 -0.15)">
       <defs>
        <path id="DejaVuSans-32" d="M 1228 531 
L 3431 531 
L 3431 0 
L 469 0 
L 469 531 
Q 828 903 1448 1529 
Q 2069 2156 2228 2338 
Q 2531 2678 2651 2914 
Q 2772 3150 2772 3378 
Q 2772 3750 2511 3984 
Q 2250 4219 1831 4219 
Q 1534 4219 1204 4116 
Q 875 4013 500 3803 
L 500 4441 
Q 881 4594 1212 4672 
Q 1544 4750 1819 4750 
Q 2544 4750 2975 4387 
Q 3406 4025 3406 3419 
Q 3406 3131 3298 2873 
Q 3191 2616 2906 2266 
Q 2828 2175 2409 1742 
Q 1991 1309 1228 531 
z
" transform="scale(0.015625)"/>
       </defs>
       <use xlink:href="#DejaVuSans-32"/>
       <use xlink:href="#DejaVuSans-30" transform="translate(63.623047 0)"/>
      </g>
     </g>
    </g>
    <g id="xtick_3">
     <g id="line2d_3">
      <g>
       <use xlink:href="#m21e3db30e9" x="224.534212" y="320.4" style="stroke: #000000; stroke-width: 0.8"/>
      </g>
     </g>
     <g id="text_3">
      <!-- 40 -->
      <g transform="translate(214.990462 338.797656) scale(0.15 -0.15)">
       <defs>
        <path id="DejaVuSans-34" d="M 2419 4116 
L 825 1625 
L 2419 1625 
L 2419 4116 
z
M 2253 4666 
L 3047 4666 
L 3047 1625 
L 3713 1625 
L 3713 1100 
L 3047 1100 
L 3047 0 
L 2419 0 
L 2419 1100 
L 313 1100 
L 313 1709 
L 2253 4666 
z
" transform="scale(0.015625)"/>
       </defs>
       <use xlink:href="#DejaVuSans-34"/>
       <use xlink:href="#DejaVuSans-30" transform="translate(63.623047 0)"/>
      </g>
     </g>
    </g>
    <g id="xtick_4">
     <g id="line2d_4">
      <g>
       <use xlink:href="#m21e3db30e9" x="301.727888" y="320.4" style="stroke: #000000; stroke-width: 0.8"/>
      </g>
     </g>
     <g id="text_4">
      <!-- 60 -->
      <g transform="translate(292.184138 338.797656) scale(0.15 -0.15)">
       <defs>
        <path id="DejaVuSans-36" d="M 2113 2584 
Q 1688 2584 1439 2293 
Q 1191 2003 1191 1497 
Q 1191 994 1439 701 
Q 1688 409 2113 409 
Q 2538 409 2786 701 
Q 3034 994 3034 1497 
Q 3034 2003 2786 2293 
Q 2538 2584 2113 2584 
z
M 3366 4563 
L 3366 3988 
Q 3128 4100 2886 4159 
Q 2644 4219 2406 4219 
Q 1781 4219 1451 3797 
Q 1122 3375 1075 2522 
Q 1259 2794 1537 2939 
Q 1816 3084 2150 3084 
Q 2853 3084 3261 2657 
Q 3669 2231 3669 1497 
Q 3669 778 3244 343 
Q 2819 -91 2113 -91 
Q 1303 -91 875 529 
Q 447 1150 447 2328 
Q 447 3434 972 4092 
Q 1497 4750 2381 4750 
Q 2619 4750 2861 4703 
Q 3103 4656 3366 4563 
z
" transform="scale(0.015625)"/>
       </defs>
       <use xlink:href="#DejaVuSans-36"/>
       <use xlink:href="#DejaVuSans-30" transform="translate(63.623047 0)"/>
      </g>
     </g>
    </g>
    <g id="xtick_5">
     <g id="line2d_5">
      <g>
       <use xlink:href="#m21e3db30e9" x="378.921564" y="320.4" style="stroke: #000000; stroke-width: 0.8"/>
      </g>
     </g>
     <g id="text_5">
      <!-- 80 -->
      <g transform="translate(369.377814 338.797656) scale(0.15 -0.15)">
       <defs>
        <path id="DejaVuSans-38" d="M 2034 2216 
Q 1584 2216 1326 1975 
Q 1069 1734 1069 1313 
Q 1069 891 1326 650 
Q 1584 409 2034 409 
Q 2484 409 2743 651 
Q 3003 894 3003 1313 
Q 3003 1734 2745 1975 
Q 2488 2216 2034 2216 
z
M 1403 2484 
Q 997 2584 770 2862 
Q 544 3141 544 3541 
Q 544 4100 942 4425 
Q 1341 4750 2034 4750 
Q 2731 4750 3128 4425 
Q 3525 4100 3525 3541 
Q 3525 3141 3298 2862 
Q 3072 2584 2669 2484 
Q 3125 2378 3379 2068 
Q 3634 1759 3634 1313 
Q 3634 634 3220 271 
Q 2806 -91 2034 -91 
Q 1263 -91 848 271 
Q 434 634 434 1313 
Q 434 1759 690 2068 
Q 947 2378 1403 2484 
z
M 1172 3481 
Q 1172 3119 1398 2916 
Q 1625 2713 2034 2713 
Q 2441 2713 2670 2916 
Q 2900 3119 2900 3481 
Q 2900 3844 2670 4047 
Q 2441 4250 2034 4250 
Q 1625 4250 1398 4047 
Q 1172 3844 1172 3481 
z
" transform="scale(0.015625)"/>
       </defs>
       <use xlink:href="#DejaVuSans-38"/>
       <use xlink:href="#DejaVuSans-30" transform="translate(63.623047 0)"/>
      </g>
     </g>
    </g>
    <g id="text_6">
     <!-- time [hr] -->
     <g transform="translate(179.459681 359.594375) scale(0.18 -0.18)">
      <defs>
       <path id="DejaVuSans-Bold-74" d="M 1759 4494 
L 1759 3500 
L 2913 3500 
L 2913 2700 
L 1759 2700 
L 1759 1216 
Q 1759 972 1856 886 
Q 1953 800 2241 800 
L 2816 800 
L 2816 0 
L 1856 0 
Q 1194 0 917 276 
Q 641 553 641 1216 
L 641 2700 
L 84 2700 
L 84 3500 
L 641 3500 
L 641 4494 
L 1759 4494 
z
" transform="scale(0.015625)"/>
       <path id="DejaVuSans-Bold-69" d="M 538 3500 
L 1656 3500 
L 1656 0 
L 538 0 
L 538 3500 
z
M 538 4863 
L 1656 4863 
L 1656 3950 
L 538 3950 
L 538 4863 
z
" transform="scale(0.015625)"/>
       <path id="DejaVuSans-Bold-6d" d="M 3781 2919 
Q 3994 3244 4286 3414 
Q 4578 3584 4928 3584 
Q 5531 3584 5847 3212 
Q 6163 2841 6163 2131 
L 6163 0 
L 5038 0 
L 5038 1825 
Q 5041 1866 5042 1909 
Q 5044 1953 5044 2034 
Q 5044 2406 4934 2573 
Q 4825 2741 4581 2741 
Q 4263 2741 4089 2478 
Q 3916 2216 3909 1719 
L 3909 0 
L 2784 0 
L 2784 1825 
Q 2784 2406 2684 2573 
Q 2584 2741 2328 2741 
Q 2006 2741 1831 2477 
Q 1656 2213 1656 1722 
L 1656 0 
L 531 0 
L 531 3500 
L 1656 3500 
L 1656 2988 
Q 1863 3284 2130 3434 
Q 2397 3584 2719 3584 
Q 3081 3584 3359 3409 
Q 3638 3234 3781 2919 
z
" transform="scale(0.015625)"/>
       <path id="DejaVuSans-Bold-65" d="M 4031 1759 
L 4031 1441 
L 1416 1441 
Q 1456 1047 1700 850 
Q 1944 653 2381 653 
Q 2734 653 3104 758 
Q 3475 863 3866 1075 
L 3866 213 
Q 3469 63 3072 -14 
Q 2675 -91 2278 -91 
Q 1328 -91 801 392 
Q 275 875 275 1747 
Q 275 2603 792 3093 
Q 1309 3584 2216 3584 
Q 3041 3584 3536 3087 
Q 4031 2591 4031 1759 
z
M 2881 2131 
Q 2881 2450 2695 2645 
Q 2509 2841 2209 2841 
Q 1884 2841 1681 2658 
Q 1478 2475 1428 2131 
L 2881 2131 
z
" transform="scale(0.015625)"/>
       <path id="DejaVuSans-Bold-20" transform="scale(0.015625)"/>
       <path id="DejaVuSans-Bold-5b" d="M 550 4863 
L 2491 4863 
L 2491 4159 
L 1613 4159 
L 1613 -141 
L 2491 -141 
L 2491 -844 
L 550 -844 
L 550 4863 
z
" transform="scale(0.015625)"/>
       <path id="DejaVuSans-Bold-68" d="M 4056 2131 
L 4056 0 
L 2931 0 
L 2931 347 
L 2931 1625 
Q 2931 2084 2911 2256 
Q 2891 2428 2841 2509 
Q 2775 2619 2662 2680 
Q 2550 2741 2406 2741 
Q 2056 2741 1856 2470 
Q 1656 2200 1656 1722 
L 1656 0 
L 538 0 
L 538 4863 
L 1656 4863 
L 1656 2988 
Q 1909 3294 2193 3439 
Q 2478 3584 2822 3584 
Q 3428 3584 3742 3212 
Q 4056 2841 4056 2131 
z
" transform="scale(0.015625)"/>
       <path id="DejaVuSans-Bold-72" d="M 3138 2547 
Q 2991 2616 2845 2648 
Q 2700 2681 2553 2681 
Q 2122 2681 1889 2404 
Q 1656 2128 1656 1613 
L 1656 0 
L 538 0 
L 538 3500 
L 1656 3500 
L 1656 2925 
Q 1872 3269 2151 3426 
Q 2431 3584 2822 3584 
Q 2878 3584 2943 3579 
Q 3009 3575 3134 3559 
L 3138 2547 
z
" transform="scale(0.015625)"/>
       <path id="DejaVuSans-Bold-5d" d="M 2375 -844 
L 434 -844 
L 434 -141 
L 1313 -141 
L 1313 4159 
L 434 4159 
L 434 4863 
L 2375 4863 
L 2375 -844 
z
" transform="scale(0.015625)"/>
      </defs>
      <use xlink:href="#DejaVuSans-Bold-74"/>
      <use xlink:href="#DejaVuSans-Bold-69" transform="translate(47.802734 0)"/>
      <use xlink:href="#DejaVuSans-Bold-6d" transform="translate(82.080078 0)"/>
      <use xlink:href="#DejaVuSans-Bold-65" transform="translate(186.279297 0)"/>
      <use xlink:href="#DejaVuSans-Bold-20" transform="translate(254.101562 0)"/>
      <use xlink:href="#DejaVuSans-Bold-5b" transform="translate(288.916016 0)"/>
      <use xlink:href="#DejaVuSans-Bold-68" transform="translate(334.619141 0)"/>
      <use xlink:href="#DejaVuSans-Bold-72" transform="translate(405.810547 0)"/>
      <use xlink:href="#DejaVuSans-Bold-5d" transform="translate(455.126953 0)"/>
     </g>
    </g>
   </g>
   <g id="matplotlib.axis_2">
    <g id="ytick_1">
     <g id="line2d_6">
      <defs>
       <path id="m205101016a" d="M 0 0 
L -3.5 0 
" style="stroke: #000000; stroke-width: 0.8"/>
      </defs>
      <g>
       <use xlink:href="#m205101016a" x="54.708125" y="285.813027" style="stroke: #000000; stroke-width: 0.8"/>
      </g>
     </g>
     <g id="text_7">
      <!-- 30 -->
      <g transform="translate(28.620625 291.511855) scale(0.15 -0.15)">
       <defs>
        <path id="DejaVuSans-33" d="M 2597 2516 
Q 3050 2419 3304 2112 
Q 3559 1806 3559 1356 
Q 3559 666 3084 287 
Q 2609 -91 1734 -91 
Q 1441 -91 1130 -33 
Q 819 25 488 141 
L 488 750 
Q 750 597 1062 519 
Q 1375 441 1716 441 
Q 2309 441 2620 675 
Q 2931 909 2931 1356 
Q 2931 1769 2642 2001 
Q 2353 2234 1838 2234 
L 1294 2234 
L 1294 2753 
L 1863 2753 
Q 2328 2753 2575 2939 
Q 2822 3125 2822 3475 
Q 2822 3834 2567 4026 
Q 2313 4219 1838 4219 
Q 1578 4219 1281 4162 
Q 984 4106 628 3988 
L 628 4550 
Q 988 4650 1302 4700 
Q 1616 4750 1894 4750 
Q 2613 4750 3031 4423 
Q 3450 4097 3450 3541 
Q 3450 3153 3228 2886 
Q 3006 2619 2597 2516 
z
" transform="scale(0.015625)"/>
       </defs>
       <use xlink:href="#DejaVuSans-33"/>
       <use xlink:href="#DejaVuSans-30" transform="translate(63.623047 0)"/>
      </g>
     </g>
    </g>
    <g id="ytick_2">
     <g id="line2d_7">
      <g>
       <use xlink:href="#m205101016a" x="54.708125" y="249.168073" style="stroke: #000000; stroke-width: 0.8"/>
      </g>
     </g>
     <g id="text_8">
      <!-- 32 -->
      <g transform="translate(28.620625 254.866901) scale(0.15 -0.15)">
       <use xlink:href="#DejaVuSans-33"/>
       <use xlink:href="#DejaVuSans-32" transform="translate(63.623047 0)"/>
      </g>
     </g>
    </g>
    <g id="ytick_3">
     <g id="line2d_8">
      <g>
       <use xlink:href="#m205101016a" x="54.708125" y="212.523118" style="stroke: #000000; stroke-width: 0.8"/>
      </g>
     </g>
     <g id="text_9">
      <!-- 34 -->
      <g transform="translate(28.620625 218.221946) scale(0.15 -0.15)">
       <use xlink:href="#DejaVuSans-33"/>
       <use xlink:href="#DejaVuSans-34" transform="translate(63.623047 0)"/>
      </g>
     </g>
    </g>
    <g id="ytick_4">
     <g id="line2d_9">
      <g>
       <use xlink:href="#m205101016a" x="54.708125" y="175.878163" style="stroke: #000000; stroke-width: 0.8"/>
      </g>
     </g>
     <g id="text_10">
      <!-- 36 -->
      <g transform="translate(28.620625 181.576991) scale(0.15 -0.15)">
       <use xlink:href="#DejaVuSans-33"/>
       <use xlink:href="#DejaVuSans-36" transform="translate(63.623047 0)"/>
      </g>
     </g>
    </g>
    <g id="ytick_5">
     <g id="line2d_10">
      <g>
       <use xlink:href="#m205101016a" x="54.708125" y="139.233208" style="stroke: #000000; stroke-width: 0.8"/>
      </g>
     </g>
     <g id="text_11">
      <!-- 38 -->
      <g transform="translate(28.620625 144.932037) scale(0.15 -0.15)">
       <use xlink:href="#DejaVuSans-33"/>
       <use xlink:href="#DejaVuSans-38" transform="translate(63.623047 0)"/>
      </g>
     </g>
    </g>
    <g id="ytick_6">
     <g id="line2d_11">
      <g>
       <use xlink:href="#m205101016a" x="54.708125" y="102.588254" style="stroke: #000000; stroke-width: 0.8"/>
      </g>
     </g>
     <g id="text_12">
      <!-- 40 -->
      <g transform="translate(28.620625 108.287082) scale(0.15 -0.15)">
       <use xlink:href="#DejaVuSans-34"/>
       <use xlink:href="#DejaVuSans-30" transform="translate(63.623047 0)"/>
      </g>
     </g>
    </g>
    <g id="ytick_7">
     <g id="line2d_12">
      <g>
       <use xlink:href="#m205101016a" x="54.708125" y="65.943299" style="stroke: #000000; stroke-width: 0.8"/>
      </g>
     </g>
     <g id="text_13">
      <!-- 42 -->
      <g transform="translate(28.620625 71.642127) scale(0.15 -0.15)">
       <use xlink:href="#DejaVuSans-34"/>
       <use xlink:href="#DejaVuSans-32" transform="translate(63.623047 0)"/>
      </g>
     </g>
    </g>
    <g id="text_14">
     <!-- aPTT [s] -->
     <g transform="translate(20.877188 223.668281) rotate(-90) scale(0.18 -0.18)">
      <defs>
       <path id="DejaVuSans-Bold-61" d="M 2106 1575 
Q 1756 1575 1579 1456 
Q 1403 1338 1403 1106 
Q 1403 894 1545 773 
Q 1688 653 1941 653 
Q 2256 653 2472 879 
Q 2688 1106 2688 1447 
L 2688 1575 
L 2106 1575 
z
M 3816 1997 
L 3816 0 
L 2688 0 
L 2688 519 
Q 2463 200 2181 54 
Q 1900 -91 1497 -91 
Q 953 -91 614 226 
Q 275 544 275 1050 
Q 275 1666 698 1953 
Q 1122 2241 2028 2241 
L 2688 2241 
L 2688 2328 
Q 2688 2594 2478 2717 
Q 2269 2841 1825 2841 
Q 1466 2841 1156 2769 
Q 847 2697 581 2553 
L 581 3406 
Q 941 3494 1303 3539 
Q 1666 3584 2028 3584 
Q 2975 3584 3395 3211 
Q 3816 2838 3816 1997 
z
" transform="scale(0.015625)"/>
       <path id="DejaVuSans-Bold-50" d="M 588 4666 
L 2584 4666 
Q 3475 4666 3951 4270 
Q 4428 3875 4428 3144 
Q 4428 2409 3951 2014 
Q 3475 1619 2584 1619 
L 1791 1619 
L 1791 0 
L 588 0 
L 588 4666 
z
M 1791 3794 
L 1791 2491 
L 2456 2491 
Q 2806 2491 2997 2661 
Q 3188 2831 3188 3144 
Q 3188 3456 2997 3625 
Q 2806 3794 2456 3794 
L 1791 3794 
z
" transform="scale(0.015625)"/>
       <path id="DejaVuSans-Bold-54" d="M 31 4666 
L 4331 4666 
L 4331 3756 
L 2784 3756 
L 2784 0 
L 1581 0 
L 1581 3756 
L 31 3756 
L 31 4666 
z
" transform="scale(0.015625)"/>
       <path id="DejaVuSans-Bold-73" d="M 3272 3391 
L 3272 2541 
Q 2913 2691 2578 2766 
Q 2244 2841 1947 2841 
Q 1628 2841 1473 2761 
Q 1319 2681 1319 2516 
Q 1319 2381 1436 2309 
Q 1553 2238 1856 2203 
L 2053 2175 
Q 2913 2066 3209 1816 
Q 3506 1566 3506 1031 
Q 3506 472 3093 190 
Q 2681 -91 1863 -91 
Q 1516 -91 1145 -36 
Q 775 19 384 128 
L 384 978 
Q 719 816 1070 734 
Q 1422 653 1784 653 
Q 2113 653 2278 743 
Q 2444 834 2444 1013 
Q 2444 1163 2330 1236 
Q 2216 1309 1875 1350 
L 1678 1375 
Q 931 1469 631 1722 
Q 331 1975 331 2491 
Q 331 3047 712 3315 
Q 1094 3584 1881 3584 
Q 2191 3584 2531 3537 
Q 2872 3491 3272 3391 
z
" transform="scale(0.015625)"/>
      </defs>
      <use xlink:href="#DejaVuSans-Bold-61"/>
      <use xlink:href="#DejaVuSans-Bold-50" transform="translate(67.480469 0)"/>
      <use xlink:href="#DejaVuSans-Bold-54" transform="translate(140.771484 0)"/>
      <use xlink:href="#DejaVuSans-Bold-54" transform="translate(211.234375 0)"/>
      <use xlink:href="#DejaVuSans-Bold-20" transform="translate(279.447266 0)"/>
      <use xlink:href="#DejaVuSans-Bold-5b" transform="translate(314.261719 0)"/>
      <use xlink:href="#DejaVuSans-Bold-73" transform="translate(359.964844 0)"/>
      <use xlink:href="#DejaVuSans-Bold-5d" transform="translate(419.486328 0)"/>
     </g>
    </g>
   </g>
   <g id="line2d_13">
    <path d="M 70.14686 289.477523 
L 70.301248 288.656296 
L 70.610022 281.459292 
L 71.536346 245.839526 
L 72.308283 220.269151 
L 73.08022 202.278081 
L 73.697769 192.507034 
L 74.315319 185.940434 
L 74.932868 181.871855 
L 75.39603 180.117678 
L 75.859192 179.260983 
L 76.167967 179.109479 
L 76.476742 179.246301 
L 76.785516 179.636029 
L 77.248678 180.62701 
L 77.866228 182.568142 
L 78.638165 185.746905 
L 79.873263 191.966369 
L 82.034686 204.326233 
L 85.122433 221.777298 
L 87.129469 231.908951 
L 88.982117 240.187425 
L 90.834765 247.433335 
L 92.533026 253.222251 
L 94.231287 258.267111 
L 95.929548 262.644754 
L 97.627809 266.431509 
L 99.32607 269.699463 
L 101.024331 272.514671 
L 102.876979 275.139061 
L 104.729627 277.363263 
L 106.582275 279.246432 
L 108.589311 280.960702 
L 110.596346 282.389877 
L 112.757769 283.663574 
L 115.07358 284.776576 
L 117.698165 285.783622 
L 120.631524 286.656799 
L 123.873659 287.384339 
L 127.733342 288.010363 
L 132.364963 288.519929 
L 138.077295 288.911867 
L 145.642275 289.195894 
L 157.066939 289.379309 
L 178.835556 289.46433 
L 281.657532 289.477522 
L 378.921564 289.477523 
L 378.921564 289.477523 
" clip-path="url(#p73a14836fc)" style="fill: none; stroke: #000000; stroke-width: 2; stroke-linecap: square"/>
   </g>
   <g id="line2d_14">
    <path d="M 70.14686 287.645275 
L 77.866228 192.368393 
L 85.585595 227.1811 
L 162.779271 260.161559 
L 255.411682 298.638761 
L 348.044093 287.645275 
" clip-path="url(#p73a14836fc)" style="fill: none; stroke-dasharray: 3.7,1.6; stroke-dashoffset: 0; stroke: #000000"/>
    <defs>
     <path id="mb77e85ca52" d="M -3 3 
L 3 3 
L 3 -3 
L -3 -3 
z
" style="stroke: #000000; stroke-linejoin: miter"/>
    </defs>
    <g clip-path="url(#p73a14836fc)">
     <use xlink:href="#mb77e85ca52" x="70.14686" y="287.645275" style="stroke: #000000; stroke-linejoin: miter"/>
     <use xlink:href="#mb77e85ca52" x="77.866228" y="192.368393" style="stroke: #000000; stroke-linejoin: miter"/>
     <use xlink:href="#mb77e85ca52" x="85.585595" y="227.1811" style="stroke: #000000; stroke-linejoin: miter"/>
     <use xlink:href="#mb77e85ca52" x="162.779271" y="260.161559" style="stroke: #000000; stroke-linejoin: miter"/>
     <use xlink:href="#mb77e85ca52" x="255.411682" y="298.638761" style="stroke: #000000; stroke-linejoin: miter"/>
     <use xlink:href="#mb77e85ca52" x="348.044093" y="287.645275" style="stroke: #000000; stroke-linejoin: miter"/>
    </g>
   </g>
   <g id="line2d_15">
    <path d="M 70.14686 258.329311 
L 70.301248 256.904089 
L 70.610022 246.633398 
L 71.381959 204.818706 
L 72.308283 159.60772 
L 73.08022 133.519669 
L 73.697769 119.261928 
L 74.315319 109.608865 
L 74.932868 103.54305 
L 75.39603 100.853587 
L 75.859192 99.449454 
L 76.167967 99.114247 
L 76.476742 99.192153 
L 76.785516 99.632832 
L 77.248678 100.878014 
L 77.866228 103.432834 
L 78.638165 107.720972 
L 79.718876 115.112738 
L 81.571524 129.719736 
L 85.739983 162.983959 
L 87.747018 177.09345 
L 89.599667 188.640028 
L 91.452315 198.772063 
L 93.150576 206.88907 
L 94.848836 213.981447 
L 96.547097 220.151224 
L 98.245358 225.500523 
L 99.943619 230.126552 
L 101.64188 234.119071 
L 103.340141 237.559346 
L 105.038402 240.519966 
L 106.736663 243.065153 
L 108.589311 245.434027 
L 110.441959 247.43916 
L 112.294607 249.135241 
L 114.301643 250.678042 
L 116.463066 252.052971 
L 118.778876 253.254433 
L 121.249074 254.284552 
L 124.028046 255.196419 
L 127.115793 255.97113 
L 130.666702 256.628672 
L 134.835161 257.170886 
L 139.929943 257.604908 
L 146.568599 257.936469 
L 155.986228 258.164452 
L 171.57935 258.290171 
L 213.263935 258.328473 
L 378.921564 258.329311 
L 378.921564 258.329311 
" clip-path="url(#p73a14836fc)" style="fill: none; stroke: #1f77b4; stroke-width: 2; stroke-linecap: square"/>
   </g>
   <g id="line2d_16">
    <path d="M 70.14686 254.664816 
L 77.866228 208.858622 
L 85.585595 207.026375 
L 162.779271 238.174586 
L 255.411682 218.019861 
L 348.044093 232.677843 
" clip-path="url(#p73a14836fc)" style="fill: none; stroke-dasharray: 3.7,1.6; stroke-dashoffset: 0; stroke: #1f77b4"/>
    <defs>
     <path id="ma579cac95d" d="M -3 3 
L 3 3 
L 3 -3 
L -3 -3 
z
" style="stroke: #000000; stroke-linejoin: miter"/>
    </defs>
    <g clip-path="url(#p73a14836fc)">
     <use xlink:href="#ma579cac95d" x="70.14686" y="254.664816" style="fill: #1f77b4; stroke: #000000; stroke-linejoin: miter"/>
     <use xlink:href="#ma579cac95d" x="77.866228" y="208.858622" style="fill: #1f77b4; stroke: #000000; stroke-linejoin: miter"/>
     <use xlink:href="#ma579cac95d" x="85.585595" y="207.026375" style="fill: #1f77b4; stroke: #000000; stroke-linejoin: miter"/>
     <use xlink:href="#ma579cac95d" x="162.779271" y="238.174586" style="fill: #1f77b4; stroke: #000000; stroke-linejoin: miter"/>
     <use xlink:href="#ma579cac95d" x="255.411682" y="218.019861" style="fill: #1f77b4; stroke: #000000; stroke-linejoin: miter"/>
     <use xlink:href="#ma579cac95d" x="348.044093" y="232.677843" style="fill: #1f77b4; stroke: #000000; stroke-linejoin: miter"/>
    </g>
   </g>
   <g id="line2d_17">
    <path d="M 70.14686 305.967752 
L 70.301248 305.282313 
L 70.610022 299.268962 
L 71.381959 274.361262 
L 72.308283 247.677872 
L 73.08022 232.349134 
L 73.697769 223.99319 
L 74.315319 218.36536 
L 74.932868 214.873477 
L 75.39603 213.366773 
L 75.859192 212.630681 
L 76.167967 212.500488 
L 76.476742 212.618064 
L 76.939904 213.193301 
L 77.403066 214.169312 
L 78.020615 215.966613 
L 78.946939 219.441761 
L 80.336425 225.717802 
L 86.666307 255.663363 
L 88.518955 262.896155 
L 90.371603 269.234232 
L 92.069864 274.299632 
L 93.768125 278.713719 
L 95.466386 282.543024 
L 97.164647 285.854275 
L 98.862908 288.710743 
L 100.715556 291.376292 
L 102.568204 293.637059 
L 104.420852 295.552192 
L 106.427888 297.296237 
L 108.434923 298.75066 
L 110.596346 300.047142 
L 112.912157 301.180249 
L 115.536742 302.205627 
L 118.315714 303.053719 
L 121.557848 303.805223 
L 125.263145 304.430222 
L 129.740378 304.949812 
L 135.298323 305.35781 
L 142.554528 305.655296 
L 153.207255 305.850746 
L 172.660062 305.948293 
L 245.839667 305.967729 
L 378.921564 305.967752 
L 378.921564 305.967752 
" clip-path="url(#p73a14836fc)" style="fill: none; stroke: #000000; stroke-width: 2; stroke-linecap: square"/>
   </g>
   <g id="line2d_18">
    <path d="M 70.14686 304.135505 
L 77.866228 207.026375 
L 85.585595 227.1811 
L 162.779271 300.471009 
L 255.411682 289.477523 
L 348.044093 307.8 
" clip-path="url(#p73a14836fc)" style="fill: none; stroke-dasharray: 3.7,1.6; stroke-dashoffset: 0; stroke: #000000"/>
    <g clip-path="url(#p73a14836fc)">
     <use xlink:href="#mb77e85ca52" x="70.14686" y="304.135505" style="stroke: #000000; stroke-linejoin: miter"/>
     <use xlink:href="#mb77e85ca52" x="77.866228" y="207.026375" style="stroke: #000000; stroke-linejoin: miter"/>
     <use xlink:href="#mb77e85ca52" x="85.585595" y="227.1811" style="stroke: #000000; stroke-linejoin: miter"/>
     <use xlink:href="#mb77e85ca52" x="162.779271" y="300.471009" style="stroke: #000000; stroke-linejoin: miter"/>
     <use xlink:href="#mb77e85ca52" x="255.411682" y="289.477523" style="stroke: #000000; stroke-linejoin: miter"/>
     <use xlink:href="#mb77e85ca52" x="348.044093" y="307.8" style="stroke: #000000; stroke-linejoin: miter"/>
    </g>
   </g>
   <g id="line2d_19">
    <path d="M 70.14686 229.013347 
L 70.301248 227.454049 
L 70.610022 217.012037 
L 71.381959 173.774217 
L 72.308283 125.038441 
L 73.08022 96.014224 
L 73.697769 79.838494 
L 74.315319 68.703448 
L 74.932868 61.552395 
L 75.39603 58.271908 
L 75.859192 56.437899 
L 76.167967 55.893382 
L 76.476742 55.816063 
L 76.785516 56.149658 
L 77.094291 56.844261 
L 77.557453 58.4675 
L 78.175002 61.521389 
L 79.101327 67.518237 
L 80.336425 77.206612 
L 82.806623 98.899555 
L 85.739983 124.084271 
L 87.747018 139.525836 
L 89.599667 152.190195 
L 91.452315 163.320729 
L 93.150576 172.248396 
L 94.848836 180.056354 
L 96.547097 186.853829 
L 98.245358 192.751104 
L 99.943619 197.853734 
L 101.64188 202.259559 
L 103.340141 206.057408 
L 105.038402 209.326794 
L 106.736663 212.138186 
L 108.434923 214.553577 
L 110.287572 216.800456 
L 112.14022 218.701466 
L 114.147255 220.431025 
L 116.154291 221.872327 
L 118.315714 223.1564 
L 120.631524 224.278163 
L 123.256109 225.292906 
L 126.189469 226.17259 
L 129.431603 226.905438 
L 133.1369 227.514791 
L 137.614133 228.021287 
L 143.172078 228.418948 
L 150.58267 228.71317 
L 161.544172 228.904098 
L 181.768916 228.996427 
L 264.366149 229.013339 
L 378.921564 229.013347 
L 378.921564 229.013347 
" clip-path="url(#p73a14836fc)" style="fill: none; stroke: #00008b; stroke-width: 2; stroke-linecap: square"/>
   </g>
   <g id="line2d_20">
    <path d="M 70.14686 229.013347 
L 77.866228 194.20064 
L 85.585595 203.361879 
L 162.779271 212.523118 
L 255.411682 219.852109 
L 348.044093 210.69087 
" clip-path="url(#p73a14836fc)" style="fill: none; stroke-dasharray: 3.7,1.6; stroke-dashoffset: 0; stroke: #00008b"/>
    <defs>
     <path id="m2182a60e18" d="M -3 3 
L 3 3 
L 3 -3 
L -3 -3 
z
" style="stroke: #000000; stroke-linejoin: miter"/>
    </defs>
    <g clip-path="url(#p73a14836fc)">
     <use xlink:href="#m2182a60e18" x="70.14686" y="229.013347" style="fill: #00008b; stroke: #000000; stroke-linejoin: miter"/>
     <use xlink:href="#m2182a60e18" x="77.866228" y="194.20064" style="fill: #00008b; stroke: #000000; stroke-linejoin: miter"/>
     <use xlink:href="#m2182a60e18" x="85.585595" y="203.361879" style="fill: #00008b; stroke: #000000; stroke-linejoin: miter"/>
     <use xlink:href="#m2182a60e18" x="162.779271" y="212.523118" style="fill: #00008b; stroke: #000000; stroke-linejoin: miter"/>
     <use xlink:href="#m2182a60e18" x="255.411682" y="219.852109" style="fill: #00008b; stroke: #000000; stroke-linejoin: miter"/>
     <use xlink:href="#m2182a60e18" x="348.044093" y="210.69087" style="fill: #00008b; stroke: #000000; stroke-linejoin: miter"/>
    </g>
   </g>
   <g id="patch_3">
    <path d="M 54.708125 320.4 
L 54.708125 43.2 
" style="fill: none; stroke: #000000; stroke-width: 0.8; stroke-linejoin: miter; stroke-linecap: square"/>
   </g>
   <g id="patch_4">
    <path d="M 394.360299 320.4 
L 394.360299 43.2 
" style="fill: none; stroke: #000000; stroke-width: 0.8; stroke-linejoin: miter; stroke-linecap: square"/>
   </g>
   <g id="patch_5">
    <path d="M 54.708125 320.4 
L 394.360299 320.4 
" style="fill: none; stroke: #000000; stroke-width: 0.8; stroke-linejoin: miter; stroke-linecap: square"/>
   </g>
   <g id="patch_6">
    <path d="M 54.708125 43.2 
L 394.360299 43.2 
" style="fill: none; stroke: #000000; stroke-width: 0.8; stroke-linejoin: miter; stroke-linecap: square"/>
   </g>
   <g id="legend_1">
    <g id="patch_7">
     <path d="M 264.155611 168.625 
L 387.360299 168.625 
Q 389.360299 168.625 389.360299 166.625 
L 389.360299 50.2 
Q 389.360299 48.2 387.360299 48.2 
L 264.155611 48.2 
Q 262.155611 48.2 262.155611 50.2 
L 262.155611 166.625 
Q 262.155611 168.625 264.155611 168.625 
z
" style="fill: #ffffff; opacity: 0.8; stroke: #cccccc; stroke-linejoin: miter"/>
    </g>
    <g id="line2d_21">
     <path d="M 266.155611 56.298437 
L 286.155611 56.298437 
" style="fill: none; stroke: #000000; stroke-width: 2; stroke-linecap: square"/>
    </g>
    <g id="line2d_22"/>
    <g id="text_15">
     <!-- healthyA -->
     <g transform="translate(294.155611 59.798437) scale(0.1 -0.1)">
      <defs>
       <path id="DejaVuSans-68" d="M 3513 2113 
L 3513 0 
L 2938 0 
L 2938 2094 
Q 2938 2591 2744 2837 
Q 2550 3084 2163 3084 
Q 1697 3084 1428 2787 
Q 1159 2491 1159 1978 
L 1159 0 
L 581 0 
L 581 4863 
L 1159 4863 
L 1159 2956 
Q 1366 3272 1645 3428 
Q 1925 3584 2291 3584 
Q 2894 3584 3203 3211 
Q 3513 2838 3513 2113 
z
" transform="scale(0.015625)"/>
       <path id="DejaVuSans-65" d="M 3597 1894 
L 3597 1613 
L 953 1613 
Q 991 1019 1311 708 
Q 1631 397 2203 397 
Q 2534 397 2845 478 
Q 3156 559 3463 722 
L 3463 178 
Q 3153 47 2828 -22 
Q 2503 -91 2169 -91 
Q 1331 -91 842 396 
Q 353 884 353 1716 
Q 353 2575 817 3079 
Q 1281 3584 2069 3584 
Q 2775 3584 3186 3129 
Q 3597 2675 3597 1894 
z
M 3022 2063 
Q 3016 2534 2758 2815 
Q 2500 3097 2075 3097 
Q 1594 3097 1305 2825 
Q 1016 2553 972 2059 
L 3022 2063 
z
" transform="scale(0.015625)"/>
       <path id="DejaVuSans-61" d="M 2194 1759 
Q 1497 1759 1228 1600 
Q 959 1441 959 1056 
Q 959 750 1161 570 
Q 1363 391 1709 391 
Q 2188 391 2477 730 
Q 2766 1069 2766 1631 
L 2766 1759 
L 2194 1759 
z
M 3341 1997 
L 3341 0 
L 2766 0 
L 2766 531 
Q 2569 213 2275 61 
Q 1981 -91 1556 -91 
Q 1019 -91 701 211 
Q 384 513 384 1019 
Q 384 1609 779 1909 
Q 1175 2209 1959 2209 
L 2766 2209 
L 2766 2266 
Q 2766 2663 2505 2880 
Q 2244 3097 1772 3097 
Q 1472 3097 1187 3025 
Q 903 2953 641 2809 
L 641 3341 
Q 956 3463 1253 3523 
Q 1550 3584 1831 3584 
Q 2591 3584 2966 3190 
Q 3341 2797 3341 1997 
z
" transform="scale(0.015625)"/>
       <path id="DejaVuSans-6c" d="M 603 4863 
L 1178 4863 
L 1178 0 
L 603 0 
L 603 4863 
z
" transform="scale(0.015625)"/>
       <path id="DejaVuSans-74" d="M 1172 4494 
L 1172 3500 
L 2356 3500 
L 2356 3053 
L 1172 3053 
L 1172 1153 
Q 1172 725 1289 603 
Q 1406 481 1766 481 
L 2356 481 
L 2356 0 
L 1766 0 
Q 1100 0 847 248 
Q 594 497 594 1153 
L 594 3053 
L 172 3053 
L 172 3500 
L 594 3500 
L 594 4494 
L 1172 4494 
z
" transform="scale(0.015625)"/>
       <path id="DejaVuSans-79" d="M 2059 -325 
Q 1816 -950 1584 -1140 
Q 1353 -1331 966 -1331 
L 506 -1331 
L 506 -850 
L 844 -850 
Q 1081 -850 1212 -737 
Q 1344 -625 1503 -206 
L 1606 56 
L 191 3500 
L 800 3500 
L 1894 763 
L 2988 3500 
L 3597 3500 
L 2059 -325 
z
" transform="scale(0.015625)"/>
       <path id="DejaVuSans-41" d="M 2188 4044 
L 1331 1722 
L 3047 1722 
L 2188 4044 
z
M 1831 4666 
L 2547 4666 
L 4325 0 
L 3669 0 
L 3244 1197 
L 1141 1197 
L 716 0 
L 50 0 
L 1831 4666 
z
" transform="scale(0.015625)"/>
      </defs>
      <use xlink:href="#DejaVuSans-68"/>
      <use xlink:href="#DejaVuSans-65" transform="translate(63.378906 0)"/>
      <use xlink:href="#DejaVuSans-61" transform="translate(124.902344 0)"/>
      <use xlink:href="#DejaVuSans-6c" transform="translate(186.181641 0)"/>
      <use xlink:href="#DejaVuSans-74" transform="translate(213.964844 0)"/>
      <use xlink:href="#DejaVuSans-68" transform="translate(253.173828 0)"/>
      <use xlink:href="#DejaVuSans-79" transform="translate(316.552734 0)"/>
      <use xlink:href="#DejaVuSans-41" transform="translate(375.732422 0)"/>
     </g>
    </g>
    <g id="line2d_23">
     <path d="M 266.155611 70.976562 
L 286.155611 70.976562 
" style="fill: none; stroke-dasharray: 3.7,1.6; stroke-dashoffset: 0; stroke: #000000"/>
    </g>
    <g id="line2d_24">
     <g>
      <use xlink:href="#mb77e85ca52" x="276.155611" y="70.976562" style="stroke: #000000; stroke-linejoin: miter"/>
     </g>
    </g>
    <g id="text_16">
     <!-- healthyA (n=8) -->
     <g transform="translate(294.155611 74.476562) scale(0.1 -0.1)">
      <defs>
       <path id="DejaVuSans-20" transform="scale(0.015625)"/>
       <path id="DejaVuSans-28" d="M 1984 4856 
Q 1566 4138 1362 3434 
Q 1159 2731 1159 2009 
Q 1159 1288 1364 580 
Q 1569 -128 1984 -844 
L 1484 -844 
Q 1016 -109 783 600 
Q 550 1309 550 2009 
Q 550 2706 781 3412 
Q 1013 4119 1484 4856 
L 1984 4856 
z
" transform="scale(0.015625)"/>
       <path id="DejaVuSans-6e" d="M 3513 2113 
L 3513 0 
L 2938 0 
L 2938 2094 
Q 2938 2591 2744 2837 
Q 2550 3084 2163 3084 
Q 1697 3084 1428 2787 
Q 1159 2491 1159 1978 
L 1159 0 
L 581 0 
L 581 3500 
L 1159 3500 
L 1159 2956 
Q 1366 3272 1645 3428 
Q 1925 3584 2291 3584 
Q 2894 3584 3203 3211 
Q 3513 2838 3513 2113 
z
" transform="scale(0.015625)"/>
       <path id="DejaVuSans-3d" d="M 678 2906 
L 4684 2906 
L 4684 2381 
L 678 2381 
L 678 2906 
z
M 678 1631 
L 4684 1631 
L 4684 1100 
L 678 1100 
L 678 1631 
z
" transform="scale(0.015625)"/>
       <path id="DejaVuSans-29" d="M 513 4856 
L 1013 4856 
Q 1481 4119 1714 3412 
Q 1947 2706 1947 2009 
Q 1947 1309 1714 600 
Q 1481 -109 1013 -844 
L 513 -844 
Q 928 -128 1133 580 
Q 1338 1288 1338 2009 
Q 1338 2731 1133 3434 
Q 928 4138 513 4856 
z
" transform="scale(0.015625)"/>
      </defs>
      <use xlink:href="#DejaVuSans-68"/>
      <use xlink:href="#DejaVuSans-65" transform="translate(63.378906 0)"/>
      <use xlink:href="#DejaVuSans-61" transform="translate(124.902344 0)"/>
      <use xlink:href="#DejaVuSans-6c" transform="translate(186.181641 0)"/>
      <use xlink:href="#DejaVuSans-74" transform="translate(213.964844 0)"/>
      <use xlink:href="#DejaVuSans-68" transform="translate(253.173828 0)"/>
      <use xlink:href="#DejaVuSans-79" transform="translate(316.552734 0)"/>
      <use xlink:href="#DejaVuSans-41" transform="translate(375.732422 0)"/>
      <use xlink:href="#DejaVuSans-20" transform="translate(444.140625 0)"/>
      <use xlink:href="#DejaVuSans-28" transform="translate(475.927734 0)"/>
      <use xlink:href="#DejaVuSans-6e" transform="translate(514.941406 0)"/>
      <use xlink:href="#DejaVuSans-3d" transform="translate(578.320312 0)"/>
      <use xlink:href="#DejaVuSans-38" transform="translate(662.109375 0)"/>
      <use xlink:href="#DejaVuSans-29" transform="translate(725.732422 0)"/>
     </g>
    </g>
    <g id="line2d_25">
     <path d="M 266.155611 85.654687 
L 286.155611 85.654687 
" style="fill: none; stroke: #1f77b4; stroke-width: 2; stroke-linecap: square"/>
    </g>
    <g id="line2d_26"/>
    <g id="text_17">
     <!-- mildHI -->
     <g transform="translate(294.155611 89.154687) scale(0.1 -0.1)">
      <defs>
       <path id="DejaVuSans-6d" d="M 3328 2828 
Q 3544 3216 3844 3400 
Q 4144 3584 4550 3584 
Q 5097 3584 5394 3201 
Q 5691 2819 5691 2113 
L 5691 0 
L 5113 0 
L 5113 2094 
Q 5113 2597 4934 2840 
Q 4756 3084 4391 3084 
Q 3944 3084 3684 2787 
Q 3425 2491 3425 1978 
L 3425 0 
L 2847 0 
L 2847 2094 
Q 2847 2600 2669 2842 
Q 2491 3084 2119 3084 
Q 1678 3084 1418 2786 
Q 1159 2488 1159 1978 
L 1159 0 
L 581 0 
L 581 3500 
L 1159 3500 
L 1159 2956 
Q 1356 3278 1631 3431 
Q 1906 3584 2284 3584 
Q 2666 3584 2933 3390 
Q 3200 3197 3328 2828 
z
" transform="scale(0.015625)"/>
       <path id="DejaVuSans-69" d="M 603 3500 
L 1178 3500 
L 1178 0 
L 603 0 
L 603 3500 
z
M 603 4863 
L 1178 4863 
L 1178 4134 
L 603 4134 
L 603 4863 
z
" transform="scale(0.015625)"/>
       <path id="DejaVuSans-64" d="M 2906 2969 
L 2906 4863 
L 3481 4863 
L 3481 0 
L 2906 0 
L 2906 525 
Q 2725 213 2448 61 
Q 2172 -91 1784 -91 
Q 1150 -91 751 415 
Q 353 922 353 1747 
Q 353 2572 751 3078 
Q 1150 3584 1784 3584 
Q 2172 3584 2448 3432 
Q 2725 3281 2906 2969 
z
M 947 1747 
Q 947 1113 1208 752 
Q 1469 391 1925 391 
Q 2381 391 2643 752 
Q 2906 1113 2906 1747 
Q 2906 2381 2643 2742 
Q 2381 3103 1925 3103 
Q 1469 3103 1208 2742 
Q 947 2381 947 1747 
z
" transform="scale(0.015625)"/>
       <path id="DejaVuSans-48" d="M 628 4666 
L 1259 4666 
L 1259 2753 
L 3553 2753 
L 3553 4666 
L 4184 4666 
L 4184 0 
L 3553 0 
L 3553 2222 
L 1259 2222 
L 1259 0 
L 628 0 
L 628 4666 
z
" transform="scale(0.015625)"/>
       <path id="DejaVuSans-49" d="M 628 4666 
L 1259 4666 
L 1259 0 
L 628 0 
L 628 4666 
z
" transform="scale(0.015625)"/>
      </defs>
      <use xlink:href="#DejaVuSans-6d"/>
      <use xlink:href="#DejaVuSans-69" transform="translate(97.412109 0)"/>
      <use xlink:href="#DejaVuSans-6c" transform="translate(125.195312 0)"/>
      <use xlink:href="#DejaVuSans-64" transform="translate(152.978516 0)"/>
      <use xlink:href="#DejaVuSans-48" transform="translate(216.455078 0)"/>
      <use xlink:href="#DejaVuSans-49" transform="translate(291.650391 0)"/>
     </g>
    </g>
    <g id="line2d_27">
     <path d="M 266.155611 100.332812 
L 286.155611 100.332812 
" style="fill: none; stroke-dasharray: 3.7,1.6; stroke-dashoffset: 0; stroke: #1f77b4"/>
    </g>
    <g id="line2d_28">
     <g>
      <use xlink:href="#ma579cac95d" x="276.155611" y="100.332812" style="fill: #1f77b4; stroke: #000000; stroke-linejoin: miter"/>
     </g>
    </g>
    <g id="text_18">
     <!-- mildHI (n=8) -->
     <g transform="translate(294.155611 103.832812) scale(0.1 -0.1)">
      <use xlink:href="#DejaVuSans-6d"/>
      <use xlink:href="#DejaVuSans-69" transform="translate(97.412109 0)"/>
      <use xlink:href="#DejaVuSans-6c" transform="translate(125.195312 0)"/>
      <use xlink:href="#DejaVuSans-64" transform="translate(152.978516 0)"/>
      <use xlink:href="#DejaVuSans-48" transform="translate(216.455078 0)"/>
      <use xlink:href="#DejaVuSans-49" transform="translate(291.650391 0)"/>
      <use xlink:href="#DejaVuSans-20" transform="translate(321.142578 0)"/>
      <use xlink:href="#DejaVuSans-28" transform="translate(352.929688 0)"/>
      <use xlink:href="#DejaVuSans-6e" transform="translate(391.943359 0)"/>
      <use xlink:href="#DejaVuSans-3d" transform="translate(455.322266 0)"/>
      <use xlink:href="#DejaVuSans-38" transform="translate(539.111328 0)"/>
      <use xlink:href="#DejaVuSans-29" transform="translate(602.734375 0)"/>
     </g>
    </g>
    <g id="line2d_29">
     <path d="M 266.155611 115.010937 
L 286.155611 115.010937 
" style="fill: none; stroke: #000000; stroke-width: 2; stroke-linecap: square"/>
    </g>
    <g id="line2d_30"/>
    <g id="text_19">
     <!-- healthyB -->
     <g transform="translate(294.155611 118.510937) scale(0.1 -0.1)">
      <defs>
       <path id="DejaVuSans-42" d="M 1259 2228 
L 1259 519 
L 2272 519 
Q 2781 519 3026 730 
Q 3272 941 3272 1375 
Q 3272 1813 3026 2020 
Q 2781 2228 2272 2228 
L 1259 2228 
z
M 1259 4147 
L 1259 2741 
L 2194 2741 
Q 2656 2741 2882 2914 
Q 3109 3088 3109 3444 
Q 3109 3797 2882 3972 
Q 2656 4147 2194 4147 
L 1259 4147 
z
M 628 4666 
L 2241 4666 
Q 2963 4666 3353 4366 
Q 3744 4066 3744 3513 
Q 3744 3084 3544 2831 
Q 3344 2578 2956 2516 
Q 3422 2416 3680 2098 
Q 3938 1781 3938 1306 
Q 3938 681 3513 340 
Q 3088 0 2303 0 
L 628 0 
L 628 4666 
z
" transform="scale(0.015625)"/>
      </defs>
      <use xlink:href="#DejaVuSans-68"/>
      <use xlink:href="#DejaVuSans-65" transform="translate(63.378906 0)"/>
      <use xlink:href="#DejaVuSans-61" transform="translate(124.902344 0)"/>
      <use xlink:href="#DejaVuSans-6c" transform="translate(186.181641 0)"/>
      <use xlink:href="#DejaVuSans-74" transform="translate(213.964844 0)"/>
      <use xlink:href="#DejaVuSans-68" transform="translate(253.173828 0)"/>
      <use xlink:href="#DejaVuSans-79" transform="translate(316.552734 0)"/>
      <use xlink:href="#DejaVuSans-42" transform="translate(375.732422 0)"/>
     </g>
    </g>
    <g id="line2d_31">
     <path d="M 266.155611 129.689062 
L 286.155611 129.689062 
" style="fill: none; stroke-dasharray: 3.7,1.6; stroke-dashoffset: 0; stroke: #000000"/>
    </g>
    <g id="line2d_32">
     <g>
      <use xlink:href="#mb77e85ca52" x="276.155611" y="129.689062" style="stroke: #000000; stroke-linejoin: miter"/>
     </g>
    </g>
    <g id="text_20">
     <!-- healthyB (n=8) -->
     <g transform="translate(294.155611 133.189062) scale(0.1 -0.1)">
      <use xlink:href="#DejaVuSans-68"/>
      <use xlink:href="#DejaVuSans-65" transform="translate(63.378906 0)"/>
      <use xlink:href="#DejaVuSans-61" transform="translate(124.902344 0)"/>
      <use xlink:href="#DejaVuSans-6c" transform="translate(186.181641 0)"/>
      <use xlink:href="#DejaVuSans-74" transform="translate(213.964844 0)"/>
      <use xlink:href="#DejaVuSans-68" transform="translate(253.173828 0)"/>
      <use xlink:href="#DejaVuSans-79" transform="translate(316.552734 0)"/>
      <use xlink:href="#DejaVuSans-42" transform="translate(375.732422 0)"/>
      <use xlink:href="#DejaVuSans-20" transform="translate(444.335938 0)"/>
      <use xlink:href="#DejaVuSans-28" transform="translate(476.123047 0)"/>
      <use xlink:href="#DejaVuSans-6e" transform="translate(515.136719 0)"/>
      <use xlink:href="#DejaVuSans-3d" transform="translate(578.515625 0)"/>
      <use xlink:href="#DejaVuSans-38" transform="translate(662.304688 0)"/>
      <use xlink:href="#DejaVuSans-29" transform="translate(725.927734 0)"/>
     </g>
    </g>
    <g id="line2d_33">
     <path d="M 266.155611 144.367187 
L 286.155611 144.367187 
" style="fill: none; stroke: #00008b; stroke-width: 2; stroke-linecap: square"/>
    </g>
    <g id="line2d_34"/>
    <g id="text_21">
     <!-- moderateHI -->
     <g transform="translate(294.155611 147.867187) scale(0.1 -0.1)">
      <defs>
       <path id="DejaVuSans-6f" d="M 1959 3097 
Q 1497 3097 1228 2736 
Q 959 2375 959 1747 
Q 959 1119 1226 758 
Q 1494 397 1959 397 
Q 2419 397 2687 759 
Q 2956 1122 2956 1747 
Q 2956 2369 2687 2733 
Q 2419 3097 1959 3097 
z
M 1959 3584 
Q 2709 3584 3137 3096 
Q 3566 2609 3566 1747 
Q 3566 888 3137 398 
Q 2709 -91 1959 -91 
Q 1206 -91 779 398 
Q 353 888 353 1747 
Q 353 2609 779 3096 
Q 1206 3584 1959 3584 
z
" transform="scale(0.015625)"/>
       <path id="DejaVuSans-72" d="M 2631 2963 
Q 2534 3019 2420 3045 
Q 2306 3072 2169 3072 
Q 1681 3072 1420 2755 
Q 1159 2438 1159 1844 
L 1159 0 
L 581 0 
L 581 3500 
L 1159 3500 
L 1159 2956 
Q 1341 3275 1631 3429 
Q 1922 3584 2338 3584 
Q 2397 3584 2469 3576 
Q 2541 3569 2628 3553 
L 2631 2963 
z
" transform="scale(0.015625)"/>
      </defs>
      <use xlink:href="#DejaVuSans-6d"/>
      <use xlink:href="#DejaVuSans-6f" transform="translate(97.412109 0)"/>
      <use xlink:href="#DejaVuSans-64" transform="translate(158.59375 0)"/>
      <use xlink:href="#DejaVuSans-65" transform="translate(222.070312 0)"/>
      <use xlink:href="#DejaVuSans-72" transform="translate(283.59375 0)"/>
      <use xlink:href="#DejaVuSans-61" transform="translate(324.707031 0)"/>
      <use xlink:href="#DejaVuSans-74" transform="translate(385.986328 0)"/>
      <use xlink:href="#DejaVuSans-65" transform="translate(425.195312 0)"/>
      <use xlink:href="#DejaVuSans-48" transform="translate(486.71875 0)"/>
      <use xlink:href="#DejaVuSans-49" transform="translate(561.914062 0)"/>
     </g>
    </g>
    <g id="line2d_35">
     <path d="M 266.155611 159.045312 
L 286.155611 159.045312 
" style="fill: none; stroke-dasharray: 3.7,1.6; stroke-dashoffset: 0; stroke: #00008b"/>
    </g>
    <g id="line2d_36">
     <g>
      <use xlink:href="#m2182a60e18" x="276.155611" y="159.045312" style="fill: #00008b; stroke: #000000; stroke-linejoin: miter"/>
     </g>
    </g>
    <g id="text_22">
     <!-- moderateHI (n=8) -->
     <g transform="translate(294.155611 162.545312) scale(0.1 -0.1)">
      <use xlink:href="#DejaVuSans-6d"/>
      <use xlink:href="#DejaVuSans-6f" transform="translate(97.412109 0)"/>
      <use xlink:href="#DejaVuSans-64" transform="translate(158.59375 0)"/>
      <use xlink:href="#DejaVuSans-65" transform="translate(222.070312 0)"/>
      <use xlink:href="#DejaVuSans-72" transform="translate(283.59375 0)"/>
      <use xlink:href="#DejaVuSans-61" transform="translate(324.707031 0)"/>
      <use xlink:href="#DejaVuSans-74" transform="translate(385.986328 0)"/>
      <use xlink:href="#DejaVuSans-65" transform="translate(425.195312 0)"/>
      <use xlink:href="#DejaVuSans-48" transform="translate(486.71875 0)"/>
      <use xlink:href="#DejaVuSans-49" transform="translate(561.914062 0)"/>
      <use xlink:href="#DejaVuSans-20" transform="translate(591.40625 0)"/>
      <use xlink:href="#DejaVuSans-28" transform="translate(623.193359 0)"/>
      <use xlink:href="#DejaVuSans-6e" transform="translate(662.207031 0)"/>
      <use xlink:href="#DejaVuSans-3d" transform="translate(725.585938 0)"/>
      <use xlink:href="#DejaVuSans-38" transform="translate(809.375 0)"/>
      <use xlink:href="#DejaVuSans-29" transform="translate(872.998047 0)"/>
     </g>
    </g>
   </g>
  </g>
  <g id="axes_2">
   <g id="patch_8">
    <path d="M 496.255951 320.4 
L 835.908125 320.4 
L 835.908125 43.2 
L 496.255951 43.2 
z
" style="fill: #ffffff"/>
   </g>
   <g id="matplotlib.axis_3">
    <g id="xtick_6">
     <g id="line2d_37">
      <g>
       <use xlink:href="#m21e3db30e9" x="511.694686" y="320.4" style="stroke: #000000; stroke-width: 0.8"/>
      </g>
     </g>
     <g id="text_23">
      <!-- 0 -->
      <g transform="translate(506.922811 338.797656) scale(0.15 -0.15)">
       <use xlink:href="#DejaVuSans-30"/>
      </g>
     </g>
    </g>
    <g id="xtick_7">
     <g id="line2d_38">
      <g>
       <use xlink:href="#m21e3db30e9" x="588.888362" y="320.4" style="stroke: #000000; stroke-width: 0.8"/>
      </g>
     </g>
     <g id="text_24">
      <!-- 20 -->
      <g transform="translate(579.344612 338.797656) scale(0.15 -0.15)">
       <use xlink:href="#DejaVuSans-32"/>
       <use xlink:href="#DejaVuSans-30" transform="translate(63.623047 0)"/>
      </g>
     </g>
    </g>
    <g id="xtick_8">
     <g id="line2d_39">
      <g>
       <use xlink:href="#m21e3db30e9" x="666.082038" y="320.4" style="stroke: #000000; stroke-width: 0.8"/>
      </g>
     </g>
     <g id="text_25">
      <!-- 40 -->
      <g transform="translate(656.538288 338.797656) scale(0.15 -0.15)">
       <use xlink:href="#DejaVuSans-34"/>
       <use xlink:href="#DejaVuSans-30" transform="translate(63.623047 0)"/>
      </g>
     </g>
    </g>
    <g id="xtick_9">
     <g id="line2d_40">
      <g>
       <use xlink:href="#m21e3db30e9" x="743.275714" y="320.4" style="stroke: #000000; stroke-width: 0.8"/>
      </g>
     </g>
     <g id="text_26">
      <!-- 60 -->
      <g transform="translate(733.731964 338.797656) scale(0.15 -0.15)">
       <use xlink:href="#DejaVuSans-36"/>
       <use xlink:href="#DejaVuSans-30" transform="translate(63.623047 0)"/>
      </g>
     </g>
    </g>
    <g id="xtick_10">
     <g id="line2d_41">
      <g>
       <use xlink:href="#m21e3db30e9" x="820.46939" y="320.4" style="stroke: #000000; stroke-width: 0.8"/>
      </g>
     </g>
     <g id="text_27">
      <!-- 80 -->
      <g transform="translate(810.92564 338.797656) scale(0.15 -0.15)">
       <use xlink:href="#DejaVuSans-38"/>
       <use xlink:href="#DejaVuSans-30" transform="translate(63.623047 0)"/>
      </g>
     </g>
    </g>
    <g id="text_28">
     <!-- time [hr] -->
     <g transform="translate(621.007507 359.594375) scale(0.18 -0.18)">
      <use xlink:href="#DejaVuSans-Bold-74"/>
      <use xlink:href="#DejaVuSans-Bold-69" transform="translate(47.802734 0)"/>
      <use xlink:href="#DejaVuSans-Bold-6d" transform="translate(82.080078 0)"/>
      <use xlink:href="#DejaVuSans-Bold-65" transform="translate(186.279297 0)"/>
      <use xlink:href="#DejaVuSans-Bold-20" transform="translate(254.101562 0)"/>
      <use xlink:href="#DejaVuSans-Bold-5b" transform="translate(288.916016 0)"/>
      <use xlink:href="#DejaVuSans-Bold-68" transform="translate(334.619141 0)"/>
      <use xlink:href="#DejaVuSans-Bold-72" transform="translate(405.810547 0)"/>
      <use xlink:href="#DejaVuSans-Bold-5d" transform="translate(455.126953 0)"/>
     </g>
    </g>
   </g>
   <g id="matplotlib.axis_4">
    <g id="ytick_8">
     <g id="line2d_42">
      <g>
       <use xlink:href="#m205101016a" x="496.255951" y="302.258375" style="stroke: #000000; stroke-width: 0.8"/>
      </g>
     </g>
     <g id="text_29">
      <!-- 11 -->
      <g transform="translate(470.168451 307.957203) scale(0.15 -0.15)">
       <defs>
        <path id="DejaVuSans-31" d="M 794 531 
L 1825 531 
L 1825 4091 
L 703 3866 
L 703 4441 
L 1819 4666 
L 2450 4666 
L 2450 531 
L 3481 531 
L 3481 0 
L 794 0 
L 794 531 
z
" transform="scale(0.015625)"/>
       </defs>
       <use xlink:href="#DejaVuSans-31"/>
       <use xlink:href="#DejaVuSans-31" transform="translate(63.623047 0)"/>
      </g>
     </g>
    </g>
    <g id="ytick_9">
     <g id="line2d_43">
      <g>
       <use xlink:href="#m205101016a" x="496.255951" y="246.842126" style="stroke: #000000; stroke-width: 0.8"/>
      </g>
     </g>
     <g id="text_30">
      <!-- 12 -->
      <g transform="translate(470.168451 252.540954) scale(0.15 -0.15)">
       <use xlink:href="#DejaVuSans-31"/>
       <use xlink:href="#DejaVuSans-32" transform="translate(63.623047 0)"/>
      </g>
     </g>
    </g>
    <g id="ytick_10">
     <g id="line2d_44">
      <g>
       <use xlink:href="#m205101016a" x="496.255951" y="191.425878" style="stroke: #000000; stroke-width: 0.8"/>
      </g>
     </g>
     <g id="text_31">
      <!-- 13 -->
      <g transform="translate(470.168451 197.124706) scale(0.15 -0.15)">
       <use xlink:href="#DejaVuSans-31"/>
       <use xlink:href="#DejaVuSans-33" transform="translate(63.623047 0)"/>
      </g>
     </g>
    </g>
    <g id="ytick_11">
     <g id="line2d_45">
      <g>
       <use xlink:href="#m205101016a" x="496.255951" y="136.009629" style="stroke: #000000; stroke-width: 0.8"/>
      </g>
     </g>
     <g id="text_32">
      <!-- 14 -->
      <g transform="translate(470.168451 141.708457) scale(0.15 -0.15)">
       <use xlink:href="#DejaVuSans-31"/>
       <use xlink:href="#DejaVuSans-34" transform="translate(63.623047 0)"/>
      </g>
     </g>
    </g>
    <g id="ytick_12">
     <g id="line2d_46">
      <g>
       <use xlink:href="#m205101016a" x="496.255951" y="80.59338" style="stroke: #000000; stroke-width: 0.8"/>
      </g>
     </g>
     <g id="text_33">
      <!-- 15 -->
      <g transform="translate(470.168451 86.292208) scale(0.15 -0.15)">
       <defs>
        <path id="DejaVuSans-35" d="M 691 4666 
L 3169 4666 
L 3169 4134 
L 1269 4134 
L 1269 2991 
Q 1406 3038 1543 3061 
Q 1681 3084 1819 3084 
Q 2600 3084 3056 2656 
Q 3513 2228 3513 1497 
Q 3513 744 3044 326 
Q 2575 -91 1722 -91 
Q 1428 -91 1123 -41 
Q 819 9 494 109 
L 494 744 
Q 775 591 1075 516 
Q 1375 441 1709 441 
Q 2250 441 2565 725 
Q 2881 1009 2881 1497 
Q 2881 1984 2565 2268 
Q 2250 2553 1709 2553 
Q 1456 2553 1204 2497 
Q 953 2441 691 2322 
L 691 4666 
z
" transform="scale(0.015625)"/>
       </defs>
       <use xlink:href="#DejaVuSans-31"/>
       <use xlink:href="#DejaVuSans-35" transform="translate(63.623047 0)"/>
      </g>
     </g>
    </g>
    <g id="text_34">
     <!-- PT [s] -->
     <g transform="translate(462.425014 211.2525) rotate(-90) scale(0.18 -0.18)">
      <use xlink:href="#DejaVuSans-Bold-50"/>
      <use xlink:href="#DejaVuSans-Bold-54" transform="translate(73.291016 0)"/>
      <use xlink:href="#DejaVuSans-Bold-20" transform="translate(141.503906 0)"/>
      <use xlink:href="#DejaVuSans-Bold-5b" transform="translate(176.318359 0)"/>
      <use xlink:href="#DejaVuSans-Bold-73" transform="translate(222.021484 0)"/>
      <use xlink:href="#DejaVuSans-Bold-5d" transform="translate(281.542969 0)"/>
     </g>
    </g>
   </g>
   <g id="line2d_47">
    <path d="M 511.694686 302.258375 
L 511.849074 301.714906 
L 512.157848 296.927177 
L 512.929785 276.708356 
L 513.856109 254.329415 
L 514.628046 241.122614 
L 515.245595 233.812011 
L 515.863145 228.843097 
L 516.480694 225.741577 
L 516.943856 224.39891 
L 517.407018 223.74199 
L 517.715793 223.625733 
L 518.024568 223.730725 
L 518.48773 224.244154 
L 519.105279 225.471736 
L 519.877216 227.664393 
L 520.957927 231.55176 
L 522.810576 239.294522 
L 526.361485 254.220225 
L 528.36852 261.644649 
L 530.221168 267.655932 
L 531.919429 272.467196 
L 533.61769 276.657538 
L 535.315951 280.287256 
L 537.014212 283.419778 
L 538.712473 286.116369 
L 540.565121 288.62726 
L 542.417769 290.752304 
L 544.270417 292.54897 
L 546.277453 294.182208 
L 548.438876 295.636642 
L 550.754686 296.906587 
L 553.224884 297.994603 
L 555.849469 298.909774 
L 558.782829 299.702515 
L 562.17935 300.389257 
L 566.193421 300.967218 
L 571.133817 301.439535 
L 577.309311 301.795006 
L 585.800615 302.046596 
L 599.232315 302.197007 
L 629.183461 302.254499 
L 820.46939 302.258375 
L 820.46939 302.258375 
" clip-path="url(#pd1ab09e194)" style="fill: none; stroke: #000000; stroke-width: 2; stroke-linecap: square"/>
   </g>
   <g id="line2d_48">
    <path d="M 511.694686 302.258375 
L 519.414054 219.134002 
" clip-path="url(#pd1ab09e194)" style="fill: none; stroke-dasharray: 3.7,1.6; stroke-dashoffset: 0; stroke: #000000"/>
    <g clip-path="url(#pd1ab09e194)">
     <use xlink:href="#mb77e85ca52" x="511.694686" y="302.258375" style="stroke: #000000; stroke-linejoin: miter"/>
     <use xlink:href="#mb77e85ca52" x="519.414054" y="219.134002" style="stroke: #000000; stroke-linejoin: miter"/>
    </g>
   </g>
   <g id="line2d_49">
    <path d="M 511.694686 219.134002 
L 511.849074 218.119703 
L 512.157848 210.757407 
L 512.775398 186.370891 
L 513.856109 144.40805 
L 514.628046 123.022224 
L 515.245595 111.017802 
L 515.863145 102.759016 
L 516.480694 97.513993 
L 516.943856 95.174614 
L 517.407018 93.949853 
L 517.715793 93.657122 
L 518.024568 93.725167 
L 518.333342 94.109939 
L 518.796504 95.1959 
L 519.414054 97.418291 
L 520.185991 101.131195 
L 521.266702 107.481068 
L 523.273738 120.905351 
L 526.515872 142.421013 
L 528.522908 154.201522 
L 530.375556 163.757217 
L 532.073817 171.417881 
L 533.772078 178.099555 
L 535.470338 183.894854 
L 537.168599 188.90212 
L 538.86686 193.216956 
L 540.565121 196.928087 
L 542.263382 200.115638 
L 543.961643 202.850763 
L 545.659904 205.195948 
L 547.512552 207.373424 
L 549.3652 209.212507 
L 551.372236 210.883095 
L 553.379271 212.273295 
L 555.540694 213.510317 
L 557.856504 214.589787 
L 560.481089 215.565305 
L 563.414449 216.410238 
L 566.810971 217.142145 
L 570.670655 217.738364 
L 575.302275 218.223355 
L 581.168995 218.6038 
L 589.04275 218.877477 
L 601.084963 219.049504 
L 625.16939 219.124835 
L 768.440852 219.134002 
L 820.46939 219.134002 
L 820.46939 219.134002 
" clip-path="url(#pd1ab09e194)" style="fill: none; stroke: #1f77b4; stroke-width: 2; stroke-linecap: square"/>
   </g>
   <g id="line2d_50">
    <path d="M 511.694686 219.134002 
L 519.414054 163.717753 
L 527.133421 130.468004 
L 604.327097 219.134002 
L 696.959508 219.134002 
L 789.591919 224.675627 
" clip-path="url(#pd1ab09e194)" style="fill: none; stroke-dasharray: 3.7,1.6; stroke-dashoffset: 0; stroke: #1f77b4"/>
    <g clip-path="url(#pd1ab09e194)">
     <use xlink:href="#ma579cac95d" x="511.694686" y="219.134002" style="fill: #1f77b4; stroke: #000000; stroke-linejoin: miter"/>
     <use xlink:href="#ma579cac95d" x="519.414054" y="163.717753" style="fill: #1f77b4; stroke: #000000; stroke-linejoin: miter"/>
     <use xlink:href="#ma579cac95d" x="527.133421" y="130.468004" style="fill: #1f77b4; stroke: #000000; stroke-linejoin: miter"/>
     <use xlink:href="#ma579cac95d" x="604.327097" y="219.134002" style="fill: #1f77b4; stroke: #000000; stroke-linejoin: miter"/>
     <use xlink:href="#ma579cac95d" x="696.959508" y="219.134002" style="fill: #1f77b4; stroke: #000000; stroke-linejoin: miter"/>
     <use xlink:href="#ma579cac95d" x="789.591919" y="224.675627" style="fill: #1f77b4; stroke: #000000; stroke-linejoin: miter"/>
    </g>
   </g>
   <g id="line2d_51">
    <path d="M 511.694686 302.258375 
L 511.849074 301.790676 
L 512.157848 297.669075 
L 512.929785 280.236224 
L 513.856109 260.889598 
L 514.628046 249.446921 
L 515.245595 243.104725 
L 515.863145 238.790714 
L 516.480694 236.096617 
L 516.943856 234.930001 
L 517.407018 234.359145 
L 517.715793 234.258115 
L 518.024568 234.349356 
L 518.48773 234.795524 
L 519.105279 235.862173 
L 519.877216 237.76697 
L 520.957927 241.142707 
L 522.810576 247.861532 
L 526.361485 260.79507 
L 528.36852 267.219571 
L 530.221168 272.416893 
L 532.073817 276.924337 
L 533.772078 280.496391 
L 535.470338 283.587825 
L 537.168599 286.253965 
L 539.021248 288.739621 
L 540.873896 290.845091 
L 542.726544 292.626168 
L 544.73358 294.245804 
L 546.895002 295.688463 
L 549.210813 296.948313 
L 551.68101 298.027775 
L 554.305595 298.935797 
L 557.393342 299.758177 
L 560.789864 300.429969 
L 564.803935 300.995346 
L 569.744331 301.457377 
L 576.074212 301.81151 
L 584.719904 302.057027 
L 598.614765 302.202469 
L 630.572947 302.255441 
L 820.46939 302.258375 
L 820.46939 302.258375 
" clip-path="url(#pd1ab09e194)" style="fill: none; stroke: #000000; stroke-width: 2; stroke-linecap: square"/>
   </g>
   <g id="line2d_52">
    <path d="M 511.694686 302.258375 
M 696.959508 307.8 
" clip-path="url(#pd1ab09e194)" style="fill: none; stroke-dasharray: 3.7,1.6; stroke-dashoffset: 0; stroke: #000000"/>
    <g clip-path="url(#pd1ab09e194)">
     <use xlink:href="#mb77e85ca52" x="511.694686" y="302.258375" style="stroke: #000000; stroke-linejoin: miter"/>
     <use xlink:href="#mb77e85ca52" x="696.959508" y="307.8" style="stroke: #000000; stroke-linejoin: miter"/>
    </g>
   </g>
   <g id="line2d_53">
    <path d="M 511.694686 191.425878 
L 511.849074 190.327519 
L 512.157848 182.920293 
L 512.775398 158.091004 
L 514.010497 108.179099 
L 514.782433 86.140919 
L 515.399983 73.700875 
L 516.017532 65.125472 
L 516.635082 59.692171 
L 517.098244 57.290796 
L 517.561406 56.064305 
L 517.87018 55.8 
L 518.178955 55.917384 
L 518.48773 56.370135 
L 518.950892 57.588361 
L 519.568441 60.03357 
L 520.340378 64.081102 
L 521.575477 72.029041 
L 523.891287 88.90816 
L 526.670259 108.685423 
L 528.677295 121.386909 
L 530.529943 131.689323 
L 532.228204 139.949141 
L 533.926465 147.154096 
L 535.624726 153.403943 
L 537.322987 158.804547 
L 539.021248 163.458822 
L 540.719508 167.462289 
L 542.417769 170.901237 
L 544.11603 173.852308 
L 545.814291 176.382828 
L 547.666939 178.732533 
L 549.519587 180.717193 
L 551.372236 182.392869 
L 553.379271 183.914622 
L 555.540694 185.268779 
L 557.856504 186.450524 
L 560.326702 187.46257 
L 563.105674 188.357535 
L 566.193421 189.11722 
L 569.744331 189.761526 
L 574.067176 190.308509 
L 579.316346 190.737182 
L 586.10939 191.057744 
L 595.835793 191.275743 
L 612.35524 191.393154 
L 660.215319 191.425481 
L 820.46939 191.425878 
L 820.46939 191.425878 
" clip-path="url(#pd1ab09e194)" style="fill: none; stroke: #00008b; stroke-width: 2; stroke-linecap: square"/>
   </g>
   <g id="line2d_54">
    <path d="M 511.694686 191.425878 
L 519.414054 136.009629 
L 527.133421 141.551254 
L 604.327097 219.134002 
M 789.591919 219.134002 
" clip-path="url(#pd1ab09e194)" style="fill: none; stroke-dasharray: 3.7,1.6; stroke-dashoffset: 0; stroke: #00008b"/>
    <g clip-path="url(#pd1ab09e194)">
     <use xlink:href="#m2182a60e18" x="511.694686" y="191.425878" style="fill: #00008b; stroke: #000000; stroke-linejoin: miter"/>
     <use xlink:href="#m2182a60e18" x="519.414054" y="136.009629" style="fill: #00008b; stroke: #000000; stroke-linejoin: miter"/>
     <use xlink:href="#m2182a60e18" x="527.133421" y="141.551254" style="fill: #00008b; stroke: #000000; stroke-linejoin: miter"/>
     <use xlink:href="#m2182a60e18" x="604.327097" y="219.134002" style="fill: #00008b; stroke: #000000; stroke-linejoin: miter"/>
     <use xlink:href="#m2182a60e18" x="789.591919" y="219.134002" style="fill: #00008b; stroke: #000000; stroke-linejoin: miter"/>
    </g>
   </g>
   <g id="patch_9">
    <path d="M 496.255951 320.4 
L 496.255951 43.2 
" style="fill: none; stroke: #000000; stroke-width: 0.8; stroke-linejoin: miter; stroke-linecap: square"/>
   </g>
   <g id="patch_10">
    <path d="M 835.908125 320.4 
L 835.908125 43.2 
" style="fill: none; stroke: #000000; stroke-width: 0.8; stroke-linejoin: miter; stroke-linecap: square"/>
   </g>
   <g id="patch_11">
    <path d="M 496.255951 320.4 
L 835.908125 320.4 
" style="fill: none; stroke: #000000; stroke-width: 0.8; stroke-linejoin: miter; stroke-linecap: square"/>
   </g>
   <g id="patch_12">
    <path d="M 496.255951 43.2 
L 835.908125 43.2 
" style="fill: none; stroke: #000000; stroke-width: 0.8; stroke-linejoin: miter; stroke-linecap: square"/>
   </g>
   <g id="legend_2">
    <g id="patch_13">
     <path d="M 705.703438 168.625 
L 828.908125 168.625 
Q 830.908125 168.625 830.908125 166.625 
L 830.908125 50.2 
Q 830.908125 48.2 828.908125 48.2 
L 705.703438 48.2 
Q 703.703438 48.2 703.703438 50.2 
L 703.703438 166.625 
Q 703.703438 168.625 705.703438 168.625 
z
" style="fill: #ffffff; opacity: 0.8; stroke: #cccccc; stroke-linejoin: miter"/>
    </g>
    <g id="line2d_55">
     <path d="M 707.703438 56.298437 
L 727.703438 56.298437 
" style="fill: none; stroke: #000000; stroke-width: 2; stroke-linecap: square"/>
    </g>
    <g id="line2d_56"/>
    <g id="text_35">
     <!-- healthyA -->
     <g transform="translate(735.703438 59.798437) scale(0.1 -0.1)">
      <use xlink:href="#DejaVuSans-68"/>
      <use xlink:href="#DejaVuSans-65" transform="translate(63.378906 0)"/>
      <use xlink:href="#DejaVuSans-61" transform="translate(124.902344 0)"/>
      <use xlink:href="#DejaVuSans-6c" transform="translate(186.181641 0)"/>
      <use xlink:href="#DejaVuSans-74" transform="translate(213.964844 0)"/>
      <use xlink:href="#DejaVuSans-68" transform="translate(253.173828 0)"/>
      <use xlink:href="#DejaVuSans-79" transform="translate(316.552734 0)"/>
      <use xlink:href="#DejaVuSans-41" transform="translate(375.732422 0)"/>
     </g>
    </g>
    <g id="line2d_57">
     <path d="M 707.703438 70.976562 
L 727.703438 70.976562 
" style="fill: none; stroke-dasharray: 3.7,1.6; stroke-dashoffset: 0; stroke: #000000"/>
    </g>
    <g id="line2d_58">
     <g>
      <use xlink:href="#mb77e85ca52" x="717.703438" y="70.976562" style="stroke: #000000; stroke-linejoin: miter"/>
     </g>
    </g>
    <g id="text_36">
     <!-- healthyA (n=8) -->
     <g transform="translate(735.703438 74.476562) scale(0.1 -0.1)">
      <use xlink:href="#DejaVuSans-68"/>
      <use xlink:href="#DejaVuSans-65" transform="translate(63.378906 0)"/>
      <use xlink:href="#DejaVuSans-61" transform="translate(124.902344 0)"/>
      <use xlink:href="#DejaVuSans-6c" transform="translate(186.181641 0)"/>
      <use xlink:href="#DejaVuSans-74" transform="translate(213.964844 0)"/>
      <use xlink:href="#DejaVuSans-68" transform="translate(253.173828 0)"/>
      <use xlink:href="#DejaVuSans-79" transform="translate(316.552734 0)"/>
      <use xlink:href="#DejaVuSans-41" transform="translate(375.732422 0)"/>
      <use xlink:href="#DejaVuSans-20" transform="translate(444.140625 0)"/>
      <use xlink:href="#DejaVuSans-28" transform="translate(475.927734 0)"/>
      <use xlink:href="#DejaVuSans-6e" transform="translate(514.941406 0)"/>
      <use xlink:href="#DejaVuSans-3d" transform="translate(578.320312 0)"/>
      <use xlink:href="#DejaVuSans-38" transform="translate(662.109375 0)"/>
      <use xlink:href="#DejaVuSans-29" transform="translate(725.732422 0)"/>
     </g>
    </g>
    <g id="line2d_59">
     <path d="M 707.703438 85.654687 
L 727.703438 85.654687 
" style="fill: none; stroke: #1f77b4; stroke-width: 2; stroke-linecap: square"/>
    </g>
    <g id="line2d_60"/>
    <g id="text_37">
     <!-- mildHI -->
     <g transform="translate(735.703438 89.154687) scale(0.1 -0.1)">
      <use xlink:href="#DejaVuSans-6d"/>
      <use xlink:href="#DejaVuSans-69" transform="translate(97.412109 0)"/>
      <use xlink:href="#DejaVuSans-6c" transform="translate(125.195312 0)"/>
      <use xlink:href="#DejaVuSans-64" transform="translate(152.978516 0)"/>
      <use xlink:href="#DejaVuSans-48" transform="translate(216.455078 0)"/>
      <use xlink:href="#DejaVuSans-49" transform="translate(291.650391 0)"/>
     </g>
    </g>
    <g id="line2d_61">
     <path d="M 707.703438 100.332812 
L 727.703438 100.332812 
" style="fill: none; stroke-dasharray: 3.7,1.6; stroke-dashoffset: 0; stroke: #1f77b4"/>
    </g>
    <g id="line2d_62">
     <g>
      <use xlink:href="#ma579cac95d" x="717.703438" y="100.332812" style="fill: #1f77b4; stroke: #000000; stroke-linejoin: miter"/>
     </g>
    </g>
    <g id="text_38">
     <!-- mildHI (n=8) -->
     <g transform="translate(735.703438 103.832812) scale(0.1 -0.1)">
      <use xlink:href="#DejaVuSans-6d"/>
      <use xlink:href="#DejaVuSans-69" transform="translate(97.412109 0)"/>
      <use xlink:href="#DejaVuSans-6c" transform="translate(125.195312 0)"/>
      <use xlink:href="#DejaVuSans-64" transform="translate(152.978516 0)"/>
      <use xlink:href="#DejaVuSans-48" transform="translate(216.455078 0)"/>
      <use xlink:href="#DejaVuSans-49" transform="translate(291.650391 0)"/>
      <use xlink:href="#DejaVuSans-20" transform="translate(321.142578 0)"/>
      <use xlink:href="#DejaVuSans-28" transform="translate(352.929688 0)"/>
      <use xlink:href="#DejaVuSans-6e" transform="translate(391.943359 0)"/>
      <use xlink:href="#DejaVuSans-3d" transform="translate(455.322266 0)"/>
      <use xlink:href="#DejaVuSans-38" transform="translate(539.111328 0)"/>
      <use xlink:href="#DejaVuSans-29" transform="translate(602.734375 0)"/>
     </g>
    </g>
    <g id="line2d_63">
     <path d="M 707.703438 115.010937 
L 727.703438 115.010937 
" style="fill: none; stroke: #000000; stroke-width: 2; stroke-linecap: square"/>
    </g>
    <g id="line2d_64"/>
    <g id="text_39">
     <!-- healthyB -->
     <g transform="translate(735.703438 118.510937) scale(0.1 -0.1)">
      <use xlink:href="#DejaVuSans-68"/>
      <use xlink:href="#DejaVuSans-65" transform="translate(63.378906 0)"/>
      <use xlink:href="#DejaVuSans-61" transform="translate(124.902344 0)"/>
      <use xlink:href="#DejaVuSans-6c" transform="translate(186.181641 0)"/>
      <use xlink:href="#DejaVuSans-74" transform="translate(213.964844 0)"/>
      <use xlink:href="#DejaVuSans-68" transform="translate(253.173828 0)"/>
      <use xlink:href="#DejaVuSans-79" transform="translate(316.552734 0)"/>
      <use xlink:href="#DejaVuSans-42" transform="translate(375.732422 0)"/>
     </g>
    </g>
    <g id="line2d_65">
     <path d="M 707.703438 129.689062 
L 727.703438 129.689062 
" style="fill: none; stroke-dasharray: 3.7,1.6; stroke-dashoffset: 0; stroke: #000000"/>
    </g>
    <g id="line2d_66">
     <g>
      <use xlink:href="#mb77e85ca52" x="717.703438" y="129.689062" style="stroke: #000000; stroke-linejoin: miter"/>
     </g>
    </g>
    <g id="text_40">
     <!-- healthyB (n=8) -->
     <g transform="translate(735.703438 133.189062) scale(0.1 -0.1)">
      <use xlink:href="#DejaVuSans-68"/>
      <use xlink:href="#DejaVuSans-65" transform="translate(63.378906 0)"/>
      <use xlink:href="#DejaVuSans-61" transform="translate(124.902344 0)"/>
      <use xlink:href="#DejaVuSans-6c" transform="translate(186.181641 0)"/>
      <use xlink:href="#DejaVuSans-74" transform="translate(213.964844 0)"/>
      <use xlink:href="#DejaVuSans-68" transform="translate(253.173828 0)"/>
      <use xlink:href="#DejaVuSans-79" transform="translate(316.552734 0)"/>
      <use xlink:href="#DejaVuSans-42" transform="translate(375.732422 0)"/>
      <use xlink:href="#DejaVuSans-20" transform="translate(444.335938 0)"/>
      <use xlink:href="#DejaVuSans-28" transform="translate(476.123047 0)"/>
      <use xlink:href="#DejaVuSans-6e" transform="translate(515.136719 0)"/>
      <use xlink:href="#DejaVuSans-3d" transform="translate(578.515625 0)"/>
      <use xlink:href="#DejaVuSans-38" transform="translate(662.304688 0)"/>
      <use xlink:href="#DejaVuSans-29" transform="translate(725.927734 0)"/>
     </g>
    </g>
    <g id="line2d_67">
     <path d="M 707.703438 144.367187 
L 727.703438 144.367187 
" style="fill: none; stroke: #00008b; stroke-width: 2; stroke-linecap: square"/>
    </g>
    <g id="line2d_68"/>
    <g id="text_41">
     <!-- moderateHI -->
     <g transform="translate(735.703438 147.867187) scale(0.1 -0.1)">
      <use xlink:href="#DejaVuSans-6d"/>
      <use xlink:href="#DejaVuSans-6f" transform="translate(97.412109 0)"/>
      <use xlink:href="#DejaVuSans-64" transform="translate(158.59375 0)"/>
      <use xlink:href="#DejaVuSans-65" transform="translate(222.070312 0)"/>
      <use xlink:href="#DejaVuSans-72" transform="translate(283.59375 0)"/>
      <use xlink:href="#DejaVuSans-61" transform="translate(324.707031 0)"/>
      <use xlink:href="#DejaVuSans-74" transform="translate(385.986328 0)"/>
      <use xlink:href="#DejaVuSans-65" transform="translate(425.195312 0)"/>
      <use xlink:href="#DejaVuSans-48" transform="translate(486.71875 0)"/>
      <use xlink:href="#DejaVuSans-49" transform="translate(561.914062 0)"/>
     </g>
    </g>
    <g id="line2d_69">
     <path d="M 707.703438 159.045312 
L 727.703438 159.045312 
" style="fill: none; stroke-dasharray: 3.7,1.6; stroke-dashoffset: 0; stroke: #00008b"/>
    </g>
    <g id="line2d_70">
     <g>
      <use xlink:href="#m2182a60e18" x="717.703438" y="159.045312" style="fill: #00008b; stroke: #000000; stroke-linejoin: miter"/>
     </g>
    </g>
    <g id="text_42">
     <!-- moderateHI (n=8) -->
     <g transform="translate(735.703438 162.545312) scale(0.1 -0.1)">
      <use xlink:href="#DejaVuSans-6d"/>
      <use xlink:href="#DejaVuSans-6f" transform="translate(97.412109 0)"/>
      <use xlink:href="#DejaVuSans-64" transform="translate(158.59375 0)"/>
      <use xlink:href="#DejaVuSans-65" transform="translate(222.070312 0)"/>
      <use xlink:href="#DejaVuSans-72" transform="translate(283.59375 0)"/>
      <use xlink:href="#DejaVuSans-61" transform="translate(324.707031 0)"/>
      <use xlink:href="#DejaVuSans-74" transform="translate(385.986328 0)"/>
      <use xlink:href="#DejaVuSans-65" transform="translate(425.195312 0)"/>
      <use xlink:href="#DejaVuSans-48" transform="translate(486.71875 0)"/>
      <use xlink:href="#DejaVuSans-49" transform="translate(561.914062 0)"/>
      <use xlink:href="#DejaVuSans-20" transform="translate(591.40625 0)"/>
      <use xlink:href="#DejaVuSans-28" transform="translate(623.193359 0)"/>
      <use xlink:href="#DejaVuSans-6e" transform="translate(662.207031 0)"/>
      <use xlink:href="#DejaVuSans-3d" transform="translate(725.585938 0)"/>
      <use xlink:href="#DejaVuSans-38" transform="translate(809.375 0)"/>
      <use xlink:href="#DejaVuSans-29" transform="translate(872.998047 0)"/>
     </g>
    </g>
   </g>
  </g>
  <g id="text_43">
   <!-- Mendell2015 (hepatic impairment) -->
   <g transform="translate(188.028437 26.196094) scale(0.25 -0.25)">
    <defs>
     <path id="DejaVuSans-Bold-4d" d="M 588 4666 
L 2119 4666 
L 3181 2169 
L 4250 4666 
L 5778 4666 
L 5778 0 
L 4641 0 
L 4641 3413 
L 3566 897 
L 2803 897 
L 1728 3413 
L 1728 0 
L 588 0 
L 588 4666 
z
" transform="scale(0.015625)"/>
     <path id="DejaVuSans-Bold-6e" d="M 4056 2131 
L 4056 0 
L 2931 0 
L 2931 347 
L 2931 1631 
Q 2931 2084 2911 2256 
Q 2891 2428 2841 2509 
Q 2775 2619 2662 2680 
Q 2550 2741 2406 2741 
Q 2056 2741 1856 2470 
Q 1656 2200 1656 1722 
L 1656 0 
L 538 0 
L 538 3500 
L 1656 3500 
L 1656 2988 
Q 1909 3294 2193 3439 
Q 2478 3584 2822 3584 
Q 3428 3584 3742 3212 
Q 4056 2841 4056 2131 
z
" transform="scale(0.015625)"/>
     <path id="DejaVuSans-Bold-64" d="M 2919 2988 
L 2919 4863 
L 4044 4863 
L 4044 0 
L 2919 0 
L 2919 506 
Q 2688 197 2409 53 
Q 2131 -91 1766 -91 
Q 1119 -91 703 423 
Q 288 938 288 1747 
Q 288 2556 703 3070 
Q 1119 3584 1766 3584 
Q 2128 3584 2408 3439 
Q 2688 3294 2919 2988 
z
M 2181 722 
Q 2541 722 2730 984 
Q 2919 1247 2919 1747 
Q 2919 2247 2730 2509 
Q 2541 2772 2181 2772 
Q 1825 2772 1636 2509 
Q 1447 2247 1447 1747 
Q 1447 1247 1636 984 
Q 1825 722 2181 722 
z
" transform="scale(0.015625)"/>
     <path id="DejaVuSans-Bold-6c" d="M 538 4863 
L 1656 4863 
L 1656 0 
L 538 0 
L 538 4863 
z
" transform="scale(0.015625)"/>
     <path id="DejaVuSans-Bold-32" d="M 1844 884 
L 3897 884 
L 3897 0 
L 506 0 
L 506 884 
L 2209 2388 
Q 2438 2594 2547 2791 
Q 2656 2988 2656 3200 
Q 2656 3528 2436 3728 
Q 2216 3928 1850 3928 
Q 1569 3928 1234 3808 
Q 900 3688 519 3450 
L 519 4475 
Q 925 4609 1322 4679 
Q 1719 4750 2100 4750 
Q 2938 4750 3402 4381 
Q 3866 4013 3866 3353 
Q 3866 2972 3669 2642 
Q 3472 2313 2841 1759 
L 1844 884 
z
" transform="scale(0.015625)"/>
     <path id="DejaVuSans-Bold-30" d="M 2944 2338 
Q 2944 3213 2780 3570 
Q 2616 3928 2228 3928 
Q 1841 3928 1675 3570 
Q 1509 3213 1509 2338 
Q 1509 1453 1675 1090 
Q 1841 728 2228 728 
Q 2613 728 2778 1090 
Q 2944 1453 2944 2338 
z
M 4147 2328 
Q 4147 1169 3647 539 
Q 3147 -91 2228 -91 
Q 1306 -91 806 539 
Q 306 1169 306 2328 
Q 306 3491 806 4120 
Q 1306 4750 2228 4750 
Q 3147 4750 3647 4120 
Q 4147 3491 4147 2328 
z
" transform="scale(0.015625)"/>
     <path id="DejaVuSans-Bold-31" d="M 750 831 
L 1813 831 
L 1813 3847 
L 722 3622 
L 722 4441 
L 1806 4666 
L 2950 4666 
L 2950 831 
L 4013 831 
L 4013 0 
L 750 0 
L 750 831 
z
" transform="scale(0.015625)"/>
     <path id="DejaVuSans-Bold-35" d="M 678 4666 
L 3669 4666 
L 3669 3781 
L 1638 3781 
L 1638 3059 
Q 1775 3097 1914 3117 
Q 2053 3138 2203 3138 
Q 3056 3138 3531 2711 
Q 4006 2284 4006 1522 
Q 4006 766 3489 337 
Q 2972 -91 2053 -91 
Q 1656 -91 1267 -14 
Q 878 63 494 219 
L 494 1166 
Q 875 947 1217 837 
Q 1559 728 1863 728 
Q 2300 728 2551 942 
Q 2803 1156 2803 1522 
Q 2803 1891 2551 2103 
Q 2300 2316 1863 2316 
Q 1603 2316 1309 2248 
Q 1016 2181 678 2041 
L 678 4666 
z
" transform="scale(0.015625)"/>
     <path id="DejaVuSans-Bold-28" d="M 2413 -844 
L 1484 -844 
Q 1006 -72 778 623 
Q 550 1319 550 2003 
Q 550 2688 779 3389 
Q 1009 4091 1484 4856 
L 2413 4856 
Q 2013 4116 1813 3408 
Q 1613 2700 1613 2009 
Q 1613 1319 1811 609 
Q 2009 -100 2413 -844 
z
" transform="scale(0.015625)"/>
     <path id="DejaVuSans-Bold-70" d="M 1656 506 
L 1656 -1331 
L 538 -1331 
L 538 3500 
L 1656 3500 
L 1656 2988 
Q 1888 3294 2169 3439 
Q 2450 3584 2816 3584 
Q 3463 3584 3878 3070 
Q 4294 2556 4294 1747 
Q 4294 938 3878 423 
Q 3463 -91 2816 -91 
Q 2450 -91 2169 54 
Q 1888 200 1656 506 
z
M 2400 2772 
Q 2041 2772 1848 2508 
Q 1656 2244 1656 1747 
Q 1656 1250 1848 986 
Q 2041 722 2400 722 
Q 2759 722 2948 984 
Q 3138 1247 3138 1747 
Q 3138 2247 2948 2509 
Q 2759 2772 2400 2772 
z
" transform="scale(0.015625)"/>
     <path id="DejaVuSans-Bold-63" d="M 3366 3391 
L 3366 2478 
Q 3138 2634 2908 2709 
Q 2678 2784 2431 2784 
Q 1963 2784 1702 2511 
Q 1441 2238 1441 1747 
Q 1441 1256 1702 982 
Q 1963 709 2431 709 
Q 2694 709 2930 787 
Q 3166 866 3366 1019 
L 3366 103 
Q 3103 6 2833 -42 
Q 2563 -91 2291 -91 
Q 1344 -91 809 395 
Q 275 881 275 1747 
Q 275 2613 809 3098 
Q 1344 3584 2291 3584 
Q 2566 3584 2833 3536 
Q 3100 3488 3366 3391 
z
" transform="scale(0.015625)"/>
     <path id="DejaVuSans-Bold-29" d="M 513 -844 
Q 913 -100 1113 609 
Q 1313 1319 1313 2009 
Q 1313 2700 1113 3408 
Q 913 4116 513 4856 
L 1441 4856 
Q 1916 4091 2145 3389 
Q 2375 2688 2375 2003 
Q 2375 1319 2147 623 
Q 1919 -72 1441 -844 
L 513 -844 
z
" transform="scale(0.015625)"/>
    </defs>
    <use xlink:href="#DejaVuSans-Bold-4d"/>
    <use xlink:href="#DejaVuSans-Bold-65" transform="translate(99.511719 0)"/>
    <use xlink:href="#DejaVuSans-Bold-6e" transform="translate(167.333984 0)"/>
    <use xlink:href="#DejaVuSans-Bold-64" transform="translate(238.525391 0)"/>
    <use xlink:href="#DejaVuSans-Bold-65" transform="translate(310.107422 0)"/>
    <use xlink:href="#DejaVuSans-Bold-6c" transform="translate(377.929688 0)"/>
    <use xlink:href="#DejaVuSans-Bold-6c" transform="translate(412.207031 0)"/>
    <use xlink:href="#DejaVuSans-Bold-32" transform="translate(446.484375 0)"/>
    <use xlink:href="#DejaVuSans-Bold-30" transform="translate(516.064453 0)"/>
    <use xlink:href="#DejaVuSans-Bold-31" transform="translate(585.644531 0)"/>
    <use xlink:href="#DejaVuSans-Bold-35" transform="translate(655.224609 0)"/>
    <use xlink:href="#DejaVuSans-Bold-20" transform="translate(724.804688 0)"/>
    <use xlink:href="#DejaVuSans-Bold-28" transform="translate(759.619141 0)"/>
    <use xlink:href="#DejaVuSans-Bold-68" transform="translate(805.322266 0)"/>
    <use xlink:href="#DejaVuSans-Bold-65" transform="translate(876.513672 0)"/>
    <use xlink:href="#DejaVuSans-Bold-70" transform="translate(944.335938 0)"/>
    <use xlink:href="#DejaVuSans-Bold-61" transform="translate(1015.917969 0)"/>
    <use xlink:href="#DejaVuSans-Bold-74" transform="translate(1083.398438 0)"/>
    <use xlink:href="#DejaVuSans-Bold-69" transform="translate(1131.201172 0)"/>
    <use xlink:href="#DejaVuSans-Bold-63" transform="translate(1165.478516 0)"/>
    <use xlink:href="#DejaVuSans-Bold-20" transform="translate(1224.755859 0)"/>
    <use xlink:href="#DejaVuSans-Bold-69" transform="translate(1259.570312 0)"/>
    <use xlink:href="#DejaVuSans-Bold-6d" transform="translate(1293.847656 0)"/>
    <use xlink:href="#DejaVuSans-Bold-70" transform="translate(1398.046875 0)"/>
    <use xlink:href="#DejaVuSans-Bold-61" transform="translate(1469.628906 0)"/>
    <use xlink:href="#DejaVuSans-Bold-69" transform="translate(1537.109375 0)"/>
    <use xlink:href="#DejaVuSans-Bold-72" transform="translate(1571.386719 0)"/>
    <use xlink:href="#DejaVuSans-Bold-6d" transform="translate(1620.703125 0)"/>
    <use xlink:href="#DejaVuSans-Bold-65" transform="translate(1724.902344 0)"/>
    <use xlink:href="#DejaVuSans-Bold-6e" transform="translate(1792.724609 0)"/>
    <use xlink:href="#DejaVuSans-Bold-74" transform="translate(1863.916016 0)"/>
    <use xlink:href="#DejaVuSans-Bold-29" transform="translate(1911.71875 0)"/>
   </g>
  </g>
 </g>
 <defs>
  <clipPath id="p73a14836fc">
   <rect x="54.708125" y="43.2" width="339.652174" height="277.2"/>
  </clipPath>
  <clipPath id="pd1ab09e194">
   <rect x="496.255951" y="43.2" width="339.652174" height="277.2"/>
  </clipPath>
 </defs>
</svg>
