<?xml version="1.0" encoding="utf-8" standalone="no"?>
<!DOCTYPE svg PUBLIC "-//W3C//DTD SVG 1.1//EN"
  "http://www.w3.org/Graphics/SVG/1.1/DTD/svg11.dtd">
<svg xmlns:xlink="http://www.w3.org/1999/xlink" width="360pt" height="360pt" viewBox="0 0 360 360" xmlns="http://www.w3.org/2000/svg" version="1.1">
 <metadata>
  <rdf:RDF xmlns:dc="http://purl.org/dc/elements/1.1/" xmlns:cc="http://creativecommons.org/ns#" xmlns:rdf="http://www.w3.org/1999/02/22-rdf-syntax-ns#">
   <cc:Work>
    <dc:type rdf:resource="http://purl.org/dc/dcmitype/StillImage"/>
    <dc:date>2025-12-12T20:00:50.693310</dc:date>
    <dc:format>image/svg+xml</dc:format>
    <dc:creator>
     <cc:Agent>
      <dc:title>Matplotlib v3.10.7, https://matplotlib.org/</dc:title>
     </cc:Agent>
    </dc:creator>
   </cc:Work>
  </rdf:RDF>
 </metadata>
 <defs>
  <style type="text/css">*{stroke-linejoin: round; stroke-linecap: butt}</style>
 </defs>
 <g id="figure_1">
  <g id="patch_1">
   <path d="M 0 360 
L 360 360 
L 360 0 
L 0 0 
z
" style="fill: #ffffff"/>
  </g>
  <g id="axes_1">
   <g id="patch_2">
    <path d="M 45 320.4 
L 324 320.4 
L 324 43.2 
L 45 43.2 
z
" style="fill: #ffffff"/>
   </g>
   <g id="matplotlib.axis_1">
    <g id="xtick_1">
     <g id="line2d_1">
      <defs>
       <path id="m47d58b6653" d="M 0 0 
L 0 3.5 
" style="stroke: #000000; stroke-width: 0.8"/>
      </defs>
      <g>
       <use xlink:href="#m47d58b6653" x="57.681818" y="320.4" style="stroke: #000000; stroke-width: 0.8"/>
      </g>
     </g>
     <g id="text_1">
      <!-- 0 -->
      <g transform="translate(54.500568 334.998438) scale(0.1 -0.1)">
       <defs>
        <path id="DejaVuSans-30" d="M 2034 4250 
Q 1547 4250 1301 3770 
Q 1056 3291 1056 2328 
Q 1056 1369 1301 889 
Q 1547 409 2034 409 
Q 2525 409 2770 889 
Q 3016 1369 3016 2328 
Q 3016 3291 2770 3770 
Q 2525 4250 2034 4250 
z
M 2034 4750 
Q 2819 4750 3233 4129 
Q 3647 3509 3647 2328 
Q 3647 1150 3233 529 
Q 2819 -91 2034 -91 
Q 1250 -91 836 529 
Q 422 1150 422 2328 
Q 422 3509 836 4129 
Q 1250 4750 2034 4750 
z
" transform="scale(0.015625)"/>
       </defs>
       <use xlink:href="#DejaVuSans-30"/>
      </g>
     </g>
    </g>
    <g id="xtick_2">
     <g id="line2d_2">
      <g>
       <use xlink:href="#m47d58b6653" x="95.537992" y="320.4" style="stroke: #000000; stroke-width: 0.8"/>
      </g>
     </g>
     <g id="text_2">
      <!-- 50 -->
      <g transform="translate(89.175492 334.998438) scale(0.1 -0.1)">
       <defs>
        <path id="DejaVuSans-35" d="M 691 4666 
L 3169 4666 
L 3169 4134 
L 1269 4134 
L 1269 2991 
Q 1406 3038 1543 3061 
Q 1681 3084 1819 3084 
Q 2600 3084 3056 2656 
Q 3513 2228 3513 1497 
Q 3513 744 3044 326 
Q 2575 -91 1722 -91 
Q 1428 -91 1123 -41 
Q 819 9 494 109 
L 494 744 
Q 775 591 1075 516 
Q 1375 441 1709 441 
Q 2250 441 2565 725 
Q 2881 1009 2881 1497 
Q 2881 1984 2565 2268 
Q 2250 2553 1709 2553 
Q 1456 2553 1204 2497 
Q 953 2441 691 2322 
L 691 4666 
z
" transform="scale(0.015625)"/>
       </defs>
       <use xlink:href="#DejaVuSans-35"/>
       <use xlink:href="#DejaVuSans-30" transform="translate(63.623047 0)"/>
      </g>
     </g>
    </g>
    <g id="xtick_3">
     <g id="line2d_3">
      <g>
       <use xlink:href="#m47d58b6653" x="133.394166" y="320.4" style="stroke: #000000; stroke-width: 0.8"/>
      </g>
     </g>
     <g id="text_3">
      <!-- 100 -->
      <g transform="translate(123.850416 334.998438) scale(0.1 -0.1)">
       <defs>
        <path id="DejaVuSans-31" d="M 794 531 
L 1825 531 
L 1825 4091 
L 703 3866 
L 703 4441 
L 1819 4666 
L 2450 4666 
L 2450 531 
L 3481 531 
L 3481 0 
L 794 0 
L 794 531 
z
" transform="scale(0.015625)"/>
       </defs>
       <use xlink:href="#DejaVuSans-31"/>
       <use xlink:href="#DejaVuSans-30" transform="translate(63.623047 0)"/>
       <use xlink:href="#DejaVuSans-30" transform="translate(127.246094 0)"/>
      </g>
     </g>
    </g>
    <g id="xtick_4">
     <g id="line2d_4">
      <g>
       <use xlink:href="#m47d58b6653" x="171.250339" y="320.4" style="stroke: #000000; stroke-width: 0.8"/>
      </g>
     </g>
     <g id="text_4">
      <!-- 150 -->
      <g transform="translate(161.706589 334.998438) scale(0.1 -0.1)">
       <use xlink:href="#DejaVuSans-31"/>
       <use xlink:href="#DejaVuSans-35" transform="translate(63.623047 0)"/>
       <use xlink:href="#DejaVuSans-30" transform="translate(127.246094 0)"/>
      </g>
     </g>
    </g>
    <g id="xtick_5">
     <g id="line2d_5">
      <g>
       <use xlink:href="#m47d58b6653" x="209.106513" y="320.4" style="stroke: #000000; stroke-width: 0.8"/>
      </g>
     </g>
     <g id="text_5">
      <!-- 200 -->
      <g transform="translate(199.562763 334.998438) scale(0.1 -0.1)">
       <defs>
        <path id="DejaVuSans-32" d="M 1228 531 
L 3431 531 
L 3431 0 
L 469 0 
L 469 531 
Q 828 903 1448 1529 
Q 2069 2156 2228 2338 
Q 2531 2678 2651 2914 
Q 2772 3150 2772 3378 
Q 2772 3750 2511 3984 
Q 2250 4219 1831 4219 
Q 1534 4219 1204 4116 
Q 875 4013 500 3803 
L 500 4441 
Q 881 4594 1212 4672 
Q 1544 4750 1819 4750 
Q 2544 4750 2975 4387 
Q 3406 4025 3406 3419 
Q 3406 3131 3298 2873 
Q 3191 2616 2906 2266 
Q 2828 2175 2409 1742 
Q 1991 1309 1228 531 
z
" transform="scale(0.015625)"/>
       </defs>
       <use xlink:href="#DejaVuSans-32"/>
       <use xlink:href="#DejaVuSans-30" transform="translate(63.623047 0)"/>
       <use xlink:href="#DejaVuSans-30" transform="translate(127.246094 0)"/>
      </g>
     </g>
    </g>
    <g id="xtick_6">
     <g id="line2d_6">
      <g>
       <use xlink:href="#m47d58b6653" x="246.962687" y="320.4" style="stroke: #000000; stroke-width: 0.8"/>
      </g>
     </g>
     <g id="text_6">
      <!-- 250 -->
      <g transform="translate(237.418937 334.998438) scale(0.1 -0.1)">
       <use xlink:href="#DejaVuSans-32"/>
       <use xlink:href="#DejaVuSans-35" transform="translate(63.623047 0)"/>
       <use xlink:href="#DejaVuSans-30" transform="translate(127.246094 0)"/>
      </g>
     </g>
    </g>
    <g id="xtick_7">
     <g id="line2d_7">
      <g>
       <use xlink:href="#m47d58b6653" x="284.81886" y="320.4" style="stroke: #000000; stroke-width: 0.8"/>
      </g>
     </g>
     <g id="text_7">
      <!-- 300 -->
      <g transform="translate(275.27511 334.998438) scale(0.1 -0.1)">
       <defs>
        <path id="DejaVuSans-33" d="M 2597 2516 
Q 3050 2419 3304 2112 
Q 3559 1806 3559 1356 
Q 3559 666 3084 287 
Q 2609 -91 1734 -91 
Q 1441 -91 1130 -33 
Q 819 25 488 141 
L 488 750 
Q 750 597 1062 519 
Q 1375 441 1716 441 
Q 2309 441 2620 675 
Q 2931 909 2931 1356 
Q 2931 1769 2642 2001 
Q 2353 2234 1838 2234 
L 1294 2234 
L 1294 2753 
L 1863 2753 
Q 2328 2753 2575 2939 
Q 2822 3125 2822 3475 
Q 2822 3834 2567 4026 
Q 2313 4219 1838 4219 
Q 1578 4219 1281 4162 
Q 984 4106 628 3988 
L 628 4550 
Q 988 4650 1302 4700 
Q 1616 4750 1894 4750 
Q 2613 4750 3031 4423 
Q 3450 4097 3450 3541 
Q 3450 3153 3228 2886 
Q 3006 2619 2597 2516 
z
" transform="scale(0.015625)"/>
       </defs>
       <use xlink:href="#DejaVuSans-33"/>
       <use xlink:href="#DejaVuSans-30" transform="translate(63.623047 0)"/>
       <use xlink:href="#DejaVuSans-30" transform="translate(127.246094 0)"/>
      </g>
     </g>
    </g>
    <g id="xtick_8">
     <g id="line2d_8">
      <g>
       <use xlink:href="#m47d58b6653" x="322.675034" y="320.4" style="stroke: #000000; stroke-width: 0.8"/>
      </g>
     </g>
     <g id="text_8">
      <!-- 350 -->
      <g transform="translate(313.131284 334.998438) scale(0.1 -0.1)">
       <use xlink:href="#DejaVuSans-33"/>
       <use xlink:href="#DejaVuSans-35" transform="translate(63.623047 0)"/>
       <use xlink:href="#DejaVuSans-30" transform="translate(127.246094 0)"/>
      </g>
     </g>
    </g>
    <g id="text_9">
     <!-- Optimization step -->
     <g transform="translate(131.233125 350.19625) scale(0.12 -0.12)">
      <defs>
       <path id="DejaVuSans-4f" d="M 2522 4238 
Q 1834 4238 1429 3725 
Q 1025 3213 1025 2328 
Q 1025 1447 1429 934 
Q 1834 422 2522 422 
Q 3209 422 3611 934 
Q 4013 1447 4013 2328 
Q 4013 3213 3611 3725 
Q 3209 4238 2522 4238 
z
M 2522 4750 
Q 3503 4750 4090 4092 
Q 4678 3434 4678 2328 
Q 4678 1225 4090 567 
Q 3503 -91 2522 -91 
Q 1538 -91 948 565 
Q 359 1222 359 2328 
Q 359 3434 948 4092 
Q 1538 4750 2522 4750 
z
" transform="scale(0.015625)"/>
       <path id="DejaVuSans-70" d="M 1159 525 
L 1159 -1331 
L 581 -1331 
L 581 3500 
L 1159 3500 
L 1159 2969 
Q 1341 3281 1617 3432 
Q 1894 3584 2278 3584 
Q 2916 3584 3314 3078 
Q 3713 2572 3713 1747 
Q 3713 922 3314 415 
Q 2916 -91 2278 -91 
Q 1894 -91 1617 61 
Q 1341 213 1159 525 
z
M 3116 1747 
Q 3116 2381 2855 2742 
Q 2594 3103 2138 3103 
Q 1681 3103 1420 2742 
Q 1159 2381 1159 1747 
Q 1159 1113 1420 752 
Q 1681 391 2138 391 
Q 2594 391 2855 752 
Q 3116 1113 3116 1747 
z
" transform="scale(0.015625)"/>
       <path id="DejaVuSans-74" d="M 1172 4494 
L 1172 3500 
L 2356 3500 
L 2356 3053 
L 1172 3053 
L 1172 1153 
Q 1172 725 1289 603 
Q 1406 481 1766 481 
L 2356 481 
L 2356 0 
L 1766 0 
Q 1100 0 847 248 
Q 594 497 594 1153 
L 594 3053 
L 172 3053 
L 172 3500 
L 594 3500 
L 594 4494 
L 1172 4494 
z
" transform="scale(0.015625)"/>
       <path id="DejaVuSans-69" d="M 603 3500 
L 1178 3500 
L 1178 0 
L 603 0 
L 603 3500 
z
M 603 4863 
L 1178 4863 
L 1178 4134 
L 603 4134 
L 603 4863 
z
" transform="scale(0.015625)"/>
       <path id="DejaVuSans-6d" d="M 3328 2828 
Q 3544 3216 3844 3400 
Q 4144 3584 4550 3584 
Q 5097 3584 5394 3201 
Q 5691 2819 5691 2113 
L 5691 0 
L 5113 0 
L 5113 2094 
Q 5113 2597 4934 2840 
Q 4756 3084 4391 3084 
Q 3944 3084 3684 2787 
Q 3425 2491 3425 1978 
L 3425 0 
L 2847 0 
L 2847 2094 
Q 2847 2600 2669 2842 
Q 2491 3084 2119 3084 
Q 1678 3084 1418 2786 
Q 1159 2488 1159 1978 
L 1159 0 
L 581 0 
L 581 3500 
L 1159 3500 
L 1159 2956 
Q 1356 3278 1631 3431 
Q 1906 3584 2284 3584 
Q 2666 3584 2933 3390 
Q 3200 3197 3328 2828 
z
" transform="scale(0.015625)"/>
       <path id="DejaVuSans-7a" d="M 353 3500 
L 3084 3500 
L 3084 2975 
L 922 459 
L 3084 459 
L 3084 0 
L 275 0 
L 275 525 
L 2438 3041 
L 353 3041 
L 353 3500 
z
" transform="scale(0.015625)"/>
       <path id="DejaVuSans-61" d="M 2194 1759 
Q 1497 1759 1228 1600 
Q 959 1441 959 1056 
Q 959 750 1161 570 
Q 1363 391 1709 391 
Q 2188 391 2477 730 
Q 2766 1069 2766 1631 
L 2766 1759 
L 2194 1759 
z
M 3341 1997 
L 3341 0 
L 2766 0 
L 2766 531 
Q 2569 213 2275 61 
Q 1981 -91 1556 -91 
Q 1019 -91 701 211 
Q 384 513 384 1019 
Q 384 1609 779 1909 
Q 1175 2209 1959 2209 
L 2766 2209 
L 2766 2266 
Q 2766 2663 2505 2880 
Q 2244 3097 1772 3097 
Q 1472 3097 1187 3025 
Q 903 2953 641 2809 
L 641 3341 
Q 956 3463 1253 3523 
Q 1550 3584 1831 3584 
Q 2591 3584 2966 3190 
Q 3341 2797 3341 1997 
z
" transform="scale(0.015625)"/>
       <path id="DejaVuSans-6f" d="M 1959 3097 
Q 1497 3097 1228 2736 
Q 959 2375 959 1747 
Q 959 1119 1226 758 
Q 1494 397 1959 397 
Q 2419 397 2687 759 
Q 2956 1122 2956 1747 
Q 2956 2369 2687 2733 
Q 2419 3097 1959 3097 
z
M 1959 3584 
Q 2709 3584 3137 3096 
Q 3566 2609 3566 1747 
Q 3566 888 3137 398 
Q 2709 -91 1959 -91 
Q 1206 -91 779 398 
Q 353 888 353 1747 
Q 353 2609 779 3096 
Q 1206 3584 1959 3584 
z
" transform="scale(0.015625)"/>
       <path id="DejaVuSans-6e" d="M 3513 2113 
L 3513 0 
L 2938 0 
L 2938 2094 
Q 2938 2591 2744 2837 
Q 2550 3084 2163 3084 
Q 1697 3084 1428 2787 
Q 1159 2491 1159 1978 
L 1159 0 
L 581 0 
L 581 3500 
L 1159 3500 
L 1159 2956 
Q 1366 3272 1645 3428 
Q 1925 3584 2291 3584 
Q 2894 3584 3203 3211 
Q 3513 2838 3513 2113 
z
" transform="scale(0.015625)"/>
       <path id="DejaVuSans-20" transform="scale(0.015625)"/>
       <path id="DejaVuSans-73" d="M 2834 3397 
L 2834 2853 
Q 2591 2978 2328 3040 
Q 2066 3103 1784 3103 
Q 1356 3103 1142 2972 
Q 928 2841 928 2578 
Q 928 2378 1081 2264 
Q 1234 2150 1697 2047 
L 1894 2003 
Q 2506 1872 2764 1633 
Q 3022 1394 3022 966 
Q 3022 478 2636 193 
Q 2250 -91 1575 -91 
Q 1294 -91 989 -36 
Q 684 19 347 128 
L 347 722 
Q 666 556 975 473 
Q 1284 391 1588 391 
Q 1994 391 2212 530 
Q 2431 669 2431 922 
Q 2431 1156 2273 1281 
Q 2116 1406 1581 1522 
L 1381 1569 
Q 847 1681 609 1914 
Q 372 2147 372 2553 
Q 372 3047 722 3315 
Q 1072 3584 1716 3584 
Q 2034 3584 2315 3537 
Q 2597 3491 2834 3397 
z
" transform="scale(0.015625)"/>
       <path id="DejaVuSans-65" d="M 3597 1894 
L 3597 1613 
L 953 1613 
Q 991 1019 1311 708 
Q 1631 397 2203 397 
Q 2534 397 2845 478 
Q 3156 559 3463 722 
L 3463 178 
Q 3153 47 2828 -22 
Q 2503 -91 2169 -91 
Q 1331 -91 842 396 
Q 353 884 353 1716 
Q 353 2575 817 3079 
Q 1281 3584 2069 3584 
Q 2775 3584 3186 3129 
Q 3597 2675 3597 1894 
z
M 3022 2063 
Q 3016 2534 2758 2815 
Q 2500 3097 2075 3097 
Q 1594 3097 1305 2825 
Q 1016 2553 972 2059 
L 3022 2063 
z
" transform="scale(0.015625)"/>
      </defs>
      <use xlink:href="#DejaVuSans-4f"/>
      <use xlink:href="#DejaVuSans-70" transform="translate(78.710938 0)"/>
      <use xlink:href="#DejaVuSans-74" transform="translate(142.1875 0)"/>
      <use xlink:href="#DejaVuSans-69" transform="translate(181.396484 0)"/>
      <use xlink:href="#DejaVuSans-6d" transform="translate(209.179688 0)"/>
      <use xlink:href="#DejaVuSans-69" transform="translate(306.591797 0)"/>
      <use xlink:href="#DejaVuSans-7a" transform="translate(334.375 0)"/>
      <use xlink:href="#DejaVuSans-61" transform="translate(386.865234 0)"/>
      <use xlink:href="#DejaVuSans-74" transform="translate(448.144531 0)"/>
      <use xlink:href="#DejaVuSans-69" transform="translate(487.353516 0)"/>
      <use xlink:href="#DejaVuSans-6f" transform="translate(515.136719 0)"/>
      <use xlink:href="#DejaVuSans-6e" transform="translate(576.318359 0)"/>
      <use xlink:href="#DejaVuSans-20" transform="translate(639.697266 0)"/>
      <use xlink:href="#DejaVuSans-73" transform="translate(671.484375 0)"/>
      <use xlink:href="#DejaVuSans-74" transform="translate(723.583984 0)"/>
      <use xlink:href="#DejaVuSans-65" transform="translate(762.792969 0)"/>
      <use xlink:href="#DejaVuSans-70" transform="translate(824.316406 0)"/>
     </g>
    </g>
   </g>
   <g id="matplotlib.axis_2">
    <g id="ytick_1">
     <g id="line2d_9">
      <defs>
       <path id="m1938764395" d="M 0 0 
L -3.5 0 
" style="stroke: #000000; stroke-width: 0.8"/>
      </defs>
      <g>
       <use xlink:href="#m1938764395" x="45" y="292.031906" style="stroke: #000000; stroke-width: 0.8"/>
      </g>
     </g>
     <g id="text_10">
      <!-- $\mathdefault{10^{3}}$ -->
      <g transform="translate(20.4 295.831125) scale(0.1 -0.1)">
       <use xlink:href="#DejaVuSans-31" transform="translate(0 0.765625)"/>
       <use xlink:href="#DejaVuSans-30" transform="translate(63.623047 0.765625)"/>
       <use xlink:href="#DejaVuSans-33" transform="translate(128.203125 39.046875) scale(0.7)"/>
      </g>
     </g>
    </g>
    <g id="ytick_2">
     <g id="line2d_10">
      <g>
       <use xlink:href="#m1938764395" x="45" y="228.942006" style="stroke: #000000; stroke-width: 0.8"/>
      </g>
     </g>
     <g id="text_11">
      <!-- $\mathdefault{10^{4}}$ -->
      <g transform="translate(20.4 232.741225) scale(0.1 -0.1)">
       <defs>
        <path id="DejaVuSans-34" d="M 2419 4116 
L 825 1625 
L 2419 1625 
L 2419 4116 
z
M 2253 4666 
L 3047 4666 
L 3047 1625 
L 3713 1625 
L 3713 1100 
L 3047 1100 
L 3047 0 
L 2419 0 
L 2419 1100 
L 313 1100 
L 313 1709 
L 2253 4666 
z
" transform="scale(0.015625)"/>
       </defs>
       <use xlink:href="#DejaVuSans-31" transform="translate(0 0.684375)"/>
       <use xlink:href="#DejaVuSans-30" transform="translate(63.623047 0.684375)"/>
       <use xlink:href="#DejaVuSans-34" transform="translate(128.203125 38.965625) scale(0.7)"/>
      </g>
     </g>
    </g>
    <g id="ytick_3">
     <g id="line2d_11">
      <g>
       <use xlink:href="#m1938764395" x="45" y="165.852107" style="stroke: #000000; stroke-width: 0.8"/>
      </g>
     </g>
     <g id="text_12">
      <!-- $\mathdefault{10^{5}}$ -->
      <g transform="translate(20.4 169.651325) scale(0.1 -0.1)">
       <use xlink:href="#DejaVuSans-31" transform="translate(0 0.684375)"/>
       <use xlink:href="#DejaVuSans-30" transform="translate(63.623047 0.684375)"/>
       <use xlink:href="#DejaVuSans-35" transform="translate(128.203125 38.965625) scale(0.7)"/>
      </g>
     </g>
    </g>
    <g id="ytick_4">
     <g id="line2d_12">
      <g>
       <use xlink:href="#m1938764395" x="45" y="102.762207" style="stroke: #000000; stroke-width: 0.8"/>
      </g>
     </g>
     <g id="text_13">
      <!-- $\mathdefault{10^{6}}$ -->
      <g transform="translate(20.4 106.561426) scale(0.1 -0.1)">
       <defs>
        <path id="DejaVuSans-36" d="M 2113 2584 
Q 1688 2584 1439 2293 
Q 1191 2003 1191 1497 
Q 1191 994 1439 701 
Q 1688 409 2113 409 
Q 2538 409 2786 701 
Q 3034 994 3034 1497 
Q 3034 2003 2786 2293 
Q 2538 2584 2113 2584 
z
M 3366 4563 
L 3366 3988 
Q 3128 4100 2886 4159 
Q 2644 4219 2406 4219 
Q 1781 4219 1451 3797 
Q 1122 3375 1075 2522 
Q 1259 2794 1537 2939 
Q 1816 3084 2150 3084 
Q 2853 3084 3261 2657 
Q 3669 2231 3669 1497 
Q 3669 778 3244 343 
Q 2819 -91 2113 -91 
Q 1303 -91 875 529 
Q 447 1150 447 2328 
Q 447 3434 972 4092 
Q 1497 4750 2381 4750 
Q 2619 4750 2861 4703 
Q 3103 4656 3366 4563 
z
" transform="scale(0.015625)"/>
       </defs>
       <use xlink:href="#DejaVuSans-31" transform="translate(0 0.765625)"/>
       <use xlink:href="#DejaVuSans-30" transform="translate(63.623047 0.765625)"/>
       <use xlink:href="#DejaVuSans-36" transform="translate(128.203125 39.046875) scale(0.7)"/>
      </g>
     </g>
    </g>
    <g id="ytick_5">
     <g id="line2d_13">
      <defs>
       <path id="mb31a152dcf" d="M 0 0 
L -2 0 
" style="stroke: #000000; stroke-width: 0.6"/>
      </defs>
      <g>
       <use xlink:href="#mb31a152dcf" x="45" y="317.137902" style="stroke: #000000; stroke-width: 0.6"/>
      </g>
     </g>
    </g>
    <g id="ytick_6">
     <g id="line2d_14">
      <g>
       <use xlink:href="#mb31a152dcf" x="45" y="311.023859" style="stroke: #000000; stroke-width: 0.6"/>
      </g>
     </g>
    </g>
    <g id="ytick_7">
     <g id="line2d_15">
      <g>
       <use xlink:href="#mb31a152dcf" x="45" y="306.028322" style="stroke: #000000; stroke-width: 0.6"/>
      </g>
     </g>
    </g>
    <g id="ytick_8">
     <g id="line2d_16">
      <g>
       <use xlink:href="#mb31a152dcf" x="45" y="301.804655" style="stroke: #000000; stroke-width: 0.6"/>
      </g>
     </g>
    </g>
    <g id="ytick_9">
     <g id="line2d_17">
      <g>
       <use xlink:href="#mb31a152dcf" x="45" y="298.145949" style="stroke: #000000; stroke-width: 0.6"/>
      </g>
     </g>
    </g>
    <g id="ytick_10">
     <g id="line2d_18">
      <g>
       <use xlink:href="#mb31a152dcf" x="45" y="294.918742" style="stroke: #000000; stroke-width: 0.6"/>
      </g>
     </g>
    </g>
    <g id="ytick_11">
     <g id="line2d_19">
      <g>
       <use xlink:href="#mb31a152dcf" x="45" y="273.039954" style="stroke: #000000; stroke-width: 0.6"/>
      </g>
     </g>
    </g>
    <g id="ytick_12">
     <g id="line2d_20">
      <g>
       <use xlink:href="#mb31a152dcf" x="45" y="261.930374" style="stroke: #000000; stroke-width: 0.6"/>
      </g>
     </g>
    </g>
    <g id="ytick_13">
     <g id="line2d_21">
      <g>
       <use xlink:href="#mb31a152dcf" x="45" y="254.048002" style="stroke: #000000; stroke-width: 0.6"/>
      </g>
     </g>
    </g>
    <g id="ytick_14">
     <g id="line2d_22">
      <g>
       <use xlink:href="#mb31a152dcf" x="45" y="247.933959" style="stroke: #000000; stroke-width: 0.6"/>
      </g>
     </g>
    </g>
    <g id="ytick_15">
     <g id="line2d_23">
      <g>
       <use xlink:href="#mb31a152dcf" x="45" y="242.938422" style="stroke: #000000; stroke-width: 0.6"/>
      </g>
     </g>
    </g>
    <g id="ytick_16">
     <g id="line2d_24">
      <g>
       <use xlink:href="#mb31a152dcf" x="45" y="238.714756" style="stroke: #000000; stroke-width: 0.6"/>
      </g>
     </g>
    </g>
    <g id="ytick_17">
     <g id="line2d_25">
      <g>
       <use xlink:href="#mb31a152dcf" x="45" y="235.056049" style="stroke: #000000; stroke-width: 0.6"/>
      </g>
     </g>
    </g>
    <g id="ytick_18">
     <g id="line2d_26">
      <g>
       <use xlink:href="#mb31a152dcf" x="45" y="231.828842" style="stroke: #000000; stroke-width: 0.6"/>
      </g>
     </g>
    </g>
    <g id="ytick_19">
     <g id="line2d_27">
      <g>
       <use xlink:href="#mb31a152dcf" x="45" y="209.950054" style="stroke: #000000; stroke-width: 0.6"/>
      </g>
     </g>
    </g>
    <g id="ytick_20">
     <g id="line2d_28">
      <g>
       <use xlink:href="#mb31a152dcf" x="45" y="198.840474" style="stroke: #000000; stroke-width: 0.6"/>
      </g>
     </g>
    </g>
    <g id="ytick_21">
     <g id="line2d_29">
      <g>
       <use xlink:href="#mb31a152dcf" x="45" y="190.958102" style="stroke: #000000; stroke-width: 0.6"/>
      </g>
     </g>
    </g>
    <g id="ytick_22">
     <g id="line2d_30">
      <g>
       <use xlink:href="#mb31a152dcf" x="45" y="184.844059" style="stroke: #000000; stroke-width: 0.6"/>
      </g>
     </g>
    </g>
    <g id="ytick_23">
     <g id="line2d_31">
      <g>
       <use xlink:href="#mb31a152dcf" x="45" y="179.848522" style="stroke: #000000; stroke-width: 0.6"/>
      </g>
     </g>
    </g>
    <g id="ytick_24">
     <g id="line2d_32">
      <g>
       <use xlink:href="#mb31a152dcf" x="45" y="175.624856" style="stroke: #000000; stroke-width: 0.6"/>
      </g>
     </g>
    </g>
    <g id="ytick_25">
     <g id="line2d_33">
      <g>
       <use xlink:href="#mb31a152dcf" x="45" y="171.96615" style="stroke: #000000; stroke-width: 0.6"/>
      </g>
     </g>
    </g>
    <g id="ytick_26">
     <g id="line2d_34">
      <g>
       <use xlink:href="#mb31a152dcf" x="45" y="168.738942" style="stroke: #000000; stroke-width: 0.6"/>
      </g>
     </g>
    </g>
    <g id="ytick_27">
     <g id="line2d_35">
      <g>
       <use xlink:href="#mb31a152dcf" x="45" y="146.860154" style="stroke: #000000; stroke-width: 0.6"/>
      </g>
     </g>
    </g>
    <g id="ytick_28">
     <g id="line2d_36">
      <g>
       <use xlink:href="#mb31a152dcf" x="45" y="135.750575" style="stroke: #000000; stroke-width: 0.6"/>
      </g>
     </g>
    </g>
    <g id="ytick_29">
     <g id="line2d_37">
      <g>
       <use xlink:href="#mb31a152dcf" x="45" y="127.868202" style="stroke: #000000; stroke-width: 0.6"/>
      </g>
     </g>
    </g>
    <g id="ytick_30">
     <g id="line2d_38">
      <g>
       <use xlink:href="#mb31a152dcf" x="45" y="121.754159" style="stroke: #000000; stroke-width: 0.6"/>
      </g>
     </g>
    </g>
    <g id="ytick_31">
     <g id="line2d_39">
      <g>
       <use xlink:href="#mb31a152dcf" x="45" y="116.758622" style="stroke: #000000; stroke-width: 0.6"/>
      </g>
     </g>
    </g>
    <g id="ytick_32">
     <g id="line2d_40">
      <g>
       <use xlink:href="#mb31a152dcf" x="45" y="112.534956" style="stroke: #000000; stroke-width: 0.6"/>
      </g>
     </g>
    </g>
    <g id="ytick_33">
     <g id="line2d_41">
      <g>
       <use xlink:href="#mb31a152dcf" x="45" y="108.87625" style="stroke: #000000; stroke-width: 0.6"/>
      </g>
     </g>
    </g>
    <g id="ytick_34">
     <g id="line2d_42">
      <g>
       <use xlink:href="#mb31a152dcf" x="45" y="105.649042" style="stroke: #000000; stroke-width: 0.6"/>
      </g>
     </g>
    </g>
    <g id="ytick_35">
     <g id="line2d_43">
      <g>
       <use xlink:href="#mb31a152dcf" x="45" y="83.770255" style="stroke: #000000; stroke-width: 0.6"/>
      </g>
     </g>
    </g>
    <g id="ytick_36">
     <g id="line2d_44">
      <g>
       <use xlink:href="#mb31a152dcf" x="45" y="72.660675" style="stroke: #000000; stroke-width: 0.6"/>
      </g>
     </g>
    </g>
    <g id="ytick_37">
     <g id="line2d_45">
      <g>
       <use xlink:href="#mb31a152dcf" x="45" y="64.778302" style="stroke: #000000; stroke-width: 0.6"/>
      </g>
     </g>
    </g>
    <g id="ytick_38">
     <g id="line2d_46">
      <g>
       <use xlink:href="#mb31a152dcf" x="45" y="58.664259" style="stroke: #000000; stroke-width: 0.6"/>
      </g>
     </g>
    </g>
    <g id="ytick_39">
     <g id="line2d_47">
      <g>
       <use xlink:href="#mb31a152dcf" x="45" y="53.668722" style="stroke: #000000; stroke-width: 0.6"/>
      </g>
     </g>
    </g>
    <g id="ytick_40">
     <g id="line2d_48">
      <g>
       <use xlink:href="#mb31a152dcf" x="45" y="49.445056" style="stroke: #000000; stroke-width: 0.6"/>
      </g>
     </g>
    </g>
    <g id="ytick_41">
     <g id="line2d_49">
      <g>
       <use xlink:href="#mb31a152dcf" x="45" y="45.78635" style="stroke: #000000; stroke-width: 0.6"/>
      </g>
     </g>
    </g>
    <g id="text_14">
     <!-- Cost -->
     <g transform="translate(13.904375 195.13875) rotate(-90) scale(0.12 -0.12)">
      <defs>
       <path id="DejaVuSans-43" d="M 4122 4306 
L 4122 3641 
Q 3803 3938 3442 4084 
Q 3081 4231 2675 4231 
Q 1875 4231 1450 3742 
Q 1025 3253 1025 2328 
Q 1025 1406 1450 917 
Q 1875 428 2675 428 
Q 3081 428 3442 575 
Q 3803 722 4122 1019 
L 4122 359 
Q 3791 134 3420 21 
Q 3050 -91 2638 -91 
Q 1578 -91 968 557 
Q 359 1206 359 2328 
Q 359 3453 968 4101 
Q 1578 4750 2638 4750 
Q 3056 4750 3426 4639 
Q 3797 4528 4122 4306 
z
" transform="scale(0.015625)"/>
      </defs>
      <use xlink:href="#DejaVuSans-43"/>
      <use xlink:href="#DejaVuSans-6f" transform="translate(69.824219 0)"/>
      <use xlink:href="#DejaVuSans-73" transform="translate(131.005859 0)"/>
      <use xlink:href="#DejaVuSans-74" transform="translate(183.105469 0)"/>
     </g>
    </g>
   </g>
   <g id="line2d_50">
    <path d="M 57.681818 187.930799 
L 58.438942 194.169461 
L 59.196065 188.958768 
L 59.953189 187.933088 
L 60.710312 187.896938 
L 61.467436 182.877401 
L 62.224559 187.583367 
L 62.981682 187.930243 
L 63.738806 187.707801 
L 64.495929 187.884422 
L 65.253053 187.930845 
L 66.010176 243.513962 
L 66.7673 247.501179 
L 67.524423 243.971386 
L 68.281547 243.510485 
L 69.03867 243.563078 
L 69.795794 241.054076 
L 70.552917 243.386083 
L 71.310041 243.49052 
L 72.067164 240.925755 
L 72.824288 243.458956 
L 73.581411 243.513285 
L 74.338535 260.884549 
L 75.852782 260.731282 
L 76.609905 261.106804 
L 78.124152 260.774245 
L 79.638399 260.92736 
L 80.395522 260.504847 
L 81.152646 260.878388 
L 81.909769 260.884542 
L 82.666893 263.964285 
L 83.424016 263.250235 
L 84.938263 264.189399 
L 85.695387 263.970786 
L 87.966757 264.006095 
L 88.723881 263.812907 
L 89.481004 263.964347 
L 90.238128 263.964227 
L 90.995251 268.669252 
L 91.752374 268.205407 
L 92.509498 268.345898 
L 93.266621 269.096667 
L 94.780868 268.296484 
L 95.537992 268.657768 
L 96.295115 268.703312 
L 97.052239 268.095043 
L 97.809362 268.642818 
L 98.566486 268.669243 
L 99.323609 275.746577 
L 100.080733 274.115798 
L 100.837856 275.726172 
L 101.59498 275.357225 
L 102.352103 275.746979 
L 103.109227 275.649654 
L 103.86635 275.745406 
L 104.623474 275.631241 
L 105.380597 275.761065 
L 106.894844 275.761202 
L 107.651967 283.189397 
L 108.409091 282.883617 
L 109.166214 283.179022 
L 109.923338 284.93528 
L 110.680461 283.118719 
L 111.437585 282.429129 
L 112.194708 283.17533 
L 112.951832 283.153953 
L 113.708955 282.118825 
L 114.466079 283.133652 
L 115.223202 283.200989 
L 115.980326 300.459915 
L 116.737449 299.344914 
L 117.494573 299.945687 
L 118.251696 298.752695 
L 119.00882 300.384483 
L 119.765943 298.885187 
L 120.523066 300.454345 
L 121.28019 300.450178 
L 122.037313 300.312537 
L 122.794437 300.457547 
L 123.55156 299.896403 
L 124.308684 306.690486 
L 125.065807 306.300319 
L 125.822931 306.717157 
L 126.580054 304.322956 
L 127.337178 306.556997 
L 128.094301 305.006501 
L 128.851425 306.687318 
L 130.365672 306.702869 
L 131.879919 306.730424 
L 132.637042 307.338154 
L 134.151289 306.742161 
L 134.908412 305.93661 
L 135.665536 307.170636 
L 136.422659 306.214502 
L 137.179783 307.335938 
L 137.936906 307.247846 
L 139.451153 307.337338 
L 140.9654 307.323062 
L 141.722524 307.775574 
L 142.479647 307.70478 
L 143.236771 307.410854 
L 143.993894 306.017718 
L 144.751018 307.594493 
L 145.508141 306.50106 
L 146.265265 307.773218 
L 147.022388 307.35023 
L 147.779512 307.755863 
L 149.293758 307.773394 
L 150.050882 307.165838 
L 150.808005 307.66472 
L 152.322252 307.771632 
L 153.836499 307.711924 
L 154.593623 307.420129 
L 155.350746 306.01368 
L 156.10787 307.594138 
L 156.864993 306.491805 
L 157.622117 307.773702 
L 162.164858 307.711106 
L 162.921981 307.418369 
L 163.679104 306.028767 
L 164.436228 307.594484 
L 165.193351 306.495592 
L 165.950475 307.774196 
L 170.493216 307.71039 
L 171.250339 307.416131 
L 172.007463 306.044371 
L 172.764586 307.594735 
L 173.52171 306.499952 
L 174.278833 307.774726 
L 178.821574 307.71007 
L 179.578697 307.413772 
L 180.335821 306.065531 
L 181.092944 307.595354 
L 181.850068 306.505226 
L 182.607191 307.77586 
L 183.364315 307.363125 
L 184.121438 307.761738 
L 188.664179 307.778285 
L 189.421303 307.710197 
L 190.178426 307.413923 
L 190.93555 306.065667 
L 191.692673 307.595037 
L 192.449796 306.504981 
L 193.20692 307.775882 
L 193.964043 307.363367 
L 194.721167 307.761786 
L 197.749661 307.710226 
L 198.506784 307.413958 
L 199.263908 306.065664 
L 200.021031 307.595023 
L 200.778155 306.504916 
L 201.535278 307.775885 
L 202.292402 307.363452 
L 203.049525 307.761796 
L 206.078019 307.710233 
L 206.835142 307.413967 
L 207.592266 306.065662 
L 208.349389 307.595019 
L 209.106513 306.5049 
L 209.863636 307.775886 
L 210.62076 307.363475 
L 211.377883 307.761799 
L 214.406377 307.710235 
L 215.163501 307.413969 
L 215.920624 306.065661 
L 216.677748 307.595018 
L 217.434871 306.504896 
L 218.191995 307.775885 
L 218.949118 307.363481 
L 219.706242 307.761798 
L 222.734735 307.778289 
L 222.734735 307.778289 
" clip-path="url(#pd10d3ee11d)" style="fill: none; stroke: #1f77b4; stroke-opacity: 0.8; stroke-width: 1.5; stroke-linecap: square"/>
   </g>
   <g id="line2d_51">
    <path d="M 57.681818 56.700294 
L 59.196065 56.701417 
L 59.953189 59.085689 
L 60.710312 56.483519 
L 61.467436 57.606854 
L 62.224559 56.68872 
L 62.981682 55.962068 
L 63.738806 55.8 
L 64.495929 56.70034 
L 65.253053 56.700274 
L 66.010176 92.664478 
L 67.524423 92.666365 
L 68.281547 97.070357 
L 69.03867 92.553531 
L 69.795794 93.704911 
L 70.552917 92.65451 
L 71.310041 90.929887 
L 72.067164 91.497246 
L 72.824288 92.66586 
L 73.581411 92.664477 
L 74.338535 137.801784 
L 75.095658 137.710848 
L 75.852782 137.796282 
L 76.609905 142.046567 
L 77.367028 137.761557 
L 78.124152 138.547226 
L 78.881275 137.795177 
L 79.638399 136.308689 
L 80.395522 136.877034 
L 81.152646 137.802852 
L 81.909769 137.801784 
L 82.666893 173.552929 
L 83.424016 173.325525 
L 84.18114 173.530104 
L 84.938263 176.106637 
L 85.695387 173.529021 
L 86.45251 174.099165 
L 87.209634 173.548813 
L 88.723881 172.891271 
L 89.481004 173.521988 
L 90.238128 173.55293 
L 90.995251 203.416504 
L 91.752374 203.028142 
L 92.509498 203.386297 
L 93.266621 205.170283 
L 94.023745 203.39723 
L 94.780868 203.755277 
L 95.537992 203.413926 
L 96.295115 204.338028 
L 97.052239 202.94454 
L 97.809362 203.427546 
L 98.566486 203.41657 
L 99.323609 225.580433 
L 100.080733 225.095897 
L 100.837856 225.545863 
L 101.59498 225.476999 
L 102.352103 225.565044 
L 103.86635 225.579265 
L 104.623474 226.674862 
L 105.380597 225.318032 
L 106.13772 225.229146 
L 106.894844 225.580439 
L 107.651967 237.724748 
L 108.409091 237.304719 
L 109.166214 237.692893 
L 109.923338 237.514708 
L 111.437585 237.97344 
L 112.194708 237.724096 
L 112.951832 238.995262 
L 113.708955 237.550289 
L 114.466079 237.737208 
L 115.223202 237.724718 
L 115.980326 244.20627 
L 116.737449 243.872183 
L 117.494573 244.186774 
L 118.251696 243.709737 
L 119.00882 244.191632 
L 119.765943 243.821579 
L 120.523066 244.206074 
L 121.28019 245.096964 
L 122.037313 244.137984 
L 123.55156 244.209557 
L 124.308684 247.045602 
L 125.065807 246.761534 
L 125.822931 247.012576 
L 126.580054 246.397829 
L 127.337178 247.033546 
L 128.094301 246.443093 
L 128.851425 247.045325 
L 129.608548 246.266091 
L 130.365672 246.950889 
L 131.122795 247.0427 
L 131.879919 246.964127 
L 132.637042 249.081459 
L 133.394166 248.833464 
L 134.151289 249.061225 
L 134.908412 248.560169 
L 135.665536 249.065168 
L 136.422659 248.210635 
L 137.179783 249.08078 
L 137.936906 248.816694 
L 139.451153 249.071642 
L 140.208277 249.080911 
L 140.9654 252.808935 
L 141.722524 252.597986 
L 142.479647 252.789578 
L 143.236771 251.860194 
L 143.993894 252.798359 
L 144.751018 251.645704 
L 145.508141 252.807805 
L 146.265265 252.330464 
L 147.022388 252.711785 
L 148.536635 252.81236 
L 149.293758 259.445393 
L 150.050882 259.288821 
L 150.808005 259.429497 
L 151.565129 258.591137 
L 152.322252 259.474454 
L 153.079376 258.148222 
L 153.836499 259.443964 
L 154.593623 259.210986 
L 155.350746 259.558319 
L 156.10787 259.439477 
L 156.864993 259.436284 
L 157.622117 265.087 
L 158.37924 265.006673 
L 159.136364 265.081108 
L 159.893487 264.530584 
L 160.650611 265.120296 
L 161.407734 264.250673 
L 162.164858 265.086043 
L 162.921981 265.01239 
L 163.679104 265.267041 
L 164.436228 265.084286 
L 165.193351 265.07782 
L 165.950475 266.821203 
L 168.221845 266.61592 
L 168.978969 266.780143 
L 169.736092 266.37624 
L 170.493216 266.820602 
L 171.250339 266.775846 
L 172.007463 266.919129 
L 173.52171 266.813654 
L 174.278833 266.992479 
L 175.79308 266.990758 
L 176.550204 267.072575 
L 177.307327 266.951145 
L 178.06445 266.637457 
L 178.821574 266.992024 
L 181.850068 266.984317 
L 182.607191 266.971479 
L 183.364315 267.135449 
L 184.878562 267.132705 
L 185.635685 266.776506 
L 186.392809 267.101418 
L 187.149932 266.697777 
L 187.907056 267.135047 
L 188.664179 267.106417 
L 189.421303 266.93459 
L 190.178426 267.134917 
L 190.93555 267.127939 
L 191.692673 266.904367 
L 192.449796 266.870056 
L 193.20692 267.135644 
L 194.721167 267.133714 
L 195.47829 266.801019 
L 196.235414 266.860636 
L 196.992537 266.70669 
L 197.749661 267.135228 
L 198.506784 267.105361 
L 199.263908 266.940905 
L 200.021031 267.135134 
L 208.349389 267.133714 
L 209.106513 266.801019 
L 209.863636 266.860636 
L 210.62076 266.70669 
L 211.377883 267.135228 
L 212.135007 267.105361 
L 212.89213 266.940905 
L 213.649254 267.135135 
L 216.677748 267.133714 
L 217.434871 266.80102 
L 218.191995 266.860636 
L 218.949118 266.70669 
L 219.706242 267.135228 
L 220.463365 267.105361 
L 221.220488 266.940905 
L 221.977612 267.135135 
L 223.491859 267.135644 
L 223.491859 267.135644 
" clip-path="url(#pd10d3ee11d)" style="fill: none; stroke: #ff7f0e; stroke-opacity: 0.8; stroke-width: 1.5; stroke-linecap: square"/>
   </g>
   <g id="line2d_52">
    <path d="M 57.681818 219.253356 
L 58.438942 219.223847 
L 59.196065 225.545327 
L 59.953189 219.168482 
L 60.710312 221.844101 
L 61.467436 214.503497 
L 62.224559 219.224514 
L 63.738806 219.241949 
L 64.495929 217.769605 
L 65.253053 219.253289 
L 66.010176 251.700743 
L 66.7673 251.731467 
L 67.524423 255.340723 
L 68.281547 252.341656 
L 69.03867 253.196699 
L 69.795794 248.651224 
L 70.552917 251.681576 
L 71.310041 251.207804 
L 72.067164 251.451539 
L 72.824288 250.107335 
L 73.581411 251.700877 
L 74.338535 284.019491 
L 75.095658 284.043491 
L 75.852782 287.027754 
L 76.609905 285.205031 
L 78.124152 283.89099 
L 78.881275 284.012967 
L 80.395522 284.037637 
L 81.152646 283.362979 
L 81.909769 284.019472 
L 82.666893 290.733697 
L 83.424016 290.789671 
L 84.18114 288.491524 
L 84.938263 290.270164 
L 85.695387 291.666967 
L 86.45251 288.990927 
L 87.209634 290.723683 
L 88.723881 290.670315 
L 89.481004 289.604274 
L 90.238128 290.733691 
L 90.995251 302.47944 
L 91.752374 302.545305 
L 92.509498 297.317953 
L 93.266621 300.852144 
L 94.023745 302.846297 
L 94.780868 301.08258 
L 95.537992 302.475753 
L 97.052239 302.479344 
L 97.809362 302.183701 
L 98.566486 302.480847 
L 99.323609 307.393031 
L 100.080733 307.357644 
L 100.837856 305.085324 
L 101.59498 306.307825 
L 102.352103 307.086889 
L 103.109227 306.320674 
L 103.86635 307.390414 
L 106.13772 307.351863 
L 108.409091 307.423827 
L 109.166214 305.511053 
L 109.923338 305.493294 
L 110.680461 307.238506 
L 111.437585 306.023183 
L 112.194708 307.424136 
L 114.466079 307.421322 
L 116.737449 307.478206 
L 117.494573 305.946592 
L 118.251696 305.893814 
L 119.00882 307.297828 
L 119.765943 306.276588 
L 120.523066 307.477127 
L 124.308684 307.496012 
L 125.065807 307.496359 
L 125.822931 305.839496 
L 126.580054 305.831321 
L 127.337178 307.316103 
L 128.094301 306.25254 
L 128.851425 307.493608 
L 133.394166 307.496991 
L 134.151289 305.851495 
L 134.908412 305.826272 
L 135.665536 307.318022 
L 136.422659 306.246052 
L 137.179783 307.495551 
L 141.722524 307.53121 
L 142.479647 305.960223 
L 143.236771 305.889514 
L 143.993894 307.350541 
L 144.751018 306.292602 
L 145.508141 307.52926 
L 149.293758 307.455649 
L 150.050882 307.643608 
L 150.808005 307.643268 
L 151.565129 306.043049 
L 152.322252 306.019925 
L 153.079376 307.463854 
L 153.836499 306.409178 
L 154.593623 307.640772 
L 166.707598 307.643113 
L 167.464722 307.64306 
L 167.464722 307.64306 
" clip-path="url(#pd10d3ee11d)" style="fill: none; stroke: #2ca02c; stroke-opacity: 0.8; stroke-width: 1.5; stroke-linecap: square"/>
   </g>
   <g id="line2d_53">
    <path d="M 57.681818 135.802854 
L 58.438942 143.503862 
L 59.196065 135.806064 
L 59.953189 135.804062 
L 60.710312 135.59208 
L 61.467436 137.349236 
L 62.224559 135.669278 
L 62.981682 135.796759 
L 63.738806 134.411286 
L 64.495929 135.767234 
L 65.253053 135.805022 
L 66.010176 194.208465 
L 66.7673 203.673764 
L 67.524423 194.211854 
L 68.281547 194.241047 
L 69.03867 194.11049 
L 69.795794 196.363786 
L 70.552917 194.08146 
L 71.310041 194.147966 
L 72.067164 189.758277 
L 72.824288 194.164282 
L 73.581411 194.20537 
L 74.338535 236.360371 
L 75.095658 242.852401 
L 75.852782 236.367749 
L 76.609905 236.682429 
L 77.367028 236.3929 
L 78.124152 238.014491 
L 78.881275 236.290882 
L 79.638399 236.12022 
L 80.395522 232.724147 
L 81.152646 236.33778 
L 81.909769 236.3604 
L 82.666893 257.938765 
L 83.424016 259.077757 
L 84.18114 257.940206 
L 84.938263 258.418166 
L 85.695387 257.973971 
L 86.45251 258.302083 
L 87.209634 257.919671 
L 87.966757 257.8548 
L 88.723881 256.846406 
L 89.481004 257.936003 
L 90.238128 257.938328 
L 90.995251 263.294335 
L 91.752374 262.642281 
L 92.509498 263.294124 
L 93.266621 263.451623 
L 94.023745 263.312102 
L 94.780868 263.380918 
L 95.537992 263.289366 
L 96.295115 263.319133 
L 97.052239 263.090114 
L 97.809362 263.293031 
L 98.566486 263.306511 
L 99.323609 265.405174 
L 100.080733 264.71613 
L 100.837856 264.666376 
L 101.59498 265.280486 
L 102.352103 265.393533 
L 103.109227 265.299926 
L 104.623474 265.418016 
L 106.13772 265.405508 
L 106.894844 265.52102 
L 107.651967 270.300932 
L 108.409091 269.107839 
L 109.923338 270.611415 
L 110.680461 270.278806 
L 111.437585 270.398198 
L 112.951832 270.280357 
L 114.466079 270.307848 
L 115.223202 270.300751 
L 115.980326 281.216505 
L 116.737449 280.015148 
L 117.494573 280.058852 
L 118.251696 280.50737 
L 119.00882 281.214105 
L 119.765943 280.780595 
L 120.523066 281.214471 
L 121.28019 281.083828 
L 123.55156 281.3325 
L 124.308684 297.427355 
L 125.065807 296.454235 
L 125.822931 297.4302 
L 126.580054 299.786037 
L 127.337178 298.035956 
L 128.094301 297.616606 
L 129.608548 297.30468 
L 130.365672 297.345097 
L 131.122795 297.202785 
L 131.879919 297.42816 
L 132.637042 302.750859 
L 133.394166 302.846506 
L 134.151289 303.151239 
L 134.908412 301.664636 
L 135.665536 303.36415 
L 136.422659 300.752596 
L 137.179783 302.744286 
L 139.451153 302.511238 
L 140.208277 302.804857 
L 140.9654 306.603977 
L 141.722524 306.307106 
L 142.479647 306.340426 
L 143.236771 304.215792 
L 143.993894 306.877879 
L 144.751018 304.73991 
L 145.508141 306.600249 
L 147.779512 306.573327 
L 148.536635 306.404283 
L 149.293758 307.187924 
L 150.050882 307.086638 
L 150.808005 306.7516 
L 151.565129 306.153072 
L 152.322252 307.333493 
L 153.079376 305.84359 
L 153.836499 307.185278 
L 155.350746 307.179768 
L 156.864993 307.134468 
L 157.622117 307.338359 
L 159.136364 306.962817 
L 159.893487 305.585393 
L 160.650611 307.16594 
L 161.407734 306.424652 
L 162.164858 307.335868 
L 165.193351 307.276382 
L 165.950475 307.453845 
L 166.707598 307.390139 
L 167.464722 307.10158 
L 168.221845 305.871417 
L 168.978969 307.278224 
L 169.736092 306.536928 
L 170.493216 307.451302 
L 181.850068 307.453845 
L 181.850068 307.453845 
" clip-path="url(#pd10d3ee11d)" style="fill: none; stroke: #d62728; stroke-opacity: 0.8; stroke-width: 1.5; stroke-linecap: square"/>
   </g>
   <g id="line2d_54">
    <path d="M 57.681818 157.011654 
L 58.438942 161.448892 
L 59.196065 157.169917 
L 59.953189 157.810959 
L 60.710312 157.447657 
L 61.467436 159.789529 
L 62.224559 157.026554 
L 62.981682 156.15457 
L 63.738806 156.782895 
L 64.495929 156.974842 
L 65.253053 157.012042 
L 66.010176 213.186689 
L 66.7673 217.31322 
L 67.524423 213.250569 
L 68.281547 213.50688 
L 69.03867 213.153658 
L 69.795794 217.019684 
L 70.552917 213.179336 
L 71.310041 211.854728 
L 72.067164 211.852311 
L 72.824288 213.168704 
L 73.581411 213.187214 
L 74.338535 229.374555 
L 75.095658 230.591866 
L 75.852782 229.369129 
L 76.609905 225.575411 
L 77.367028 229.328605 
L 78.124152 228.157586 
L 78.881275 229.372839 
L 79.638399 230.877505 
L 80.395522 228.949269 
L 81.152646 229.227595 
L 81.909769 228.994739 
L 82.666893 240.488887 
L 83.424016 240.238744 
L 84.18114 240.488675 
L 84.938263 237.554256 
L 85.695387 240.470411 
L 86.45251 239.090377 
L 87.209634 240.487 
L 87.966757 239.486714 
L 88.723881 240.41911 
L 89.481004 240.427146 
L 90.238128 240.322135 
L 90.995251 253.125436 
L 91.752374 252.597469 
L 92.509498 252.50435 
L 93.266621 250.567392 
L 94.023745 253.136091 
L 94.780868 252.39842 
L 95.537992 253.124794 
L 96.295115 252.497791 
L 97.052239 253.126431 
L 98.566486 253.163568 
L 99.323609 266.432603 
L 100.080733 264.695532 
L 100.837856 265.926661 
L 101.59498 265.903148 
L 102.352103 266.412396 
L 103.109227 266.265677 
L 103.86635 266.432316 
L 104.623474 266.191559 
L 105.380597 266.449367 
L 106.894844 266.453203 
L 107.651967 277.455915 
L 108.409091 274.876201 
L 109.166214 277.292821 
L 109.923338 277.531625 
L 111.437585 277.355857 
L 112.194708 277.455486 
L 112.951832 277.717561 
L 113.708955 277.51194 
L 115.223202 277.540579 
L 115.980326 282.288248 
L 116.737449 281.968972 
L 117.494573 282.098153 
L 118.251696 279.184063 
L 119.00882 282.248973 
L 119.765943 280.709888 
L 120.523066 282.284364 
L 121.28019 281.424018 
L 122.037313 282.144531 
L 123.55156 282.33278 
L 124.308684 298.985374 
L 125.065807 297.695666 
L 125.822931 298.989479 
L 126.580054 296.937731 
L 127.337178 298.919427 
L 128.094301 298.134811 
L 128.851425 298.982839 
L 129.608548 298.807834 
L 130.365672 298.993643 
L 131.879919 299.049214 
L 132.637042 304.519528 
L 133.394166 303.354632 
L 134.151289 303.216624 
L 134.908412 303.476225 
L 135.665536 304.388816 
L 136.422659 303.8904 
L 137.179783 304.517181 
L 139.451153 304.528009 
L 140.208277 304.16314 
L 140.9654 307.36485 
L 141.722524 307.052794 
L 142.479647 307.037625 
L 143.236771 305.647623 
L 143.993894 307.224818 
L 144.751018 305.604929 
L 145.508141 307.36226 
L 147.022388 307.351639 
L 147.779512 307.365737 
L 148.536635 306.691983 
L 149.293758 307.371272 
L 150.050882 307.291137 
L 150.808005 307.02956 
L 151.565129 305.049832 
L 152.322252 307.225894 
L 153.079376 305.940164 
L 153.836499 307.368986 
L 154.593623 307.262161 
L 155.350746 307.386759 
L 156.864993 307.331565 
L 157.622117 307.77342 
L 158.37924 307.697034 
L 159.136364 307.411485 
L 159.893487 305.919088 
L 160.650611 307.588975 
L 161.407734 306.375634 
L 162.164858 307.770802 
L 165.193351 307.771777 
L 165.950475 307.796938 
L 166.707598 307.710112 
L 167.464722 307.439746 
L 168.221845 305.974656 
L 168.978969 307.620314 
L 169.736092 306.402592 
L 170.493216 307.794348 
L 173.52171 307.8 
L 174.278833 307.38354 
L 175.035957 307.17554 
L 175.79308 307.796874 
L 177.307327 307.711213 
L 178.06445 307.444778 
L 178.821574 306.038897 
L 179.578697 307.618845 
L 180.335821 306.429397 
L 181.092944 307.797175 
L 187.149932 307.711916 
L 187.907056 307.446507 
L 188.664179 306.048868 
L 189.421303 307.618175 
L 190.178426 306.431928 
L 190.93555 307.797046 
L 198.506784 307.711944 
L 199.263908 307.446526 
L 200.021031 306.048878 
L 200.778155 307.618171 
L 201.535278 306.431929 
L 202.292402 307.797042 
L 207.592266 307.799589 
L 207.592266 307.799589 
" clip-path="url(#pd10d3ee11d)" style="fill: none; stroke: #9467bd; stroke-opacity: 0.8; stroke-width: 1.5; stroke-linecap: square"/>
   </g>
   <g id="line2d_55">
    <path d="M 57.681818 111.125548 
L 58.438942 116.073798 
L 59.196065 111.155662 
L 59.953189 111.649386 
L 60.710312 110.861653 
L 61.467436 112.242918 
L 62.224559 110.700714 
L 62.981682 111.140826 
L 63.738806 110.879928 
L 64.495929 111.125042 
L 65.253053 111.125666 
L 66.010176 176.050874 
L 66.7673 183.715523 
L 67.524423 176.094333 
L 68.281547 176.465326 
L 69.03867 175.924437 
L 69.795794 178.111241 
L 70.552917 175.713601 
L 71.310041 175.860482 
L 72.067164 171.862971 
L 72.824288 176.054646 
L 73.581411 176.050822 
L 74.338535 220.901211 
L 75.095658 227.188526 
L 75.852782 220.913741 
L 76.609905 221.101301 
L 77.367028 220.926699 
L 78.124152 222.829121 
L 78.881275 220.730066 
L 79.638399 220.261106 
L 80.395522 216.943685 
L 81.152646 220.408596 
L 81.909769 220.901589 
L 82.666893 246.393752 
L 83.424016 246.752683 
L 84.18114 246.394051 
L 84.938263 245.469792 
L 85.695387 246.336244 
L 86.45251 246.988108 
L 87.966757 245.660113 
L 88.723881 245.449751 
L 89.481004 246.399938 
L 90.238128 246.393721 
L 90.995251 255.232298 
L 91.752374 254.63608 
L 92.509498 255.232275 
L 93.266621 253.035943 
L 94.023745 255.265456 
L 94.780868 255.050732 
L 95.537992 255.216358 
L 96.295115 253.667648 
L 97.052239 254.662052 
L 97.809362 255.244106 
L 98.566486 254.156011 
L 99.323609 262.060574 
L 100.080733 260.683024 
L 101.59498 263.622974 
L 102.352103 262.021496 
L 103.109227 262.486488 
L 104.623474 261.549726 
L 106.13772 262.146574 
L 106.894844 262.077239 
L 107.651967 271.517467 
L 108.409091 270.72174 
L 109.166214 271.515392 
L 109.923338 266.749323 
L 110.680461 271.413781 
L 111.437585 272.290728 
L 112.194708 271.516236 
L 112.951832 269.811648 
L 113.708955 271.511645 
L 114.466079 271.706809 
L 115.223202 271.517378 
L 115.980326 281.599635 
L 116.737449 279.917817 
L 117.494573 281.598585 
L 118.251696 278.200668 
L 119.00882 281.636789 
L 119.765943 282.533992 
L 120.523066 281.598974 
L 123.55156 281.599006 
L 124.308684 295.115716 
L 125.065807 293.378166 
L 125.822931 295.115811 
L 126.580054 293.197597 
L 127.337178 295.020649 
L 128.094301 295.201576 
L 129.608548 295.098127 
L 131.879919 295.117992 
L 132.637042 296.406427 
L 133.394166 295.012024 
L 134.151289 293.979089 
L 134.908412 295.816698 
L 135.665536 296.344535 
L 136.422659 296.097838 
L 137.179783 296.405403 
L 140.208277 296.415247 
L 140.9654 304.98358 
L 141.722524 304.666671 
L 142.479647 304.656281 
L 143.236771 303.967796 
L 143.993894 304.924375 
L 144.751018 304.399709 
L 145.508141 304.982313 
L 146.265265 304.857491 
L 148.536635 305.19073 
L 149.293758 307.518374 
L 150.050882 307.47531 
L 150.808005 307.16491 
L 151.565129 305.528457 
L 152.322252 307.452559 
L 153.079376 305.488602 
L 153.836499 307.516479 
L 155.350746 307.515674 
L 156.10787 307.526942 
L 156.864993 307.397219 
L 157.622117 307.388069 
L 158.37924 307.651862 
L 159.136364 307.581236 
L 159.893487 307.244959 
L 160.650611 305.710861 
L 161.407734 307.555145 
L 162.164858 306.311687 
L 162.921981 307.649816 
L 163.679104 307.186099 
L 164.436228 307.647177 
L 166.707598 307.694508 
L 167.464722 307.591142 
L 168.221845 307.264982 
L 168.978969 305.329653 
L 169.736092 307.563256 
L 170.493216 306.141913 
L 171.250339 307.692012 
L 175.035957 307.762746 
L 175.79308 307.659989 
L 176.550204 307.385133 
L 177.307327 305.937261 
L 178.06445 307.605894 
L 178.821574 306.417966 
L 179.578697 307.760367 
L 184.121438 307.691753 
L 184.878562 307.433592 
L 185.635685 306.062904 
L 186.392809 307.605508 
L 187.149932 306.45376 
L 187.907056 307.775206 
L 192.449796 307.711449 
L 193.20692 307.443246 
L 193.964043 306.051688 
L 194.721167 307.611584 
L 195.47829 306.442213 
L 196.235414 307.787936 
L 201.535278 307.7126 
L 202.292402 307.438302 
L 203.049525 306.059332 
L 203.806649 307.612871 
L 204.563772 306.443199 
L 205.320896 307.7911 
L 210.62076 307.713451 
L 211.377883 307.436434 
L 212.135007 306.067106 
L 212.89213 307.614551 
L 213.649254 306.446471 
L 214.406377 307.791695 
L 218.949118 307.714291 
L 219.706242 307.435971 
L 220.463365 306.063098 
L 221.220488 307.61601 
L 221.977612 306.443166 
L 222.734735 307.793576 
L 223.491859 307.149305 
L 224.248982 307.788339 
L 228.791723 307.719611 
L 229.548847 307.442332 
L 230.30597 306.059828 
L 231.063094 307.615284 
L 231.820217 306.434598 
L 232.577341 307.793493 
L 237.120081 307.717666 
L 237.877205 307.439143 
L 238.634328 306.064937 
L 239.391452 307.615173 
L 240.148575 306.438557 
L 240.905699 307.793714 
L 246.205563 307.716742 
L 246.962687 307.437711 
L 247.71981 306.066512 
L 248.476934 307.614663 
L 249.234057 306.439886 
L 249.99118 307.793799 
L 259.076662 307.796323 
L 259.076662 307.796323 
" clip-path="url(#pd10d3ee11d)" style="fill: none; stroke: #8c564b; stroke-opacity: 0.8; stroke-width: 1.5; stroke-linecap: square"/>
   </g>
   <g id="line2d_56">
    <path d="M 57.681818 82.482935 
L 58.438942 82.7581 
L 59.196065 83.334271 
L 59.953189 82.025571 
L 60.710312 82.461706 
L 61.467436 82.599233 
L 62.224559 82.48182 
L 62.981682 82.13712 
L 63.738806 82.245646 
L 64.495929 82.478084 
L 65.253053 82.482976 
L 66.010176 160.644934 
L 66.7673 164.082098 
L 67.524423 162.144433 
L 68.281547 158.848292 
L 69.03867 160.616888 
L 69.795794 161.032597 
L 70.552917 160.644653 
L 71.310041 157.507433 
L 72.067164 160.536639 
L 73.581411 160.644935 
L 74.338535 214.332258 
L 75.095658 219.128319 
L 75.852782 215.922416 
L 76.609905 210.594051 
L 77.367028 214.284272 
L 78.124152 215.188721 
L 78.881275 214.331824 
L 79.638399 211.825058 
L 80.395522 214.162517 
L 81.152646 214.350462 
L 81.909769 214.332259 
L 82.666893 257.159986 
L 83.424016 259.321432 
L 84.18114 257.210918 
L 84.938263 253.687741 
L 85.695387 257.246899 
L 86.45251 259.240485 
L 87.209634 257.159203 
L 87.966757 255.78406 
L 88.723881 257.104262 
L 90.238128 257.159915 
L 90.995251 278.417068 
L 91.752374 276.851246 
L 92.509498 278.035633 
L 93.266621 276.866809 
L 94.023745 278.52839 
L 94.780868 279.048501 
L 95.537992 278.415373 
L 96.295115 278.036779 
L 97.052239 278.44823 
L 98.566486 278.417331 
L 99.323609 295.423363 
L 100.080733 293.5917 
L 100.837856 295.434015 
L 101.59498 294.527869 
L 102.352103 295.545349 
L 103.109227 295.160317 
L 103.86635 295.422098 
L 104.623474 295.347066 
L 106.13772 295.427347 
L 106.894844 295.423388 
L 107.651967 300.015666 
L 108.409091 299.051411 
L 109.166214 299.867768 
L 109.923338 297.967278 
L 110.680461 300.100068 
L 111.437585 298.81965 
L 112.194708 300.013741 
L 114.466079 300.018068 
L 115.223202 300.01529 
L 115.980326 304.758664 
L 116.737449 304.342797 
L 118.251696 304.256683 
L 119.00882 304.656135 
L 119.765943 304.402255 
L 120.523066 304.757301 
L 122.794437 304.725167 
L 123.55156 304.913742 
L 124.308684 305.432796 
L 125.822931 305.078283 
L 126.580054 304.045165 
L 127.337178 305.382031 
L 128.094301 303.938108 
L 128.851425 305.430783 
L 131.879919 305.46278 
L 132.637042 305.851148 
L 133.394166 305.9331 
L 134.151289 305.675303 
L 134.908412 304.568585 
L 135.665536 305.106342 
L 136.422659 304.493873 
L 137.179783 305.84409 
L 138.69403 305.848836 
L 139.451153 305.528406 
L 140.208277 305.809963 
L 140.9654 307.196272 
L 142.479647 306.823878 
L 143.236771 305.631031 
L 143.993894 306.902241 
L 144.751018 306.051589 
L 145.508141 307.193034 
L 147.779512 307.14851 
L 148.536635 307.61361 
L 149.293758 307.280918 
L 150.050882 307.215866 
L 150.808005 306.94496 
L 151.565129 305.148425 
L 152.322252 307.12105 
L 153.079376 305.164163 
L 153.836499 307.278224 
L 154.593623 307.202261 
L 158.37924 307.512766 
L 159.136364 307.223565 
L 159.893487 306.029446 
L 160.650611 307.411744 
L 161.407734 305.793573 
L 162.164858 307.595236 
L 164.436228 307.5904 
L 165.950475 307.697854 
L 166.707598 307.615935 
L 167.464722 307.335379 
L 168.221845 305.236761 
L 168.978969 307.523751 
L 169.736092 305.90968 
L 170.493216 307.695213 
L 172.764586 307.694504 
L 173.52171 307.105998 
L 175.035957 307.622181 
L 176.550204 307.696917 
L 178.821574 307.615939 
L 179.578697 307.336025 
L 180.335821 305.239315 
L 181.092944 307.523664 
L 181.850068 305.910729 
L 182.607191 307.6953 
L 184.878562 307.69459 
L 185.635685 307.106475 
L 186.392809 307.697947 
L 190.93555 307.615939 
L 191.692673 307.336025 
L 192.449796 305.239316 
L 193.20692 307.523662 
L 193.964043 305.910729 
L 194.721167 307.695298 
L 196.992537 307.694591 
L 197.749661 307.106476 
L 197.749661 307.106476 
" clip-path="url(#pd10d3ee11d)" style="fill: none; stroke: #e377c2; stroke-opacity: 0.8; stroke-width: 1.5; stroke-linecap: square"/>
   </g>
   <g id="line2d_57">
    <path d="M 57.681818 233.260493 
L 58.438942 233.043324 
L 59.196065 233.132646 
L 59.953189 233.37244 
L 60.710312 233.242078 
L 61.467436 233.391899 
L 62.224559 233.260436 
L 62.981682 231.579573 
L 63.738806 233.157982 
L 65.253053 233.296404 
L 66.010176 244.556956 
L 66.7673 243.759633 
L 67.524423 244.449745 
L 68.281547 243.795699 
L 69.03867 244.548724 
L 69.795794 244.778518 
L 70.552917 244.556136 
L 71.310041 241.770992 
L 72.067164 244.516299 
L 73.581411 244.709548 
L 74.338535 259.509639 
L 75.095658 258.199343 
L 75.852782 259.509599 
L 76.609905 256.345239 
L 77.367028 259.5096 
L 78.124152 259.893473 
L 78.881275 259.507641 
L 79.638399 257.967781 
L 80.395522 259.526202 
L 81.152646 259.497596 
L 81.909769 259.753057 
L 82.666893 269.414584 
L 83.424016 267.78734 
L 84.18114 269.413412 
L 84.938263 270.112377 
L 85.695387 269.451603 
L 86.45251 270.101277 
L 87.209634 269.411595 
L 87.966757 269.199003 
L 88.723881 269.450599 
L 90.238128 269.31142 
L 90.995251 277.818691 
L 91.752374 276.655828 
L 92.509498 277.819091 
L 93.266621 274.563628 
L 94.023745 277.793389 
L 94.780868 278.968381 
L 95.537992 277.816117 
L 97.052239 277.641976 
L 97.809362 277.806336 
L 98.566486 277.817771 
L 99.323609 293.777133 
L 100.080733 291.448884 
L 100.837856 293.775978 
L 101.59498 292.887859 
L 102.352103 293.916429 
L 103.109227 293.729823 
L 105.380597 293.800895 
L 106.894844 293.776293 
L 107.651967 299.505601 
L 108.409091 297.993483 
L 109.166214 298.34958 
L 109.923338 297.488612 
L 110.680461 299.612665 
L 111.437585 298.427139 
L 112.194708 299.502496 
L 115.223202 299.504333 
L 115.980326 306.998753 
L 116.737449 306.738664 
L 117.494573 307.15323 
L 118.251696 306.39185 
L 119.00882 306.822155 
L 119.765943 306.35852 
L 120.523066 306.996571 
L 123.55156 306.99773 
L 124.308684 307.122108 
L 125.065807 307.051709 
L 125.822931 307.149967 
L 126.580054 306.033686 
L 127.337178 306.944451 
L 128.094301 305.667163 
L 128.851425 307.119461 
L 131.879919 307.121891 
L 132.637042 307.359499 
L 134.151289 307.076148 
L 134.908412 305.802935 
L 135.665536 307.19439 
L 136.422659 305.776027 
L 137.179783 307.356921 
L 141.722524 307.299316 
L 142.479647 307.067578 
L 143.236771 305.831576 
L 143.993894 307.223842 
L 144.751018 305.81279 
L 145.508141 307.384598 
L 150.050882 307.352132 
L 150.808005 307.113223 
L 151.565129 305.887256 
L 152.322252 307.275938 
L 153.079376 305.876633 
L 153.836499 307.438025 
L 157.622117 307.355069 
L 158.37924 307.575774 
L 159.136364 307.484831 
L 159.893487 307.245918 
L 160.650611 305.232609 
L 161.407734 307.411794 
L 162.164858 306.030809 
L 162.921981 307.573236 
L 165.950475 307.576733 
L 166.707598 307.354466 
L 167.464722 307.691953 
L 168.221845 307.637736 
L 168.978969 307.301413 
L 169.736092 305.998138 
L 170.493216 307.509589 
L 171.250339 306.4039 
L 172.007463 307.68944 
L 175.035957 307.694287 
L 175.79308 307.137601 
L 176.550204 307.707779 
L 177.307327 307.646599 
L 178.06445 307.284948 
L 178.821574 306.016847 
L 179.578697 307.528151 
L 180.335821 306.430413 
L 181.092944 307.705291 
L 184.121438 307.711275 
L 184.878562 307.136502 
L 185.635685 307.716819 
L 186.392809 307.652479 
L 187.149932 307.292801 
L 187.907056 306.026679 
L 188.664179 307.537949 
L 189.421303 306.442176 
L 190.178426 307.714334 
L 190.93555 307.092932 
L 191.692673 307.708349 
L 193.20692 307.721191 
L 193.964043 307.569936 
L 195.47829 307.711892 
L 196.992537 307.657211 
L 197.749661 307.299449 
L 198.506784 306.025502 
L 199.263908 307.536331 
L 200.021031 306.435276 
L 200.778155 307.714537 
L 206.835142 307.657095 
L 207.592266 307.299235 
L 208.349389 306.025555 
L 209.106513 307.536358 
L 209.863636 306.435421 
L 210.62076 307.714546 
L 215.920624 307.657037 
L 216.677748 307.299128 
L 217.434871 306.025581 
L 218.191995 307.536371 
L 218.949118 306.435484 
L 219.706242 307.71455 
L 225.763229 307.65703 
L 226.520353 307.299115 
L 227.277476 306.025584 
L 228.0346 307.536372 
L 228.791723 306.435492 
L 229.548847 307.714551 
L 234.091588 307.657013 
L 234.848711 307.299088 
L 235.605834 306.025591 
L 236.362958 307.536375 
L 237.120081 306.435508 
L 237.877205 307.714552 
L 242.419946 307.656987 
L 243.177069 307.299036 
L 243.934193 306.025603 
L 244.691316 307.536382 
L 245.44844 306.435539 
L 246.205563 307.714554 
L 250.748304 307.65693 
L 251.505427 307.298931 
L 252.262551 306.025627 
L 253.019674 307.536395 
L 253.776798 306.435599 
L 254.533921 307.714558 
L 259.076662 307.656817 
L 259.833786 307.298725 
L 260.590909 306.025671 
L 261.348033 307.536421 
L 262.105156 306.435714 
L 262.86228 307.714566 
L 268.919267 307.656799 
L 269.676391 307.298699 
L 270.433514 306.025676 
L 271.190638 307.536424 
L 271.947761 306.435729 
L 272.704885 307.714567 
L 278.004749 307.656797 
L 278.761872 307.298686 
L 279.518996 306.025679 
L 280.276119 307.536425 
L 281.033243 306.435736 
L 281.790366 307.714568 
L 287.090231 307.656793 
L 287.847354 307.29868 
L 288.604478 306.02568 
L 289.361601 307.536426 
L 290.118725 306.435739 
L 290.875848 307.714568 
L 295.418589 307.656786 
L 296.175712 307.298667 
L 296.932836 306.025683 
L 297.689959 307.536428 
L 298.447083 306.435746 
L 299.204206 307.714568 
L 304.504071 307.656778 
L 305.261194 307.298661 
L 306.018318 306.025684 
L 306.775441 307.536429 
L 307.532564 306.43575 
L 308.289688 307.714569 
L 311.318182 307.721297 
L 311.318182 307.721297 
" clip-path="url(#pd10d3ee11d)" style="fill: none; stroke: #7f7f7f; stroke-opacity: 0.8; stroke-width: 1.5; stroke-linecap: square"/>
   </g>
   <g id="line2d_58">
    <path d="M 57.681818 60.037344 
L 59.196065 60.036523 
L 59.953189 60.070465 
L 60.710312 59.80051 
L 61.467436 61.866617 
L 62.224559 59.85199 
L 62.981682 60.024331 
L 63.738806 59.329934 
L 64.495929 60.037497 
L 65.253053 60.037321 
L 66.010176 112.896607 
L 66.7673 114.020631 
L 67.524423 112.89732 
L 68.281547 113.083562 
L 69.03867 112.744257 
L 69.795794 116.064478 
L 70.552917 112.799935 
L 71.310041 112.765754 
L 72.067164 110.605497 
L 72.824288 112.897147 
L 73.581411 112.89622 
L 74.338535 175.258736 
L 75.095658 178.765913 
L 75.852782 175.24837 
L 76.609905 176.861973 
L 77.367028 175.167641 
L 78.124152 178.476627 
L 78.881275 175.187666 
L 79.638399 174.803787 
L 80.395522 171.763668 
L 81.152646 175.259706 
L 81.909769 175.261498 
L 82.666893 232.089424 
L 83.424016 236.77785 
L 84.18114 232.091856 
L 84.938263 236.285847 
L 85.695387 232.123208 
L 86.45251 234.73516 
L 87.209634 232.034011 
L 87.966757 231.495781 
L 88.723881 228.464241 
L 89.481004 232.089058 
L 90.238128 232.090957 
L 90.995251 273.181758 
L 91.752374 275.200064 
L 92.509498 273.18169 
L 93.266621 276.01559 
L 94.023745 273.280702 
L 94.780868 275.121598 
L 95.537992 273.149428 
L 96.295115 272.894543 
L 97.052239 270.887468 
L 97.809362 273.172484 
L 98.566486 273.198545 
L 99.323609 284.286382 
L 100.080733 283.245269 
L 101.59498 282.91888 
L 102.352103 284.347501 
L 103.109227 284.416671 
L 103.86635 284.278783 
L 104.623474 284.274864 
L 105.380597 283.908523 
L 106.13772 284.282876 
L 106.894844 283.467602 
L 107.651967 296.804868 
L 108.409091 295.014429 
L 109.166214 296.55501 
L 109.923338 294.274836 
L 110.680461 296.821765 
L 111.437585 295.591888 
L 112.194708 296.801637 
L 115.223202 296.766929 
L 115.980326 306.220688 
L 116.737449 305.619066 
L 117.494573 306.282664 
L 118.251696 305.510215 
L 119.00882 306.444612 
L 119.765943 305.34546 
L 120.523066 306.21718 
L 121.28019 305.647045 
L 122.037313 305.677922 
L 122.794437 306.189261 
L 123.55156 306.219301 
L 124.308684 307.012803 
L 125.065807 306.833704 
L 125.822931 306.893541 
L 126.580054 304.494185 
L 127.337178 307.144648 
L 128.094301 305.140949 
L 128.851425 307.009184 
L 131.879919 307.011127 
L 132.637042 307.227863 
L 133.394166 307.105068 
L 134.151289 306.786303 
L 134.908412 306.104733 
L 135.665536 307.050974 
L 136.422659 305.74197 
L 137.179783 307.22551 
L 137.936906 307.152741 
L 139.451153 307.226899 
L 140.9654 307.265929 
L 142.479647 306.918313 
L 143.236771 305.83151 
L 143.993894 307.109688 
L 144.751018 305.709417 
L 145.508141 307.263337 
L 148.536635 307.265884 
L 149.293758 307.38596 
L 150.050882 307.307123 
L 150.808005 307.068061 
L 151.565129 305.854929 
L 152.322252 307.221534 
L 153.079376 305.809911 
L 153.836499 307.383471 
L 158.37924 307.303263 
L 159.136364 307.065478 
L 159.893487 305.846468 
L 160.650611 307.231952 
L 161.407734 305.830112 
L 162.164858 307.39289 
L 167.464722 307.340203 
L 168.221845 307.099816 
L 168.978969 305.87684 
L 169.736092 307.265511 
L 170.493216 305.862444 
L 171.250339 307.426005 
L 174.278833 307.426632 
L 175.035957 307.728364 
L 175.79308 307.635706 
L 176.550204 307.394978 
L 177.307327 305.450796 
L 178.06445 307.562388 
L 178.821574 306.209317 
L 179.578697 307.725821 
L 182.607191 307.742195 
L 183.364315 307.48524 
L 184.878562 307.171814 
L 185.635685 307.778371 
L 186.392809 307.681186 
L 187.149932 307.457898 
L 187.907056 305.93637 
L 188.664179 307.596485 
L 189.421303 306.408479 
L 190.178426 307.775714 
L 194.721167 307.712617 
L 195.47829 307.48551 
L 196.235414 306.059825 
L 196.992537 307.608249 
L 197.749661 306.456303 
L 198.506784 307.792061 
L 199.263908 307.138791 
L 200.021031 307.782998 
L 201.535278 307.79454 
L 202.292402 307.637117 
L 203.806649 307.794884 
L 204.563772 307.726737 
L 205.320896 307.501389 
L 206.078019 306.051707 
L 206.835142 307.6058 
L 207.592266 306.435205 
L 208.349389 307.792353 
L 209.106513 307.158044 
L 209.863636 307.784499 
L 215.920624 307.794944 
L 216.677748 307.726726 
L 217.434871 307.501355 
L 218.191995 306.051573 
L 218.949118 307.60588 
L 219.706242 306.435303 
L 220.463365 307.792412 
L 221.220488 307.157972 
L 221.977612 307.784575 
L 226.520353 307.794943 
L 226.520353 307.794943 
" clip-path="url(#pd10d3ee11d)" style="fill: none; stroke: #bcbd22; stroke-opacity: 0.8; stroke-width: 1.5; stroke-linecap: square"/>
   </g>
   <g id="line2d_59">
    <path d="M 57.681818 199.618631 
L 58.438942 210.546147 
L 59.196065 200.079364 
L 59.953189 200.110174 
L 60.710312 199.471974 
L 61.467436 201.364419 
L 62.224559 199.559395 
L 62.981682 199.224807 
L 63.738806 199.138751 
L 64.495929 199.606397 
L 65.253053 199.611045 
L 66.010176 239.796773 
L 66.7673 244.873796 
L 67.524423 240.004655 
L 68.281547 240.911531 
L 69.03867 239.765458 
L 69.795794 240.800733 
L 70.552917 239.751328 
L 72.067164 238.311869 
L 72.824288 239.794399 
L 73.581411 239.794183 
L 74.338535 255.480846 
L 75.095658 255.717932 
L 75.852782 255.373364 
L 76.609905 255.278717 
L 78.124152 255.756704 
L 78.881275 255.47197 
L 79.638399 255.394283 
L 80.395522 254.943271 
L 81.152646 255.505585 
L 81.909769 255.480389 
L 82.666893 260.432545 
L 83.424016 259.680588 
L 84.18114 260.432469 
L 84.938263 260.160516 
L 85.695387 260.438821 
L 86.45251 260.506454 
L 88.723881 260.356488 
L 90.238128 260.428432 
L 90.995251 270.193264 
L 91.752374 268.445957 
L 92.509498 270.194015 
L 93.266621 270.421914 
L 94.023745 270.245623 
L 94.780868 270.296179 
L 96.295115 270.193355 
L 97.809362 270.190624 
L 98.566486 270.169934 
L 99.323609 281.582713 
L 100.080733 280.533241 
L 101.59498 282.656247 
L 102.352103 281.629056 
L 103.109227 282.164316 
L 103.86635 281.570442 
L 104.623474 281.581357 
L 105.380597 280.768974 
L 106.13772 281.563555 
L 106.894844 281.567741 
L 107.651967 296.80119 
L 108.409091 295.369424 
L 109.166214 296.800069 
L 109.923338 295.748867 
L 110.680461 296.850341 
L 111.437585 295.624125 
L 112.194708 296.798075 
L 115.223202 296.732888 
L 115.980326 271.159359 
L 116.737449 301.173821 
L 117.494573 301.035267 
L 118.251696 301.19409 
L 119.00882 300.527495 
L 119.765943 301.118327 
L 120.523066 300.09339 
L 121.28019 301.171844 
L 124.308684 301.134501 
L 125.065807 305.256224 
L 125.822931 304.278608 
L 126.580054 304.983949 
L 127.337178 304.550219 
L 128.094301 304.952776 
L 128.851425 304.74203 
L 129.608548 305.251888 
L 132.637042 305.196122 
L 133.394166 307.604033 
L 134.151289 307.323366 
L 134.908412 307.321172 
L 135.665536 305.574475 
L 136.422659 307.387518 
L 137.179783 306.081433 
L 137.936906 307.601098 
L 140.9654 307.616637 
L 142.479647 307.342809 
L 143.236771 307.345373 
L 143.993894 307.688276 
L 144.751018 307.517076 
L 145.508141 307.516259 
L 146.265265 305.772113 
L 147.022388 307.456837 
L 147.779512 306.134224 
L 148.536635 307.685369 
L 153.836499 307.601204 
L 154.593623 305.893603 
L 155.350746 307.52902 
L 156.10787 306.371919 
L 156.864993 307.752356 
L 157.622117 307.294568 
L 158.37924 307.312854 
L 159.136364 307.737195 
L 159.893487 307.253519 
L 160.650611 307.423724 
L 161.407734 307.714273 
L 164.436228 307.755135 
L 168.221845 307.755433 
L 169.736092 307.601205 
L 170.493216 305.893604 
L 171.250339 307.529019 
L 172.007463 306.371919 
L 172.764586 307.752356 
L 173.52171 307.294568 
L 174.278833 307.312849 
L 175.035957 307.737196 
L 175.79308 307.253521 
L 176.550204 307.755375 
L 176.550204 307.755375 
" clip-path="url(#pd10d3ee11d)" style="fill: none; stroke: #17becf; stroke-opacity: 0.8; stroke-width: 1.5; stroke-linecap: square"/>
   </g>
   <g id="line2d_60">
    <path d="M 57.681818 209.103007 
L 58.438942 216.130835 
L 59.196065 209.104311 
L 59.953189 209.192164 
L 60.710312 211.149456 
L 61.467436 210.25734 
L 62.224559 209.085818 
L 62.981682 209.107565 
L 63.738806 208.689387 
L 64.495929 208.964867 
L 65.253053 209.102997 
L 66.010176 239.468269 
L 66.7673 243.876166 
L 67.524423 239.47032 
L 68.281547 239.480809 
L 69.03867 240.681001 
L 69.795794 240.640119 
L 70.552917 239.442228 
L 72.067164 239.318374 
L 72.824288 239.148784 
L 73.581411 239.474193 
L 74.338535 257.216728 
L 75.095658 258.017218 
L 75.852782 257.210517 
L 76.609905 257.569905 
L 78.124152 257.549294 
L 78.881275 257.198284 
L 79.638399 257.017936 
L 80.395522 257.210822 
L 81.152646 257.08518 
L 81.909769 257.215014 
L 82.666893 263.864277 
L 83.424016 263.035322 
L 84.18114 263.862358 
L 84.938263 263.974855 
L 85.695387 263.9498 
L 86.45251 263.754214 
L 87.209634 263.854731 
L 87.966757 263.730171 
L 88.723881 263.853072 
L 90.995251 263.633088 
L 91.752374 271.825222 
L 92.509498 270.187511 
L 93.266621 271.825323 
L 94.023745 270.844377 
L 94.780868 271.700813 
L 95.537992 272.139962 
L 96.295115 271.817875 
L 97.809362 271.838086 
L 98.566486 271.681242 
L 99.323609 271.932727 
L 100.080733 287.431007 
L 100.837856 284.750547 
L 101.59498 287.430767 
L 102.352103 288.163569 
L 103.109227 287.367005 
L 103.86635 288.098061 
L 104.623474 287.42981 
L 107.651967 287.421786 
L 108.409091 299.804134 
L 109.166214 298.552068 
L 109.923338 299.689074 
L 110.680461 297.520545 
L 111.437585 299.654176 
L 112.194708 300.762245 
L 112.951832 299.799821 
L 115.980326 299.802656 
L 116.737449 306.506797 
L 117.494573 305.892514 
L 118.251696 305.816614 
L 119.00882 305.985943 
L 119.765943 306.312113 
L 120.523066 305.846663 
L 121.28019 306.504181 
L 122.794437 306.483892 
L 124.308684 306.512492 
L 125.065807 307.572542 
L 126.580054 307.067567 
L 127.337178 306.259024 
L 128.094301 307.393432 
L 128.851425 306.498355 
L 129.608548 307.570017 
L 131.122795 307.562435 
L 132.637042 307.570993 
L 133.394166 307.411428 
L 134.151289 307.596235 
L 134.908412 307.508563 
L 135.665536 307.238784 
L 136.422659 305.563146 
L 137.179783 307.42109 
L 137.936906 306.062079 
L 138.69403 307.593512 
L 143.236771 307.590845 
L 143.993894 307.239461 
L 144.751018 305.921658 
L 145.508141 307.457936 
L 146.265265 306.375987 
L 147.022388 307.640921 
L 151.565129 307.603906 
L 152.322252 307.22411 
L 153.079376 306.046601 
L 153.836499 307.477631 
L 154.593623 306.419316 
L 155.350746 307.65737 
L 159.893487 307.632827 
L 160.650611 307.270156 
L 161.407734 306.029915 
L 162.164858 307.525535 
L 162.921981 306.444437 
L 163.679104 307.701244 
L 166.707598 307.706457 
L 167.464722 307.140577 
L 168.221845 307.726194 
L 168.978969 307.663316 
L 169.736092 307.304767 
L 170.493216 306.037287 
L 171.250339 307.547285 
L 172.007463 306.448428 
L 172.764586 307.723707 
L 173.52171 307.088942 
L 174.278833 307.135752 
L 175.035957 307.72503 
L 175.79308 307.731481 
L 176.550204 307.360309 
L 178.06445 307.71264 
L 181.092944 307.663833 
L 181.850068 307.305659 
L 182.607191 306.03791 
L 183.364315 307.547277 
L 184.121438 306.447148 
L 184.878562 307.723763 
L 185.635685 307.090338 
L 186.392809 307.136049 
L 187.149932 307.725075 
L 193.20692 307.726252 
L 193.964043 307.663833 
L 194.721167 307.305659 
L 195.47829 306.03791 
L 196.235414 307.547277 
L 196.992537 306.447148 
L 197.749661 307.723763 
L 198.506784 307.090339 
L 199.263908 307.136049 
L 200.021031 307.725075 
L 200.778155 307.731527 
L 200.778155 307.731527 
" clip-path="url(#pd10d3ee11d)" style="fill: none; stroke: #1f77b4; stroke-opacity: 0.8; stroke-width: 1.5; stroke-linecap: square"/>
   </g>
   <g id="line2d_61">
    <path d="M 57.681818 153.319028 
L 58.438942 155.158215 
L 59.196065 153.36089 
L 59.953189 158.514084 
L 60.710312 153.50016 
L 61.467436 156.212372 
L 62.224559 153.271259 
L 62.981682 151.758693 
L 63.738806 153.523119 
L 64.495929 153.285517 
L 65.253053 153.31842 
L 66.010176 215.318104 
L 66.7673 218.381461 
L 67.524423 215.342087 
L 68.281547 223.131826 
L 69.03867 215.525108 
L 69.795794 217.012068 
L 70.552917 215.245011 
L 72.067164 213.174172 
L 72.824288 215.169261 
L 73.581411 215.351889 
L 74.338535 255.510834 
L 75.095658 257.912446 
L 75.852782 255.514847 
L 76.609905 258.878744 
L 77.367028 255.617774 
L 78.124152 256.760611 
L 78.881275 255.471908 
L 79.638399 255.140538 
L 80.395522 253.36885 
L 81.152646 255.332518 
L 81.909769 255.752622 
L 82.666893 268.260249 
L 83.424016 268.685657 
L 84.18114 268.259461 
L 84.938263 266.632508 
L 85.695387 268.259361 
L 86.45251 267.352385 
L 87.209634 268.251551 
L 87.966757 266.63226 
L 88.723881 267.51034 
L 89.481004 268.200606 
L 90.238128 266.69917 
L 90.995251 272.946875 
L 91.752374 272.2553 
L 92.509498 272.744735 
L 93.266621 269.908492 
L 94.023745 272.917598 
L 94.780868 271.953088 
L 95.537992 272.944651 
L 96.295115 272.93193 
L 97.052239 272.697887 
L 97.809362 272.929916 
L 98.566486 272.904942 
L 99.323609 287.938729 
L 100.080733 285.230299 
L 100.837856 287.937051 
L 101.59498 288.073699 
L 103.109227 287.87785 
L 105.380597 287.986112 
L 106.894844 287.937673 
L 107.651967 297.433817 
L 108.409091 296.988371 
L 109.166214 297.441429 
L 109.923338 293.689688 
L 110.680461 297.514322 
L 111.437585 295.442776 
L 112.194708 297.430322 
L 112.951832 297.320461 
L 115.223202 297.432616 
L 115.980326 276.096539 
L 116.737449 303.229886 
L 117.494573 302.896747 
L 118.251696 303.326417 
L 119.00882 301.151585 
L 119.765943 303.351097 
L 120.523066 301.550422 
L 121.28019 303.226954 
L 124.308684 303.228875 
L 125.065807 303.771406 
L 125.822931 302.58873 
L 126.580054 301.804983 
L 128.094301 303.641066 
L 128.851425 303.214651 
L 129.608548 303.769652 
L 130.365672 303.696024 
L 132.637042 303.779722 
L 133.394166 306.970179 
L 134.908412 306.785996 
L 135.665536 306.23972 
L 136.422659 306.783085 
L 137.179783 306.485862 
L 137.936906 306.968188 
L 138.69403 306.889824 
L 140.9654 306.971039 
L 141.722524 307.589114 
L 142.479647 307.64162 
L 143.236771 307.556511 
L 143.993894 305.278396 
L 144.751018 307.40943 
L 145.508141 305.995458 
L 146.265265 307.586939 
L 149.293758 307.598935 
L 150.808005 307.114135 
L 151.565129 307.686858 
L 153.079376 307.446399 
L 153.836499 305.914423 
L 154.593623 307.501539 
L 155.350746 306.360141 
L 156.10787 307.68465 
L 159.136364 307.695354 
L 159.893487 307.110081 
L 160.650611 307.696211 
L 162.164858 307.422647 
L 162.921981 305.979192 
L 163.679104 307.510628 
L 164.436228 306.388288 
L 165.193351 307.693973 
L 169.736092 307.630581 
L 170.493216 307.414126 
L 171.250339 305.998859 
L 172.007463 307.523339 
L 172.764586 306.39872 
L 173.52171 307.707082 
L 174.278833 307.064842 
L 175.035957 307.122136 
L 175.79308 307.708038 
L 176.550204 307.107991 
L 177.307327 307.566272 
L 178.06445 307.694158 
L 180.335821 307.709438 
L 181.092944 307.631472 
L 181.850068 307.415037 
L 182.607191 305.99941 
L 183.364315 307.523172 
L 184.121438 306.39798 
L 184.878562 307.706999 
L 185.635685 307.065546 
L 186.392809 307.122721 
L 187.149932 307.708011 
L 187.907056 307.108562 
L 188.664179 307.708979 
L 193.964043 307.631479 
L 194.721167 307.415044 
L 195.47829 305.999428 
L 196.235414 307.523186 
L 196.992537 306.39798 
L 197.749661 307.706999 
L 198.506784 307.065548 
L 199.263908 307.122721 
L 200.021031 307.708011 
L 200.778155 307.108562 
L 200.778155 307.108562 
" clip-path="url(#pd10d3ee11d)" style="fill: none; stroke: #ff7f0e; stroke-opacity: 0.8; stroke-width: 1.5; stroke-linecap: square"/>
   </g>
   <g id="line2d_62">
    <path d="M 57.681818 126.620862 
L 58.438942 132.50131 
L 59.196065 126.620996 
L 59.953189 126.700195 
L 60.710312 126.65544 
L 61.467436 128.321958 
L 62.224559 126.654104 
L 62.981682 126.728432 
L 63.738806 126.34224 
L 64.495929 126.595605 
L 65.253053 126.618082 
L 66.010176 196.938091 
L 66.7673 205.052893 
L 67.524423 196.930499 
L 68.281547 199.267592 
L 69.03867 197.147081 
L 69.795794 198.509912 
L 70.552917 196.898535 
L 71.310041 197.395771 
L 72.067164 193.771858 
L 72.824288 196.795029 
L 73.581411 196.931016 
L 74.338535 242.717067 
L 75.095658 248.012347 
L 75.852782 242.713722 
L 76.609905 245.798473 
L 77.367028 242.962261 
L 78.124152 243.541817 
L 78.881275 242.685382 
L 79.638399 243.18993 
L 80.395522 239.693547 
L 81.152646 242.560372 
L 81.909769 242.72059 
L 82.666893 260.748347 
L 83.424016 261.321965 
L 84.18114 260.747659 
L 84.938263 261.977631 
L 85.695387 260.854082 
L 86.45251 261.015956 
L 87.209634 260.736227 
L 87.966757 260.912323 
L 88.723881 259.689101 
L 89.481004 260.649261 
L 90.238128 260.746053 
L 90.995251 265.72737 
L 91.752374 264.994448 
L 92.509498 265.727247 
L 93.266621 265.471325 
L 94.780868 265.930619 
L 95.537992 265.723583 
L 96.295115 265.750624 
L 97.052239 265.511849 
L 98.566486 265.751737 
L 99.323609 271.62471 
L 100.080733 270.331506 
L 100.837856 271.61766 
L 101.59498 271.289456 
L 102.352103 271.636124 
L 103.109227 271.544759 
L 103.86635 271.623124 
L 104.623474 271.544803 
L 105.380597 271.671436 
L 106.894844 271.635119 
L 107.651967 278.409891 
L 108.409091 276.706428 
L 109.166214 278.408247 
L 109.923338 278.77323 
L 110.680461 278.362252 
L 111.437585 278.595955 
L 112.951832 278.323578 
L 113.708955 278.451468 
L 115.223202 278.40968 
L 115.980326 296.249739 
L 116.737449 294.640799 
L 117.494573 296.269411 
L 118.251696 296.524929 
L 119.00882 296.07149 
L 119.765943 296.552673 
L 120.523066 296.244378 
L 122.037313 296.201026 
L 123.55156 296.301107 
L 124.308684 295.018085 
L 125.065807 302.873456 
L 125.822931 302.478213 
L 126.580054 302.984959 
L 127.337178 301.493462 
L 128.094301 302.626949 
L 128.851425 303.16444 
L 129.608548 302.868597 
L 132.637042 302.924586 
L 133.394166 306.090564 
L 134.151289 305.347259 
L 134.908412 305.795124 
L 135.665536 304.717286 
L 136.422659 305.891332 
L 137.179783 304.946918 
L 137.936906 306.087335 
L 139.451153 306.087135 
L 140.9654 306.035781 
L 141.722524 307.393519 
L 143.236771 306.992327 
L 143.993894 306.278659 
L 144.751018 307.216933 
L 145.508141 306.183884 
L 146.265265 307.391019 
L 147.779512 307.383659 
L 150.808005 307.371746 
L 151.565129 307.090438 
L 152.322252 305.883194 
L 153.079376 307.27467 
L 153.836499 305.990832 
L 154.593623 307.446059 
L 159.136364 307.371434 
L 159.893487 307.085006 
L 160.650611 305.855786 
L 161.407734 307.278644 
L 162.164858 306.545347 
L 162.921981 307.448524 
L 167.464722 307.37871 
L 168.221845 307.086116 
L 168.978969 305.859847 
L 169.736092 307.279244 
L 170.493216 306.544987 
L 171.250339 307.450943 
L 179.578697 307.37869 
L 180.335821 307.086075 
L 181.092944 305.860011 
L 181.850068 307.279243 
L 182.607191 306.545016 
L 183.364315 307.450704 
L 190.178426 307.37869 
L 190.93555 307.086073 
L 191.692673 305.860018 
L 192.449796 307.279243 
L 193.20692 306.545017 
L 193.964043 307.450703 
L 196.992537 307.394449 
L 196.992537 307.394449 
" clip-path="url(#pd10d3ee11d)" style="fill: none; stroke: #2ca02c; stroke-opacity: 0.8; stroke-width: 1.5; stroke-linecap: square"/>
   </g>
   <g id="line2d_63">
    <path d="M 57.681818 204.146947 
L 58.438942 204.115046 
L 59.196065 213.147321 
L 59.953189 204.14462 
L 60.710312 206.744306 
L 61.467436 207.110493 
L 62.224559 204.140376 
L 62.981682 204.139626 
L 63.738806 204.126154 
L 64.495929 201.551391 
L 65.253053 204.147016 
L 66.010176 263.419746 
L 66.7673 263.409427 
L 67.524423 259.336366 
L 68.281547 266.029645 
L 69.03867 265.313773 
L 69.795794 264.75459 
L 70.552917 263.41345 
L 71.310041 263.162163 
L 72.067164 263.419367 
L 72.824288 261.337556 
L 73.581411 263.419746 
L 74.338535 286.886759 
L 75.095658 286.974432 
L 75.852782 289.385387 
L 76.609905 287.066987 
L 77.367028 287.577466 
L 78.124152 287.291873 
L 78.881275 286.883871 
L 79.638399 286.889065 
L 80.395522 286.899106 
L 81.152646 286.110685 
L 81.909769 286.886754 
L 82.666893 301.355779 
L 83.424016 301.375398 
L 84.18114 295.568073 
L 84.938263 300.625842 
L 85.695387 301.712043 
L 86.45251 300.511712 
L 87.209634 301.3541 
L 87.966757 301.310871 
L 88.723881 301.346358 
L 89.481004 301.096317 
L 90.238128 301.354406 
L 90.995251 306.643901 
L 91.752374 306.674375 
L 92.509498 303.426703 
L 93.266621 306.449682 
L 94.023745 306.372412 
L 94.780868 306.455529 
L 95.537992 306.641916 
L 96.295115 306.54568 
L 97.052239 306.609333 
L 97.809362 306.615865 
L 98.566486 306.64426 
L 99.323609 307.531431 
L 100.080733 307.522307 
L 100.837856 305.751246 
L 101.59498 305.41463 
L 102.352103 307.242357 
L 103.109227 305.892068 
L 103.86635 307.529005 
L 104.623474 307.544368 
L 105.380597 307.529423 
L 106.13772 307.496614 
L 106.894844 307.548407 
L 107.651967 307.377285 
L 108.409091 307.288713 
L 109.166214 307.646725 
L 109.923338 307.643186 
L 110.680461 305.690058 
L 111.437585 305.900094 
L 112.194708 307.39121 
L 112.951832 306.227087 
L 113.708955 307.644624 
L 114.466079 307.634257 
L 115.223202 307.636958 
L 115.980326 307.627375 
L 116.737449 307.645393 
L 117.494573 307.109178 
L 118.251696 307.674709 
L 119.00882 307.670787 
L 119.765943 305.7864 
L 120.523066 305.954864 
L 121.28019 307.437056 
L 122.037313 306.269619 
L 122.794437 307.672663 
L 123.55156 307.664559 
L 124.308684 307.668425 
L 125.065807 307.661232 
L 125.822931 307.673543 
L 126.580054 307.71312 
L 127.337178 307.709961 
L 128.094301 305.892102 
L 128.851425 306.009092 
L 129.608548 307.503193 
L 130.365672 306.343311 
L 131.122795 307.71121 
L 131.879919 307.061087 
L 132.637042 307.707154 
L 133.394166 307.70732 
L 134.151289 307.711851 
L 134.908412 307.571267 
L 135.665536 307.635739 
L 136.422659 307.70366 
L 137.179783 307.712316 
L 137.936906 307.713063 
L 138.69403 307.712809 
L 139.451153 307.713032 
L 140.208277 307.713111 
L 140.9654 307.713125 
L 141.722524 307.709965 
L 142.479647 305.892134 
L 143.236771 306.009756 
L 143.993894 307.503196 
L 144.751018 306.343276 
L 145.508141 307.711214 
L 146.265265 307.061084 
L 147.022388 307.707163 
L 147.779512 307.707323 
L 148.536635 307.711845 
L 149.293758 307.713125 
L 150.050882 307.713125 
L 150.808005 307.713125 
" clip-path="url(#pd10d3ee11d)" style="fill: none; stroke: #d62728; stroke-opacity: 0.8; stroke-width: 1.5; stroke-linecap: square"/>
   </g>
   <g id="line2d_64">
    <path d="M 57.681818 185.728787 
L 58.438942 187.320933 
L 59.196065 185.944613 
L 59.953189 186.686889 
L 60.710312 187.677257 
L 61.467436 190.056013 
L 62.224559 185.671498 
L 62.981682 185.955504 
L 63.738806 185.052968 
L 64.495929 185.833557 
L 65.253053 185.726992 
L 66.010176 247.523216 
L 66.7673 249.581514 
L 67.524423 247.632009 
L 68.281547 251.612885 
L 69.03867 249.689401 
L 69.795794 249.858511 
L 70.552917 247.449471 
L 71.310041 247.953617 
L 72.067164 247.113086 
L 72.824288 246.017519 
L 73.581411 247.523049 
L 74.338535 272.105098 
L 75.095658 272.500219 
L 75.852782 272.109214 
L 76.609905 272.355447 
L 77.367028 272.995491 
L 78.124152 270.697192 
L 78.881275 272.080425 
L 79.638399 271.96435 
L 80.395522 271.993437 
L 81.152646 271.066752 
L 81.909769 272.105337 
L 82.666893 283.960177 
L 83.424016 284.046613 
L 84.18114 283.943024 
L 84.938263 284.524693 
L 85.695387 284.701889 
L 86.45251 282.34065 
L 87.209634 283.944845 
L 87.966757 283.150262 
L 88.723881 283.74171 
L 89.481004 283.131367 
L 90.238128 284.008777 
L 90.995251 299.475042 
L 91.752374 298.347045 
L 92.509498 299.457663 
L 93.266621 298.143699 
L 94.023745 299.763546 
L 94.780868 298.414161 
L 95.537992 299.46962 
L 96.295115 299.40103 
L 97.052239 299.465359 
L 97.809362 299.261579 
L 98.566486 299.394168 
L 99.323609 304.790359 
L 100.080733 303.732875 
L 100.837856 303.079672 
L 101.59498 304.153451 
L 102.352103 304.573977 
L 103.109227 304.226617 
L 103.86635 304.787941 
L 106.13772 304.776449 
L 106.894844 304.89335 
L 107.651967 307.322522 
L 109.166214 307.066344 
L 109.923338 304.79669 
L 110.680461 307.161032 
L 111.437585 305.647915 
L 112.194708 307.319899 
L 112.951832 307.222155 
L 113.708955 307.326578 
L 115.223202 307.338097 
L 115.980326 307.143589 
L 116.737449 307.079927 
L 117.494573 307.634832 
L 119.00882 307.373898 
L 119.765943 305.886196 
L 120.523066 307.431206 
L 121.28019 306.206247 
L 122.037313 307.631899 
L 125.065807 307.647719 
L 125.822931 307.097431 
L 126.580054 307.669572 
L 128.094301 307.39199 
L 128.851425 305.948703 
L 129.608548 307.465767 
L 130.365672 306.277232 
L 131.122795 307.666712 
L 134.151289 307.682058 
L 134.908412 307.095877 
L 135.665536 307.682806 
L 137.179783 307.398072 
L 137.936906 305.964312 
L 138.69403 307.480265 
L 139.451153 306.303832 
L 140.208277 307.67996 
L 144.751018 307.620852 
L 145.508141 307.409857 
L 146.265265 305.986163 
L 147.022388 307.50545 
L 147.779512 306.34447 
L 148.536635 307.70235 
L 149.293758 307.048559 
L 150.050882 307.705503 
L 156.864993 307.621049 
L 157.622117 307.410138 
L 158.37924 305.986449 
L 159.136364 307.505199 
L 159.893487 306.344238 
L 160.650611 307.702406 
L 161.407734 307.049383 
L 162.164858 307.705435 
L 165.950475 307.621204 
L 166.707598 307.410216 
L 167.464722 305.986445 
L 168.221845 307.505242 
L 168.978969 306.34422 
L 169.736092 307.702646 
L 170.493216 307.04943 
L 171.250339 307.705577 
L 176.550204 307.705423 
L 176.550204 307.705423 
" clip-path="url(#pd10d3ee11d)" style="fill: none; stroke: #9467bd; stroke-opacity: 0.8; stroke-width: 1.5; stroke-linecap: square"/>
   </g>
   <g id="line2d_65">
    <defs>
     <path id="m85fcf4ee36" d="M 0 3 
C 0.795609 3 1.55874 2.683901 2.12132 2.12132 
C 2.683901 1.55874 3 0.795609 3 0 
C 3 -0.795609 2.683901 -1.55874 2.12132 -2.12132 
C 1.55874 -2.683901 0.795609 -3 0 -3 
C -0.795609 -3 -1.55874 -2.683901 -2.12132 -2.12132 
C -2.683901 -1.55874 -3 -0.795609 -3 0 
C -3 0.795609 -2.683901 1.55874 -2.12132 2.12132 
C -1.55874 2.683901 -0.795609 3 0 3 
z
" style="stroke: #000000; stroke-opacity: 0.8"/>
    </defs>
    <g clip-path="url(#pd10d3ee11d)">
     <use xlink:href="#m85fcf4ee36" x="222.734735" y="307.778289" style="fill-opacity: 0.8; stroke: #000000; stroke-opacity: 0.8"/>
    </g>
   </g>
   <g id="line2d_66">
    <g clip-path="url(#pd10d3ee11d)">
     <use xlink:href="#m85fcf4ee36" x="223.491859" y="267.135644" style="fill-opacity: 0.8; stroke: #000000; stroke-opacity: 0.8"/>
    </g>
   </g>
   <g id="line2d_67">
    <g clip-path="url(#pd10d3ee11d)">
     <use xlink:href="#m85fcf4ee36" x="167.464722" y="307.64306" style="fill-opacity: 0.8; stroke: #000000; stroke-opacity: 0.8"/>
    </g>
   </g>
   <g id="line2d_68">
    <g clip-path="url(#pd10d3ee11d)">
     <use xlink:href="#m85fcf4ee36" x="181.850068" y="307.453845" style="fill-opacity: 0.8; stroke: #000000; stroke-opacity: 0.8"/>
    </g>
   </g>
   <g id="line2d_69">
    <g clip-path="url(#pd10d3ee11d)">
     <use xlink:href="#m85fcf4ee36" x="207.592266" y="307.799589" style="fill-opacity: 0.8; stroke: #000000; stroke-opacity: 0.8"/>
    </g>
   </g>
   <g id="line2d_70">
    <g clip-path="url(#pd10d3ee11d)">
     <use xlink:href="#m85fcf4ee36" x="259.076662" y="307.796323" style="fill-opacity: 0.8; stroke: #000000; stroke-opacity: 0.8"/>
    </g>
   </g>
   <g id="line2d_71">
    <g clip-path="url(#pd10d3ee11d)">
     <use xlink:href="#m85fcf4ee36" x="197.749661" y="307.106476" style="fill-opacity: 0.8; stroke: #000000; stroke-opacity: 0.8"/>
    </g>
   </g>
   <g id="line2d_72">
    <g clip-path="url(#pd10d3ee11d)">
     <use xlink:href="#m85fcf4ee36" x="311.318182" y="307.721297" style="fill-opacity: 0.8; stroke: #000000; stroke-opacity: 0.8"/>
    </g>
   </g>
   <g id="line2d_73">
    <g clip-path="url(#pd10d3ee11d)">
     <use xlink:href="#m85fcf4ee36" x="226.520353" y="307.794943" style="fill-opacity: 0.8; stroke: #000000; stroke-opacity: 0.8"/>
    </g>
   </g>
   <g id="line2d_74">
    <g clip-path="url(#pd10d3ee11d)">
     <use xlink:href="#m85fcf4ee36" x="176.550204" y="307.755375" style="fill-opacity: 0.8; stroke: #000000; stroke-opacity: 0.8"/>
    </g>
   </g>
   <g id="line2d_75">
    <g clip-path="url(#pd10d3ee11d)">
     <use xlink:href="#m85fcf4ee36" x="200.778155" y="307.731527" style="fill-opacity: 0.8; stroke: #000000; stroke-opacity: 0.8"/>
    </g>
   </g>
   <g id="line2d_76">
    <g clip-path="url(#pd10d3ee11d)">
     <use xlink:href="#m85fcf4ee36" x="200.778155" y="307.108562" style="fill-opacity: 0.8; stroke: #000000; stroke-opacity: 0.8"/>
    </g>
   </g>
   <g id="line2d_77">
    <g clip-path="url(#pd10d3ee11d)">
     <use xlink:href="#m85fcf4ee36" x="196.992537" y="307.394449" style="fill-opacity: 0.8; stroke: #000000; stroke-opacity: 0.8"/>
    </g>
   </g>
   <g id="line2d_78">
    <g clip-path="url(#pd10d3ee11d)">
     <use xlink:href="#m85fcf4ee36" x="150.808005" y="307.713125" style="fill-opacity: 0.8; stroke: #000000; stroke-opacity: 0.8"/>
    </g>
   </g>
   <g id="line2d_79">
    <g clip-path="url(#pd10d3ee11d)">
     <use xlink:href="#m85fcf4ee36" x="176.550204" y="307.705423" style="fill-opacity: 0.8; stroke: #000000; stroke-opacity: 0.8"/>
    </g>
   </g>
   <g id="patch_3">
    <path d="M 45 320.4 
L 45 43.2 
" style="fill: none; stroke: #000000; stroke-width: 0.8; stroke-linejoin: miter; stroke-linecap: square"/>
   </g>
   <g id="patch_4">
    <path d="M 324 320.4 
L 324 43.2 
" style="fill: none; stroke: #000000; stroke-width: 0.8; stroke-linejoin: miter; stroke-linecap: square"/>
   </g>
   <g id="patch_5">
    <path d="M 45 320.4 
L 324 320.4 
" style="fill: none; stroke: #000000; stroke-width: 0.8; stroke-linejoin: miter; stroke-linecap: square"/>
   </g>
   <g id="patch_6">
    <path d="M 45 43.2 
L 324 43.2 
" style="fill: none; stroke: #000000; stroke-width: 0.8; stroke-linejoin: miter; stroke-linecap: square"/>
   </g>
  </g>
 </g>
 <defs>
  <clipPath id="pd10d3ee11d">
   <rect x="45" y="43.2" width="279" height="277.2"/>
  </clipPath>
 </defs>
</svg>
