<?xml version="1.0" encoding="utf-8" standalone="no"?>
<!DOCTYPE svg PUBLIC "-//W3C//DTD SVG 1.1//EN"
  "http://www.w3.org/Graphics/SVG/1.1/DTD/svg11.dtd">
<svg xmlns:xlink="http://www.w3.org/1999/xlink" width="861.736193pt" height="370.537812pt" viewBox="0 0 861.736193 370.537812" xmlns="http://www.w3.org/2000/svg" version="1.1">
 <metadata>
  <rdf:RDF xmlns:dc="http://purl.org/dc/elements/1.1/" xmlns:cc="http://creativecommons.org/ns#" xmlns:rdf="http://www.w3.org/1999/02/22-rdf-syntax-ns#">
   <cc:Work>
    <dc:type rdf:resource="http://purl.org/dc/dcmitype/StillImage"/>
    <dc:date>2026-01-06T17:44:20.475304</dc:date>
    <dc:format>image/svg+xml</dc:format>
    <dc:creator>
     <cc:Agent>
      <dc:title>Matplotlib v3.10.7, https://matplotlib.org/</dc:title>
     </cc:Agent>
    </dc:creator>
   </cc:Work>
  </rdf:RDF>
 </metadata>
 <defs>
  <style type="text/css">*{stroke-linejoin: round; stroke-linecap: butt}</style>
 </defs>
 <g id="figure_1">
  <g id="patch_1">
   <path d="M 0 370.537812 
L 861.736193 370.537812 
L 861.736193 0 
L 0 0 
z
" style="fill: #ffffff"/>
  </g>
  <g id="axes_1">
   <g id="patch_2">
    <path d="M 64.251875 320.4 
L 403.904049 320.4 
L 403.904049 43.2 
L 64.251875 43.2 
z
" style="fill: #ffffff"/>
   </g>
   <g id="matplotlib.axis_1">
    <g id="xtick_1">
     <g id="line2d_1">
      <defs>
       <path id="mf1ae0ece2c" d="M 0 0 
L 0 3.5 
" style="stroke: #000000; stroke-width: 0.8"/>
      </defs>
      <g>
       <use xlink:href="#mf1ae0ece2c" x="79.69061" y="320.4" style="stroke: #000000; stroke-width: 0.8"/>
      </g>
     </g>
     <g id="text_1">
      <!-- 0 -->
      <g transform="translate(74.918735 338.797656) scale(0.15 -0.15)">
       <defs>
        <path id="DejaVuSans-30" d="M 2034 4250 
Q 1547 4250 1301 3770 
Q 1056 3291 1056 2328 
Q 1056 1369 1301 889 
Q 1547 409 2034 409 
Q 2525 409 2770 889 
Q 3016 1369 3016 2328 
Q 3016 3291 2770 3770 
Q 2525 4250 2034 4250 
z
M 2034 4750 
Q 2819 4750 3233 4129 
Q 3647 3509 3647 2328 
Q 3647 1150 3233 529 
Q 2819 -91 2034 -91 
Q 1250 -91 836 529 
Q 422 1150 422 2328 
Q 422 3509 836 4129 
Q 1250 4750 2034 4750 
z
" transform="scale(0.015625)"/>
       </defs>
       <use xlink:href="#DejaVuSans-30"/>
      </g>
     </g>
    </g>
    <g id="xtick_2">
     <g id="line2d_2">
      <g>
       <use xlink:href="#mf1ae0ece2c" x="143.487037" y="320.4" style="stroke: #000000; stroke-width: 0.8"/>
      </g>
     </g>
     <g id="text_2">
      <!-- 50 -->
      <g transform="translate(133.943287 338.797656) scale(0.15 -0.15)">
       <defs>
        <path id="DejaVuSans-35" d="M 691 4666 
L 3169 4666 
L 3169 4134 
L 1269 4134 
L 1269 2991 
Q 1406 3038 1543 3061 
Q 1681 3084 1819 3084 
Q 2600 3084 3056 2656 
Q 3513 2228 3513 1497 
Q 3513 744 3044 326 
Q 2575 -91 1722 -91 
Q 1428 -91 1123 -41 
Q 819 9 494 109 
L 494 744 
Q 775 591 1075 516 
Q 1375 441 1709 441 
Q 2250 441 2565 725 
Q 2881 1009 2881 1497 
Q 2881 1984 2565 2268 
Q 2250 2553 1709 2553 
Q 1456 2553 1204 2497 
Q 953 2441 691 2322 
L 691 4666 
z
" transform="scale(0.015625)"/>
       </defs>
       <use xlink:href="#DejaVuSans-35"/>
       <use xlink:href="#DejaVuSans-30" transform="translate(63.623047 0)"/>
      </g>
     </g>
    </g>
    <g id="xtick_3">
     <g id="line2d_3">
      <g>
       <use xlink:href="#mf1ae0ece2c" x="207.283463" y="320.4" style="stroke: #000000; stroke-width: 0.8"/>
      </g>
     </g>
     <g id="text_3">
      <!-- 100 -->
      <g transform="translate(192.967838 338.797656) scale(0.15 -0.15)">
       <defs>
        <path id="DejaVuSans-31" d="M 794 531 
L 1825 531 
L 1825 4091 
L 703 3866 
L 703 4441 
L 1819 4666 
L 2450 4666 
L 2450 531 
L 3481 531 
L 3481 0 
L 794 0 
L 794 531 
z
" transform="scale(0.015625)"/>
       </defs>
       <use xlink:href="#DejaVuSans-31"/>
       <use xlink:href="#DejaVuSans-30" transform="translate(63.623047 0)"/>
       <use xlink:href="#DejaVuSans-30" transform="translate(127.246094 0)"/>
      </g>
     </g>
    </g>
    <g id="xtick_4">
     <g id="line2d_4">
      <g>
       <use xlink:href="#mf1ae0ece2c" x="271.079889" y="320.4" style="stroke: #000000; stroke-width: 0.8"/>
      </g>
     </g>
     <g id="text_4">
      <!-- 150 -->
      <g transform="translate(256.764264 338.797656) scale(0.15 -0.15)">
       <use xlink:href="#DejaVuSans-31"/>
       <use xlink:href="#DejaVuSans-35" transform="translate(63.623047 0)"/>
       <use xlink:href="#DejaVuSans-30" transform="translate(127.246094 0)"/>
      </g>
     </g>
    </g>
    <g id="xtick_5">
     <g id="line2d_5">
      <g>
       <use xlink:href="#mf1ae0ece2c" x="334.876316" y="320.4" style="stroke: #000000; stroke-width: 0.8"/>
      </g>
     </g>
     <g id="text_5">
      <!-- 200 -->
      <g transform="translate(320.560691 338.797656) scale(0.15 -0.15)">
       <defs>
        <path id="DejaVuSans-32" d="M 1228 531 
L 3431 531 
L 3431 0 
L 469 0 
L 469 531 
Q 828 903 1448 1529 
Q 2069 2156 2228 2338 
Q 2531 2678 2651 2914 
Q 2772 3150 2772 3378 
Q 2772 3750 2511 3984 
Q 2250 4219 1831 4219 
Q 1534 4219 1204 4116 
Q 875 4013 500 3803 
L 500 4441 
Q 881 4594 1212 4672 
Q 1544 4750 1819 4750 
Q 2544 4750 2975 4387 
Q 3406 4025 3406 3419 
Q 3406 3131 3298 2873 
Q 3191 2616 2906 2266 
Q 2828 2175 2409 1742 
Q 1991 1309 1228 531 
z
" transform="scale(0.015625)"/>
       </defs>
       <use xlink:href="#DejaVuSans-32"/>
       <use xlink:href="#DejaVuSans-30" transform="translate(63.623047 0)"/>
       <use xlink:href="#DejaVuSans-30" transform="translate(127.246094 0)"/>
      </g>
     </g>
    </g>
    <g id="xtick_6">
     <g id="line2d_6">
      <g>
       <use xlink:href="#mf1ae0ece2c" x="398.672742" y="320.4" style="stroke: #000000; stroke-width: 0.8"/>
      </g>
     </g>
     <g id="text_6">
      <!-- 250 -->
      <g transform="translate(384.357117 338.797656) scale(0.15 -0.15)">
       <use xlink:href="#DejaVuSans-32"/>
       <use xlink:href="#DejaVuSans-35" transform="translate(63.623047 0)"/>
       <use xlink:href="#DejaVuSans-30" transform="translate(127.246094 0)"/>
      </g>
     </g>
    </g>
    <g id="text_7">
     <!-- time [hr] -->
     <g transform="translate(189.003431 359.594375) scale(0.18 -0.18)">
      <defs>
       <path id="DejaVuSans-Bold-74" d="M 1759 4494 
L 1759 3500 
L 2913 3500 
L 2913 2700 
L 1759 2700 
L 1759 1216 
Q 1759 972 1856 886 
Q 1953 800 2241 800 
L 2816 800 
L 2816 0 
L 1856 0 
Q 1194 0 917 276 
Q 641 553 641 1216 
L 641 2700 
L 84 2700 
L 84 3500 
L 641 3500 
L 641 4494 
L 1759 4494 
z
" transform="scale(0.015625)"/>
       <path id="DejaVuSans-Bold-69" d="M 538 3500 
L 1656 3500 
L 1656 0 
L 538 0 
L 538 3500 
z
M 538 4863 
L 1656 4863 
L 1656 3950 
L 538 3950 
L 538 4863 
z
" transform="scale(0.015625)"/>
       <path id="DejaVuSans-Bold-6d" d="M 3781 2919 
Q 3994 3244 4286 3414 
Q 4578 3584 4928 3584 
Q 5531 3584 5847 3212 
Q 6163 2841 6163 2131 
L 6163 0 
L 5038 0 
L 5038 1825 
Q 5041 1866 5042 1909 
Q 5044 1953 5044 2034 
Q 5044 2406 4934 2573 
Q 4825 2741 4581 2741 
Q 4263 2741 4089 2478 
Q 3916 2216 3909 1719 
L 3909 0 
L 2784 0 
L 2784 1825 
Q 2784 2406 2684 2573 
Q 2584 2741 2328 2741 
Q 2006 2741 1831 2477 
Q 1656 2213 1656 1722 
L 1656 0 
L 531 0 
L 531 3500 
L 1656 3500 
L 1656 2988 
Q 1863 3284 2130 3434 
Q 2397 3584 2719 3584 
Q 3081 3584 3359 3409 
Q 3638 3234 3781 2919 
z
" transform="scale(0.015625)"/>
       <path id="DejaVuSans-Bold-65" d="M 4031 1759 
L 4031 1441 
L 1416 1441 
Q 1456 1047 1700 850 
Q 1944 653 2381 653 
Q 2734 653 3104 758 
Q 3475 863 3866 1075 
L 3866 213 
Q 3469 63 3072 -14 
Q 2675 -91 2278 -91 
Q 1328 -91 801 392 
Q 275 875 275 1747 
Q 275 2603 792 3093 
Q 1309 3584 2216 3584 
Q 3041 3584 3536 3087 
Q 4031 2591 4031 1759 
z
M 2881 2131 
Q 2881 2450 2695 2645 
Q 2509 2841 2209 2841 
Q 1884 2841 1681 2658 
Q 1478 2475 1428 2131 
L 2881 2131 
z
" transform="scale(0.015625)"/>
       <path id="DejaVuSans-Bold-20" transform="scale(0.015625)"/>
       <path id="DejaVuSans-Bold-5b" d="M 550 4863 
L 2491 4863 
L 2491 4159 
L 1613 4159 
L 1613 -141 
L 2491 -141 
L 2491 -844 
L 550 -844 
L 550 4863 
z
" transform="scale(0.015625)"/>
       <path id="DejaVuSans-Bold-68" d="M 4056 2131 
L 4056 0 
L 2931 0 
L 2931 347 
L 2931 1625 
Q 2931 2084 2911 2256 
Q 2891 2428 2841 2509 
Q 2775 2619 2662 2680 
Q 2550 2741 2406 2741 
Q 2056 2741 1856 2470 
Q 1656 2200 1656 1722 
L 1656 0 
L 538 0 
L 538 4863 
L 1656 4863 
L 1656 2988 
Q 1909 3294 2193 3439 
Q 2478 3584 2822 3584 
Q 3428 3584 3742 3212 
Q 4056 2841 4056 2131 
z
" transform="scale(0.015625)"/>
       <path id="DejaVuSans-Bold-72" d="M 3138 2547 
Q 2991 2616 2845 2648 
Q 2700 2681 2553 2681 
Q 2122 2681 1889 2404 
Q 1656 2128 1656 1613 
L 1656 0 
L 538 0 
L 538 3500 
L 1656 3500 
L 1656 2925 
Q 1872 3269 2151 3426 
Q 2431 3584 2822 3584 
Q 2878 3584 2943 3579 
Q 3009 3575 3134 3559 
L 3138 2547 
z
" transform="scale(0.015625)"/>
       <path id="DejaVuSans-Bold-5d" d="M 2375 -844 
L 434 -844 
L 434 -141 
L 1313 -141 
L 1313 4159 
L 434 4159 
L 434 4863 
L 2375 4863 
L 2375 -844 
z
" transform="scale(0.015625)"/>
      </defs>
      <use xlink:href="#DejaVuSans-Bold-74"/>
      <use xlink:href="#DejaVuSans-Bold-69" transform="translate(47.802734 0)"/>
      <use xlink:href="#DejaVuSans-Bold-6d" transform="translate(82.080078 0)"/>
      <use xlink:href="#DejaVuSans-Bold-65" transform="translate(186.279297 0)"/>
      <use xlink:href="#DejaVuSans-Bold-20" transform="translate(254.101562 0)"/>
      <use xlink:href="#DejaVuSans-Bold-5b" transform="translate(288.916016 0)"/>
      <use xlink:href="#DejaVuSans-Bold-68" transform="translate(334.619141 0)"/>
      <use xlink:href="#DejaVuSans-Bold-72" transform="translate(405.810547 0)"/>
      <use xlink:href="#DejaVuSans-Bold-5d" transform="translate(455.126953 0)"/>
     </g>
    </g>
   </g>
   <g id="matplotlib.axis_2">
    <g id="ytick_1">
     <g id="line2d_7">
      <defs>
       <path id="me5bb1fa2ac" d="M 0 0 
L -3.5 0 
" style="stroke: #000000; stroke-width: 0.8"/>
      </defs>
      <g>
       <use xlink:href="#me5bb1fa2ac" x="64.251875" y="292.304275" style="stroke: #000000; stroke-width: 0.8"/>
      </g>
     </g>
     <g id="text_8">
      <!-- 0 -->
      <g transform="translate(47.708125 298.003103) scale(0.15 -0.15)">
       <use xlink:href="#DejaVuSans-30"/>
      </g>
     </g>
    </g>
    <g id="ytick_2">
     <g id="line2d_8">
      <g>
       <use xlink:href="#me5bb1fa2ac" x="64.251875" y="254.57635" style="stroke: #000000; stroke-width: 0.8"/>
      </g>
     </g>
     <g id="text_9">
      <!-- 100 -->
      <g transform="translate(28.620625 260.275178) scale(0.15 -0.15)">
       <use xlink:href="#DejaVuSans-31"/>
       <use xlink:href="#DejaVuSans-30" transform="translate(63.623047 0)"/>
       <use xlink:href="#DejaVuSans-30" transform="translate(127.246094 0)"/>
      </g>
     </g>
    </g>
    <g id="ytick_3">
     <g id="line2d_9">
      <g>
       <use xlink:href="#me5bb1fa2ac" x="64.251875" y="216.848425" style="stroke: #000000; stroke-width: 0.8"/>
      </g>
     </g>
     <g id="text_10">
      <!-- 200 -->
      <g transform="translate(28.620625 222.547253) scale(0.15 -0.15)">
       <use xlink:href="#DejaVuSans-32"/>
       <use xlink:href="#DejaVuSans-30" transform="translate(63.623047 0)"/>
       <use xlink:href="#DejaVuSans-30" transform="translate(127.246094 0)"/>
      </g>
     </g>
    </g>
    <g id="ytick_4">
     <g id="line2d_10">
      <g>
       <use xlink:href="#me5bb1fa2ac" x="64.251875" y="179.120499" style="stroke: #000000; stroke-width: 0.8"/>
      </g>
     </g>
     <g id="text_11">
      <!-- 300 -->
      <g transform="translate(28.620625 184.819327) scale(0.15 -0.15)">
       <defs>
        <path id="DejaVuSans-33" d="M 2597 2516 
Q 3050 2419 3304 2112 
Q 3559 1806 3559 1356 
Q 3559 666 3084 287 
Q 2609 -91 1734 -91 
Q 1441 -91 1130 -33 
Q 819 25 488 141 
L 488 750 
Q 750 597 1062 519 
Q 1375 441 1716 441 
Q 2309 441 2620 675 
Q 2931 909 2931 1356 
Q 2931 1769 2642 2001 
Q 2353 2234 1838 2234 
L 1294 2234 
L 1294 2753 
L 1863 2753 
Q 2328 2753 2575 2939 
Q 2822 3125 2822 3475 
Q 2822 3834 2567 4026 
Q 2313 4219 1838 4219 
Q 1578 4219 1281 4162 
Q 984 4106 628 3988 
L 628 4550 
Q 988 4650 1302 4700 
Q 1616 4750 1894 4750 
Q 2613 4750 3031 4423 
Q 3450 4097 3450 3541 
Q 3450 3153 3228 2886 
Q 3006 2619 2597 2516 
z
" transform="scale(0.015625)"/>
       </defs>
       <use xlink:href="#DejaVuSans-33"/>
       <use xlink:href="#DejaVuSans-30" transform="translate(63.623047 0)"/>
       <use xlink:href="#DejaVuSans-30" transform="translate(127.246094 0)"/>
      </g>
     </g>
    </g>
    <g id="ytick_5">
     <g id="line2d_11">
      <g>
       <use xlink:href="#me5bb1fa2ac" x="64.251875" y="141.392574" style="stroke: #000000; stroke-width: 0.8"/>
      </g>
     </g>
     <g id="text_12">
      <!-- 400 -->
      <g transform="translate(28.620625 147.091402) scale(0.15 -0.15)">
       <defs>
        <path id="DejaVuSans-34" d="M 2419 4116 
L 825 1625 
L 2419 1625 
L 2419 4116 
z
M 2253 4666 
L 3047 4666 
L 3047 1625 
L 3713 1625 
L 3713 1100 
L 3047 1100 
L 3047 0 
L 2419 0 
L 2419 1100 
L 313 1100 
L 313 1709 
L 2253 4666 
z
" transform="scale(0.015625)"/>
       </defs>
       <use xlink:href="#DejaVuSans-34"/>
       <use xlink:href="#DejaVuSans-30" transform="translate(63.623047 0)"/>
       <use xlink:href="#DejaVuSans-30" transform="translate(127.246094 0)"/>
      </g>
     </g>
    </g>
    <g id="ytick_6">
     <g id="line2d_12">
      <g>
       <use xlink:href="#me5bb1fa2ac" x="64.251875" y="103.664649" style="stroke: #000000; stroke-width: 0.8"/>
      </g>
     </g>
     <g id="text_13">
      <!-- 500 -->
      <g transform="translate(28.620625 109.363477) scale(0.15 -0.15)">
       <use xlink:href="#DejaVuSans-35"/>
       <use xlink:href="#DejaVuSans-30" transform="translate(63.623047 0)"/>
       <use xlink:href="#DejaVuSans-30" transform="translate(127.246094 0)"/>
      </g>
     </g>
    </g>
    <g id="ytick_7">
     <g id="line2d_13">
      <g>
       <use xlink:href="#me5bb1fa2ac" x="64.251875" y="65.936724" style="stroke: #000000; stroke-width: 0.8"/>
      </g>
     </g>
     <g id="text_14">
      <!-- 600 -->
      <g transform="translate(28.620625 71.635552) scale(0.15 -0.15)">
       <defs>
        <path id="DejaVuSans-36" d="M 2113 2584 
Q 1688 2584 1439 2293 
Q 1191 2003 1191 1497 
Q 1191 994 1439 701 
Q 1688 409 2113 409 
Q 2538 409 2786 701 
Q 3034 994 3034 1497 
Q 3034 2003 2786 2293 
Q 2538 2584 2113 2584 
z
M 3366 4563 
L 3366 3988 
Q 3128 4100 2886 4159 
Q 2644 4219 2406 4219 
Q 1781 4219 1451 3797 
Q 1122 3375 1075 2522 
Q 1259 2794 1537 2939 
Q 1816 3084 2150 3084 
Q 2853 3084 3261 2657 
Q 3669 2231 3669 1497 
Q 3669 778 3244 343 
Q 2819 -91 2113 -91 
Q 1303 -91 875 529 
Q 447 1150 447 2328 
Q 447 3434 972 4092 
Q 1497 4750 2381 4750 
Q 2619 4750 2861 4703 
Q 3103 4656 3366 4563 
z
" transform="scale(0.015625)"/>
       </defs>
       <use xlink:href="#DejaVuSans-36"/>
       <use xlink:href="#DejaVuSans-30" transform="translate(63.623047 0)"/>
       <use xlink:href="#DejaVuSans-30" transform="translate(127.246094 0)"/>
      </g>
     </g>
    </g>
    <g id="text_15">
     <!-- edoxaban plasma [nM] -->
     <g transform="translate(20.877187 297.59625) rotate(-90) scale(0.18 -0.18)">
      <defs>
       <path id="DejaVuSans-Bold-64" d="M 2919 2988 
L 2919 4863 
L 4044 4863 
L 4044 0 
L 2919 0 
L 2919 506 
Q 2688 197 2409 53 
Q 2131 -91 1766 -91 
Q 1119 -91 703 423 
Q 288 938 288 1747 
Q 288 2556 703 3070 
Q 1119 3584 1766 3584 
Q 2128 3584 2408 3439 
Q 2688 3294 2919 2988 
z
M 2181 722 
Q 2541 722 2730 984 
Q 2919 1247 2919 1747 
Q 2919 2247 2730 2509 
Q 2541 2772 2181 2772 
Q 1825 2772 1636 2509 
Q 1447 2247 1447 1747 
Q 1447 1247 1636 984 
Q 1825 722 2181 722 
z
" transform="scale(0.015625)"/>
       <path id="DejaVuSans-Bold-6f" d="M 2203 2784 
Q 1831 2784 1636 2517 
Q 1441 2250 1441 1747 
Q 1441 1244 1636 976 
Q 1831 709 2203 709 
Q 2569 709 2762 976 
Q 2956 1244 2956 1747 
Q 2956 2250 2762 2517 
Q 2569 2784 2203 2784 
z
M 2203 3584 
Q 3106 3584 3614 3096 
Q 4122 2609 4122 1747 
Q 4122 884 3614 396 
Q 3106 -91 2203 -91 
Q 1297 -91 786 396 
Q 275 884 275 1747 
Q 275 2609 786 3096 
Q 1297 3584 2203 3584 
z
" transform="scale(0.015625)"/>
       <path id="DejaVuSans-Bold-78" d="M 1422 1791 
L 159 3500 
L 1344 3500 
L 2059 2463 
L 2784 3500 
L 3969 3500 
L 2706 1797 
L 4031 0 
L 2847 0 
L 2059 1106 
L 1281 0 
L 97 0 
L 1422 1791 
z
" transform="scale(0.015625)"/>
       <path id="DejaVuSans-Bold-61" d="M 2106 1575 
Q 1756 1575 1579 1456 
Q 1403 1338 1403 1106 
Q 1403 894 1545 773 
Q 1688 653 1941 653 
Q 2256 653 2472 879 
Q 2688 1106 2688 1447 
L 2688 1575 
L 2106 1575 
z
M 3816 1997 
L 3816 0 
L 2688 0 
L 2688 519 
Q 2463 200 2181 54 
Q 1900 -91 1497 -91 
Q 953 -91 614 226 
Q 275 544 275 1050 
Q 275 1666 698 1953 
Q 1122 2241 2028 2241 
L 2688 2241 
L 2688 2328 
Q 2688 2594 2478 2717 
Q 2269 2841 1825 2841 
Q 1466 2841 1156 2769 
Q 847 2697 581 2553 
L 581 3406 
Q 941 3494 1303 3539 
Q 1666 3584 2028 3584 
Q 2975 3584 3395 3211 
Q 3816 2838 3816 1997 
z
" transform="scale(0.015625)"/>
       <path id="DejaVuSans-Bold-62" d="M 2400 722 
Q 2759 722 2948 984 
Q 3138 1247 3138 1747 
Q 3138 2247 2948 2509 
Q 2759 2772 2400 2772 
Q 2041 2772 1848 2508 
Q 1656 2244 1656 1747 
Q 1656 1250 1848 986 
Q 2041 722 2400 722 
z
M 1656 2988 
Q 1888 3294 2169 3439 
Q 2450 3584 2816 3584 
Q 3463 3584 3878 3070 
Q 4294 2556 4294 1747 
Q 4294 938 3878 423 
Q 3463 -91 2816 -91 
Q 2450 -91 2169 54 
Q 1888 200 1656 506 
L 1656 0 
L 538 0 
L 538 4863 
L 1656 4863 
L 1656 2988 
z
" transform="scale(0.015625)"/>
       <path id="DejaVuSans-Bold-6e" d="M 4056 2131 
L 4056 0 
L 2931 0 
L 2931 347 
L 2931 1631 
Q 2931 2084 2911 2256 
Q 2891 2428 2841 2509 
Q 2775 2619 2662 2680 
Q 2550 2741 2406 2741 
Q 2056 2741 1856 2470 
Q 1656 2200 1656 1722 
L 1656 0 
L 538 0 
L 538 3500 
L 1656 3500 
L 1656 2988 
Q 1909 3294 2193 3439 
Q 2478 3584 2822 3584 
Q 3428 3584 3742 3212 
Q 4056 2841 4056 2131 
z
" transform="scale(0.015625)"/>
       <path id="DejaVuSans-Bold-70" d="M 1656 506 
L 1656 -1331 
L 538 -1331 
L 538 3500 
L 1656 3500 
L 1656 2988 
Q 1888 3294 2169 3439 
Q 2450 3584 2816 3584 
Q 3463 3584 3878 3070 
Q 4294 2556 4294 1747 
Q 4294 938 3878 423 
Q 3463 -91 2816 -91 
Q 2450 -91 2169 54 
Q 1888 200 1656 506 
z
M 2400 2772 
Q 2041 2772 1848 2508 
Q 1656 2244 1656 1747 
Q 1656 1250 1848 986 
Q 2041 722 2400 722 
Q 2759 722 2948 984 
Q 3138 1247 3138 1747 
Q 3138 2247 2948 2509 
Q 2759 2772 2400 2772 
z
" transform="scale(0.015625)"/>
       <path id="DejaVuSans-Bold-6c" d="M 538 4863 
L 1656 4863 
L 1656 0 
L 538 0 
L 538 4863 
z
" transform="scale(0.015625)"/>
       <path id="DejaVuSans-Bold-73" d="M 3272 3391 
L 3272 2541 
Q 2913 2691 2578 2766 
Q 2244 2841 1947 2841 
Q 1628 2841 1473 2761 
Q 1319 2681 1319 2516 
Q 1319 2381 1436 2309 
Q 1553 2238 1856 2203 
L 2053 2175 
Q 2913 2066 3209 1816 
Q 3506 1566 3506 1031 
Q 3506 472 3093 190 
Q 2681 -91 1863 -91 
Q 1516 -91 1145 -36 
Q 775 19 384 128 
L 384 978 
Q 719 816 1070 734 
Q 1422 653 1784 653 
Q 2113 653 2278 743 
Q 2444 834 2444 1013 
Q 2444 1163 2330 1236 
Q 2216 1309 1875 1350 
L 1678 1375 
Q 931 1469 631 1722 
Q 331 1975 331 2491 
Q 331 3047 712 3315 
Q 1094 3584 1881 3584 
Q 2191 3584 2531 3537 
Q 2872 3491 3272 3391 
z
" transform="scale(0.015625)"/>
       <path id="DejaVuSans-Bold-4d" d="M 588 4666 
L 2119 4666 
L 3181 2169 
L 4250 4666 
L 5778 4666 
L 5778 0 
L 4641 0 
L 4641 3413 
L 3566 897 
L 2803 897 
L 1728 3413 
L 1728 0 
L 588 0 
L 588 4666 
z
" transform="scale(0.015625)"/>
      </defs>
      <use xlink:href="#DejaVuSans-Bold-65"/>
      <use xlink:href="#DejaVuSans-Bold-64" transform="translate(67.822266 0)"/>
      <use xlink:href="#DejaVuSans-Bold-6f" transform="translate(139.404297 0)"/>
      <use xlink:href="#DejaVuSans-Bold-78" transform="translate(208.105469 0)"/>
      <use xlink:href="#DejaVuSans-Bold-61" transform="translate(272.607422 0)"/>
      <use xlink:href="#DejaVuSans-Bold-62" transform="translate(340.087891 0)"/>
      <use xlink:href="#DejaVuSans-Bold-61" transform="translate(411.669922 0)"/>
      <use xlink:href="#DejaVuSans-Bold-6e" transform="translate(479.150391 0)"/>
      <use xlink:href="#DejaVuSans-Bold-20" transform="translate(550.341797 0)"/>
      <use xlink:href="#DejaVuSans-Bold-70" transform="translate(585.15625 0)"/>
      <use xlink:href="#DejaVuSans-Bold-6c" transform="translate(656.738281 0)"/>
      <use xlink:href="#DejaVuSans-Bold-61" transform="translate(691.015625 0)"/>
      <use xlink:href="#DejaVuSans-Bold-73" transform="translate(758.496094 0)"/>
      <use xlink:href="#DejaVuSans-Bold-6d" transform="translate(818.017578 0)"/>
      <use xlink:href="#DejaVuSans-Bold-61" transform="translate(922.216797 0)"/>
      <use xlink:href="#DejaVuSans-Bold-20" transform="translate(989.697266 0)"/>
      <use xlink:href="#DejaVuSans-Bold-5b" transform="translate(1024.511719 0)"/>
      <use xlink:href="#DejaVuSans-Bold-6e" transform="translate(1070.214844 0)"/>
      <use xlink:href="#DejaVuSans-Bold-4d" transform="translate(1141.40625 0)"/>
      <use xlink:href="#DejaVuSans-Bold-5d" transform="translate(1240.917969 0)"/>
     </g>
    </g>
   </g>
   <g id="LineCollection_1">
    <path clip-path="url(#p02259e5ec4)" style="fill: none; stroke: #000000"/>
    <path clip-path="url(#p02259e5ec4)" style="fill: none; stroke: #000000"/>
    <path clip-path="url(#p02259e5ec4)" style="fill: none; stroke: #000000"/>
    <path d="M 81.604503 166.927271 
L 81.604503 103.003103 
" clip-path="url(#p02259e5ec4)" style="fill: none; stroke: #000000"/>
    <path d="M 82.242467 80.878154 
L 82.242467 58.753206 
" clip-path="url(#p02259e5ec4)" style="fill: none; stroke: #000000"/>
    <path clip-path="url(#p02259e5ec4)" style="fill: none; stroke: #000000"/>
    <path d="M 84.794324 159.575234 
L 84.794324 120.226694 
" clip-path="url(#p02259e5ec4)" style="fill: none; stroke: #000000"/>
    <path clip-path="url(#p02259e5ec4)" style="fill: none; stroke: #000000"/>
    <path d="M 89.898038 227.20984 
L 89.898038 187.875068 
" clip-path="url(#p02259e5ec4)" style="fill: none; stroke: #000000"/>
    <path d="M 95.001753 245.679422 
L 95.001753 216.174901 
" clip-path="url(#p02259e5ec4)" style="fill: none; stroke: #000000"/>
    <path d="M 110.312895 269.071014 
L 110.312895 254.311869 
" clip-path="url(#p02259e5ec4)" style="fill: none; stroke: #000000"/>
    <path clip-path="url(#p02259e5ec4)" style="fill: none; stroke: #000000"/>
    <path clip-path="url(#p02259e5ec4)" style="fill: none; stroke: #000000"/>
    <path clip-path="url(#p02259e5ec4)" style="fill: none; stroke: #000000"/>
    <path clip-path="url(#p02259e5ec4)" style="fill: none; stroke: #000000"/>
    <path d="M 232.802033 279.782408 
L 232.802033 272.389068 
" clip-path="url(#p02259e5ec4)" style="fill: none; stroke: #000000"/>
    <path d="M 263.424318 282.494676 
L 263.424318 272.636889 
" clip-path="url(#p02259e5ec4)" style="fill: none; stroke: #000000"/>
    <path d="M 294.046603 281.489622 
L 294.046603 274.123818 
" clip-path="url(#p02259e5ec4)" style="fill: none; stroke: #000000"/>
    <path d="M 324.668887 281.758095 
L 324.668887 274.364755 
" clip-path="url(#p02259e5ec4)" style="fill: none; stroke: #000000"/>
    <path clip-path="url(#p02259e5ec4)" style="fill: none; stroke: #000000"/>
    <path d="M 325.944816 295.532838 
L 325.944816 231.567367 
" clip-path="url(#p02259e5ec4)" style="fill: none; stroke: #000000"/>
    <path d="M 326.58278 307.8 
L 326.58278 108.661693 
" clip-path="url(#p02259e5ec4)" style="fill: none; stroke: #000000"/>
    <path d="M 327.220744 227.898233 
L 327.220744 80.389395 
" clip-path="url(#p02259e5ec4)" style="fill: none; stroke: #000000"/>
    <path d="M 328.496673 141.849116 
L 328.496673 55.8 
" clip-path="url(#p02259e5ec4)" style="fill: none; stroke: #000000"/>
    <path d="M 329.772601 156.615145 
L 329.772601 77.959368 
" clip-path="url(#p02259e5ec4)" style="fill: none; stroke: #000000"/>
    <path d="M 332.324459 182.471183 
L 332.324459 120.983927 
" clip-path="url(#p02259e5ec4)" style="fill: none; stroke: #000000"/>
    <path d="M 334.876316 216.897714 
L 334.876316 175.098495 
" clip-path="url(#p02259e5ec4)" style="fill: none; stroke: #000000"/>
    <path d="M 339.98003 237.817975 
L 339.98003 205.849007 
" clip-path="url(#p02259e5ec4)" style="fill: none; stroke: #000000"/>
    <path d="M 355.291172 267.370683 
L 355.291172 245.218199 
" clip-path="url(#p02259e5ec4)" style="fill: none; stroke: #000000"/>
    <path d="M 370.602314 289.633311 
L 370.602314 277.297309 
" clip-path="url(#p02259e5ec4)" style="fill: none; stroke: #000000"/>
    <path clip-path="url(#p02259e5ec4)" style="fill: none; stroke: #000000"/>
   </g>
   <g id="line2d_14">
    <path d="M 79.69061 292.304275 
L 79.813099 285.236428 
L 80.793012 154.550636 
L 81.16048 135.521244 
L 81.405458 129.661601 
L 81.650436 127.711007 
L 81.772926 127.873751 
L 82.017904 129.949838 
L 82.385371 136.22077 
L 83.120306 154.620809 
L 85.080132 206.02346 
L 86.060045 225.847344 
L 87.039958 241.438438 
L 88.019872 253.490893 
L 88.999785 262.731906 
L 89.979698 269.789299 
L 90.959611 275.16865 
L 91.939524 279.265066 
L 92.919437 282.383067 
L 93.89935 284.755801 
L 94.879263 286.561199 
L 95.859176 287.934838 
L 96.961579 289.091622 
L 98.063981 289.942161 
L 99.288872 290.625869 
L 100.758742 291.190463 
L 102.596079 291.637153 
L 104.923373 291.955747 
L 108.230579 292.165745 
L 113.987569 292.276475 
L 132.115961 292.304098 
L 140.935179 292.30426 
L 140.935179 292.30426 
L 140.996424 290.644022 
L 141.180158 267.846455 
L 141.853848 170.15307 
L 142.28256 140.309634 
L 142.588783 130.714511 
L 142.833761 127.892177 
L 142.95625 127.709364 
L 143.078739 128.191492 
L 143.323718 130.769541 
L 143.691185 137.529008 
L 144.42612 156.313674 
L 146.324702 206.02346 
L 147.365859 226.939562 
L 148.345772 242.28755 
L 149.325685 254.1437 
L 150.244354 262.731906 
L 151.163023 269.402025 
L 152.081691 274.57354 
L 153.00036 278.579615 
L 153.919028 281.681487 
L 154.898941 284.221944 
L 155.878854 286.155002 
L 156.858767 287.625787 
L 157.899925 288.80511 
L 159.002327 289.7315 
L 160.227219 290.476183 
L 161.635844 291.070224 
L 163.350692 291.539441 
L 165.494252 291.883684 
L 168.495236 292.122192 
L 171.557464 292.226783 
L 171.557464 292.226783 
L 171.618709 290.568181 
L 171.802442 267.778863 
L 172.476133 170.116915 
L 172.904845 140.286055 
L 173.211067 130.697158 
L 173.456046 127.878601 
L 173.578535 127.697357 
L 173.701024 128.180872 
L 173.946002 130.761233 
L 174.31347 137.52326 
L 175.048405 156.310922 
L 176.946986 206.02305 
L 177.988144 226.939418 
L 178.968057 242.287496 
L 179.94797 254.14368 
L 180.866639 262.731898 
L 181.785307 269.402022 
L 182.703976 274.573539 
L 183.622644 278.579615 
L 184.541313 281.681487 
L 185.521226 284.221944 
L 186.501139 286.155002 
L 187.481052 287.625787 
L 188.52221 288.80511 
L 189.624612 289.7315 
L 190.849503 290.476183 
L 192.258129 291.070224 
L 193.972976 291.539441 
L 196.116536 291.883684 
L 199.11752 292.122192 
L 202.179749 292.226783 
L 202.179749 292.226783 
L 202.240993 290.568181 
L 202.424727 267.778863 
L 203.098417 170.116915 
L 203.527129 140.286055 
L 203.833352 130.697158 
L 204.07833 127.878601 
L 204.20082 127.697357 
L 204.323309 128.180872 
L 204.568287 130.761233 
L 204.935754 137.52326 
L 205.670689 156.310922 
L 207.569271 206.02305 
L 208.610429 226.939418 
L 209.590342 242.287496 
L 210.570255 254.14368 
L 211.488923 262.731898 
L 212.407592 269.402022 
L 213.32626 274.573539 
L 214.244929 278.579615 
L 215.163597 281.681487 
L 216.143511 284.221944 
L 217.123424 286.155002 
L 218.103337 287.625787 
L 219.144494 288.80511 
L 220.246897 289.7315 
L 221.471788 290.476183 
L 222.880413 291.070224 
L 224.595261 291.539441 
L 226.738821 291.883684 
L 229.739805 292.122192 
L 232.802033 292.226783 
L 232.802033 292.226783 
L 232.863278 290.568181 
L 233.047012 267.778863 
L 233.720702 170.116915 
L 234.149414 140.286055 
L 234.455637 130.697158 
L 234.700615 127.878601 
L 234.823104 127.697357 
L 234.945593 128.180872 
L 235.190572 130.761233 
L 235.558039 137.52326 
L 236.292974 156.310922 
L 238.191556 206.02305 
L 239.232713 226.939418 
L 240.212626 242.287496 
L 241.192539 254.14368 
L 242.111208 262.731898 
L 243.029877 269.402022 
L 243.948545 274.573539 
L 244.867214 278.579615 
L 245.785882 281.681487 
L 246.765795 284.221944 
L 247.745708 286.155002 
L 248.725621 287.625787 
L 249.766779 288.80511 
L 250.869181 289.7315 
L 252.094073 290.476183 
L 253.502698 291.070224 
L 255.217546 291.539441 
L 257.361106 291.883684 
L 260.36209 292.122192 
L 263.424318 292.226783 
L 263.424318 292.226783 
L 263.485563 290.568181 
L 263.669296 267.778863 
L 264.342987 170.116915 
L 264.771699 140.286055 
L 265.077921 130.697158 
L 265.3229 127.878601 
L 265.445389 127.697357 
L 265.567878 128.180872 
L 265.812856 130.761233 
L 266.180324 137.52326 
L 266.915259 156.310922 
L 268.81384 206.02305 
L 269.854998 226.939418 
L 270.834911 242.287496 
L 271.814824 254.14368 
L 272.733493 262.731898 
L 273.652161 269.402022 
L 274.57083 274.573539 
L 275.489498 278.579615 
L 276.408167 281.681487 
L 277.38808 284.221944 
L 278.367993 286.155002 
L 279.347906 287.625787 
L 280.389064 288.80511 
L 281.491466 289.7315 
L 282.716357 290.476183 
L 284.124983 291.070224 
L 285.83983 291.539441 
L 287.98339 291.883684 
L 290.984374 292.122192 
L 294.046603 292.226783 
L 294.046603 292.226783 
L 294.107847 290.568181 
L 294.291581 267.778863 
L 294.965271 170.116915 
L 295.393983 140.286055 
L 295.700206 130.697158 
L 295.945184 127.878601 
L 296.067674 127.697357 
L 296.190163 128.180872 
L 296.435141 130.761233 
L 296.802608 137.52326 
L 297.537543 156.310922 
L 299.436125 206.02305 
L 300.477283 226.939418 
L 301.457196 242.287496 
L 302.437109 254.14368 
L 303.355777 262.731898 
L 304.274446 269.402022 
L 305.193114 274.573539 
L 306.111783 278.579615 
L 307.030451 281.681487 
L 308.010365 284.221944 
L 308.990278 286.155002 
L 309.970191 287.625787 
L 311.011348 288.80511 
L 312.113751 289.7315 
L 313.338642 290.476183 
L 314.747267 291.070224 
L 316.462115 291.539441 
L 318.605675 291.883684 
L 321.606659 292.122192 
L 324.668887 292.226783 
L 324.668887 292.226783 
L 324.79648 284.581487 
L 325.817223 151.322181 
L 326.200002 133.604544 
L 326.455187 128.723843 
L 326.58278 127.815912 
L 326.710373 127.73459 
L 326.837966 128.355946 
L 327.093152 131.286909 
L 327.603523 141.647075 
L 328.751859 172.846029 
L 330.027787 205.330368 
L 331.04853 226.030381 
L 332.069273 242.146929 
L 332.962423 253.105022 
L 333.855573 261.707877 
L 334.748723 268.438527 
L 335.641873 273.695011 
L 336.535023 277.796377 
L 337.428173 280.994904 
L 338.448915 283.796925 
L 339.469658 285.904916 
L 340.490401 287.490651 
L 341.511144 288.683474 
L 342.65948 289.675962 
L 343.935408 290.463122 
L 345.33893 291.059636 
L 346.997637 291.520702 
L 349.166715 291.876437 
L 352.101351 292.115594 
L 356.949879 292.255489 
L 368.688422 292.30243 
L 388.465314 292.304268 
L 388.465314 292.304268 
" clip-path="url(#p02259e5ec4)" style="fill: none; stroke: #000000; stroke-width: 2; stroke-linecap: square"/>
   </g>
   <g id="line2d_15">
    <path d="M 79.69061 292.304275 
L 80.328574 265.257317 
L 80.966539 177.989745 
L 81.604503 134.965187 
L 82.242467 69.81568 
L 83.518396 114.086229 
L 84.794324 139.900964 
L 87.346181 170.65836 
L 89.898038 207.542454 
L 95.001753 230.927161 
L 110.312895 261.691442 
L 125.624037 283.947185 
L 140.935179 288.979337 
L 171.557464 289.096364 
L 202.179749 281.985265 
L 232.802033 276.085738 
L 263.424318 277.565783 
L 294.046603 277.80672 
L 324.668887 278.061425 
L 325.306852 279.520818 
L 325.944816 263.550102 
L 326.58278 208.230847 
L 327.220744 154.143814 
L 328.496673 98.824558 
L 329.772601 117.287257 
L 332.324459 151.727555 
L 334.876316 195.998104 
L 339.98003 221.833491 
L 355.291172 256.294441 
L 370.602314 283.46531 
L 385.913457 290.968793 
" clip-path="url(#p02259e5ec4)" style="fill: none; stroke-dasharray: 3.7,1.6; stroke-dashoffset: 0; stroke: #000000"/>
    <defs>
     <path id="ma33df13710" d="M -3 3 
L 3 3 
L 3 -3 
L -3 -3 
z
" style="stroke: #000000; stroke-linejoin: miter"/>
    </defs>
    <g clip-path="url(#p02259e5ec4)">
     <use xlink:href="#ma33df13710" x="79.69061" y="292.304275" style="stroke: #000000; stroke-linejoin: miter"/>
     <use xlink:href="#ma33df13710" x="80.328574" y="265.257317" style="stroke: #000000; stroke-linejoin: miter"/>
     <use xlink:href="#ma33df13710" x="80.966539" y="177.989745" style="stroke: #000000; stroke-linejoin: miter"/>
     <use xlink:href="#ma33df13710" x="81.604503" y="134.965187" style="stroke: #000000; stroke-linejoin: miter"/>
     <use xlink:href="#ma33df13710" x="82.242467" y="69.81568" style="stroke: #000000; stroke-linejoin: miter"/>
     <use xlink:href="#ma33df13710" x="83.518396" y="114.086229" style="stroke: #000000; stroke-linejoin: miter"/>
     <use xlink:href="#ma33df13710" x="84.794324" y="139.900964" style="stroke: #000000; stroke-linejoin: miter"/>
     <use xlink:href="#ma33df13710" x="87.346181" y="170.65836" style="stroke: #000000; stroke-linejoin: miter"/>
     <use xlink:href="#ma33df13710" x="89.898038" y="207.542454" style="stroke: #000000; stroke-linejoin: miter"/>
     <use xlink:href="#ma33df13710" x="95.001753" y="230.927161" style="stroke: #000000; stroke-linejoin: miter"/>
     <use xlink:href="#ma33df13710" x="110.312895" y="261.691442" style="stroke: #000000; stroke-linejoin: miter"/>
     <use xlink:href="#ma33df13710" x="125.624037" y="283.947185" style="stroke: #000000; stroke-linejoin: miter"/>
     <use xlink:href="#ma33df13710" x="140.935179" y="288.979337" style="stroke: #000000; stroke-linejoin: miter"/>
     <use xlink:href="#ma33df13710" x="171.557464" y="289.096364" style="stroke: #000000; stroke-linejoin: miter"/>
     <use xlink:href="#ma33df13710" x="202.179749" y="281.985265" style="stroke: #000000; stroke-linejoin: miter"/>
     <use xlink:href="#ma33df13710" x="232.802033" y="276.085738" style="stroke: #000000; stroke-linejoin: miter"/>
     <use xlink:href="#ma33df13710" x="263.424318" y="277.565783" style="stroke: #000000; stroke-linejoin: miter"/>
     <use xlink:href="#ma33df13710" x="294.046603" y="277.80672" style="stroke: #000000; stroke-linejoin: miter"/>
     <use xlink:href="#ma33df13710" x="324.668887" y="278.061425" style="stroke: #000000; stroke-linejoin: miter"/>
     <use xlink:href="#ma33df13710" x="325.306852" y="279.520818" style="stroke: #000000; stroke-linejoin: miter"/>
     <use xlink:href="#ma33df13710" x="325.944816" y="263.550102" style="stroke: #000000; stroke-linejoin: miter"/>
     <use xlink:href="#ma33df13710" x="326.58278" y="208.230847" style="stroke: #000000; stroke-linejoin: miter"/>
     <use xlink:href="#ma33df13710" x="327.220744" y="154.143814" style="stroke: #000000; stroke-linejoin: miter"/>
     <use xlink:href="#ma33df13710" x="328.496673" y="98.824558" style="stroke: #000000; stroke-linejoin: miter"/>
     <use xlink:href="#ma33df13710" x="329.772601" y="117.287257" style="stroke: #000000; stroke-linejoin: miter"/>
     <use xlink:href="#ma33df13710" x="332.324459" y="151.727555" style="stroke: #000000; stroke-linejoin: miter"/>
     <use xlink:href="#ma33df13710" x="334.876316" y="195.998104" style="stroke: #000000; stroke-linejoin: miter"/>
     <use xlink:href="#ma33df13710" x="339.98003" y="221.833491" style="stroke: #000000; stroke-linejoin: miter"/>
     <use xlink:href="#ma33df13710" x="355.291172" y="256.294441" style="stroke: #000000; stroke-linejoin: miter"/>
     <use xlink:href="#ma33df13710" x="370.602314" y="283.46531" style="stroke: #000000; stroke-linejoin: miter"/>
     <use xlink:href="#ma33df13710" x="385.913457" y="290.968793" style="stroke: #000000; stroke-linejoin: miter"/>
    </g>
   </g>
   <g id="patch_3">
    <path d="M 64.251875 320.4 
L 64.251875 43.2 
" style="fill: none; stroke: #000000; stroke-width: 0.8; stroke-linejoin: miter; stroke-linecap: square"/>
   </g>
   <g id="patch_4">
    <path d="M 403.904049 320.4 
L 403.904049 43.2 
" style="fill: none; stroke: #000000; stroke-width: 0.8; stroke-linejoin: miter; stroke-linecap: square"/>
   </g>
   <g id="patch_5">
    <path d="M 64.251875 320.4 
L 403.904049 320.4 
" style="fill: none; stroke: #000000; stroke-width: 0.8; stroke-linejoin: miter; stroke-linecap: square"/>
   </g>
   <g id="patch_6">
    <path d="M 64.251875 43.2 
L 403.904049 43.2 
" style="fill: none; stroke: #000000; stroke-width: 0.8; stroke-linejoin: miter; stroke-linecap: square"/>
   </g>
   <g id="legend_1">
    <g id="patch_7">
     <path d="M 267.568111 80.55625 
L 396.904049 80.55625 
Q 398.904049 80.55625 398.904049 78.55625 
L 398.904049 50.2 
Q 398.904049 48.2 396.904049 48.2 
L 267.568111 48.2 
Q 265.568111 48.2 265.568111 50.2 
L 265.568111 78.55625 
Q 265.568111 80.55625 267.568111 80.55625 
z
" style="fill: #ffffff; opacity: 0.8; stroke: #cccccc; stroke-linejoin: miter"/>
    </g>
    <g id="line2d_16">
     <path d="M 269.568111 56.298437 
L 289.568111 56.298437 
" style="fill: none; stroke: #000000; stroke-width: 2; stroke-linecap: square"/>
    </g>
    <g id="line2d_17"/>
    <g id="text_16">
     <!-- mED60 -->
     <g transform="translate(297.568111 59.798437) scale(0.1 -0.1)">
      <defs>
       <path id="DejaVuSans-6d" d="M 3328 2828 
Q 3544 3216 3844 3400 
Q 4144 3584 4550 3584 
Q 5097 3584 5394 3201 
Q 5691 2819 5691 2113 
L 5691 0 
L 5113 0 
L 5113 2094 
Q 5113 2597 4934 2840 
Q 4756 3084 4391 3084 
Q 3944 3084 3684 2787 
Q 3425 2491 3425 1978 
L 3425 0 
L 2847 0 
L 2847 2094 
Q 2847 2600 2669 2842 
Q 2491 3084 2119 3084 
Q 1678 3084 1418 2786 
Q 1159 2488 1159 1978 
L 1159 0 
L 581 0 
L 581 3500 
L 1159 3500 
L 1159 2956 
Q 1356 3278 1631 3431 
Q 1906 3584 2284 3584 
Q 2666 3584 2933 3390 
Q 3200 3197 3328 2828 
z
" transform="scale(0.015625)"/>
       <path id="DejaVuSans-45" d="M 628 4666 
L 3578 4666 
L 3578 4134 
L 1259 4134 
L 1259 2753 
L 3481 2753 
L 3481 2222 
L 1259 2222 
L 1259 531 
L 3634 531 
L 3634 0 
L 628 0 
L 628 4666 
z
" transform="scale(0.015625)"/>
       <path id="DejaVuSans-44" d="M 1259 4147 
L 1259 519 
L 2022 519 
Q 2988 519 3436 956 
Q 3884 1394 3884 2338 
Q 3884 3275 3436 3711 
Q 2988 4147 2022 4147 
L 1259 4147 
z
M 628 4666 
L 1925 4666 
Q 3281 4666 3915 4102 
Q 4550 3538 4550 2338 
Q 4550 1131 3912 565 
Q 3275 0 1925 0 
L 628 0 
L 628 4666 
z
" transform="scale(0.015625)"/>
      </defs>
      <use xlink:href="#DejaVuSans-6d"/>
      <use xlink:href="#DejaVuSans-45" transform="translate(97.412109 0)"/>
      <use xlink:href="#DejaVuSans-44" transform="translate(160.595703 0)"/>
      <use xlink:href="#DejaVuSans-36" transform="translate(237.597656 0)"/>
      <use xlink:href="#DejaVuSans-30" transform="translate(301.220703 0)"/>
     </g>
    </g>
    <g id="LineCollection_2">
     <path d="M 279.568111 75.976562 
L 279.568111 65.976562 
" style="fill: none; stroke: #000000"/>
    </g>
    <g id="line2d_18">
     <path d="M 269.568111 70.976562 
L 289.568111 70.976562 
" style="fill: none; stroke-dasharray: 3.7,1.6; stroke-dashoffset: 0; stroke: #000000"/>
    </g>
    <g id="line2d_19">
     <g>
      <use xlink:href="#ma33df13710" x="279.568111" y="70.976562" style="stroke: #000000; stroke-linejoin: miter"/>
     </g>
    </g>
    <g id="text_17">
     <!-- mED60±SD (n=12) -->
     <g transform="translate(297.568111 74.476562) scale(0.1 -0.1)">
      <defs>
       <path id="DejaVuSans-b1" d="M 2944 4013 
L 2944 2803 
L 4684 2803 
L 4684 2272 
L 2944 2272 
L 2944 1063 
L 2419 1063 
L 2419 2272 
L 678 2272 
L 678 2803 
L 2419 2803 
L 2419 4013 
L 2944 4013 
z
M 678 531 
L 4684 531 
L 4684 0 
L 678 0 
L 678 531 
z
" transform="scale(0.015625)"/>
       <path id="DejaVuSans-53" d="M 3425 4513 
L 3425 3897 
Q 3066 4069 2747 4153 
Q 2428 4238 2131 4238 
Q 1616 4238 1336 4038 
Q 1056 3838 1056 3469 
Q 1056 3159 1242 3001 
Q 1428 2844 1947 2747 
L 2328 2669 
Q 3034 2534 3370 2195 
Q 3706 1856 3706 1288 
Q 3706 609 3251 259 
Q 2797 -91 1919 -91 
Q 1588 -91 1214 -16 
Q 841 59 441 206 
L 441 856 
Q 825 641 1194 531 
Q 1563 422 1919 422 
Q 2459 422 2753 634 
Q 3047 847 3047 1241 
Q 3047 1584 2836 1778 
Q 2625 1972 2144 2069 
L 1759 2144 
Q 1053 2284 737 2584 
Q 422 2884 422 3419 
Q 422 4038 858 4394 
Q 1294 4750 2059 4750 
Q 2388 4750 2728 4690 
Q 3069 4631 3425 4513 
z
" transform="scale(0.015625)"/>
       <path id="DejaVuSans-20" transform="scale(0.015625)"/>
       <path id="DejaVuSans-28" d="M 1984 4856 
Q 1566 4138 1362 3434 
Q 1159 2731 1159 2009 
Q 1159 1288 1364 580 
Q 1569 -128 1984 -844 
L 1484 -844 
Q 1016 -109 783 600 
Q 550 1309 550 2009 
Q 550 2706 781 3412 
Q 1013 4119 1484 4856 
L 1984 4856 
z
" transform="scale(0.015625)"/>
       <path id="DejaVuSans-6e" d="M 3513 2113 
L 3513 0 
L 2938 0 
L 2938 2094 
Q 2938 2591 2744 2837 
Q 2550 3084 2163 3084 
Q 1697 3084 1428 2787 
Q 1159 2491 1159 1978 
L 1159 0 
L 581 0 
L 581 3500 
L 1159 3500 
L 1159 2956 
Q 1366 3272 1645 3428 
Q 1925 3584 2291 3584 
Q 2894 3584 3203 3211 
Q 3513 2838 3513 2113 
z
" transform="scale(0.015625)"/>
       <path id="DejaVuSans-3d" d="M 678 2906 
L 4684 2906 
L 4684 2381 
L 678 2381 
L 678 2906 
z
M 678 1631 
L 4684 1631 
L 4684 1100 
L 678 1100 
L 678 1631 
z
" transform="scale(0.015625)"/>
       <path id="DejaVuSans-29" d="M 513 4856 
L 1013 4856 
Q 1481 4119 1714 3412 
Q 1947 2706 1947 2009 
Q 1947 1309 1714 600 
Q 1481 -109 1013 -844 
L 513 -844 
Q 928 -128 1133 580 
Q 1338 1288 1338 2009 
Q 1338 2731 1133 3434 
Q 928 4138 513 4856 
z
" transform="scale(0.015625)"/>
      </defs>
      <use xlink:href="#DejaVuSans-6d"/>
      <use xlink:href="#DejaVuSans-45" transform="translate(97.412109 0)"/>
      <use xlink:href="#DejaVuSans-44" transform="translate(160.595703 0)"/>
      <use xlink:href="#DejaVuSans-36" transform="translate(237.597656 0)"/>
      <use xlink:href="#DejaVuSans-30" transform="translate(301.220703 0)"/>
      <use xlink:href="#DejaVuSans-b1" transform="translate(364.84375 0)"/>
      <use xlink:href="#DejaVuSans-53" transform="translate(448.632812 0)"/>
      <use xlink:href="#DejaVuSans-44" transform="translate(512.109375 0)"/>
      <use xlink:href="#DejaVuSans-20" transform="translate(589.111328 0)"/>
      <use xlink:href="#DejaVuSans-28" transform="translate(620.898438 0)"/>
      <use xlink:href="#DejaVuSans-6e" transform="translate(659.912109 0)"/>
      <use xlink:href="#DejaVuSans-3d" transform="translate(723.291016 0)"/>
      <use xlink:href="#DejaVuSans-31" transform="translate(807.080078 0)"/>
      <use xlink:href="#DejaVuSans-32" transform="translate(870.703125 0)"/>
      <use xlink:href="#DejaVuSans-29" transform="translate(934.326172 0)"/>
     </g>
    </g>
   </g>
  </g>
  <g id="axes_2">
   <g id="patch_8">
    <path d="M 505.799701 320.4 
L 845.451875 320.4 
L 845.451875 43.2 
L 505.799701 43.2 
z
" style="fill: #ffffff"/>
   </g>
   <g id="matplotlib.axis_3">
    <g id="xtick_7">
     <g id="line2d_20">
      <g>
       <use xlink:href="#mf1ae0ece2c" x="521.238436" y="320.4" style="stroke: #000000; stroke-width: 0.8"/>
      </g>
     </g>
     <g id="text_18">
      <!-- 0 -->
      <g transform="translate(516.466561 338.797656) scale(0.15 -0.15)">
       <use xlink:href="#DejaVuSans-30"/>
      </g>
     </g>
    </g>
    <g id="xtick_8">
     <g id="line2d_21">
      <g>
       <use xlink:href="#mf1ae0ece2c" x="585.034863" y="320.4" style="stroke: #000000; stroke-width: 0.8"/>
      </g>
     </g>
     <g id="text_19">
      <!-- 50 -->
      <g transform="translate(575.491113 338.797656) scale(0.15 -0.15)">
       <use xlink:href="#DejaVuSans-35"/>
       <use xlink:href="#DejaVuSans-30" transform="translate(63.623047 0)"/>
      </g>
     </g>
    </g>
    <g id="xtick_9">
     <g id="line2d_22">
      <g>
       <use xlink:href="#mf1ae0ece2c" x="648.831289" y="320.4" style="stroke: #000000; stroke-width: 0.8"/>
      </g>
     </g>
     <g id="text_20">
      <!-- 100 -->
      <g transform="translate(634.515664 338.797656) scale(0.15 -0.15)">
       <use xlink:href="#DejaVuSans-31"/>
       <use xlink:href="#DejaVuSans-30" transform="translate(63.623047 0)"/>
       <use xlink:href="#DejaVuSans-30" transform="translate(127.246094 0)"/>
      </g>
     </g>
    </g>
    <g id="xtick_10">
     <g id="line2d_23">
      <g>
       <use xlink:href="#mf1ae0ece2c" x="712.627715" y="320.4" style="stroke: #000000; stroke-width: 0.8"/>
      </g>
     </g>
     <g id="text_21">
      <!-- 150 -->
      <g transform="translate(698.31209 338.797656) scale(0.15 -0.15)">
       <use xlink:href="#DejaVuSans-31"/>
       <use xlink:href="#DejaVuSans-35" transform="translate(63.623047 0)"/>
       <use xlink:href="#DejaVuSans-30" transform="translate(127.246094 0)"/>
      </g>
     </g>
    </g>
    <g id="xtick_11">
     <g id="line2d_24">
      <g>
       <use xlink:href="#mf1ae0ece2c" x="776.424142" y="320.4" style="stroke: #000000; stroke-width: 0.8"/>
      </g>
     </g>
     <g id="text_22">
      <!-- 200 -->
      <g transform="translate(762.108517 338.797656) scale(0.15 -0.15)">
       <use xlink:href="#DejaVuSans-32"/>
       <use xlink:href="#DejaVuSans-30" transform="translate(63.623047 0)"/>
       <use xlink:href="#DejaVuSans-30" transform="translate(127.246094 0)"/>
      </g>
     </g>
    </g>
    <g id="xtick_12">
     <g id="line2d_25">
      <g>
       <use xlink:href="#mf1ae0ece2c" x="840.220568" y="320.4" style="stroke: #000000; stroke-width: 0.8"/>
      </g>
     </g>
     <g id="text_23">
      <!-- 250 -->
      <g transform="translate(825.904943 338.797656) scale(0.15 -0.15)">
       <use xlink:href="#DejaVuSans-32"/>
       <use xlink:href="#DejaVuSans-35" transform="translate(63.623047 0)"/>
       <use xlink:href="#DejaVuSans-30" transform="translate(127.246094 0)"/>
      </g>
     </g>
    </g>
    <g id="text_24">
     <!-- time [hr] -->
     <g transform="translate(630.551257 359.594375) scale(0.18 -0.18)">
      <use xlink:href="#DejaVuSans-Bold-74"/>
      <use xlink:href="#DejaVuSans-Bold-69" transform="translate(47.802734 0)"/>
      <use xlink:href="#DejaVuSans-Bold-6d" transform="translate(82.080078 0)"/>
      <use xlink:href="#DejaVuSans-Bold-65" transform="translate(186.279297 0)"/>
      <use xlink:href="#DejaVuSans-Bold-20" transform="translate(254.101562 0)"/>
      <use xlink:href="#DejaVuSans-Bold-5b" transform="translate(288.916016 0)"/>
      <use xlink:href="#DejaVuSans-Bold-68" transform="translate(334.619141 0)"/>
      <use xlink:href="#DejaVuSans-Bold-72" transform="translate(405.810547 0)"/>
      <use xlink:href="#DejaVuSans-Bold-5d" transform="translate(455.126953 0)"/>
     </g>
    </g>
   </g>
   <g id="matplotlib.axis_4">
    <g id="ytick_8">
     <g id="line2d_26">
      <g>
       <use xlink:href="#me5bb1fa2ac" x="505.799701" y="284.680734" style="stroke: #000000; stroke-width: 0.8"/>
      </g>
     </g>
     <g id="text_25">
      <!-- 0 -->
      <g transform="translate(489.255951 290.379562) scale(0.15 -0.15)">
       <use xlink:href="#DejaVuSans-30"/>
      </g>
     </g>
    </g>
    <g id="ytick_9">
     <g id="line2d_27">
      <g>
       <use xlink:href="#me5bb1fa2ac" x="505.799701" y="247.039679" style="stroke: #000000; stroke-width: 0.8"/>
      </g>
     </g>
     <g id="text_26">
      <!-- 10 -->
      <g transform="translate(479.712201 252.738507) scale(0.15 -0.15)">
       <use xlink:href="#DejaVuSans-31"/>
       <use xlink:href="#DejaVuSans-30" transform="translate(63.623047 0)"/>
      </g>
     </g>
    </g>
    <g id="ytick_10">
     <g id="line2d_28">
      <g>
       <use xlink:href="#me5bb1fa2ac" x="505.799701" y="209.398624" style="stroke: #000000; stroke-width: 0.8"/>
      </g>
     </g>
     <g id="text_27">
      <!-- 20 -->
      <g transform="translate(479.712201 215.097452) scale(0.15 -0.15)">
       <use xlink:href="#DejaVuSans-32"/>
       <use xlink:href="#DejaVuSans-30" transform="translate(63.623047 0)"/>
      </g>
     </g>
    </g>
    <g id="ytick_11">
     <g id="line2d_29">
      <g>
       <use xlink:href="#me5bb1fa2ac" x="505.799701" y="171.757569" style="stroke: #000000; stroke-width: 0.8"/>
      </g>
     </g>
     <g id="text_28">
      <!-- 30 -->
      <g transform="translate(479.712201 177.456397) scale(0.15 -0.15)">
       <use xlink:href="#DejaVuSans-33"/>
       <use xlink:href="#DejaVuSans-30" transform="translate(63.623047 0)"/>
      </g>
     </g>
    </g>
    <g id="ytick_12">
     <g id="line2d_30">
      <g>
       <use xlink:href="#me5bb1fa2ac" x="505.799701" y="134.116514" style="stroke: #000000; stroke-width: 0.8"/>
      </g>
     </g>
     <g id="text_29">
      <!-- 40 -->
      <g transform="translate(479.712201 139.815342) scale(0.15 -0.15)">
       <use xlink:href="#DejaVuSans-34"/>
       <use xlink:href="#DejaVuSans-30" transform="translate(63.623047 0)"/>
      </g>
     </g>
    </g>
    <g id="ytick_13">
     <g id="line2d_31">
      <g>
       <use xlink:href="#me5bb1fa2ac" x="505.799701" y="96.475459" style="stroke: #000000; stroke-width: 0.8"/>
      </g>
     </g>
     <g id="text_30">
      <!-- 50 -->
      <g transform="translate(479.712201 102.174287) scale(0.15 -0.15)">
       <use xlink:href="#DejaVuSans-35"/>
       <use xlink:href="#DejaVuSans-30" transform="translate(63.623047 0)"/>
      </g>
     </g>
    </g>
    <g id="ytick_14">
     <g id="line2d_32">
      <g>
       <use xlink:href="#me5bb1fa2ac" x="505.799701" y="58.834404" style="stroke: #000000; stroke-width: 0.8"/>
      </g>
     </g>
     <g id="text_31">
      <!-- 60 -->
      <g transform="translate(479.712201 64.533232) scale(0.15 -0.15)">
       <use xlink:href="#DejaVuSans-36"/>
       <use xlink:href="#DejaVuSans-30" transform="translate(63.623047 0)"/>
      </g>
     </g>
    </g>
    <g id="text_32">
     <!-- M4 plasma [nM] -->
     <g transform="translate(471.968764 263.28375) rotate(-90) scale(0.18 -0.18)">
      <defs>
       <path id="DejaVuSans-Bold-34" d="M 2356 3675 
L 1038 1722 
L 2356 1722 
L 2356 3675 
z
M 2156 4666 
L 3494 4666 
L 3494 1722 
L 4159 1722 
L 4159 850 
L 3494 850 
L 3494 0 
L 2356 0 
L 2356 850 
L 288 850 
L 288 1881 
L 2156 4666 
z
" transform="scale(0.015625)"/>
      </defs>
      <use xlink:href="#DejaVuSans-Bold-4d"/>
      <use xlink:href="#DejaVuSans-Bold-34" transform="translate(99.511719 0)"/>
      <use xlink:href="#DejaVuSans-Bold-20" transform="translate(169.091797 0)"/>
      <use xlink:href="#DejaVuSans-Bold-70" transform="translate(203.90625 0)"/>
      <use xlink:href="#DejaVuSans-Bold-6c" transform="translate(275.488281 0)"/>
      <use xlink:href="#DejaVuSans-Bold-61" transform="translate(309.765625 0)"/>
      <use xlink:href="#DejaVuSans-Bold-73" transform="translate(377.246094 0)"/>
      <use xlink:href="#DejaVuSans-Bold-6d" transform="translate(436.767578 0)"/>
      <use xlink:href="#DejaVuSans-Bold-61" transform="translate(540.966797 0)"/>
      <use xlink:href="#DejaVuSans-Bold-20" transform="translate(608.447266 0)"/>
      <use xlink:href="#DejaVuSans-Bold-5b" transform="translate(643.261719 0)"/>
      <use xlink:href="#DejaVuSans-Bold-6e" transform="translate(688.964844 0)"/>
      <use xlink:href="#DejaVuSans-Bold-4d" transform="translate(760.15625 0)"/>
      <use xlink:href="#DejaVuSans-Bold-5d" transform="translate(859.667969 0)"/>
     </g>
    </g>
   </g>
   <g id="LineCollection_3">
    <path clip-path="url(#pebd498a00a)" style="fill: none; stroke: #000000"/>
    <path clip-path="url(#pebd498a00a)" style="fill: none; stroke: #000000"/>
    <path clip-path="url(#pebd498a00a)" style="fill: none; stroke: #000000"/>
    <path clip-path="url(#pebd498a00a)" style="fill: none; stroke: #000000"/>
    <path d="M 523.790293 193.504128 
L 523.790293 144.664679 
" clip-path="url(#pebd498a00a)" style="fill: none; stroke: #000000"/>
    <path d="M 525.066222 187.14633 
L 525.066222 86.866514 
" clip-path="url(#pebd498a00a)" style="fill: none; stroke: #000000"/>
    <path d="M 526.34215 193.431881 
L 526.34215 75.379128 
" clip-path="url(#pebd498a00a)" style="fill: none; stroke: #000000"/>
    <path d="M 528.894007 210.193349 
L 528.894007 127.975459 
" clip-path="url(#pebd498a00a)" style="fill: none; stroke: #000000"/>
    <path d="M 531.445864 232.084404 
L 531.445864 170.384862 
" clip-path="url(#pebd498a00a)" style="fill: none; stroke: #000000"/>
    <path d="M 536.549579 241.043119 
L 536.549579 210.265596 
" clip-path="url(#pebd498a00a)" style="fill: none; stroke: #000000"/>
    <path d="M 551.860721 260.405505 
L 551.860721 242.343578 
" clip-path="url(#pebd498a00a)" style="fill: none; stroke: #000000"/>
    <path d="M 567.171863 275.866514 
L 567.171863 270.664679 
" clip-path="url(#pebd498a00a)" style="fill: none; stroke: #000000"/>
    <path d="M 582.483006 293.63945 
L 582.483006 270.95367 
" clip-path="url(#pebd498a00a)" style="fill: none; stroke: #000000"/>
    <path clip-path="url(#pebd498a00a)" style="fill: none; stroke: #000000"/>
    <path clip-path="url(#pebd498a00a)" style="fill: none; stroke: #000000"/>
    <path d="M 674.34986 273.699083 
L 674.34986 258.238073 
" clip-path="url(#pebd498a00a)" style="fill: none; stroke: #000000"/>
    <path d="M 704.972144 272.470872 
L 704.972144 264.812615 
" clip-path="url(#pebd498a00a)" style="fill: none; stroke: #000000"/>
    <path d="M 735.594429 272.615367 
L 735.594429 262.356193 
" clip-path="url(#pebd498a00a)" style="fill: none; stroke: #000000"/>
    <path d="M 766.216713 277.817202 
L 766.216713 262.500688 
" clip-path="url(#pebd498a00a)" style="fill: none; stroke: #000000"/>
    <path clip-path="url(#pebd498a00a)" style="fill: none; stroke: #000000"/>
    <path clip-path="url(#pebd498a00a)" style="fill: none; stroke: #000000"/>
    <path d="M 768.130606 218.863073 
L 768.130606 190.686468 
" clip-path="url(#pebd498a00a)" style="fill: none; stroke: #000000"/>
    <path d="M 768.768571 183.028211 
L 768.768571 144.447936 
" clip-path="url(#pebd498a00a)" style="fill: none; stroke: #000000"/>
    <path d="M 770.044499 163.665826 
L 770.044499 73.789679 
" clip-path="url(#pebd498a00a)" style="fill: none; stroke: #000000"/>
    <path d="M 771.320428 161.137156 
L 771.320428 55.8 
" clip-path="url(#pebd498a00a)" style="fill: none; stroke: #000000"/>
    <path d="M 773.872285 242.054587 
L 773.872285 126.458257 
" clip-path="url(#pebd498a00a)" style="fill: none; stroke: #000000"/>
    <path d="M 776.424142 274.204817 
L 776.424142 148.349312 
" clip-path="url(#pebd498a00a)" style="fill: none; stroke: #000000"/>
    <path d="M 781.527856 296.168119 
L 781.527856 190.686468 
" clip-path="url(#pebd498a00a)" style="fill: none; stroke: #000000"/>
    <path d="M 796.838998 307.8 
L 796.838998 233.095872 
" clip-path="url(#pebd498a00a)" style="fill: none; stroke: #000000"/>
    <path d="M 812.15014 298.769037 
L 812.15014 267.847018 
" clip-path="url(#pebd498a00a)" style="fill: none; stroke: #000000"/>
    <path clip-path="url(#pebd498a00a)" style="fill: none; stroke: #000000"/>
   </g>
   <g id="line2d_33">
    <path d="M 521.238436 284.680734 
L 521.360925 283.175097 
L 521.605904 264.315319 
L 522.830795 113.566525 
L 523.198262 96.324267 
L 523.443241 91.300811 
L 523.688219 90.197754 
L 523.810708 90.817624 
L 524.055686 93.889472 
L 524.423154 101.835624 
L 525.158089 123.925794 
L 526.995426 180.962768 
L 527.975339 204.736249 
L 528.955252 223.470572 
L 529.935165 237.966249 
L 530.915078 249.085501 
L 531.894991 257.579147 
L 532.874904 264.053937 
L 533.854818 268.984795 
L 534.834731 272.738029 
L 535.814644 275.594198 
L 536.794557 277.767452 
L 537.77447 279.42098 
L 538.754383 280.679037 
L 539.856785 281.738471 
L 541.081677 282.590102 
L 542.429057 283.245135 
L 544.021416 283.760057 
L 545.981242 284.147816 
L 548.676003 284.429446 
L 552.718145 284.599369 
L 560.924917 284.67249 
L 582.483006 284.680714 
L 582.483006 284.680714 
L 582.54425 284.463661 
L 582.666739 280.478518 
L 582.911718 256.777066 
L 584.075364 113.566519 
L 584.442832 96.324262 
L 584.749055 90.696722 
L 584.871544 90.159855 
L 584.932788 90.197751 
L 585.055277 90.817622 
L 585.300256 93.88947 
L 585.728968 103.439452 
L 586.525147 127.94451 
L 588.239995 180.962768 
L 589.281153 206.047818 
L 590.261066 224.491501 
L 591.240979 238.751624 
L 592.159648 249.085501 
L 593.078316 257.113029 
L 593.996985 263.337619 
L 594.915653 268.159705 
L 595.834322 271.89351 
L 596.814235 274.951568 
L 597.794148 277.278491 
L 598.774061 279.048958 
L 599.815219 280.468577 
L 600.917621 281.583729 
L 602.081268 282.442227 
L 603.367404 283.117103 
L 604.898518 283.660667 
L 606.735855 284.069761 
L 609.185638 284.372264 
L 612.737823 284.566225 
L 613.10529 284.577382 
L 613.10529 284.577382 
L 613.166535 284.362122 
L 613.289024 280.381168 
L 613.534002 256.69082 
L 614.697649 113.5336 
L 615.065116 96.301161 
L 615.371339 90.679615 
L 615.493828 90.144697 
L 615.555073 90.183485 
L 615.677562 90.804987 
L 615.92254 93.879567 
L 616.351252 103.432996 
L 617.147432 127.9416 
L 618.86228 180.962245 
L 619.903437 206.047634 
L 620.883351 224.491432 
L 621.863264 238.751598 
L 622.781932 249.085491 
L 623.700601 257.113025 
L 624.619269 263.337617 
L 625.537938 268.159705 
L 626.456606 271.89351 
L 627.436519 274.951568 
L 628.416433 277.27849 
L 629.396346 279.048958 
L 630.437503 280.468577 
L 631.539906 281.583729 
L 632.703552 282.442227 
L 633.989688 283.117103 
L 635.520803 283.660667 
L 637.35814 284.069761 
L 639.807922 284.372264 
L 643.360107 284.566225 
L 643.727575 284.577382 
L 643.727575 284.577382 
L 643.788819 284.362122 
L 643.911309 280.381168 
L 644.156287 256.69082 
L 645.319934 113.5336 
L 645.687401 96.301161 
L 645.993624 90.679615 
L 646.116113 90.144697 
L 646.177358 90.183485 
L 646.299847 90.804987 
L 646.544825 93.879567 
L 646.973537 103.432996 
L 647.769716 127.9416 
L 649.484564 180.962245 
L 650.525722 206.047634 
L 651.505635 224.491432 
L 652.485548 238.751598 
L 653.404217 249.085491 
L 654.322885 257.113025 
L 655.241554 263.337617 
L 656.160222 268.159705 
L 657.078891 271.89351 
L 658.058804 274.951568 
L 659.038717 277.27849 
L 660.01863 279.048958 
L 661.059788 280.468577 
L 662.16219 281.583729 
L 663.325837 282.442227 
L 664.611973 283.117103 
L 666.143087 283.660667 
L 667.980424 284.069761 
L 670.430207 284.372264 
L 673.982392 284.566225 
L 674.34986 284.577382 
L 674.34986 284.577382 
L 674.411104 284.362122 
L 674.533593 280.381168 
L 674.778572 256.69082 
L 675.942218 113.5336 
L 676.309686 96.301161 
L 676.615909 90.679615 
L 676.738398 90.144697 
L 676.799642 90.183485 
L 676.922131 90.804987 
L 677.16711 93.879567 
L 677.595822 103.432996 
L 678.392001 127.9416 
L 680.106849 180.962245 
L 681.148007 206.047634 
L 682.12792 224.491432 
L 683.107833 238.751598 
L 684.026501 249.085491 
L 684.94517 257.113025 
L 685.863839 263.337617 
L 686.782507 268.159705 
L 687.701176 271.89351 
L 688.681089 274.951568 
L 689.661002 277.27849 
L 690.640915 279.048958 
L 691.682073 280.468577 
L 692.784475 281.583729 
L 693.948122 282.442227 
L 695.234258 283.117103 
L 696.765372 283.660667 
L 698.602709 284.069761 
L 701.052492 284.372264 
L 704.604677 284.566225 
L 704.972144 284.577382 
L 704.972144 284.577382 
L 705.033389 284.362122 
L 705.155878 280.381168 
L 705.400856 256.69082 
L 706.564503 113.5336 
L 706.93197 96.301161 
L 707.238193 90.679615 
L 707.360682 90.144697 
L 707.421927 90.183485 
L 707.544416 90.804987 
L 707.789394 93.879567 
L 708.218106 103.432996 
L 709.014286 127.9416 
L 710.729134 180.962245 
L 711.770291 206.047634 
L 712.750204 224.491432 
L 713.730118 238.751598 
L 714.648786 249.085491 
L 715.567455 257.113025 
L 716.486123 263.337617 
L 717.404792 268.159705 
L 718.32346 271.89351 
L 719.303373 274.951568 
L 720.283286 277.27849 
L 721.2632 279.048958 
L 722.304357 280.468577 
L 723.40676 281.583729 
L 724.570406 282.442227 
L 725.856542 283.117103 
L 727.387657 283.660667 
L 729.224994 284.069761 
L 731.674776 284.372264 
L 735.226961 284.566225 
L 735.594429 284.577382 
L 735.594429 284.577382 
L 735.655673 284.362122 
L 735.778163 280.381168 
L 736.023141 256.69082 
L 737.186788 113.5336 
L 737.554255 96.301161 
L 737.860478 90.679615 
L 737.982967 90.144697 
L 738.044212 90.183485 
L 738.166701 90.804987 
L 738.411679 93.879567 
L 738.840391 103.432996 
L 739.63657 127.9416 
L 741.351418 180.962245 
L 742.392576 206.047634 
L 743.372489 224.491432 
L 744.352402 238.751598 
L 745.271071 249.085491 
L 746.189739 257.113025 
L 747.108408 263.337617 
L 748.027076 268.159705 
L 748.945745 271.89351 
L 749.925658 274.951568 
L 750.905571 277.27849 
L 751.885484 279.048958 
L 752.926642 280.468577 
L 754.029044 281.583729 
L 755.192691 282.442227 
L 756.478827 283.117103 
L 758.009941 283.660667 
L 759.847278 284.069761 
L 762.297061 284.372264 
L 765.849246 284.566225 
L 766.216713 284.577382 
L 766.216713 284.577382 
L 766.344306 282.906204 
L 766.599492 262.422599 
L 767.747828 117.759393 
L 768.130606 97.763785 
L 768.385792 91.746179 
L 768.640978 90.143987 
L 768.768571 90.654242 
L 769.023756 93.709681 
L 769.406535 101.959963 
L 770.172092 125.090998 
L 771.958392 180.548222 
L 772.979135 205.284948 
L 773.999877 224.575769 
L 774.893027 237.701518 
L 775.786177 248.0095 
L 776.679327 256.075565 
L 777.572477 262.375534 
L 778.465627 267.291305 
L 779.358777 271.125053 
L 780.251927 274.114147 
L 781.27267 276.732352 
L 782.293413 278.701917 
L 783.314156 280.183472 
L 784.334899 281.29791 
L 785.483234 282.225171 
L 786.759163 282.960595 
L 788.162684 283.517902 
L 789.948984 283.974263 
L 792.245655 284.308483 
L 795.435477 284.527848 
L 800.921969 284.647648 
L 816.743483 284.680333 
L 830.01314 284.680724 
L 830.01314 284.680724 
" clip-path="url(#pebd498a00a)" style="fill: none; stroke: #000000; stroke-width: 2; stroke-linecap: square"/>
   </g>
   <g id="line2d_34">
    <path d="M 521.238436 284.680734 
L 521.876401 282.152064 
L 522.514365 248.701376 
L 523.152329 203.763303 
L 523.790293 169.084404 
L 525.066222 137.006422 
L 526.34215 134.405505 
L 528.894007 169.084404 
L 531.445864 201.234633 
L 536.549579 225.654358 
L 551.860721 251.374541 
L 567.171863 273.265596 
L 582.483006 282.29656 
L 613.10529 282.368807 
L 643.727575 270.95367 
L 674.34986 265.968578 
L 704.972144 268.641743 
L 735.594429 267.48578 
L 766.216713 270.158945 
L 766.854678 269.002982 
L 767.492642 240.754128 
L 768.130606 204.774771 
L 768.768571 163.738073 
L 770.044499 118.727752 
L 771.320428 108.468578 
L 773.872285 184.256422 
L 776.424142 211.277064 
L 781.527856 243.427294 
L 796.838998 270.447936 
L 812.15014 283.308028 
L 827.461283 283.380275 
" clip-path="url(#pebd498a00a)" style="fill: none; stroke-dasharray: 3.7,1.6; stroke-dashoffset: 0; stroke: #000000"/>
    <g clip-path="url(#pebd498a00a)">
     <use xlink:href="#ma33df13710" x="521.238436" y="284.680734" style="stroke: #000000; stroke-linejoin: miter"/>
     <use xlink:href="#ma33df13710" x="521.876401" y="282.152064" style="stroke: #000000; stroke-linejoin: miter"/>
     <use xlink:href="#ma33df13710" x="522.514365" y="248.701376" style="stroke: #000000; stroke-linejoin: miter"/>
     <use xlink:href="#ma33df13710" x="523.152329" y="203.763303" style="stroke: #000000; stroke-linejoin: miter"/>
     <use xlink:href="#ma33df13710" x="523.790293" y="169.084404" style="stroke: #000000; stroke-linejoin: miter"/>
     <use xlink:href="#ma33df13710" x="525.066222" y="137.006422" style="stroke: #000000; stroke-linejoin: miter"/>
     <use xlink:href="#ma33df13710" x="526.34215" y="134.405505" style="stroke: #000000; stroke-linejoin: miter"/>
     <use xlink:href="#ma33df13710" x="528.894007" y="169.084404" style="stroke: #000000; stroke-linejoin: miter"/>
     <use xlink:href="#ma33df13710" x="531.445864" y="201.234633" style="stroke: #000000; stroke-linejoin: miter"/>
     <use xlink:href="#ma33df13710" x="536.549579" y="225.654358" style="stroke: #000000; stroke-linejoin: miter"/>
     <use xlink:href="#ma33df13710" x="551.860721" y="251.374541" style="stroke: #000000; stroke-linejoin: miter"/>
     <use xlink:href="#ma33df13710" x="567.171863" y="273.265596" style="stroke: #000000; stroke-linejoin: miter"/>
     <use xlink:href="#ma33df13710" x="582.483006" y="282.29656" style="stroke: #000000; stroke-linejoin: miter"/>
     <use xlink:href="#ma33df13710" x="613.10529" y="282.368807" style="stroke: #000000; stroke-linejoin: miter"/>
     <use xlink:href="#ma33df13710" x="643.727575" y="270.95367" style="stroke: #000000; stroke-linejoin: miter"/>
     <use xlink:href="#ma33df13710" x="674.34986" y="265.968578" style="stroke: #000000; stroke-linejoin: miter"/>
     <use xlink:href="#ma33df13710" x="704.972144" y="268.641743" style="stroke: #000000; stroke-linejoin: miter"/>
     <use xlink:href="#ma33df13710" x="735.594429" y="267.48578" style="stroke: #000000; stroke-linejoin: miter"/>
     <use xlink:href="#ma33df13710" x="766.216713" y="270.158945" style="stroke: #000000; stroke-linejoin: miter"/>
     <use xlink:href="#ma33df13710" x="766.854678" y="269.002982" style="stroke: #000000; stroke-linejoin: miter"/>
     <use xlink:href="#ma33df13710" x="767.492642" y="240.754128" style="stroke: #000000; stroke-linejoin: miter"/>
     <use xlink:href="#ma33df13710" x="768.130606" y="204.774771" style="stroke: #000000; stroke-linejoin: miter"/>
     <use xlink:href="#ma33df13710" x="768.768571" y="163.738073" style="stroke: #000000; stroke-linejoin: miter"/>
     <use xlink:href="#ma33df13710" x="770.044499" y="118.727752" style="stroke: #000000; stroke-linejoin: miter"/>
     <use xlink:href="#ma33df13710" x="771.320428" y="108.468578" style="stroke: #000000; stroke-linejoin: miter"/>
     <use xlink:href="#ma33df13710" x="773.872285" y="184.256422" style="stroke: #000000; stroke-linejoin: miter"/>
     <use xlink:href="#ma33df13710" x="776.424142" y="211.277064" style="stroke: #000000; stroke-linejoin: miter"/>
     <use xlink:href="#ma33df13710" x="781.527856" y="243.427294" style="stroke: #000000; stroke-linejoin: miter"/>
     <use xlink:href="#ma33df13710" x="796.838998" y="270.447936" style="stroke: #000000; stroke-linejoin: miter"/>
     <use xlink:href="#ma33df13710" x="812.15014" y="283.308028" style="stroke: #000000; stroke-linejoin: miter"/>
     <use xlink:href="#ma33df13710" x="827.461283" y="283.380275" style="stroke: #000000; stroke-linejoin: miter"/>
    </g>
   </g>
   <g id="patch_9">
    <path d="M 505.799701 320.4 
L 505.799701 43.2 
" style="fill: none; stroke: #000000; stroke-width: 0.8; stroke-linejoin: miter; stroke-linecap: square"/>
   </g>
   <g id="patch_10">
    <path d="M 845.451875 320.4 
L 845.451875 43.2 
" style="fill: none; stroke: #000000; stroke-width: 0.8; stroke-linejoin: miter; stroke-linecap: square"/>
   </g>
   <g id="patch_11">
    <path d="M 505.799701 320.4 
L 845.451875 320.4 
" style="fill: none; stroke: #000000; stroke-width: 0.8; stroke-linejoin: miter; stroke-linecap: square"/>
   </g>
   <g id="patch_12">
    <path d="M 505.799701 43.2 
L 845.451875 43.2 
" style="fill: none; stroke: #000000; stroke-width: 0.8; stroke-linejoin: miter; stroke-linecap: square"/>
   </g>
   <g id="legend_2">
    <g id="patch_13">
     <path d="M 709.115938 80.55625 
L 838.451875 80.55625 
Q 840.451875 80.55625 840.451875 78.55625 
L 840.451875 50.2 
Q 840.451875 48.2 838.451875 48.2 
L 709.115938 48.2 
Q 707.115938 48.2 707.115938 50.2 
L 707.115938 78.55625 
Q 707.115938 80.55625 709.115938 80.55625 
z
" style="fill: #ffffff; opacity: 0.8; stroke: #cccccc; stroke-linejoin: miter"/>
    </g>
    <g id="line2d_35">
     <path d="M 711.115938 56.298437 
L 731.115938 56.298437 
" style="fill: none; stroke: #000000; stroke-width: 2; stroke-linecap: square"/>
    </g>
    <g id="line2d_36"/>
    <g id="text_33">
     <!-- mED60 -->
     <g transform="translate(739.115938 59.798437) scale(0.1 -0.1)">
      <use xlink:href="#DejaVuSans-6d"/>
      <use xlink:href="#DejaVuSans-45" transform="translate(97.412109 0)"/>
      <use xlink:href="#DejaVuSans-44" transform="translate(160.595703 0)"/>
      <use xlink:href="#DejaVuSans-36" transform="translate(237.597656 0)"/>
      <use xlink:href="#DejaVuSans-30" transform="translate(301.220703 0)"/>
     </g>
    </g>
    <g id="LineCollection_4">
     <path d="M 721.115938 75.976562 
L 721.115938 65.976562 
" style="fill: none; stroke: #000000"/>
    </g>
    <g id="line2d_37">
     <path d="M 711.115938 70.976562 
L 731.115938 70.976562 
" style="fill: none; stroke-dasharray: 3.7,1.6; stroke-dashoffset: 0; stroke: #000000"/>
    </g>
    <g id="line2d_38">
     <g>
      <use xlink:href="#ma33df13710" x="721.115938" y="70.976562" style="stroke: #000000; stroke-linejoin: miter"/>
     </g>
    </g>
    <g id="text_34">
     <!-- mED60±SD (n=12) -->
     <g transform="translate(739.115938 74.476562) scale(0.1 -0.1)">
      <use xlink:href="#DejaVuSans-6d"/>
      <use xlink:href="#DejaVuSans-45" transform="translate(97.412109 0)"/>
      <use xlink:href="#DejaVuSans-44" transform="translate(160.595703 0)"/>
      <use xlink:href="#DejaVuSans-36" transform="translate(237.597656 0)"/>
      <use xlink:href="#DejaVuSans-30" transform="translate(301.220703 0)"/>
      <use xlink:href="#DejaVuSans-b1" transform="translate(364.84375 0)"/>
      <use xlink:href="#DejaVuSans-53" transform="translate(448.632812 0)"/>
      <use xlink:href="#DejaVuSans-44" transform="translate(512.109375 0)"/>
      <use xlink:href="#DejaVuSans-20" transform="translate(589.111328 0)"/>
      <use xlink:href="#DejaVuSans-28" transform="translate(620.898438 0)"/>
      <use xlink:href="#DejaVuSans-6e" transform="translate(659.912109 0)"/>
      <use xlink:href="#DejaVuSans-3d" transform="translate(723.291016 0)"/>
      <use xlink:href="#DejaVuSans-31" transform="translate(807.080078 0)"/>
      <use xlink:href="#DejaVuSans-32" transform="translate(870.703125 0)"/>
      <use xlink:href="#DejaVuSans-29" transform="translate(934.326172 0)"/>
     </g>
    </g>
   </g>
  </g>
  <g id="text_35">
   <!-- Chen2017a (healthy) -->
   <g transform="translate(294.681562 26.196094) scale(0.25 -0.25)">
    <defs>
     <path id="DejaVuSans-Bold-43" d="M 4288 256 
Q 3956 84 3597 -3 
Q 3238 -91 2847 -91 
Q 1681 -91 1000 561 
Q 319 1213 319 2328 
Q 319 3447 1000 4098 
Q 1681 4750 2847 4750 
Q 3238 4750 3597 4662 
Q 3956 4575 4288 4403 
L 4288 3438 
Q 3953 3666 3628 3772 
Q 3303 3878 2944 3878 
Q 2300 3878 1931 3465 
Q 1563 3053 1563 2328 
Q 1563 1606 1931 1193 
Q 2300 781 2944 781 
Q 3303 781 3628 887 
Q 3953 994 4288 1222 
L 4288 256 
z
" transform="scale(0.015625)"/>
     <path id="DejaVuSans-Bold-32" d="M 1844 884 
L 3897 884 
L 3897 0 
L 506 0 
L 506 884 
L 2209 2388 
Q 2438 2594 2547 2791 
Q 2656 2988 2656 3200 
Q 2656 3528 2436 3728 
Q 2216 3928 1850 3928 
Q 1569 3928 1234 3808 
Q 900 3688 519 3450 
L 519 4475 
Q 925 4609 1322 4679 
Q 1719 4750 2100 4750 
Q 2938 4750 3402 4381 
Q 3866 4013 3866 3353 
Q 3866 2972 3669 2642 
Q 3472 2313 2841 1759 
L 1844 884 
z
" transform="scale(0.015625)"/>
     <path id="DejaVuSans-Bold-30" d="M 2944 2338 
Q 2944 3213 2780 3570 
Q 2616 3928 2228 3928 
Q 1841 3928 1675 3570 
Q 1509 3213 1509 2338 
Q 1509 1453 1675 1090 
Q 1841 728 2228 728 
Q 2613 728 2778 1090 
Q 2944 1453 2944 2338 
z
M 4147 2328 
Q 4147 1169 3647 539 
Q 3147 -91 2228 -91 
Q 1306 -91 806 539 
Q 306 1169 306 2328 
Q 306 3491 806 4120 
Q 1306 4750 2228 4750 
Q 3147 4750 3647 4120 
Q 4147 3491 4147 2328 
z
" transform="scale(0.015625)"/>
     <path id="DejaVuSans-Bold-31" d="M 750 831 
L 1813 831 
L 1813 3847 
L 722 3622 
L 722 4441 
L 1806 4666 
L 2950 4666 
L 2950 831 
L 4013 831 
L 4013 0 
L 750 0 
L 750 831 
z
" transform="scale(0.015625)"/>
     <path id="DejaVuSans-Bold-37" d="M 428 4666 
L 3944 4666 
L 3944 3988 
L 2125 0 
L 953 0 
L 2675 3781 
L 428 3781 
L 428 4666 
z
" transform="scale(0.015625)"/>
     <path id="DejaVuSans-Bold-28" d="M 2413 -844 
L 1484 -844 
Q 1006 -72 778 623 
Q 550 1319 550 2003 
Q 550 2688 779 3389 
Q 1009 4091 1484 4856 
L 2413 4856 
Q 2013 4116 1813 3408 
Q 1613 2700 1613 2009 
Q 1613 1319 1811 609 
Q 2009 -100 2413 -844 
z
" transform="scale(0.015625)"/>
     <path id="DejaVuSans-Bold-79" d="M 78 3500 
L 1197 3500 
L 2138 1125 
L 2938 3500 
L 4056 3500 
L 2584 -331 
Q 2363 -916 2067 -1148 
Q 1772 -1381 1288 -1381 
L 641 -1381 
L 641 -647 
L 991 -647 
Q 1275 -647 1404 -556 
Q 1534 -466 1606 -231 
L 1638 -134 
L 78 3500 
z
" transform="scale(0.015625)"/>
     <path id="DejaVuSans-Bold-29" d="M 513 -844 
Q 913 -100 1113 609 
Q 1313 1319 1313 2009 
Q 1313 2700 1113 3408 
Q 913 4116 513 4856 
L 1441 4856 
Q 1916 4091 2145 3389 
Q 2375 2688 2375 2003 
Q 2375 1319 2147 623 
Q 1919 -72 1441 -844 
L 513 -844 
z
" transform="scale(0.015625)"/>
    </defs>
    <use xlink:href="#DejaVuSans-Bold-43"/>
    <use xlink:href="#DejaVuSans-Bold-68" transform="translate(73.388672 0)"/>
    <use xlink:href="#DejaVuSans-Bold-65" transform="translate(144.580078 0)"/>
    <use xlink:href="#DejaVuSans-Bold-6e" transform="translate(212.402344 0)"/>
    <use xlink:href="#DejaVuSans-Bold-32" transform="translate(283.59375 0)"/>
    <use xlink:href="#DejaVuSans-Bold-30" transform="translate(353.173828 0)"/>
    <use xlink:href="#DejaVuSans-Bold-31" transform="translate(422.753906 0)"/>
    <use xlink:href="#DejaVuSans-Bold-37" transform="translate(492.333984 0)"/>
    <use xlink:href="#DejaVuSans-Bold-61" transform="translate(561.914062 0)"/>
    <use xlink:href="#DejaVuSans-Bold-20" transform="translate(629.394531 0)"/>
    <use xlink:href="#DejaVuSans-Bold-28" transform="translate(664.208984 0)"/>
    <use xlink:href="#DejaVuSans-Bold-68" transform="translate(709.912109 0)"/>
    <use xlink:href="#DejaVuSans-Bold-65" transform="translate(781.103516 0)"/>
    <use xlink:href="#DejaVuSans-Bold-61" transform="translate(848.925781 0)"/>
    <use xlink:href="#DejaVuSans-Bold-6c" transform="translate(916.40625 0)"/>
    <use xlink:href="#DejaVuSans-Bold-74" transform="translate(950.683594 0)"/>
    <use xlink:href="#DejaVuSans-Bold-68" transform="translate(998.486328 0)"/>
    <use xlink:href="#DejaVuSans-Bold-79" transform="translate(1069.677734 0)"/>
    <use xlink:href="#DejaVuSans-Bold-29" transform="translate(1134.863281 0)"/>
   </g>
  </g>
 </g>
 <defs>
  <clipPath id="p02259e5ec4">
   <rect x="64.251875" y="43.2" width="339.652174" height="277.2"/>
  </clipPath>
  <clipPath id="pebd498a00a">
   <rect x="505.799701" y="43.2" width="339.652174" height="277.2"/>
  </clipPath>
 </defs>
</svg>
