<?xml version="1.0" encoding="utf-8" standalone="no"?>
<!DOCTYPE svg PUBLIC "-//W3C//DTD SVG 1.1//EN"
  "http://www.w3.org/Graphics/SVG/1.1/DTD/svg11.dtd">
<svg xmlns:xlink="http://www.w3.org/1999/xlink" width="870.622248pt" height="370.537812pt" viewBox="0 0 870.622248 370.537812" xmlns="http://www.w3.org/2000/svg" version="1.1">
 <metadata>
  <rdf:RDF xmlns:dc="http://purl.org/dc/elements/1.1/" xmlns:cc="http://creativecommons.org/ns#" xmlns:rdf="http://www.w3.org/1999/02/22-rdf-syntax-ns#">
   <cc:Work>
    <dc:type rdf:resource="http://purl.org/dc/dcmitype/StillImage"/>
    <dc:date>2026-01-06T17:44:39.507313</dc:date>
    <dc:format>image/svg+xml</dc:format>
    <dc:creator>
     <cc:Agent>
      <dc:title>Matplotlib v3.10.7, https://matplotlib.org/</dc:title>
     </cc:Agent>
    </dc:creator>
   </cc:Work>
  </rdf:RDF>
 </metadata>
 <defs>
  <style type="text/css">*{stroke-linejoin: round; stroke-linecap: butt}</style>
 </defs>
 <g id="figure_1">
  <g id="patch_1">
   <path d="M 0 370.537812 
L 870.622248 370.537812 
L 870.622248 0 
L 0 0 
z
" style="fill: #ffffff"/>
  </g>
  <g id="axes_1">
   <g id="patch_2">
    <path d="M 73.795625 320.4 
L 413.447799 320.4 
L 413.447799 43.2 
L 73.795625 43.2 
z
" style="fill: #ffffff"/>
   </g>
   <g id="matplotlib.axis_1">
    <g id="xtick_1">
     <g id="line2d_1">
      <defs>
       <path id="mb24a1a11ee" d="M 0 0 
L 0 3.5 
" style="stroke: #000000; stroke-width: 0.8"/>
      </defs>
      <g>
       <use xlink:href="#mb24a1a11ee" x="89.23436" y="320.4" style="stroke: #000000; stroke-width: 0.8"/>
      </g>
     </g>
     <g id="text_1">
      <!-- 0 -->
      <g transform="translate(84.462485 338.797656) scale(0.15 -0.15)">
       <defs>
        <path id="DejaVuSans-30" d="M 2034 4250 
Q 1547 4250 1301 3770 
Q 1056 3291 1056 2328 
Q 1056 1369 1301 889 
Q 1547 409 2034 409 
Q 2525 409 2770 889 
Q 3016 1369 3016 2328 
Q 3016 3291 2770 3770 
Q 2525 4250 2034 4250 
z
M 2034 4750 
Q 2819 4750 3233 4129 
Q 3647 3509 3647 2328 
Q 3647 1150 3233 529 
Q 2819 -91 2034 -91 
Q 1250 -91 836 529 
Q 422 1150 422 2328 
Q 422 3509 836 4129 
Q 1250 4750 2034 4750 
z
" transform="scale(0.015625)"/>
       </defs>
       <use xlink:href="#DejaVuSans-30"/>
      </g>
     </g>
    </g>
    <g id="xtick_2">
     <g id="line2d_2">
      <g>
       <use xlink:href="#mb24a1a11ee" x="152.899248" y="320.4" style="stroke: #000000; stroke-width: 0.8"/>
      </g>
     </g>
     <g id="text_2">
      <!-- 20 -->
      <g transform="translate(143.355498 338.797656) scale(0.15 -0.15)">
       <defs>
        <path id="DejaVuSans-32" d="M 1228 531 
L 3431 531 
L 3431 0 
L 469 0 
L 469 531 
Q 828 903 1448 1529 
Q 2069 2156 2228 2338 
Q 2531 2678 2651 2914 
Q 2772 3150 2772 3378 
Q 2772 3750 2511 3984 
Q 2250 4219 1831 4219 
Q 1534 4219 1204 4116 
Q 875 4013 500 3803 
L 500 4441 
Q 881 4594 1212 4672 
Q 1544 4750 1819 4750 
Q 2544 4750 2975 4387 
Q 3406 4025 3406 3419 
Q 3406 3131 3298 2873 
Q 3191 2616 2906 2266 
Q 2828 2175 2409 1742 
Q 1991 1309 1228 531 
z
" transform="scale(0.015625)"/>
       </defs>
       <use xlink:href="#DejaVuSans-32"/>
       <use xlink:href="#DejaVuSans-30" transform="translate(63.623047 0)"/>
      </g>
     </g>
    </g>
    <g id="xtick_3">
     <g id="line2d_3">
      <g>
       <use xlink:href="#mb24a1a11ee" x="216.564135" y="320.4" style="stroke: #000000; stroke-width: 0.8"/>
      </g>
     </g>
     <g id="text_3">
      <!-- 40 -->
      <g transform="translate(207.020385 338.797656) scale(0.15 -0.15)">
       <defs>
        <path id="DejaVuSans-34" d="M 2419 4116 
L 825 1625 
L 2419 1625 
L 2419 4116 
z
M 2253 4666 
L 3047 4666 
L 3047 1625 
L 3713 1625 
L 3713 1100 
L 3047 1100 
L 3047 0 
L 2419 0 
L 2419 1100 
L 313 1100 
L 313 1709 
L 2253 4666 
z
" transform="scale(0.015625)"/>
       </defs>
       <use xlink:href="#DejaVuSans-34"/>
       <use xlink:href="#DejaVuSans-30" transform="translate(63.623047 0)"/>
      </g>
     </g>
    </g>
    <g id="xtick_4">
     <g id="line2d_4">
      <g>
       <use xlink:href="#mb24a1a11ee" x="280.229022" y="320.4" style="stroke: #000000; stroke-width: 0.8"/>
      </g>
     </g>
     <g id="text_4">
      <!-- 60 -->
      <g transform="translate(270.685272 338.797656) scale(0.15 -0.15)">
       <defs>
        <path id="DejaVuSans-36" d="M 2113 2584 
Q 1688 2584 1439 2293 
Q 1191 2003 1191 1497 
Q 1191 994 1439 701 
Q 1688 409 2113 409 
Q 2538 409 2786 701 
Q 3034 994 3034 1497 
Q 3034 2003 2786 2293 
Q 2538 2584 2113 2584 
z
M 3366 4563 
L 3366 3988 
Q 3128 4100 2886 4159 
Q 2644 4219 2406 4219 
Q 1781 4219 1451 3797 
Q 1122 3375 1075 2522 
Q 1259 2794 1537 2939 
Q 1816 3084 2150 3084 
Q 2853 3084 3261 2657 
Q 3669 2231 3669 1497 
Q 3669 778 3244 343 
Q 2819 -91 2113 -91 
Q 1303 -91 875 529 
Q 447 1150 447 2328 
Q 447 3434 972 4092 
Q 1497 4750 2381 4750 
Q 2619 4750 2861 4703 
Q 3103 4656 3366 4563 
z
" transform="scale(0.015625)"/>
       </defs>
       <use xlink:href="#DejaVuSans-36"/>
       <use xlink:href="#DejaVuSans-30" transform="translate(63.623047 0)"/>
      </g>
     </g>
    </g>
    <g id="xtick_5">
     <g id="line2d_5">
      <g>
       <use xlink:href="#mb24a1a11ee" x="343.89391" y="320.4" style="stroke: #000000; stroke-width: 0.8"/>
      </g>
     </g>
     <g id="text_5">
      <!-- 80 -->
      <g transform="translate(334.35016 338.797656) scale(0.15 -0.15)">
       <defs>
        <path id="DejaVuSans-38" d="M 2034 2216 
Q 1584 2216 1326 1975 
Q 1069 1734 1069 1313 
Q 1069 891 1326 650 
Q 1584 409 2034 409 
Q 2484 409 2743 651 
Q 3003 894 3003 1313 
Q 3003 1734 2745 1975 
Q 2488 2216 2034 2216 
z
M 1403 2484 
Q 997 2584 770 2862 
Q 544 3141 544 3541 
Q 544 4100 942 4425 
Q 1341 4750 2034 4750 
Q 2731 4750 3128 4425 
Q 3525 4100 3525 3541 
Q 3525 3141 3298 2862 
Q 3072 2584 2669 2484 
Q 3125 2378 3379 2068 
Q 3634 1759 3634 1313 
Q 3634 634 3220 271 
Q 2806 -91 2034 -91 
Q 1263 -91 848 271 
Q 434 634 434 1313 
Q 434 1759 690 2068 
Q 947 2378 1403 2484 
z
M 1172 3481 
Q 1172 3119 1398 2916 
Q 1625 2713 2034 2713 
Q 2441 2713 2670 2916 
Q 2900 3119 2900 3481 
Q 2900 3844 2670 4047 
Q 2441 4250 2034 4250 
Q 1625 4250 1398 4047 
Q 1172 3844 1172 3481 
z
" transform="scale(0.015625)"/>
       </defs>
       <use xlink:href="#DejaVuSans-38"/>
       <use xlink:href="#DejaVuSans-30" transform="translate(63.623047 0)"/>
      </g>
     </g>
    </g>
    <g id="xtick_6">
     <g id="line2d_6">
      <g>
       <use xlink:href="#mb24a1a11ee" x="407.558797" y="320.4" style="stroke: #000000; stroke-width: 0.8"/>
      </g>
     </g>
     <g id="text_6">
      <!-- 100 -->
      <g transform="translate(393.243172 338.797656) scale(0.15 -0.15)">
       <defs>
        <path id="DejaVuSans-31" d="M 794 531 
L 1825 531 
L 1825 4091 
L 703 3866 
L 703 4441 
L 1819 4666 
L 2450 4666 
L 2450 531 
L 3481 531 
L 3481 0 
L 794 0 
L 794 531 
z
" transform="scale(0.015625)"/>
       </defs>
       <use xlink:href="#DejaVuSans-31"/>
       <use xlink:href="#DejaVuSans-30" transform="translate(63.623047 0)"/>
       <use xlink:href="#DejaVuSans-30" transform="translate(127.246094 0)"/>
      </g>
     </g>
    </g>
    <g id="text_7">
     <!-- time [hr] -->
     <g transform="translate(198.547181 359.594375) scale(0.18 -0.18)">
      <defs>
       <path id="DejaVuSans-Bold-74" d="M 1759 4494 
L 1759 3500 
L 2913 3500 
L 2913 2700 
L 1759 2700 
L 1759 1216 
Q 1759 972 1856 886 
Q 1953 800 2241 800 
L 2816 800 
L 2816 0 
L 1856 0 
Q 1194 0 917 276 
Q 641 553 641 1216 
L 641 2700 
L 84 2700 
L 84 3500 
L 641 3500 
L 641 4494 
L 1759 4494 
z
" transform="scale(0.015625)"/>
       <path id="DejaVuSans-Bold-69" d="M 538 3500 
L 1656 3500 
L 1656 0 
L 538 0 
L 538 3500 
z
M 538 4863 
L 1656 4863 
L 1656 3950 
L 538 3950 
L 538 4863 
z
" transform="scale(0.015625)"/>
       <path id="DejaVuSans-Bold-6d" d="M 3781 2919 
Q 3994 3244 4286 3414 
Q 4578 3584 4928 3584 
Q 5531 3584 5847 3212 
Q 6163 2841 6163 2131 
L 6163 0 
L 5038 0 
L 5038 1825 
Q 5041 1866 5042 1909 
Q 5044 1953 5044 2034 
Q 5044 2406 4934 2573 
Q 4825 2741 4581 2741 
Q 4263 2741 4089 2478 
Q 3916 2216 3909 1719 
L 3909 0 
L 2784 0 
L 2784 1825 
Q 2784 2406 2684 2573 
Q 2584 2741 2328 2741 
Q 2006 2741 1831 2477 
Q 1656 2213 1656 1722 
L 1656 0 
L 531 0 
L 531 3500 
L 1656 3500 
L 1656 2988 
Q 1863 3284 2130 3434 
Q 2397 3584 2719 3584 
Q 3081 3584 3359 3409 
Q 3638 3234 3781 2919 
z
" transform="scale(0.015625)"/>
       <path id="DejaVuSans-Bold-65" d="M 4031 1759 
L 4031 1441 
L 1416 1441 
Q 1456 1047 1700 850 
Q 1944 653 2381 653 
Q 2734 653 3104 758 
Q 3475 863 3866 1075 
L 3866 213 
Q 3469 63 3072 -14 
Q 2675 -91 2278 -91 
Q 1328 -91 801 392 
Q 275 875 275 1747 
Q 275 2603 792 3093 
Q 1309 3584 2216 3584 
Q 3041 3584 3536 3087 
Q 4031 2591 4031 1759 
z
M 2881 2131 
Q 2881 2450 2695 2645 
Q 2509 2841 2209 2841 
Q 1884 2841 1681 2658 
Q 1478 2475 1428 2131 
L 2881 2131 
z
" transform="scale(0.015625)"/>
       <path id="DejaVuSans-Bold-20" transform="scale(0.015625)"/>
       <path id="DejaVuSans-Bold-5b" d="M 550 4863 
L 2491 4863 
L 2491 4159 
L 1613 4159 
L 1613 -141 
L 2491 -141 
L 2491 -844 
L 550 -844 
L 550 4863 
z
" transform="scale(0.015625)"/>
       <path id="DejaVuSans-Bold-68" d="M 4056 2131 
L 4056 0 
L 2931 0 
L 2931 347 
L 2931 1625 
Q 2931 2084 2911 2256 
Q 2891 2428 2841 2509 
Q 2775 2619 2662 2680 
Q 2550 2741 2406 2741 
Q 2056 2741 1856 2470 
Q 1656 2200 1656 1722 
L 1656 0 
L 538 0 
L 538 4863 
L 1656 4863 
L 1656 2988 
Q 1909 3294 2193 3439 
Q 2478 3584 2822 3584 
Q 3428 3584 3742 3212 
Q 4056 2841 4056 2131 
z
" transform="scale(0.015625)"/>
       <path id="DejaVuSans-Bold-72" d="M 3138 2547 
Q 2991 2616 2845 2648 
Q 2700 2681 2553 2681 
Q 2122 2681 1889 2404 
Q 1656 2128 1656 1613 
L 1656 0 
L 538 0 
L 538 3500 
L 1656 3500 
L 1656 2925 
Q 1872 3269 2151 3426 
Q 2431 3584 2822 3584 
Q 2878 3584 2943 3579 
Q 3009 3575 3134 3559 
L 3138 2547 
z
" transform="scale(0.015625)"/>
       <path id="DejaVuSans-Bold-5d" d="M 2375 -844 
L 434 -844 
L 434 -141 
L 1313 -141 
L 1313 4159 
L 434 4159 
L 434 4863 
L 2375 4863 
L 2375 -844 
z
" transform="scale(0.015625)"/>
      </defs>
      <use xlink:href="#DejaVuSans-Bold-74"/>
      <use xlink:href="#DejaVuSans-Bold-69" transform="translate(47.802734 0)"/>
      <use xlink:href="#DejaVuSans-Bold-6d" transform="translate(82.080078 0)"/>
      <use xlink:href="#DejaVuSans-Bold-65" transform="translate(186.279297 0)"/>
      <use xlink:href="#DejaVuSans-Bold-20" transform="translate(254.101562 0)"/>
      <use xlink:href="#DejaVuSans-Bold-5b" transform="translate(288.916016 0)"/>
      <use xlink:href="#DejaVuSans-Bold-68" transform="translate(334.619141 0)"/>
      <use xlink:href="#DejaVuSans-Bold-72" transform="translate(405.810547 0)"/>
      <use xlink:href="#DejaVuSans-Bold-5d" transform="translate(455.126953 0)"/>
     </g>
    </g>
   </g>
   <g id="matplotlib.axis_2">
    <g id="ytick_1">
     <g id="line2d_7">
      <defs>
       <path id="m0a77b892f6" d="M 0 0 
L -3.5 0 
" style="stroke: #000000; stroke-width: 0.8"/>
      </defs>
      <g>
       <use xlink:href="#m0a77b892f6" x="73.795625" y="304.687333" style="stroke: #000000; stroke-width: 0.8"/>
      </g>
     </g>
     <g id="text_8">
      <!-- 0 -->
      <g transform="translate(57.251875 310.386161) scale(0.15 -0.15)">
       <use xlink:href="#DejaVuSans-30"/>
      </g>
     </g>
    </g>
    <g id="ytick_2">
     <g id="line2d_8">
      <g>
       <use xlink:href="#m0a77b892f6" x="73.795625" y="253.535253" style="stroke: #000000; stroke-width: 0.8"/>
      </g>
     </g>
     <g id="text_9">
      <!-- 200 -->
      <g transform="translate(38.164375 259.234081) scale(0.15 -0.15)">
       <use xlink:href="#DejaVuSans-32"/>
       <use xlink:href="#DejaVuSans-30" transform="translate(63.623047 0)"/>
       <use xlink:href="#DejaVuSans-30" transform="translate(127.246094 0)"/>
      </g>
     </g>
    </g>
    <g id="ytick_3">
     <g id="line2d_9">
      <g>
       <use xlink:href="#m0a77b892f6" x="73.795625" y="202.383173" style="stroke: #000000; stroke-width: 0.8"/>
      </g>
     </g>
     <g id="text_10">
      <!-- 400 -->
      <g transform="translate(38.164375 208.082001) scale(0.15 -0.15)">
       <use xlink:href="#DejaVuSans-34"/>
       <use xlink:href="#DejaVuSans-30" transform="translate(63.623047 0)"/>
       <use xlink:href="#DejaVuSans-30" transform="translate(127.246094 0)"/>
      </g>
     </g>
    </g>
    <g id="ytick_4">
     <g id="line2d_10">
      <g>
       <use xlink:href="#m0a77b892f6" x="73.795625" y="151.231093" style="stroke: #000000; stroke-width: 0.8"/>
      </g>
     </g>
     <g id="text_11">
      <!-- 600 -->
      <g transform="translate(38.164375 156.929921) scale(0.15 -0.15)">
       <use xlink:href="#DejaVuSans-36"/>
       <use xlink:href="#DejaVuSans-30" transform="translate(63.623047 0)"/>
       <use xlink:href="#DejaVuSans-30" transform="translate(127.246094 0)"/>
      </g>
     </g>
    </g>
    <g id="ytick_5">
     <g id="line2d_11">
      <g>
       <use xlink:href="#m0a77b892f6" x="73.795625" y="100.079013" style="stroke: #000000; stroke-width: 0.8"/>
      </g>
     </g>
     <g id="text_12">
      <!-- 800 -->
      <g transform="translate(38.164375 105.777841) scale(0.15 -0.15)">
       <use xlink:href="#DejaVuSans-38"/>
       <use xlink:href="#DejaVuSans-30" transform="translate(63.623047 0)"/>
       <use xlink:href="#DejaVuSans-30" transform="translate(127.246094 0)"/>
      </g>
     </g>
    </g>
    <g id="ytick_6">
     <g id="line2d_12">
      <g>
       <use xlink:href="#m0a77b892f6" x="73.795625" y="48.926933" style="stroke: #000000; stroke-width: 0.8"/>
      </g>
     </g>
     <g id="text_13">
      <!-- 1000 -->
      <g transform="translate(28.620625 54.625761) scale(0.15 -0.15)">
       <use xlink:href="#DejaVuSans-31"/>
       <use xlink:href="#DejaVuSans-30" transform="translate(63.623047 0)"/>
       <use xlink:href="#DejaVuSans-30" transform="translate(127.246094 0)"/>
       <use xlink:href="#DejaVuSans-30" transform="translate(190.869141 0)"/>
      </g>
     </g>
    </g>
    <g id="text_14">
     <!-- edoxaban plasma [nM] -->
     <g transform="translate(20.877187 297.59625) rotate(-90) scale(0.18 -0.18)">
      <defs>
       <path id="DejaVuSans-Bold-64" d="M 2919 2988 
L 2919 4863 
L 4044 4863 
L 4044 0 
L 2919 0 
L 2919 506 
Q 2688 197 2409 53 
Q 2131 -91 1766 -91 
Q 1119 -91 703 423 
Q 288 938 288 1747 
Q 288 2556 703 3070 
Q 1119 3584 1766 3584 
Q 2128 3584 2408 3439 
Q 2688 3294 2919 2988 
z
M 2181 722 
Q 2541 722 2730 984 
Q 2919 1247 2919 1747 
Q 2919 2247 2730 2509 
Q 2541 2772 2181 2772 
Q 1825 2772 1636 2509 
Q 1447 2247 1447 1747 
Q 1447 1247 1636 984 
Q 1825 722 2181 722 
z
" transform="scale(0.015625)"/>
       <path id="DejaVuSans-Bold-6f" d="M 2203 2784 
Q 1831 2784 1636 2517 
Q 1441 2250 1441 1747 
Q 1441 1244 1636 976 
Q 1831 709 2203 709 
Q 2569 709 2762 976 
Q 2956 1244 2956 1747 
Q 2956 2250 2762 2517 
Q 2569 2784 2203 2784 
z
M 2203 3584 
Q 3106 3584 3614 3096 
Q 4122 2609 4122 1747 
Q 4122 884 3614 396 
Q 3106 -91 2203 -91 
Q 1297 -91 786 396 
Q 275 884 275 1747 
Q 275 2609 786 3096 
Q 1297 3584 2203 3584 
z
" transform="scale(0.015625)"/>
       <path id="DejaVuSans-Bold-78" d="M 1422 1791 
L 159 3500 
L 1344 3500 
L 2059 2463 
L 2784 3500 
L 3969 3500 
L 2706 1797 
L 4031 0 
L 2847 0 
L 2059 1106 
L 1281 0 
L 97 0 
L 1422 1791 
z
" transform="scale(0.015625)"/>
       <path id="DejaVuSans-Bold-61" d="M 2106 1575 
Q 1756 1575 1579 1456 
Q 1403 1338 1403 1106 
Q 1403 894 1545 773 
Q 1688 653 1941 653 
Q 2256 653 2472 879 
Q 2688 1106 2688 1447 
L 2688 1575 
L 2106 1575 
z
M 3816 1997 
L 3816 0 
L 2688 0 
L 2688 519 
Q 2463 200 2181 54 
Q 1900 -91 1497 -91 
Q 953 -91 614 226 
Q 275 544 275 1050 
Q 275 1666 698 1953 
Q 1122 2241 2028 2241 
L 2688 2241 
L 2688 2328 
Q 2688 2594 2478 2717 
Q 2269 2841 1825 2841 
Q 1466 2841 1156 2769 
Q 847 2697 581 2553 
L 581 3406 
Q 941 3494 1303 3539 
Q 1666 3584 2028 3584 
Q 2975 3584 3395 3211 
Q 3816 2838 3816 1997 
z
" transform="scale(0.015625)"/>
       <path id="DejaVuSans-Bold-62" d="M 2400 722 
Q 2759 722 2948 984 
Q 3138 1247 3138 1747 
Q 3138 2247 2948 2509 
Q 2759 2772 2400 2772 
Q 2041 2772 1848 2508 
Q 1656 2244 1656 1747 
Q 1656 1250 1848 986 
Q 2041 722 2400 722 
z
M 1656 2988 
Q 1888 3294 2169 3439 
Q 2450 3584 2816 3584 
Q 3463 3584 3878 3070 
Q 4294 2556 4294 1747 
Q 4294 938 3878 423 
Q 3463 -91 2816 -91 
Q 2450 -91 2169 54 
Q 1888 200 1656 506 
L 1656 0 
L 538 0 
L 538 4863 
L 1656 4863 
L 1656 2988 
z
" transform="scale(0.015625)"/>
       <path id="DejaVuSans-Bold-6e" d="M 4056 2131 
L 4056 0 
L 2931 0 
L 2931 347 
L 2931 1631 
Q 2931 2084 2911 2256 
Q 2891 2428 2841 2509 
Q 2775 2619 2662 2680 
Q 2550 2741 2406 2741 
Q 2056 2741 1856 2470 
Q 1656 2200 1656 1722 
L 1656 0 
L 538 0 
L 538 3500 
L 1656 3500 
L 1656 2988 
Q 1909 3294 2193 3439 
Q 2478 3584 2822 3584 
Q 3428 3584 3742 3212 
Q 4056 2841 4056 2131 
z
" transform="scale(0.015625)"/>
       <path id="DejaVuSans-Bold-70" d="M 1656 506 
L 1656 -1331 
L 538 -1331 
L 538 3500 
L 1656 3500 
L 1656 2988 
Q 1888 3294 2169 3439 
Q 2450 3584 2816 3584 
Q 3463 3584 3878 3070 
Q 4294 2556 4294 1747 
Q 4294 938 3878 423 
Q 3463 -91 2816 -91 
Q 2450 -91 2169 54 
Q 1888 200 1656 506 
z
M 2400 2772 
Q 2041 2772 1848 2508 
Q 1656 2244 1656 1747 
Q 1656 1250 1848 986 
Q 2041 722 2400 722 
Q 2759 722 2948 984 
Q 3138 1247 3138 1747 
Q 3138 2247 2948 2509 
Q 2759 2772 2400 2772 
z
" transform="scale(0.015625)"/>
       <path id="DejaVuSans-Bold-6c" d="M 538 4863 
L 1656 4863 
L 1656 0 
L 538 0 
L 538 4863 
z
" transform="scale(0.015625)"/>
       <path id="DejaVuSans-Bold-73" d="M 3272 3391 
L 3272 2541 
Q 2913 2691 2578 2766 
Q 2244 2841 1947 2841 
Q 1628 2841 1473 2761 
Q 1319 2681 1319 2516 
Q 1319 2381 1436 2309 
Q 1553 2238 1856 2203 
L 2053 2175 
Q 2913 2066 3209 1816 
Q 3506 1566 3506 1031 
Q 3506 472 3093 190 
Q 2681 -91 1863 -91 
Q 1516 -91 1145 -36 
Q 775 19 384 128 
L 384 978 
Q 719 816 1070 734 
Q 1422 653 1784 653 
Q 2113 653 2278 743 
Q 2444 834 2444 1013 
Q 2444 1163 2330 1236 
Q 2216 1309 1875 1350 
L 1678 1375 
Q 931 1469 631 1722 
Q 331 1975 331 2491 
Q 331 3047 712 3315 
Q 1094 3584 1881 3584 
Q 2191 3584 2531 3537 
Q 2872 3491 3272 3391 
z
" transform="scale(0.015625)"/>
       <path id="DejaVuSans-Bold-4d" d="M 588 4666 
L 2119 4666 
L 3181 2169 
L 4250 4666 
L 5778 4666 
L 5778 0 
L 4641 0 
L 4641 3413 
L 3566 897 
L 2803 897 
L 1728 3413 
L 1728 0 
L 588 0 
L 588 4666 
z
" transform="scale(0.015625)"/>
      </defs>
      <use xlink:href="#DejaVuSans-Bold-65"/>
      <use xlink:href="#DejaVuSans-Bold-64" transform="translate(67.822266 0)"/>
      <use xlink:href="#DejaVuSans-Bold-6f" transform="translate(139.404297 0)"/>
      <use xlink:href="#DejaVuSans-Bold-78" transform="translate(208.105469 0)"/>
      <use xlink:href="#DejaVuSans-Bold-61" transform="translate(272.607422 0)"/>
      <use xlink:href="#DejaVuSans-Bold-62" transform="translate(340.087891 0)"/>
      <use xlink:href="#DejaVuSans-Bold-61" transform="translate(411.669922 0)"/>
      <use xlink:href="#DejaVuSans-Bold-6e" transform="translate(479.150391 0)"/>
      <use xlink:href="#DejaVuSans-Bold-20" transform="translate(550.341797 0)"/>
      <use xlink:href="#DejaVuSans-Bold-70" transform="translate(585.15625 0)"/>
      <use xlink:href="#DejaVuSans-Bold-6c" transform="translate(656.738281 0)"/>
      <use xlink:href="#DejaVuSans-Bold-61" transform="translate(691.015625 0)"/>
      <use xlink:href="#DejaVuSans-Bold-73" transform="translate(758.496094 0)"/>
      <use xlink:href="#DejaVuSans-Bold-6d" transform="translate(818.017578 0)"/>
      <use xlink:href="#DejaVuSans-Bold-61" transform="translate(922.216797 0)"/>
      <use xlink:href="#DejaVuSans-Bold-20" transform="translate(989.697266 0)"/>
      <use xlink:href="#DejaVuSans-Bold-5b" transform="translate(1024.511719 0)"/>
      <use xlink:href="#DejaVuSans-Bold-6e" transform="translate(1070.214844 0)"/>
      <use xlink:href="#DejaVuSans-Bold-4d" transform="translate(1141.40625 0)"/>
      <use xlink:href="#DejaVuSans-Bold-5d" transform="translate(1240.917969 0)"/>
     </g>
    </g>
   </g>
   <g id="LineCollection_1">
    <path clip-path="url(#pc66f602bbf)" style="fill: none; stroke: #1f77b4"/>
    <path d="M 90.825982 298.466667 
L 90.825982 205.133333 
" clip-path="url(#pc66f602bbf)" style="fill: none; stroke: #1f77b4"/>
    <path d="M 92.417605 217.574667 
L 92.417605 86.908 
" clip-path="url(#pc66f602bbf)" style="fill: none; stroke: #1f77b4"/>
    <path d="M 94.009227 180.241333 
L 94.009227 55.8 
" clip-path="url(#pc66f602bbf)" style="fill: none; stroke: #1f77b4"/>
    <path d="M 95.600849 174.025333 
L 95.600849 68.241333 
" clip-path="url(#pc66f602bbf)" style="fill: none; stroke: #1f77b4"/>
    <path d="M 97.192471 177.133333 
L 97.192471 83.8 
" clip-path="url(#pc66f602bbf)" style="fill: none; stroke: #1f77b4"/>
    <path d="M 98.784093 189.574667 
L 98.784093 96.241333 
" clip-path="url(#pc66f602bbf)" style="fill: none; stroke: #1f77b4"/>
    <path d="M 100.375715 202.025333 
L 100.375715 133.574667 
" clip-path="url(#pc66f602bbf)" style="fill: none; stroke: #1f77b4"/>
    <path d="M 105.150582 220.687333 
L 105.150582 164.687333 
" clip-path="url(#pc66f602bbf)" style="fill: none; stroke: #1f77b4"/>
    <path d="M 108.333826 236.246 
L 108.333826 192.687333 
" clip-path="url(#pc66f602bbf)" style="fill: none; stroke: #1f77b4"/>
    <path d="M 114.700315 261.128667 
L 114.700315 230.020667 
" clip-path="url(#pc66f602bbf)" style="fill: none; stroke: #1f77b4"/>
    <path d="M 127.433293 292.241333 
L 127.433293 273.574667 
" clip-path="url(#pc66f602bbf)" style="fill: none; stroke: #1f77b4"/>
    <path clip-path="url(#pc66f602bbf)" style="fill: none; stroke: #1f77b4"/>
    <path clip-path="url(#pc66f602bbf)" style="fill: none; stroke: #1f77b4"/>
    <path clip-path="url(#pc66f602bbf)" style="fill: none; stroke: #1f77b4"/>
    <path clip-path="url(#pc66f602bbf)" style="fill: none; stroke: #1f77b4"/>
    <path clip-path="url(#pc66f602bbf)" style="fill: none; stroke: #1f77b4"/>
    <path clip-path="url(#pc66f602bbf)" style="fill: none; stroke: #1f77b4"/>
    <path clip-path="url(#pc66f602bbf)" style="fill: none; stroke: #1f77b4"/>
   </g>
   <g id="LineCollection_2">
    <path clip-path="url(#pc66f602bbf)" style="fill: none; stroke: #000000"/>
    <path d="M 90.825982 307.8 
L 90.825982 233.133333 
" clip-path="url(#pc66f602bbf)" style="fill: none; stroke: #000000"/>
    <path d="M 92.417605 254.908 
L 92.417605 167.8 
" clip-path="url(#pc66f602bbf)" style="fill: none; stroke: #000000"/>
    <path d="M 94.009227 245.579333 
L 94.009227 164.687333 
" clip-path="url(#pc66f602bbf)" style="fill: none; stroke: #000000"/>
    <path d="M 95.600849 248.687333 
L 95.600849 174.020667 
" clip-path="url(#pc66f602bbf)" style="fill: none; stroke: #000000"/>
    <path d="M 97.192471 248.682667 
L 97.192471 186.466667 
" clip-path="url(#pc66f602bbf)" style="fill: none; stroke: #000000"/>
    <path d="M 98.784093 261.133333 
L 98.784093 198.908 
" clip-path="url(#pc66f602bbf)" style="fill: none; stroke: #000000"/>
    <path d="M 100.375715 267.358667 
L 100.375715 217.574667 
" clip-path="url(#pc66f602bbf)" style="fill: none; stroke: #000000"/>
    <path d="M 105.150582 276.682667 
L 105.150582 233.133333 
" clip-path="url(#pc66f602bbf)" style="fill: none; stroke: #000000"/>
    <path d="M 108.333826 282.908 
L 108.333826 245.574667 
" clip-path="url(#pc66f602bbf)" style="fill: none; stroke: #000000"/>
    <path d="M 114.700315 286.020667 
L 114.700315 267.354 
" clip-path="url(#pc66f602bbf)" style="fill: none; stroke: #000000"/>
    <path clip-path="url(#pc66f602bbf)" style="fill: none; stroke: #000000"/>
    <path clip-path="url(#pc66f602bbf)" style="fill: none; stroke: #000000"/>
    <path clip-path="url(#pc66f602bbf)" style="fill: none; stroke: #000000"/>
    <path clip-path="url(#pc66f602bbf)" style="fill: none; stroke: #000000"/>
    <path clip-path="url(#pc66f602bbf)" style="fill: none; stroke: #000000"/>
    <path clip-path="url(#pc66f602bbf)" style="fill: none; stroke: #000000"/>
    <path clip-path="url(#pc66f602bbf)" style="fill: none; stroke: #000000"/>
    <path clip-path="url(#pc66f602bbf)" style="fill: none; stroke: #000000"/>
   </g>
   <g id="line2d_13">
    <path d="M 89.23436 304.687333 
L 89.85191 290.793605 
L 91.087008 247.421399 
L 91.704558 232.753071 
L 92.322107 222.881344 
L 92.939657 216.82762 
L 93.557206 213.690297 
L 94.174755 212.735175 
L 94.792305 213.386453 
L 95.409854 215.198866 
L 96.027404 217.830507 
L 97.262502 224.569584 
L 102.202898 254.032224 
L 104.055546 263.02904 
L 105.908194 270.595144 
L 107.760842 276.865589 
L 109.613491 282.019789 
L 111.466139 286.236668 
L 113.318787 289.677386 
L 115.171435 292.480415 
L 117.024083 294.761866 
L 118.876732 296.617806 
L 120.72938 298.127131 
L 122.582028 299.354352 
L 124.434676 300.352092 
L 126.904874 301.398342 
L 129.375072 302.192123 
L 132.462819 302.920646 
L 136.168115 303.519931 
L 140.490961 303.967403 
L 146.048906 304.300628 
L 154.077048 304.52975 
L 167.663135 304.652841 
L 206.568748 304.686888 
L 398.009064 304.687333 
L 398.009064 304.687333 
" clip-path="url(#pc66f602bbf)" style="fill: none; stroke: #1f77b4; stroke-width: 2; stroke-linecap: square"/>
   </g>
   <g id="line2d_14">
    <path d="M 89.23436 304.687333 
L 90.825982 251.8 
L 92.417605 152.241333 
L 94.009227 118.020667 
L 95.600849 121.133333 
L 97.192471 130.466667 
L 98.784093 142.908 
L 100.375715 167.8 
L 105.150582 192.687333 
L 108.333826 214.466667 
L 114.700315 245.574667 
L 127.433293 282.908 
L 140.16627 289.278 
L 165.632225 295.354 
L 203.831157 298.084 
L 242.03009 302.484667 
L 280.229022 303.586 
L 318.427955 304.127333 
L 394.825819 304.687333 
" clip-path="url(#pc66f602bbf)" style="fill: none; stroke-dasharray: 3.7,1.6; stroke-dashoffset: 0; stroke: #1f77b4"/>
    <defs>
     <path id="m22099db49f" d="M -3 3 
L 3 3 
L 3 -3 
L -3 -3 
z
" style="stroke: #000000; stroke-linejoin: miter"/>
    </defs>
    <g clip-path="url(#pc66f602bbf)">
     <use xlink:href="#m22099db49f" x="89.23436" y="304.687333" style="fill: #1f77b4; stroke: #000000; stroke-linejoin: miter"/>
     <use xlink:href="#m22099db49f" x="90.825982" y="251.8" style="fill: #1f77b4; stroke: #000000; stroke-linejoin: miter"/>
     <use xlink:href="#m22099db49f" x="92.417605" y="152.241333" style="fill: #1f77b4; stroke: #000000; stroke-linejoin: miter"/>
     <use xlink:href="#m22099db49f" x="94.009227" y="118.020667" style="fill: #1f77b4; stroke: #000000; stroke-linejoin: miter"/>
     <use xlink:href="#m22099db49f" x="95.600849" y="121.133333" style="fill: #1f77b4; stroke: #000000; stroke-linejoin: miter"/>
     <use xlink:href="#m22099db49f" x="97.192471" y="130.466667" style="fill: #1f77b4; stroke: #000000; stroke-linejoin: miter"/>
     <use xlink:href="#m22099db49f" x="98.784093" y="142.908" style="fill: #1f77b4; stroke: #000000; stroke-linejoin: miter"/>
     <use xlink:href="#m22099db49f" x="100.375715" y="167.8" style="fill: #1f77b4; stroke: #000000; stroke-linejoin: miter"/>
     <use xlink:href="#m22099db49f" x="105.150582" y="192.687333" style="fill: #1f77b4; stroke: #000000; stroke-linejoin: miter"/>
     <use xlink:href="#m22099db49f" x="108.333826" y="214.466667" style="fill: #1f77b4; stroke: #000000; stroke-linejoin: miter"/>
     <use xlink:href="#m22099db49f" x="114.700315" y="245.574667" style="fill: #1f77b4; stroke: #000000; stroke-linejoin: miter"/>
     <use xlink:href="#m22099db49f" x="127.433293" y="282.908" style="fill: #1f77b4; stroke: #000000; stroke-linejoin: miter"/>
     <use xlink:href="#m22099db49f" x="140.16627" y="289.278" style="fill: #1f77b4; stroke: #000000; stroke-linejoin: miter"/>
     <use xlink:href="#m22099db49f" x="165.632225" y="295.354" style="fill: #1f77b4; stroke: #000000; stroke-linejoin: miter"/>
     <use xlink:href="#m22099db49f" x="203.831157" y="298.084" style="fill: #1f77b4; stroke: #000000; stroke-linejoin: miter"/>
     <use xlink:href="#m22099db49f" x="242.03009" y="302.484667" style="fill: #1f77b4; stroke: #000000; stroke-linejoin: miter"/>
     <use xlink:href="#m22099db49f" x="280.229022" y="303.586" style="fill: #1f77b4; stroke: #000000; stroke-linejoin: miter"/>
     <use xlink:href="#m22099db49f" x="318.427955" y="304.127333" style="fill: #1f77b4; stroke: #000000; stroke-linejoin: miter"/>
     <use xlink:href="#m22099db49f" x="394.825819" y="304.687333" style="fill: #1f77b4; stroke: #000000; stroke-linejoin: miter"/>
    </g>
   </g>
   <g id="line2d_15">
    <path d="M 89.23436 304.687333 
L 89.85191 290.793605 
L 91.087008 247.421399 
L 91.704558 232.753071 
L 92.322107 222.881344 
L 92.939657 216.82762 
L 93.557206 213.690297 
L 94.174755 212.735175 
L 94.792305 213.386453 
L 95.409854 215.198866 
L 96.027404 217.830507 
L 97.262502 224.569584 
L 102.202898 254.032224 
L 104.055546 263.02904 
L 105.908194 270.595144 
L 107.760842 276.865589 
L 109.613491 282.019789 
L 111.466139 286.236668 
L 113.318787 289.677386 
L 115.171435 292.480415 
L 117.024083 294.761866 
L 118.876732 296.617806 
L 120.72938 298.127131 
L 122.582028 299.354352 
L 124.434676 300.352092 
L 126.904874 301.398342 
L 129.375072 302.192123 
L 132.462819 302.920646 
L 136.168115 303.519931 
L 140.490961 303.967403 
L 146.048906 304.300628 
L 154.077048 304.52975 
L 167.663135 304.652841 
L 206.568748 304.686888 
L 398.009064 304.687333 
L 398.009064 304.687333 
" clip-path="url(#pc66f602bbf)" style="fill: none; stroke: #000000; stroke-width: 2; stroke-linecap: square"/>
   </g>
   <g id="line2d_16">
    <path d="M 89.23436 304.687333 
L 90.825982 270.466667 
L 92.417605 211.354 
L 94.009227 205.133333 
L 95.600849 211.354 
L 97.192471 217.574667 
L 98.784093 230.020667 
L 100.375715 242.466667 
L 105.150582 254.908 
L 108.333826 264.241333 
L 114.700315 276.687333 
L 127.433293 288.176667 
L 140.16627 294.78 
L 165.632225 298.466667 
L 203.831157 300.286667 
L 242.03009 303.586 
L 280.229022 303.987333 
L 318.427955 304.337333 
L 394.825819 304.687333 
" clip-path="url(#pc66f602bbf)" style="fill: none; stroke-dasharray: 3.7,1.6; stroke-dashoffset: 0; stroke: #000000"/>
    <defs>
     <path id="mdec92c7fb6" d="M -3 3 
L 3 3 
L 3 -3 
L -3 -3 
z
" style="stroke: #000000; stroke-linejoin: miter"/>
    </defs>
    <g clip-path="url(#pc66f602bbf)">
     <use xlink:href="#mdec92c7fb6" x="89.23436" y="304.687333" style="stroke: #000000; stroke-linejoin: miter"/>
     <use xlink:href="#mdec92c7fb6" x="90.825982" y="270.466667" style="stroke: #000000; stroke-linejoin: miter"/>
     <use xlink:href="#mdec92c7fb6" x="92.417605" y="211.354" style="stroke: #000000; stroke-linejoin: miter"/>
     <use xlink:href="#mdec92c7fb6" x="94.009227" y="205.133333" style="stroke: #000000; stroke-linejoin: miter"/>
     <use xlink:href="#mdec92c7fb6" x="95.600849" y="211.354" style="stroke: #000000; stroke-linejoin: miter"/>
     <use xlink:href="#mdec92c7fb6" x="97.192471" y="217.574667" style="stroke: #000000; stroke-linejoin: miter"/>
     <use xlink:href="#mdec92c7fb6" x="98.784093" y="230.020667" style="stroke: #000000; stroke-linejoin: miter"/>
     <use xlink:href="#mdec92c7fb6" x="100.375715" y="242.466667" style="stroke: #000000; stroke-linejoin: miter"/>
     <use xlink:href="#mdec92c7fb6" x="105.150582" y="254.908" style="stroke: #000000; stroke-linejoin: miter"/>
     <use xlink:href="#mdec92c7fb6" x="108.333826" y="264.241333" style="stroke: #000000; stroke-linejoin: miter"/>
     <use xlink:href="#mdec92c7fb6" x="114.700315" y="276.687333" style="stroke: #000000; stroke-linejoin: miter"/>
     <use xlink:href="#mdec92c7fb6" x="127.433293" y="288.176667" style="stroke: #000000; stroke-linejoin: miter"/>
     <use xlink:href="#mdec92c7fb6" x="140.16627" y="294.78" style="stroke: #000000; stroke-linejoin: miter"/>
     <use xlink:href="#mdec92c7fb6" x="165.632225" y="298.466667" style="stroke: #000000; stroke-linejoin: miter"/>
     <use xlink:href="#mdec92c7fb6" x="203.831157" y="300.286667" style="stroke: #000000; stroke-linejoin: miter"/>
     <use xlink:href="#mdec92c7fb6" x="242.03009" y="303.586" style="stroke: #000000; stroke-linejoin: miter"/>
     <use xlink:href="#mdec92c7fb6" x="280.229022" y="303.987333" style="stroke: #000000; stroke-linejoin: miter"/>
     <use xlink:href="#mdec92c7fb6" x="318.427955" y="304.337333" style="stroke: #000000; stroke-linejoin: miter"/>
     <use xlink:href="#mdec92c7fb6" x="394.825819" y="304.687333" style="stroke: #000000; stroke-linejoin: miter"/>
    </g>
   </g>
   <g id="patch_3">
    <path d="M 73.795625 320.4 
L 73.795625 43.2 
" style="fill: none; stroke: #000000; stroke-width: 0.8; stroke-linejoin: miter; stroke-linecap: square"/>
   </g>
   <g id="patch_4">
    <path d="M 413.447799 320.4 
L 413.447799 43.2 
" style="fill: none; stroke: #000000; stroke-width: 0.8; stroke-linejoin: miter; stroke-linecap: square"/>
   </g>
   <g id="patch_5">
    <path d="M 73.795625 320.4 
L 413.447799 320.4 
" style="fill: none; stroke: #000000; stroke-width: 0.8; stroke-linejoin: miter; stroke-linecap: square"/>
   </g>
   <g id="patch_6">
    <path d="M 73.795625 43.2 
L 413.447799 43.2 
" style="fill: none; stroke: #000000; stroke-width: 0.8; stroke-linejoin: miter; stroke-linecap: square"/>
   </g>
   <g id="legend_1">
    <g id="patch_7">
     <path d="M 261.511861 109.9125 
L 406.447799 109.9125 
Q 408.447799 109.9125 408.447799 107.9125 
L 408.447799 50.2 
Q 408.447799 48.2 406.447799 48.2 
L 261.511861 48.2 
Q 259.511861 48.2 259.511861 50.2 
L 259.511861 107.9125 
Q 259.511861 109.9125 261.511861 109.9125 
z
" style="fill: #ffffff; opacity: 0.8; stroke: #cccccc; stroke-linejoin: miter"/>
    </g>
    <g id="line2d_17">
     <path d="M 263.511861 56.298437 
L 283.511861 56.298437 
" style="fill: none; stroke: #1f77b4; stroke-width: 2; stroke-linecap: square"/>
    </g>
    <g id="line2d_18"/>
    <g id="text_15">
     <!-- ED60, KET -->
     <g transform="translate(291.511861 59.798437) scale(0.1 -0.1)">
      <defs>
       <path id="DejaVuSans-45" d="M 628 4666 
L 3578 4666 
L 3578 4134 
L 1259 4134 
L 1259 2753 
L 3481 2753 
L 3481 2222 
L 1259 2222 
L 1259 531 
L 3634 531 
L 3634 0 
L 628 0 
L 628 4666 
z
" transform="scale(0.015625)"/>
       <path id="DejaVuSans-44" d="M 1259 4147 
L 1259 519 
L 2022 519 
Q 2988 519 3436 956 
Q 3884 1394 3884 2338 
Q 3884 3275 3436 3711 
Q 2988 4147 2022 4147 
L 1259 4147 
z
M 628 4666 
L 1925 4666 
Q 3281 4666 3915 4102 
Q 4550 3538 4550 2338 
Q 4550 1131 3912 565 
Q 3275 0 1925 0 
L 628 0 
L 628 4666 
z
" transform="scale(0.015625)"/>
       <path id="DejaVuSans-2c" d="M 750 794 
L 1409 794 
L 1409 256 
L 897 -744 
L 494 -744 
L 750 256 
L 750 794 
z
" transform="scale(0.015625)"/>
       <path id="DejaVuSans-20" transform="scale(0.015625)"/>
       <path id="DejaVuSans-4b" d="M 628 4666 
L 1259 4666 
L 1259 2694 
L 3353 4666 
L 4166 4666 
L 1850 2491 
L 4331 0 
L 3500 0 
L 1259 2247 
L 1259 0 
L 628 0 
L 628 4666 
z
" transform="scale(0.015625)"/>
       <path id="DejaVuSans-54" d="M -19 4666 
L 3928 4666 
L 3928 4134 
L 2272 4134 
L 2272 0 
L 1638 0 
L 1638 4134 
L -19 4134 
L -19 4666 
z
" transform="scale(0.015625)"/>
      </defs>
      <use xlink:href="#DejaVuSans-45"/>
      <use xlink:href="#DejaVuSans-44" transform="translate(63.183594 0)"/>
      <use xlink:href="#DejaVuSans-36" transform="translate(140.185547 0)"/>
      <use xlink:href="#DejaVuSans-30" transform="translate(203.808594 0)"/>
      <use xlink:href="#DejaVuSans-2c" transform="translate(267.431641 0)"/>
      <use xlink:href="#DejaVuSans-20" transform="translate(299.21875 0)"/>
      <use xlink:href="#DejaVuSans-4b" transform="translate(331.005859 0)"/>
      <use xlink:href="#DejaVuSans-45" transform="translate(396.582031 0)"/>
      <use xlink:href="#DejaVuSans-54" transform="translate(459.765625 0)"/>
     </g>
    </g>
    <g id="LineCollection_3">
     <path d="M 273.511861 75.976562 
L 273.511861 65.976562 
" style="fill: none; stroke: #1f77b4"/>
    </g>
    <g id="line2d_19">
     <path d="M 263.511861 70.976562 
L 283.511861 70.976562 
" style="fill: none; stroke-dasharray: 3.7,1.6; stroke-dashoffset: 0; stroke: #1f77b4"/>
    </g>
    <g id="line2d_20">
     <g>
      <use xlink:href="#m22099db49f" x="273.511861" y="70.976562" style="fill: #1f77b4; stroke: #000000; stroke-linejoin: miter"/>
     </g>
    </g>
    <g id="text_16">
     <!-- ED60, KET±SD (n=38) -->
     <g transform="translate(291.511861 74.476562) scale(0.1 -0.1)">
      <defs>
       <path id="DejaVuSans-b1" d="M 2944 4013 
L 2944 2803 
L 4684 2803 
L 4684 2272 
L 2944 2272 
L 2944 1063 
L 2419 1063 
L 2419 2272 
L 678 2272 
L 678 2803 
L 2419 2803 
L 2419 4013 
L 2944 4013 
z
M 678 531 
L 4684 531 
L 4684 0 
L 678 0 
L 678 531 
z
" transform="scale(0.015625)"/>
       <path id="DejaVuSans-53" d="M 3425 4513 
L 3425 3897 
Q 3066 4069 2747 4153 
Q 2428 4238 2131 4238 
Q 1616 4238 1336 4038 
Q 1056 3838 1056 3469 
Q 1056 3159 1242 3001 
Q 1428 2844 1947 2747 
L 2328 2669 
Q 3034 2534 3370 2195 
Q 3706 1856 3706 1288 
Q 3706 609 3251 259 
Q 2797 -91 1919 -91 
Q 1588 -91 1214 -16 
Q 841 59 441 206 
L 441 856 
Q 825 641 1194 531 
Q 1563 422 1919 422 
Q 2459 422 2753 634 
Q 3047 847 3047 1241 
Q 3047 1584 2836 1778 
Q 2625 1972 2144 2069 
L 1759 2144 
Q 1053 2284 737 2584 
Q 422 2884 422 3419 
Q 422 4038 858 4394 
Q 1294 4750 2059 4750 
Q 2388 4750 2728 4690 
Q 3069 4631 3425 4513 
z
" transform="scale(0.015625)"/>
       <path id="DejaVuSans-28" d="M 1984 4856 
Q 1566 4138 1362 3434 
Q 1159 2731 1159 2009 
Q 1159 1288 1364 580 
Q 1569 -128 1984 -844 
L 1484 -844 
Q 1016 -109 783 600 
Q 550 1309 550 2009 
Q 550 2706 781 3412 
Q 1013 4119 1484 4856 
L 1984 4856 
z
" transform="scale(0.015625)"/>
       <path id="DejaVuSans-6e" d="M 3513 2113 
L 3513 0 
L 2938 0 
L 2938 2094 
Q 2938 2591 2744 2837 
Q 2550 3084 2163 3084 
Q 1697 3084 1428 2787 
Q 1159 2491 1159 1978 
L 1159 0 
L 581 0 
L 581 3500 
L 1159 3500 
L 1159 2956 
Q 1366 3272 1645 3428 
Q 1925 3584 2291 3584 
Q 2894 3584 3203 3211 
Q 3513 2838 3513 2113 
z
" transform="scale(0.015625)"/>
       <path id="DejaVuSans-3d" d="M 678 2906 
L 4684 2906 
L 4684 2381 
L 678 2381 
L 678 2906 
z
M 678 1631 
L 4684 1631 
L 4684 1100 
L 678 1100 
L 678 1631 
z
" transform="scale(0.015625)"/>
       <path id="DejaVuSans-33" d="M 2597 2516 
Q 3050 2419 3304 2112 
Q 3559 1806 3559 1356 
Q 3559 666 3084 287 
Q 2609 -91 1734 -91 
Q 1441 -91 1130 -33 
Q 819 25 488 141 
L 488 750 
Q 750 597 1062 519 
Q 1375 441 1716 441 
Q 2309 441 2620 675 
Q 2931 909 2931 1356 
Q 2931 1769 2642 2001 
Q 2353 2234 1838 2234 
L 1294 2234 
L 1294 2753 
L 1863 2753 
Q 2328 2753 2575 2939 
Q 2822 3125 2822 3475 
Q 2822 3834 2567 4026 
Q 2313 4219 1838 4219 
Q 1578 4219 1281 4162 
Q 984 4106 628 3988 
L 628 4550 
Q 988 4650 1302 4700 
Q 1616 4750 1894 4750 
Q 2613 4750 3031 4423 
Q 3450 4097 3450 3541 
Q 3450 3153 3228 2886 
Q 3006 2619 2597 2516 
z
" transform="scale(0.015625)"/>
       <path id="DejaVuSans-29" d="M 513 4856 
L 1013 4856 
Q 1481 4119 1714 3412 
Q 1947 2706 1947 2009 
Q 1947 1309 1714 600 
Q 1481 -109 1013 -844 
L 513 -844 
Q 928 -128 1133 580 
Q 1338 1288 1338 2009 
Q 1338 2731 1133 3434 
Q 928 4138 513 4856 
z
" transform="scale(0.015625)"/>
      </defs>
      <use xlink:href="#DejaVuSans-45"/>
      <use xlink:href="#DejaVuSans-44" transform="translate(63.183594 0)"/>
      <use xlink:href="#DejaVuSans-36" transform="translate(140.185547 0)"/>
      <use xlink:href="#DejaVuSans-30" transform="translate(203.808594 0)"/>
      <use xlink:href="#DejaVuSans-2c" transform="translate(267.431641 0)"/>
      <use xlink:href="#DejaVuSans-20" transform="translate(299.21875 0)"/>
      <use xlink:href="#DejaVuSans-4b" transform="translate(331.005859 0)"/>
      <use xlink:href="#DejaVuSans-45" transform="translate(396.582031 0)"/>
      <use xlink:href="#DejaVuSans-54" transform="translate(459.765625 0)"/>
      <use xlink:href="#DejaVuSans-b1" transform="translate(520.849609 0)"/>
      <use xlink:href="#DejaVuSans-53" transform="translate(604.638672 0)"/>
      <use xlink:href="#DejaVuSans-44" transform="translate(668.115234 0)"/>
      <use xlink:href="#DejaVuSans-20" transform="translate(745.117188 0)"/>
      <use xlink:href="#DejaVuSans-28" transform="translate(776.904297 0)"/>
      <use xlink:href="#DejaVuSans-6e" transform="translate(815.917969 0)"/>
      <use xlink:href="#DejaVuSans-3d" transform="translate(879.296875 0)"/>
      <use xlink:href="#DejaVuSans-33" transform="translate(963.085938 0)"/>
      <use xlink:href="#DejaVuSans-38" transform="translate(1026.708984 0)"/>
      <use xlink:href="#DejaVuSans-29" transform="translate(1090.332031 0)"/>
     </g>
    </g>
    <g id="line2d_21">
     <path d="M 263.511861 85.654687 
L 283.511861 85.654687 
" style="fill: none; stroke: #000000; stroke-width: 2; stroke-linecap: square"/>
    </g>
    <g id="line2d_22"/>
    <g id="text_17">
     <!-- ED60 -->
     <g transform="translate(291.511861 89.154687) scale(0.1 -0.1)">
      <use xlink:href="#DejaVuSans-45"/>
      <use xlink:href="#DejaVuSans-44" transform="translate(63.183594 0)"/>
      <use xlink:href="#DejaVuSans-36" transform="translate(140.185547 0)"/>
      <use xlink:href="#DejaVuSans-30" transform="translate(203.808594 0)"/>
     </g>
    </g>
    <g id="LineCollection_4">
     <path d="M 273.511861 105.332812 
L 273.511861 95.332812 
" style="fill: none; stroke: #000000"/>
    </g>
    <g id="line2d_23">
     <path d="M 263.511861 100.332812 
L 283.511861 100.332812 
" style="fill: none; stroke-dasharray: 3.7,1.6; stroke-dashoffset: 0; stroke: #000000"/>
    </g>
    <g id="line2d_24">
     <g>
      <use xlink:href="#mdec92c7fb6" x="273.511861" y="100.332812" style="stroke: #000000; stroke-linejoin: miter"/>
     </g>
    </g>
    <g id="text_18">
     <!-- ED60±SD (n=39) -->
     <g transform="translate(291.511861 103.832812) scale(0.1 -0.1)">
      <defs>
       <path id="DejaVuSans-39" d="M 703 97 
L 703 672 
Q 941 559 1184 500 
Q 1428 441 1663 441 
Q 2288 441 2617 861 
Q 2947 1281 2994 2138 
Q 2813 1869 2534 1725 
Q 2256 1581 1919 1581 
Q 1219 1581 811 2004 
Q 403 2428 403 3163 
Q 403 3881 828 4315 
Q 1253 4750 1959 4750 
Q 2769 4750 3195 4129 
Q 3622 3509 3622 2328 
Q 3622 1225 3098 567 
Q 2575 -91 1691 -91 
Q 1453 -91 1209 -44 
Q 966 3 703 97 
z
M 1959 2075 
Q 2384 2075 2632 2365 
Q 2881 2656 2881 3163 
Q 2881 3666 2632 3958 
Q 2384 4250 1959 4250 
Q 1534 4250 1286 3958 
Q 1038 3666 1038 3163 
Q 1038 2656 1286 2365 
Q 1534 2075 1959 2075 
z
" transform="scale(0.015625)"/>
      </defs>
      <use xlink:href="#DejaVuSans-45"/>
      <use xlink:href="#DejaVuSans-44" transform="translate(63.183594 0)"/>
      <use xlink:href="#DejaVuSans-36" transform="translate(140.185547 0)"/>
      <use xlink:href="#DejaVuSans-30" transform="translate(203.808594 0)"/>
      <use xlink:href="#DejaVuSans-b1" transform="translate(267.431641 0)"/>
      <use xlink:href="#DejaVuSans-53" transform="translate(351.220703 0)"/>
      <use xlink:href="#DejaVuSans-44" transform="translate(414.697266 0)"/>
      <use xlink:href="#DejaVuSans-20" transform="translate(491.699219 0)"/>
      <use xlink:href="#DejaVuSans-28" transform="translate(523.486328 0)"/>
      <use xlink:href="#DejaVuSans-6e" transform="translate(562.5 0)"/>
      <use xlink:href="#DejaVuSans-3d" transform="translate(625.878906 0)"/>
      <use xlink:href="#DejaVuSans-33" transform="translate(709.667969 0)"/>
      <use xlink:href="#DejaVuSans-39" transform="translate(773.291016 0)"/>
      <use xlink:href="#DejaVuSans-29" transform="translate(836.914062 0)"/>
     </g>
    </g>
   </g>
  </g>
  <g id="axes_2">
   <g id="patch_8">
    <path d="M 515.343451 320.4 
L 854.995625 320.4 
L 854.995625 43.2 
L 515.343451 43.2 
z
" style="fill: #ffffff"/>
   </g>
   <g id="matplotlib.axis_3">
    <g id="xtick_7">
     <g id="line2d_25">
      <g>
       <use xlink:href="#mb24a1a11ee" x="530.782186" y="320.4" style="stroke: #000000; stroke-width: 0.8"/>
      </g>
     </g>
     <g id="text_19">
      <!-- 0 -->
      <g transform="translate(526.010311 338.797656) scale(0.15 -0.15)">
       <use xlink:href="#DejaVuSans-30"/>
      </g>
     </g>
    </g>
    <g id="xtick_8">
     <g id="line2d_26">
      <g>
       <use xlink:href="#mb24a1a11ee" x="594.447074" y="320.4" style="stroke: #000000; stroke-width: 0.8"/>
      </g>
     </g>
     <g id="text_20">
      <!-- 20 -->
      <g transform="translate(584.903324 338.797656) scale(0.15 -0.15)">
       <use xlink:href="#DejaVuSans-32"/>
       <use xlink:href="#DejaVuSans-30" transform="translate(63.623047 0)"/>
      </g>
     </g>
    </g>
    <g id="xtick_9">
     <g id="line2d_27">
      <g>
       <use xlink:href="#mb24a1a11ee" x="658.111961" y="320.4" style="stroke: #000000; stroke-width: 0.8"/>
      </g>
     </g>
     <g id="text_21">
      <!-- 40 -->
      <g transform="translate(648.568211 338.797656) scale(0.15 -0.15)">
       <use xlink:href="#DejaVuSans-34"/>
       <use xlink:href="#DejaVuSans-30" transform="translate(63.623047 0)"/>
      </g>
     </g>
    </g>
    <g id="xtick_10">
     <g id="line2d_28">
      <g>
       <use xlink:href="#mb24a1a11ee" x="721.776848" y="320.4" style="stroke: #000000; stroke-width: 0.8"/>
      </g>
     </g>
     <g id="text_22">
      <!-- 60 -->
      <g transform="translate(712.233098 338.797656) scale(0.15 -0.15)">
       <use xlink:href="#DejaVuSans-36"/>
       <use xlink:href="#DejaVuSans-30" transform="translate(63.623047 0)"/>
      </g>
     </g>
    </g>
    <g id="xtick_11">
     <g id="line2d_29">
      <g>
       <use xlink:href="#mb24a1a11ee" x="785.441736" y="320.4" style="stroke: #000000; stroke-width: 0.8"/>
      </g>
     </g>
     <g id="text_23">
      <!-- 80 -->
      <g transform="translate(775.897986 338.797656) scale(0.15 -0.15)">
       <use xlink:href="#DejaVuSans-38"/>
       <use xlink:href="#DejaVuSans-30" transform="translate(63.623047 0)"/>
      </g>
     </g>
    </g>
    <g id="xtick_12">
     <g id="line2d_30">
      <g>
       <use xlink:href="#mb24a1a11ee" x="849.106623" y="320.4" style="stroke: #000000; stroke-width: 0.8"/>
      </g>
     </g>
     <g id="text_24">
      <!-- 100 -->
      <g transform="translate(834.790998 338.797656) scale(0.15 -0.15)">
       <use xlink:href="#DejaVuSans-31"/>
       <use xlink:href="#DejaVuSans-30" transform="translate(63.623047 0)"/>
       <use xlink:href="#DejaVuSans-30" transform="translate(127.246094 0)"/>
      </g>
     </g>
    </g>
    <g id="text_25">
     <!-- time [hr] -->
     <g transform="translate(640.095007 359.594375) scale(0.18 -0.18)">
      <use xlink:href="#DejaVuSans-Bold-74"/>
      <use xlink:href="#DejaVuSans-Bold-69" transform="translate(47.802734 0)"/>
      <use xlink:href="#DejaVuSans-Bold-6d" transform="translate(82.080078 0)"/>
      <use xlink:href="#DejaVuSans-Bold-65" transform="translate(186.279297 0)"/>
      <use xlink:href="#DejaVuSans-Bold-20" transform="translate(254.101562 0)"/>
      <use xlink:href="#DejaVuSans-Bold-5b" transform="translate(288.916016 0)"/>
      <use xlink:href="#DejaVuSans-Bold-68" transform="translate(334.619141 0)"/>
      <use xlink:href="#DejaVuSans-Bold-72" transform="translate(405.810547 0)"/>
      <use xlink:href="#DejaVuSans-Bold-5d" transform="translate(455.126953 0)"/>
     </g>
    </g>
   </g>
   <g id="matplotlib.axis_4">
    <g id="ytick_7">
     <g id="line2d_31">
      <g>
       <use xlink:href="#m0a77b892f6" x="515.343451" y="305.044065" style="stroke: #000000; stroke-width: 0.8"/>
      </g>
     </g>
     <g id="text_26">
      <!-- 0 -->
      <g transform="translate(498.799701 310.742893) scale(0.15 -0.15)">
       <use xlink:href="#DejaVuSans-30"/>
      </g>
     </g>
    </g>
    <g id="ytick_8">
     <g id="line2d_32">
      <g>
       <use xlink:href="#m0a77b892f6" x="515.343451" y="270.023526" style="stroke: #000000; stroke-width: 0.8"/>
      </g>
     </g>
     <g id="text_27">
      <!-- 10 -->
      <g transform="translate(489.255951 275.722354) scale(0.15 -0.15)">
       <use xlink:href="#DejaVuSans-31"/>
       <use xlink:href="#DejaVuSans-30" transform="translate(63.623047 0)"/>
      </g>
     </g>
    </g>
    <g id="ytick_9">
     <g id="line2d_33">
      <g>
       <use xlink:href="#m0a77b892f6" x="515.343451" y="235.002987" style="stroke: #000000; stroke-width: 0.8"/>
      </g>
     </g>
     <g id="text_28">
      <!-- 20 -->
      <g transform="translate(489.255951 240.701816) scale(0.15 -0.15)">
       <use xlink:href="#DejaVuSans-32"/>
       <use xlink:href="#DejaVuSans-30" transform="translate(63.623047 0)"/>
      </g>
     </g>
    </g>
    <g id="ytick_10">
     <g id="line2d_34">
      <g>
       <use xlink:href="#m0a77b892f6" x="515.343451" y="199.982449" style="stroke: #000000; stroke-width: 0.8"/>
      </g>
     </g>
     <g id="text_29">
      <!-- 30 -->
      <g transform="translate(489.255951 205.681277) scale(0.15 -0.15)">
       <use xlink:href="#DejaVuSans-33"/>
       <use xlink:href="#DejaVuSans-30" transform="translate(63.623047 0)"/>
      </g>
     </g>
    </g>
    <g id="ytick_11">
     <g id="line2d_35">
      <g>
       <use xlink:href="#m0a77b892f6" x="515.343451" y="164.96191" style="stroke: #000000; stroke-width: 0.8"/>
      </g>
     </g>
     <g id="text_30">
      <!-- 40 -->
      <g transform="translate(489.255951 170.660738) scale(0.15 -0.15)">
       <use xlink:href="#DejaVuSans-34"/>
       <use xlink:href="#DejaVuSans-30" transform="translate(63.623047 0)"/>
      </g>
     </g>
    </g>
    <g id="ytick_12">
     <g id="line2d_36">
      <g>
       <use xlink:href="#m0a77b892f6" x="515.343451" y="129.941371" style="stroke: #000000; stroke-width: 0.8"/>
      </g>
     </g>
     <g id="text_31">
      <!-- 50 -->
      <g transform="translate(489.255951 135.640199) scale(0.15 -0.15)">
       <defs>
        <path id="DejaVuSans-35" d="M 691 4666 
L 3169 4666 
L 3169 4134 
L 1269 4134 
L 1269 2991 
Q 1406 3038 1543 3061 
Q 1681 3084 1819 3084 
Q 2600 3084 3056 2656 
Q 3513 2228 3513 1497 
Q 3513 744 3044 326 
Q 2575 -91 1722 -91 
Q 1428 -91 1123 -41 
Q 819 9 494 109 
L 494 744 
Q 775 591 1075 516 
Q 1375 441 1709 441 
Q 2250 441 2565 725 
Q 2881 1009 2881 1497 
Q 2881 1984 2565 2268 
Q 2250 2553 1709 2553 
Q 1456 2553 1204 2497 
Q 953 2441 691 2322 
L 691 4666 
z
" transform="scale(0.015625)"/>
       </defs>
       <use xlink:href="#DejaVuSans-35"/>
       <use xlink:href="#DejaVuSans-30" transform="translate(63.623047 0)"/>
      </g>
     </g>
    </g>
    <g id="ytick_13">
     <g id="line2d_37">
      <g>
       <use xlink:href="#m0a77b892f6" x="515.343451" y="94.920832" style="stroke: #000000; stroke-width: 0.8"/>
      </g>
     </g>
     <g id="text_32">
      <!-- 60 -->
      <g transform="translate(489.255951 100.61966) scale(0.15 -0.15)">
       <use xlink:href="#DejaVuSans-36"/>
       <use xlink:href="#DejaVuSans-30" transform="translate(63.623047 0)"/>
      </g>
     </g>
    </g>
    <g id="ytick_14">
     <g id="line2d_38">
      <g>
       <use xlink:href="#m0a77b892f6" x="515.343451" y="59.900293" style="stroke: #000000; stroke-width: 0.8"/>
      </g>
     </g>
     <g id="text_33">
      <!-- 70 -->
      <g transform="translate(489.255951 65.599122) scale(0.15 -0.15)">
       <defs>
        <path id="DejaVuSans-37" d="M 525 4666 
L 3525 4666 
L 3525 4397 
L 1831 0 
L 1172 0 
L 2766 4134 
L 525 4134 
L 525 4666 
z
" transform="scale(0.015625)"/>
       </defs>
       <use xlink:href="#DejaVuSans-37"/>
       <use xlink:href="#DejaVuSans-30" transform="translate(63.623047 0)"/>
      </g>
     </g>
    </g>
    <g id="text_34">
     <!-- M4 plasma [nM] -->
     <g transform="translate(481.512514 263.28375) rotate(-90) scale(0.18 -0.18)">
      <defs>
       <path id="DejaVuSans-Bold-34" d="M 2356 3675 
L 1038 1722 
L 2356 1722 
L 2356 3675 
z
M 2156 4666 
L 3494 4666 
L 3494 1722 
L 4159 1722 
L 4159 850 
L 3494 850 
L 3494 0 
L 2356 0 
L 2356 850 
L 288 850 
L 288 1881 
L 2156 4666 
z
" transform="scale(0.015625)"/>
      </defs>
      <use xlink:href="#DejaVuSans-Bold-4d"/>
      <use xlink:href="#DejaVuSans-Bold-34" transform="translate(99.511719 0)"/>
      <use xlink:href="#DejaVuSans-Bold-20" transform="translate(169.091797 0)"/>
      <use xlink:href="#DejaVuSans-Bold-70" transform="translate(203.90625 0)"/>
      <use xlink:href="#DejaVuSans-Bold-6c" transform="translate(275.488281 0)"/>
      <use xlink:href="#DejaVuSans-Bold-61" transform="translate(309.765625 0)"/>
      <use xlink:href="#DejaVuSans-Bold-73" transform="translate(377.246094 0)"/>
      <use xlink:href="#DejaVuSans-Bold-6d" transform="translate(436.767578 0)"/>
      <use xlink:href="#DejaVuSans-Bold-61" transform="translate(540.966797 0)"/>
      <use xlink:href="#DejaVuSans-Bold-20" transform="translate(608.447266 0)"/>
      <use xlink:href="#DejaVuSans-Bold-5b" transform="translate(643.261719 0)"/>
      <use xlink:href="#DejaVuSans-Bold-6e" transform="translate(688.964844 0)"/>
      <use xlink:href="#DejaVuSans-Bold-4d" transform="translate(760.15625 0)"/>
      <use xlink:href="#DejaVuSans-Bold-5d" transform="translate(859.667969 0)"/>
     </g>
    </g>
   </g>
   <g id="LineCollection_5">
    <path clip-path="url(#p924d8127dd)" style="fill: none; stroke: #1f77b4"/>
    <path d="M 532.373808 302.153694 
L 532.373808 284.945906 
" clip-path="url(#p924d8127dd)" style="fill: none; stroke: #1f77b4"/>
    <path d="M 533.965431 276.207575 
L 533.965431 161.937103 
" clip-path="url(#p924d8127dd)" style="fill: none; stroke: #1f77b4"/>
    <path d="M 535.557053 221.895492 
L 535.557053 84.63649 
" clip-path="url(#p924d8127dd)" style="fill: none; stroke: #1f77b4"/>
    <path d="M 537.148675 207.510856 
L 537.148675 70.251854 
" clip-path="url(#p924d8127dd)" style="fill: none; stroke: #1f77b4"/>
    <path d="M 538.740297 201.797333 
L 538.740297 58.757589 
" clip-path="url(#p924d8127dd)" style="fill: none; stroke: #1f77b4"/>
    <path d="M 540.331919 210.266791 
L 540.331919 55.8 
" clip-path="url(#p924d8127dd)" style="fill: none; stroke: #1f77b4"/>
    <path d="M 541.923542 218.73625 
L 541.923542 92.904294 
" clip-path="url(#p924d8127dd)" style="fill: none; stroke: #1f77b4"/>
    <path d="M 546.698408 232.919232 
L 546.698408 129.941371 
" clip-path="url(#p924d8127dd)" style="fill: none; stroke: #1f77b4"/>
    <path d="M 549.881652 249.925367 
L 549.881652 192.790131 
" clip-path="url(#p924d8127dd)" style="fill: none; stroke: #1f77b4"/>
    <path d="M 556.248141 269.754655 
L 556.248141 229.692771 
" clip-path="url(#p924d8127dd)" style="fill: none; stroke: #1f77b4"/>
    <path d="M 568.981119 286.4247 
L 568.981119 274.997653 
" clip-path="url(#p924d8127dd)" style="fill: none; stroke: #1f77b4"/>
    <path clip-path="url(#p924d8127dd)" style="fill: none; stroke: #1f77b4"/>
    <path clip-path="url(#p924d8127dd)" style="fill: none; stroke: #1f77b4"/>
    <path clip-path="url(#p924d8127dd)" style="fill: none; stroke: #1f77b4"/>
    <path clip-path="url(#p924d8127dd)" style="fill: none; stroke: #1f77b4"/>
    <path clip-path="url(#p924d8127dd)" style="fill: none; stroke: #1f77b4"/>
    <path clip-path="url(#p924d8127dd)" style="fill: none; stroke: #1f77b4"/>
    <path clip-path="url(#p924d8127dd)" style="fill: none; stroke: #1f77b4"/>
   </g>
   <g id="LineCollection_6">
    <path clip-path="url(#p924d8127dd)" style="fill: none; stroke: #000000"/>
    <path d="M 532.373808 307.8 
L 532.373808 284.945906 
" clip-path="url(#p924d8127dd)" style="fill: none; stroke: #000000"/>
    <path d="M 533.965431 279.232382 
L 533.965431 181.900827 
" clip-path="url(#p924d8127dd)" style="fill: none; stroke: #000000"/>
    <path d="M 535.557053 259.067005 
L 535.557053 121.808002 
" clip-path="url(#p924d8127dd)" style="fill: none; stroke: #000000"/>
    <path d="M 537.148675 247.572739 
L 537.148675 121.740784 
" clip-path="url(#p924d8127dd)" style="fill: none; stroke: #000000"/>
    <path d="M 538.740297 241.859216 
L 538.740297 133.100613 
" clip-path="url(#p924d8127dd)" style="fill: none; stroke: #000000"/>
    <path d="M 540.331919 250.395892 
L 540.331919 141.63729 
" clip-path="url(#p924d8127dd)" style="fill: none; stroke: #000000"/>
    <path d="M 541.923542 258.865351 
L 541.923542 172.960843 
" clip-path="url(#p924d8127dd)" style="fill: none; stroke: #000000"/>
    <path d="M 546.698408 264.444439 
L 546.698408 195.747719 
" clip-path="url(#p924d8127dd)" style="fill: none; stroke: #000000"/>
    <path d="M 549.881652 270.023526 
L 549.881652 229.961643 
" clip-path="url(#p924d8127dd)" style="fill: none; stroke: #000000"/>
    <path d="M 556.248141 292.608749 
L 556.248141 246.90056 
" clip-path="url(#p924d8127dd)" style="fill: none; stroke: #000000"/>
    <path d="M 568.981119 303.632489 
L 568.981119 274.997653 
" clip-path="url(#p924d8127dd)" style="fill: none; stroke: #000000"/>
    <path clip-path="url(#p924d8127dd)" style="fill: none; stroke: #000000"/>
    <path clip-path="url(#p924d8127dd)" style="fill: none; stroke: #000000"/>
    <path clip-path="url(#p924d8127dd)" style="fill: none; stroke: #000000"/>
    <path clip-path="url(#p924d8127dd)" style="fill: none; stroke: #000000"/>
    <path clip-path="url(#p924d8127dd)" style="fill: none; stroke: #000000"/>
    <path clip-path="url(#p924d8127dd)" style="fill: none; stroke: #000000"/>
    <path clip-path="url(#p924d8127dd)" style="fill: none; stroke: #000000"/>
   </g>
   <g id="line2d_39">
    <path d="M 530.782186 305.044065 
L 531.399736 298.506033 
L 532.017285 276.759556 
L 533.252384 220.547779 
L 533.869933 197.331369 
L 534.487483 179.749099 
L 535.105032 167.612758 
L 535.722582 160.188294 
L 536.340131 156.597416 
L 536.95768 156.001454 
L 537.57523 157.672198 
L 538.192779 161.008428 
L 539.427878 170.855039 
L 541.280526 189.083526 
L 543.750724 213.310343 
L 545.603372 229.260495 
L 547.45602 242.863595 
L 549.308668 254.224255 
L 550.543767 260.678755 
L 551.778866 266.340182 
L 553.013965 271.295377 
L 554.249064 275.626025 
L 555.484163 279.406959 
L 556.719261 282.705598 
L 558.57191 286.878794 
L 560.424558 290.274611 
L 562.277206 293.03668 
L 564.129854 295.282714 
L 565.982502 297.108857 
L 567.835151 298.593482 
L 569.687799 299.800398 
L 571.540447 300.781523 
L 574.010645 301.81028 
L 576.480842 302.590756 
L 579.568589 303.307054 
L 583.273886 303.896274 
L 587.596732 304.336229 
L 593.154676 304.663856 
L 601.182819 304.889129 
L 614.768906 305.010152 
L 653.674518 305.043628 
L 839.55689 305.044065 
L 839.55689 305.044065 
" clip-path="url(#p924d8127dd)" style="fill: none; stroke: #1f77b4; stroke-width: 2; stroke-linecap: square"/>
   </g>
   <g id="line2d_40">
    <path d="M 530.782186 305.044065 
L 532.373808 293.5498 
L 533.965431 219.072339 
L 535.557053 153.265991 
L 537.148675 138.881355 
L 538.740297 130.277461 
L 540.331919 133.033396 
L 541.923542 155.820272 
L 546.698408 181.430301 
L 549.881652 221.357749 
L 556.248141 249.723713 
L 568.981119 280.711176 
L 581.714096 294.558069 
L 607.180051 296.977914 
L 645.378983 302.153694 
L 683.577916 302.355348 
L 721.776848 303.699707 
L 759.975781 305.044065 
L 836.373645 305.044065 
" clip-path="url(#p924d8127dd)" style="fill: none; stroke-dasharray: 3.7,1.6; stroke-dashoffset: 0; stroke: #1f77b4"/>
    <g clip-path="url(#p924d8127dd)">
     <use xlink:href="#m22099db49f" x="530.782186" y="305.044065" style="fill: #1f77b4; stroke: #000000; stroke-linejoin: miter"/>
     <use xlink:href="#m22099db49f" x="532.373808" y="293.5498" style="fill: #1f77b4; stroke: #000000; stroke-linejoin: miter"/>
     <use xlink:href="#m22099db49f" x="533.965431" y="219.072339" style="fill: #1f77b4; stroke: #000000; stroke-linejoin: miter"/>
     <use xlink:href="#m22099db49f" x="535.557053" y="153.265991" style="fill: #1f77b4; stroke: #000000; stroke-linejoin: miter"/>
     <use xlink:href="#m22099db49f" x="537.148675" y="138.881355" style="fill: #1f77b4; stroke: #000000; stroke-linejoin: miter"/>
     <use xlink:href="#m22099db49f" x="538.740297" y="130.277461" style="fill: #1f77b4; stroke: #000000; stroke-linejoin: miter"/>
     <use xlink:href="#m22099db49f" x="540.331919" y="133.033396" style="fill: #1f77b4; stroke: #000000; stroke-linejoin: miter"/>
     <use xlink:href="#m22099db49f" x="541.923542" y="155.820272" style="fill: #1f77b4; stroke: #000000; stroke-linejoin: miter"/>
     <use xlink:href="#m22099db49f" x="546.698408" y="181.430301" style="fill: #1f77b4; stroke: #000000; stroke-linejoin: miter"/>
     <use xlink:href="#m22099db49f" x="549.881652" y="221.357749" style="fill: #1f77b4; stroke: #000000; stroke-linejoin: miter"/>
     <use xlink:href="#m22099db49f" x="556.248141" y="249.723713" style="fill: #1f77b4; stroke: #000000; stroke-linejoin: miter"/>
     <use xlink:href="#m22099db49f" x="568.981119" y="280.711176" style="fill: #1f77b4; stroke: #000000; stroke-linejoin: miter"/>
     <use xlink:href="#m22099db49f" x="581.714096" y="294.558069" style="fill: #1f77b4; stroke: #000000; stroke-linejoin: miter"/>
     <use xlink:href="#m22099db49f" x="607.180051" y="296.977914" style="fill: #1f77b4; stroke: #000000; stroke-linejoin: miter"/>
     <use xlink:href="#m22099db49f" x="645.378983" y="302.153694" style="fill: #1f77b4; stroke: #000000; stroke-linejoin: miter"/>
     <use xlink:href="#m22099db49f" x="683.577916" y="302.355348" style="fill: #1f77b4; stroke: #000000; stroke-linejoin: miter"/>
     <use xlink:href="#m22099db49f" x="721.776848" y="303.699707" style="fill: #1f77b4; stroke: #000000; stroke-linejoin: miter"/>
     <use xlink:href="#m22099db49f" x="759.975781" y="305.044065" style="fill: #1f77b4; stroke: #000000; stroke-linejoin: miter"/>
     <use xlink:href="#m22099db49f" x="836.373645" y="305.044065" style="fill: #1f77b4; stroke: #000000; stroke-linejoin: miter"/>
    </g>
   </g>
   <g id="line2d_41">
    <path d="M 530.782186 305.044065 
L 531.399736 298.506033 
L 532.017285 276.759556 
L 533.252384 220.547779 
L 533.869933 197.331369 
L 534.487483 179.749099 
L 535.105032 167.612758 
L 535.722582 160.188294 
L 536.340131 156.597416 
L 536.95768 156.001454 
L 537.57523 157.672198 
L 538.192779 161.008428 
L 539.427878 170.855039 
L 541.280526 189.083526 
L 543.750724 213.310343 
L 545.603372 229.260495 
L 547.45602 242.863595 
L 549.308668 254.224255 
L 550.543767 260.678755 
L 551.778866 266.340182 
L 553.013965 271.295377 
L 554.249064 275.626025 
L 555.484163 279.406959 
L 556.719261 282.705598 
L 558.57191 286.878794 
L 560.424558 290.274611 
L 562.277206 293.03668 
L 564.129854 295.282714 
L 565.982502 297.108857 
L 567.835151 298.593482 
L 569.687799 299.800398 
L 571.540447 300.781523 
L 574.010645 301.81028 
L 576.480842 302.590756 
L 579.568589 303.307054 
L 583.273886 303.896274 
L 587.596732 304.336229 
L 593.154676 304.663856 
L 601.182819 304.889129 
L 614.768906 305.010152 
L 653.674518 305.043628 
L 839.55689 305.044065 
L 839.55689 305.044065 
" clip-path="url(#p924d8127dd)" style="fill: none; stroke: #000000; stroke-width: 2; stroke-linecap: square"/>
   </g>
   <g id="line2d_42">
    <path d="M 530.782186 305.044065 
L 532.373808 296.372953 
L 533.965431 230.566604 
L 535.557053 190.437503 
L 537.148675 184.656762 
L 538.740297 187.479915 
L 540.331919 196.016591 
L 541.923542 215.913097 
L 546.698408 230.096079 
L 549.881652 249.992585 
L 556.248141 269.754655 
L 568.981119 289.315071 
L 581.714096 294.558069 
L 607.180051 299.330541 
L 645.378983 300.943772 
L 683.577916 302.355348 
L 721.776848 303.699707 
L 759.975781 305.044065 
L 836.373645 305.044065 
" clip-path="url(#p924d8127dd)" style="fill: none; stroke-dasharray: 3.7,1.6; stroke-dashoffset: 0; stroke: #000000"/>
    <g clip-path="url(#p924d8127dd)">
     <use xlink:href="#mdec92c7fb6" x="530.782186" y="305.044065" style="stroke: #000000; stroke-linejoin: miter"/>
     <use xlink:href="#mdec92c7fb6" x="532.373808" y="296.372953" style="stroke: #000000; stroke-linejoin: miter"/>
     <use xlink:href="#mdec92c7fb6" x="533.965431" y="230.566604" style="stroke: #000000; stroke-linejoin: miter"/>
     <use xlink:href="#mdec92c7fb6" x="535.557053" y="190.437503" style="stroke: #000000; stroke-linejoin: miter"/>
     <use xlink:href="#mdec92c7fb6" x="537.148675" y="184.656762" style="stroke: #000000; stroke-linejoin: miter"/>
     <use xlink:href="#mdec92c7fb6" x="538.740297" y="187.479915" style="stroke: #000000; stroke-linejoin: miter"/>
     <use xlink:href="#mdec92c7fb6" x="540.331919" y="196.016591" style="stroke: #000000; stroke-linejoin: miter"/>
     <use xlink:href="#mdec92c7fb6" x="541.923542" y="215.913097" style="stroke: #000000; stroke-linejoin: miter"/>
     <use xlink:href="#mdec92c7fb6" x="546.698408" y="230.096079" style="stroke: #000000; stroke-linejoin: miter"/>
     <use xlink:href="#mdec92c7fb6" x="549.881652" y="249.992585" style="stroke: #000000; stroke-linejoin: miter"/>
     <use xlink:href="#mdec92c7fb6" x="556.248141" y="269.754655" style="stroke: #000000; stroke-linejoin: miter"/>
     <use xlink:href="#mdec92c7fb6" x="568.981119" y="289.315071" style="stroke: #000000; stroke-linejoin: miter"/>
     <use xlink:href="#mdec92c7fb6" x="581.714096" y="294.558069" style="stroke: #000000; stroke-linejoin: miter"/>
     <use xlink:href="#mdec92c7fb6" x="607.180051" y="299.330541" style="stroke: #000000; stroke-linejoin: miter"/>
     <use xlink:href="#mdec92c7fb6" x="645.378983" y="300.943772" style="stroke: #000000; stroke-linejoin: miter"/>
     <use xlink:href="#mdec92c7fb6" x="683.577916" y="302.355348" style="stroke: #000000; stroke-linejoin: miter"/>
     <use xlink:href="#mdec92c7fb6" x="721.776848" y="303.699707" style="stroke: #000000; stroke-linejoin: miter"/>
     <use xlink:href="#mdec92c7fb6" x="759.975781" y="305.044065" style="stroke: #000000; stroke-linejoin: miter"/>
     <use xlink:href="#mdec92c7fb6" x="836.373645" y="305.044065" style="stroke: #000000; stroke-linejoin: miter"/>
    </g>
   </g>
   <g id="patch_9">
    <path d="M 515.343451 320.4 
L 515.343451 43.2 
" style="fill: none; stroke: #000000; stroke-width: 0.8; stroke-linejoin: miter; stroke-linecap: square"/>
   </g>
   <g id="patch_10">
    <path d="M 854.995625 320.4 
L 854.995625 43.2 
" style="fill: none; stroke: #000000; stroke-width: 0.8; stroke-linejoin: miter; stroke-linecap: square"/>
   </g>
   <g id="patch_11">
    <path d="M 515.343451 320.4 
L 854.995625 320.4 
" style="fill: none; stroke: #000000; stroke-width: 0.8; stroke-linejoin: miter; stroke-linecap: square"/>
   </g>
   <g id="patch_12">
    <path d="M 515.343451 43.2 
L 854.995625 43.2 
" style="fill: none; stroke: #000000; stroke-width: 0.8; stroke-linejoin: miter; stroke-linecap: square"/>
   </g>
   <g id="legend_2">
    <g id="patch_13">
     <path d="M 703.059688 109.9125 
L 847.995625 109.9125 
Q 849.995625 109.9125 849.995625 107.9125 
L 849.995625 50.2 
Q 849.995625 48.2 847.995625 48.2 
L 703.059688 48.2 
Q 701.059688 48.2 701.059688 50.2 
L 701.059688 107.9125 
Q 701.059688 109.9125 703.059688 109.9125 
z
" style="fill: #ffffff; opacity: 0.8; stroke: #cccccc; stroke-linejoin: miter"/>
    </g>
    <g id="line2d_43">
     <path d="M 705.059688 56.298437 
L 725.059688 56.298437 
" style="fill: none; stroke: #1f77b4; stroke-width: 2; stroke-linecap: square"/>
    </g>
    <g id="line2d_44"/>
    <g id="text_35">
     <!-- ED60, KET -->
     <g transform="translate(733.059688 59.798437) scale(0.1 -0.1)">
      <use xlink:href="#DejaVuSans-45"/>
      <use xlink:href="#DejaVuSans-44" transform="translate(63.183594 0)"/>
      <use xlink:href="#DejaVuSans-36" transform="translate(140.185547 0)"/>
      <use xlink:href="#DejaVuSans-30" transform="translate(203.808594 0)"/>
      <use xlink:href="#DejaVuSans-2c" transform="translate(267.431641 0)"/>
      <use xlink:href="#DejaVuSans-20" transform="translate(299.21875 0)"/>
      <use xlink:href="#DejaVuSans-4b" transform="translate(331.005859 0)"/>
      <use xlink:href="#DejaVuSans-45" transform="translate(396.582031 0)"/>
      <use xlink:href="#DejaVuSans-54" transform="translate(459.765625 0)"/>
     </g>
    </g>
    <g id="LineCollection_7">
     <path d="M 715.059688 75.976562 
L 715.059688 65.976562 
" style="fill: none; stroke: #1f77b4"/>
    </g>
    <g id="line2d_45">
     <path d="M 705.059688 70.976562 
L 725.059688 70.976562 
" style="fill: none; stroke-dasharray: 3.7,1.6; stroke-dashoffset: 0; stroke: #1f77b4"/>
    </g>
    <g id="line2d_46">
     <g>
      <use xlink:href="#m22099db49f" x="715.059688" y="70.976562" style="fill: #1f77b4; stroke: #000000; stroke-linejoin: miter"/>
     </g>
    </g>
    <g id="text_36">
     <!-- ED60, KET±SD (n=38) -->
     <g transform="translate(733.059688 74.476562) scale(0.1 -0.1)">
      <use xlink:href="#DejaVuSans-45"/>
      <use xlink:href="#DejaVuSans-44" transform="translate(63.183594 0)"/>
      <use xlink:href="#DejaVuSans-36" transform="translate(140.185547 0)"/>
      <use xlink:href="#DejaVuSans-30" transform="translate(203.808594 0)"/>
      <use xlink:href="#DejaVuSans-2c" transform="translate(267.431641 0)"/>
      <use xlink:href="#DejaVuSans-20" transform="translate(299.21875 0)"/>
      <use xlink:href="#DejaVuSans-4b" transform="translate(331.005859 0)"/>
      <use xlink:href="#DejaVuSans-45" transform="translate(396.582031 0)"/>
      <use xlink:href="#DejaVuSans-54" transform="translate(459.765625 0)"/>
      <use xlink:href="#DejaVuSans-b1" transform="translate(520.849609 0)"/>
      <use xlink:href="#DejaVuSans-53" transform="translate(604.638672 0)"/>
      <use xlink:href="#DejaVuSans-44" transform="translate(668.115234 0)"/>
      <use xlink:href="#DejaVuSans-20" transform="translate(745.117188 0)"/>
      <use xlink:href="#DejaVuSans-28" transform="translate(776.904297 0)"/>
      <use xlink:href="#DejaVuSans-6e" transform="translate(815.917969 0)"/>
      <use xlink:href="#DejaVuSans-3d" transform="translate(879.296875 0)"/>
      <use xlink:href="#DejaVuSans-33" transform="translate(963.085938 0)"/>
      <use xlink:href="#DejaVuSans-38" transform="translate(1026.708984 0)"/>
      <use xlink:href="#DejaVuSans-29" transform="translate(1090.332031 0)"/>
     </g>
    </g>
    <g id="line2d_47">
     <path d="M 705.059688 85.654687 
L 725.059688 85.654687 
" style="fill: none; stroke: #000000; stroke-width: 2; stroke-linecap: square"/>
    </g>
    <g id="line2d_48"/>
    <g id="text_37">
     <!-- ED60 -->
     <g transform="translate(733.059688 89.154687) scale(0.1 -0.1)">
      <use xlink:href="#DejaVuSans-45"/>
      <use xlink:href="#DejaVuSans-44" transform="translate(63.183594 0)"/>
      <use xlink:href="#DejaVuSans-36" transform="translate(140.185547 0)"/>
      <use xlink:href="#DejaVuSans-30" transform="translate(203.808594 0)"/>
     </g>
    </g>
    <g id="LineCollection_8">
     <path d="M 715.059688 105.332812 
L 715.059688 95.332812 
" style="fill: none; stroke: #000000"/>
    </g>
    <g id="line2d_49">
     <path d="M 705.059688 100.332812 
L 725.059688 100.332812 
" style="fill: none; stroke-dasharray: 3.7,1.6; stroke-dashoffset: 0; stroke: #000000"/>
    </g>
    <g id="line2d_50">
     <g>
      <use xlink:href="#mdec92c7fb6" x="715.059688" y="100.332812" style="stroke: #000000; stroke-linejoin: miter"/>
     </g>
    </g>
    <g id="text_38">
     <!-- ED60±SD (n=39) -->
     <g transform="translate(733.059688 103.832812) scale(0.1 -0.1)">
      <use xlink:href="#DejaVuSans-45"/>
      <use xlink:href="#DejaVuSans-44" transform="translate(63.183594 0)"/>
      <use xlink:href="#DejaVuSans-36" transform="translate(140.185547 0)"/>
      <use xlink:href="#DejaVuSans-30" transform="translate(203.808594 0)"/>
      <use xlink:href="#DejaVuSans-b1" transform="translate(267.431641 0)"/>
      <use xlink:href="#DejaVuSans-53" transform="translate(351.220703 0)"/>
      <use xlink:href="#DejaVuSans-44" transform="translate(414.697266 0)"/>
      <use xlink:href="#DejaVuSans-20" transform="translate(491.699219 0)"/>
      <use xlink:href="#DejaVuSans-28" transform="translate(523.486328 0)"/>
      <use xlink:href="#DejaVuSans-6e" transform="translate(562.5 0)"/>
      <use xlink:href="#DejaVuSans-3d" transform="translate(625.878906 0)"/>
      <use xlink:href="#DejaVuSans-33" transform="translate(709.667969 0)"/>
      <use xlink:href="#DejaVuSans-39" transform="translate(773.291016 0)"/>
      <use xlink:href="#DejaVuSans-29" transform="translate(836.914062 0)"/>
     </g>
    </g>
   </g>
  </g>
  <g id="text_39">
   <!-- Parasrampuria2016 (healthy) -->
   <g transform="translate(244.446016 26.196094) scale(0.25 -0.25)">
    <defs>
     <path id="DejaVuSans-Bold-50" d="M 588 4666 
L 2584 4666 
Q 3475 4666 3951 4270 
Q 4428 3875 4428 3144 
Q 4428 2409 3951 2014 
Q 3475 1619 2584 1619 
L 1791 1619 
L 1791 0 
L 588 0 
L 588 4666 
z
M 1791 3794 
L 1791 2491 
L 2456 2491 
Q 2806 2491 2997 2661 
Q 3188 2831 3188 3144 
Q 3188 3456 2997 3625 
Q 2806 3794 2456 3794 
L 1791 3794 
z
" transform="scale(0.015625)"/>
     <path id="DejaVuSans-Bold-75" d="M 500 1363 
L 500 3500 
L 1625 3500 
L 1625 3150 
Q 1625 2866 1622 2436 
Q 1619 2006 1619 1863 
Q 1619 1441 1641 1255 
Q 1663 1069 1716 984 
Q 1784 875 1895 815 
Q 2006 756 2150 756 
Q 2500 756 2700 1025 
Q 2900 1294 2900 1772 
L 2900 3500 
L 4019 3500 
L 4019 0 
L 2900 0 
L 2900 506 
Q 2647 200 2364 54 
Q 2081 -91 1741 -91 
Q 1134 -91 817 281 
Q 500 653 500 1363 
z
" transform="scale(0.015625)"/>
     <path id="DejaVuSans-Bold-32" d="M 1844 884 
L 3897 884 
L 3897 0 
L 506 0 
L 506 884 
L 2209 2388 
Q 2438 2594 2547 2791 
Q 2656 2988 2656 3200 
Q 2656 3528 2436 3728 
Q 2216 3928 1850 3928 
Q 1569 3928 1234 3808 
Q 900 3688 519 3450 
L 519 4475 
Q 925 4609 1322 4679 
Q 1719 4750 2100 4750 
Q 2938 4750 3402 4381 
Q 3866 4013 3866 3353 
Q 3866 2972 3669 2642 
Q 3472 2313 2841 1759 
L 1844 884 
z
" transform="scale(0.015625)"/>
     <path id="DejaVuSans-Bold-30" d="M 2944 2338 
Q 2944 3213 2780 3570 
Q 2616 3928 2228 3928 
Q 1841 3928 1675 3570 
Q 1509 3213 1509 2338 
Q 1509 1453 1675 1090 
Q 1841 728 2228 728 
Q 2613 728 2778 1090 
Q 2944 1453 2944 2338 
z
M 4147 2328 
Q 4147 1169 3647 539 
Q 3147 -91 2228 -91 
Q 1306 -91 806 539 
Q 306 1169 306 2328 
Q 306 3491 806 4120 
Q 1306 4750 2228 4750 
Q 3147 4750 3647 4120 
Q 4147 3491 4147 2328 
z
" transform="scale(0.015625)"/>
     <path id="DejaVuSans-Bold-31" d="M 750 831 
L 1813 831 
L 1813 3847 
L 722 3622 
L 722 4441 
L 1806 4666 
L 2950 4666 
L 2950 831 
L 4013 831 
L 4013 0 
L 750 0 
L 750 831 
z
" transform="scale(0.015625)"/>
     <path id="DejaVuSans-Bold-36" d="M 2316 2303 
Q 2000 2303 1842 2098 
Q 1684 1894 1684 1484 
Q 1684 1075 1842 870 
Q 2000 666 2316 666 
Q 2634 666 2792 870 
Q 2950 1075 2950 1484 
Q 2950 1894 2792 2098 
Q 2634 2303 2316 2303 
z
M 3803 4544 
L 3803 3681 
Q 3506 3822 3243 3889 
Q 2981 3956 2731 3956 
Q 2194 3956 1894 3657 
Q 1594 3359 1544 2772 
Q 1750 2925 1990 3001 
Q 2231 3078 2516 3078 
Q 3231 3078 3670 2659 
Q 4109 2241 4109 1563 
Q 4109 813 3618 361 
Q 3128 -91 2303 -91 
Q 1394 -91 895 523 
Q 397 1138 397 2266 
Q 397 3422 980 4083 
Q 1563 4744 2578 4744 
Q 2900 4744 3203 4694 
Q 3506 4644 3803 4544 
z
" transform="scale(0.015625)"/>
     <path id="DejaVuSans-Bold-28" d="M 2413 -844 
L 1484 -844 
Q 1006 -72 778 623 
Q 550 1319 550 2003 
Q 550 2688 779 3389 
Q 1009 4091 1484 4856 
L 2413 4856 
Q 2013 4116 1813 3408 
Q 1613 2700 1613 2009 
Q 1613 1319 1811 609 
Q 2009 -100 2413 -844 
z
" transform="scale(0.015625)"/>
     <path id="DejaVuSans-Bold-79" d="M 78 3500 
L 1197 3500 
L 2138 1125 
L 2938 3500 
L 4056 3500 
L 2584 -331 
Q 2363 -916 2067 -1148 
Q 1772 -1381 1288 -1381 
L 641 -1381 
L 641 -647 
L 991 -647 
Q 1275 -647 1404 -556 
Q 1534 -466 1606 -231 
L 1638 -134 
L 78 3500 
z
" transform="scale(0.015625)"/>
     <path id="DejaVuSans-Bold-29" d="M 513 -844 
Q 913 -100 1113 609 
Q 1313 1319 1313 2009 
Q 1313 2700 1113 3408 
Q 913 4116 513 4856 
L 1441 4856 
Q 1916 4091 2145 3389 
Q 2375 2688 2375 2003 
Q 2375 1319 2147 623 
Q 1919 -72 1441 -844 
L 513 -844 
z
" transform="scale(0.015625)"/>
    </defs>
    <use xlink:href="#DejaVuSans-Bold-50"/>
    <use xlink:href="#DejaVuSans-Bold-61" transform="translate(70.666016 0)"/>
    <use xlink:href="#DejaVuSans-Bold-72" transform="translate(138.146484 0)"/>
    <use xlink:href="#DejaVuSans-Bold-61" transform="translate(187.462891 0)"/>
    <use xlink:href="#DejaVuSans-Bold-73" transform="translate(254.943359 0)"/>
    <use xlink:href="#DejaVuSans-Bold-72" transform="translate(314.464844 0)"/>
    <use xlink:href="#DejaVuSans-Bold-61" transform="translate(363.78125 0)"/>
    <use xlink:href="#DejaVuSans-Bold-6d" transform="translate(431.261719 0)"/>
    <use xlink:href="#DejaVuSans-Bold-70" transform="translate(535.460938 0)"/>
    <use xlink:href="#DejaVuSans-Bold-75" transform="translate(607.042969 0)"/>
    <use xlink:href="#DejaVuSans-Bold-72" transform="translate(678.234375 0)"/>
    <use xlink:href="#DejaVuSans-Bold-69" transform="translate(727.550781 0)"/>
    <use xlink:href="#DejaVuSans-Bold-61" transform="translate(761.828125 0)"/>
    <use xlink:href="#DejaVuSans-Bold-32" transform="translate(829.308594 0)"/>
    <use xlink:href="#DejaVuSans-Bold-30" transform="translate(898.888672 0)"/>
    <use xlink:href="#DejaVuSans-Bold-31" transform="translate(968.46875 0)"/>
    <use xlink:href="#DejaVuSans-Bold-36" transform="translate(1038.048828 0)"/>
    <use xlink:href="#DejaVuSans-Bold-20" transform="translate(1107.628906 0)"/>
    <use xlink:href="#DejaVuSans-Bold-28" transform="translate(1142.443359 0)"/>
    <use xlink:href="#DejaVuSans-Bold-68" transform="translate(1188.146484 0)"/>
    <use xlink:href="#DejaVuSans-Bold-65" transform="translate(1259.337891 0)"/>
    <use xlink:href="#DejaVuSans-Bold-61" transform="translate(1327.160156 0)"/>
    <use xlink:href="#DejaVuSans-Bold-6c" transform="translate(1394.640625 0)"/>
    <use xlink:href="#DejaVuSans-Bold-74" transform="translate(1428.917969 0)"/>
    <use xlink:href="#DejaVuSans-Bold-68" transform="translate(1476.720703 0)"/>
    <use xlink:href="#DejaVuSans-Bold-79" transform="translate(1547.912109 0)"/>
    <use xlink:href="#DejaVuSans-Bold-29" transform="translate(1613.097656 0)"/>
   </g>
  </g>
 </g>
 <defs>
  <clipPath id="pc66f602bbf">
   <rect x="73.795625" y="43.2" width="339.652174" height="277.2"/>
  </clipPath>
  <clipPath id="p924d8127dd">
   <rect x="515.343451" y="43.2" width="339.652174" height="277.2"/>
  </clipPath>
 </defs>
</svg>
