<?xml version="1.0" encoding="utf-8" standalone="no"?>
<!DOCTYPE svg PUBLIC "-//W3C//DTD SVG 1.1//EN"
  "http://www.w3.org/Graphics/SVG/1.1/DTD/svg11.dtd">
<svg xmlns:xlink="http://www.w3.org/1999/xlink" width="861.078498pt" height="370.537812pt" viewBox="0 0 861.078498 370.537812" xmlns="http://www.w3.org/2000/svg" version="1.1">
 <metadata>
  <rdf:RDF xmlns:dc="http://purl.org/dc/elements/1.1/" xmlns:cc="http://creativecommons.org/ns#" xmlns:rdf="http://www.w3.org/1999/02/22-rdf-syntax-ns#">
   <cc:Work>
    <dc:type rdf:resource="http://purl.org/dc/dcmitype/StillImage"/>
    <dc:date>2026-01-06T17:44:40.225534</dc:date>
    <dc:format>image/svg+xml</dc:format>
    <dc:creator>
     <cc:Agent>
      <dc:title>Matplotlib v3.10.7, https://matplotlib.org/</dc:title>
     </cc:Agent>
    </dc:creator>
   </cc:Work>
  </rdf:RDF>
 </metadata>
 <defs>
  <style type="text/css">*{stroke-linejoin: round; stroke-linecap: butt}</style>
 </defs>
 <g id="figure_1">
  <g id="patch_1">
   <path d="M 0 370.537812 
L 861.078498 370.537812 
L 861.078498 0 
L 0 0 
z
" style="fill: #ffffff"/>
  </g>
  <g id="axes_1">
   <g id="patch_2">
    <path d="M 64.251875 320.4 
L 403.904049 320.4 
L 403.904049 43.2 
L 64.251875 43.2 
z
" style="fill: #ffffff"/>
   </g>
   <g id="matplotlib.axis_1">
    <g id="xtick_1">
     <g id="line2d_1">
      <defs>
       <path id="ma4824194cb" d="M 0 0 
L 0 3.5 
" style="stroke: #000000; stroke-width: 0.8"/>
      </defs>
      <g>
       <use xlink:href="#ma4824194cb" x="79.69061" y="320.4" style="stroke: #000000; stroke-width: 0.8"/>
      </g>
     </g>
     <g id="text_1">
      <!-- 0 -->
      <g transform="translate(74.918735 338.797656) scale(0.15 -0.15)">
       <defs>
        <path id="DejaVuSans-30" d="M 2034 4250 
Q 1547 4250 1301 3770 
Q 1056 3291 1056 2328 
Q 1056 1369 1301 889 
Q 1547 409 2034 409 
Q 2525 409 2770 889 
Q 3016 1369 3016 2328 
Q 3016 3291 2770 3770 
Q 2525 4250 2034 4250 
z
M 2034 4750 
Q 2819 4750 3233 4129 
Q 3647 3509 3647 2328 
Q 3647 1150 3233 529 
Q 2819 -91 2034 -91 
Q 1250 -91 836 529 
Q 422 1150 422 2328 
Q 422 3509 836 4129 
Q 1250 4750 2034 4750 
z
" transform="scale(0.015625)"/>
       </defs>
       <use xlink:href="#DejaVuSans-30"/>
      </g>
     </g>
    </g>
    <g id="xtick_2">
     <g id="line2d_2">
      <g>
       <use xlink:href="#ma4824194cb" x="143.355498" y="320.4" style="stroke: #000000; stroke-width: 0.8"/>
      </g>
     </g>
     <g id="text_2">
      <!-- 20 -->
      <g transform="translate(133.811748 338.797656) scale(0.15 -0.15)">
       <defs>
        <path id="DejaVuSans-32" d="M 1228 531 
L 3431 531 
L 3431 0 
L 469 0 
L 469 531 
Q 828 903 1448 1529 
Q 2069 2156 2228 2338 
Q 2531 2678 2651 2914 
Q 2772 3150 2772 3378 
Q 2772 3750 2511 3984 
Q 2250 4219 1831 4219 
Q 1534 4219 1204 4116 
Q 875 4013 500 3803 
L 500 4441 
Q 881 4594 1212 4672 
Q 1544 4750 1819 4750 
Q 2544 4750 2975 4387 
Q 3406 4025 3406 3419 
Q 3406 3131 3298 2873 
Q 3191 2616 2906 2266 
Q 2828 2175 2409 1742 
Q 1991 1309 1228 531 
z
" transform="scale(0.015625)"/>
       </defs>
       <use xlink:href="#DejaVuSans-32"/>
       <use xlink:href="#DejaVuSans-30" transform="translate(63.623047 0)"/>
      </g>
     </g>
    </g>
    <g id="xtick_3">
     <g id="line2d_3">
      <g>
       <use xlink:href="#ma4824194cb" x="207.020385" y="320.4" style="stroke: #000000; stroke-width: 0.8"/>
      </g>
     </g>
     <g id="text_3">
      <!-- 40 -->
      <g transform="translate(197.476635 338.797656) scale(0.15 -0.15)">
       <defs>
        <path id="DejaVuSans-34" d="M 2419 4116 
L 825 1625 
L 2419 1625 
L 2419 4116 
z
M 2253 4666 
L 3047 4666 
L 3047 1625 
L 3713 1625 
L 3713 1100 
L 3047 1100 
L 3047 0 
L 2419 0 
L 2419 1100 
L 313 1100 
L 313 1709 
L 2253 4666 
z
" transform="scale(0.015625)"/>
       </defs>
       <use xlink:href="#DejaVuSans-34"/>
       <use xlink:href="#DejaVuSans-30" transform="translate(63.623047 0)"/>
      </g>
     </g>
    </g>
    <g id="xtick_4">
     <g id="line2d_4">
      <g>
       <use xlink:href="#ma4824194cb" x="270.685272" y="320.4" style="stroke: #000000; stroke-width: 0.8"/>
      </g>
     </g>
     <g id="text_4">
      <!-- 60 -->
      <g transform="translate(261.141522 338.797656) scale(0.15 -0.15)">
       <defs>
        <path id="DejaVuSans-36" d="M 2113 2584 
Q 1688 2584 1439 2293 
Q 1191 2003 1191 1497 
Q 1191 994 1439 701 
Q 1688 409 2113 409 
Q 2538 409 2786 701 
Q 3034 994 3034 1497 
Q 3034 2003 2786 2293 
Q 2538 2584 2113 2584 
z
M 3366 4563 
L 3366 3988 
Q 3128 4100 2886 4159 
Q 2644 4219 2406 4219 
Q 1781 4219 1451 3797 
Q 1122 3375 1075 2522 
Q 1259 2794 1537 2939 
Q 1816 3084 2150 3084 
Q 2853 3084 3261 2657 
Q 3669 2231 3669 1497 
Q 3669 778 3244 343 
Q 2819 -91 2113 -91 
Q 1303 -91 875 529 
Q 447 1150 447 2328 
Q 447 3434 972 4092 
Q 1497 4750 2381 4750 
Q 2619 4750 2861 4703 
Q 3103 4656 3366 4563 
z
" transform="scale(0.015625)"/>
       </defs>
       <use xlink:href="#DejaVuSans-36"/>
       <use xlink:href="#DejaVuSans-30" transform="translate(63.623047 0)"/>
      </g>
     </g>
    </g>
    <g id="xtick_5">
     <g id="line2d_5">
      <g>
       <use xlink:href="#ma4824194cb" x="334.35016" y="320.4" style="stroke: #000000; stroke-width: 0.8"/>
      </g>
     </g>
     <g id="text_5">
      <!-- 80 -->
      <g transform="translate(324.80641 338.797656) scale(0.15 -0.15)">
       <defs>
        <path id="DejaVuSans-38" d="M 2034 2216 
Q 1584 2216 1326 1975 
Q 1069 1734 1069 1313 
Q 1069 891 1326 650 
Q 1584 409 2034 409 
Q 2484 409 2743 651 
Q 3003 894 3003 1313 
Q 3003 1734 2745 1975 
Q 2488 2216 2034 2216 
z
M 1403 2484 
Q 997 2584 770 2862 
Q 544 3141 544 3541 
Q 544 4100 942 4425 
Q 1341 4750 2034 4750 
Q 2731 4750 3128 4425 
Q 3525 4100 3525 3541 
Q 3525 3141 3298 2862 
Q 3072 2584 2669 2484 
Q 3125 2378 3379 2068 
Q 3634 1759 3634 1313 
Q 3634 634 3220 271 
Q 2806 -91 2034 -91 
Q 1263 -91 848 271 
Q 434 634 434 1313 
Q 434 1759 690 2068 
Q 947 2378 1403 2484 
z
M 1172 3481 
Q 1172 3119 1398 2916 
Q 1625 2713 2034 2713 
Q 2441 2713 2670 2916 
Q 2900 3119 2900 3481 
Q 2900 3844 2670 4047 
Q 2441 4250 2034 4250 
Q 1625 4250 1398 4047 
Q 1172 3844 1172 3481 
z
" transform="scale(0.015625)"/>
       </defs>
       <use xlink:href="#DejaVuSans-38"/>
       <use xlink:href="#DejaVuSans-30" transform="translate(63.623047 0)"/>
      </g>
     </g>
    </g>
    <g id="xtick_6">
     <g id="line2d_6">
      <g>
       <use xlink:href="#ma4824194cb" x="398.015047" y="320.4" style="stroke: #000000; stroke-width: 0.8"/>
      </g>
     </g>
     <g id="text_6">
      <!-- 100 -->
      <g transform="translate(383.699422 338.797656) scale(0.15 -0.15)">
       <defs>
        <path id="DejaVuSans-31" d="M 794 531 
L 1825 531 
L 1825 4091 
L 703 3866 
L 703 4441 
L 1819 4666 
L 2450 4666 
L 2450 531 
L 3481 531 
L 3481 0 
L 794 0 
L 794 531 
z
" transform="scale(0.015625)"/>
       </defs>
       <use xlink:href="#DejaVuSans-31"/>
       <use xlink:href="#DejaVuSans-30" transform="translate(63.623047 0)"/>
       <use xlink:href="#DejaVuSans-30" transform="translate(127.246094 0)"/>
      </g>
     </g>
    </g>
    <g id="text_7">
     <!-- time [hr] -->
     <g transform="translate(189.003431 359.594375) scale(0.18 -0.18)">
      <defs>
       <path id="DejaVuSans-Bold-74" d="M 1759 4494 
L 1759 3500 
L 2913 3500 
L 2913 2700 
L 1759 2700 
L 1759 1216 
Q 1759 972 1856 886 
Q 1953 800 2241 800 
L 2816 800 
L 2816 0 
L 1856 0 
Q 1194 0 917 276 
Q 641 553 641 1216 
L 641 2700 
L 84 2700 
L 84 3500 
L 641 3500 
L 641 4494 
L 1759 4494 
z
" transform="scale(0.015625)"/>
       <path id="DejaVuSans-Bold-69" d="M 538 3500 
L 1656 3500 
L 1656 0 
L 538 0 
L 538 3500 
z
M 538 4863 
L 1656 4863 
L 1656 3950 
L 538 3950 
L 538 4863 
z
" transform="scale(0.015625)"/>
       <path id="DejaVuSans-Bold-6d" d="M 3781 2919 
Q 3994 3244 4286 3414 
Q 4578 3584 4928 3584 
Q 5531 3584 5847 3212 
Q 6163 2841 6163 2131 
L 6163 0 
L 5038 0 
L 5038 1825 
Q 5041 1866 5042 1909 
Q 5044 1953 5044 2034 
Q 5044 2406 4934 2573 
Q 4825 2741 4581 2741 
Q 4263 2741 4089 2478 
Q 3916 2216 3909 1719 
L 3909 0 
L 2784 0 
L 2784 1825 
Q 2784 2406 2684 2573 
Q 2584 2741 2328 2741 
Q 2006 2741 1831 2477 
Q 1656 2213 1656 1722 
L 1656 0 
L 531 0 
L 531 3500 
L 1656 3500 
L 1656 2988 
Q 1863 3284 2130 3434 
Q 2397 3584 2719 3584 
Q 3081 3584 3359 3409 
Q 3638 3234 3781 2919 
z
" transform="scale(0.015625)"/>
       <path id="DejaVuSans-Bold-65" d="M 4031 1759 
L 4031 1441 
L 1416 1441 
Q 1456 1047 1700 850 
Q 1944 653 2381 653 
Q 2734 653 3104 758 
Q 3475 863 3866 1075 
L 3866 213 
Q 3469 63 3072 -14 
Q 2675 -91 2278 -91 
Q 1328 -91 801 392 
Q 275 875 275 1747 
Q 275 2603 792 3093 
Q 1309 3584 2216 3584 
Q 3041 3584 3536 3087 
Q 4031 2591 4031 1759 
z
M 2881 2131 
Q 2881 2450 2695 2645 
Q 2509 2841 2209 2841 
Q 1884 2841 1681 2658 
Q 1478 2475 1428 2131 
L 2881 2131 
z
" transform="scale(0.015625)"/>
       <path id="DejaVuSans-Bold-20" transform="scale(0.015625)"/>
       <path id="DejaVuSans-Bold-5b" d="M 550 4863 
L 2491 4863 
L 2491 4159 
L 1613 4159 
L 1613 -141 
L 2491 -141 
L 2491 -844 
L 550 -844 
L 550 4863 
z
" transform="scale(0.015625)"/>
       <path id="DejaVuSans-Bold-68" d="M 4056 2131 
L 4056 0 
L 2931 0 
L 2931 347 
L 2931 1625 
Q 2931 2084 2911 2256 
Q 2891 2428 2841 2509 
Q 2775 2619 2662 2680 
Q 2550 2741 2406 2741 
Q 2056 2741 1856 2470 
Q 1656 2200 1656 1722 
L 1656 0 
L 538 0 
L 538 4863 
L 1656 4863 
L 1656 2988 
Q 1909 3294 2193 3439 
Q 2478 3584 2822 3584 
Q 3428 3584 3742 3212 
Q 4056 2841 4056 2131 
z
" transform="scale(0.015625)"/>
       <path id="DejaVuSans-Bold-72" d="M 3138 2547 
Q 2991 2616 2845 2648 
Q 2700 2681 2553 2681 
Q 2122 2681 1889 2404 
Q 1656 2128 1656 1613 
L 1656 0 
L 538 0 
L 538 3500 
L 1656 3500 
L 1656 2925 
Q 1872 3269 2151 3426 
Q 2431 3584 2822 3584 
Q 2878 3584 2943 3579 
Q 3009 3575 3134 3559 
L 3138 2547 
z
" transform="scale(0.015625)"/>
       <path id="DejaVuSans-Bold-5d" d="M 2375 -844 
L 434 -844 
L 434 -141 
L 1313 -141 
L 1313 4159 
L 434 4159 
L 434 4863 
L 2375 4863 
L 2375 -844 
z
" transform="scale(0.015625)"/>
      </defs>
      <use xlink:href="#DejaVuSans-Bold-74"/>
      <use xlink:href="#DejaVuSans-Bold-69" transform="translate(47.802734 0)"/>
      <use xlink:href="#DejaVuSans-Bold-6d" transform="translate(82.080078 0)"/>
      <use xlink:href="#DejaVuSans-Bold-65" transform="translate(186.279297 0)"/>
      <use xlink:href="#DejaVuSans-Bold-20" transform="translate(254.101562 0)"/>
      <use xlink:href="#DejaVuSans-Bold-5b" transform="translate(288.916016 0)"/>
      <use xlink:href="#DejaVuSans-Bold-68" transform="translate(334.619141 0)"/>
      <use xlink:href="#DejaVuSans-Bold-72" transform="translate(405.810547 0)"/>
      <use xlink:href="#DejaVuSans-Bold-5d" transform="translate(455.126953 0)"/>
     </g>
    </g>
   </g>
   <g id="matplotlib.axis_2">
    <g id="ytick_1">
     <g id="line2d_7">
      <defs>
       <path id="m710a4e4c95" d="M 0 0 
L -3.5 0 
" style="stroke: #000000; stroke-width: 0.8"/>
      </defs>
      <g>
       <use xlink:href="#m710a4e4c95" x="64.251875" y="307.8" style="stroke: #000000; stroke-width: 0.8"/>
      </g>
     </g>
     <g id="text_8">
      <!-- 0 -->
      <g transform="translate(47.708125 313.498828) scale(0.15 -0.15)">
       <use xlink:href="#DejaVuSans-30"/>
      </g>
     </g>
    </g>
    <g id="ytick_2">
     <g id="line2d_8">
      <g>
       <use xlink:href="#m710a4e4c95" x="64.251875" y="253.09731" style="stroke: #000000; stroke-width: 0.8"/>
      </g>
     </g>
     <g id="text_9">
      <!-- 200 -->
      <g transform="translate(28.620625 258.796138) scale(0.15 -0.15)">
       <use xlink:href="#DejaVuSans-32"/>
       <use xlink:href="#DejaVuSans-30" transform="translate(63.623047 0)"/>
       <use xlink:href="#DejaVuSans-30" transform="translate(127.246094 0)"/>
      </g>
     </g>
    </g>
    <g id="ytick_3">
     <g id="line2d_9">
      <g>
       <use xlink:href="#m710a4e4c95" x="64.251875" y="198.39462" style="stroke: #000000; stroke-width: 0.8"/>
      </g>
     </g>
     <g id="text_10">
      <!-- 400 -->
      <g transform="translate(28.620625 204.093449) scale(0.15 -0.15)">
       <use xlink:href="#DejaVuSans-34"/>
       <use xlink:href="#DejaVuSans-30" transform="translate(63.623047 0)"/>
       <use xlink:href="#DejaVuSans-30" transform="translate(127.246094 0)"/>
      </g>
     </g>
    </g>
    <g id="ytick_4">
     <g id="line2d_10">
      <g>
       <use xlink:href="#m710a4e4c95" x="64.251875" y="143.691931" style="stroke: #000000; stroke-width: 0.8"/>
      </g>
     </g>
     <g id="text_11">
      <!-- 600 -->
      <g transform="translate(28.620625 149.390759) scale(0.15 -0.15)">
       <use xlink:href="#DejaVuSans-36"/>
       <use xlink:href="#DejaVuSans-30" transform="translate(63.623047 0)"/>
       <use xlink:href="#DejaVuSans-30" transform="translate(127.246094 0)"/>
      </g>
     </g>
    </g>
    <g id="ytick_5">
     <g id="line2d_11">
      <g>
       <use xlink:href="#m710a4e4c95" x="64.251875" y="88.989241" style="stroke: #000000; stroke-width: 0.8"/>
      </g>
     </g>
     <g id="text_12">
      <!-- 800 -->
      <g transform="translate(28.620625 94.688069) scale(0.15 -0.15)">
       <use xlink:href="#DejaVuSans-38"/>
       <use xlink:href="#DejaVuSans-30" transform="translate(63.623047 0)"/>
       <use xlink:href="#DejaVuSans-30" transform="translate(127.246094 0)"/>
      </g>
     </g>
    </g>
    <g id="text_13">
     <!-- edoxaban plasma [nM] -->
     <g transform="translate(20.877187 297.59625) rotate(-90) scale(0.18 -0.18)">
      <defs>
       <path id="DejaVuSans-Bold-64" d="M 2919 2988 
L 2919 4863 
L 4044 4863 
L 4044 0 
L 2919 0 
L 2919 506 
Q 2688 197 2409 53 
Q 2131 -91 1766 -91 
Q 1119 -91 703 423 
Q 288 938 288 1747 
Q 288 2556 703 3070 
Q 1119 3584 1766 3584 
Q 2128 3584 2408 3439 
Q 2688 3294 2919 2988 
z
M 2181 722 
Q 2541 722 2730 984 
Q 2919 1247 2919 1747 
Q 2919 2247 2730 2509 
Q 2541 2772 2181 2772 
Q 1825 2772 1636 2509 
Q 1447 2247 1447 1747 
Q 1447 1247 1636 984 
Q 1825 722 2181 722 
z
" transform="scale(0.015625)"/>
       <path id="DejaVuSans-Bold-6f" d="M 2203 2784 
Q 1831 2784 1636 2517 
Q 1441 2250 1441 1747 
Q 1441 1244 1636 976 
Q 1831 709 2203 709 
Q 2569 709 2762 976 
Q 2956 1244 2956 1747 
Q 2956 2250 2762 2517 
Q 2569 2784 2203 2784 
z
M 2203 3584 
Q 3106 3584 3614 3096 
Q 4122 2609 4122 1747 
Q 4122 884 3614 396 
Q 3106 -91 2203 -91 
Q 1297 -91 786 396 
Q 275 884 275 1747 
Q 275 2609 786 3096 
Q 1297 3584 2203 3584 
z
" transform="scale(0.015625)"/>
       <path id="DejaVuSans-Bold-78" d="M 1422 1791 
L 159 3500 
L 1344 3500 
L 2059 2463 
L 2784 3500 
L 3969 3500 
L 2706 1797 
L 4031 0 
L 2847 0 
L 2059 1106 
L 1281 0 
L 97 0 
L 1422 1791 
z
" transform="scale(0.015625)"/>
       <path id="DejaVuSans-Bold-61" d="M 2106 1575 
Q 1756 1575 1579 1456 
Q 1403 1338 1403 1106 
Q 1403 894 1545 773 
Q 1688 653 1941 653 
Q 2256 653 2472 879 
Q 2688 1106 2688 1447 
L 2688 1575 
L 2106 1575 
z
M 3816 1997 
L 3816 0 
L 2688 0 
L 2688 519 
Q 2463 200 2181 54 
Q 1900 -91 1497 -91 
Q 953 -91 614 226 
Q 275 544 275 1050 
Q 275 1666 698 1953 
Q 1122 2241 2028 2241 
L 2688 2241 
L 2688 2328 
Q 2688 2594 2478 2717 
Q 2269 2841 1825 2841 
Q 1466 2841 1156 2769 
Q 847 2697 581 2553 
L 581 3406 
Q 941 3494 1303 3539 
Q 1666 3584 2028 3584 
Q 2975 3584 3395 3211 
Q 3816 2838 3816 1997 
z
" transform="scale(0.015625)"/>
       <path id="DejaVuSans-Bold-62" d="M 2400 722 
Q 2759 722 2948 984 
Q 3138 1247 3138 1747 
Q 3138 2247 2948 2509 
Q 2759 2772 2400 2772 
Q 2041 2772 1848 2508 
Q 1656 2244 1656 1747 
Q 1656 1250 1848 986 
Q 2041 722 2400 722 
z
M 1656 2988 
Q 1888 3294 2169 3439 
Q 2450 3584 2816 3584 
Q 3463 3584 3878 3070 
Q 4294 2556 4294 1747 
Q 4294 938 3878 423 
Q 3463 -91 2816 -91 
Q 2450 -91 2169 54 
Q 1888 200 1656 506 
L 1656 0 
L 538 0 
L 538 4863 
L 1656 4863 
L 1656 2988 
z
" transform="scale(0.015625)"/>
       <path id="DejaVuSans-Bold-6e" d="M 4056 2131 
L 4056 0 
L 2931 0 
L 2931 347 
L 2931 1631 
Q 2931 2084 2911 2256 
Q 2891 2428 2841 2509 
Q 2775 2619 2662 2680 
Q 2550 2741 2406 2741 
Q 2056 2741 1856 2470 
Q 1656 2200 1656 1722 
L 1656 0 
L 538 0 
L 538 3500 
L 1656 3500 
L 1656 2988 
Q 1909 3294 2193 3439 
Q 2478 3584 2822 3584 
Q 3428 3584 3742 3212 
Q 4056 2841 4056 2131 
z
" transform="scale(0.015625)"/>
       <path id="DejaVuSans-Bold-70" d="M 1656 506 
L 1656 -1331 
L 538 -1331 
L 538 3500 
L 1656 3500 
L 1656 2988 
Q 1888 3294 2169 3439 
Q 2450 3584 2816 3584 
Q 3463 3584 3878 3070 
Q 4294 2556 4294 1747 
Q 4294 938 3878 423 
Q 3463 -91 2816 -91 
Q 2450 -91 2169 54 
Q 1888 200 1656 506 
z
M 2400 2772 
Q 2041 2772 1848 2508 
Q 1656 2244 1656 1747 
Q 1656 1250 1848 986 
Q 2041 722 2400 722 
Q 2759 722 2948 984 
Q 3138 1247 3138 1747 
Q 3138 2247 2948 2509 
Q 2759 2772 2400 2772 
z
" transform="scale(0.015625)"/>
       <path id="DejaVuSans-Bold-6c" d="M 538 4863 
L 1656 4863 
L 1656 0 
L 538 0 
L 538 4863 
z
" transform="scale(0.015625)"/>
       <path id="DejaVuSans-Bold-73" d="M 3272 3391 
L 3272 2541 
Q 2913 2691 2578 2766 
Q 2244 2841 1947 2841 
Q 1628 2841 1473 2761 
Q 1319 2681 1319 2516 
Q 1319 2381 1436 2309 
Q 1553 2238 1856 2203 
L 2053 2175 
Q 2913 2066 3209 1816 
Q 3506 1566 3506 1031 
Q 3506 472 3093 190 
Q 2681 -91 1863 -91 
Q 1516 -91 1145 -36 
Q 775 19 384 128 
L 384 978 
Q 719 816 1070 734 
Q 1422 653 1784 653 
Q 2113 653 2278 743 
Q 2444 834 2444 1013 
Q 2444 1163 2330 1236 
Q 2216 1309 1875 1350 
L 1678 1375 
Q 931 1469 631 1722 
Q 331 1975 331 2491 
Q 331 3047 712 3315 
Q 1094 3584 1881 3584 
Q 2191 3584 2531 3537 
Q 2872 3491 3272 3391 
z
" transform="scale(0.015625)"/>
       <path id="DejaVuSans-Bold-4d" d="M 588 4666 
L 2119 4666 
L 3181 2169 
L 4250 4666 
L 5778 4666 
L 5778 0 
L 4641 0 
L 4641 3413 
L 3566 897 
L 2803 897 
L 1728 3413 
L 1728 0 
L 588 0 
L 588 4666 
z
" transform="scale(0.015625)"/>
      </defs>
      <use xlink:href="#DejaVuSans-Bold-65"/>
      <use xlink:href="#DejaVuSans-Bold-64" transform="translate(67.822266 0)"/>
      <use xlink:href="#DejaVuSans-Bold-6f" transform="translate(139.404297 0)"/>
      <use xlink:href="#DejaVuSans-Bold-78" transform="translate(208.105469 0)"/>
      <use xlink:href="#DejaVuSans-Bold-61" transform="translate(272.607422 0)"/>
      <use xlink:href="#DejaVuSans-Bold-62" transform="translate(340.087891 0)"/>
      <use xlink:href="#DejaVuSans-Bold-61" transform="translate(411.669922 0)"/>
      <use xlink:href="#DejaVuSans-Bold-6e" transform="translate(479.150391 0)"/>
      <use xlink:href="#DejaVuSans-Bold-20" transform="translate(550.341797 0)"/>
      <use xlink:href="#DejaVuSans-Bold-70" transform="translate(585.15625 0)"/>
      <use xlink:href="#DejaVuSans-Bold-6c" transform="translate(656.738281 0)"/>
      <use xlink:href="#DejaVuSans-Bold-61" transform="translate(691.015625 0)"/>
      <use xlink:href="#DejaVuSans-Bold-73" transform="translate(758.496094 0)"/>
      <use xlink:href="#DejaVuSans-Bold-6d" transform="translate(818.017578 0)"/>
      <use xlink:href="#DejaVuSans-Bold-61" transform="translate(922.216797 0)"/>
      <use xlink:href="#DejaVuSans-Bold-20" transform="translate(989.697266 0)"/>
      <use xlink:href="#DejaVuSans-Bold-5b" transform="translate(1024.511719 0)"/>
      <use xlink:href="#DejaVuSans-Bold-6e" transform="translate(1070.214844 0)"/>
      <use xlink:href="#DejaVuSans-Bold-4d" transform="translate(1141.40625 0)"/>
      <use xlink:href="#DejaVuSans-Bold-5d" transform="translate(1240.917969 0)"/>
     </g>
    </g>
   </g>
   <g id="LineCollection_1">
    <path clip-path="url(#p68057218b7)" style="fill: none; stroke: #ff7f0e"/>
    <path d="M 81.282232 292.977938 
L 81.282232 109.164412 
" clip-path="url(#p68057218b7)" style="fill: none; stroke: #ff7f0e"/>
    <path d="M 82.873855 201.066185 
L 82.873855 58.764412 
" clip-path="url(#p68057218b7)" style="fill: none; stroke: #ff7f0e"/>
    <path d="M 84.465477 174.386474 
L 84.465477 55.8 
" clip-path="url(#p68057218b7)" style="fill: none; stroke: #ff7f0e"/>
    <path d="M 86.057099 171.921121 
L 86.057099 59.263472 
" clip-path="url(#p68057218b7)" style="fill: none; stroke: #ff7f0e"/>
    <path d="M 87.648721 189.218517 
L 87.648721 82.479711 
" clip-path="url(#p68057218b7)" style="fill: none; stroke: #ff7f0e"/>
    <path d="M 89.240343 195.142351 
L 89.240343 94.342351 
" clip-path="url(#p68057218b7)" style="fill: none; stroke: #ff7f0e"/>
    <path d="M 90.831965 206.995009 
L 90.831965 135.849114 
" clip-path="url(#p68057218b7)" style="fill: none; stroke: #ff7f0e"/>
    <path d="M 95.606832 227.755877 
L 95.606832 162.528825 
" clip-path="url(#p68057218b7)" style="fill: none; stroke: #ff7f0e"/>
    <path d="M 98.790076 227.161996 
L 98.790076 183.284701 
" clip-path="url(#p68057218b7)" style="fill: none; stroke: #ff7f0e"/>
    <path d="M 105.156565 250.388217 
L 105.156565 218.857649 
" clip-path="url(#p68057218b7)" style="fill: none; stroke: #ff7f0e"/>
    <path d="M 117.889543 266.323181 
L 117.889543 263.328825 
" clip-path="url(#p68057218b7)" style="fill: none; stroke: #ff7f0e"/>
    <path d="M 130.62252 287.77774 
L 130.62252 286.550054 
" clip-path="url(#p68057218b7)" style="fill: none; stroke: #ff7f0e"/>
    <path clip-path="url(#p68057218b7)" style="fill: none; stroke: #ff7f0e"/>
    <path clip-path="url(#p68057218b7)" style="fill: none; stroke: #ff7f0e"/>
    <path clip-path="url(#p68057218b7)" style="fill: none; stroke: #ff7f0e"/>
    <path clip-path="url(#p68057218b7)" style="fill: none; stroke: #ff7f0e"/>
    <path clip-path="url(#p68057218b7)" style="fill: none; stroke: #ff7f0e"/>
   </g>
   <g id="LineCollection_2">
    <path clip-path="url(#p68057218b7)" style="fill: none; stroke: #000000"/>
    <path d="M 81.282232 295.942351 
L 81.282232 207 
" clip-path="url(#p68057218b7)" style="fill: none; stroke: #000000"/>
    <path d="M 82.873855 245.542351 
L 82.873855 150.671175 
" clip-path="url(#p68057218b7)" style="fill: none; stroke: #000000"/>
    <path d="M 84.465477 242.577938 
L 84.465477 147.706763 
" clip-path="url(#p68057218b7)" style="fill: none; stroke: #000000"/>
    <path d="M 86.057099 248.506763 
L 86.057099 159.564412 
" clip-path="url(#p68057218b7)" style="fill: none; stroke: #000000"/>
    <path d="M 87.648721 254.435588 
L 87.648721 165.493237 
" clip-path="url(#p68057218b7)" style="fill: none; stroke: #000000"/>
    <path d="M 89.240343 266.293237 
L 89.240343 177.350886 
" clip-path="url(#p68057218b7)" style="fill: none; stroke: #000000"/>
    <path d="M 90.831965 275.191465 
L 90.831965 209.964412 
" clip-path="url(#p68057218b7)" style="fill: none; stroke: #000000"/>
    <path d="M 95.606832 278.155877 
L 95.606832 230.715299 
" clip-path="url(#p68057218b7)" style="fill: none; stroke: #000000"/>
    <path d="M 98.790076 281.115299 
L 98.790076 245.542351 
" clip-path="url(#p68057218b7)" style="fill: none; stroke: #000000"/>
    <path clip-path="url(#p68057218b7)" style="fill: none; stroke: #000000"/>
    <path clip-path="url(#p68057218b7)" style="fill: none; stroke: #000000"/>
    <path clip-path="url(#p68057218b7)" style="fill: none; stroke: #000000"/>
    <path clip-path="url(#p68057218b7)" style="fill: none; stroke: #000000"/>
    <path clip-path="url(#p68057218b7)" style="fill: none; stroke: #000000"/>
    <path clip-path="url(#p68057218b7)" style="fill: none; stroke: #000000"/>
    <path clip-path="url(#p68057218b7)" style="fill: none; stroke: #000000"/>
    <path clip-path="url(#p68057218b7)" style="fill: none; stroke: #000000"/>
   </g>
   <g id="line2d_12">
    <path d="M 79.69061 307.8 
L 80.30816 292.941869 
L 81.543258 246.559076 
L 82.160808 230.872578 
L 82.778357 220.315627 
L 83.395907 213.841696 
L 84.013456 210.486603 
L 84.631005 209.465184 
L 85.248555 210.161669 
L 85.866104 212.099886 
L 86.483654 214.914197 
L 87.718752 222.121052 
L 92.659148 253.628777 
L 94.511796 263.250088 
L 96.364444 271.341376 
L 98.217092 278.04707 
L 100.069741 283.559038 
L 101.922389 288.068622 
L 103.775037 291.74817 
L 105.627685 294.745765 
L 107.480333 297.185578 
L 109.332982 299.170345 
L 111.18563 300.784436 
L 113.038278 302.096842 
L 114.890926 303.163837 
L 117.361124 304.28271 
L 119.831322 305.13159 
L 122.919069 305.910682 
L 126.006816 306.462309 
L 130.329662 306.975053 
L 135.270057 307.325205 
L 142.0631 307.577866 
L 153.17899 307.735909 
L 177.880966 307.795952 
L 388.465314 307.8 
L 388.465314 307.8 
" clip-path="url(#p68057218b7)" style="fill: none; stroke: #ff7f0e; stroke-width: 2; stroke-linecap: square"/>
   </g>
   <g id="line2d_13">
    <path d="M 79.69061 307.8 
L 81.282232 201.071175 
L 82.873855 129.915299 
L 84.465477 115.093237 
L 86.057099 115.592296 
L 87.648721 135.849114 
L 89.240343 144.742351 
L 90.831965 171.422062 
L 95.606832 195.142351 
L 98.790076 205.223349 
L 105.156565 234.622933 
L 117.889543 264.826003 
L 130.62252 287.163897 
L 156.088475 298.906763 
L 194.287407 304.331538 
L 232.48634 306.771938 
L 270.685272 306.901693 
L 308.884205 307.8 
" clip-path="url(#p68057218b7)" style="fill: none; stroke-dasharray: 3.7,1.6; stroke-dashoffset: 0; stroke: #ff7f0e"/>
    <defs>
     <path id="ma1053b88bb" d="M -3 3 
L 3 3 
L 3 -3 
L -3 -3 
z
" style="stroke: #000000; stroke-linejoin: miter"/>
    </defs>
    <g clip-path="url(#p68057218b7)">
     <use xlink:href="#ma1053b88bb" x="79.69061" y="307.8" style="fill: #ff7f0e; stroke: #000000; stroke-linejoin: miter"/>
     <use xlink:href="#ma1053b88bb" x="81.282232" y="201.071175" style="fill: #ff7f0e; stroke: #000000; stroke-linejoin: miter"/>
     <use xlink:href="#ma1053b88bb" x="82.873855" y="129.915299" style="fill: #ff7f0e; stroke: #000000; stroke-linejoin: miter"/>
     <use xlink:href="#ma1053b88bb" x="84.465477" y="115.093237" style="fill: #ff7f0e; stroke: #000000; stroke-linejoin: miter"/>
     <use xlink:href="#ma1053b88bb" x="86.057099" y="115.592296" style="fill: #ff7f0e; stroke: #000000; stroke-linejoin: miter"/>
     <use xlink:href="#ma1053b88bb" x="87.648721" y="135.849114" style="fill: #ff7f0e; stroke: #000000; stroke-linejoin: miter"/>
     <use xlink:href="#ma1053b88bb" x="89.240343" y="144.742351" style="fill: #ff7f0e; stroke: #000000; stroke-linejoin: miter"/>
     <use xlink:href="#ma1053b88bb" x="90.831965" y="171.422062" style="fill: #ff7f0e; stroke: #000000; stroke-linejoin: miter"/>
     <use xlink:href="#ma1053b88bb" x="95.606832" y="195.142351" style="fill: #ff7f0e; stroke: #000000; stroke-linejoin: miter"/>
     <use xlink:href="#ma1053b88bb" x="98.790076" y="205.223349" style="fill: #ff7f0e; stroke: #000000; stroke-linejoin: miter"/>
     <use xlink:href="#ma1053b88bb" x="105.156565" y="234.622933" style="fill: #ff7f0e; stroke: #000000; stroke-linejoin: miter"/>
     <use xlink:href="#ma1053b88bb" x="117.889543" y="264.826003" style="fill: #ff7f0e; stroke: #000000; stroke-linejoin: miter"/>
     <use xlink:href="#ma1053b88bb" x="130.62252" y="287.163897" style="fill: #ff7f0e; stroke: #000000; stroke-linejoin: miter"/>
     <use xlink:href="#ma1053b88bb" x="156.088475" y="298.906763" style="fill: #ff7f0e; stroke: #000000; stroke-linejoin: miter"/>
     <use xlink:href="#ma1053b88bb" x="194.287407" y="304.331538" style="fill: #ff7f0e; stroke: #000000; stroke-linejoin: miter"/>
     <use xlink:href="#ma1053b88bb" x="232.48634" y="306.771938" style="fill: #ff7f0e; stroke: #000000; stroke-linejoin: miter"/>
     <use xlink:href="#ma1053b88bb" x="270.685272" y="306.901693" style="fill: #ff7f0e; stroke: #000000; stroke-linejoin: miter"/>
     <use xlink:href="#ma1053b88bb" x="308.884205" y="307.8" style="fill: #ff7f0e; stroke: #000000; stroke-linejoin: miter"/>
    </g>
   </g>
   <g id="line2d_14">
    <path d="M 79.69061 307.8 
L 80.30816 292.941869 
L 81.543258 246.559076 
L 82.160808 230.872578 
L 82.778357 220.315627 
L 83.395907 213.841696 
L 84.013456 210.486603 
L 84.631005 209.465184 
L 85.248555 210.161669 
L 85.866104 212.099886 
L 86.483654 214.914197 
L 87.718752 222.121052 
L 92.659148 253.628777 
L 94.511796 263.250088 
L 96.364444 271.341376 
L 98.217092 278.04707 
L 100.069741 283.559038 
L 101.922389 288.068622 
L 103.775037 291.74817 
L 105.627685 294.745765 
L 107.480333 297.185578 
L 109.332982 299.170345 
L 111.18563 300.784436 
L 113.038278 302.096842 
L 114.890926 303.163837 
L 117.361124 304.28271 
L 119.831322 305.13159 
L 122.919069 305.910682 
L 126.006816 306.462309 
L 130.329662 306.975053 
L 135.270057 307.325205 
L 142.0631 307.577866 
L 153.17899 307.735909 
L 177.880966 307.795952 
L 388.465314 307.8 
L 388.465314 307.8 
" clip-path="url(#p68057218b7)" style="fill: none; stroke: #000000; stroke-width: 2; stroke-linecap: square"/>
   </g>
   <g id="line2d_15">
    <path d="M 79.69061 307.8 
L 81.282232 251.471175 
L 82.873855 198.106763 
L 84.465477 195.142351 
L 86.057099 204.035588 
L 87.648721 209.964412 
L 89.240343 221.822062 
L 90.831965 242.577938 
L 95.606832 254.435588 
L 98.790076 263.328825 
L 105.156565 278.150886 
L 117.889543 295.642915 
L 130.62252 298.906763 
L 156.088475 301.891138 
L 194.287407 304.331538 
L 232.48634 306.771938 
L 270.685272 306.901693 
L 308.884205 307.8 
" clip-path="url(#p68057218b7)" style="fill: none; stroke-dasharray: 3.7,1.6; stroke-dashoffset: 0; stroke: #000000"/>
    <defs>
     <path id="m933d1d51b8" d="M -3 3 
L 3 3 
L 3 -3 
L -3 -3 
z
" style="stroke: #000000; stroke-linejoin: miter"/>
    </defs>
    <g clip-path="url(#p68057218b7)">
     <use xlink:href="#m933d1d51b8" x="79.69061" y="307.8" style="stroke: #000000; stroke-linejoin: miter"/>
     <use xlink:href="#m933d1d51b8" x="81.282232" y="251.471175" style="stroke: #000000; stroke-linejoin: miter"/>
     <use xlink:href="#m933d1d51b8" x="82.873855" y="198.106763" style="stroke: #000000; stroke-linejoin: miter"/>
     <use xlink:href="#m933d1d51b8" x="84.465477" y="195.142351" style="stroke: #000000; stroke-linejoin: miter"/>
     <use xlink:href="#m933d1d51b8" x="86.057099" y="204.035588" style="stroke: #000000; stroke-linejoin: miter"/>
     <use xlink:href="#m933d1d51b8" x="87.648721" y="209.964412" style="stroke: #000000; stroke-linejoin: miter"/>
     <use xlink:href="#m933d1d51b8" x="89.240343" y="221.822062" style="stroke: #000000; stroke-linejoin: miter"/>
     <use xlink:href="#m933d1d51b8" x="90.831965" y="242.577938" style="stroke: #000000; stroke-linejoin: miter"/>
     <use xlink:href="#m933d1d51b8" x="95.606832" y="254.435588" style="stroke: #000000; stroke-linejoin: miter"/>
     <use xlink:href="#m933d1d51b8" x="98.790076" y="263.328825" style="stroke: #000000; stroke-linejoin: miter"/>
     <use xlink:href="#m933d1d51b8" x="105.156565" y="278.150886" style="stroke: #000000; stroke-linejoin: miter"/>
     <use xlink:href="#m933d1d51b8" x="117.889543" y="295.642915" style="stroke: #000000; stroke-linejoin: miter"/>
     <use xlink:href="#m933d1d51b8" x="130.62252" y="298.906763" style="stroke: #000000; stroke-linejoin: miter"/>
     <use xlink:href="#m933d1d51b8" x="156.088475" y="301.891138" style="stroke: #000000; stroke-linejoin: miter"/>
     <use xlink:href="#m933d1d51b8" x="194.287407" y="304.331538" style="stroke: #000000; stroke-linejoin: miter"/>
     <use xlink:href="#m933d1d51b8" x="232.48634" y="306.771938" style="stroke: #000000; stroke-linejoin: miter"/>
     <use xlink:href="#m933d1d51b8" x="270.685272" y="306.901693" style="stroke: #000000; stroke-linejoin: miter"/>
     <use xlink:href="#m933d1d51b8" x="308.884205" y="307.8" style="stroke: #000000; stroke-linejoin: miter"/>
    </g>
   </g>
   <g id="patch_3">
    <path d="M 64.251875 320.4 
L 64.251875 43.2 
" style="fill: none; stroke: #000000; stroke-width: 0.8; stroke-linejoin: miter; stroke-linecap: square"/>
   </g>
   <g id="patch_4">
    <path d="M 403.904049 320.4 
L 403.904049 43.2 
" style="fill: none; stroke: #000000; stroke-width: 0.8; stroke-linejoin: miter; stroke-linecap: square"/>
   </g>
   <g id="patch_5">
    <path d="M 64.251875 320.4 
L 403.904049 320.4 
" style="fill: none; stroke: #000000; stroke-width: 0.8; stroke-linejoin: miter; stroke-linecap: square"/>
   </g>
   <g id="patch_6">
    <path d="M 64.251875 43.2 
L 403.904049 43.2 
" style="fill: none; stroke: #000000; stroke-width: 0.8; stroke-linejoin: miter; stroke-linecap: square"/>
   </g>
   <g id="legend_1">
    <g id="patch_7">
     <path d="M 252.214986 109.9125 
L 396.904049 109.9125 
Q 398.904049 109.9125 398.904049 107.9125 
L 398.904049 50.2 
Q 398.904049 48.2 396.904049 48.2 
L 252.214986 48.2 
Q 250.214986 48.2 250.214986 50.2 
L 250.214986 107.9125 
Q 250.214986 109.9125 252.214986 109.9125 
z
" style="fill: #ffffff; opacity: 0.8; stroke: #cccccc; stroke-linejoin: miter"/>
    </g>
    <g id="line2d_16">
     <path d="M 254.214986 56.298437 
L 274.214986 56.298437 
" style="fill: none; stroke: #ff7f0e; stroke-width: 2; stroke-linecap: square"/>
    </g>
    <g id="line2d_17"/>
    <g id="text_14">
     <!-- ED60, ERY -->
     <g transform="translate(282.214986 59.798437) scale(0.1 -0.1)">
      <defs>
       <path id="DejaVuSans-45" d="M 628 4666 
L 3578 4666 
L 3578 4134 
L 1259 4134 
L 1259 2753 
L 3481 2753 
L 3481 2222 
L 1259 2222 
L 1259 531 
L 3634 531 
L 3634 0 
L 628 0 
L 628 4666 
z
" transform="scale(0.015625)"/>
       <path id="DejaVuSans-44" d="M 1259 4147 
L 1259 519 
L 2022 519 
Q 2988 519 3436 956 
Q 3884 1394 3884 2338 
Q 3884 3275 3436 3711 
Q 2988 4147 2022 4147 
L 1259 4147 
z
M 628 4666 
L 1925 4666 
Q 3281 4666 3915 4102 
Q 4550 3538 4550 2338 
Q 4550 1131 3912 565 
Q 3275 0 1925 0 
L 628 0 
L 628 4666 
z
" transform="scale(0.015625)"/>
       <path id="DejaVuSans-2c" d="M 750 794 
L 1409 794 
L 1409 256 
L 897 -744 
L 494 -744 
L 750 256 
L 750 794 
z
" transform="scale(0.015625)"/>
       <path id="DejaVuSans-20" transform="scale(0.015625)"/>
       <path id="DejaVuSans-52" d="M 2841 2188 
Q 3044 2119 3236 1894 
Q 3428 1669 3622 1275 
L 4263 0 
L 3584 0 
L 2988 1197 
Q 2756 1666 2539 1819 
Q 2322 1972 1947 1972 
L 1259 1972 
L 1259 0 
L 628 0 
L 628 4666 
L 2053 4666 
Q 2853 4666 3247 4331 
Q 3641 3997 3641 3322 
Q 3641 2881 3436 2590 
Q 3231 2300 2841 2188 
z
M 1259 4147 
L 1259 2491 
L 2053 2491 
Q 2509 2491 2742 2702 
Q 2975 2913 2975 3322 
Q 2975 3731 2742 3939 
Q 2509 4147 2053 4147 
L 1259 4147 
z
" transform="scale(0.015625)"/>
       <path id="DejaVuSans-59" d="M -13 4666 
L 666 4666 
L 1959 2747 
L 3244 4666 
L 3922 4666 
L 2272 2222 
L 2272 0 
L 1638 0 
L 1638 2222 
L -13 4666 
z
" transform="scale(0.015625)"/>
      </defs>
      <use xlink:href="#DejaVuSans-45"/>
      <use xlink:href="#DejaVuSans-44" transform="translate(63.183594 0)"/>
      <use xlink:href="#DejaVuSans-36" transform="translate(140.185547 0)"/>
      <use xlink:href="#DejaVuSans-30" transform="translate(203.808594 0)"/>
      <use xlink:href="#DejaVuSans-2c" transform="translate(267.431641 0)"/>
      <use xlink:href="#DejaVuSans-20" transform="translate(299.21875 0)"/>
      <use xlink:href="#DejaVuSans-45" transform="translate(331.005859 0)"/>
      <use xlink:href="#DejaVuSans-52" transform="translate(394.189453 0)"/>
      <use xlink:href="#DejaVuSans-59" transform="translate(457.296875 0)"/>
     </g>
    </g>
    <g id="LineCollection_3">
     <path d="M 264.214986 75.976562 
L 264.214986 65.976562 
" style="fill: none; stroke: #ff7f0e"/>
    </g>
    <g id="line2d_18">
     <path d="M 254.214986 70.976562 
L 274.214986 70.976562 
" style="fill: none; stroke-dasharray: 3.7,1.6; stroke-dashoffset: 0; stroke: #ff7f0e"/>
    </g>
    <g id="line2d_19">
     <g>
      <use xlink:href="#ma1053b88bb" x="264.214986" y="70.976562" style="fill: #ff7f0e; stroke: #000000; stroke-linejoin: miter"/>
     </g>
    </g>
    <g id="text_15">
     <!-- ED60, ERY±SD (n=33) -->
     <g transform="translate(282.214986 74.476562) scale(0.1 -0.1)">
      <defs>
       <path id="DejaVuSans-b1" d="M 2944 4013 
L 2944 2803 
L 4684 2803 
L 4684 2272 
L 2944 2272 
L 2944 1063 
L 2419 1063 
L 2419 2272 
L 678 2272 
L 678 2803 
L 2419 2803 
L 2419 4013 
L 2944 4013 
z
M 678 531 
L 4684 531 
L 4684 0 
L 678 0 
L 678 531 
z
" transform="scale(0.015625)"/>
       <path id="DejaVuSans-53" d="M 3425 4513 
L 3425 3897 
Q 3066 4069 2747 4153 
Q 2428 4238 2131 4238 
Q 1616 4238 1336 4038 
Q 1056 3838 1056 3469 
Q 1056 3159 1242 3001 
Q 1428 2844 1947 2747 
L 2328 2669 
Q 3034 2534 3370 2195 
Q 3706 1856 3706 1288 
Q 3706 609 3251 259 
Q 2797 -91 1919 -91 
Q 1588 -91 1214 -16 
Q 841 59 441 206 
L 441 856 
Q 825 641 1194 531 
Q 1563 422 1919 422 
Q 2459 422 2753 634 
Q 3047 847 3047 1241 
Q 3047 1584 2836 1778 
Q 2625 1972 2144 2069 
L 1759 2144 
Q 1053 2284 737 2584 
Q 422 2884 422 3419 
Q 422 4038 858 4394 
Q 1294 4750 2059 4750 
Q 2388 4750 2728 4690 
Q 3069 4631 3425 4513 
z
" transform="scale(0.015625)"/>
       <path id="DejaVuSans-28" d="M 1984 4856 
Q 1566 4138 1362 3434 
Q 1159 2731 1159 2009 
Q 1159 1288 1364 580 
Q 1569 -128 1984 -844 
L 1484 -844 
Q 1016 -109 783 600 
Q 550 1309 550 2009 
Q 550 2706 781 3412 
Q 1013 4119 1484 4856 
L 1984 4856 
z
" transform="scale(0.015625)"/>
       <path id="DejaVuSans-6e" d="M 3513 2113 
L 3513 0 
L 2938 0 
L 2938 2094 
Q 2938 2591 2744 2837 
Q 2550 3084 2163 3084 
Q 1697 3084 1428 2787 
Q 1159 2491 1159 1978 
L 1159 0 
L 581 0 
L 581 3500 
L 1159 3500 
L 1159 2956 
Q 1366 3272 1645 3428 
Q 1925 3584 2291 3584 
Q 2894 3584 3203 3211 
Q 3513 2838 3513 2113 
z
" transform="scale(0.015625)"/>
       <path id="DejaVuSans-3d" d="M 678 2906 
L 4684 2906 
L 4684 2381 
L 678 2381 
L 678 2906 
z
M 678 1631 
L 4684 1631 
L 4684 1100 
L 678 1100 
L 678 1631 
z
" transform="scale(0.015625)"/>
       <path id="DejaVuSans-33" d="M 2597 2516 
Q 3050 2419 3304 2112 
Q 3559 1806 3559 1356 
Q 3559 666 3084 287 
Q 2609 -91 1734 -91 
Q 1441 -91 1130 -33 
Q 819 25 488 141 
L 488 750 
Q 750 597 1062 519 
Q 1375 441 1716 441 
Q 2309 441 2620 675 
Q 2931 909 2931 1356 
Q 2931 1769 2642 2001 
Q 2353 2234 1838 2234 
L 1294 2234 
L 1294 2753 
L 1863 2753 
Q 2328 2753 2575 2939 
Q 2822 3125 2822 3475 
Q 2822 3834 2567 4026 
Q 2313 4219 1838 4219 
Q 1578 4219 1281 4162 
Q 984 4106 628 3988 
L 628 4550 
Q 988 4650 1302 4700 
Q 1616 4750 1894 4750 
Q 2613 4750 3031 4423 
Q 3450 4097 3450 3541 
Q 3450 3153 3228 2886 
Q 3006 2619 2597 2516 
z
" transform="scale(0.015625)"/>
       <path id="DejaVuSans-29" d="M 513 4856 
L 1013 4856 
Q 1481 4119 1714 3412 
Q 1947 2706 1947 2009 
Q 1947 1309 1714 600 
Q 1481 -109 1013 -844 
L 513 -844 
Q 928 -128 1133 580 
Q 1338 1288 1338 2009 
Q 1338 2731 1133 3434 
Q 928 4138 513 4856 
z
" transform="scale(0.015625)"/>
      </defs>
      <use xlink:href="#DejaVuSans-45"/>
      <use xlink:href="#DejaVuSans-44" transform="translate(63.183594 0)"/>
      <use xlink:href="#DejaVuSans-36" transform="translate(140.185547 0)"/>
      <use xlink:href="#DejaVuSans-30" transform="translate(203.808594 0)"/>
      <use xlink:href="#DejaVuSans-2c" transform="translate(267.431641 0)"/>
      <use xlink:href="#DejaVuSans-20" transform="translate(299.21875 0)"/>
      <use xlink:href="#DejaVuSans-45" transform="translate(331.005859 0)"/>
      <use xlink:href="#DejaVuSans-52" transform="translate(394.189453 0)"/>
      <use xlink:href="#DejaVuSans-59" transform="translate(457.296875 0)"/>
      <use xlink:href="#DejaVuSans-b1" transform="translate(518.380859 0)"/>
      <use xlink:href="#DejaVuSans-53" transform="translate(602.169922 0)"/>
      <use xlink:href="#DejaVuSans-44" transform="translate(665.646484 0)"/>
      <use xlink:href="#DejaVuSans-20" transform="translate(742.648438 0)"/>
      <use xlink:href="#DejaVuSans-28" transform="translate(774.435547 0)"/>
      <use xlink:href="#DejaVuSans-6e" transform="translate(813.449219 0)"/>
      <use xlink:href="#DejaVuSans-3d" transform="translate(876.828125 0)"/>
      <use xlink:href="#DejaVuSans-33" transform="translate(960.617188 0)"/>
      <use xlink:href="#DejaVuSans-33" transform="translate(1024.240234 0)"/>
      <use xlink:href="#DejaVuSans-29" transform="translate(1087.863281 0)"/>
     </g>
    </g>
    <g id="line2d_20">
     <path d="M 254.214986 85.654687 
L 274.214986 85.654687 
" style="fill: none; stroke: #000000; stroke-width: 2; stroke-linecap: square"/>
    </g>
    <g id="line2d_21"/>
    <g id="text_16">
     <!-- ED60 -->
     <g transform="translate(282.214986 89.154687) scale(0.1 -0.1)">
      <use xlink:href="#DejaVuSans-45"/>
      <use xlink:href="#DejaVuSans-44" transform="translate(63.183594 0)"/>
      <use xlink:href="#DejaVuSans-36" transform="translate(140.185547 0)"/>
      <use xlink:href="#DejaVuSans-30" transform="translate(203.808594 0)"/>
     </g>
    </g>
    <g id="LineCollection_4">
     <path d="M 264.214986 105.332812 
L 264.214986 95.332812 
" style="fill: none; stroke: #000000"/>
    </g>
    <g id="line2d_22">
     <path d="M 254.214986 100.332812 
L 274.214986 100.332812 
" style="fill: none; stroke-dasharray: 3.7,1.6; stroke-dashoffset: 0; stroke: #000000"/>
    </g>
    <g id="line2d_23">
     <g>
      <use xlink:href="#m933d1d51b8" x="264.214986" y="100.332812" style="stroke: #000000; stroke-linejoin: miter"/>
     </g>
    </g>
    <g id="text_17">
     <!-- ED60±SD (n=33) -->
     <g transform="translate(282.214986 103.832812) scale(0.1 -0.1)">
      <use xlink:href="#DejaVuSans-45"/>
      <use xlink:href="#DejaVuSans-44" transform="translate(63.183594 0)"/>
      <use xlink:href="#DejaVuSans-36" transform="translate(140.185547 0)"/>
      <use xlink:href="#DejaVuSans-30" transform="translate(203.808594 0)"/>
      <use xlink:href="#DejaVuSans-b1" transform="translate(267.431641 0)"/>
      <use xlink:href="#DejaVuSans-53" transform="translate(351.220703 0)"/>
      <use xlink:href="#DejaVuSans-44" transform="translate(414.697266 0)"/>
      <use xlink:href="#DejaVuSans-20" transform="translate(491.699219 0)"/>
      <use xlink:href="#DejaVuSans-28" transform="translate(523.486328 0)"/>
      <use xlink:href="#DejaVuSans-6e" transform="translate(562.5 0)"/>
      <use xlink:href="#DejaVuSans-3d" transform="translate(625.878906 0)"/>
      <use xlink:href="#DejaVuSans-33" transform="translate(709.667969 0)"/>
      <use xlink:href="#DejaVuSans-33" transform="translate(773.291016 0)"/>
      <use xlink:href="#DejaVuSans-29" transform="translate(836.914062 0)"/>
     </g>
    </g>
   </g>
  </g>
  <g id="axes_2">
   <g id="patch_8">
    <path d="M 505.799701 320.4 
L 845.451875 320.4 
L 845.451875 43.2 
L 505.799701 43.2 
z
" style="fill: #ffffff"/>
   </g>
   <g id="matplotlib.axis_3">
    <g id="xtick_7">
     <g id="line2d_24">
      <g>
       <use xlink:href="#ma4824194cb" x="521.238436" y="320.4" style="stroke: #000000; stroke-width: 0.8"/>
      </g>
     </g>
     <g id="text_18">
      <!-- 0 -->
      <g transform="translate(516.466561 338.797656) scale(0.15 -0.15)">
       <use xlink:href="#DejaVuSans-30"/>
      </g>
     </g>
    </g>
    <g id="xtick_8">
     <g id="line2d_25">
      <g>
       <use xlink:href="#ma4824194cb" x="584.903324" y="320.4" style="stroke: #000000; stroke-width: 0.8"/>
      </g>
     </g>
     <g id="text_19">
      <!-- 20 -->
      <g transform="translate(575.359574 338.797656) scale(0.15 -0.15)">
       <use xlink:href="#DejaVuSans-32"/>
       <use xlink:href="#DejaVuSans-30" transform="translate(63.623047 0)"/>
      </g>
     </g>
    </g>
    <g id="xtick_9">
     <g id="line2d_26">
      <g>
       <use xlink:href="#ma4824194cb" x="648.568211" y="320.4" style="stroke: #000000; stroke-width: 0.8"/>
      </g>
     </g>
     <g id="text_20">
      <!-- 40 -->
      <g transform="translate(639.024461 338.797656) scale(0.15 -0.15)">
       <use xlink:href="#DejaVuSans-34"/>
       <use xlink:href="#DejaVuSans-30" transform="translate(63.623047 0)"/>
      </g>
     </g>
    </g>
    <g id="xtick_10">
     <g id="line2d_27">
      <g>
       <use xlink:href="#ma4824194cb" x="712.233098" y="320.4" style="stroke: #000000; stroke-width: 0.8"/>
      </g>
     </g>
     <g id="text_21">
      <!-- 60 -->
      <g transform="translate(702.689348 338.797656) scale(0.15 -0.15)">
       <use xlink:href="#DejaVuSans-36"/>
       <use xlink:href="#DejaVuSans-30" transform="translate(63.623047 0)"/>
      </g>
     </g>
    </g>
    <g id="xtick_11">
     <g id="line2d_28">
      <g>
       <use xlink:href="#ma4824194cb" x="775.897986" y="320.4" style="stroke: #000000; stroke-width: 0.8"/>
      </g>
     </g>
     <g id="text_22">
      <!-- 80 -->
      <g transform="translate(766.354236 338.797656) scale(0.15 -0.15)">
       <use xlink:href="#DejaVuSans-38"/>
       <use xlink:href="#DejaVuSans-30" transform="translate(63.623047 0)"/>
      </g>
     </g>
    </g>
    <g id="xtick_12">
     <g id="line2d_29">
      <g>
       <use xlink:href="#ma4824194cb" x="839.562873" y="320.4" style="stroke: #000000; stroke-width: 0.8"/>
      </g>
     </g>
     <g id="text_23">
      <!-- 100 -->
      <g transform="translate(825.247248 338.797656) scale(0.15 -0.15)">
       <use xlink:href="#DejaVuSans-31"/>
       <use xlink:href="#DejaVuSans-30" transform="translate(63.623047 0)"/>
       <use xlink:href="#DejaVuSans-30" transform="translate(127.246094 0)"/>
      </g>
     </g>
    </g>
    <g id="text_24">
     <!-- time [hr] -->
     <g transform="translate(630.551257 359.594375) scale(0.18 -0.18)">
      <use xlink:href="#DejaVuSans-Bold-74"/>
      <use xlink:href="#DejaVuSans-Bold-69" transform="translate(47.802734 0)"/>
      <use xlink:href="#DejaVuSans-Bold-6d" transform="translate(82.080078 0)"/>
      <use xlink:href="#DejaVuSans-Bold-65" transform="translate(186.279297 0)"/>
      <use xlink:href="#DejaVuSans-Bold-20" transform="translate(254.101562 0)"/>
      <use xlink:href="#DejaVuSans-Bold-5b" transform="translate(288.916016 0)"/>
      <use xlink:href="#DejaVuSans-Bold-68" transform="translate(334.619141 0)"/>
      <use xlink:href="#DejaVuSans-Bold-72" transform="translate(405.810547 0)"/>
      <use xlink:href="#DejaVuSans-Bold-5d" transform="translate(455.126953 0)"/>
     </g>
    </g>
   </g>
   <g id="matplotlib.axis_4">
    <g id="ytick_6">
     <g id="line2d_30">
      <g>
       <use xlink:href="#m710a4e4c95" x="505.799701" y="299.026178" style="stroke: #000000; stroke-width: 0.8"/>
      </g>
     </g>
     <g id="text_25">
      <!-- 0 -->
      <g transform="translate(489.255951 304.725006) scale(0.15 -0.15)">
       <use xlink:href="#DejaVuSans-30"/>
      </g>
     </g>
    </g>
    <g id="ytick_7">
     <g id="line2d_31">
      <g>
       <use xlink:href="#m710a4e4c95" x="505.799701" y="264.656545" style="stroke: #000000; stroke-width: 0.8"/>
      </g>
     </g>
     <g id="text_26">
      <!-- 10 -->
      <g transform="translate(479.712201 270.355373) scale(0.15 -0.15)">
       <use xlink:href="#DejaVuSans-31"/>
       <use xlink:href="#DejaVuSans-30" transform="translate(63.623047 0)"/>
      </g>
     </g>
    </g>
    <g id="ytick_8">
     <g id="line2d_32">
      <g>
       <use xlink:href="#m710a4e4c95" x="505.799701" y="230.286911" style="stroke: #000000; stroke-width: 0.8"/>
      </g>
     </g>
     <g id="text_27">
      <!-- 20 -->
      <g transform="translate(479.712201 235.985739) scale(0.15 -0.15)">
       <use xlink:href="#DejaVuSans-32"/>
       <use xlink:href="#DejaVuSans-30" transform="translate(63.623047 0)"/>
      </g>
     </g>
    </g>
    <g id="ytick_9">
     <g id="line2d_33">
      <g>
       <use xlink:href="#m710a4e4c95" x="505.799701" y="195.917277" style="stroke: #000000; stroke-width: 0.8"/>
      </g>
     </g>
     <g id="text_28">
      <!-- 30 -->
      <g transform="translate(479.712201 201.616106) scale(0.15 -0.15)">
       <use xlink:href="#DejaVuSans-33"/>
       <use xlink:href="#DejaVuSans-30" transform="translate(63.623047 0)"/>
      </g>
     </g>
    </g>
    <g id="ytick_10">
     <g id="line2d_34">
      <g>
       <use xlink:href="#m710a4e4c95" x="505.799701" y="161.547644" style="stroke: #000000; stroke-width: 0.8"/>
      </g>
     </g>
     <g id="text_29">
      <!-- 40 -->
      <g transform="translate(479.712201 167.246472) scale(0.15 -0.15)">
       <use xlink:href="#DejaVuSans-34"/>
       <use xlink:href="#DejaVuSans-30" transform="translate(63.623047 0)"/>
      </g>
     </g>
    </g>
    <g id="ytick_11">
     <g id="line2d_35">
      <g>
       <use xlink:href="#m710a4e4c95" x="505.799701" y="127.17801" style="stroke: #000000; stroke-width: 0.8"/>
      </g>
     </g>
     <g id="text_30">
      <!-- 50 -->
      <g transform="translate(479.712201 132.876839) scale(0.15 -0.15)">
       <defs>
        <path id="DejaVuSans-35" d="M 691 4666 
L 3169 4666 
L 3169 4134 
L 1269 4134 
L 1269 2991 
Q 1406 3038 1543 3061 
Q 1681 3084 1819 3084 
Q 2600 3084 3056 2656 
Q 3513 2228 3513 1497 
Q 3513 744 3044 326 
Q 2575 -91 1722 -91 
Q 1428 -91 1123 -41 
Q 819 9 494 109 
L 494 744 
Q 775 591 1075 516 
Q 1375 441 1709 441 
Q 2250 441 2565 725 
Q 2881 1009 2881 1497 
Q 2881 1984 2565 2268 
Q 2250 2553 1709 2553 
Q 1456 2553 1204 2497 
Q 953 2441 691 2322 
L 691 4666 
z
" transform="scale(0.015625)"/>
       </defs>
       <use xlink:href="#DejaVuSans-35"/>
       <use xlink:href="#DejaVuSans-30" transform="translate(63.623047 0)"/>
      </g>
     </g>
    </g>
    <g id="ytick_12">
     <g id="line2d_36">
      <g>
       <use xlink:href="#m710a4e4c95" x="505.799701" y="92.808377" style="stroke: #000000; stroke-width: 0.8"/>
      </g>
     </g>
     <g id="text_31">
      <!-- 60 -->
      <g transform="translate(479.712201 98.507205) scale(0.15 -0.15)">
       <use xlink:href="#DejaVuSans-36"/>
       <use xlink:href="#DejaVuSans-30" transform="translate(63.623047 0)"/>
      </g>
     </g>
    </g>
    <g id="ytick_13">
     <g id="line2d_37">
      <g>
       <use xlink:href="#m710a4e4c95" x="505.799701" y="58.438743" style="stroke: #000000; stroke-width: 0.8"/>
      </g>
     </g>
     <g id="text_32">
      <!-- 70 -->
      <g transform="translate(479.712201 64.137572) scale(0.15 -0.15)">
       <defs>
        <path id="DejaVuSans-37" d="M 525 4666 
L 3525 4666 
L 3525 4397 
L 1831 0 
L 1172 0 
L 2766 4134 
L 525 4134 
L 525 4666 
z
" transform="scale(0.015625)"/>
       </defs>
       <use xlink:href="#DejaVuSans-37"/>
       <use xlink:href="#DejaVuSans-30" transform="translate(63.623047 0)"/>
      </g>
     </g>
    </g>
    <g id="text_33">
     <!-- M4 plasma [nM] -->
     <g transform="translate(471.968764 263.28375) rotate(-90) scale(0.18 -0.18)">
      <defs>
       <path id="DejaVuSans-Bold-34" d="M 2356 3675 
L 1038 1722 
L 2356 1722 
L 2356 3675 
z
M 2156 4666 
L 3494 4666 
L 3494 1722 
L 4159 1722 
L 4159 850 
L 3494 850 
L 3494 0 
L 2356 0 
L 2356 850 
L 288 850 
L 288 1881 
L 2156 4666 
z
" transform="scale(0.015625)"/>
      </defs>
      <use xlink:href="#DejaVuSans-Bold-4d"/>
      <use xlink:href="#DejaVuSans-Bold-34" transform="translate(99.511719 0)"/>
      <use xlink:href="#DejaVuSans-Bold-20" transform="translate(169.091797 0)"/>
      <use xlink:href="#DejaVuSans-Bold-70" transform="translate(203.90625 0)"/>
      <use xlink:href="#DejaVuSans-Bold-6c" transform="translate(275.488281 0)"/>
      <use xlink:href="#DejaVuSans-Bold-61" transform="translate(309.765625 0)"/>
      <use xlink:href="#DejaVuSans-Bold-73" transform="translate(377.246094 0)"/>
      <use xlink:href="#DejaVuSans-Bold-6d" transform="translate(436.767578 0)"/>
      <use xlink:href="#DejaVuSans-Bold-61" transform="translate(540.966797 0)"/>
      <use xlink:href="#DejaVuSans-Bold-20" transform="translate(608.447266 0)"/>
      <use xlink:href="#DejaVuSans-Bold-5b" transform="translate(643.261719 0)"/>
      <use xlink:href="#DejaVuSans-Bold-6e" transform="translate(688.964844 0)"/>
      <use xlink:href="#DejaVuSans-Bold-4d" transform="translate(760.15625 0)"/>
      <use xlink:href="#DejaVuSans-Bold-5d" transform="translate(859.667969 0)"/>
     </g>
    </g>
   </g>
   <g id="LineCollection_5">
    <path clip-path="url(#p6b24613e90)" style="fill: none; stroke: #ff7f0e"/>
    <path d="M 522.830058 307.8 
L 522.830058 272.968586 
" clip-path="url(#p6b24613e90)" style="fill: none; stroke: #ff7f0e"/>
    <path d="M 524.421681 264.326702 
L 524.421681 159.964398 
" clip-path="url(#p6b24613e90)" style="fill: none; stroke: #ff7f0e"/>
    <path d="M 526.013303 223.82199 
L 526.013303 84.628272 
" clip-path="url(#p6b24613e90)" style="fill: none; stroke: #ff7f0e"/>
    <path d="M 527.604925 206.472251 
L 527.604925 67.278534 
" clip-path="url(#p6b24613e90)" style="fill: none; stroke: #ff7f0e"/>
    <path d="M 529.196547 192.025131 
L 529.196547 58.636649 
" clip-path="url(#p6b24613e90)" style="fill: none; stroke: #ff7f0e"/>
    <path d="M 530.788169 206.604188 
L 530.788169 55.8 
" clip-path="url(#p6b24613e90)" style="fill: none; stroke: #ff7f0e"/>
    <path d="M 532.379792 206.670157 
L 532.379792 90.697382 
" clip-path="url(#p6b24613e90)" style="fill: none; stroke: #ff7f0e"/>
    <path d="M 537.154658 227.120419 
L 537.154658 128.563351 
" clip-path="url(#p6b24613e90)" style="fill: none; stroke: #ff7f0e"/>
    <path d="M 540.337902 247.570681 
L 540.337902 189.518325 
" clip-path="url(#p6b24613e90)" style="fill: none; stroke: #ff7f0e"/>
    <path d="M 546.704391 268.020942 
L 546.704391 227.51623 
" clip-path="url(#p6b24613e90)" style="fill: none; stroke: #ff7f0e"/>
    <path d="M 559.437369 285.964398 
L 559.437369 268.548691 
" clip-path="url(#p6b24613e90)" style="fill: none; stroke: #ff7f0e"/>
    <path clip-path="url(#p6b24613e90)" style="fill: none; stroke: #ff7f0e"/>
    <path clip-path="url(#p6b24613e90)" style="fill: none; stroke: #ff7f0e"/>
    <path clip-path="url(#p6b24613e90)" style="fill: none; stroke: #ff7f0e"/>
    <path clip-path="url(#p6b24613e90)" style="fill: none; stroke: #ff7f0e"/>
    <path clip-path="url(#p6b24613e90)" style="fill: none; stroke: #ff7f0e"/>
    <path clip-path="url(#p6b24613e90)" style="fill: none; stroke: #ff7f0e"/>
   </g>
   <g id="LineCollection_6">
    <path clip-path="url(#p6b24613e90)" style="fill: none; stroke: #000000"/>
    <path d="M 522.830058 307.8 
L 522.830058 272.968586 
" clip-path="url(#p6b24613e90)" style="fill: none; stroke: #000000"/>
    <path d="M 524.421681 278.905759 
L 524.421681 174.411518 
" clip-path="url(#p6b24613e90)" style="fill: none; stroke: #000000"/>
    <path d="M 526.013303 261.490052 
L 526.013303 116.491099 
" clip-path="url(#p6b24613e90)" style="fill: none; stroke: #000000"/>
    <path d="M 527.604925 235.366492 
L 527.604925 125.33089 
" clip-path="url(#p6b24613e90)" style="fill: none; stroke: #000000"/>
    <path d="M 529.196547 238.401047 
L 529.196547 128.233508 
" clip-path="url(#p6b24613e90)" style="fill: none; stroke: #000000"/>
    <path d="M 530.788169 247.174869 
L 530.788169 137.00733 
" clip-path="url(#p6b24613e90)" style="fill: none; stroke: #000000"/>
    <path d="M 532.379792 247.240838 
L 532.379792 171.904712 
" clip-path="url(#p6b24613e90)" style="fill: none; stroke: #000000"/>
    <path d="M 537.154658 264.788482 
L 537.154658 189.452356 
" clip-path="url(#p6b24613e90)" style="fill: none; stroke: #000000"/>
    <path d="M 540.337902 264.986387 
L 540.337902 224.349738 
" clip-path="url(#p6b24613e90)" style="fill: none; stroke: #000000"/>
    <path d="M 546.704391 279.631414 
L 546.704391 250.737173 
" clip-path="url(#p6b24613e90)" style="fill: none; stroke: #000000"/>
    <path d="M 559.437369 300.477487 
L 559.437369 271.451309 
" clip-path="url(#p6b24613e90)" style="fill: none; stroke: #000000"/>
    <path clip-path="url(#p6b24613e90)" style="fill: none; stroke: #000000"/>
    <path clip-path="url(#p6b24613e90)" style="fill: none; stroke: #000000"/>
    <path clip-path="url(#p6b24613e90)" style="fill: none; stroke: #000000"/>
    <path clip-path="url(#p6b24613e90)" style="fill: none; stroke: #000000"/>
    <path clip-path="url(#p6b24613e90)" style="fill: none; stroke: #000000"/>
    <path clip-path="url(#p6b24613e90)" style="fill: none; stroke: #000000"/>
   </g>
   <g id="line2d_38">
    <path d="M 521.238436 299.026178 
L 521.855986 292.609664 
L 522.473535 271.267376 
L 523.708634 216.100373 
L 524.326183 193.315472 
L 524.943733 176.059993 
L 525.561282 164.149223 
L 526.178832 156.862753 
L 526.796381 153.338616 
L 527.41393 152.753731 
L 528.03148 154.393421 
L 528.649029 157.667643 
L 529.884128 167.331241 
L 531.736776 185.220927 
L 534.206974 208.997454 
L 536.059622 224.651151 
L 537.91227 238.001418 
L 539.764918 249.150925 
L 541.000017 255.485458 
L 542.235116 261.04166 
L 543.470215 265.904756 
L 544.705314 270.154913 
L 545.940413 273.865573 
L 547.175511 277.102902 
L 549.02816 281.198534 
L 550.880808 284.531235 
L 552.733456 287.241966 
L 554.586104 289.446255 
L 556.438752 291.238457 
L 558.291401 292.695488 
L 560.144049 293.879972 
L 561.996697 294.842861 
L 564.466895 295.852498 
L 566.937092 296.618468 
L 570.024839 297.321451 
L 573.730136 297.899721 
L 578.052982 298.331498 
L 583.610926 298.653036 
L 591.639069 298.874122 
L 605.225156 298.992895 
L 644.748318 299.025777 
L 830.01314 299.026178 
L 830.01314 299.026178 
" clip-path="url(#p6b24613e90)" style="fill: none; stroke: #ff7f0e; stroke-width: 2; stroke-linecap: square"/>
   </g>
   <g id="line2d_39">
    <path d="M 521.238436 299.026178 
L 522.830058 290.384293 
L 524.421681 212.14555 
L 526.013303 154.225131 
L 527.604925 136.875393 
L 529.196547 125.33089 
L 530.788169 131.202094 
L 532.379792 148.68377 
L 537.154658 177.841885 
L 540.337902 218.544503 
L 546.704391 247.768586 
L 559.437369 277.256545 
L 572.170346 289.394764 
L 597.636301 294.73822 
L 635.835233 297.574869 
L 674.034166 298.564398 
L 712.233098 298.696335 
L 750.432031 299.026178 
" clip-path="url(#p6b24613e90)" style="fill: none; stroke-dasharray: 3.7,1.6; stroke-dashoffset: 0; stroke: #ff7f0e"/>
    <g clip-path="url(#p6b24613e90)">
     <use xlink:href="#ma1053b88bb" x="521.238436" y="299.026178" style="fill: #ff7f0e; stroke: #000000; stroke-linejoin: miter"/>
     <use xlink:href="#ma1053b88bb" x="522.830058" y="290.384293" style="fill: #ff7f0e; stroke: #000000; stroke-linejoin: miter"/>
     <use xlink:href="#ma1053b88bb" x="524.421681" y="212.14555" style="fill: #ff7f0e; stroke: #000000; stroke-linejoin: miter"/>
     <use xlink:href="#ma1053b88bb" x="526.013303" y="154.225131" style="fill: #ff7f0e; stroke: #000000; stroke-linejoin: miter"/>
     <use xlink:href="#ma1053b88bb" x="527.604925" y="136.875393" style="fill: #ff7f0e; stroke: #000000; stroke-linejoin: miter"/>
     <use xlink:href="#ma1053b88bb" x="529.196547" y="125.33089" style="fill: #ff7f0e; stroke: #000000; stroke-linejoin: miter"/>
     <use xlink:href="#ma1053b88bb" x="530.788169" y="131.202094" style="fill: #ff7f0e; stroke: #000000; stroke-linejoin: miter"/>
     <use xlink:href="#ma1053b88bb" x="532.379792" y="148.68377" style="fill: #ff7f0e; stroke: #000000; stroke-linejoin: miter"/>
     <use xlink:href="#ma1053b88bb" x="537.154658" y="177.841885" style="fill: #ff7f0e; stroke: #000000; stroke-linejoin: miter"/>
     <use xlink:href="#ma1053b88bb" x="540.337902" y="218.544503" style="fill: #ff7f0e; stroke: #000000; stroke-linejoin: miter"/>
     <use xlink:href="#ma1053b88bb" x="546.704391" y="247.768586" style="fill: #ff7f0e; stroke: #000000; stroke-linejoin: miter"/>
     <use xlink:href="#ma1053b88bb" x="559.437369" y="277.256545" style="fill: #ff7f0e; stroke: #000000; stroke-linejoin: miter"/>
     <use xlink:href="#ma1053b88bb" x="572.170346" y="289.394764" style="fill: #ff7f0e; stroke: #000000; stroke-linejoin: miter"/>
     <use xlink:href="#ma1053b88bb" x="597.636301" y="294.73822" style="fill: #ff7f0e; stroke: #000000; stroke-linejoin: miter"/>
     <use xlink:href="#ma1053b88bb" x="635.835233" y="297.574869" style="fill: #ff7f0e; stroke: #000000; stroke-linejoin: miter"/>
     <use xlink:href="#ma1053b88bb" x="674.034166" y="298.564398" style="fill: #ff7f0e; stroke: #000000; stroke-linejoin: miter"/>
     <use xlink:href="#ma1053b88bb" x="712.233098" y="298.696335" style="fill: #ff7f0e; stroke: #000000; stroke-linejoin: miter"/>
     <use xlink:href="#ma1053b88bb" x="750.432031" y="299.026178" style="fill: #ff7f0e; stroke: #000000; stroke-linejoin: miter"/>
    </g>
   </g>
   <g id="line2d_40">
    <path d="M 521.238436 299.026178 
L 521.855986 292.609664 
L 522.473535 271.267376 
L 523.708634 216.100373 
L 524.326183 193.315472 
L 524.943733 176.059993 
L 525.561282 164.149223 
L 526.178832 156.862753 
L 526.796381 153.338616 
L 527.41393 152.753731 
L 528.03148 154.393421 
L 528.649029 157.667643 
L 529.884128 167.331241 
L 531.736776 185.220927 
L 534.206974 208.997454 
L 536.059622 224.651151 
L 537.91227 238.001418 
L 539.764918 249.150925 
L 541.000017 255.485458 
L 542.235116 261.04166 
L 543.470215 265.904756 
L 544.705314 270.154913 
L 545.940413 273.865573 
L 547.175511 277.102902 
L 549.02816 281.198534 
L 550.880808 284.531235 
L 552.733456 287.241966 
L 554.586104 289.446255 
L 556.438752 291.238457 
L 558.291401 292.695488 
L 560.144049 293.879972 
L 561.996697 294.842861 
L 564.466895 295.852498 
L 566.937092 296.618468 
L 570.024839 297.321451 
L 573.730136 297.899721 
L 578.052982 298.331498 
L 583.610926 298.653036 
L 591.639069 298.874122 
L 605.225156 298.992895 
L 644.748318 299.025777 
L 830.01314 299.026178 
L 830.01314 299.026178 
" clip-path="url(#p6b24613e90)" style="fill: none; stroke: #000000; stroke-width: 2; stroke-linecap: square"/>
   </g>
   <g id="line2d_41">
    <path d="M 521.238436 299.026178 
L 522.830058 290.384293 
L 524.421681 226.658639 
L 526.013303 188.990576 
L 527.604925 180.348691 
L 529.196547 183.317277 
L 530.788169 192.091099 
L 532.379792 209.572775 
L 537.154658 227.120419 
L 540.337902 244.668063 
L 546.704391 265.184293 
L 559.437369 285.964398 
L 572.170346 289.196859 
L 597.636301 294.73822 
L 635.835233 297.574869 
L 674.034166 298.564398 
L 712.233098 298.696335 
L 750.432031 299.026178 
" clip-path="url(#p6b24613e90)" style="fill: none; stroke-dasharray: 3.7,1.6; stroke-dashoffset: 0; stroke: #000000"/>
    <g clip-path="url(#p6b24613e90)">
     <use xlink:href="#m933d1d51b8" x="521.238436" y="299.026178" style="stroke: #000000; stroke-linejoin: miter"/>
     <use xlink:href="#m933d1d51b8" x="522.830058" y="290.384293" style="stroke: #000000; stroke-linejoin: miter"/>
     <use xlink:href="#m933d1d51b8" x="524.421681" y="226.658639" style="stroke: #000000; stroke-linejoin: miter"/>
     <use xlink:href="#m933d1d51b8" x="526.013303" y="188.990576" style="stroke: #000000; stroke-linejoin: miter"/>
     <use xlink:href="#m933d1d51b8" x="527.604925" y="180.348691" style="stroke: #000000; stroke-linejoin: miter"/>
     <use xlink:href="#m933d1d51b8" x="529.196547" y="183.317277" style="stroke: #000000; stroke-linejoin: miter"/>
     <use xlink:href="#m933d1d51b8" x="530.788169" y="192.091099" style="stroke: #000000; stroke-linejoin: miter"/>
     <use xlink:href="#m933d1d51b8" x="532.379792" y="209.572775" style="stroke: #000000; stroke-linejoin: miter"/>
     <use xlink:href="#m933d1d51b8" x="537.154658" y="227.120419" style="stroke: #000000; stroke-linejoin: miter"/>
     <use xlink:href="#m933d1d51b8" x="540.337902" y="244.668063" style="stroke: #000000; stroke-linejoin: miter"/>
     <use xlink:href="#m933d1d51b8" x="546.704391" y="265.184293" style="stroke: #000000; stroke-linejoin: miter"/>
     <use xlink:href="#m933d1d51b8" x="559.437369" y="285.964398" style="stroke: #000000; stroke-linejoin: miter"/>
     <use xlink:href="#m933d1d51b8" x="572.170346" y="289.196859" style="stroke: #000000; stroke-linejoin: miter"/>
     <use xlink:href="#m933d1d51b8" x="597.636301" y="294.73822" style="stroke: #000000; stroke-linejoin: miter"/>
     <use xlink:href="#m933d1d51b8" x="635.835233" y="297.574869" style="stroke: #000000; stroke-linejoin: miter"/>
     <use xlink:href="#m933d1d51b8" x="674.034166" y="298.564398" style="stroke: #000000; stroke-linejoin: miter"/>
     <use xlink:href="#m933d1d51b8" x="712.233098" y="298.696335" style="stroke: #000000; stroke-linejoin: miter"/>
     <use xlink:href="#m933d1d51b8" x="750.432031" y="299.026178" style="stroke: #000000; stroke-linejoin: miter"/>
    </g>
   </g>
   <g id="patch_9">
    <path d="M 505.799701 320.4 
L 505.799701 43.2 
" style="fill: none; stroke: #000000; stroke-width: 0.8; stroke-linejoin: miter; stroke-linecap: square"/>
   </g>
   <g id="patch_10">
    <path d="M 845.451875 320.4 
L 845.451875 43.2 
" style="fill: none; stroke: #000000; stroke-width: 0.8; stroke-linejoin: miter; stroke-linecap: square"/>
   </g>
   <g id="patch_11">
    <path d="M 505.799701 320.4 
L 845.451875 320.4 
" style="fill: none; stroke: #000000; stroke-width: 0.8; stroke-linejoin: miter; stroke-linecap: square"/>
   </g>
   <g id="patch_12">
    <path d="M 505.799701 43.2 
L 845.451875 43.2 
" style="fill: none; stroke: #000000; stroke-width: 0.8; stroke-linejoin: miter; stroke-linecap: square"/>
   </g>
   <g id="legend_2">
    <g id="patch_13">
     <path d="M 693.762813 109.9125 
L 838.451875 109.9125 
Q 840.451875 109.9125 840.451875 107.9125 
L 840.451875 50.2 
Q 840.451875 48.2 838.451875 48.2 
L 693.762813 48.2 
Q 691.762813 48.2 691.762813 50.2 
L 691.762813 107.9125 
Q 691.762813 109.9125 693.762813 109.9125 
z
" style="fill: #ffffff; opacity: 0.8; stroke: #cccccc; stroke-linejoin: miter"/>
    </g>
    <g id="line2d_42">
     <path d="M 695.762813 56.298437 
L 715.762813 56.298437 
" style="fill: none; stroke: #ff7f0e; stroke-width: 2; stroke-linecap: square"/>
    </g>
    <g id="line2d_43"/>
    <g id="text_34">
     <!-- ED60, ERY -->
     <g transform="translate(723.762813 59.798437) scale(0.1 -0.1)">
      <use xlink:href="#DejaVuSans-45"/>
      <use xlink:href="#DejaVuSans-44" transform="translate(63.183594 0)"/>
      <use xlink:href="#DejaVuSans-36" transform="translate(140.185547 0)"/>
      <use xlink:href="#DejaVuSans-30" transform="translate(203.808594 0)"/>
      <use xlink:href="#DejaVuSans-2c" transform="translate(267.431641 0)"/>
      <use xlink:href="#DejaVuSans-20" transform="translate(299.21875 0)"/>
      <use xlink:href="#DejaVuSans-45" transform="translate(331.005859 0)"/>
      <use xlink:href="#DejaVuSans-52" transform="translate(394.189453 0)"/>
      <use xlink:href="#DejaVuSans-59" transform="translate(457.296875 0)"/>
     </g>
    </g>
    <g id="LineCollection_7">
     <path d="M 705.762813 75.976562 
L 705.762813 65.976562 
" style="fill: none; stroke: #ff7f0e"/>
    </g>
    <g id="line2d_44">
     <path d="M 695.762813 70.976562 
L 715.762813 70.976562 
" style="fill: none; stroke-dasharray: 3.7,1.6; stroke-dashoffset: 0; stroke: #ff7f0e"/>
    </g>
    <g id="line2d_45">
     <g>
      <use xlink:href="#ma1053b88bb" x="705.762813" y="70.976562" style="fill: #ff7f0e; stroke: #000000; stroke-linejoin: miter"/>
     </g>
    </g>
    <g id="text_35">
     <!-- ED60, ERY±SD (n=33) -->
     <g transform="translate(723.762813 74.476562) scale(0.1 -0.1)">
      <use xlink:href="#DejaVuSans-45"/>
      <use xlink:href="#DejaVuSans-44" transform="translate(63.183594 0)"/>
      <use xlink:href="#DejaVuSans-36" transform="translate(140.185547 0)"/>
      <use xlink:href="#DejaVuSans-30" transform="translate(203.808594 0)"/>
      <use xlink:href="#DejaVuSans-2c" transform="translate(267.431641 0)"/>
      <use xlink:href="#DejaVuSans-20" transform="translate(299.21875 0)"/>
      <use xlink:href="#DejaVuSans-45" transform="translate(331.005859 0)"/>
      <use xlink:href="#DejaVuSans-52" transform="translate(394.189453 0)"/>
      <use xlink:href="#DejaVuSans-59" transform="translate(457.296875 0)"/>
      <use xlink:href="#DejaVuSans-b1" transform="translate(518.380859 0)"/>
      <use xlink:href="#DejaVuSans-53" transform="translate(602.169922 0)"/>
      <use xlink:href="#DejaVuSans-44" transform="translate(665.646484 0)"/>
      <use xlink:href="#DejaVuSans-20" transform="translate(742.648438 0)"/>
      <use xlink:href="#DejaVuSans-28" transform="translate(774.435547 0)"/>
      <use xlink:href="#DejaVuSans-6e" transform="translate(813.449219 0)"/>
      <use xlink:href="#DejaVuSans-3d" transform="translate(876.828125 0)"/>
      <use xlink:href="#DejaVuSans-33" transform="translate(960.617188 0)"/>
      <use xlink:href="#DejaVuSans-33" transform="translate(1024.240234 0)"/>
      <use xlink:href="#DejaVuSans-29" transform="translate(1087.863281 0)"/>
     </g>
    </g>
    <g id="line2d_46">
     <path d="M 695.762813 85.654687 
L 715.762813 85.654687 
" style="fill: none; stroke: #000000; stroke-width: 2; stroke-linecap: square"/>
    </g>
    <g id="line2d_47"/>
    <g id="text_36">
     <!-- ED60 -->
     <g transform="translate(723.762813 89.154687) scale(0.1 -0.1)">
      <use xlink:href="#DejaVuSans-45"/>
      <use xlink:href="#DejaVuSans-44" transform="translate(63.183594 0)"/>
      <use xlink:href="#DejaVuSans-36" transform="translate(140.185547 0)"/>
      <use xlink:href="#DejaVuSans-30" transform="translate(203.808594 0)"/>
     </g>
    </g>
    <g id="LineCollection_8">
     <path d="M 705.762813 105.332812 
L 705.762813 95.332812 
" style="fill: none; stroke: #000000"/>
    </g>
    <g id="line2d_48">
     <path d="M 695.762813 100.332812 
L 715.762813 100.332812 
" style="fill: none; stroke-dasharray: 3.7,1.6; stroke-dashoffset: 0; stroke: #000000"/>
    </g>
    <g id="line2d_49">
     <g>
      <use xlink:href="#m933d1d51b8" x="705.762813" y="100.332812" style="stroke: #000000; stroke-linejoin: miter"/>
     </g>
    </g>
    <g id="text_37">
     <!-- ED60±SD (n=33) -->
     <g transform="translate(723.762813 103.832812) scale(0.1 -0.1)">
      <use xlink:href="#DejaVuSans-45"/>
      <use xlink:href="#DejaVuSans-44" transform="translate(63.183594 0)"/>
      <use xlink:href="#DejaVuSans-36" transform="translate(140.185547 0)"/>
      <use xlink:href="#DejaVuSans-30" transform="translate(203.808594 0)"/>
      <use xlink:href="#DejaVuSans-b1" transform="translate(267.431641 0)"/>
      <use xlink:href="#DejaVuSans-53" transform="translate(351.220703 0)"/>
      <use xlink:href="#DejaVuSans-44" transform="translate(414.697266 0)"/>
      <use xlink:href="#DejaVuSans-20" transform="translate(491.699219 0)"/>
      <use xlink:href="#DejaVuSans-28" transform="translate(523.486328 0)"/>
      <use xlink:href="#DejaVuSans-6e" transform="translate(562.5 0)"/>
      <use xlink:href="#DejaVuSans-3d" transform="translate(625.878906 0)"/>
      <use xlink:href="#DejaVuSans-33" transform="translate(709.667969 0)"/>
      <use xlink:href="#DejaVuSans-33" transform="translate(773.291016 0)"/>
      <use xlink:href="#DejaVuSans-29" transform="translate(836.914062 0)"/>
     </g>
    </g>
   </g>
  </g>
  <g id="text_38">
   <!-- Parasrampuria2016 (healthy) -->
   <g transform="translate(234.902266 26.196094) scale(0.25 -0.25)">
    <defs>
     <path id="DejaVuSans-Bold-50" d="M 588 4666 
L 2584 4666 
Q 3475 4666 3951 4270 
Q 4428 3875 4428 3144 
Q 4428 2409 3951 2014 
Q 3475 1619 2584 1619 
L 1791 1619 
L 1791 0 
L 588 0 
L 588 4666 
z
M 1791 3794 
L 1791 2491 
L 2456 2491 
Q 2806 2491 2997 2661 
Q 3188 2831 3188 3144 
Q 3188 3456 2997 3625 
Q 2806 3794 2456 3794 
L 1791 3794 
z
" transform="scale(0.015625)"/>
     <path id="DejaVuSans-Bold-75" d="M 500 1363 
L 500 3500 
L 1625 3500 
L 1625 3150 
Q 1625 2866 1622 2436 
Q 1619 2006 1619 1863 
Q 1619 1441 1641 1255 
Q 1663 1069 1716 984 
Q 1784 875 1895 815 
Q 2006 756 2150 756 
Q 2500 756 2700 1025 
Q 2900 1294 2900 1772 
L 2900 3500 
L 4019 3500 
L 4019 0 
L 2900 0 
L 2900 506 
Q 2647 200 2364 54 
Q 2081 -91 1741 -91 
Q 1134 -91 817 281 
Q 500 653 500 1363 
z
" transform="scale(0.015625)"/>
     <path id="DejaVuSans-Bold-32" d="M 1844 884 
L 3897 884 
L 3897 0 
L 506 0 
L 506 884 
L 2209 2388 
Q 2438 2594 2547 2791 
Q 2656 2988 2656 3200 
Q 2656 3528 2436 3728 
Q 2216 3928 1850 3928 
Q 1569 3928 1234 3808 
Q 900 3688 519 3450 
L 519 4475 
Q 925 4609 1322 4679 
Q 1719 4750 2100 4750 
Q 2938 4750 3402 4381 
Q 3866 4013 3866 3353 
Q 3866 2972 3669 2642 
Q 3472 2313 2841 1759 
L 1844 884 
z
" transform="scale(0.015625)"/>
     <path id="DejaVuSans-Bold-30" d="M 2944 2338 
Q 2944 3213 2780 3570 
Q 2616 3928 2228 3928 
Q 1841 3928 1675 3570 
Q 1509 3213 1509 2338 
Q 1509 1453 1675 1090 
Q 1841 728 2228 728 
Q 2613 728 2778 1090 
Q 2944 1453 2944 2338 
z
M 4147 2328 
Q 4147 1169 3647 539 
Q 3147 -91 2228 -91 
Q 1306 -91 806 539 
Q 306 1169 306 2328 
Q 306 3491 806 4120 
Q 1306 4750 2228 4750 
Q 3147 4750 3647 4120 
Q 4147 3491 4147 2328 
z
" transform="scale(0.015625)"/>
     <path id="DejaVuSans-Bold-31" d="M 750 831 
L 1813 831 
L 1813 3847 
L 722 3622 
L 722 4441 
L 1806 4666 
L 2950 4666 
L 2950 831 
L 4013 831 
L 4013 0 
L 750 0 
L 750 831 
z
" transform="scale(0.015625)"/>
     <path id="DejaVuSans-Bold-36" d="M 2316 2303 
Q 2000 2303 1842 2098 
Q 1684 1894 1684 1484 
Q 1684 1075 1842 870 
Q 2000 666 2316 666 
Q 2634 666 2792 870 
Q 2950 1075 2950 1484 
Q 2950 1894 2792 2098 
Q 2634 2303 2316 2303 
z
M 3803 4544 
L 3803 3681 
Q 3506 3822 3243 3889 
Q 2981 3956 2731 3956 
Q 2194 3956 1894 3657 
Q 1594 3359 1544 2772 
Q 1750 2925 1990 3001 
Q 2231 3078 2516 3078 
Q 3231 3078 3670 2659 
Q 4109 2241 4109 1563 
Q 4109 813 3618 361 
Q 3128 -91 2303 -91 
Q 1394 -91 895 523 
Q 397 1138 397 2266 
Q 397 3422 980 4083 
Q 1563 4744 2578 4744 
Q 2900 4744 3203 4694 
Q 3506 4644 3803 4544 
z
" transform="scale(0.015625)"/>
     <path id="DejaVuSans-Bold-28" d="M 2413 -844 
L 1484 -844 
Q 1006 -72 778 623 
Q 550 1319 550 2003 
Q 550 2688 779 3389 
Q 1009 4091 1484 4856 
L 2413 4856 
Q 2013 4116 1813 3408 
Q 1613 2700 1613 2009 
Q 1613 1319 1811 609 
Q 2009 -100 2413 -844 
z
" transform="scale(0.015625)"/>
     <path id="DejaVuSans-Bold-79" d="M 78 3500 
L 1197 3500 
L 2138 1125 
L 2938 3500 
L 4056 3500 
L 2584 -331 
Q 2363 -916 2067 -1148 
Q 1772 -1381 1288 -1381 
L 641 -1381 
L 641 -647 
L 991 -647 
Q 1275 -647 1404 -556 
Q 1534 -466 1606 -231 
L 1638 -134 
L 78 3500 
z
" transform="scale(0.015625)"/>
     <path id="DejaVuSans-Bold-29" d="M 513 -844 
Q 913 -100 1113 609 
Q 1313 1319 1313 2009 
Q 1313 2700 1113 3408 
Q 913 4116 513 4856 
L 1441 4856 
Q 1916 4091 2145 3389 
Q 2375 2688 2375 2003 
Q 2375 1319 2147 623 
Q 1919 -72 1441 -844 
L 513 -844 
z
" transform="scale(0.015625)"/>
    </defs>
    <use xlink:href="#DejaVuSans-Bold-50"/>
    <use xlink:href="#DejaVuSans-Bold-61" transform="translate(70.666016 0)"/>
    <use xlink:href="#DejaVuSans-Bold-72" transform="translate(138.146484 0)"/>
    <use xlink:href="#DejaVuSans-Bold-61" transform="translate(187.462891 0)"/>
    <use xlink:href="#DejaVuSans-Bold-73" transform="translate(254.943359 0)"/>
    <use xlink:href="#DejaVuSans-Bold-72" transform="translate(314.464844 0)"/>
    <use xlink:href="#DejaVuSans-Bold-61" transform="translate(363.78125 0)"/>
    <use xlink:href="#DejaVuSans-Bold-6d" transform="translate(431.261719 0)"/>
    <use xlink:href="#DejaVuSans-Bold-70" transform="translate(535.460938 0)"/>
    <use xlink:href="#DejaVuSans-Bold-75" transform="translate(607.042969 0)"/>
    <use xlink:href="#DejaVuSans-Bold-72" transform="translate(678.234375 0)"/>
    <use xlink:href="#DejaVuSans-Bold-69" transform="translate(727.550781 0)"/>
    <use xlink:href="#DejaVuSans-Bold-61" transform="translate(761.828125 0)"/>
    <use xlink:href="#DejaVuSans-Bold-32" transform="translate(829.308594 0)"/>
    <use xlink:href="#DejaVuSans-Bold-30" transform="translate(898.888672 0)"/>
    <use xlink:href="#DejaVuSans-Bold-31" transform="translate(968.46875 0)"/>
    <use xlink:href="#DejaVuSans-Bold-36" transform="translate(1038.048828 0)"/>
    <use xlink:href="#DejaVuSans-Bold-20" transform="translate(1107.628906 0)"/>
    <use xlink:href="#DejaVuSans-Bold-28" transform="translate(1142.443359 0)"/>
    <use xlink:href="#DejaVuSans-Bold-68" transform="translate(1188.146484 0)"/>
    <use xlink:href="#DejaVuSans-Bold-65" transform="translate(1259.337891 0)"/>
    <use xlink:href="#DejaVuSans-Bold-61" transform="translate(1327.160156 0)"/>
    <use xlink:href="#DejaVuSans-Bold-6c" transform="translate(1394.640625 0)"/>
    <use xlink:href="#DejaVuSans-Bold-74" transform="translate(1428.917969 0)"/>
    <use xlink:href="#DejaVuSans-Bold-68" transform="translate(1476.720703 0)"/>
    <use xlink:href="#DejaVuSans-Bold-79" transform="translate(1547.912109 0)"/>
    <use xlink:href="#DejaVuSans-Bold-29" transform="translate(1613.097656 0)"/>
   </g>
  </g>
 </g>
 <defs>
  <clipPath id="p68057218b7">
   <rect x="64.251875" y="43.2" width="339.652174" height="277.2"/>
  </clipPath>
  <clipPath id="p6b24613e90">
   <rect x="505.799701" y="43.2" width="339.652174" height="277.2"/>
  </clipPath>
 </defs>
</svg>
