<?xml version="1.0" encoding="utf-8" standalone="no"?>
<!DOCTYPE svg PUBLIC "-//W3C//DTD SVG 1.1//EN"
  "http://www.w3.org/Graphics/SVG/1.1/DTD/svg11.dtd">
<svg xmlns:xlink="http://www.w3.org/1999/xlink" width="462.051875pt" height="370.537812pt" viewBox="0 0 462.051875 370.537812" xmlns="http://www.w3.org/2000/svg" version="1.1">
 <metadata>
  <rdf:RDF xmlns:dc="http://purl.org/dc/elements/1.1/" xmlns:cc="http://creativecommons.org/ns#" xmlns:rdf="http://www.w3.org/1999/02/22-rdf-syntax-ns#">
   <cc:Work>
    <dc:type rdf:resource="http://purl.org/dc/dcmitype/StillImage"/>
    <dc:date>2026-01-06T17:44:37.150632</dc:date>
    <dc:format>image/svg+xml</dc:format>
    <dc:creator>
     <cc:Agent>
      <dc:title>Matplotlib v3.10.7, https://matplotlib.org/</dc:title>
     </cc:Agent>
    </dc:creator>
   </cc:Work>
  </rdf:RDF>
 </metadata>
 <defs>
  <style type="text/css">*{stroke-linejoin: round; stroke-linecap: butt}</style>
 </defs>
 <g id="figure_1">
  <g id="patch_1">
   <path d="M 0 370.537812 
L 462.051875 370.537812 
L 462.051875 0 
L 0 0 
z
" style="fill: #ffffff"/>
  </g>
  <g id="axes_1">
   <g id="patch_2">
    <path d="M 64.251875 320.4 
L 454.851875 320.4 
L 454.851875 43.2 
L 64.251875 43.2 
z
" style="fill: #ffffff"/>
   </g>
   <g id="matplotlib.axis_1">
    <g id="xtick_1">
     <g id="line2d_1">
      <defs>
       <path id="m1300b0cfe3" d="M 0 0 
L 0 3.5 
" style="stroke: #000000; stroke-width: 0.8"/>
      </defs>
      <g>
       <use xlink:href="#m1300b0cfe3" x="82.00642" y="320.4" style="stroke: #000000; stroke-width: 0.8"/>
      </g>
     </g>
     <g id="text_1">
      <!-- 0 -->
      <g transform="translate(77.234545 338.797656) scale(0.15 -0.15)">
       <defs>
        <path id="DejaVuSans-30" d="M 2034 4250 
Q 1547 4250 1301 3770 
Q 1056 3291 1056 2328 
Q 1056 1369 1301 889 
Q 1547 409 2034 409 
Q 2525 409 2770 889 
Q 3016 1369 3016 2328 
Q 3016 3291 2770 3770 
Q 2525 4250 2034 4250 
z
M 2034 4750 
Q 2819 4750 3233 4129 
Q 3647 3509 3647 2328 
Q 3647 1150 3233 529 
Q 2819 -91 2034 -91 
Q 1250 -91 836 529 
Q 422 1150 422 2328 
Q 422 3509 836 4129 
Q 1250 4750 2034 4750 
z
" transform="scale(0.015625)"/>
       </defs>
       <use xlink:href="#DejaVuSans-30"/>
      </g>
     </g>
    </g>
    <g id="xtick_2">
     <g id="line2d_2">
      <g>
       <use xlink:href="#m1300b0cfe3" x="148.752832" y="320.4" style="stroke: #000000; stroke-width: 0.8"/>
      </g>
     </g>
     <g id="text_2">
      <!-- 50 -->
      <g transform="translate(139.209082 338.797656) scale(0.15 -0.15)">
       <defs>
        <path id="DejaVuSans-35" d="M 691 4666 
L 3169 4666 
L 3169 4134 
L 1269 4134 
L 1269 2991 
Q 1406 3038 1543 3061 
Q 1681 3084 1819 3084 
Q 2600 3084 3056 2656 
Q 3513 2228 3513 1497 
Q 3513 744 3044 326 
Q 2575 -91 1722 -91 
Q 1428 -91 1123 -41 
Q 819 9 494 109 
L 494 744 
Q 775 591 1075 516 
Q 1375 441 1709 441 
Q 2250 441 2565 725 
Q 2881 1009 2881 1497 
Q 2881 1984 2565 2268 
Q 2250 2553 1709 2553 
Q 1456 2553 1204 2497 
Q 953 2441 691 2322 
L 691 4666 
z
" transform="scale(0.015625)"/>
       </defs>
       <use xlink:href="#DejaVuSans-35"/>
       <use xlink:href="#DejaVuSans-30" transform="translate(63.623047 0)"/>
      </g>
     </g>
    </g>
    <g id="xtick_3">
     <g id="line2d_3">
      <g>
       <use xlink:href="#m1300b0cfe3" x="215.499243" y="320.4" style="stroke: #000000; stroke-width: 0.8"/>
      </g>
     </g>
     <g id="text_3">
      <!-- 100 -->
      <g transform="translate(201.183618 338.797656) scale(0.15 -0.15)">
       <defs>
        <path id="DejaVuSans-31" d="M 794 531 
L 1825 531 
L 1825 4091 
L 703 3866 
L 703 4441 
L 1819 4666 
L 2450 4666 
L 2450 531 
L 3481 531 
L 3481 0 
L 794 0 
L 794 531 
z
" transform="scale(0.015625)"/>
       </defs>
       <use xlink:href="#DejaVuSans-31"/>
       <use xlink:href="#DejaVuSans-30" transform="translate(63.623047 0)"/>
       <use xlink:href="#DejaVuSans-30" transform="translate(127.246094 0)"/>
      </g>
     </g>
    </g>
    <g id="xtick_4">
     <g id="line2d_4">
      <g>
       <use xlink:href="#m1300b0cfe3" x="282.245655" y="320.4" style="stroke: #000000; stroke-width: 0.8"/>
      </g>
     </g>
     <g id="text_4">
      <!-- 150 -->
      <g transform="translate(267.93003 338.797656) scale(0.15 -0.15)">
       <use xlink:href="#DejaVuSans-31"/>
       <use xlink:href="#DejaVuSans-35" transform="translate(63.623047 0)"/>
       <use xlink:href="#DejaVuSans-30" transform="translate(127.246094 0)"/>
      </g>
     </g>
    </g>
    <g id="xtick_5">
     <g id="line2d_5">
      <g>
       <use xlink:href="#m1300b0cfe3" x="348.992066" y="320.4" style="stroke: #000000; stroke-width: 0.8"/>
      </g>
     </g>
     <g id="text_5">
      <!-- 200 -->
      <g transform="translate(334.676441 338.797656) scale(0.15 -0.15)">
       <defs>
        <path id="DejaVuSans-32" d="M 1228 531 
L 3431 531 
L 3431 0 
L 469 0 
L 469 531 
Q 828 903 1448 1529 
Q 2069 2156 2228 2338 
Q 2531 2678 2651 2914 
Q 2772 3150 2772 3378 
Q 2772 3750 2511 3984 
Q 2250 4219 1831 4219 
Q 1534 4219 1204 4116 
Q 875 4013 500 3803 
L 500 4441 
Q 881 4594 1212 4672 
Q 1544 4750 1819 4750 
Q 2544 4750 2975 4387 
Q 3406 4025 3406 3419 
Q 3406 3131 3298 2873 
Q 3191 2616 2906 2266 
Q 2828 2175 2409 1742 
Q 1991 1309 1228 531 
z
" transform="scale(0.015625)"/>
       </defs>
       <use xlink:href="#DejaVuSans-32"/>
       <use xlink:href="#DejaVuSans-30" transform="translate(63.623047 0)"/>
       <use xlink:href="#DejaVuSans-30" transform="translate(127.246094 0)"/>
      </g>
     </g>
    </g>
    <g id="xtick_6">
     <g id="line2d_6">
      <g>
       <use xlink:href="#m1300b0cfe3" x="415.738478" y="320.4" style="stroke: #000000; stroke-width: 0.8"/>
      </g>
     </g>
     <g id="text_6">
      <!-- 250 -->
      <g transform="translate(401.422853 338.797656) scale(0.15 -0.15)">
       <use xlink:href="#DejaVuSans-32"/>
       <use xlink:href="#DejaVuSans-35" transform="translate(63.623047 0)"/>
       <use xlink:href="#DejaVuSans-30" transform="translate(127.246094 0)"/>
      </g>
     </g>
    </g>
    <g id="text_7">
     <!-- time [hr] -->
     <g transform="translate(214.477344 359.594375) scale(0.18 -0.18)">
      <defs>
       <path id="DejaVuSans-Bold-74" d="M 1759 4494 
L 1759 3500 
L 2913 3500 
L 2913 2700 
L 1759 2700 
L 1759 1216 
Q 1759 972 1856 886 
Q 1953 800 2241 800 
L 2816 800 
L 2816 0 
L 1856 0 
Q 1194 0 917 276 
Q 641 553 641 1216 
L 641 2700 
L 84 2700 
L 84 3500 
L 641 3500 
L 641 4494 
L 1759 4494 
z
" transform="scale(0.015625)"/>
       <path id="DejaVuSans-Bold-69" d="M 538 3500 
L 1656 3500 
L 1656 0 
L 538 0 
L 538 3500 
z
M 538 4863 
L 1656 4863 
L 1656 3950 
L 538 3950 
L 538 4863 
z
" transform="scale(0.015625)"/>
       <path id="DejaVuSans-Bold-6d" d="M 3781 2919 
Q 3994 3244 4286 3414 
Q 4578 3584 4928 3584 
Q 5531 3584 5847 3212 
Q 6163 2841 6163 2131 
L 6163 0 
L 5038 0 
L 5038 1825 
Q 5041 1866 5042 1909 
Q 5044 1953 5044 2034 
Q 5044 2406 4934 2573 
Q 4825 2741 4581 2741 
Q 4263 2741 4089 2478 
Q 3916 2216 3909 1719 
L 3909 0 
L 2784 0 
L 2784 1825 
Q 2784 2406 2684 2573 
Q 2584 2741 2328 2741 
Q 2006 2741 1831 2477 
Q 1656 2213 1656 1722 
L 1656 0 
L 531 0 
L 531 3500 
L 1656 3500 
L 1656 2988 
Q 1863 3284 2130 3434 
Q 2397 3584 2719 3584 
Q 3081 3584 3359 3409 
Q 3638 3234 3781 2919 
z
" transform="scale(0.015625)"/>
       <path id="DejaVuSans-Bold-65" d="M 4031 1759 
L 4031 1441 
L 1416 1441 
Q 1456 1047 1700 850 
Q 1944 653 2381 653 
Q 2734 653 3104 758 
Q 3475 863 3866 1075 
L 3866 213 
Q 3469 63 3072 -14 
Q 2675 -91 2278 -91 
Q 1328 -91 801 392 
Q 275 875 275 1747 
Q 275 2603 792 3093 
Q 1309 3584 2216 3584 
Q 3041 3584 3536 3087 
Q 4031 2591 4031 1759 
z
M 2881 2131 
Q 2881 2450 2695 2645 
Q 2509 2841 2209 2841 
Q 1884 2841 1681 2658 
Q 1478 2475 1428 2131 
L 2881 2131 
z
" transform="scale(0.015625)"/>
       <path id="DejaVuSans-Bold-20" transform="scale(0.015625)"/>
       <path id="DejaVuSans-Bold-5b" d="M 550 4863 
L 2491 4863 
L 2491 4159 
L 1613 4159 
L 1613 -141 
L 2491 -141 
L 2491 -844 
L 550 -844 
L 550 4863 
z
" transform="scale(0.015625)"/>
       <path id="DejaVuSans-Bold-68" d="M 4056 2131 
L 4056 0 
L 2931 0 
L 2931 347 
L 2931 1625 
Q 2931 2084 2911 2256 
Q 2891 2428 2841 2509 
Q 2775 2619 2662 2680 
Q 2550 2741 2406 2741 
Q 2056 2741 1856 2470 
Q 1656 2200 1656 1722 
L 1656 0 
L 538 0 
L 538 4863 
L 1656 4863 
L 1656 2988 
Q 1909 3294 2193 3439 
Q 2478 3584 2822 3584 
Q 3428 3584 3742 3212 
Q 4056 2841 4056 2131 
z
" transform="scale(0.015625)"/>
       <path id="DejaVuSans-Bold-72" d="M 3138 2547 
Q 2991 2616 2845 2648 
Q 2700 2681 2553 2681 
Q 2122 2681 1889 2404 
Q 1656 2128 1656 1613 
L 1656 0 
L 538 0 
L 538 3500 
L 1656 3500 
L 1656 2925 
Q 1872 3269 2151 3426 
Q 2431 3584 2822 3584 
Q 2878 3584 2943 3579 
Q 3009 3575 3134 3559 
L 3138 2547 
z
" transform="scale(0.015625)"/>
       <path id="DejaVuSans-Bold-5d" d="M 2375 -844 
L 434 -844 
L 434 -141 
L 1313 -141 
L 1313 4159 
L 434 4159 
L 434 4863 
L 2375 4863 
L 2375 -844 
z
" transform="scale(0.015625)"/>
      </defs>
      <use xlink:href="#DejaVuSans-Bold-74"/>
      <use xlink:href="#DejaVuSans-Bold-69" transform="translate(47.802734 0)"/>
      <use xlink:href="#DejaVuSans-Bold-6d" transform="translate(82.080078 0)"/>
      <use xlink:href="#DejaVuSans-Bold-65" transform="translate(186.279297 0)"/>
      <use xlink:href="#DejaVuSans-Bold-20" transform="translate(254.101562 0)"/>
      <use xlink:href="#DejaVuSans-Bold-5b" transform="translate(288.916016 0)"/>
      <use xlink:href="#DejaVuSans-Bold-68" transform="translate(334.619141 0)"/>
      <use xlink:href="#DejaVuSans-Bold-72" transform="translate(405.810547 0)"/>
      <use xlink:href="#DejaVuSans-Bold-5d" transform="translate(455.126953 0)"/>
     </g>
    </g>
   </g>
   <g id="matplotlib.axis_2">
    <g id="ytick_1">
     <g id="line2d_7">
      <defs>
       <path id="mf8f8ea052c" d="M 0 0 
L -3.5 0 
" style="stroke: #000000; stroke-width: 0.8"/>
      </defs>
      <g>
       <use xlink:href="#mf8f8ea052c" x="64.251875" y="307.8" style="stroke: #000000; stroke-width: 0.8"/>
      </g>
     </g>
     <g id="text_8">
      <!-- 0 -->
      <g transform="translate(47.708125 313.498828) scale(0.15 -0.15)">
       <use xlink:href="#DejaVuSans-30"/>
      </g>
     </g>
    </g>
    <g id="ytick_2">
     <g id="line2d_8">
      <g>
       <use xlink:href="#mf8f8ea052c" x="64.251875" y="252.3839" style="stroke: #000000; stroke-width: 0.8"/>
      </g>
     </g>
     <g id="text_9">
      <!-- 200 -->
      <g transform="translate(28.620625 258.082728) scale(0.15 -0.15)">
       <use xlink:href="#DejaVuSans-32"/>
       <use xlink:href="#DejaVuSans-30" transform="translate(63.623047 0)"/>
       <use xlink:href="#DejaVuSans-30" transform="translate(127.246094 0)"/>
      </g>
     </g>
    </g>
    <g id="ytick_3">
     <g id="line2d_9">
      <g>
       <use xlink:href="#mf8f8ea052c" x="64.251875" y="196.9678" style="stroke: #000000; stroke-width: 0.8"/>
      </g>
     </g>
     <g id="text_10">
      <!-- 400 -->
      <g transform="translate(28.620625 202.666628) scale(0.15 -0.15)">
       <defs>
        <path id="DejaVuSans-34" d="M 2419 4116 
L 825 1625 
L 2419 1625 
L 2419 4116 
z
M 2253 4666 
L 3047 4666 
L 3047 1625 
L 3713 1625 
L 3713 1100 
L 3047 1100 
L 3047 0 
L 2419 0 
L 2419 1100 
L 313 1100 
L 313 1709 
L 2253 4666 
z
" transform="scale(0.015625)"/>
       </defs>
       <use xlink:href="#DejaVuSans-34"/>
       <use xlink:href="#DejaVuSans-30" transform="translate(63.623047 0)"/>
       <use xlink:href="#DejaVuSans-30" transform="translate(127.246094 0)"/>
      </g>
     </g>
    </g>
    <g id="ytick_4">
     <g id="line2d_10">
      <g>
       <use xlink:href="#mf8f8ea052c" x="64.251875" y="141.551701" style="stroke: #000000; stroke-width: 0.8"/>
      </g>
     </g>
     <g id="text_11">
      <!-- 600 -->
      <g transform="translate(28.620625 147.250529) scale(0.15 -0.15)">
       <defs>
        <path id="DejaVuSans-36" d="M 2113 2584 
Q 1688 2584 1439 2293 
Q 1191 2003 1191 1497 
Q 1191 994 1439 701 
Q 1688 409 2113 409 
Q 2538 409 2786 701 
Q 3034 994 3034 1497 
Q 3034 2003 2786 2293 
Q 2538 2584 2113 2584 
z
M 3366 4563 
L 3366 3988 
Q 3128 4100 2886 4159 
Q 2644 4219 2406 4219 
Q 1781 4219 1451 3797 
Q 1122 3375 1075 2522 
Q 1259 2794 1537 2939 
Q 1816 3084 2150 3084 
Q 2853 3084 3261 2657 
Q 3669 2231 3669 1497 
Q 3669 778 3244 343 
Q 2819 -91 2113 -91 
Q 1303 -91 875 529 
Q 447 1150 447 2328 
Q 447 3434 972 4092 
Q 1497 4750 2381 4750 
Q 2619 4750 2861 4703 
Q 3103 4656 3366 4563 
z
" transform="scale(0.015625)"/>
       </defs>
       <use xlink:href="#DejaVuSans-36"/>
       <use xlink:href="#DejaVuSans-30" transform="translate(63.623047 0)"/>
       <use xlink:href="#DejaVuSans-30" transform="translate(127.246094 0)"/>
      </g>
     </g>
    </g>
    <g id="ytick_5">
     <g id="line2d_11">
      <g>
       <use xlink:href="#mf8f8ea052c" x="64.251875" y="86.135601" style="stroke: #000000; stroke-width: 0.8"/>
      </g>
     </g>
     <g id="text_12">
      <!-- 800 -->
      <g transform="translate(28.620625 91.834429) scale(0.15 -0.15)">
       <defs>
        <path id="DejaVuSans-38" d="M 2034 2216 
Q 1584 2216 1326 1975 
Q 1069 1734 1069 1313 
Q 1069 891 1326 650 
Q 1584 409 2034 409 
Q 2484 409 2743 651 
Q 3003 894 3003 1313 
Q 3003 1734 2745 1975 
Q 2488 2216 2034 2216 
z
M 1403 2484 
Q 997 2584 770 2862 
Q 544 3141 544 3541 
Q 544 4100 942 4425 
Q 1341 4750 2034 4750 
Q 2731 4750 3128 4425 
Q 3525 4100 3525 3541 
Q 3525 3141 3298 2862 
Q 3072 2584 2669 2484 
Q 3125 2378 3379 2068 
Q 3634 1759 3634 1313 
Q 3634 634 3220 271 
Q 2806 -91 2034 -91 
Q 1263 -91 848 271 
Q 434 634 434 1313 
Q 434 1759 690 2068 
Q 947 2378 1403 2484 
z
M 1172 3481 
Q 1172 3119 1398 2916 
Q 1625 2713 2034 2713 
Q 2441 2713 2670 2916 
Q 2900 3119 2900 3481 
Q 2900 3844 2670 4047 
Q 2441 4250 2034 4250 
Q 1625 4250 1398 4047 
Q 1172 3844 1172 3481 
z
" transform="scale(0.015625)"/>
       </defs>
       <use xlink:href="#DejaVuSans-38"/>
       <use xlink:href="#DejaVuSans-30" transform="translate(63.623047 0)"/>
       <use xlink:href="#DejaVuSans-30" transform="translate(127.246094 0)"/>
      </g>
     </g>
    </g>
    <g id="text_13">
     <!-- edoxaban plasma [nM] -->
     <g transform="translate(20.877187 297.59625) rotate(-90) scale(0.18 -0.18)">
      <defs>
       <path id="DejaVuSans-Bold-64" d="M 2919 2988 
L 2919 4863 
L 4044 4863 
L 4044 0 
L 2919 0 
L 2919 506 
Q 2688 197 2409 53 
Q 2131 -91 1766 -91 
Q 1119 -91 703 423 
Q 288 938 288 1747 
Q 288 2556 703 3070 
Q 1119 3584 1766 3584 
Q 2128 3584 2408 3439 
Q 2688 3294 2919 2988 
z
M 2181 722 
Q 2541 722 2730 984 
Q 2919 1247 2919 1747 
Q 2919 2247 2730 2509 
Q 2541 2772 2181 2772 
Q 1825 2772 1636 2509 
Q 1447 2247 1447 1747 
Q 1447 1247 1636 984 
Q 1825 722 2181 722 
z
" transform="scale(0.015625)"/>
       <path id="DejaVuSans-Bold-6f" d="M 2203 2784 
Q 1831 2784 1636 2517 
Q 1441 2250 1441 1747 
Q 1441 1244 1636 976 
Q 1831 709 2203 709 
Q 2569 709 2762 976 
Q 2956 1244 2956 1747 
Q 2956 2250 2762 2517 
Q 2569 2784 2203 2784 
z
M 2203 3584 
Q 3106 3584 3614 3096 
Q 4122 2609 4122 1747 
Q 4122 884 3614 396 
Q 3106 -91 2203 -91 
Q 1297 -91 786 396 
Q 275 884 275 1747 
Q 275 2609 786 3096 
Q 1297 3584 2203 3584 
z
" transform="scale(0.015625)"/>
       <path id="DejaVuSans-Bold-78" d="M 1422 1791 
L 159 3500 
L 1344 3500 
L 2059 2463 
L 2784 3500 
L 3969 3500 
L 2706 1797 
L 4031 0 
L 2847 0 
L 2059 1106 
L 1281 0 
L 97 0 
L 1422 1791 
z
" transform="scale(0.015625)"/>
       <path id="DejaVuSans-Bold-61" d="M 2106 1575 
Q 1756 1575 1579 1456 
Q 1403 1338 1403 1106 
Q 1403 894 1545 773 
Q 1688 653 1941 653 
Q 2256 653 2472 879 
Q 2688 1106 2688 1447 
L 2688 1575 
L 2106 1575 
z
M 3816 1997 
L 3816 0 
L 2688 0 
L 2688 519 
Q 2463 200 2181 54 
Q 1900 -91 1497 -91 
Q 953 -91 614 226 
Q 275 544 275 1050 
Q 275 1666 698 1953 
Q 1122 2241 2028 2241 
L 2688 2241 
L 2688 2328 
Q 2688 2594 2478 2717 
Q 2269 2841 1825 2841 
Q 1466 2841 1156 2769 
Q 847 2697 581 2553 
L 581 3406 
Q 941 3494 1303 3539 
Q 1666 3584 2028 3584 
Q 2975 3584 3395 3211 
Q 3816 2838 3816 1997 
z
" transform="scale(0.015625)"/>
       <path id="DejaVuSans-Bold-62" d="M 2400 722 
Q 2759 722 2948 984 
Q 3138 1247 3138 1747 
Q 3138 2247 2948 2509 
Q 2759 2772 2400 2772 
Q 2041 2772 1848 2508 
Q 1656 2244 1656 1747 
Q 1656 1250 1848 986 
Q 2041 722 2400 722 
z
M 1656 2988 
Q 1888 3294 2169 3439 
Q 2450 3584 2816 3584 
Q 3463 3584 3878 3070 
Q 4294 2556 4294 1747 
Q 4294 938 3878 423 
Q 3463 -91 2816 -91 
Q 2450 -91 2169 54 
Q 1888 200 1656 506 
L 1656 0 
L 538 0 
L 538 4863 
L 1656 4863 
L 1656 2988 
z
" transform="scale(0.015625)"/>
       <path id="DejaVuSans-Bold-6e" d="M 4056 2131 
L 4056 0 
L 2931 0 
L 2931 347 
L 2931 1631 
Q 2931 2084 2911 2256 
Q 2891 2428 2841 2509 
Q 2775 2619 2662 2680 
Q 2550 2741 2406 2741 
Q 2056 2741 1856 2470 
Q 1656 2200 1656 1722 
L 1656 0 
L 538 0 
L 538 3500 
L 1656 3500 
L 1656 2988 
Q 1909 3294 2193 3439 
Q 2478 3584 2822 3584 
Q 3428 3584 3742 3212 
Q 4056 2841 4056 2131 
z
" transform="scale(0.015625)"/>
       <path id="DejaVuSans-Bold-70" d="M 1656 506 
L 1656 -1331 
L 538 -1331 
L 538 3500 
L 1656 3500 
L 1656 2988 
Q 1888 3294 2169 3439 
Q 2450 3584 2816 3584 
Q 3463 3584 3878 3070 
Q 4294 2556 4294 1747 
Q 4294 938 3878 423 
Q 3463 -91 2816 -91 
Q 2450 -91 2169 54 
Q 1888 200 1656 506 
z
M 2400 2772 
Q 2041 2772 1848 2508 
Q 1656 2244 1656 1747 
Q 1656 1250 1848 986 
Q 2041 722 2400 722 
Q 2759 722 2948 984 
Q 3138 1247 3138 1747 
Q 3138 2247 2948 2509 
Q 2759 2772 2400 2772 
z
" transform="scale(0.015625)"/>
       <path id="DejaVuSans-Bold-6c" d="M 538 4863 
L 1656 4863 
L 1656 0 
L 538 0 
L 538 4863 
z
" transform="scale(0.015625)"/>
       <path id="DejaVuSans-Bold-73" d="M 3272 3391 
L 3272 2541 
Q 2913 2691 2578 2766 
Q 2244 2841 1947 2841 
Q 1628 2841 1473 2761 
Q 1319 2681 1319 2516 
Q 1319 2381 1436 2309 
Q 1553 2238 1856 2203 
L 2053 2175 
Q 2913 2066 3209 1816 
Q 3506 1566 3506 1031 
Q 3506 472 3093 190 
Q 2681 -91 1863 -91 
Q 1516 -91 1145 -36 
Q 775 19 384 128 
L 384 978 
Q 719 816 1070 734 
Q 1422 653 1784 653 
Q 2113 653 2278 743 
Q 2444 834 2444 1013 
Q 2444 1163 2330 1236 
Q 2216 1309 1875 1350 
L 1678 1375 
Q 931 1469 631 1722 
Q 331 1975 331 2491 
Q 331 3047 712 3315 
Q 1094 3584 1881 3584 
Q 2191 3584 2531 3537 
Q 2872 3491 3272 3391 
z
" transform="scale(0.015625)"/>
       <path id="DejaVuSans-Bold-4d" d="M 588 4666 
L 2119 4666 
L 3181 2169 
L 4250 4666 
L 5778 4666 
L 5778 0 
L 4641 0 
L 4641 3413 
L 3566 897 
L 2803 897 
L 1728 3413 
L 1728 0 
L 588 0 
L 588 4666 
z
" transform="scale(0.015625)"/>
      </defs>
      <use xlink:href="#DejaVuSans-Bold-65"/>
      <use xlink:href="#DejaVuSans-Bold-64" transform="translate(67.822266 0)"/>
      <use xlink:href="#DejaVuSans-Bold-6f" transform="translate(139.404297 0)"/>
      <use xlink:href="#DejaVuSans-Bold-78" transform="translate(208.105469 0)"/>
      <use xlink:href="#DejaVuSans-Bold-61" transform="translate(272.607422 0)"/>
      <use xlink:href="#DejaVuSans-Bold-62" transform="translate(340.087891 0)"/>
      <use xlink:href="#DejaVuSans-Bold-61" transform="translate(411.669922 0)"/>
      <use xlink:href="#DejaVuSans-Bold-6e" transform="translate(479.150391 0)"/>
      <use xlink:href="#DejaVuSans-Bold-20" transform="translate(550.341797 0)"/>
      <use xlink:href="#DejaVuSans-Bold-70" transform="translate(585.15625 0)"/>
      <use xlink:href="#DejaVuSans-Bold-6c" transform="translate(656.738281 0)"/>
      <use xlink:href="#DejaVuSans-Bold-61" transform="translate(691.015625 0)"/>
      <use xlink:href="#DejaVuSans-Bold-73" transform="translate(758.496094 0)"/>
      <use xlink:href="#DejaVuSans-Bold-6d" transform="translate(818.017578 0)"/>
      <use xlink:href="#DejaVuSans-Bold-61" transform="translate(922.216797 0)"/>
      <use xlink:href="#DejaVuSans-Bold-20" transform="translate(989.697266 0)"/>
      <use xlink:href="#DejaVuSans-Bold-5b" transform="translate(1024.511719 0)"/>
      <use xlink:href="#DejaVuSans-Bold-6e" transform="translate(1070.214844 0)"/>
      <use xlink:href="#DejaVuSans-Bold-4d" transform="translate(1141.40625 0)"/>
      <use xlink:href="#DejaVuSans-Bold-5d" transform="translate(1240.917969 0)"/>
     </g>
    </g>
   </g>
   <g id="line2d_12">
    <path d="M 82.00642 307.8 
L 82.070497 306.529288 
L 82.262727 289.080496 
L 82.967569 214.307978 
L 83.352028 193.715698 
L 83.672411 185.128469 
L 83.928717 182.249448 
L 84.120947 181.822433 
L 84.2491 182.191444 
L 84.505406 184.164629 
L 84.889865 189.338186 
L 85.594708 202.419899 
L 87.645157 241.762434 
L 88.670382 256.935228 
L 89.695607 268.868332 
L 90.656755 277.58501 
L 91.617904 284.382151 
L 92.579052 289.66296 
L 93.5402 293.757996 
L 94.501349 296.93046 
L 95.462497 299.386982 
L 96.487722 301.398939 
L 97.512947 302.929875 
L 98.602248 304.157477 
L 99.755626 305.121811 
L 101.037157 305.897002 
L 102.510918 306.515382 
L 104.240985 306.990106 
L 106.419588 307.346956 
L 109.431186 307.597049 
L 114.236928 307.743653 
L 125.258095 307.797017 
L 146.082975 307.799988 
L 146.082975 307.799988 
L 146.147052 306.529277 
L 146.339282 289.080486 
L 147.044124 214.307973 
L 147.428583 193.715694 
L 147.748966 185.128467 
L 148.005272 182.249446 
L 148.197502 181.822431 
L 148.325655 182.191442 
L 148.581961 184.164628 
L 148.96642 189.338185 
L 149.671263 202.419899 
L 151.721712 241.762434 
L 152.746937 256.935228 
L 153.772162 268.868332 
L 154.73331 277.58501 
L 155.694459 284.382151 
L 156.655607 289.66296 
L 157.616755 293.757996 
L 158.577904 296.93046 
L 159.539052 299.386982 
L 160.564277 301.398939 
L 161.589502 302.929875 
L 162.678803 304.157477 
L 163.832181 305.121811 
L 165.113712 305.897002 
L 166.587473 306.515382 
L 168.31754 306.990106 
L 170.496143 307.346956 
L 173.507741 307.597049 
L 178.121253 307.740689 
L 178.121253 307.740689 
L 178.18533 306.471229 
L 178.377559 289.028752 
L 179.082401 214.280301 
L 179.466861 193.696508 
L 179.787243 185.114345 
L 180.04355 182.238398 
L 180.235779 181.813241 
L 180.363932 182.183313 
L 180.620239 184.158269 
L 181.004698 189.333785 
L 181.70954 202.417659 
L 183.75999 241.76212 
L 184.785215 256.93511 
L 185.81044 268.868288 
L 186.771588 277.584993 
L 187.732736 284.382144 
L 188.693885 289.662957 
L 189.655033 293.757995 
L 190.616181 296.930459 
L 191.57733 299.386982 
L 192.602554 301.398939 
L 193.627779 302.929875 
L 194.717081 304.157477 
L 195.870459 305.121811 
L 197.15199 305.897002 
L 198.625751 306.515382 
L 200.355818 306.990106 
L 202.53442 307.346956 
L 205.546019 307.597049 
L 210.159531 307.740689 
L 210.159531 307.740689 
L 210.223607 306.471229 
L 210.415837 289.028752 
L 211.120679 214.280301 
L 211.505138 193.696508 
L 211.825521 185.114345 
L 212.081827 182.238398 
L 212.274057 181.813241 
L 212.40221 182.183313 
L 212.658516 184.158269 
L 213.042975 189.333785 
L 213.747818 202.417659 
L 215.798267 241.76212 
L 216.823492 256.93511 
L 217.848717 268.868288 
L 218.809865 277.584993 
L 219.771014 284.382144 
L 220.732162 289.662957 
L 221.69331 293.757995 
L 222.654459 296.930459 
L 223.615607 299.386982 
L 224.640832 301.398939 
L 225.666057 302.929875 
L 226.755358 304.157477 
L 227.908736 305.121811 
L 229.190267 305.897002 
L 230.664028 306.515382 
L 232.394095 306.990106 
L 234.572698 307.346956 
L 237.584296 307.597049 
L 242.197808 307.740689 
L 242.197808 307.740689 
L 242.261885 306.471229 
L 242.454114 289.028752 
L 243.158956 214.280301 
L 243.543416 193.696508 
L 243.863798 185.114345 
L 244.120105 182.238398 
L 244.312334 181.813241 
L 244.440487 182.183313 
L 244.696794 184.158269 
L 245.081253 189.333785 
L 245.786095 202.417659 
L 247.836545 241.76212 
L 248.86177 256.93511 
L 249.886995 268.868288 
L 250.848143 277.584993 
L 251.809291 284.382144 
L 252.77044 289.662957 
L 253.731588 293.757995 
L 254.692736 296.930459 
L 255.653885 299.386982 
L 256.679109 301.398939 
L 257.704334 302.929875 
L 258.793636 304.157477 
L 259.947014 305.121811 
L 261.228545 305.897002 
L 262.702306 306.515382 
L 264.432373 306.990106 
L 266.610975 307.346956 
L 269.622574 307.597049 
L 274.236086 307.740689 
L 274.236086 307.740689 
L 274.300162 306.471229 
L 274.492392 289.028752 
L 275.197234 214.280301 
L 275.581693 193.696508 
L 275.902076 185.114345 
L 276.158382 182.238398 
L 276.350612 181.813241 
L 276.478765 182.183313 
L 276.735071 184.158269 
L 277.119531 189.333785 
L 277.824373 202.417659 
L 279.874822 241.76212 
L 280.900047 256.93511 
L 281.925272 268.868288 
L 282.88642 277.584993 
L 283.847569 284.382144 
L 284.808717 289.662957 
L 285.769865 293.757995 
L 286.731014 296.930459 
L 287.692162 299.386982 
L 288.717387 301.398939 
L 289.742612 302.929875 
L 290.831913 304.157477 
L 291.985291 305.121811 
L 293.266822 305.897002 
L 294.740583 306.515382 
L 296.47065 306.990106 
L 298.649253 307.346956 
L 301.660851 307.597049 
L 306.274363 307.740689 
L 306.274363 307.740689 
L 306.33844 306.471229 
L 306.530669 289.028752 
L 307.235511 214.280301 
L 307.619971 193.696508 
L 307.940353 185.114345 
L 308.19666 182.238398 
L 308.388889 181.813241 
L 308.517042 182.183313 
L 308.773349 184.158269 
L 309.157808 189.333785 
L 309.86265 202.417659 
L 311.9131 241.76212 
L 312.938325 256.93511 
L 313.96355 268.868288 
L 314.924698 277.584993 
L 315.885846 284.382144 
L 316.846995 289.662957 
L 317.808143 293.757995 
L 318.769291 296.930459 
L 319.73044 299.386982 
L 320.755664 301.398939 
L 321.780889 302.929875 
L 322.870191 304.157477 
L 324.023569 305.121811 
L 325.3051 305.897002 
L 326.778861 306.515382 
L 328.508928 306.990106 
L 330.687531 307.346956 
L 333.699129 307.597049 
L 338.312641 307.740689 
L 338.312641 307.740689 
L 338.376717 306.471229 
L 338.568947 289.028752 
L 339.273789 214.280301 
L 339.658248 193.696508 
L 339.978631 185.114345 
L 340.234937 182.238398 
L 340.427167 181.813241 
L 340.55532 182.183313 
L 340.811626 184.158269 
L 341.196086 189.333785 
L 341.900928 202.417659 
L 343.951377 241.76212 
L 344.976602 256.93511 
L 346.001827 268.868288 
L 346.962975 277.584993 
L 347.924124 284.382144 
L 348.885272 289.662957 
L 349.84642 293.757995 
L 350.807569 296.930459 
L 351.768717 299.386982 
L 352.793942 301.398939 
L 353.819167 302.929875 
L 354.908468 304.157477 
L 356.061846 305.121811 
L 357.343377 305.897002 
L 358.817138 306.515382 
L 360.547205 306.990106 
L 362.725808 307.346956 
L 365.737406 307.597049 
L 370.350918 307.740689 
L 370.350918 307.740689 
L 370.417664 306.350593 
L 370.617904 287.75347 
L 371.285368 216.229975 
L 371.685846 194.100163 
L 372.019578 185.068279 
L 372.286564 182.16592 
L 372.420057 181.8 
L 372.486803 181.841738 
L 372.620296 182.317311 
L 372.887282 184.560611 
L 373.28776 190.202152 
L 374.088717 205.452086 
L 375.89087 240.116488 
L 376.958813 256.193183 
L 377.960009 268.041025 
L 378.961205 277.263166 
L 379.895655 283.963355 
L 380.830105 289.206343 
L 381.764554 293.301375 
L 382.765751 296.695952 
L 383.766947 299.296687 
L 384.768143 301.288649 
L 385.769339 302.814116 
L 386.837282 304.049596 
L 387.971971 305.028713 
L 389.240153 305.823829 
L 390.641827 306.440097 
L 392.310487 306.928488 
L 394.446373 307.306903 
L 397.316468 307.570613 
L 401.721731 307.729135 
L 411.066229 307.794134 
L 437.09733 307.799994 
L 437.09733 307.799994 
" clip-path="url(#p9098faeefe)" style="fill: none; stroke: #ff7f0e; stroke-width: 2; stroke-linecap: square"/>
   </g>
   <g id="line2d_13">
    <path d="M 82.00642 307.8 
L 82.673885 304.109355 
L 83.341349 299.15479 
L 84.008813 271.95524 
L 84.676277 250.974175 
L 85.343741 231.206472 
L 86.011205 203.956366 
L 86.678669 205.270842 
L 87.346133 211.539883 
L 88.013597 222.712933 
L 88.681062 233.936539 
L 90.01599 242.682862 
L 92.685846 256.383751 
L 98.025559 273.926955 
L 103.365272 292.683522 
L 114.044698 297.688643 
L 130.063837 302.693765 
L 146.082975 307.8 
M 370.350918 275.898669 
L 371.018382 268.517379 
L 371.685846 237.879968 
L 372.35331 224.381306 
L 373.020775 190.002693 
L 373.688239 180.194677 
L 374.355703 174.02675 
L 375.023167 181.40804 
L 375.690631 186.312048 
L 376.358095 197.383984 
L 377.025559 207.192 
L 378.360487 230.498677 
L 381.030344 252.591992 
L 386.370057 277.112032 
L 391.70977 289.397331 
L 402.389196 296.778621 
L 418.408334 304.109355 
L 434.427473 307.8 
" clip-path="url(#p9098faeefe)" style="fill: none; stroke-dasharray: 3.7,1.6; stroke-dashoffset: 0; stroke: #ff7f0e"/>
    <defs>
     <path id="mf88325c0dc" d="M -3 3 
L 3 3 
L 3 -3 
L -3 -3 
z
" style="stroke: #000000; stroke-linejoin: miter"/>
    </defs>
    <g clip-path="url(#p9098faeefe)">
     <use xlink:href="#mf88325c0dc" x="82.00642" y="307.8" style="fill: #ff7f0e; stroke: #000000; stroke-linejoin: miter"/>
     <use xlink:href="#mf88325c0dc" x="82.673885" y="304.109355" style="fill: #ff7f0e; stroke: #000000; stroke-linejoin: miter"/>
     <use xlink:href="#mf88325c0dc" x="83.341349" y="299.15479" style="fill: #ff7f0e; stroke: #000000; stroke-linejoin: miter"/>
     <use xlink:href="#mf88325c0dc" x="84.008813" y="271.95524" style="fill: #ff7f0e; stroke: #000000; stroke-linejoin: miter"/>
     <use xlink:href="#mf88325c0dc" x="84.676277" y="250.974175" style="fill: #ff7f0e; stroke: #000000; stroke-linejoin: miter"/>
     <use xlink:href="#mf88325c0dc" x="85.343741" y="231.206472" style="fill: #ff7f0e; stroke: #000000; stroke-linejoin: miter"/>
     <use xlink:href="#mf88325c0dc" x="86.011205" y="203.956366" style="fill: #ff7f0e; stroke: #000000; stroke-linejoin: miter"/>
     <use xlink:href="#mf88325c0dc" x="86.678669" y="205.270842" style="fill: #ff7f0e; stroke: #000000; stroke-linejoin: miter"/>
     <use xlink:href="#mf88325c0dc" x="87.346133" y="211.539883" style="fill: #ff7f0e; stroke: #000000; stroke-linejoin: miter"/>
     <use xlink:href="#mf88325c0dc" x="88.013597" y="222.712933" style="fill: #ff7f0e; stroke: #000000; stroke-linejoin: miter"/>
     <use xlink:href="#mf88325c0dc" x="88.681062" y="233.936539" style="fill: #ff7f0e; stroke: #000000; stroke-linejoin: miter"/>
     <use xlink:href="#mf88325c0dc" x="90.01599" y="242.682862" style="fill: #ff7f0e; stroke: #000000; stroke-linejoin: miter"/>
     <use xlink:href="#mf88325c0dc" x="92.685846" y="256.383751" style="fill: #ff7f0e; stroke: #000000; stroke-linejoin: miter"/>
     <use xlink:href="#mf88325c0dc" x="98.025559" y="273.926955" style="fill: #ff7f0e; stroke: #000000; stroke-linejoin: miter"/>
     <use xlink:href="#mf88325c0dc" x="103.365272" y="292.683522" style="fill: #ff7f0e; stroke: #000000; stroke-linejoin: miter"/>
     <use xlink:href="#mf88325c0dc" x="114.044698" y="297.688643" style="fill: #ff7f0e; stroke: #000000; stroke-linejoin: miter"/>
     <use xlink:href="#mf88325c0dc" x="130.063837" y="302.693765" style="fill: #ff7f0e; stroke: #000000; stroke-linejoin: miter"/>
     <use xlink:href="#mf88325c0dc" x="146.082975" y="307.8" style="fill: #ff7f0e; stroke: #000000; stroke-linejoin: miter"/>
     <use xlink:href="#mf88325c0dc" x="370.350918" y="275.898669" style="fill: #ff7f0e; stroke: #000000; stroke-linejoin: miter"/>
     <use xlink:href="#mf88325c0dc" x="371.018382" y="268.517379" style="fill: #ff7f0e; stroke: #000000; stroke-linejoin: miter"/>
     <use xlink:href="#mf88325c0dc" x="371.685846" y="237.879968" style="fill: #ff7f0e; stroke: #000000; stroke-linejoin: miter"/>
     <use xlink:href="#mf88325c0dc" x="372.35331" y="224.381306" style="fill: #ff7f0e; stroke: #000000; stroke-linejoin: miter"/>
     <use xlink:href="#mf88325c0dc" x="373.020775" y="190.002693" style="fill: #ff7f0e; stroke: #000000; stroke-linejoin: miter"/>
     <use xlink:href="#mf88325c0dc" x="373.688239" y="180.194677" style="fill: #ff7f0e; stroke: #000000; stroke-linejoin: miter"/>
     <use xlink:href="#mf88325c0dc" x="374.355703" y="174.02675" style="fill: #ff7f0e; stroke: #000000; stroke-linejoin: miter"/>
     <use xlink:href="#mf88325c0dc" x="375.023167" y="181.40804" style="fill: #ff7f0e; stroke: #000000; stroke-linejoin: miter"/>
     <use xlink:href="#mf88325c0dc" x="375.690631" y="186.312048" style="fill: #ff7f0e; stroke: #000000; stroke-linejoin: miter"/>
     <use xlink:href="#mf88325c0dc" x="376.358095" y="197.383984" style="fill: #ff7f0e; stroke: #000000; stroke-linejoin: miter"/>
     <use xlink:href="#mf88325c0dc" x="377.025559" y="207.192" style="fill: #ff7f0e; stroke: #000000; stroke-linejoin: miter"/>
     <use xlink:href="#mf88325c0dc" x="378.360487" y="230.498677" style="fill: #ff7f0e; stroke: #000000; stroke-linejoin: miter"/>
     <use xlink:href="#mf88325c0dc" x="381.030344" y="252.591992" style="fill: #ff7f0e; stroke: #000000; stroke-linejoin: miter"/>
     <use xlink:href="#mf88325c0dc" x="386.370057" y="277.112032" style="fill: #ff7f0e; stroke: #000000; stroke-linejoin: miter"/>
     <use xlink:href="#mf88325c0dc" x="391.70977" y="289.397331" style="fill: #ff7f0e; stroke: #000000; stroke-linejoin: miter"/>
     <use xlink:href="#mf88325c0dc" x="402.389196" y="296.778621" style="fill: #ff7f0e; stroke: #000000; stroke-linejoin: miter"/>
     <use xlink:href="#mf88325c0dc" x="418.408334" y="304.109355" style="fill: #ff7f0e; stroke: #000000; stroke-linejoin: miter"/>
     <use xlink:href="#mf88325c0dc" x="434.427473" y="307.8" style="fill: #ff7f0e; stroke: #000000; stroke-linejoin: miter"/>
    </g>
   </g>
   <g id="line2d_14">
    <path d="M 82.00642 307.8 
L 82.070497 305.893932 
L 82.262727 279.720744 
L 82.967569 167.561967 
L 83.352028 136.673547 
L 83.672411 123.792704 
L 83.928717 119.474173 
L 84.120947 118.833649 
L 84.2491 119.387165 
L 84.505406 122.346943 
L 84.889865 130.107279 
L 85.594708 149.729849 
L 87.645157 208.743651 
L 88.670382 231.502842 
L 89.695607 249.402498 
L 90.656755 262.477515 
L 91.617904 272.673227 
L 92.579052 280.594439 
L 93.5402 286.736994 
L 94.501349 291.495689 
L 95.462497 295.180473 
L 96.423645 298.032973 
L 97.384794 300.240889 
L 98.410019 302.048866 
L 99.435243 303.424446 
L 100.524545 304.527415 
L 101.741999 305.434584 
L 103.087607 306.147721 
L 104.625444 306.703526 
L 106.483664 307.131945 
L 108.918574 307.450985 
L 112.378708 307.661276 
L 118.401904 307.772161 
L 137.240411 307.799817 
L 146.082975 307.799983 
L 146.082975 307.799983 
L 146.147052 305.893915 
L 146.339282 279.720729 
L 147.044124 167.561959 
L 147.428583 136.673542 
L 147.748966 123.7927 
L 148.005272 119.474169 
L 148.197502 118.833647 
L 148.325655 119.387163 
L 148.581961 122.346941 
L 148.96642 130.107278 
L 149.671263 149.729848 
L 151.721712 208.743651 
L 152.746937 231.502842 
L 153.772162 249.402498 
L 154.73331 262.477515 
L 155.694459 272.673227 
L 156.655607 280.594439 
L 157.616755 286.736994 
L 158.577904 291.49569 
L 159.539052 295.180473 
L 160.5002 298.032973 
L 161.461349 300.240889 
L 162.486574 302.048866 
L 163.511798 303.424446 
L 164.6011 304.527415 
L 165.818554 305.434584 
L 167.164162 306.147721 
L 168.701999 306.703526 
L 170.560219 307.131945 
L 172.995129 307.450985 
L 176.455263 307.661276 
L 178.121253 307.711034 
L 178.121253 307.711034 
L 178.18533 305.806844 
L 178.377559 279.643129 
L 179.082401 167.520452 
L 179.466861 136.644761 
L 179.787243 123.771518 
L 180.04355 119.457597 
L 180.235779 118.819861 
L 180.363932 119.37497 
L 180.620239 122.337403 
L 181.004698 130.100678 
L 181.70954 149.726488 
L 183.75999 208.74318 
L 184.785215 231.502666 
L 185.81044 249.402432 
L 186.771588 262.477489 
L 187.732736 272.673216 
L 188.693885 280.594435 
L 189.655033 286.736992 
L 190.616181 291.495689 
L 191.57733 295.180473 
L 192.538478 298.032973 
L 193.499626 300.240889 
L 194.524851 302.048866 
L 195.550076 303.424446 
L 196.639377 304.527415 
L 197.856832 305.434584 
L 199.20244 306.147721 
L 200.740277 306.703526 
L 202.598497 307.131945 
L 205.033406 307.450985 
L 208.49354 307.661276 
L 210.159531 307.711034 
L 210.159531 307.711034 
L 210.223607 305.806844 
L 210.415837 279.643129 
L 211.120679 167.520452 
L 211.505138 136.644761 
L 211.825521 123.771518 
L 212.081827 119.457597 
L 212.274057 118.819861 
L 212.40221 119.37497 
L 212.658516 122.337403 
L 213.042975 130.100678 
L 213.747818 149.726488 
L 215.798267 208.74318 
L 216.823492 231.502666 
L 217.848717 249.402432 
L 218.809865 262.477489 
L 219.771014 272.673216 
L 220.732162 280.594435 
L 221.69331 286.736992 
L 222.654459 291.495689 
L 223.615607 295.180473 
L 224.576755 298.032973 
L 225.537904 300.240889 
L 226.563129 302.048866 
L 227.588353 303.424446 
L 228.677655 304.527415 
L 229.895109 305.434584 
L 231.240717 306.147721 
L 232.778554 306.703526 
L 234.636775 307.131945 
L 237.071684 307.450985 
L 240.531818 307.661276 
L 242.197808 307.711034 
L 242.197808 307.711034 
L 242.261885 305.806844 
L 242.454114 279.643129 
L 243.158956 167.520452 
L 243.543416 136.644761 
L 243.863798 123.771518 
L 244.120105 119.457597 
L 244.312334 118.819861 
L 244.440487 119.37497 
L 244.696794 122.337403 
L 245.081253 130.100678 
L 245.786095 149.726488 
L 247.836545 208.74318 
L 248.86177 231.502666 
L 249.886995 249.402432 
L 250.848143 262.477489 
L 251.809291 272.673216 
L 252.77044 280.594435 
L 253.731588 286.736992 
L 254.692736 291.495689 
L 255.653885 295.180473 
L 256.615033 298.032973 
L 257.576181 300.240889 
L 258.601406 302.048866 
L 259.626631 303.424446 
L 260.715932 304.527415 
L 261.933387 305.434584 
L 263.278995 306.147721 
L 264.816832 306.703526 
L 266.675052 307.131945 
L 269.109961 307.450985 
L 272.570095 307.661276 
L 274.236086 307.711034 
L 274.236086 307.711034 
L 274.300162 305.806844 
L 274.492392 279.643129 
L 275.197234 167.520452 
L 275.581693 136.644761 
L 275.902076 123.771518 
L 276.158382 119.457597 
L 276.350612 118.819861 
L 276.478765 119.37497 
L 276.735071 122.337403 
L 277.119531 130.100678 
L 277.824373 149.726488 
L 279.874822 208.74318 
L 280.900047 231.502666 
L 281.925272 249.402432 
L 282.88642 262.477489 
L 283.847569 272.673216 
L 284.808717 280.594435 
L 285.769865 286.736992 
L 286.731014 291.495689 
L 287.692162 295.180473 
L 288.65331 298.032973 
L 289.614459 300.240889 
L 290.639684 302.048866 
L 291.664908 303.424446 
L 292.75421 304.527415 
L 293.971664 305.434584 
L 295.317272 306.147721 
L 296.855109 306.703526 
L 298.71333 307.131945 
L 301.148239 307.450985 
L 304.608373 307.661276 
L 306.274363 307.711034 
L 306.274363 307.711034 
L 306.33844 305.806844 
L 306.530669 279.643129 
L 307.235511 167.520452 
L 307.619971 136.644761 
L 307.940353 123.771518 
L 308.19666 119.457597 
L 308.388889 118.819861 
L 308.517042 119.37497 
L 308.773349 122.337403 
L 309.157808 130.100678 
L 309.86265 149.726488 
L 311.9131 208.74318 
L 312.938325 231.502666 
L 313.96355 249.402432 
L 314.924698 262.477489 
L 315.885846 272.673216 
L 316.846995 280.594435 
L 317.808143 286.736992 
L 318.769291 291.495689 
L 319.73044 295.180473 
L 320.691588 298.032973 
L 321.652736 300.240889 
L 322.677961 302.048866 
L 323.703186 303.424446 
L 324.792487 304.527415 
L 326.009942 305.434584 
L 327.35555 306.147721 
L 328.893387 306.703526 
L 330.751607 307.131945 
L 333.186516 307.450985 
L 336.64665 307.661276 
L 338.312641 307.711034 
L 338.312641 307.711034 
L 338.376717 305.806844 
L 338.568947 279.643129 
L 339.273789 167.520452 
L 339.658248 136.644761 
L 339.978631 123.771518 
L 340.234937 119.457597 
L 340.427167 118.819861 
L 340.55532 119.37497 
L 340.811626 122.337403 
L 341.196086 130.100678 
L 341.900928 149.726488 
L 343.951377 208.74318 
L 344.976602 231.502666 
L 346.001827 249.402432 
L 346.962975 262.477489 
L 347.924124 272.673216 
L 348.885272 280.594435 
L 349.84642 286.736992 
L 350.807569 291.495689 
L 351.768717 295.180473 
L 352.729865 298.032973 
L 353.691014 300.240889 
L 354.716239 302.048866 
L 355.741464 303.424446 
L 356.830765 304.527415 
L 358.048219 305.434584 
L 359.393827 306.147721 
L 360.931664 306.703526 
L 362.789885 307.131945 
L 365.224794 307.450985 
L 368.684928 307.661276 
L 370.350918 307.711034 
L 370.350918 307.711034 
L 370.417664 305.625889 
L 370.617904 277.730204 
L 371.285368 170.444962 
L 371.685846 137.250244 
L 372.019578 123.702419 
L 372.286564 119.34888 
L 372.420057 118.8 
L 372.486803 118.862608 
L 372.620296 119.575967 
L 372.887282 122.940916 
L 373.28776 131.403228 
L 374.088717 154.27813 
L 375.89087 206.274732 
L 376.958813 230.389774 
L 377.960009 248.161537 
L 378.961205 261.994748 
L 379.895655 272.045033 
L 380.830105 279.909514 
L 381.764554 286.052063 
L 382.699004 290.845013 
L 383.633454 294.582979 
L 384.63465 297.679106 
L 385.635846 300.05019 
L 386.637042 301.865875 
L 387.704985 303.336353 
L 388.772928 304.44246 
L 389.974363 305.36279 
L 391.309291 306.092718 
L 392.844459 306.666218 
L 394.713358 307.111179 
L 397.116229 307.437049 
L 400.520296 307.653564 
L 406.327234 307.768869 
L 423.547808 307.799684 
L 437.09733 307.799991 
L 437.09733 307.799991 
" clip-path="url(#p9098faeefe)" style="fill: none; stroke: #d62728; stroke-width: 2; stroke-linecap: square"/>
   </g>
   <g id="line2d_15">
    <path d="M 82.00642 307.8 
L 82.673885 279.336531 
L 83.341349 174.077306 
L 84.008813 114.673085 
L 84.676277 78.777769 
L 85.343741 78.828325 
L 86.011205 96.219859 
L 86.678669 111.13411 
L 87.346133 131.002926 
L 88.013597 153.399582 
L 88.681062 174.481761 
L 90.01599 201.883538 
L 92.685846 236.767719 
L 98.025559 275.342545 
L 103.365272 287.779514 
L 114.044698 297.789757 
L 130.063837 304.058798 
L 146.082975 307.8 
M 370.350918 299.205347 
L 371.018382 263.613371 
L 371.685846 171.600024 
L 372.35331 138.434774 
L 373.020775 90.608056 
L 373.688239 101.629435 
L 374.355703 132.317403 
L 375.023167 138.434774 
L 375.690631 164.218734 
L 376.358095 183.885322 
L 377.025559 192.429419 
L 378.360487 218.213379 
L 381.030344 246.424064 
L 386.370057 275.898669 
L 391.70977 290.610693 
L 402.389196 297.991984 
L 418.408334 304.109355 
L 434.427473 307.8 
" clip-path="url(#p9098faeefe)" style="fill: none; stroke-dasharray: 3.7,1.6; stroke-dashoffset: 0; stroke: #d62728"/>
    <defs>
     <path id="mbaf4b38364" d="M -3 3 
L 3 3 
L 3 -3 
L -3 -3 
z
" style="stroke: #000000; stroke-linejoin: miter"/>
    </defs>
    <g clip-path="url(#p9098faeefe)">
     <use xlink:href="#mbaf4b38364" x="82.00642" y="307.8" style="fill: #d62728; stroke: #000000; stroke-linejoin: miter"/>
     <use xlink:href="#mbaf4b38364" x="82.673885" y="279.336531" style="fill: #d62728; stroke: #000000; stroke-linejoin: miter"/>
     <use xlink:href="#mbaf4b38364" x="83.341349" y="174.077306" style="fill: #d62728; stroke: #000000; stroke-linejoin: miter"/>
     <use xlink:href="#mbaf4b38364" x="84.008813" y="114.673085" style="fill: #d62728; stroke: #000000; stroke-linejoin: miter"/>
     <use xlink:href="#mbaf4b38364" x="84.676277" y="78.777769" style="fill: #d62728; stroke: #000000; stroke-linejoin: miter"/>
     <use xlink:href="#mbaf4b38364" x="85.343741" y="78.828325" style="fill: #d62728; stroke: #000000; stroke-linejoin: miter"/>
     <use xlink:href="#mbaf4b38364" x="86.011205" y="96.219859" style="fill: #d62728; stroke: #000000; stroke-linejoin: miter"/>
     <use xlink:href="#mbaf4b38364" x="86.678669" y="111.13411" style="fill: #d62728; stroke: #000000; stroke-linejoin: miter"/>
     <use xlink:href="#mbaf4b38364" x="87.346133" y="131.002926" style="fill: #d62728; stroke: #000000; stroke-linejoin: miter"/>
     <use xlink:href="#mbaf4b38364" x="88.013597" y="153.399582" style="fill: #d62728; stroke: #000000; stroke-linejoin: miter"/>
     <use xlink:href="#mbaf4b38364" x="88.681062" y="174.481761" style="fill: #d62728; stroke: #000000; stroke-linejoin: miter"/>
     <use xlink:href="#mbaf4b38364" x="90.01599" y="201.883538" style="fill: #d62728; stroke: #000000; stroke-linejoin: miter"/>
     <use xlink:href="#mbaf4b38364" x="92.685846" y="236.767719" style="fill: #d62728; stroke: #000000; stroke-linejoin: miter"/>
     <use xlink:href="#mbaf4b38364" x="98.025559" y="275.342545" style="fill: #d62728; stroke: #000000; stroke-linejoin: miter"/>
     <use xlink:href="#mbaf4b38364" x="103.365272" y="287.779514" style="fill: #d62728; stroke: #000000; stroke-linejoin: miter"/>
     <use xlink:href="#mbaf4b38364" x="114.044698" y="297.789757" style="fill: #d62728; stroke: #000000; stroke-linejoin: miter"/>
     <use xlink:href="#mbaf4b38364" x="130.063837" y="304.058798" style="fill: #d62728; stroke: #000000; stroke-linejoin: miter"/>
     <use xlink:href="#mbaf4b38364" x="146.082975" y="307.8" style="fill: #d62728; stroke: #000000; stroke-linejoin: miter"/>
     <use xlink:href="#mbaf4b38364" x="370.350918" y="299.205347" style="fill: #d62728; stroke: #000000; stroke-linejoin: miter"/>
     <use xlink:href="#mbaf4b38364" x="371.018382" y="263.613371" style="fill: #d62728; stroke: #000000; stroke-linejoin: miter"/>
     <use xlink:href="#mbaf4b38364" x="371.685846" y="171.600024" style="fill: #d62728; stroke: #000000; stroke-linejoin: miter"/>
     <use xlink:href="#mbaf4b38364" x="372.35331" y="138.434774" style="fill: #d62728; stroke: #000000; stroke-linejoin: miter"/>
     <use xlink:href="#mbaf4b38364" x="373.020775" y="90.608056" style="fill: #d62728; stroke: #000000; stroke-linejoin: miter"/>
     <use xlink:href="#mbaf4b38364" x="373.688239" y="101.629435" style="fill: #d62728; stroke: #000000; stroke-linejoin: miter"/>
     <use xlink:href="#mbaf4b38364" x="374.355703" y="132.317403" style="fill: #d62728; stroke: #000000; stroke-linejoin: miter"/>
     <use xlink:href="#mbaf4b38364" x="375.023167" y="138.434774" style="fill: #d62728; stroke: #000000; stroke-linejoin: miter"/>
     <use xlink:href="#mbaf4b38364" x="375.690631" y="164.218734" style="fill: #d62728; stroke: #000000; stroke-linejoin: miter"/>
     <use xlink:href="#mbaf4b38364" x="376.358095" y="183.885322" style="fill: #d62728; stroke: #000000; stroke-linejoin: miter"/>
     <use xlink:href="#mbaf4b38364" x="377.025559" y="192.429419" style="fill: #d62728; stroke: #000000; stroke-linejoin: miter"/>
     <use xlink:href="#mbaf4b38364" x="378.360487" y="218.213379" style="fill: #d62728; stroke: #000000; stroke-linejoin: miter"/>
     <use xlink:href="#mbaf4b38364" x="381.030344" y="246.424064" style="fill: #d62728; stroke: #000000; stroke-linejoin: miter"/>
     <use xlink:href="#mbaf4b38364" x="386.370057" y="275.898669" style="fill: #d62728; stroke: #000000; stroke-linejoin: miter"/>
     <use xlink:href="#mbaf4b38364" x="391.70977" y="290.610693" style="fill: #d62728; stroke: #000000; stroke-linejoin: miter"/>
     <use xlink:href="#mbaf4b38364" x="402.389196" y="297.991984" style="fill: #d62728; stroke: #000000; stroke-linejoin: miter"/>
     <use xlink:href="#mbaf4b38364" x="418.408334" y="304.109355" style="fill: #d62728; stroke: #000000; stroke-linejoin: miter"/>
     <use xlink:href="#mbaf4b38364" x="434.427473" y="307.8" style="fill: #d62728; stroke: #000000; stroke-linejoin: miter"/>
    </g>
   </g>
   <g id="line2d_16">
    <path d="M 82.00642 307.8 
L 82.070497 305.258576 
L 82.262727 270.360993 
L 82.967569 120.815956 
L 83.352028 79.631396 
L 83.672411 62.456939 
L 83.928717 56.698897 
L 84.120947 55.844866 
L 84.2491 56.582887 
L 84.505406 60.529258 
L 84.889865 70.876372 
L 85.594708 97.039798 
L 87.645157 175.724868 
L 88.670382 206.070456 
L 89.695607 229.936664 
L 90.656755 247.37002 
L 91.617904 260.964302 
L 92.579052 271.525919 
L 93.5402 279.715992 
L 94.501349 286.060919 
L 95.462497 290.973964 
L 96.423645 294.777297 
L 97.384794 297.721185 
L 98.345942 299.999685 
L 99.371167 301.865394 
L 100.396392 303.284873 
L 101.485693 304.423031 
L 102.639071 305.317076 
L 103.920602 306.035753 
L 105.394363 306.609048 
L 107.188507 307.061878 
L 109.495263 307.400975 
L 112.69909 307.63018 
L 118.017444 307.758874 
L 131.922057 307.798991 
L 146.082975 307.799977 
L 146.082975 307.799977 
L 146.147052 305.258553 
L 146.339282 270.360972 
L 147.044124 120.815945 
L 147.428583 79.631389 
L 147.748966 62.456933 
L 148.005272 56.698893 
L 148.197502 55.844862 
L 148.325655 56.582884 
L 148.581961 60.529255 
L 148.96642 70.876371 
L 149.671263 97.039797 
L 151.721712 175.724868 
L 152.746937 206.070456 
L 153.772162 229.936664 
L 154.73331 247.37002 
L 155.694459 260.964302 
L 156.655607 271.525919 
L 157.616755 279.715992 
L 158.577904 286.060919 
L 159.539052 290.973964 
L 160.5002 294.777297 
L 161.461349 297.721185 
L 162.422497 299.999685 
L 163.447722 301.865394 
L 164.472947 303.284873 
L 165.562248 304.423031 
L 166.715626 305.317076 
L 167.997157 306.035753 
L 169.470918 306.609048 
L 171.265062 307.061878 
L 173.571818 307.400975 
L 176.775645 307.63018 
L 178.121253 307.681378 
L 178.121253 307.681378 
L 178.18533 305.142459 
L 178.377559 270.257505 
L 179.082401 120.760602 
L 179.466861 79.593015 
L 179.787243 62.42869 
L 180.04355 56.676796 
L 180.235779 55.826482 
L 180.363932 56.566627 
L 180.620239 60.516537 
L 181.004698 70.867571 
L 181.70954 97.035317 
L 183.75999 175.72424 
L 184.785215 206.070221 
L 185.81044 229.936576 
L 186.771588 247.369985 
L 187.732736 260.964288 
L 188.693885 271.525914 
L 189.655033 279.71599 
L 190.616181 286.060918 
L 191.57733 290.973964 
L 192.538478 294.777297 
L 193.499626 297.721185 
L 194.460775 299.999685 
L 195.485999 301.865394 
L 196.511224 303.284873 
L 197.600526 304.423031 
L 198.753904 305.317076 
L 200.035435 306.035753 
L 201.509196 306.609048 
L 203.303339 307.061878 
L 205.610095 307.400975 
L 208.813923 307.63018 
L 210.159531 307.681378 
L 210.159531 307.681378 
L 210.223607 305.142459 
L 210.415837 270.257505 
L 211.120679 120.760602 
L 211.505138 79.593015 
L 211.825521 62.42869 
L 212.081827 56.676796 
L 212.274057 55.826482 
L 212.40221 56.566627 
L 212.658516 60.516537 
L 213.042975 70.867571 
L 213.747818 97.035317 
L 215.798267 175.72424 
L 216.823492 206.070221 
L 217.848717 229.936576 
L 218.809865 247.369985 
L 219.771014 260.964288 
L 220.732162 271.525914 
L 221.69331 279.71599 
L 222.654459 286.060918 
L 223.615607 290.973964 
L 224.576755 294.777297 
L 225.537904 297.721185 
L 226.499052 299.999685 
L 227.524277 301.865394 
L 228.549502 303.284873 
L 229.638803 304.423031 
L 230.792181 305.317076 
L 232.073712 306.035753 
L 233.547473 306.609048 
L 235.341617 307.061878 
L 237.648373 307.400975 
L 240.8522 307.63018 
L 242.197808 307.681378 
L 242.197808 307.681378 
L 242.261885 305.142459 
L 242.454114 270.257505 
L 243.158956 120.760602 
L 243.543416 79.593015 
L 243.863798 62.42869 
L 244.120105 56.676796 
L 244.312334 55.826482 
L 244.440487 56.566627 
L 244.696794 60.516537 
L 245.081253 70.867571 
L 245.786095 97.035317 
L 247.836545 175.72424 
L 248.86177 206.070221 
L 249.886995 229.936576 
L 250.848143 247.369985 
L 251.809291 260.964288 
L 252.77044 271.525914 
L 253.731588 279.71599 
L 254.692736 286.060918 
L 255.653885 290.973964 
L 256.615033 294.777297 
L 257.576181 297.721185 
L 258.53733 299.999685 
L 259.562554 301.865394 
L 260.587779 303.284873 
L 261.677081 304.423031 
L 262.830459 305.317076 
L 264.11199 306.035753 
L 265.585751 306.609048 
L 267.379894 307.061878 
L 269.68665 307.400975 
L 272.890478 307.63018 
L 274.236086 307.681378 
L 274.236086 307.681378 
L 274.300162 305.142459 
L 274.492392 270.257505 
L 275.197234 120.760602 
L 275.581693 79.593015 
L 275.902076 62.42869 
L 276.158382 56.676796 
L 276.350612 55.826482 
L 276.478765 56.566627 
L 276.735071 60.516537 
L 277.119531 70.867571 
L 277.824373 97.035317 
L 279.874822 175.72424 
L 280.900047 206.070221 
L 281.925272 229.936576 
L 282.88642 247.369985 
L 283.847569 260.964288 
L 284.808717 271.525914 
L 285.769865 279.71599 
L 286.731014 286.060918 
L 287.692162 290.973964 
L 288.65331 294.777297 
L 289.614459 297.721185 
L 290.575607 299.999685 
L 291.600832 301.865394 
L 292.626057 303.284873 
L 293.715358 304.423031 
L 294.868736 305.317076 
L 296.150267 306.035753 
L 297.624028 306.609048 
L 299.418172 307.061878 
L 301.724928 307.400975 
L 304.928755 307.63018 
L 306.274363 307.681378 
L 306.274363 307.681378 
L 306.33844 305.142459 
L 306.530669 270.257505 
L 307.235511 120.760602 
L 307.619971 79.593015 
L 307.940353 62.42869 
L 308.19666 56.676796 
L 308.388889 55.826482 
L 308.517042 56.566627 
L 308.773349 60.516537 
L 309.157808 70.867571 
L 309.86265 97.035317 
L 311.9131 175.72424 
L 312.938325 206.070221 
L 313.96355 229.936576 
L 314.924698 247.369985 
L 315.885846 260.964288 
L 316.846995 271.525914 
L 317.808143 279.71599 
L 318.769291 286.060918 
L 319.73044 290.973964 
L 320.691588 294.777297 
L 321.652736 297.721185 
L 322.613885 299.999685 
L 323.639109 301.865394 
L 324.664334 303.284873 
L 325.753636 304.423031 
L 326.907014 305.317076 
L 328.188545 306.035753 
L 329.662306 306.609048 
L 331.456449 307.061878 
L 333.763205 307.400975 
L 336.967033 307.63018 
L 338.312641 307.681378 
L 338.312641 307.681378 
L 338.376717 305.142459 
L 338.568947 270.257505 
L 339.273789 120.760602 
L 339.658248 79.593015 
L 339.978631 62.42869 
L 340.234937 56.676796 
L 340.427167 55.826482 
L 340.55532 56.566627 
L 340.811626 60.516537 
L 341.196086 70.867571 
L 341.900928 97.035317 
L 343.951377 175.72424 
L 344.976602 206.070221 
L 346.001827 229.936576 
L 346.962975 247.369985 
L 347.924124 260.964288 
L 348.885272 271.525914 
L 349.84642 279.71599 
L 350.807569 286.060918 
L 351.768717 290.973964 
L 352.729865 294.777297 
L 353.691014 297.721185 
L 354.652162 299.999685 
L 355.677387 301.865394 
L 356.702612 303.284873 
L 357.791913 304.423031 
L 358.945291 305.317076 
L 360.226822 306.035753 
L 361.700583 306.609048 
L 363.494727 307.061878 
L 365.801483 307.400975 
L 369.00531 307.63018 
L 370.350918 307.681378 
L 370.350918 307.681378 
L 370.417664 304.901185 
L 370.617904 267.706939 
L 371.285368 124.65995 
L 371.685846 80.400326 
L 372.019578 62.336558 
L 372.286564 56.53184 
L 372.420057 55.8 
L 372.486803 55.883477 
L 372.620296 56.834623 
L 372.887282 61.321222 
L 373.28776 72.604304 
L 374.088717 103.104173 
L 375.89087 172.432976 
L 376.958813 204.586366 
L 377.960009 228.28205 
L 378.961205 246.726331 
L 379.895655 260.12671 
L 380.830105 270.612685 
L 381.764554 278.802751 
L 382.699004 285.193351 
L 383.633454 290.177306 
L 384.567904 294.063194 
L 385.5691 297.281385 
L 386.570296 299.745761 
L 387.571492 301.632814 
L 388.639435 303.161063 
L 389.707377 304.310614 
L 390.842066 305.221603 
L 392.110248 305.961382 
L 393.578669 306.557075 
L 395.314076 307.017507 
L 397.516708 307.365079 
L 400.587042 307.608196 
L 405.526277 307.748609 
L 417.273645 307.797759 
L 437.09733 307.799989 
L 437.09733 307.799989 
" clip-path="url(#p9098faeefe)" style="fill: none; stroke: #2ca02c; stroke-width: 2; stroke-linecap: square"/>
   </g>
   <g id="line2d_17">
    <path d="M 82.00642 307.8 
L 82.673885 253.350344 
L 83.341349 114.571972 
L 84.008813 104.713399 
L 84.676277 104.814512 
L 85.343741 118.464844 
L 86.011205 150.720072 
L 86.678669 165.68488 
L 87.346133 181.812494 
L 88.013597 193.0361 
L 88.681062 210.427634 
L 90.01599 231.610927 
L 92.685846 259.06326 
L 98.025559 283.987755 
L 103.365272 292.734078 
L 114.044698 301.480402 
L 130.063837 305.322718 
L 146.082975 307.8 
M 370.350918 293.087976 
L 371.018382 277.112032 
L 371.685846 236.616048 
L 372.35331 203.501355 
L 373.020775 167.909379 
L 373.688239 138.434774 
L 374.355703 113.914733 
L 375.023167 73.41875 
L 375.690631 88.130774 
L 376.358095 107.797363 
L 377.025559 136.008048 
L 378.360487 172.813387 
L 381.030344 214.522734 
L 386.370057 261.186645 
L 391.70977 277.112032 
L 402.389196 296.778621 
L 418.408334 301.682629 
L 434.427473 307.8 
" clip-path="url(#p9098faeefe)" style="fill: none; stroke-dasharray: 3.7,1.6; stroke-dashoffset: 0; stroke: #2ca02c"/>
    <defs>
     <path id="m2f87cb561c" d="M -3 3 
L 3 3 
L 3 -3 
L -3 -3 
z
" style="stroke: #000000; stroke-linejoin: miter"/>
    </defs>
    <g clip-path="url(#p9098faeefe)">
     <use xlink:href="#m2f87cb561c" x="82.00642" y="307.8" style="fill: #2ca02c; stroke: #000000; stroke-linejoin: miter"/>
     <use xlink:href="#m2f87cb561c" x="82.673885" y="253.350344" style="fill: #2ca02c; stroke: #000000; stroke-linejoin: miter"/>
     <use xlink:href="#m2f87cb561c" x="83.341349" y="114.571972" style="fill: #2ca02c; stroke: #000000; stroke-linejoin: miter"/>
     <use xlink:href="#m2f87cb561c" x="84.008813" y="104.713399" style="fill: #2ca02c; stroke: #000000; stroke-linejoin: miter"/>
     <use xlink:href="#m2f87cb561c" x="84.676277" y="104.814512" style="fill: #2ca02c; stroke: #000000; stroke-linejoin: miter"/>
     <use xlink:href="#m2f87cb561c" x="85.343741" y="118.464844" style="fill: #2ca02c; stroke: #000000; stroke-linejoin: miter"/>
     <use xlink:href="#m2f87cb561c" x="86.011205" y="150.720072" style="fill: #2ca02c; stroke: #000000; stroke-linejoin: miter"/>
     <use xlink:href="#m2f87cb561c" x="86.678669" y="165.68488" style="fill: #2ca02c; stroke: #000000; stroke-linejoin: miter"/>
     <use xlink:href="#m2f87cb561c" x="87.346133" y="181.812494" style="fill: #2ca02c; stroke: #000000; stroke-linejoin: miter"/>
     <use xlink:href="#m2f87cb561c" x="88.013597" y="193.0361" style="fill: #2ca02c; stroke: #000000; stroke-linejoin: miter"/>
     <use xlink:href="#m2f87cb561c" x="88.681062" y="210.427634" style="fill: #2ca02c; stroke: #000000; stroke-linejoin: miter"/>
     <use xlink:href="#m2f87cb561c" x="90.01599" y="231.610927" style="fill: #2ca02c; stroke: #000000; stroke-linejoin: miter"/>
     <use xlink:href="#m2f87cb561c" x="92.685846" y="259.06326" style="fill: #2ca02c; stroke: #000000; stroke-linejoin: miter"/>
     <use xlink:href="#m2f87cb561c" x="98.025559" y="283.987755" style="fill: #2ca02c; stroke: #000000; stroke-linejoin: miter"/>
     <use xlink:href="#m2f87cb561c" x="103.365272" y="292.734078" style="fill: #2ca02c; stroke: #000000; stroke-linejoin: miter"/>
     <use xlink:href="#m2f87cb561c" x="114.044698" y="301.480402" style="fill: #2ca02c; stroke: #000000; stroke-linejoin: miter"/>
     <use xlink:href="#m2f87cb561c" x="130.063837" y="305.322718" style="fill: #2ca02c; stroke: #000000; stroke-linejoin: miter"/>
     <use xlink:href="#m2f87cb561c" x="146.082975" y="307.8" style="fill: #2ca02c; stroke: #000000; stroke-linejoin: miter"/>
     <use xlink:href="#m2f87cb561c" x="370.350918" y="293.087976" style="fill: #2ca02c; stroke: #000000; stroke-linejoin: miter"/>
     <use xlink:href="#m2f87cb561c" x="371.018382" y="277.112032" style="fill: #2ca02c; stroke: #000000; stroke-linejoin: miter"/>
     <use xlink:href="#m2f87cb561c" x="371.685846" y="236.616048" style="fill: #2ca02c; stroke: #000000; stroke-linejoin: miter"/>
     <use xlink:href="#m2f87cb561c" x="372.35331" y="203.501355" style="fill: #2ca02c; stroke: #000000; stroke-linejoin: miter"/>
     <use xlink:href="#m2f87cb561c" x="373.020775" y="167.909379" style="fill: #2ca02c; stroke: #000000; stroke-linejoin: miter"/>
     <use xlink:href="#m2f87cb561c" x="373.688239" y="138.434774" style="fill: #2ca02c; stroke: #000000; stroke-linejoin: miter"/>
     <use xlink:href="#m2f87cb561c" x="374.355703" y="113.914733" style="fill: #2ca02c; stroke: #000000; stroke-linejoin: miter"/>
     <use xlink:href="#m2f87cb561c" x="375.023167" y="73.41875" style="fill: #2ca02c; stroke: #000000; stroke-linejoin: miter"/>
     <use xlink:href="#m2f87cb561c" x="375.690631" y="88.130774" style="fill: #2ca02c; stroke: #000000; stroke-linejoin: miter"/>
     <use xlink:href="#m2f87cb561c" x="376.358095" y="107.797363" style="fill: #2ca02c; stroke: #000000; stroke-linejoin: miter"/>
     <use xlink:href="#m2f87cb561c" x="377.025559" y="136.008048" style="fill: #2ca02c; stroke: #000000; stroke-linejoin: miter"/>
     <use xlink:href="#m2f87cb561c" x="378.360487" y="172.813387" style="fill: #2ca02c; stroke: #000000; stroke-linejoin: miter"/>
     <use xlink:href="#m2f87cb561c" x="381.030344" y="214.522734" style="fill: #2ca02c; stroke: #000000; stroke-linejoin: miter"/>
     <use xlink:href="#m2f87cb561c" x="386.370057" y="261.186645" style="fill: #2ca02c; stroke: #000000; stroke-linejoin: miter"/>
     <use xlink:href="#m2f87cb561c" x="391.70977" y="277.112032" style="fill: #2ca02c; stroke: #000000; stroke-linejoin: miter"/>
     <use xlink:href="#m2f87cb561c" x="402.389196" y="296.778621" style="fill: #2ca02c; stroke: #000000; stroke-linejoin: miter"/>
     <use xlink:href="#m2f87cb561c" x="418.408334" y="301.682629" style="fill: #2ca02c; stroke: #000000; stroke-linejoin: miter"/>
     <use xlink:href="#m2f87cb561c" x="434.427473" y="307.8" style="fill: #2ca02c; stroke: #000000; stroke-linejoin: miter"/>
    </g>
   </g>
   <g id="patch_3">
    <path d="M 64.251875 320.4 
L 64.251875 43.2 
" style="fill: none; stroke: #000000; stroke-width: 0.8; stroke-linejoin: miter; stroke-linecap: square"/>
   </g>
   <g id="patch_4">
    <path d="M 454.851875 320.4 
L 454.851875 43.2 
" style="fill: none; stroke: #000000; stroke-width: 0.8; stroke-linejoin: miter; stroke-linecap: square"/>
   </g>
   <g id="patch_5">
    <path d="M 64.251875 320.4 
L 454.851875 320.4 
" style="fill: none; stroke: #000000; stroke-width: 0.8; stroke-linejoin: miter; stroke-linecap: square"/>
   </g>
   <g id="patch_6">
    <path d="M 64.251875 43.2 
L 454.851875 43.2 
" style="fill: none; stroke: #000000; stroke-width: 0.8; stroke-linejoin: miter; stroke-linecap: square"/>
   </g>
   <g id="legend_1">
    <g id="patch_7">
     <path d="M 340.944063 139.26875 
L 447.851875 139.26875 
Q 449.851875 139.26875 449.851875 137.26875 
L 449.851875 50.2 
Q 449.851875 48.2 447.851875 48.2 
L 340.944063 48.2 
Q 338.944063 48.2 338.944063 50.2 
L 338.944063 137.26875 
Q 338.944063 139.26875 340.944063 139.26875 
z
" style="fill: #ffffff; opacity: 0.8; stroke: #cccccc; stroke-linejoin: miter"/>
    </g>
    <g id="line2d_18">
     <path d="M 342.944063 56.298437 
L 362.944063 56.298437 
" style="fill: none; stroke: #ff7f0e; stroke-width: 2; stroke-linecap: square"/>
    </g>
    <g id="line2d_19"/>
    <g id="text_14">
     <!-- mED60 -->
     <g transform="translate(370.944063 59.798437) scale(0.1 -0.1)">
      <defs>
       <path id="DejaVuSans-6d" d="M 3328 2828 
Q 3544 3216 3844 3400 
Q 4144 3584 4550 3584 
Q 5097 3584 5394 3201 
Q 5691 2819 5691 2113 
L 5691 0 
L 5113 0 
L 5113 2094 
Q 5113 2597 4934 2840 
Q 4756 3084 4391 3084 
Q 3944 3084 3684 2787 
Q 3425 2491 3425 1978 
L 3425 0 
L 2847 0 
L 2847 2094 
Q 2847 2600 2669 2842 
Q 2491 3084 2119 3084 
Q 1678 3084 1418 2786 
Q 1159 2488 1159 1978 
L 1159 0 
L 581 0 
L 581 3500 
L 1159 3500 
L 1159 2956 
Q 1356 3278 1631 3431 
Q 1906 3584 2284 3584 
Q 2666 3584 2933 3390 
Q 3200 3197 3328 2828 
z
" transform="scale(0.015625)"/>
       <path id="DejaVuSans-45" d="M 628 4666 
L 3578 4666 
L 3578 4134 
L 1259 4134 
L 1259 2753 
L 3481 2753 
L 3481 2222 
L 1259 2222 
L 1259 531 
L 3634 531 
L 3634 0 
L 628 0 
L 628 4666 
z
" transform="scale(0.015625)"/>
       <path id="DejaVuSans-44" d="M 1259 4147 
L 1259 519 
L 2022 519 
Q 2988 519 3436 956 
Q 3884 1394 3884 2338 
Q 3884 3275 3436 3711 
Q 2988 4147 2022 4147 
L 1259 4147 
z
M 628 4666 
L 1925 4666 
Q 3281 4666 3915 4102 
Q 4550 3538 4550 2338 
Q 4550 1131 3912 565 
Q 3275 0 1925 0 
L 628 0 
L 628 4666 
z
" transform="scale(0.015625)"/>
      </defs>
      <use xlink:href="#DejaVuSans-6d"/>
      <use xlink:href="#DejaVuSans-45" transform="translate(97.412109 0)"/>
      <use xlink:href="#DejaVuSans-44" transform="translate(160.595703 0)"/>
      <use xlink:href="#DejaVuSans-36" transform="translate(237.597656 0)"/>
      <use xlink:href="#DejaVuSans-30" transform="translate(301.220703 0)"/>
     </g>
    </g>
    <g id="line2d_20">
     <path d="M 342.944063 70.976562 
L 362.944063 70.976562 
" style="fill: none; stroke-dasharray: 3.7,1.6; stroke-dashoffset: 0; stroke: #ff7f0e"/>
    </g>
    <g id="line2d_21">
     <g>
      <use xlink:href="#mf88325c0dc" x="352.944063" y="70.976562" style="fill: #ff7f0e; stroke: #000000; stroke-linejoin: miter"/>
     </g>
    </g>
    <g id="text_15">
     <!-- mED60 (n=9) -->
     <g transform="translate(370.944063 74.476562) scale(0.1 -0.1)">
      <defs>
       <path id="DejaVuSans-20" transform="scale(0.015625)"/>
       <path id="DejaVuSans-28" d="M 1984 4856 
Q 1566 4138 1362 3434 
Q 1159 2731 1159 2009 
Q 1159 1288 1364 580 
Q 1569 -128 1984 -844 
L 1484 -844 
Q 1016 -109 783 600 
Q 550 1309 550 2009 
Q 550 2706 781 3412 
Q 1013 4119 1484 4856 
L 1984 4856 
z
" transform="scale(0.015625)"/>
       <path id="DejaVuSans-6e" d="M 3513 2113 
L 3513 0 
L 2938 0 
L 2938 2094 
Q 2938 2591 2744 2837 
Q 2550 3084 2163 3084 
Q 1697 3084 1428 2787 
Q 1159 2491 1159 1978 
L 1159 0 
L 581 0 
L 581 3500 
L 1159 3500 
L 1159 2956 
Q 1366 3272 1645 3428 
Q 1925 3584 2291 3584 
Q 2894 3584 3203 3211 
Q 3513 2838 3513 2113 
z
" transform="scale(0.015625)"/>
       <path id="DejaVuSans-3d" d="M 678 2906 
L 4684 2906 
L 4684 2381 
L 678 2381 
L 678 2906 
z
M 678 1631 
L 4684 1631 
L 4684 1100 
L 678 1100 
L 678 1631 
z
" transform="scale(0.015625)"/>
       <path id="DejaVuSans-39" d="M 703 97 
L 703 672 
Q 941 559 1184 500 
Q 1428 441 1663 441 
Q 2288 441 2617 861 
Q 2947 1281 2994 2138 
Q 2813 1869 2534 1725 
Q 2256 1581 1919 1581 
Q 1219 1581 811 2004 
Q 403 2428 403 3163 
Q 403 3881 828 4315 
Q 1253 4750 1959 4750 
Q 2769 4750 3195 4129 
Q 3622 3509 3622 2328 
Q 3622 1225 3098 567 
Q 2575 -91 1691 -91 
Q 1453 -91 1209 -44 
Q 966 3 703 97 
z
M 1959 2075 
Q 2384 2075 2632 2365 
Q 2881 2656 2881 3163 
Q 2881 3666 2632 3958 
Q 2384 4250 1959 4250 
Q 1534 4250 1286 3958 
Q 1038 3666 1038 3163 
Q 1038 2656 1286 2365 
Q 1534 2075 1959 2075 
z
" transform="scale(0.015625)"/>
       <path id="DejaVuSans-29" d="M 513 4856 
L 1013 4856 
Q 1481 4119 1714 3412 
Q 1947 2706 1947 2009 
Q 1947 1309 1714 600 
Q 1481 -109 1013 -844 
L 513 -844 
Q 928 -128 1133 580 
Q 1338 1288 1338 2009 
Q 1338 2731 1133 3434 
Q 928 4138 513 4856 
z
" transform="scale(0.015625)"/>
      </defs>
      <use xlink:href="#DejaVuSans-6d"/>
      <use xlink:href="#DejaVuSans-45" transform="translate(97.412109 0)"/>
      <use xlink:href="#DejaVuSans-44" transform="translate(160.595703 0)"/>
      <use xlink:href="#DejaVuSans-36" transform="translate(237.597656 0)"/>
      <use xlink:href="#DejaVuSans-30" transform="translate(301.220703 0)"/>
      <use xlink:href="#DejaVuSans-20" transform="translate(364.84375 0)"/>
      <use xlink:href="#DejaVuSans-28" transform="translate(396.630859 0)"/>
      <use xlink:href="#DejaVuSans-6e" transform="translate(435.644531 0)"/>
      <use xlink:href="#DejaVuSans-3d" transform="translate(499.023438 0)"/>
      <use xlink:href="#DejaVuSans-39" transform="translate(582.8125 0)"/>
      <use xlink:href="#DejaVuSans-29" transform="translate(646.435547 0)"/>
     </g>
    </g>
    <g id="line2d_22">
     <path d="M 342.944063 85.654687 
L 362.944063 85.654687 
" style="fill: none; stroke: #d62728; stroke-width: 2; stroke-linecap: square"/>
    </g>
    <g id="line2d_23"/>
    <g id="text_16">
     <!-- mED90 -->
     <g transform="translate(370.944063 89.154687) scale(0.1 -0.1)">
      <use xlink:href="#DejaVuSans-6d"/>
      <use xlink:href="#DejaVuSans-45" transform="translate(97.412109 0)"/>
      <use xlink:href="#DejaVuSans-44" transform="translate(160.595703 0)"/>
      <use xlink:href="#DejaVuSans-39" transform="translate(237.597656 0)"/>
      <use xlink:href="#DejaVuSans-30" transform="translate(301.220703 0)"/>
     </g>
    </g>
    <g id="line2d_24">
     <path d="M 342.944063 100.332812 
L 362.944063 100.332812 
" style="fill: none; stroke-dasharray: 3.7,1.6; stroke-dashoffset: 0; stroke: #d62728"/>
    </g>
    <g id="line2d_25">
     <g>
      <use xlink:href="#mbaf4b38364" x="352.944063" y="100.332812" style="fill: #d62728; stroke: #000000; stroke-linejoin: miter"/>
     </g>
    </g>
    <g id="text_17">
     <!-- mED90 (n=9) -->
     <g transform="translate(370.944063 103.832812) scale(0.1 -0.1)">
      <use xlink:href="#DejaVuSans-6d"/>
      <use xlink:href="#DejaVuSans-45" transform="translate(97.412109 0)"/>
      <use xlink:href="#DejaVuSans-44" transform="translate(160.595703 0)"/>
      <use xlink:href="#DejaVuSans-39" transform="translate(237.597656 0)"/>
      <use xlink:href="#DejaVuSans-30" transform="translate(301.220703 0)"/>
      <use xlink:href="#DejaVuSans-20" transform="translate(364.84375 0)"/>
      <use xlink:href="#DejaVuSans-28" transform="translate(396.630859 0)"/>
      <use xlink:href="#DejaVuSans-6e" transform="translate(435.644531 0)"/>
      <use xlink:href="#DejaVuSans-3d" transform="translate(499.023438 0)"/>
      <use xlink:href="#DejaVuSans-39" transform="translate(582.8125 0)"/>
      <use xlink:href="#DejaVuSans-29" transform="translate(646.435547 0)"/>
     </g>
    </g>
    <g id="line2d_26">
     <path d="M 342.944063 115.010937 
L 362.944063 115.010937 
" style="fill: none; stroke: #2ca02c; stroke-width: 2; stroke-linecap: square"/>
    </g>
    <g id="line2d_27"/>
    <g id="text_18">
     <!-- mED120 -->
     <g transform="translate(370.944063 118.510937) scale(0.1 -0.1)">
      <use xlink:href="#DejaVuSans-6d"/>
      <use xlink:href="#DejaVuSans-45" transform="translate(97.412109 0)"/>
      <use xlink:href="#DejaVuSans-44" transform="translate(160.595703 0)"/>
      <use xlink:href="#DejaVuSans-31" transform="translate(237.597656 0)"/>
      <use xlink:href="#DejaVuSans-32" transform="translate(301.220703 0)"/>
      <use xlink:href="#DejaVuSans-30" transform="translate(364.84375 0)"/>
     </g>
    </g>
    <g id="line2d_28">
     <path d="M 342.944063 129.689062 
L 362.944063 129.689062 
" style="fill: none; stroke-dasharray: 3.7,1.6; stroke-dashoffset: 0; stroke: #2ca02c"/>
    </g>
    <g id="line2d_29">
     <g>
      <use xlink:href="#m2f87cb561c" x="352.944063" y="129.689062" style="fill: #2ca02c; stroke: #000000; stroke-linejoin: miter"/>
     </g>
    </g>
    <g id="text_19">
     <!-- mED120 (n=9) -->
     <g transform="translate(370.944063 133.189062) scale(0.1 -0.1)">
      <use xlink:href="#DejaVuSans-6d"/>
      <use xlink:href="#DejaVuSans-45" transform="translate(97.412109 0)"/>
      <use xlink:href="#DejaVuSans-44" transform="translate(160.595703 0)"/>
      <use xlink:href="#DejaVuSans-31" transform="translate(237.597656 0)"/>
      <use xlink:href="#DejaVuSans-32" transform="translate(301.220703 0)"/>
      <use xlink:href="#DejaVuSans-30" transform="translate(364.84375 0)"/>
      <use xlink:href="#DejaVuSans-20" transform="translate(428.466797 0)"/>
      <use xlink:href="#DejaVuSans-28" transform="translate(460.253906 0)"/>
      <use xlink:href="#DejaVuSans-6e" transform="translate(499.267578 0)"/>
      <use xlink:href="#DejaVuSans-3d" transform="translate(562.646484 0)"/>
      <use xlink:href="#DejaVuSans-39" transform="translate(646.435547 0)"/>
      <use xlink:href="#DejaVuSans-29" transform="translate(710.058594 0)"/>
     </g>
    </g>
   </g>
  </g>
  <g id="text_20">
   <!-- Ogata2010 (healthy) -->
   <g transform="translate(107.146406 26.196094) scale(0.25 -0.25)">
    <defs>
     <path id="DejaVuSans-Bold-4f" d="M 2719 3878 
Q 2169 3878 1866 3472 
Q 1563 3066 1563 2328 
Q 1563 1594 1866 1187 
Q 2169 781 2719 781 
Q 3272 781 3575 1187 
Q 3878 1594 3878 2328 
Q 3878 3066 3575 3472 
Q 3272 3878 2719 3878 
z
M 2719 4750 
Q 3844 4750 4481 4106 
Q 5119 3463 5119 2328 
Q 5119 1197 4481 553 
Q 3844 -91 2719 -91 
Q 1597 -91 958 553 
Q 319 1197 319 2328 
Q 319 3463 958 4106 
Q 1597 4750 2719 4750 
z
" transform="scale(0.015625)"/>
     <path id="DejaVuSans-Bold-67" d="M 2919 594 
Q 2688 288 2409 144 
Q 2131 0 1766 0 
Q 1125 0 706 504 
Q 288 1009 288 1791 
Q 288 2575 706 3076 
Q 1125 3578 1766 3578 
Q 2131 3578 2409 3434 
Q 2688 3291 2919 2981 
L 2919 3500 
L 4044 3500 
L 4044 353 
Q 4044 -491 3511 -936 
Q 2978 -1381 1966 -1381 
Q 1638 -1381 1331 -1331 
Q 1025 -1281 716 -1178 
L 716 -306 
Q 1009 -475 1290 -558 
Q 1572 -641 1856 -641 
Q 2406 -641 2662 -400 
Q 2919 -159 2919 353 
L 2919 594 
z
M 2181 2772 
Q 1834 2772 1640 2515 
Q 1447 2259 1447 1791 
Q 1447 1309 1634 1061 
Q 1822 813 2181 813 
Q 2531 813 2725 1069 
Q 2919 1325 2919 1791 
Q 2919 2259 2725 2515 
Q 2531 2772 2181 2772 
z
" transform="scale(0.015625)"/>
     <path id="DejaVuSans-Bold-32" d="M 1844 884 
L 3897 884 
L 3897 0 
L 506 0 
L 506 884 
L 2209 2388 
Q 2438 2594 2547 2791 
Q 2656 2988 2656 3200 
Q 2656 3528 2436 3728 
Q 2216 3928 1850 3928 
Q 1569 3928 1234 3808 
Q 900 3688 519 3450 
L 519 4475 
Q 925 4609 1322 4679 
Q 1719 4750 2100 4750 
Q 2938 4750 3402 4381 
Q 3866 4013 3866 3353 
Q 3866 2972 3669 2642 
Q 3472 2313 2841 1759 
L 1844 884 
z
" transform="scale(0.015625)"/>
     <path id="DejaVuSans-Bold-30" d="M 2944 2338 
Q 2944 3213 2780 3570 
Q 2616 3928 2228 3928 
Q 1841 3928 1675 3570 
Q 1509 3213 1509 2338 
Q 1509 1453 1675 1090 
Q 1841 728 2228 728 
Q 2613 728 2778 1090 
Q 2944 1453 2944 2338 
z
M 4147 2328 
Q 4147 1169 3647 539 
Q 3147 -91 2228 -91 
Q 1306 -91 806 539 
Q 306 1169 306 2328 
Q 306 3491 806 4120 
Q 1306 4750 2228 4750 
Q 3147 4750 3647 4120 
Q 4147 3491 4147 2328 
z
" transform="scale(0.015625)"/>
     <path id="DejaVuSans-Bold-31" d="M 750 831 
L 1813 831 
L 1813 3847 
L 722 3622 
L 722 4441 
L 1806 4666 
L 2950 4666 
L 2950 831 
L 4013 831 
L 4013 0 
L 750 0 
L 750 831 
z
" transform="scale(0.015625)"/>
     <path id="DejaVuSans-Bold-28" d="M 2413 -844 
L 1484 -844 
Q 1006 -72 778 623 
Q 550 1319 550 2003 
Q 550 2688 779 3389 
Q 1009 4091 1484 4856 
L 2413 4856 
Q 2013 4116 1813 3408 
Q 1613 2700 1613 2009 
Q 1613 1319 1811 609 
Q 2009 -100 2413 -844 
z
" transform="scale(0.015625)"/>
     <path id="DejaVuSans-Bold-79" d="M 78 3500 
L 1197 3500 
L 2138 1125 
L 2938 3500 
L 4056 3500 
L 2584 -331 
Q 2363 -916 2067 -1148 
Q 1772 -1381 1288 -1381 
L 641 -1381 
L 641 -647 
L 991 -647 
Q 1275 -647 1404 -556 
Q 1534 -466 1606 -231 
L 1638 -134 
L 78 3500 
z
" transform="scale(0.015625)"/>
     <path id="DejaVuSans-Bold-29" d="M 513 -844 
Q 913 -100 1113 609 
Q 1313 1319 1313 2009 
Q 1313 2700 1113 3408 
Q 913 4116 513 4856 
L 1441 4856 
Q 1916 4091 2145 3389 
Q 2375 2688 2375 2003 
Q 2375 1319 2147 623 
Q 1919 -72 1441 -844 
L 513 -844 
z
" transform="scale(0.015625)"/>
    </defs>
    <use xlink:href="#DejaVuSans-Bold-4f"/>
    <use xlink:href="#DejaVuSans-Bold-67" transform="translate(85.009766 0)"/>
    <use xlink:href="#DejaVuSans-Bold-61" transform="translate(156.591797 0)"/>
    <use xlink:href="#DejaVuSans-Bold-74" transform="translate(224.072266 0)"/>
    <use xlink:href="#DejaVuSans-Bold-61" transform="translate(271.875 0)"/>
    <use xlink:href="#DejaVuSans-Bold-32" transform="translate(339.355469 0)"/>
    <use xlink:href="#DejaVuSans-Bold-30" transform="translate(408.935547 0)"/>
    <use xlink:href="#DejaVuSans-Bold-31" transform="translate(478.515625 0)"/>
    <use xlink:href="#DejaVuSans-Bold-30" transform="translate(548.095703 0)"/>
    <use xlink:href="#DejaVuSans-Bold-20" transform="translate(617.675781 0)"/>
    <use xlink:href="#DejaVuSans-Bold-28" transform="translate(652.490234 0)"/>
    <use xlink:href="#DejaVuSans-Bold-68" transform="translate(698.193359 0)"/>
    <use xlink:href="#DejaVuSans-Bold-65" transform="translate(769.384766 0)"/>
    <use xlink:href="#DejaVuSans-Bold-61" transform="translate(837.207031 0)"/>
    <use xlink:href="#DejaVuSans-Bold-6c" transform="translate(904.6875 0)"/>
    <use xlink:href="#DejaVuSans-Bold-74" transform="translate(938.964844 0)"/>
    <use xlink:href="#DejaVuSans-Bold-68" transform="translate(986.767578 0)"/>
    <use xlink:href="#DejaVuSans-Bold-79" transform="translate(1057.958984 0)"/>
    <use xlink:href="#DejaVuSans-Bold-29" transform="translate(1123.144531 0)"/>
   </g>
  </g>
 </g>
 <defs>
  <clipPath id="p9098faeefe">
   <rect x="64.251875" y="43.2" width="390.6" height="277.2"/>
  </clipPath>
 </defs>
</svg>
