<?xml version="1.0" encoding="utf-8" standalone="no"?>
<!DOCTYPE svg PUBLIC "-//W3C//DTD SVG 1.1//EN"
  "http://www.w3.org/Graphics/SVG/1.1/DTD/svg11.dtd">
<svg xmlns:xlink="http://www.w3.org/1999/xlink" width="462.051875pt" height="370.537812pt" viewBox="0 0 462.051875 370.537812" xmlns="http://www.w3.org/2000/svg" version="1.1">
 <metadata>
  <rdf:RDF xmlns:dc="http://purl.org/dc/elements/1.1/" xmlns:cc="http://creativecommons.org/ns#" xmlns:rdf="http://www.w3.org/1999/02/22-rdf-syntax-ns#">
   <cc:Work>
    <dc:type rdf:resource="http://purl.org/dc/dcmitype/StillImage"/>
    <dc:date>2026-01-06T17:44:26.026295</dc:date>
    <dc:format>image/svg+xml</dc:format>
    <dc:creator>
     <cc:Agent>
      <dc:title>Matplotlib v3.10.7, https://matplotlib.org/</dc:title>
     </cc:Agent>
    </dc:creator>
   </cc:Work>
  </rdf:RDF>
 </metadata>
 <defs>
  <style type="text/css">*{stroke-linejoin: round; stroke-linecap: butt}</style>
 </defs>
 <g id="figure_1">
  <g id="patch_1">
   <path d="M 0 370.537812 
L 462.051875 370.537812 
L 462.051875 0 
L 0 0 
z
" style="fill: #ffffff"/>
  </g>
  <g id="axes_1">
   <g id="patch_2">
    <path d="M 64.251875 320.4 
L 454.851875 320.4 
L 454.851875 43.2 
L 64.251875 43.2 
z
" style="fill: #ffffff"/>
   </g>
   <g id="matplotlib.axis_1">
    <g id="xtick_1">
     <g id="line2d_1">
      <defs>
       <path id="me8612a3796" d="M 0 0 
L 0 3.5 
" style="stroke: #000000; stroke-width: 0.8"/>
      </defs>
      <g>
       <use xlink:href="#me8612a3796" x="82.00642" y="320.4" style="stroke: #000000; stroke-width: 0.8"/>
      </g>
     </g>
     <g id="text_1">
      <!-- 0 -->
      <g transform="translate(77.234545 338.797656) scale(0.15 -0.15)">
       <defs>
        <path id="DejaVuSans-30" d="M 2034 4250 
Q 1547 4250 1301 3770 
Q 1056 3291 1056 2328 
Q 1056 1369 1301 889 
Q 1547 409 2034 409 
Q 2525 409 2770 889 
Q 3016 1369 3016 2328 
Q 3016 3291 2770 3770 
Q 2525 4250 2034 4250 
z
M 2034 4750 
Q 2819 4750 3233 4129 
Q 3647 3509 3647 2328 
Q 3647 1150 3233 529 
Q 2819 -91 2034 -91 
Q 1250 -91 836 529 
Q 422 1150 422 2328 
Q 422 3509 836 4129 
Q 1250 4750 2034 4750 
z
" transform="scale(0.015625)"/>
       </defs>
       <use xlink:href="#DejaVuSans-30"/>
      </g>
     </g>
    </g>
    <g id="xtick_2">
     <g id="line2d_2">
      <g>
       <use xlink:href="#me8612a3796" x="153.024602" y="320.4" style="stroke: #000000; stroke-width: 0.8"/>
      </g>
     </g>
     <g id="text_2">
      <!-- 10 -->
      <g transform="translate(143.480852 338.797656) scale(0.15 -0.15)">
       <defs>
        <path id="DejaVuSans-31" d="M 794 531 
L 1825 531 
L 1825 4091 
L 703 3866 
L 703 4441 
L 1819 4666 
L 2450 4666 
L 2450 531 
L 3481 531 
L 3481 0 
L 794 0 
L 794 531 
z
" transform="scale(0.015625)"/>
       </defs>
       <use xlink:href="#DejaVuSans-31"/>
       <use xlink:href="#DejaVuSans-30" transform="translate(63.623047 0)"/>
      </g>
     </g>
    </g>
    <g id="xtick_3">
     <g id="line2d_3">
      <g>
       <use xlink:href="#me8612a3796" x="224.042784" y="320.4" style="stroke: #000000; stroke-width: 0.8"/>
      </g>
     </g>
     <g id="text_3">
      <!-- 20 -->
      <g transform="translate(214.499034 338.797656) scale(0.15 -0.15)">
       <defs>
        <path id="DejaVuSans-32" d="M 1228 531 
L 3431 531 
L 3431 0 
L 469 0 
L 469 531 
Q 828 903 1448 1529 
Q 2069 2156 2228 2338 
Q 2531 2678 2651 2914 
Q 2772 3150 2772 3378 
Q 2772 3750 2511 3984 
Q 2250 4219 1831 4219 
Q 1534 4219 1204 4116 
Q 875 4013 500 3803 
L 500 4441 
Q 881 4594 1212 4672 
Q 1544 4750 1819 4750 
Q 2544 4750 2975 4387 
Q 3406 4025 3406 3419 
Q 3406 3131 3298 2873 
Q 3191 2616 2906 2266 
Q 2828 2175 2409 1742 
Q 1991 1309 1228 531 
z
" transform="scale(0.015625)"/>
       </defs>
       <use xlink:href="#DejaVuSans-32"/>
       <use xlink:href="#DejaVuSans-30" transform="translate(63.623047 0)"/>
      </g>
     </g>
    </g>
    <g id="xtick_4">
     <g id="line2d_4">
      <g>
       <use xlink:href="#me8612a3796" x="295.060966" y="320.4" style="stroke: #000000; stroke-width: 0.8"/>
      </g>
     </g>
     <g id="text_4">
      <!-- 30 -->
      <g transform="translate(285.517216 338.797656) scale(0.15 -0.15)">
       <defs>
        <path id="DejaVuSans-33" d="M 2597 2516 
Q 3050 2419 3304 2112 
Q 3559 1806 3559 1356 
Q 3559 666 3084 287 
Q 2609 -91 1734 -91 
Q 1441 -91 1130 -33 
Q 819 25 488 141 
L 488 750 
Q 750 597 1062 519 
Q 1375 441 1716 441 
Q 2309 441 2620 675 
Q 2931 909 2931 1356 
Q 2931 1769 2642 2001 
Q 2353 2234 1838 2234 
L 1294 2234 
L 1294 2753 
L 1863 2753 
Q 2328 2753 2575 2939 
Q 2822 3125 2822 3475 
Q 2822 3834 2567 4026 
Q 2313 4219 1838 4219 
Q 1578 4219 1281 4162 
Q 984 4106 628 3988 
L 628 4550 
Q 988 4650 1302 4700 
Q 1616 4750 1894 4750 
Q 2613 4750 3031 4423 
Q 3450 4097 3450 3541 
Q 3450 3153 3228 2886 
Q 3006 2619 2597 2516 
z
" transform="scale(0.015625)"/>
       </defs>
       <use xlink:href="#DejaVuSans-33"/>
       <use xlink:href="#DejaVuSans-30" transform="translate(63.623047 0)"/>
      </g>
     </g>
    </g>
    <g id="xtick_5">
     <g id="line2d_5">
      <g>
       <use xlink:href="#me8612a3796" x="366.079148" y="320.4" style="stroke: #000000; stroke-width: 0.8"/>
      </g>
     </g>
     <g id="text_5">
      <!-- 40 -->
      <g transform="translate(356.535398 338.797656) scale(0.15 -0.15)">
       <defs>
        <path id="DejaVuSans-34" d="M 2419 4116 
L 825 1625 
L 2419 1625 
L 2419 4116 
z
M 2253 4666 
L 3047 4666 
L 3047 1625 
L 3713 1625 
L 3713 1100 
L 3047 1100 
L 3047 0 
L 2419 0 
L 2419 1100 
L 313 1100 
L 313 1709 
L 2253 4666 
z
" transform="scale(0.015625)"/>
       </defs>
       <use xlink:href="#DejaVuSans-34"/>
       <use xlink:href="#DejaVuSans-30" transform="translate(63.623047 0)"/>
      </g>
     </g>
    </g>
    <g id="xtick_6">
     <g id="line2d_6">
      <g>
       <use xlink:href="#me8612a3796" x="437.09733" y="320.4" style="stroke: #000000; stroke-width: 0.8"/>
      </g>
     </g>
     <g id="text_6">
      <!-- 50 -->
      <g transform="translate(427.55358 338.797656) scale(0.15 -0.15)">
       <defs>
        <path id="DejaVuSans-35" d="M 691 4666 
L 3169 4666 
L 3169 4134 
L 1269 4134 
L 1269 2991 
Q 1406 3038 1543 3061 
Q 1681 3084 1819 3084 
Q 2600 3084 3056 2656 
Q 3513 2228 3513 1497 
Q 3513 744 3044 326 
Q 2575 -91 1722 -91 
Q 1428 -91 1123 -41 
Q 819 9 494 109 
L 494 744 
Q 775 591 1075 516 
Q 1375 441 1709 441 
Q 2250 441 2565 725 
Q 2881 1009 2881 1497 
Q 2881 1984 2565 2268 
Q 2250 2553 1709 2553 
Q 1456 2553 1204 2497 
Q 953 2441 691 2322 
L 691 4666 
z
" transform="scale(0.015625)"/>
       </defs>
       <use xlink:href="#DejaVuSans-35"/>
       <use xlink:href="#DejaVuSans-30" transform="translate(63.623047 0)"/>
      </g>
     </g>
    </g>
    <g id="text_7">
     <!-- time [hr] -->
     <g transform="translate(214.477344 359.594375) scale(0.18 -0.18)">
      <defs>
       <path id="DejaVuSans-Bold-74" d="M 1759 4494 
L 1759 3500 
L 2913 3500 
L 2913 2700 
L 1759 2700 
L 1759 1216 
Q 1759 972 1856 886 
Q 1953 800 2241 800 
L 2816 800 
L 2816 0 
L 1856 0 
Q 1194 0 917 276 
Q 641 553 641 1216 
L 641 2700 
L 84 2700 
L 84 3500 
L 641 3500 
L 641 4494 
L 1759 4494 
z
" transform="scale(0.015625)"/>
       <path id="DejaVuSans-Bold-69" d="M 538 3500 
L 1656 3500 
L 1656 0 
L 538 0 
L 538 3500 
z
M 538 4863 
L 1656 4863 
L 1656 3950 
L 538 3950 
L 538 4863 
z
" transform="scale(0.015625)"/>
       <path id="DejaVuSans-Bold-6d" d="M 3781 2919 
Q 3994 3244 4286 3414 
Q 4578 3584 4928 3584 
Q 5531 3584 5847 3212 
Q 6163 2841 6163 2131 
L 6163 0 
L 5038 0 
L 5038 1825 
Q 5041 1866 5042 1909 
Q 5044 1953 5044 2034 
Q 5044 2406 4934 2573 
Q 4825 2741 4581 2741 
Q 4263 2741 4089 2478 
Q 3916 2216 3909 1719 
L 3909 0 
L 2784 0 
L 2784 1825 
Q 2784 2406 2684 2573 
Q 2584 2741 2328 2741 
Q 2006 2741 1831 2477 
Q 1656 2213 1656 1722 
L 1656 0 
L 531 0 
L 531 3500 
L 1656 3500 
L 1656 2988 
Q 1863 3284 2130 3434 
Q 2397 3584 2719 3584 
Q 3081 3584 3359 3409 
Q 3638 3234 3781 2919 
z
" transform="scale(0.015625)"/>
       <path id="DejaVuSans-Bold-65" d="M 4031 1759 
L 4031 1441 
L 1416 1441 
Q 1456 1047 1700 850 
Q 1944 653 2381 653 
Q 2734 653 3104 758 
Q 3475 863 3866 1075 
L 3866 213 
Q 3469 63 3072 -14 
Q 2675 -91 2278 -91 
Q 1328 -91 801 392 
Q 275 875 275 1747 
Q 275 2603 792 3093 
Q 1309 3584 2216 3584 
Q 3041 3584 3536 3087 
Q 4031 2591 4031 1759 
z
M 2881 2131 
Q 2881 2450 2695 2645 
Q 2509 2841 2209 2841 
Q 1884 2841 1681 2658 
Q 1478 2475 1428 2131 
L 2881 2131 
z
" transform="scale(0.015625)"/>
       <path id="DejaVuSans-Bold-20" transform="scale(0.015625)"/>
       <path id="DejaVuSans-Bold-5b" d="M 550 4863 
L 2491 4863 
L 2491 4159 
L 1613 4159 
L 1613 -141 
L 2491 -141 
L 2491 -844 
L 550 -844 
L 550 4863 
z
" transform="scale(0.015625)"/>
       <path id="DejaVuSans-Bold-68" d="M 4056 2131 
L 4056 0 
L 2931 0 
L 2931 347 
L 2931 1625 
Q 2931 2084 2911 2256 
Q 2891 2428 2841 2509 
Q 2775 2619 2662 2680 
Q 2550 2741 2406 2741 
Q 2056 2741 1856 2470 
Q 1656 2200 1656 1722 
L 1656 0 
L 538 0 
L 538 4863 
L 1656 4863 
L 1656 2988 
Q 1909 3294 2193 3439 
Q 2478 3584 2822 3584 
Q 3428 3584 3742 3212 
Q 4056 2841 4056 2131 
z
" transform="scale(0.015625)"/>
       <path id="DejaVuSans-Bold-72" d="M 3138 2547 
Q 2991 2616 2845 2648 
Q 2700 2681 2553 2681 
Q 2122 2681 1889 2404 
Q 1656 2128 1656 1613 
L 1656 0 
L 538 0 
L 538 3500 
L 1656 3500 
L 1656 2925 
Q 1872 3269 2151 3426 
Q 2431 3584 2822 3584 
Q 2878 3584 2943 3579 
Q 3009 3575 3134 3559 
L 3138 2547 
z
" transform="scale(0.015625)"/>
       <path id="DejaVuSans-Bold-5d" d="M 2375 -844 
L 434 -844 
L 434 -141 
L 1313 -141 
L 1313 4159 
L 434 4159 
L 434 4863 
L 2375 4863 
L 2375 -844 
z
" transform="scale(0.015625)"/>
      </defs>
      <use xlink:href="#DejaVuSans-Bold-74"/>
      <use xlink:href="#DejaVuSans-Bold-69" transform="translate(47.802734 0)"/>
      <use xlink:href="#DejaVuSans-Bold-6d" transform="translate(82.080078 0)"/>
      <use xlink:href="#DejaVuSans-Bold-65" transform="translate(186.279297 0)"/>
      <use xlink:href="#DejaVuSans-Bold-20" transform="translate(254.101562 0)"/>
      <use xlink:href="#DejaVuSans-Bold-5b" transform="translate(288.916016 0)"/>
      <use xlink:href="#DejaVuSans-Bold-68" transform="translate(334.619141 0)"/>
      <use xlink:href="#DejaVuSans-Bold-72" transform="translate(405.810547 0)"/>
      <use xlink:href="#DejaVuSans-Bold-5d" transform="translate(455.126953 0)"/>
     </g>
    </g>
   </g>
   <g id="matplotlib.axis_2">
    <g id="ytick_1">
     <g id="line2d_7">
      <defs>
       <path id="m161376163e" d="M 0 0 
L -3.5 0 
" style="stroke: #000000; stroke-width: 0.8"/>
      </defs>
      <g>
       <use xlink:href="#m161376163e" x="64.251875" y="307.8" style="stroke: #000000; stroke-width: 0.8"/>
      </g>
     </g>
     <g id="text_8">
      <!-- 0 -->
      <g transform="translate(47.708125 313.498828) scale(0.15 -0.15)">
       <use xlink:href="#DejaVuSans-30"/>
      </g>
     </g>
    </g>
    <g id="ytick_2">
     <g id="line2d_8">
      <g>
       <use xlink:href="#m161376163e" x="64.251875" y="254.597808" style="stroke: #000000; stroke-width: 0.8"/>
      </g>
     </g>
     <g id="text_9">
      <!-- 100 -->
      <g transform="translate(28.620625 260.296636) scale(0.15 -0.15)">
       <use xlink:href="#DejaVuSans-31"/>
       <use xlink:href="#DejaVuSans-30" transform="translate(63.623047 0)"/>
       <use xlink:href="#DejaVuSans-30" transform="translate(127.246094 0)"/>
      </g>
     </g>
    </g>
    <g id="ytick_3">
     <g id="line2d_9">
      <g>
       <use xlink:href="#m161376163e" x="64.251875" y="201.395616" style="stroke: #000000; stroke-width: 0.8"/>
      </g>
     </g>
     <g id="text_10">
      <!-- 200 -->
      <g transform="translate(28.620625 207.094444) scale(0.15 -0.15)">
       <use xlink:href="#DejaVuSans-32"/>
       <use xlink:href="#DejaVuSans-30" transform="translate(63.623047 0)"/>
       <use xlink:href="#DejaVuSans-30" transform="translate(127.246094 0)"/>
      </g>
     </g>
    </g>
    <g id="ytick_4">
     <g id="line2d_10">
      <g>
       <use xlink:href="#m161376163e" x="64.251875" y="148.193424" style="stroke: #000000; stroke-width: 0.8"/>
      </g>
     </g>
     <g id="text_11">
      <!-- 300 -->
      <g transform="translate(28.620625 153.892252) scale(0.15 -0.15)">
       <use xlink:href="#DejaVuSans-33"/>
       <use xlink:href="#DejaVuSans-30" transform="translate(63.623047 0)"/>
       <use xlink:href="#DejaVuSans-30" transform="translate(127.246094 0)"/>
      </g>
     </g>
    </g>
    <g id="ytick_5">
     <g id="line2d_11">
      <g>
       <use xlink:href="#m161376163e" x="64.251875" y="94.991232" style="stroke: #000000; stroke-width: 0.8"/>
      </g>
     </g>
     <g id="text_12">
      <!-- 400 -->
      <g transform="translate(28.620625 100.69006) scale(0.15 -0.15)">
       <use xlink:href="#DejaVuSans-34"/>
       <use xlink:href="#DejaVuSans-30" transform="translate(63.623047 0)"/>
       <use xlink:href="#DejaVuSans-30" transform="translate(127.246094 0)"/>
      </g>
     </g>
    </g>
    <g id="text_13">
     <!-- edoxaban plasma [nM] -->
     <g transform="translate(20.877187 297.59625) rotate(-90) scale(0.18 -0.18)">
      <defs>
       <path id="DejaVuSans-Bold-64" d="M 2919 2988 
L 2919 4863 
L 4044 4863 
L 4044 0 
L 2919 0 
L 2919 506 
Q 2688 197 2409 53 
Q 2131 -91 1766 -91 
Q 1119 -91 703 423 
Q 288 938 288 1747 
Q 288 2556 703 3070 
Q 1119 3584 1766 3584 
Q 2128 3584 2408 3439 
Q 2688 3294 2919 2988 
z
M 2181 722 
Q 2541 722 2730 984 
Q 2919 1247 2919 1747 
Q 2919 2247 2730 2509 
Q 2541 2772 2181 2772 
Q 1825 2772 1636 2509 
Q 1447 2247 1447 1747 
Q 1447 1247 1636 984 
Q 1825 722 2181 722 
z
" transform="scale(0.015625)"/>
       <path id="DejaVuSans-Bold-6f" d="M 2203 2784 
Q 1831 2784 1636 2517 
Q 1441 2250 1441 1747 
Q 1441 1244 1636 976 
Q 1831 709 2203 709 
Q 2569 709 2762 976 
Q 2956 1244 2956 1747 
Q 2956 2250 2762 2517 
Q 2569 2784 2203 2784 
z
M 2203 3584 
Q 3106 3584 3614 3096 
Q 4122 2609 4122 1747 
Q 4122 884 3614 396 
Q 3106 -91 2203 -91 
Q 1297 -91 786 396 
Q 275 884 275 1747 
Q 275 2609 786 3096 
Q 1297 3584 2203 3584 
z
" transform="scale(0.015625)"/>
       <path id="DejaVuSans-Bold-78" d="M 1422 1791 
L 159 3500 
L 1344 3500 
L 2059 2463 
L 2784 3500 
L 3969 3500 
L 2706 1797 
L 4031 0 
L 2847 0 
L 2059 1106 
L 1281 0 
L 97 0 
L 1422 1791 
z
" transform="scale(0.015625)"/>
       <path id="DejaVuSans-Bold-61" d="M 2106 1575 
Q 1756 1575 1579 1456 
Q 1403 1338 1403 1106 
Q 1403 894 1545 773 
Q 1688 653 1941 653 
Q 2256 653 2472 879 
Q 2688 1106 2688 1447 
L 2688 1575 
L 2106 1575 
z
M 3816 1997 
L 3816 0 
L 2688 0 
L 2688 519 
Q 2463 200 2181 54 
Q 1900 -91 1497 -91 
Q 953 -91 614 226 
Q 275 544 275 1050 
Q 275 1666 698 1953 
Q 1122 2241 2028 2241 
L 2688 2241 
L 2688 2328 
Q 2688 2594 2478 2717 
Q 2269 2841 1825 2841 
Q 1466 2841 1156 2769 
Q 847 2697 581 2553 
L 581 3406 
Q 941 3494 1303 3539 
Q 1666 3584 2028 3584 
Q 2975 3584 3395 3211 
Q 3816 2838 3816 1997 
z
" transform="scale(0.015625)"/>
       <path id="DejaVuSans-Bold-62" d="M 2400 722 
Q 2759 722 2948 984 
Q 3138 1247 3138 1747 
Q 3138 2247 2948 2509 
Q 2759 2772 2400 2772 
Q 2041 2772 1848 2508 
Q 1656 2244 1656 1747 
Q 1656 1250 1848 986 
Q 2041 722 2400 722 
z
M 1656 2988 
Q 1888 3294 2169 3439 
Q 2450 3584 2816 3584 
Q 3463 3584 3878 3070 
Q 4294 2556 4294 1747 
Q 4294 938 3878 423 
Q 3463 -91 2816 -91 
Q 2450 -91 2169 54 
Q 1888 200 1656 506 
L 1656 0 
L 538 0 
L 538 4863 
L 1656 4863 
L 1656 2988 
z
" transform="scale(0.015625)"/>
       <path id="DejaVuSans-Bold-6e" d="M 4056 2131 
L 4056 0 
L 2931 0 
L 2931 347 
L 2931 1631 
Q 2931 2084 2911 2256 
Q 2891 2428 2841 2509 
Q 2775 2619 2662 2680 
Q 2550 2741 2406 2741 
Q 2056 2741 1856 2470 
Q 1656 2200 1656 1722 
L 1656 0 
L 538 0 
L 538 3500 
L 1656 3500 
L 1656 2988 
Q 1909 3294 2193 3439 
Q 2478 3584 2822 3584 
Q 3428 3584 3742 3212 
Q 4056 2841 4056 2131 
z
" transform="scale(0.015625)"/>
       <path id="DejaVuSans-Bold-70" d="M 1656 506 
L 1656 -1331 
L 538 -1331 
L 538 3500 
L 1656 3500 
L 1656 2988 
Q 1888 3294 2169 3439 
Q 2450 3584 2816 3584 
Q 3463 3584 3878 3070 
Q 4294 2556 4294 1747 
Q 4294 938 3878 423 
Q 3463 -91 2816 -91 
Q 2450 -91 2169 54 
Q 1888 200 1656 506 
z
M 2400 2772 
Q 2041 2772 1848 2508 
Q 1656 2244 1656 1747 
Q 1656 1250 1848 986 
Q 2041 722 2400 722 
Q 2759 722 2948 984 
Q 3138 1247 3138 1747 
Q 3138 2247 2948 2509 
Q 2759 2772 2400 2772 
z
" transform="scale(0.015625)"/>
       <path id="DejaVuSans-Bold-6c" d="M 538 4863 
L 1656 4863 
L 1656 0 
L 538 0 
L 538 4863 
z
" transform="scale(0.015625)"/>
       <path id="DejaVuSans-Bold-73" d="M 3272 3391 
L 3272 2541 
Q 2913 2691 2578 2766 
Q 2244 2841 1947 2841 
Q 1628 2841 1473 2761 
Q 1319 2681 1319 2516 
Q 1319 2381 1436 2309 
Q 1553 2238 1856 2203 
L 2053 2175 
Q 2913 2066 3209 1816 
Q 3506 1566 3506 1031 
Q 3506 472 3093 190 
Q 2681 -91 1863 -91 
Q 1516 -91 1145 -36 
Q 775 19 384 128 
L 384 978 
Q 719 816 1070 734 
Q 1422 653 1784 653 
Q 2113 653 2278 743 
Q 2444 834 2444 1013 
Q 2444 1163 2330 1236 
Q 2216 1309 1875 1350 
L 1678 1375 
Q 931 1469 631 1722 
Q 331 1975 331 2491 
Q 331 3047 712 3315 
Q 1094 3584 1881 3584 
Q 2191 3584 2531 3537 
Q 2872 3491 3272 3391 
z
" transform="scale(0.015625)"/>
       <path id="DejaVuSans-Bold-4d" d="M 588 4666 
L 2119 4666 
L 3181 2169 
L 4250 4666 
L 5778 4666 
L 5778 0 
L 4641 0 
L 4641 3413 
L 3566 897 
L 2803 897 
L 1728 3413 
L 1728 0 
L 588 0 
L 588 4666 
z
" transform="scale(0.015625)"/>
      </defs>
      <use xlink:href="#DejaVuSans-Bold-65"/>
      <use xlink:href="#DejaVuSans-Bold-64" transform="translate(67.822266 0)"/>
      <use xlink:href="#DejaVuSans-Bold-6f" transform="translate(139.404297 0)"/>
      <use xlink:href="#DejaVuSans-Bold-78" transform="translate(208.105469 0)"/>
      <use xlink:href="#DejaVuSans-Bold-61" transform="translate(272.607422 0)"/>
      <use xlink:href="#DejaVuSans-Bold-62" transform="translate(340.087891 0)"/>
      <use xlink:href="#DejaVuSans-Bold-61" transform="translate(411.669922 0)"/>
      <use xlink:href="#DejaVuSans-Bold-6e" transform="translate(479.150391 0)"/>
      <use xlink:href="#DejaVuSans-Bold-20" transform="translate(550.341797 0)"/>
      <use xlink:href="#DejaVuSans-Bold-70" transform="translate(585.15625 0)"/>
      <use xlink:href="#DejaVuSans-Bold-6c" transform="translate(656.738281 0)"/>
      <use xlink:href="#DejaVuSans-Bold-61" transform="translate(691.015625 0)"/>
      <use xlink:href="#DejaVuSans-Bold-73" transform="translate(758.496094 0)"/>
      <use xlink:href="#DejaVuSans-Bold-6d" transform="translate(818.017578 0)"/>
      <use xlink:href="#DejaVuSans-Bold-61" transform="translate(922.216797 0)"/>
      <use xlink:href="#DejaVuSans-Bold-20" transform="translate(989.697266 0)"/>
      <use xlink:href="#DejaVuSans-Bold-5b" transform="translate(1024.511719 0)"/>
      <use xlink:href="#DejaVuSans-Bold-6e" transform="translate(1070.214844 0)"/>
      <use xlink:href="#DejaVuSans-Bold-4d" transform="translate(1141.40625 0)"/>
      <use xlink:href="#DejaVuSans-Bold-5d" transform="translate(1240.917969 0)"/>
     </g>
    </g>
   </g>
   <g id="LineCollection_1">
    <path clip-path="url(#pdee0627fad)" style="fill: none; stroke: #000000"/>
    <path d="M 83.781875 268.417071 
L 83.781875 253.079376 
" clip-path="url(#pdee0627fad)" style="fill: none; stroke: #000000"/>
    <path d="M 85.55733 168.751177 
L 85.55733 142.521777 
" clip-path="url(#pdee0627fad)" style="fill: none; stroke: #000000"/>
    <path d="M 87.332784 118.447421 
L 87.332784 92.159777 
" clip-path="url(#pdee0627fad)" style="fill: none; stroke: #000000"/>
    <path d="M 89.108239 103.100019 
L 89.108239 85.607281 
" clip-path="url(#pdee0627fad)" style="fill: none; stroke: #000000"/>
    <path d="M 90.883693 99.848039 
L 90.883693 88.93692 
" clip-path="url(#pdee0627fad)" style="fill: none; stroke: #000000"/>
    <path d="M 92.659148 102.022497 
L 92.659148 97.712411 
" clip-path="url(#pdee0627fad)" style="fill: none; stroke: #000000"/>
    <path d="M 94.434602 109.6331 
L 94.434602 105.517162 
" clip-path="url(#pdee0627fad)" style="fill: none; stroke: #000000"/>
    <path d="M 96.210057 115.923497 
L 96.210057 112.390002 
" clip-path="url(#pdee0627fad)" style="fill: none; stroke: #000000"/>
    <path d="M 99.760966 135.328593 
L 99.760966 130.300159 
" clip-path="url(#pdee0627fad)" style="fill: none; stroke: #000000"/>
    <path d="M 103.311875 146.035857 
L 103.311875 141.531623 
" clip-path="url(#pdee0627fad)" style="fill: none; stroke: #000000"/>
    <path d="M 106.862784 160.053345 
L 106.862784 156.053896 
" clip-path="url(#pdee0627fad)" style="fill: none; stroke: #000000"/>
    <path d="M 110.413693 175.536651 
L 110.413693 171.284809 
" clip-path="url(#pdee0627fad)" style="fill: none; stroke: #000000"/>
    <path d="M 113.964602 186.535137 
L 113.964602 184.457753 
" clip-path="url(#pdee0627fad)" style="fill: none; stroke: #000000"/>
    <path clip-path="url(#pdee0627fad)" style="fill: none; stroke: #000000"/>
    <path clip-path="url(#pdee0627fad)" style="fill: none; stroke: #000000"/>
    <path clip-path="url(#pdee0627fad)" style="fill: none; stroke: #000000"/>
    <path clip-path="url(#pdee0627fad)" style="fill: none; stroke: #000000"/>
    <path clip-path="url(#pdee0627fad)" style="fill: none; stroke: #000000"/>
    <path clip-path="url(#pdee0627fad)" style="fill: none; stroke: #000000"/>
   </g>
   <g id="LineCollection_2">
    <path clip-path="url(#pdee0627fad)" style="fill: none; stroke: #000000"/>
    <path d="M 83.781875 239.954969 
L 83.781875 220.248943 
" clip-path="url(#pdee0627fad)" style="fill: none; stroke: #000000"/>
    <path d="M 85.55733 133.765701 
L 85.55733 111.865803 
" clip-path="url(#pdee0627fad)" style="fill: none; stroke: #000000"/>
    <path d="M 87.332784 99.818917 
L 87.332784 80.112892 
" clip-path="url(#pdee0627fad)" style="fill: none; stroke: #000000"/>
    <path d="M 89.108239 88.917505 
L 89.108239 80.142014 
" clip-path="url(#pdee0627fad)" style="fill: none; stroke: #000000"/>
    <path d="M 90.883693 91.820018 
L 90.883693 88.228279 
" clip-path="url(#pdee0627fad)" style="fill: none; stroke: #000000"/>
    <path d="M 92.659148 99.595647 
L 92.659148 95.80976 
" clip-path="url(#pdee0627fad)" style="fill: none; stroke: #000000"/>
    <path d="M 94.434602 113.982016 
L 94.434602 112.09878 
" clip-path="url(#pdee0627fad)" style="fill: none; stroke: #000000"/>
    <path clip-path="url(#pdee0627fad)" style="fill: none; stroke: #000000"/>
    <path clip-path="url(#pdee0627fad)" style="fill: none; stroke: #000000"/>
    <path clip-path="url(#pdee0627fad)" style="fill: none; stroke: #000000"/>
    <path clip-path="url(#pdee0627fad)" style="fill: none; stroke: #000000"/>
    <path clip-path="url(#pdee0627fad)" style="fill: none; stroke: #000000"/>
    <path clip-path="url(#pdee0627fad)" style="fill: none; stroke: #000000"/>
    <path clip-path="url(#pdee0627fad)" style="fill: none; stroke: #000000"/>
    <path clip-path="url(#pdee0627fad)" style="fill: none; stroke: #000000"/>
    <path clip-path="url(#pdee0627fad)" style="fill: none; stroke: #000000"/>
    <path clip-path="url(#pdee0627fad)" style="fill: none; stroke: #000000"/>
    <path clip-path="url(#pdee0627fad)" style="fill: none; stroke: #000000"/>
    <path clip-path="url(#pdee0627fad)" style="fill: none; stroke: #000000"/>
   </g>
   <g id="LineCollection_3">
    <path clip-path="url(#pdee0627fad)" style="fill: none; stroke: #1f77b4"/>
    <path clip-path="url(#pdee0627fad)" style="fill: none; stroke: #1f77b4"/>
    <path d="M 85.55733 241.090735 
L 85.55733 200.843847 
" clip-path="url(#pdee0627fad)" style="fill: none; stroke: #1f77b4"/>
    <path d="M 87.332784 192.359578 
L 87.332784 152.132105 
" clip-path="url(#pdee0627fad)" style="fill: none; stroke: #1f77b4"/>
    <path d="M 89.108239 151.073998 
L 89.108239 115.059538 
" clip-path="url(#pdee0627fad)" style="fill: none; stroke: #1f77b4"/>
    <path d="M 90.883693 124.601914 
L 90.883693 90.703667 
" clip-path="url(#pdee0627fad)" style="fill: none; stroke: #1f77b4"/>
    <path d="M 92.659148 110.827111 
L 92.659148 85.413133 
" clip-path="url(#pdee0627fad)" style="fill: none; stroke: #1f77b4"/>
    <path d="M 94.434602 94.945801 
L 94.434602 75.880464 
" clip-path="url(#pdee0627fad)" style="fill: none; stroke: #1f77b4"/>
    <path d="M 96.210057 99.178229 
L 96.210057 80.112892 
" clip-path="url(#pdee0627fad)" style="fill: none; stroke: #1f77b4"/>
    <path d="M 99.760966 105.526869 
L 99.760966 94.945801 
" clip-path="url(#pdee0627fad)" style="fill: none; stroke: #1f77b4"/>
    <path d="M 103.311875 114.001431 
L 103.311875 114.001431 
" clip-path="url(#pdee0627fad)" style="fill: none; stroke: #1f77b4"/>
    <path d="M 106.862784 128.824634 
L 106.862784 124.592206 
" clip-path="url(#pdee0627fad)" style="fill: none; stroke: #1f77b4"/>
    <path d="M 110.413693 140.483223 
L 110.413693 140.483223 
" clip-path="url(#pdee0627fad)" style="fill: none; stroke: #1f77b4"/>
    <path d="M 113.964602 158.490453 
L 113.964602 150.006184 
" clip-path="url(#pdee0627fad)" style="fill: none; stroke: #1f77b4"/>
    <path clip-path="url(#pdee0627fad)" style="fill: none; stroke: #1f77b4"/>
    <path clip-path="url(#pdee0627fad)" style="fill: none; stroke: #1f77b4"/>
    <path clip-path="url(#pdee0627fad)" style="fill: none; stroke: #1f77b4"/>
    <path clip-path="url(#pdee0627fad)" style="fill: none; stroke: #1f77b4"/>
    <path clip-path="url(#pdee0627fad)" style="fill: none; stroke: #1f77b4"/>
    <path clip-path="url(#pdee0627fad)" style="fill: none; stroke: #1f77b4"/>
   </g>
   <g id="LineCollection_4">
    <path clip-path="url(#pdee0627fad)" style="fill: none; stroke: #1f77b4"/>
    <path clip-path="url(#pdee0627fad)" style="fill: none; stroke: #1f77b4"/>
    <path d="M 85.55733 219.899477 
L 85.55733 190.253072 
" clip-path="url(#pdee0627fad)" style="fill: none; stroke: #1f77b4"/>
    <path d="M 87.332784 163.780987 
L 87.332784 123.5341 
" clip-path="url(#pdee0627fad)" style="fill: none; stroke: #1f77b4"/>
    <path d="M 89.108239 114.001431 
L 89.108239 82.238812 
" clip-path="url(#pdee0627fad)" style="fill: none; stroke: #1f77b4"/>
    <path d="M 90.883693 94.936094 
L 90.883693 65.289689 
" clip-path="url(#pdee0627fad)" style="fill: none; stroke: #1f77b4"/>
    <path d="M 92.659148 77.986971 
L 92.659148 58.941048 
" clip-path="url(#pdee0627fad)" style="fill: none; stroke: #1f77b4"/>
    <path d="M 94.434602 82.238812 
L 94.434602 67.405903 
" clip-path="url(#pdee0627fad)" style="fill: none; stroke: #1f77b4"/>
    <path d="M 96.210057 89.655267 
L 96.210057 72.706144 
" clip-path="url(#pdee0627fad)" style="fill: none; stroke: #1f77b4"/>
    <path clip-path="url(#pdee0627fad)" style="fill: none; stroke: #1f77b4"/>
    <path clip-path="url(#pdee0627fad)" style="fill: none; stroke: #1f77b4"/>
    <path clip-path="url(#pdee0627fad)" style="fill: none; stroke: #1f77b4"/>
    <path clip-path="url(#pdee0627fad)" style="fill: none; stroke: #1f77b4"/>
    <path clip-path="url(#pdee0627fad)" style="fill: none; stroke: #1f77b4"/>
    <path clip-path="url(#pdee0627fad)" style="fill: none; stroke: #1f77b4"/>
    <path clip-path="url(#pdee0627fad)" style="fill: none; stroke: #1f77b4"/>
    <path clip-path="url(#pdee0627fad)" style="fill: none; stroke: #1f77b4"/>
    <path clip-path="url(#pdee0627fad)" style="fill: none; stroke: #1f77b4"/>
    <path clip-path="url(#pdee0627fad)" style="fill: none; stroke: #1f77b4"/>
    <path clip-path="url(#pdee0627fad)" style="fill: none; stroke: #1f77b4"/>
   </g>
   <g id="line2d_12">
    <path d="M 82.00642 307.8 
L 82.716602 298.16655 
L 83.426784 274.899859 
L 85.55733 196.327466 
L 86.977693 157.177153 
L 87.687875 142.327804 
L 88.398057 130.2894 
L 89.108239 120.749899 
L 89.81842 113.403255 
L 90.528602 107.965037 
L 91.238784 104.178002 
L 91.948966 101.812916 
L 92.659148 100.667209 
L 93.36933 100.562775 
L 94.079511 101.343505 
L 94.789693 102.872878 
L 95.499875 105.031693 
L 96.210057 107.716025 
L 97.63042 114.311082 
L 99.050784 122.067309 
L 101.891511 139.399677 
L 107.572966 174.695691 
L 110.413693 190.782805 
L 113.25442 205.366471 
L 115.384966 215.280816 
L 117.515511 224.337675 
L 119.646057 232.577171 
L 121.776602 240.050246 
L 123.907148 246.812832 
L 126.037693 252.922104 
L 128.168239 258.434161 
L 130.298784 263.402624 
L 132.42933 267.877874 
L 134.559875 271.906679 
L 136.69042 275.532082 
L 138.820966 278.793463 
L 140.951511 281.726681 
L 143.082057 284.364288 
L 145.922784 287.471781 
L 148.763511 290.167938 
L 151.604239 292.506923 
L 154.444966 294.535884 
L 157.285693 296.295811 
L 160.12642 297.822316 
L 163.67733 299.44891 
L 167.228239 300.810375 
L 170.779148 301.949906 
L 175.040239 303.074887 
L 179.30133 303.98354 
L 184.272602 304.825254 
L 189.954057 305.562412 
L 196.345693 306.175756 
L 204.157693 306.701994 
L 214.100239 307.132914 
L 226.883511 307.448502 
L 245.348239 307.660686 
L 277.30642 307.771923 
L 377.442057 307.799814 
L 437.09733 307.799991 
L 437.09733 307.799991 
" clip-path="url(#pdee0627fad)" style="fill: none; stroke: #000000; stroke-width: 2; stroke-linecap: square"/>
   </g>
   <g id="line2d_13">
    <path d="M 82.00642 307.8 
L 83.781875 260.748224 
L 85.55733 155.636477 
L 87.332784 105.303599 
L 89.108239 94.35365 
L 90.883693 94.39248 
L 92.659148 99.867454 
L 94.434602 107.575131 
L 96.210057 114.15675 
L 99.760966 132.814376 
L 103.311875 143.78374 
L 106.862784 158.05362 
L 110.413693 173.41073 
L 113.964602 185.496445 
L 117.515511 198.659682 
L 124.61733 219.540303 
L 138.820966 250.322474 
L 167.228239 279.075798 
L 252.450057 300.694182 
L 422.893693 307.8 
" clip-path="url(#pdee0627fad)" style="fill: none; stroke-dasharray: 3.7,1.6; stroke-dashoffset: 0; stroke: #000000"/>
    <defs>
     <path id="m4735bd46e1" d="M -3 3 
L 3 3 
L 3 -3 
L -3 -3 
z
" style="stroke: #000000; stroke-linejoin: miter"/>
    </defs>
    <g clip-path="url(#pdee0627fad)">
     <use xlink:href="#m4735bd46e1" x="82.00642" y="307.8" style="stroke: #000000; stroke-linejoin: miter"/>
     <use xlink:href="#m4735bd46e1" x="83.781875" y="260.748224" style="stroke: #000000; stroke-linejoin: miter"/>
     <use xlink:href="#m4735bd46e1" x="85.55733" y="155.636477" style="stroke: #000000; stroke-linejoin: miter"/>
     <use xlink:href="#m4735bd46e1" x="87.332784" y="105.303599" style="stroke: #000000; stroke-linejoin: miter"/>
     <use xlink:href="#m4735bd46e1" x="89.108239" y="94.35365" style="stroke: #000000; stroke-linejoin: miter"/>
     <use xlink:href="#m4735bd46e1" x="90.883693" y="94.39248" style="stroke: #000000; stroke-linejoin: miter"/>
     <use xlink:href="#m4735bd46e1" x="92.659148" y="99.867454" style="stroke: #000000; stroke-linejoin: miter"/>
     <use xlink:href="#m4735bd46e1" x="94.434602" y="107.575131" style="stroke: #000000; stroke-linejoin: miter"/>
     <use xlink:href="#m4735bd46e1" x="96.210057" y="114.15675" style="stroke: #000000; stroke-linejoin: miter"/>
     <use xlink:href="#m4735bd46e1" x="99.760966" y="132.814376" style="stroke: #000000; stroke-linejoin: miter"/>
     <use xlink:href="#m4735bd46e1" x="103.311875" y="143.78374" style="stroke: #000000; stroke-linejoin: miter"/>
     <use xlink:href="#m4735bd46e1" x="106.862784" y="158.05362" style="stroke: #000000; stroke-linejoin: miter"/>
     <use xlink:href="#m4735bd46e1" x="110.413693" y="173.41073" style="stroke: #000000; stroke-linejoin: miter"/>
     <use xlink:href="#m4735bd46e1" x="113.964602" y="185.496445" style="stroke: #000000; stroke-linejoin: miter"/>
     <use xlink:href="#m4735bd46e1" x="117.515511" y="198.659682" style="stroke: #000000; stroke-linejoin: miter"/>
     <use xlink:href="#m4735bd46e1" x="124.61733" y="219.540303" style="stroke: #000000; stroke-linejoin: miter"/>
     <use xlink:href="#m4735bd46e1" x="138.820966" y="250.322474" style="stroke: #000000; stroke-linejoin: miter"/>
     <use xlink:href="#m4735bd46e1" x="167.228239" y="279.075798" style="stroke: #000000; stroke-linejoin: miter"/>
     <use xlink:href="#m4735bd46e1" x="252.450057" y="300.694182" style="stroke: #000000; stroke-linejoin: miter"/>
     <use xlink:href="#m4735bd46e1" x="422.893693" y="307.8" style="stroke: #000000; stroke-linejoin: miter"/>
    </g>
   </g>
   <g id="line2d_14">
    <path d="M 82.00642 307.8 
L 82.716602 298.16655 
L 83.426784 274.899859 
L 85.55733 196.327466 
L 86.977693 157.177153 
L 87.687875 142.327804 
L 88.398057 130.2894 
L 89.108239 120.749899 
L 89.81842 113.403255 
L 90.528602 107.965037 
L 91.238784 104.178002 
L 91.948966 101.812916 
L 92.659148 100.667209 
L 93.36933 100.562775 
L 94.079511 101.343505 
L 94.789693 102.872878 
L 95.499875 105.031693 
L 96.210057 107.716025 
L 97.63042 114.311082 
L 99.050784 122.067309 
L 101.891511 139.399677 
L 107.572966 174.695691 
L 110.413693 190.782805 
L 113.25442 205.366471 
L 115.384966 215.280816 
L 117.515511 224.337675 
L 119.646057 232.577171 
L 121.776602 240.050246 
L 123.907148 246.812832 
L 126.037693 252.922104 
L 128.168239 258.434161 
L 130.298784 263.402624 
L 132.42933 267.877874 
L 134.559875 271.906679 
L 136.69042 275.532082 
L 138.820966 278.793463 
L 140.951511 281.726681 
L 143.082057 284.364288 
L 145.922784 287.471781 
L 148.763511 290.167938 
L 151.604239 292.506923 
L 154.444966 294.535884 
L 157.285693 296.295811 
L 160.12642 297.822316 
L 163.67733 299.44891 
L 167.228239 300.810375 
L 170.779148 301.949906 
L 175.040239 303.074887 
L 179.30133 303.98354 
L 184.272602 304.825254 
L 189.954057 305.562412 
L 196.345693 306.175756 
L 204.157693 306.701994 
L 214.100239 307.132914 
L 226.883511 307.448502 
L 245.348239 307.660686 
L 277.30642 307.771923 
L 377.442057 307.799814 
L 437.09733 307.799991 
L 437.09733 307.799991 
" clip-path="url(#pdee0627fad)" style="fill: none; stroke: #000000; stroke-width: 2; stroke-linecap: square"/>
   </g>
   <g id="line2d_15">
    <path d="M 82.00642 307.8 
L 83.781875 230.101956 
L 85.55733 122.815752 
L 87.332784 89.965904 
L 89.108239 84.529759 
L 90.883693 90.024149 
L 92.659148 97.702704 
L 94.434602 113.040398 
L 96.210057 118.52508 
L 99.760966 141.560745 
L 103.311875 159.111727 
L 106.862784 170.100506 
L 110.413693 186.544845 
L 113.964602 199.708081 
L 117.515511 206.309115 
L 124.61733 223.908634 
L 138.820966 253.593869 
L 167.228239 276.872218 
L 252.450057 297.403373 
L 422.893693 307.8 
" clip-path="url(#pdee0627fad)" style="fill: none; stroke-dasharray: 3.7,1.6; stroke-dashoffset: 0; stroke: #000000"/>
    <g clip-path="url(#pdee0627fad)">
     <use xlink:href="#m4735bd46e1" x="82.00642" y="307.8" style="stroke: #000000; stroke-linejoin: miter"/>
     <use xlink:href="#m4735bd46e1" x="83.781875" y="230.101956" style="stroke: #000000; stroke-linejoin: miter"/>
     <use xlink:href="#m4735bd46e1" x="85.55733" y="122.815752" style="stroke: #000000; stroke-linejoin: miter"/>
     <use xlink:href="#m4735bd46e1" x="87.332784" y="89.965904" style="stroke: #000000; stroke-linejoin: miter"/>
     <use xlink:href="#m4735bd46e1" x="89.108239" y="84.529759" style="stroke: #000000; stroke-linejoin: miter"/>
     <use xlink:href="#m4735bd46e1" x="90.883693" y="90.024149" style="stroke: #000000; stroke-linejoin: miter"/>
     <use xlink:href="#m4735bd46e1" x="92.659148" y="97.702704" style="stroke: #000000; stroke-linejoin: miter"/>
     <use xlink:href="#m4735bd46e1" x="94.434602" y="113.040398" style="stroke: #000000; stroke-linejoin: miter"/>
     <use xlink:href="#m4735bd46e1" x="96.210057" y="118.52508" style="stroke: #000000; stroke-linejoin: miter"/>
     <use xlink:href="#m4735bd46e1" x="99.760966" y="141.560745" style="stroke: #000000; stroke-linejoin: miter"/>
     <use xlink:href="#m4735bd46e1" x="103.311875" y="159.111727" style="stroke: #000000; stroke-linejoin: miter"/>
     <use xlink:href="#m4735bd46e1" x="106.862784" y="170.100506" style="stroke: #000000; stroke-linejoin: miter"/>
     <use xlink:href="#m4735bd46e1" x="110.413693" y="186.544845" style="stroke: #000000; stroke-linejoin: miter"/>
     <use xlink:href="#m4735bd46e1" x="113.964602" y="199.708081" style="stroke: #000000; stroke-linejoin: miter"/>
     <use xlink:href="#m4735bd46e1" x="117.515511" y="206.309115" style="stroke: #000000; stroke-linejoin: miter"/>
     <use xlink:href="#m4735bd46e1" x="124.61733" y="223.908634" style="stroke: #000000; stroke-linejoin: miter"/>
     <use xlink:href="#m4735bd46e1" x="138.820966" y="253.593869" style="stroke: #000000; stroke-linejoin: miter"/>
     <use xlink:href="#m4735bd46e1" x="167.228239" y="276.872218" style="stroke: #000000; stroke-linejoin: miter"/>
     <use xlink:href="#m4735bd46e1" x="252.450057" y="297.403373" style="stroke: #000000; stroke-linejoin: miter"/>
     <use xlink:href="#m4735bd46e1" x="422.893693" y="307.8" style="stroke: #000000; stroke-linejoin: miter"/>
    </g>
   </g>
   <g id="line2d_16">
    <path d="M 82.00642 307.8 
L 82.716602 296.085746 
L 83.426784 267.793502 
L 85.55733 172.249649 
L 86.977693 124.642957 
L 87.687875 106.586182 
L 88.398057 91.947509 
L 89.108239 80.347498 
L 89.81842 71.413996 
L 90.528602 64.801134 
L 91.238784 60.196108 
L 91.948966 57.320169 
L 92.659148 55.926993 
L 93.36933 55.8 
L 94.079511 56.749367 
L 94.789693 58.60908 
L 95.499875 61.234195 
L 96.210057 64.498336 
L 97.63042 72.517911 
L 99.050784 81.949465 
L 101.891511 103.025586 
L 107.572966 145.94546 
L 110.413693 165.507354 
L 113.25442 183.241059 
L 115.384966 195.29688 
L 117.515511 206.310001 
L 119.646057 216.329209 
L 121.776602 225.416452 
L 123.907148 233.639741 
L 126.037693 241.068602 
L 128.168239 247.77125 
L 130.298784 253.812891 
L 132.42933 259.254785 
L 134.559875 264.153802 
L 136.69042 268.562284 
L 138.820966 272.528116 
L 140.951511 276.094903 
L 143.082057 279.302226 
L 145.212602 282.185924 
L 147.343148 284.778385 
L 150.183875 287.832072 
L 153.024602 290.481104 
L 155.86533 292.778942 
L 158.706057 294.772051 
L 161.546784 296.500784 
L 164.387511 298.000177 
L 167.93842 299.597834 
L 171.48933 300.935052 
L 175.040239 302.054273 
L 179.30133 303.159194 
L 184.272602 304.182715 
L 189.243875 304.980503 
L 194.92533 305.679191 
L 202.027148 306.314359 
L 210.54933 306.830811 
L 221.202057 307.231767 
L 235.405693 307.521163 
L 256.711148 307.704151 
L 297.901693 307.787839 
L 437.09733 307.799989 
L 437.09733 307.799989 
" clip-path="url(#pdee0627fad)" style="fill: none; stroke: #1f77b4; stroke-width: 2; stroke-linecap: square"/>
   </g>
   <g id="line2d_17">
    <path d="M 82.00642 307.8 
L 83.781875 303.567573 
L 85.55733 220.967291 
L 87.332784 172.245842 
L 89.108239 133.066768 
L 90.883693 107.65279 
L 92.659148 98.120122 
L 94.434602 85.413133 
L 96.210057 89.64556 
L 99.760966 100.236335 
L 103.311875 114.001431 
L 106.862784 126.70842 
L 110.413693 140.483223 
L 113.964602 154.248319 
L 117.515511 178.60419 
L 124.61733 202.960061 
L 138.820966 238.964814 
L 167.228239 274.969567 
L 252.450057 299.325438 
L 422.893693 307.8 
" clip-path="url(#pdee0627fad)" style="fill: none; stroke-dasharray: 3.7,1.6; stroke-dashoffset: 0; stroke: #1f77b4"/>
    <defs>
     <path id="m2f71bf13c1" d="M -3 3 
L 3 3 
L 3 -3 
L -3 -3 
z
" style="stroke: #000000; stroke-linejoin: miter"/>
    </defs>
    <g clip-path="url(#pdee0627fad)">
     <use xlink:href="#m2f71bf13c1" x="82.00642" y="307.8" style="fill: #1f77b4; stroke: #000000; stroke-linejoin: miter"/>
     <use xlink:href="#m2f71bf13c1" x="83.781875" y="303.567573" style="fill: #1f77b4; stroke: #000000; stroke-linejoin: miter"/>
     <use xlink:href="#m2f71bf13c1" x="85.55733" y="220.967291" style="fill: #1f77b4; stroke: #000000; stroke-linejoin: miter"/>
     <use xlink:href="#m2f71bf13c1" x="87.332784" y="172.245842" style="fill: #1f77b4; stroke: #000000; stroke-linejoin: miter"/>
     <use xlink:href="#m2f71bf13c1" x="89.108239" y="133.066768" style="fill: #1f77b4; stroke: #000000; stroke-linejoin: miter"/>
     <use xlink:href="#m2f71bf13c1" x="90.883693" y="107.65279" style="fill: #1f77b4; stroke: #000000; stroke-linejoin: miter"/>
     <use xlink:href="#m2f71bf13c1" x="92.659148" y="98.120122" style="fill: #1f77b4; stroke: #000000; stroke-linejoin: miter"/>
     <use xlink:href="#m2f71bf13c1" x="94.434602" y="85.413133" style="fill: #1f77b4; stroke: #000000; stroke-linejoin: miter"/>
     <use xlink:href="#m2f71bf13c1" x="96.210057" y="89.64556" style="fill: #1f77b4; stroke: #000000; stroke-linejoin: miter"/>
     <use xlink:href="#m2f71bf13c1" x="99.760966" y="100.236335" style="fill: #1f77b4; stroke: #000000; stroke-linejoin: miter"/>
     <use xlink:href="#m2f71bf13c1" x="103.311875" y="114.001431" style="fill: #1f77b4; stroke: #000000; stroke-linejoin: miter"/>
     <use xlink:href="#m2f71bf13c1" x="106.862784" y="126.70842" style="fill: #1f77b4; stroke: #000000; stroke-linejoin: miter"/>
     <use xlink:href="#m2f71bf13c1" x="110.413693" y="140.483223" style="fill: #1f77b4; stroke: #000000; stroke-linejoin: miter"/>
     <use xlink:href="#m2f71bf13c1" x="113.964602" y="154.248319" style="fill: #1f77b4; stroke: #000000; stroke-linejoin: miter"/>
     <use xlink:href="#m2f71bf13c1" x="117.515511" y="178.60419" style="fill: #1f77b4; stroke: #000000; stroke-linejoin: miter"/>
     <use xlink:href="#m2f71bf13c1" x="124.61733" y="202.960061" style="fill: #1f77b4; stroke: #000000; stroke-linejoin: miter"/>
     <use xlink:href="#m2f71bf13c1" x="138.820966" y="238.964814" style="fill: #1f77b4; stroke: #000000; stroke-linejoin: miter"/>
     <use xlink:href="#m2f71bf13c1" x="167.228239" y="274.969567" style="fill: #1f77b4; stroke: #000000; stroke-linejoin: miter"/>
     <use xlink:href="#m2f71bf13c1" x="252.450057" y="299.325438" style="fill: #1f77b4; stroke: #000000; stroke-linejoin: miter"/>
     <use xlink:href="#m2f71bf13c1" x="422.893693" y="307.8" style="fill: #1f77b4; stroke: #000000; stroke-linejoin: miter"/>
    </g>
   </g>
   <g id="line2d_18">
    <path d="M 82.00642 307.8 
L 82.716602 296.085746 
L 83.426784 267.793502 
L 85.55733 172.249649 
L 86.977693 124.642957 
L 87.687875 106.586182 
L 88.398057 91.947509 
L 89.108239 80.347498 
L 89.81842 71.413996 
L 90.528602 64.801134 
L 91.238784 60.196108 
L 91.948966 57.320169 
L 92.659148 55.926993 
L 93.36933 55.8 
L 94.079511 56.749367 
L 94.789693 58.60908 
L 95.499875 61.234195 
L 96.210057 64.498336 
L 97.63042 72.517911 
L 99.050784 81.949465 
L 101.891511 103.025586 
L 107.572966 145.94546 
L 110.413693 165.507354 
L 113.25442 183.241059 
L 115.384966 195.29688 
L 117.515511 206.310001 
L 119.646057 216.329209 
L 121.776602 225.416452 
L 123.907148 233.639741 
L 126.037693 241.068602 
L 128.168239 247.77125 
L 130.298784 253.812891 
L 132.42933 259.254785 
L 134.559875 264.153802 
L 136.69042 268.562284 
L 138.820966 272.528116 
L 140.951511 276.094903 
L 143.082057 279.302226 
L 145.212602 282.185924 
L 147.343148 284.778385 
L 150.183875 287.832072 
L 153.024602 290.481104 
L 155.86533 292.778942 
L 158.706057 294.772051 
L 161.546784 296.500784 
L 164.387511 298.000177 
L 167.93842 299.597834 
L 171.48933 300.935052 
L 175.040239 302.054273 
L 179.30133 303.159194 
L 184.272602 304.182715 
L 189.243875 304.980503 
L 194.92533 305.679191 
L 202.027148 306.314359 
L 210.54933 306.830811 
L 221.202057 307.231767 
L 235.405693 307.521163 
L 256.711148 307.704151 
L 297.901693 307.787839 
L 437.09733 307.799989 
L 437.09733 307.799989 
" clip-path="url(#pdee0627fad)" style="fill: none; stroke: #1f77b4; stroke-width: 2; stroke-linecap: square"/>
   </g>
   <g id="line2d_19">
    <path d="M 82.00642 307.8 
L 83.781875 296.151118 
L 85.55733 205.076274 
L 87.332784 143.657543 
L 89.108239 98.120122 
L 90.883693 80.112892 
L 92.659148 68.464009 
L 94.434602 74.822358 
L 96.210057 81.180706 
L 99.760966 96.003908 
L 103.311875 111.885217 
L 106.862784 129.892448 
L 110.413693 144.71565 
L 113.964602 163.780987 
L 117.515511 184.952831 
L 124.61733 209.318409 
L 138.820966 243.197241 
L 167.228239 274.969567 
L 252.450057 299.325438 
L 422.893693 307.8 
" clip-path="url(#pdee0627fad)" style="fill: none; stroke-dasharray: 3.7,1.6; stroke-dashoffset: 0; stroke: #1f77b4"/>
    <g clip-path="url(#pdee0627fad)">
     <use xlink:href="#m2f71bf13c1" x="82.00642" y="307.8" style="fill: #1f77b4; stroke: #000000; stroke-linejoin: miter"/>
     <use xlink:href="#m2f71bf13c1" x="83.781875" y="296.151118" style="fill: #1f77b4; stroke: #000000; stroke-linejoin: miter"/>
     <use xlink:href="#m2f71bf13c1" x="85.55733" y="205.076274" style="fill: #1f77b4; stroke: #000000; stroke-linejoin: miter"/>
     <use xlink:href="#m2f71bf13c1" x="87.332784" y="143.657543" style="fill: #1f77b4; stroke: #000000; stroke-linejoin: miter"/>
     <use xlink:href="#m2f71bf13c1" x="89.108239" y="98.120122" style="fill: #1f77b4; stroke: #000000; stroke-linejoin: miter"/>
     <use xlink:href="#m2f71bf13c1" x="90.883693" y="80.112892" style="fill: #1f77b4; stroke: #000000; stroke-linejoin: miter"/>
     <use xlink:href="#m2f71bf13c1" x="92.659148" y="68.464009" style="fill: #1f77b4; stroke: #000000; stroke-linejoin: miter"/>
     <use xlink:href="#m2f71bf13c1" x="94.434602" y="74.822358" style="fill: #1f77b4; stroke: #000000; stroke-linejoin: miter"/>
     <use xlink:href="#m2f71bf13c1" x="96.210057" y="81.180706" style="fill: #1f77b4; stroke: #000000; stroke-linejoin: miter"/>
     <use xlink:href="#m2f71bf13c1" x="99.760966" y="96.003908" style="fill: #1f77b4; stroke: #000000; stroke-linejoin: miter"/>
     <use xlink:href="#m2f71bf13c1" x="103.311875" y="111.885217" style="fill: #1f77b4; stroke: #000000; stroke-linejoin: miter"/>
     <use xlink:href="#m2f71bf13c1" x="106.862784" y="129.892448" style="fill: #1f77b4; stroke: #000000; stroke-linejoin: miter"/>
     <use xlink:href="#m2f71bf13c1" x="110.413693" y="144.71565" style="fill: #1f77b4; stroke: #000000; stroke-linejoin: miter"/>
     <use xlink:href="#m2f71bf13c1" x="113.964602" y="163.780987" style="fill: #1f77b4; stroke: #000000; stroke-linejoin: miter"/>
     <use xlink:href="#m2f71bf13c1" x="117.515511" y="184.952831" style="fill: #1f77b4; stroke: #000000; stroke-linejoin: miter"/>
     <use xlink:href="#m2f71bf13c1" x="124.61733" y="209.318409" style="fill: #1f77b4; stroke: #000000; stroke-linejoin: miter"/>
     <use xlink:href="#m2f71bf13c1" x="138.820966" y="243.197241" style="fill: #1f77b4; stroke: #000000; stroke-linejoin: miter"/>
     <use xlink:href="#m2f71bf13c1" x="167.228239" y="274.969567" style="fill: #1f77b4; stroke: #000000; stroke-linejoin: miter"/>
     <use xlink:href="#m2f71bf13c1" x="252.450057" y="299.325438" style="fill: #1f77b4; stroke: #000000; stroke-linejoin: miter"/>
     <use xlink:href="#m2f71bf13c1" x="422.893693" y="307.8" style="fill: #1f77b4; stroke: #000000; stroke-linejoin: miter"/>
    </g>
   </g>
   <g id="patch_3">
    <path d="M 64.251875 320.4 
L 64.251875 43.2 
" style="fill: none; stroke: #000000; stroke-width: 0.8; stroke-linejoin: miter; stroke-linecap: square"/>
   </g>
   <g id="patch_4">
    <path d="M 454.851875 320.4 
L 454.851875 43.2 
" style="fill: none; stroke: #000000; stroke-width: 0.8; stroke-linejoin: miter; stroke-linecap: square"/>
   </g>
   <g id="patch_5">
    <path d="M 64.251875 320.4 
L 454.851875 320.4 
" style="fill: none; stroke: #000000; stroke-width: 0.8; stroke-linejoin: miter; stroke-linecap: square"/>
   </g>
   <g id="patch_6">
    <path d="M 64.251875 43.2 
L 454.851875 43.2 
" style="fill: none; stroke: #000000; stroke-width: 0.8; stroke-linejoin: miter; stroke-linecap: square"/>
   </g>
   <g id="legend_1">
    <g id="patch_7">
     <path d="M 316.772188 168.625 
L 447.851875 168.625 
Q 449.851875 168.625 449.851875 166.625 
L 449.851875 50.2 
Q 449.851875 48.2 447.851875 48.2 
L 316.772188 48.2 
Q 314.772188 48.2 314.772188 50.2 
L 314.772188 166.625 
Q 314.772188 168.625 316.772188 168.625 
z
" style="fill: #ffffff; opacity: 0.8; stroke: #cccccc; stroke-linejoin: miter"/>
    </g>
    <g id="line2d_20">
     <path d="M 318.772188 56.298437 
L 338.772188 56.298437 
" style="fill: none; stroke: #000000; stroke-width: 2; stroke-linecap: square"/>
    </g>
    <g id="line2d_21"/>
    <g id="text_14">
     <!-- fastedR -->
     <g transform="translate(346.772188 59.798437) scale(0.1 -0.1)">
      <defs>
       <path id="DejaVuSans-66" d="M 2375 4863 
L 2375 4384 
L 1825 4384 
Q 1516 4384 1395 4259 
Q 1275 4134 1275 3809 
L 1275 3500 
L 2222 3500 
L 2222 3053 
L 1275 3053 
L 1275 0 
L 697 0 
L 697 3053 
L 147 3053 
L 147 3500 
L 697 3500 
L 697 3744 
Q 697 4328 969 4595 
Q 1241 4863 1831 4863 
L 2375 4863 
z
" transform="scale(0.015625)"/>
       <path id="DejaVuSans-61" d="M 2194 1759 
Q 1497 1759 1228 1600 
Q 959 1441 959 1056 
Q 959 750 1161 570 
Q 1363 391 1709 391 
Q 2188 391 2477 730 
Q 2766 1069 2766 1631 
L 2766 1759 
L 2194 1759 
z
M 3341 1997 
L 3341 0 
L 2766 0 
L 2766 531 
Q 2569 213 2275 61 
Q 1981 -91 1556 -91 
Q 1019 -91 701 211 
Q 384 513 384 1019 
Q 384 1609 779 1909 
Q 1175 2209 1959 2209 
L 2766 2209 
L 2766 2266 
Q 2766 2663 2505 2880 
Q 2244 3097 1772 3097 
Q 1472 3097 1187 3025 
Q 903 2953 641 2809 
L 641 3341 
Q 956 3463 1253 3523 
Q 1550 3584 1831 3584 
Q 2591 3584 2966 3190 
Q 3341 2797 3341 1997 
z
" transform="scale(0.015625)"/>
       <path id="DejaVuSans-73" d="M 2834 3397 
L 2834 2853 
Q 2591 2978 2328 3040 
Q 2066 3103 1784 3103 
Q 1356 3103 1142 2972 
Q 928 2841 928 2578 
Q 928 2378 1081 2264 
Q 1234 2150 1697 2047 
L 1894 2003 
Q 2506 1872 2764 1633 
Q 3022 1394 3022 966 
Q 3022 478 2636 193 
Q 2250 -91 1575 -91 
Q 1294 -91 989 -36 
Q 684 19 347 128 
L 347 722 
Q 666 556 975 473 
Q 1284 391 1588 391 
Q 1994 391 2212 530 
Q 2431 669 2431 922 
Q 2431 1156 2273 1281 
Q 2116 1406 1581 1522 
L 1381 1569 
Q 847 1681 609 1914 
Q 372 2147 372 2553 
Q 372 3047 722 3315 
Q 1072 3584 1716 3584 
Q 2034 3584 2315 3537 
Q 2597 3491 2834 3397 
z
" transform="scale(0.015625)"/>
       <path id="DejaVuSans-74" d="M 1172 4494 
L 1172 3500 
L 2356 3500 
L 2356 3053 
L 1172 3053 
L 1172 1153 
Q 1172 725 1289 603 
Q 1406 481 1766 481 
L 2356 481 
L 2356 0 
L 1766 0 
Q 1100 0 847 248 
Q 594 497 594 1153 
L 594 3053 
L 172 3053 
L 172 3500 
L 594 3500 
L 594 4494 
L 1172 4494 
z
" transform="scale(0.015625)"/>
       <path id="DejaVuSans-65" d="M 3597 1894 
L 3597 1613 
L 953 1613 
Q 991 1019 1311 708 
Q 1631 397 2203 397 
Q 2534 397 2845 478 
Q 3156 559 3463 722 
L 3463 178 
Q 3153 47 2828 -22 
Q 2503 -91 2169 -91 
Q 1331 -91 842 396 
Q 353 884 353 1716 
Q 353 2575 817 3079 
Q 1281 3584 2069 3584 
Q 2775 3584 3186 3129 
Q 3597 2675 3597 1894 
z
M 3022 2063 
Q 3016 2534 2758 2815 
Q 2500 3097 2075 3097 
Q 1594 3097 1305 2825 
Q 1016 2553 972 2059 
L 3022 2063 
z
" transform="scale(0.015625)"/>
       <path id="DejaVuSans-64" d="M 2906 2969 
L 2906 4863 
L 3481 4863 
L 3481 0 
L 2906 0 
L 2906 525 
Q 2725 213 2448 61 
Q 2172 -91 1784 -91 
Q 1150 -91 751 415 
Q 353 922 353 1747 
Q 353 2572 751 3078 
Q 1150 3584 1784 3584 
Q 2172 3584 2448 3432 
Q 2725 3281 2906 2969 
z
M 947 1747 
Q 947 1113 1208 752 
Q 1469 391 1925 391 
Q 2381 391 2643 752 
Q 2906 1113 2906 1747 
Q 2906 2381 2643 2742 
Q 2381 3103 1925 3103 
Q 1469 3103 1208 2742 
Q 947 2381 947 1747 
z
" transform="scale(0.015625)"/>
       <path id="DejaVuSans-52" d="M 2841 2188 
Q 3044 2119 3236 1894 
Q 3428 1669 3622 1275 
L 4263 0 
L 3584 0 
L 2988 1197 
Q 2756 1666 2539 1819 
Q 2322 1972 1947 1972 
L 1259 1972 
L 1259 0 
L 628 0 
L 628 4666 
L 2053 4666 
Q 2853 4666 3247 4331 
Q 3641 3997 3641 3322 
Q 3641 2881 3436 2590 
Q 3231 2300 2841 2188 
z
M 1259 4147 
L 1259 2491 
L 2053 2491 
Q 2509 2491 2742 2702 
Q 2975 2913 2975 3322 
Q 2975 3731 2742 3939 
Q 2509 4147 2053 4147 
L 1259 4147 
z
" transform="scale(0.015625)"/>
      </defs>
      <use xlink:href="#DejaVuSans-66"/>
      <use xlink:href="#DejaVuSans-61" transform="translate(35.205078 0)"/>
      <use xlink:href="#DejaVuSans-73" transform="translate(96.484375 0)"/>
      <use xlink:href="#DejaVuSans-74" transform="translate(148.583984 0)"/>
      <use xlink:href="#DejaVuSans-65" transform="translate(187.792969 0)"/>
      <use xlink:href="#DejaVuSans-64" transform="translate(249.316406 0)"/>
      <use xlink:href="#DejaVuSans-52" transform="translate(312.792969 0)"/>
     </g>
    </g>
    <g id="LineCollection_5">
     <path d="M 328.772188 75.976562 
L 328.772188 65.976562 
" style="fill: none; stroke: #000000"/>
    </g>
    <g id="line2d_22">
     <path d="M 318.772188 70.976562 
L 338.772188 70.976562 
" style="fill: none; stroke-dasharray: 3.7,1.6; stroke-dashoffset: 0; stroke: #000000"/>
    </g>
    <g id="line2d_23">
     <g>
      <use xlink:href="#m4735bd46e1" x="328.772188" y="70.976562" style="stroke: #000000; stroke-linejoin: miter"/>
     </g>
    </g>
    <g id="text_15">
     <!-- fastedRSD (n=32) -->
     <g transform="translate(346.772188 74.476562) scale(0.1 -0.1)">
      <defs>
       <path id="DejaVuSans-b1" d="M 2944 4013 
L 2944 2803 
L 4684 2803 
L 4684 2272 
L 2944 2272 
L 2944 1063 
L 2419 1063 
L 2419 2272 
L 678 2272 
L 678 2803 
L 2419 2803 
L 2419 4013 
L 2944 4013 
z
M 678 531 
L 4684 531 
L 4684 0 
L 678 0 
L 678 531 
z
" transform="scale(0.015625)"/>
       <path id="DejaVuSans-53" d="M 3425 4513 
L 3425 3897 
Q 3066 4069 2747 4153 
Q 2428 4238 2131 4238 
Q 1616 4238 1336 4038 
Q 1056 3838 1056 3469 
Q 1056 3159 1242 3001 
Q 1428 2844 1947 2747 
L 2328 2669 
Q 3034 2534 3370 2195 
Q 3706 1856 3706 1288 
Q 3706 609 3251 259 
Q 2797 -91 1919 -91 
Q 1588 -91 1214 -16 
Q 841 59 441 206 
L 441 856 
Q 825 641 1194 531 
Q 1563 422 1919 422 
Q 2459 422 2753 634 
Q 3047 847 3047 1241 
Q 3047 1584 2836 1778 
Q 2625 1972 2144 2069 
L 1759 2144 
Q 1053 2284 737 2584 
Q 422 2884 422 3419 
Q 422 4038 858 4394 
Q 1294 4750 2059 4750 
Q 2388 4750 2728 4690 
Q 3069 4631 3425 4513 
z
" transform="scale(0.015625)"/>
       <path id="DejaVuSans-44" d="M 1259 4147 
L 1259 519 
L 2022 519 
Q 2988 519 3436 956 
Q 3884 1394 3884 2338 
Q 3884 3275 3436 3711 
Q 2988 4147 2022 4147 
L 1259 4147 
z
M 628 4666 
L 1925 4666 
Q 3281 4666 3915 4102 
Q 4550 3538 4550 2338 
Q 4550 1131 3912 565 
Q 3275 0 1925 0 
L 628 0 
L 628 4666 
z
" transform="scale(0.015625)"/>
       <path id="DejaVuSans-20" transform="scale(0.015625)"/>
       <path id="DejaVuSans-28" d="M 1984 4856 
Q 1566 4138 1362 3434 
Q 1159 2731 1159 2009 
Q 1159 1288 1364 580 
Q 1569 -128 1984 -844 
L 1484 -844 
Q 1016 -109 783 600 
Q 550 1309 550 2009 
Q 550 2706 781 3412 
Q 1013 4119 1484 4856 
L 1984 4856 
z
" transform="scale(0.015625)"/>
       <path id="DejaVuSans-6e" d="M 3513 2113 
L 3513 0 
L 2938 0 
L 2938 2094 
Q 2938 2591 2744 2837 
Q 2550 3084 2163 3084 
Q 1697 3084 1428 2787 
Q 1159 2491 1159 1978 
L 1159 0 
L 581 0 
L 581 3500 
L 1159 3500 
L 1159 2956 
Q 1366 3272 1645 3428 
Q 1925 3584 2291 3584 
Q 2894 3584 3203 3211 
Q 3513 2838 3513 2113 
z
" transform="scale(0.015625)"/>
       <path id="DejaVuSans-3d" d="M 678 2906 
L 4684 2906 
L 4684 2381 
L 678 2381 
L 678 2906 
z
M 678 1631 
L 4684 1631 
L 4684 1100 
L 678 1100 
L 678 1631 
z
" transform="scale(0.015625)"/>
       <path id="DejaVuSans-29" d="M 513 4856 
L 1013 4856 
Q 1481 4119 1714 3412 
Q 1947 2706 1947 2009 
Q 1947 1309 1714 600 
Q 1481 -109 1013 -844 
L 513 -844 
Q 928 -128 1133 580 
Q 1338 1288 1338 2009 
Q 1338 2731 1133 3434 
Q 928 4138 513 4856 
z
" transform="scale(0.015625)"/>
      </defs>
      <use xlink:href="#DejaVuSans-66"/>
      <use xlink:href="#DejaVuSans-61" transform="translate(35.205078 0)"/>
      <use xlink:href="#DejaVuSans-73" transform="translate(96.484375 0)"/>
      <use xlink:href="#DejaVuSans-74" transform="translate(148.583984 0)"/>
      <use xlink:href="#DejaVuSans-65" transform="translate(187.792969 0)"/>
      <use xlink:href="#DejaVuSans-64" transform="translate(249.316406 0)"/>
      <use xlink:href="#DejaVuSans-52" transform="translate(312.792969 0)"/>
      <use xlink:href="#DejaVuSans-b1" transform="translate(382.275391 0)"/>
      <use xlink:href="#DejaVuSans-53" transform="translate(466.064453 0)"/>
      <use xlink:href="#DejaVuSans-44" transform="translate(529.541016 0)"/>
      <use xlink:href="#DejaVuSans-20" transform="translate(606.542969 0)"/>
      <use xlink:href="#DejaVuSans-28" transform="translate(638.330078 0)"/>
      <use xlink:href="#DejaVuSans-6e" transform="translate(677.34375 0)"/>
      <use xlink:href="#DejaVuSans-3d" transform="translate(740.722656 0)"/>
      <use xlink:href="#DejaVuSans-33" transform="translate(824.511719 0)"/>
      <use xlink:href="#DejaVuSans-32" transform="translate(888.134766 0)"/>
      <use xlink:href="#DejaVuSans-29" transform="translate(951.757812 0)"/>
     </g>
    </g>
    <g id="line2d_24">
     <path d="M 318.772188 85.654687 
L 338.772188 85.654687 
" style="fill: none; stroke: #000000; stroke-width: 2; stroke-linecap: square"/>
    </g>
    <g id="line2d_25"/>
    <g id="text_16">
     <!-- fastedT -->
     <g transform="translate(346.772188 89.154687) scale(0.1 -0.1)">
      <defs>
       <path id="DejaVuSans-54" d="M -19 4666 
L 3928 4666 
L 3928 4134 
L 2272 4134 
L 2272 0 
L 1638 0 
L 1638 4134 
L -19 4134 
L -19 4666 
z
" transform="scale(0.015625)"/>
      </defs>
      <use xlink:href="#DejaVuSans-66"/>
      <use xlink:href="#DejaVuSans-61" transform="translate(35.205078 0)"/>
      <use xlink:href="#DejaVuSans-73" transform="translate(96.484375 0)"/>
      <use xlink:href="#DejaVuSans-74" transform="translate(148.583984 0)"/>
      <use xlink:href="#DejaVuSans-65" transform="translate(187.792969 0)"/>
      <use xlink:href="#DejaVuSans-64" transform="translate(249.316406 0)"/>
      <use xlink:href="#DejaVuSans-54" transform="translate(312.792969 0)"/>
     </g>
    </g>
    <g id="LineCollection_6">
     <path d="M 328.772188 105.332812 
L 328.772188 95.332812 
" style="fill: none; stroke: #000000"/>
    </g>
    <g id="line2d_26">
     <path d="M 318.772188 100.332812 
L 338.772188 100.332812 
" style="fill: none; stroke-dasharray: 3.7,1.6; stroke-dashoffset: 0; stroke: #000000"/>
    </g>
    <g id="line2d_27">
     <g>
      <use xlink:href="#m4735bd46e1" x="328.772188" y="100.332812" style="stroke: #000000; stroke-linejoin: miter"/>
     </g>
    </g>
    <g id="text_17">
     <!-- fastedTSD (n=32) -->
     <g transform="translate(346.772188 103.832812) scale(0.1 -0.1)">
      <use xlink:href="#DejaVuSans-66"/>
      <use xlink:href="#DejaVuSans-61" transform="translate(35.205078 0)"/>
      <use xlink:href="#DejaVuSans-73" transform="translate(96.484375 0)"/>
      <use xlink:href="#DejaVuSans-74" transform="translate(148.583984 0)"/>
      <use xlink:href="#DejaVuSans-65" transform="translate(187.792969 0)"/>
      <use xlink:href="#DejaVuSans-64" transform="translate(249.316406 0)"/>
      <use xlink:href="#DejaVuSans-54" transform="translate(312.792969 0)"/>
      <use xlink:href="#DejaVuSans-b1" transform="translate(373.876953 0)"/>
      <use xlink:href="#DejaVuSans-53" transform="translate(457.666016 0)"/>
      <use xlink:href="#DejaVuSans-44" transform="translate(521.142578 0)"/>
      <use xlink:href="#DejaVuSans-20" transform="translate(598.144531 0)"/>
      <use xlink:href="#DejaVuSans-28" transform="translate(629.931641 0)"/>
      <use xlink:href="#DejaVuSans-6e" transform="translate(668.945312 0)"/>
      <use xlink:href="#DejaVuSans-3d" transform="translate(732.324219 0)"/>
      <use xlink:href="#DejaVuSans-33" transform="translate(816.113281 0)"/>
      <use xlink:href="#DejaVuSans-32" transform="translate(879.736328 0)"/>
      <use xlink:href="#DejaVuSans-29" transform="translate(943.359375 0)"/>
     </g>
    </g>
    <g id="line2d_28">
     <path d="M 318.772188 115.010937 
L 338.772188 115.010937 
" style="fill: none; stroke: #1f77b4; stroke-width: 2; stroke-linecap: square"/>
    </g>
    <g id="line2d_29"/>
    <g id="text_18">
     <!-- fedR -->
     <g transform="translate(346.772188 118.510937) scale(0.1 -0.1)">
      <use xlink:href="#DejaVuSans-66"/>
      <use xlink:href="#DejaVuSans-65" transform="translate(35.205078 0)"/>
      <use xlink:href="#DejaVuSans-64" transform="translate(96.728516 0)"/>
      <use xlink:href="#DejaVuSans-52" transform="translate(160.205078 0)"/>
     </g>
    </g>
    <g id="LineCollection_7">
     <path d="M 328.772188 134.689062 
L 328.772188 124.689062 
" style="fill: none; stroke: #1f77b4"/>
    </g>
    <g id="line2d_30">
     <path d="M 318.772188 129.689062 
L 338.772188 129.689062 
" style="fill: none; stroke-dasharray: 3.7,1.6; stroke-dashoffset: 0; stroke: #1f77b4"/>
    </g>
    <g id="line2d_31">
     <g>
      <use xlink:href="#m2f71bf13c1" x="328.772188" y="129.689062" style="fill: #1f77b4; stroke: #000000; stroke-linejoin: miter"/>
     </g>
    </g>
    <g id="text_19">
     <!-- fedRSD (n=32) -->
     <g transform="translate(346.772188 133.189062) scale(0.1 -0.1)">
      <use xlink:href="#DejaVuSans-66"/>
      <use xlink:href="#DejaVuSans-65" transform="translate(35.205078 0)"/>
      <use xlink:href="#DejaVuSans-64" transform="translate(96.728516 0)"/>
      <use xlink:href="#DejaVuSans-52" transform="translate(160.205078 0)"/>
      <use xlink:href="#DejaVuSans-b1" transform="translate(229.6875 0)"/>
      <use xlink:href="#DejaVuSans-53" transform="translate(313.476562 0)"/>
      <use xlink:href="#DejaVuSans-44" transform="translate(376.953125 0)"/>
      <use xlink:href="#DejaVuSans-20" transform="translate(453.955078 0)"/>
      <use xlink:href="#DejaVuSans-28" transform="translate(485.742188 0)"/>
      <use xlink:href="#DejaVuSans-6e" transform="translate(524.755859 0)"/>
      <use xlink:href="#DejaVuSans-3d" transform="translate(588.134766 0)"/>
      <use xlink:href="#DejaVuSans-33" transform="translate(671.923828 0)"/>
      <use xlink:href="#DejaVuSans-32" transform="translate(735.546875 0)"/>
      <use xlink:href="#DejaVuSans-29" transform="translate(799.169922 0)"/>
     </g>
    </g>
    <g id="line2d_32">
     <path d="M 318.772188 144.367187 
L 338.772188 144.367187 
" style="fill: none; stroke: #1f77b4; stroke-width: 2; stroke-linecap: square"/>
    </g>
    <g id="line2d_33"/>
    <g id="text_20">
     <!-- fedT -->
     <g transform="translate(346.772188 147.867187) scale(0.1 -0.1)">
      <use xlink:href="#DejaVuSans-66"/>
      <use xlink:href="#DejaVuSans-65" transform="translate(35.205078 0)"/>
      <use xlink:href="#DejaVuSans-64" transform="translate(96.728516 0)"/>
      <use xlink:href="#DejaVuSans-54" transform="translate(160.205078 0)"/>
     </g>
    </g>
    <g id="LineCollection_8">
     <path d="M 328.772188 164.045312 
L 328.772188 154.045312 
" style="fill: none; stroke: #1f77b4"/>
    </g>
    <g id="line2d_34">
     <path d="M 318.772188 159.045312 
L 338.772188 159.045312 
" style="fill: none; stroke-dasharray: 3.7,1.6; stroke-dashoffset: 0; stroke: #1f77b4"/>
    </g>
    <g id="line2d_35">
     <g>
      <use xlink:href="#m2f71bf13c1" x="328.772188" y="159.045312" style="fill: #1f77b4; stroke: #000000; stroke-linejoin: miter"/>
     </g>
    </g>
    <g id="text_21">
     <!-- fedTSD (n=32) -->
     <g transform="translate(346.772188 162.545312) scale(0.1 -0.1)">
      <use xlink:href="#DejaVuSans-66"/>
      <use xlink:href="#DejaVuSans-65" transform="translate(35.205078 0)"/>
      <use xlink:href="#DejaVuSans-64" transform="translate(96.728516 0)"/>
      <use xlink:href="#DejaVuSans-54" transform="translate(160.205078 0)"/>
      <use xlink:href="#DejaVuSans-b1" transform="translate(221.289062 0)"/>
      <use xlink:href="#DejaVuSans-53" transform="translate(305.078125 0)"/>
      <use xlink:href="#DejaVuSans-44" transform="translate(368.554688 0)"/>
      <use xlink:href="#DejaVuSans-20" transform="translate(445.556641 0)"/>
      <use xlink:href="#DejaVuSans-28" transform="translate(477.34375 0)"/>
      <use xlink:href="#DejaVuSans-6e" transform="translate(516.357422 0)"/>
      <use xlink:href="#DejaVuSans-3d" transform="translate(579.736328 0)"/>
      <use xlink:href="#DejaVuSans-33" transform="translate(663.525391 0)"/>
      <use xlink:href="#DejaVuSans-32" transform="translate(727.148438 0)"/>
      <use xlink:href="#DejaVuSans-29" transform="translate(790.771484 0)"/>
     </g>
    </g>
   </g>
  </g>
  <g id="text_22">
   <!-- Liu2022 (healthy) -->
   <g transform="translate(128.417891 26.196094) scale(0.25 -0.25)">
    <defs>
     <path id="DejaVuSans-Bold-4c" d="M 588 4666 
L 1791 4666 
L 1791 909 
L 3903 909 
L 3903 0 
L 588 0 
L 588 4666 
z
" transform="scale(0.015625)"/>
     <path id="DejaVuSans-Bold-75" d="M 500 1363 
L 500 3500 
L 1625 3500 
L 1625 3150 
Q 1625 2866 1622 2436 
Q 1619 2006 1619 1863 
Q 1619 1441 1641 1255 
Q 1663 1069 1716 984 
Q 1784 875 1895 815 
Q 2006 756 2150 756 
Q 2500 756 2700 1025 
Q 2900 1294 2900 1772 
L 2900 3500 
L 4019 3500 
L 4019 0 
L 2900 0 
L 2900 506 
Q 2647 200 2364 54 
Q 2081 -91 1741 -91 
Q 1134 -91 817 281 
Q 500 653 500 1363 
z
" transform="scale(0.015625)"/>
     <path id="DejaVuSans-Bold-32" d="M 1844 884 
L 3897 884 
L 3897 0 
L 506 0 
L 506 884 
L 2209 2388 
Q 2438 2594 2547 2791 
Q 2656 2988 2656 3200 
Q 2656 3528 2436 3728 
Q 2216 3928 1850 3928 
Q 1569 3928 1234 3808 
Q 900 3688 519 3450 
L 519 4475 
Q 925 4609 1322 4679 
Q 1719 4750 2100 4750 
Q 2938 4750 3402 4381 
Q 3866 4013 3866 3353 
Q 3866 2972 3669 2642 
Q 3472 2313 2841 1759 
L 1844 884 
z
" transform="scale(0.015625)"/>
     <path id="DejaVuSans-Bold-30" d="M 2944 2338 
Q 2944 3213 2780 3570 
Q 2616 3928 2228 3928 
Q 1841 3928 1675 3570 
Q 1509 3213 1509 2338 
Q 1509 1453 1675 1090 
Q 1841 728 2228 728 
Q 2613 728 2778 1090 
Q 2944 1453 2944 2338 
z
M 4147 2328 
Q 4147 1169 3647 539 
Q 3147 -91 2228 -91 
Q 1306 -91 806 539 
Q 306 1169 306 2328 
Q 306 3491 806 4120 
Q 1306 4750 2228 4750 
Q 3147 4750 3647 4120 
Q 4147 3491 4147 2328 
z
" transform="scale(0.015625)"/>
     <path id="DejaVuSans-Bold-28" d="M 2413 -844 
L 1484 -844 
Q 1006 -72 778 623 
Q 550 1319 550 2003 
Q 550 2688 779 3389 
Q 1009 4091 1484 4856 
L 2413 4856 
Q 2013 4116 1813 3408 
Q 1613 2700 1613 2009 
Q 1613 1319 1811 609 
Q 2009 -100 2413 -844 
z
" transform="scale(0.015625)"/>
     <path id="DejaVuSans-Bold-79" d="M 78 3500 
L 1197 3500 
L 2138 1125 
L 2938 3500 
L 4056 3500 
L 2584 -331 
Q 2363 -916 2067 -1148 
Q 1772 -1381 1288 -1381 
L 641 -1381 
L 641 -647 
L 991 -647 
Q 1275 -647 1404 -556 
Q 1534 -466 1606 -231 
L 1638 -134 
L 78 3500 
z
" transform="scale(0.015625)"/>
     <path id="DejaVuSans-Bold-29" d="M 513 -844 
Q 913 -100 1113 609 
Q 1313 1319 1313 2009 
Q 1313 2700 1113 3408 
Q 913 4116 513 4856 
L 1441 4856 
Q 1916 4091 2145 3389 
Q 2375 2688 2375 2003 
Q 2375 1319 2147 623 
Q 1919 -72 1441 -844 
L 513 -844 
z
" transform="scale(0.015625)"/>
    </defs>
    <use xlink:href="#DejaVuSans-Bold-4c"/>
    <use xlink:href="#DejaVuSans-Bold-69" transform="translate(63.720703 0)"/>
    <use xlink:href="#DejaVuSans-Bold-75" transform="translate(97.998047 0)"/>
    <use xlink:href="#DejaVuSans-Bold-32" transform="translate(169.189453 0)"/>
    <use xlink:href="#DejaVuSans-Bold-30" transform="translate(238.769531 0)"/>
    <use xlink:href="#DejaVuSans-Bold-32" transform="translate(308.349609 0)"/>
    <use xlink:href="#DejaVuSans-Bold-32" transform="translate(377.929688 0)"/>
    <use xlink:href="#DejaVuSans-Bold-20" transform="translate(447.509766 0)"/>
    <use xlink:href="#DejaVuSans-Bold-28" transform="translate(482.324219 0)"/>
    <use xlink:href="#DejaVuSans-Bold-68" transform="translate(528.027344 0)"/>
    <use xlink:href="#DejaVuSans-Bold-65" transform="translate(599.21875 0)"/>
    <use xlink:href="#DejaVuSans-Bold-61" transform="translate(667.041016 0)"/>
    <use xlink:href="#DejaVuSans-Bold-6c" transform="translate(734.521484 0)"/>
    <use xlink:href="#DejaVuSans-Bold-74" transform="translate(768.798828 0)"/>
    <use xlink:href="#DejaVuSans-Bold-68" transform="translate(816.601562 0)"/>
    <use xlink:href="#DejaVuSans-Bold-79" transform="translate(887.792969 0)"/>
    <use xlink:href="#DejaVuSans-Bold-29" transform="translate(952.978516 0)"/>
   </g>
  </g>
 </g>
 <defs>
  <clipPath id="pdee0627fad">
   <rect x="64.251875" y="43.2" width="390.6" height="277.2"/>
  </clipPath>
 </defs>
</svg>
