<?xml version="1.0" encoding="utf-8" standalone="no"?>
<!DOCTYPE svg PUBLIC "-//W3C//DTD SVG 1.1//EN"
  "http://www.w3.org/Graphics/SVG/1.1/DTD/svg11.dtd">
<svg xmlns:xlink="http://www.w3.org/1999/xlink" width="862.195625pt" height="370.537812pt" viewBox="0 0 862.195625 370.537812" xmlns="http://www.w3.org/2000/svg" version="1.1">
 <metadata>
  <rdf:RDF xmlns:dc="http://purl.org/dc/elements/1.1/" xmlns:cc="http://creativecommons.org/ns#" xmlns:rdf="http://www.w3.org/1999/02/22-rdf-syntax-ns#">
   <cc:Work>
    <dc:type rdf:resource="http://purl.org/dc/dcmitype/StillImage"/>
    <dc:date>2026-01-06T17:44:27.264482</dc:date>
    <dc:format>image/svg+xml</dc:format>
    <dc:creator>
     <cc:Agent>
      <dc:title>Matplotlib v3.10.7, https://matplotlib.org/</dc:title>
     </cc:Agent>
    </dc:creator>
   </cc:Work>
  </rdf:RDF>
 </metadata>
 <defs>
  <style type="text/css">*{stroke-linejoin: round; stroke-linecap: butt}</style>
 </defs>
 <g id="figure_1">
  <g id="patch_1">
   <path d="M 0 370.537812 
L 862.195625 370.537812 
L 862.195625 0 
L 0 0 
z
" style="fill: #ffffff"/>
  </g>
  <g id="axes_1">
   <g id="patch_2">
    <path d="M 73.795625 320.4 
L 413.447799 320.4 
L 413.447799 43.2 
L 73.795625 43.2 
z
" style="fill: #ffffff"/>
   </g>
   <g id="matplotlib.axis_1">
    <g id="xtick_1">
     <g id="line2d_1">
      <defs>
       <path id="m4e5021d2ff" d="M 0 0 
L 0 3.5 
" style="stroke: #000000; stroke-width: 0.8"/>
      </defs>
      <g>
       <use xlink:href="#m4e5021d2ff" x="89.23436" y="320.4" style="stroke: #000000; stroke-width: 0.8"/>
      </g>
     </g>
     <g id="text_1">
      <!-- 0 -->
      <g transform="translate(84.462485 338.797656) scale(0.15 -0.15)">
       <defs>
        <path id="DejaVuSans-30" d="M 2034 4250 
Q 1547 4250 1301 3770 
Q 1056 3291 1056 2328 
Q 1056 1369 1301 889 
Q 1547 409 2034 409 
Q 2525 409 2770 889 
Q 3016 1369 3016 2328 
Q 3016 3291 2770 3770 
Q 2525 4250 2034 4250 
z
M 2034 4750 
Q 2819 4750 3233 4129 
Q 3647 3509 3647 2328 
Q 3647 1150 3233 529 
Q 2819 -91 2034 -91 
Q 1250 -91 836 529 
Q 422 1150 422 2328 
Q 422 3509 836 4129 
Q 1250 4750 2034 4750 
z
" transform="scale(0.015625)"/>
       </defs>
       <use xlink:href="#DejaVuSans-30"/>
      </g>
     </g>
    </g>
    <g id="xtick_2">
     <g id="line2d_2">
      <g>
       <use xlink:href="#m4e5021d2ff" x="173.830169" y="320.4" style="stroke: #000000; stroke-width: 0.8"/>
      </g>
     </g>
     <g id="text_2">
      <!-- 20 -->
      <g transform="translate(164.286419 338.797656) scale(0.15 -0.15)">
       <defs>
        <path id="DejaVuSans-32" d="M 1228 531 
L 3431 531 
L 3431 0 
L 469 0 
L 469 531 
Q 828 903 1448 1529 
Q 2069 2156 2228 2338 
Q 2531 2678 2651 2914 
Q 2772 3150 2772 3378 
Q 2772 3750 2511 3984 
Q 2250 4219 1831 4219 
Q 1534 4219 1204 4116 
Q 875 4013 500 3803 
L 500 4441 
Q 881 4594 1212 4672 
Q 1544 4750 1819 4750 
Q 2544 4750 2975 4387 
Q 3406 4025 3406 3419 
Q 3406 3131 3298 2873 
Q 3191 2616 2906 2266 
Q 2828 2175 2409 1742 
Q 1991 1309 1228 531 
z
" transform="scale(0.015625)"/>
       </defs>
       <use xlink:href="#DejaVuSans-32"/>
       <use xlink:href="#DejaVuSans-30" transform="translate(63.623047 0)"/>
      </g>
     </g>
    </g>
    <g id="xtick_3">
     <g id="line2d_3">
      <g>
       <use xlink:href="#m4e5021d2ff" x="258.425979" y="320.4" style="stroke: #000000; stroke-width: 0.8"/>
      </g>
     </g>
     <g id="text_3">
      <!-- 40 -->
      <g transform="translate(248.882229 338.797656) scale(0.15 -0.15)">
       <defs>
        <path id="DejaVuSans-34" d="M 2419 4116 
L 825 1625 
L 2419 1625 
L 2419 4116 
z
M 2253 4666 
L 3047 4666 
L 3047 1625 
L 3713 1625 
L 3713 1100 
L 3047 1100 
L 3047 0 
L 2419 0 
L 2419 1100 
L 313 1100 
L 313 1709 
L 2253 4666 
z
" transform="scale(0.015625)"/>
       </defs>
       <use xlink:href="#DejaVuSans-34"/>
       <use xlink:href="#DejaVuSans-30" transform="translate(63.623047 0)"/>
      </g>
     </g>
    </g>
    <g id="xtick_4">
     <g id="line2d_4">
      <g>
       <use xlink:href="#m4e5021d2ff" x="343.021788" y="320.4" style="stroke: #000000; stroke-width: 0.8"/>
      </g>
     </g>
     <g id="text_4">
      <!-- 60 -->
      <g transform="translate(333.478038 338.797656) scale(0.15 -0.15)">
       <defs>
        <path id="DejaVuSans-36" d="M 2113 2584 
Q 1688 2584 1439 2293 
Q 1191 2003 1191 1497 
Q 1191 994 1439 701 
Q 1688 409 2113 409 
Q 2538 409 2786 701 
Q 3034 994 3034 1497 
Q 3034 2003 2786 2293 
Q 2538 2584 2113 2584 
z
M 3366 4563 
L 3366 3988 
Q 3128 4100 2886 4159 
Q 2644 4219 2406 4219 
Q 1781 4219 1451 3797 
Q 1122 3375 1075 2522 
Q 1259 2794 1537 2939 
Q 1816 3084 2150 3084 
Q 2853 3084 3261 2657 
Q 3669 2231 3669 1497 
Q 3669 778 3244 343 
Q 2819 -91 2113 -91 
Q 1303 -91 875 529 
Q 447 1150 447 2328 
Q 447 3434 972 4092 
Q 1497 4750 2381 4750 
Q 2619 4750 2861 4703 
Q 3103 4656 3366 4563 
z
" transform="scale(0.015625)"/>
       </defs>
       <use xlink:href="#DejaVuSans-36"/>
       <use xlink:href="#DejaVuSans-30" transform="translate(63.623047 0)"/>
      </g>
     </g>
    </g>
    <g id="text_5">
     <!-- time [hr] -->
     <g transform="translate(198.547181 359.594375) scale(0.18 -0.18)">
      <defs>
       <path id="DejaVuSans-Bold-74" d="M 1759 4494 
L 1759 3500 
L 2913 3500 
L 2913 2700 
L 1759 2700 
L 1759 1216 
Q 1759 972 1856 886 
Q 1953 800 2241 800 
L 2816 800 
L 2816 0 
L 1856 0 
Q 1194 0 917 276 
Q 641 553 641 1216 
L 641 2700 
L 84 2700 
L 84 3500 
L 641 3500 
L 641 4494 
L 1759 4494 
z
" transform="scale(0.015625)"/>
       <path id="DejaVuSans-Bold-69" d="M 538 3500 
L 1656 3500 
L 1656 0 
L 538 0 
L 538 3500 
z
M 538 4863 
L 1656 4863 
L 1656 3950 
L 538 3950 
L 538 4863 
z
" transform="scale(0.015625)"/>
       <path id="DejaVuSans-Bold-6d" d="M 3781 2919 
Q 3994 3244 4286 3414 
Q 4578 3584 4928 3584 
Q 5531 3584 5847 3212 
Q 6163 2841 6163 2131 
L 6163 0 
L 5038 0 
L 5038 1825 
Q 5041 1866 5042 1909 
Q 5044 1953 5044 2034 
Q 5044 2406 4934 2573 
Q 4825 2741 4581 2741 
Q 4263 2741 4089 2478 
Q 3916 2216 3909 1719 
L 3909 0 
L 2784 0 
L 2784 1825 
Q 2784 2406 2684 2573 
Q 2584 2741 2328 2741 
Q 2006 2741 1831 2477 
Q 1656 2213 1656 1722 
L 1656 0 
L 531 0 
L 531 3500 
L 1656 3500 
L 1656 2988 
Q 1863 3284 2130 3434 
Q 2397 3584 2719 3584 
Q 3081 3584 3359 3409 
Q 3638 3234 3781 2919 
z
" transform="scale(0.015625)"/>
       <path id="DejaVuSans-Bold-65" d="M 4031 1759 
L 4031 1441 
L 1416 1441 
Q 1456 1047 1700 850 
Q 1944 653 2381 653 
Q 2734 653 3104 758 
Q 3475 863 3866 1075 
L 3866 213 
Q 3469 63 3072 -14 
Q 2675 -91 2278 -91 
Q 1328 -91 801 392 
Q 275 875 275 1747 
Q 275 2603 792 3093 
Q 1309 3584 2216 3584 
Q 3041 3584 3536 3087 
Q 4031 2591 4031 1759 
z
M 2881 2131 
Q 2881 2450 2695 2645 
Q 2509 2841 2209 2841 
Q 1884 2841 1681 2658 
Q 1478 2475 1428 2131 
L 2881 2131 
z
" transform="scale(0.015625)"/>
       <path id="DejaVuSans-Bold-20" transform="scale(0.015625)"/>
       <path id="DejaVuSans-Bold-5b" d="M 550 4863 
L 2491 4863 
L 2491 4159 
L 1613 4159 
L 1613 -141 
L 2491 -141 
L 2491 -844 
L 550 -844 
L 550 4863 
z
" transform="scale(0.015625)"/>
       <path id="DejaVuSans-Bold-68" d="M 4056 2131 
L 4056 0 
L 2931 0 
L 2931 347 
L 2931 1625 
Q 2931 2084 2911 2256 
Q 2891 2428 2841 2509 
Q 2775 2619 2662 2680 
Q 2550 2741 2406 2741 
Q 2056 2741 1856 2470 
Q 1656 2200 1656 1722 
L 1656 0 
L 538 0 
L 538 4863 
L 1656 4863 
L 1656 2988 
Q 1909 3294 2193 3439 
Q 2478 3584 2822 3584 
Q 3428 3584 3742 3212 
Q 4056 2841 4056 2131 
z
" transform="scale(0.015625)"/>
       <path id="DejaVuSans-Bold-72" d="M 3138 2547 
Q 2991 2616 2845 2648 
Q 2700 2681 2553 2681 
Q 2122 2681 1889 2404 
Q 1656 2128 1656 1613 
L 1656 0 
L 538 0 
L 538 3500 
L 1656 3500 
L 1656 2925 
Q 1872 3269 2151 3426 
Q 2431 3584 2822 3584 
Q 2878 3584 2943 3579 
Q 3009 3575 3134 3559 
L 3138 2547 
z
" transform="scale(0.015625)"/>
       <path id="DejaVuSans-Bold-5d" d="M 2375 -844 
L 434 -844 
L 434 -141 
L 1313 -141 
L 1313 4159 
L 434 4159 
L 434 4863 
L 2375 4863 
L 2375 -844 
z
" transform="scale(0.015625)"/>
      </defs>
      <use xlink:href="#DejaVuSans-Bold-74"/>
      <use xlink:href="#DejaVuSans-Bold-69" transform="translate(47.802734 0)"/>
      <use xlink:href="#DejaVuSans-Bold-6d" transform="translate(82.080078 0)"/>
      <use xlink:href="#DejaVuSans-Bold-65" transform="translate(186.279297 0)"/>
      <use xlink:href="#DejaVuSans-Bold-20" transform="translate(254.101562 0)"/>
      <use xlink:href="#DejaVuSans-Bold-5b" transform="translate(288.916016 0)"/>
      <use xlink:href="#DejaVuSans-Bold-68" transform="translate(334.619141 0)"/>
      <use xlink:href="#DejaVuSans-Bold-72" transform="translate(405.810547 0)"/>
      <use xlink:href="#DejaVuSans-Bold-5d" transform="translate(455.126953 0)"/>
     </g>
    </g>
   </g>
   <g id="matplotlib.axis_2">
    <g id="ytick_1">
     <g id="line2d_5">
      <defs>
       <path id="m8699220bff" d="M 0 0 
L -3.5 0 
" style="stroke: #000000; stroke-width: 0.8"/>
      </defs>
      <g>
       <use xlink:href="#m8699220bff" x="73.795625" y="307.8" style="stroke: #000000; stroke-width: 0.8"/>
      </g>
     </g>
     <g id="text_6">
      <!-- 0 -->
      <g transform="translate(57.251875 313.498828) scale(0.15 -0.15)">
       <use xlink:href="#DejaVuSans-30"/>
      </g>
     </g>
    </g>
    <g id="ytick_2">
     <g id="line2d_6">
      <g>
       <use xlink:href="#m8699220bff" x="73.795625" y="257.882068" style="stroke: #000000; stroke-width: 0.8"/>
      </g>
     </g>
     <g id="text_7">
      <!-- 500 -->
      <g transform="translate(38.164375 263.580896) scale(0.15 -0.15)">
       <defs>
        <path id="DejaVuSans-35" d="M 691 4666 
L 3169 4666 
L 3169 4134 
L 1269 4134 
L 1269 2991 
Q 1406 3038 1543 3061 
Q 1681 3084 1819 3084 
Q 2600 3084 3056 2656 
Q 3513 2228 3513 1497 
Q 3513 744 3044 326 
Q 2575 -91 1722 -91 
Q 1428 -91 1123 -41 
Q 819 9 494 109 
L 494 744 
Q 775 591 1075 516 
Q 1375 441 1709 441 
Q 2250 441 2565 725 
Q 2881 1009 2881 1497 
Q 2881 1984 2565 2268 
Q 2250 2553 1709 2553 
Q 1456 2553 1204 2497 
Q 953 2441 691 2322 
L 691 4666 
z
" transform="scale(0.015625)"/>
       </defs>
       <use xlink:href="#DejaVuSans-35"/>
       <use xlink:href="#DejaVuSans-30" transform="translate(63.623047 0)"/>
       <use xlink:href="#DejaVuSans-30" transform="translate(127.246094 0)"/>
      </g>
     </g>
    </g>
    <g id="ytick_3">
     <g id="line2d_7">
      <g>
       <use xlink:href="#m8699220bff" x="73.795625" y="207.964136" style="stroke: #000000; stroke-width: 0.8"/>
      </g>
     </g>
     <g id="text_8">
      <!-- 1000 -->
      <g transform="translate(28.620625 213.662964) scale(0.15 -0.15)">
       <defs>
        <path id="DejaVuSans-31" d="M 794 531 
L 1825 531 
L 1825 4091 
L 703 3866 
L 703 4441 
L 1819 4666 
L 2450 4666 
L 2450 531 
L 3481 531 
L 3481 0 
L 794 0 
L 794 531 
z
" transform="scale(0.015625)"/>
       </defs>
       <use xlink:href="#DejaVuSans-31"/>
       <use xlink:href="#DejaVuSans-30" transform="translate(63.623047 0)"/>
       <use xlink:href="#DejaVuSans-30" transform="translate(127.246094 0)"/>
       <use xlink:href="#DejaVuSans-30" transform="translate(190.869141 0)"/>
      </g>
     </g>
    </g>
    <g id="ytick_4">
     <g id="line2d_8">
      <g>
       <use xlink:href="#m8699220bff" x="73.795625" y="158.046204" style="stroke: #000000; stroke-width: 0.8"/>
      </g>
     </g>
     <g id="text_9">
      <!-- 1500 -->
      <g transform="translate(28.620625 163.745032) scale(0.15 -0.15)">
       <use xlink:href="#DejaVuSans-31"/>
       <use xlink:href="#DejaVuSans-35" transform="translate(63.623047 0)"/>
       <use xlink:href="#DejaVuSans-30" transform="translate(127.246094 0)"/>
       <use xlink:href="#DejaVuSans-30" transform="translate(190.869141 0)"/>
      </g>
     </g>
    </g>
    <g id="ytick_5">
     <g id="line2d_9">
      <g>
       <use xlink:href="#m8699220bff" x="73.795625" y="108.128272" style="stroke: #000000; stroke-width: 0.8"/>
      </g>
     </g>
     <g id="text_10">
      <!-- 2000 -->
      <g transform="translate(28.620625 113.8271) scale(0.15 -0.15)">
       <use xlink:href="#DejaVuSans-32"/>
       <use xlink:href="#DejaVuSans-30" transform="translate(63.623047 0)"/>
       <use xlink:href="#DejaVuSans-30" transform="translate(127.246094 0)"/>
       <use xlink:href="#DejaVuSans-30" transform="translate(190.869141 0)"/>
      </g>
     </g>
    </g>
    <g id="ytick_6">
     <g id="line2d_10">
      <g>
       <use xlink:href="#m8699220bff" x="73.795625" y="58.21034" style="stroke: #000000; stroke-width: 0.8"/>
      </g>
     </g>
     <g id="text_11">
      <!-- 2500 -->
      <g transform="translate(28.620625 63.909168) scale(0.15 -0.15)">
       <use xlink:href="#DejaVuSans-32"/>
       <use xlink:href="#DejaVuSans-35" transform="translate(63.623047 0)"/>
       <use xlink:href="#DejaVuSans-30" transform="translate(127.246094 0)"/>
       <use xlink:href="#DejaVuSans-30" transform="translate(190.869141 0)"/>
      </g>
     </g>
    </g>
    <g id="text_12">
     <!-- edoxaban plasma [nM] -->
     <g transform="translate(20.877187 297.59625) rotate(-90) scale(0.18 -0.18)">
      <defs>
       <path id="DejaVuSans-Bold-64" d="M 2919 2988 
L 2919 4863 
L 4044 4863 
L 4044 0 
L 2919 0 
L 2919 506 
Q 2688 197 2409 53 
Q 2131 -91 1766 -91 
Q 1119 -91 703 423 
Q 288 938 288 1747 
Q 288 2556 703 3070 
Q 1119 3584 1766 3584 
Q 2128 3584 2408 3439 
Q 2688 3294 2919 2988 
z
M 2181 722 
Q 2541 722 2730 984 
Q 2919 1247 2919 1747 
Q 2919 2247 2730 2509 
Q 2541 2772 2181 2772 
Q 1825 2772 1636 2509 
Q 1447 2247 1447 1747 
Q 1447 1247 1636 984 
Q 1825 722 2181 722 
z
" transform="scale(0.015625)"/>
       <path id="DejaVuSans-Bold-6f" d="M 2203 2784 
Q 1831 2784 1636 2517 
Q 1441 2250 1441 1747 
Q 1441 1244 1636 976 
Q 1831 709 2203 709 
Q 2569 709 2762 976 
Q 2956 1244 2956 1747 
Q 2956 2250 2762 2517 
Q 2569 2784 2203 2784 
z
M 2203 3584 
Q 3106 3584 3614 3096 
Q 4122 2609 4122 1747 
Q 4122 884 3614 396 
Q 3106 -91 2203 -91 
Q 1297 -91 786 396 
Q 275 884 275 1747 
Q 275 2609 786 3096 
Q 1297 3584 2203 3584 
z
" transform="scale(0.015625)"/>
       <path id="DejaVuSans-Bold-78" d="M 1422 1791 
L 159 3500 
L 1344 3500 
L 2059 2463 
L 2784 3500 
L 3969 3500 
L 2706 1797 
L 4031 0 
L 2847 0 
L 2059 1106 
L 1281 0 
L 97 0 
L 1422 1791 
z
" transform="scale(0.015625)"/>
       <path id="DejaVuSans-Bold-61" d="M 2106 1575 
Q 1756 1575 1579 1456 
Q 1403 1338 1403 1106 
Q 1403 894 1545 773 
Q 1688 653 1941 653 
Q 2256 653 2472 879 
Q 2688 1106 2688 1447 
L 2688 1575 
L 2106 1575 
z
M 3816 1997 
L 3816 0 
L 2688 0 
L 2688 519 
Q 2463 200 2181 54 
Q 1900 -91 1497 -91 
Q 953 -91 614 226 
Q 275 544 275 1050 
Q 275 1666 698 1953 
Q 1122 2241 2028 2241 
L 2688 2241 
L 2688 2328 
Q 2688 2594 2478 2717 
Q 2269 2841 1825 2841 
Q 1466 2841 1156 2769 
Q 847 2697 581 2553 
L 581 3406 
Q 941 3494 1303 3539 
Q 1666 3584 2028 3584 
Q 2975 3584 3395 3211 
Q 3816 2838 3816 1997 
z
" transform="scale(0.015625)"/>
       <path id="DejaVuSans-Bold-62" d="M 2400 722 
Q 2759 722 2948 984 
Q 3138 1247 3138 1747 
Q 3138 2247 2948 2509 
Q 2759 2772 2400 2772 
Q 2041 2772 1848 2508 
Q 1656 2244 1656 1747 
Q 1656 1250 1848 986 
Q 2041 722 2400 722 
z
M 1656 2988 
Q 1888 3294 2169 3439 
Q 2450 3584 2816 3584 
Q 3463 3584 3878 3070 
Q 4294 2556 4294 1747 
Q 4294 938 3878 423 
Q 3463 -91 2816 -91 
Q 2450 -91 2169 54 
Q 1888 200 1656 506 
L 1656 0 
L 538 0 
L 538 4863 
L 1656 4863 
L 1656 2988 
z
" transform="scale(0.015625)"/>
       <path id="DejaVuSans-Bold-6e" d="M 4056 2131 
L 4056 0 
L 2931 0 
L 2931 347 
L 2931 1631 
Q 2931 2084 2911 2256 
Q 2891 2428 2841 2509 
Q 2775 2619 2662 2680 
Q 2550 2741 2406 2741 
Q 2056 2741 1856 2470 
Q 1656 2200 1656 1722 
L 1656 0 
L 538 0 
L 538 3500 
L 1656 3500 
L 1656 2988 
Q 1909 3294 2193 3439 
Q 2478 3584 2822 3584 
Q 3428 3584 3742 3212 
Q 4056 2841 4056 2131 
z
" transform="scale(0.015625)"/>
       <path id="DejaVuSans-Bold-70" d="M 1656 506 
L 1656 -1331 
L 538 -1331 
L 538 3500 
L 1656 3500 
L 1656 2988 
Q 1888 3294 2169 3439 
Q 2450 3584 2816 3584 
Q 3463 3584 3878 3070 
Q 4294 2556 4294 1747 
Q 4294 938 3878 423 
Q 3463 -91 2816 -91 
Q 2450 -91 2169 54 
Q 1888 200 1656 506 
z
M 2400 2772 
Q 2041 2772 1848 2508 
Q 1656 2244 1656 1747 
Q 1656 1250 1848 986 
Q 2041 722 2400 722 
Q 2759 722 2948 984 
Q 3138 1247 3138 1747 
Q 3138 2247 2948 2509 
Q 2759 2772 2400 2772 
z
" transform="scale(0.015625)"/>
       <path id="DejaVuSans-Bold-6c" d="M 538 4863 
L 1656 4863 
L 1656 0 
L 538 0 
L 538 4863 
z
" transform="scale(0.015625)"/>
       <path id="DejaVuSans-Bold-73" d="M 3272 3391 
L 3272 2541 
Q 2913 2691 2578 2766 
Q 2244 2841 1947 2841 
Q 1628 2841 1473 2761 
Q 1319 2681 1319 2516 
Q 1319 2381 1436 2309 
Q 1553 2238 1856 2203 
L 2053 2175 
Q 2913 2066 3209 1816 
Q 3506 1566 3506 1031 
Q 3506 472 3093 190 
Q 2681 -91 1863 -91 
Q 1516 -91 1145 -36 
Q 775 19 384 128 
L 384 978 
Q 719 816 1070 734 
Q 1422 653 1784 653 
Q 2113 653 2278 743 
Q 2444 834 2444 1013 
Q 2444 1163 2330 1236 
Q 2216 1309 1875 1350 
L 1678 1375 
Q 931 1469 631 1722 
Q 331 1975 331 2491 
Q 331 3047 712 3315 
Q 1094 3584 1881 3584 
Q 2191 3584 2531 3537 
Q 2872 3491 3272 3391 
z
" transform="scale(0.015625)"/>
       <path id="DejaVuSans-Bold-4d" d="M 588 4666 
L 2119 4666 
L 3181 2169 
L 4250 4666 
L 5778 4666 
L 5778 0 
L 4641 0 
L 4641 3413 
L 3566 897 
L 2803 897 
L 1728 3413 
L 1728 0 
L 588 0 
L 588 4666 
z
" transform="scale(0.015625)"/>
      </defs>
      <use xlink:href="#DejaVuSans-Bold-65"/>
      <use xlink:href="#DejaVuSans-Bold-64" transform="translate(67.822266 0)"/>
      <use xlink:href="#DejaVuSans-Bold-6f" transform="translate(139.404297 0)"/>
      <use xlink:href="#DejaVuSans-Bold-78" transform="translate(208.105469 0)"/>
      <use xlink:href="#DejaVuSans-Bold-61" transform="translate(272.607422 0)"/>
      <use xlink:href="#DejaVuSans-Bold-62" transform="translate(340.087891 0)"/>
      <use xlink:href="#DejaVuSans-Bold-61" transform="translate(411.669922 0)"/>
      <use xlink:href="#DejaVuSans-Bold-6e" transform="translate(479.150391 0)"/>
      <use xlink:href="#DejaVuSans-Bold-20" transform="translate(550.341797 0)"/>
      <use xlink:href="#DejaVuSans-Bold-70" transform="translate(585.15625 0)"/>
      <use xlink:href="#DejaVuSans-Bold-6c" transform="translate(656.738281 0)"/>
      <use xlink:href="#DejaVuSans-Bold-61" transform="translate(691.015625 0)"/>
      <use xlink:href="#DejaVuSans-Bold-73" transform="translate(758.496094 0)"/>
      <use xlink:href="#DejaVuSans-Bold-6d" transform="translate(818.017578 0)"/>
      <use xlink:href="#DejaVuSans-Bold-61" transform="translate(922.216797 0)"/>
      <use xlink:href="#DejaVuSans-Bold-20" transform="translate(989.697266 0)"/>
      <use xlink:href="#DejaVuSans-Bold-5b" transform="translate(1024.511719 0)"/>
      <use xlink:href="#DejaVuSans-Bold-6e" transform="translate(1070.214844 0)"/>
      <use xlink:href="#DejaVuSans-Bold-4d" transform="translate(1141.40625 0)"/>
      <use xlink:href="#DejaVuSans-Bold-5d" transform="translate(1240.917969 0)"/>
     </g>
    </g>
   </g>
   <g id="LineCollection_1">
    <path clip-path="url(#pa01551fec4)" style="fill: none; stroke: #ff7f0e"/>
    <path clip-path="url(#pa01551fec4)" style="fill: none; stroke: #ff7f0e"/>
    <path clip-path="url(#pa01551fec4)" style="fill: none; stroke: #ff7f0e"/>
    <path clip-path="url(#pa01551fec4)" style="fill: none; stroke: #ff7f0e"/>
    <path clip-path="url(#pa01551fec4)" style="fill: none; stroke: #ff7f0e"/>
    <path clip-path="url(#pa01551fec4)" style="fill: none; stroke: #ff7f0e"/>
    <path clip-path="url(#pa01551fec4)" style="fill: none; stroke: #ff7f0e"/>
    <path clip-path="url(#pa01551fec4)" style="fill: none; stroke: #ff7f0e"/>
    <path clip-path="url(#pa01551fec4)" style="fill: none; stroke: #ff7f0e"/>
    <path clip-path="url(#pa01551fec4)" style="fill: none; stroke: #ff7f0e"/>
    <path clip-path="url(#pa01551fec4)" style="fill: none; stroke: #ff7f0e"/>
    <path clip-path="url(#pa01551fec4)" style="fill: none; stroke: #ff7f0e"/>
    <path clip-path="url(#pa01551fec4)" style="fill: none; stroke: #ff7f0e"/>
    <path clip-path="url(#pa01551fec4)" style="fill: none; stroke: #ff7f0e"/>
    <path clip-path="url(#pa01551fec4)" style="fill: none; stroke: #ff7f0e"/>
   </g>
   <g id="LineCollection_2">
    <path clip-path="url(#pa01551fec4)" style="fill: none; stroke: #000000"/>
    <path clip-path="url(#pa01551fec4)" style="fill: none; stroke: #000000"/>
    <path clip-path="url(#pa01551fec4)" style="fill: none; stroke: #000000"/>
    <path clip-path="url(#pa01551fec4)" style="fill: none; stroke: #000000"/>
    <path clip-path="url(#pa01551fec4)" style="fill: none; stroke: #000000"/>
    <path clip-path="url(#pa01551fec4)" style="fill: none; stroke: #000000"/>
    <path clip-path="url(#pa01551fec4)" style="fill: none; stroke: #000000"/>
    <path clip-path="url(#pa01551fec4)" style="fill: none; stroke: #000000"/>
    <path clip-path="url(#pa01551fec4)" style="fill: none; stroke: #000000"/>
    <path clip-path="url(#pa01551fec4)" style="fill: none; stroke: #000000"/>
    <path clip-path="url(#pa01551fec4)" style="fill: none; stroke: #000000"/>
    <path clip-path="url(#pa01551fec4)" style="fill: none; stroke: #000000"/>
    <path clip-path="url(#pa01551fec4)" style="fill: none; stroke: #000000"/>
    <path clip-path="url(#pa01551fec4)" style="fill: none; stroke: #000000"/>
    <path clip-path="url(#pa01551fec4)" style="fill: none; stroke: #000000"/>
   </g>
   <g id="line2d_11">
    <path d="M 89.23436 307.8 
L 89.258153 300.216214 
L 89.620329 185.489585 
L 90.03009 118.262433 
L 90.43985 83.807492 
L 90.849611 66.148447 
L 91.259372 57.097731 
L 91.349255 55.8 
L 91.349255 55.8 
L 91.73258 173.693848 
L 92.115905 236.03913 
L 92.49923 269.399983 
L 92.882554 287.251736 
L 93.265879 296.804402 
L 93.649204 301.916136 
L 94.032529 304.651481 
L 94.415853 306.115193 
L 94.799178 306.898442 
L 95.182503 307.317566 
L 95.949153 307.661858 
L 97.099127 307.778833 
L 102.082349 307.799994 
L 398.009064 307.8 
L 398.009064 307.8 
" clip-path="url(#pa01551fec4)" style="fill: none; stroke: #ff7f0e; stroke-width: 2; stroke-linecap: square"/>
   </g>
   <g id="line2d_12">
    <path d="M 89.23436 187.428906 
L 91.349255 219.704721 
L 93.464151 225.139552 
L 95.579046 230.41317 
L 97.693941 235.758377 
L 101.923732 254.535735 
L 106.153522 267.937827 
L 114.613103 290.62003 
L 123.072684 292.992156 
L 139.991846 298.002183 
L 190.749331 306.386051 
L 241.506817 307.187204 
L 292.264302 307.637511 
L 343.021788 307.706915 
L 393.779273 307.736061 
" clip-path="url(#pa01551fec4)" style="fill: none; stroke-dasharray: 3.7,1.6; stroke-dashoffset: 0; stroke: #ff7f0e"/>
    <defs>
     <path id="m640ce3cc94" d="M -3 3 
L 3 3 
L 3 -3 
L -3 -3 
z
" style="stroke: #000000; stroke-linejoin: miter"/>
    </defs>
    <g clip-path="url(#pa01551fec4)">
     <use xlink:href="#m640ce3cc94" x="89.23436" y="187.428906" style="fill: #ff7f0e; stroke: #000000; stroke-linejoin: miter"/>
     <use xlink:href="#m640ce3cc94" x="91.349255" y="219.704721" style="fill: #ff7f0e; stroke: #000000; stroke-linejoin: miter"/>
     <use xlink:href="#m640ce3cc94" x="93.464151" y="225.139552" style="fill: #ff7f0e; stroke: #000000; stroke-linejoin: miter"/>
     <use xlink:href="#m640ce3cc94" x="95.579046" y="230.41317" style="fill: #ff7f0e; stroke: #000000; stroke-linejoin: miter"/>
     <use xlink:href="#m640ce3cc94" x="97.693941" y="235.758377" style="fill: #ff7f0e; stroke: #000000; stroke-linejoin: miter"/>
     <use xlink:href="#m640ce3cc94" x="101.923732" y="254.535735" style="fill: #ff7f0e; stroke: #000000; stroke-linejoin: miter"/>
     <use xlink:href="#m640ce3cc94" x="106.153522" y="267.937827" style="fill: #ff7f0e; stroke: #000000; stroke-linejoin: miter"/>
     <use xlink:href="#m640ce3cc94" x="114.613103" y="290.62003" style="fill: #ff7f0e; stroke: #000000; stroke-linejoin: miter"/>
     <use xlink:href="#m640ce3cc94" x="123.072684" y="292.992156" style="fill: #ff7f0e; stroke: #000000; stroke-linejoin: miter"/>
     <use xlink:href="#m640ce3cc94" x="139.991846" y="298.002183" style="fill: #ff7f0e; stroke: #000000; stroke-linejoin: miter"/>
     <use xlink:href="#m640ce3cc94" x="190.749331" y="306.386051" style="fill: #ff7f0e; stroke: #000000; stroke-linejoin: miter"/>
     <use xlink:href="#m640ce3cc94" x="241.506817" y="307.187204" style="fill: #ff7f0e; stroke: #000000; stroke-linejoin: miter"/>
     <use xlink:href="#m640ce3cc94" x="292.264302" y="307.637511" style="fill: #ff7f0e; stroke: #000000; stroke-linejoin: miter"/>
     <use xlink:href="#m640ce3cc94" x="343.021788" y="307.706915" style="fill: #ff7f0e; stroke: #000000; stroke-linejoin: miter"/>
     <use xlink:href="#m640ce3cc94" x="393.779273" y="307.736061" style="fill: #ff7f0e; stroke: #000000; stroke-linejoin: miter"/>
    </g>
   </g>
   <g id="line2d_13">
    <path d="M 89.23436 307.8 
L 89.258153 300.216214 
L 89.620329 185.489585 
L 90.03009 118.262433 
L 90.43985 83.807492 
L 90.849611 66.148447 
L 91.259372 57.097731 
L 91.349255 55.8 
L 91.349255 55.8 
L 91.73258 173.693848 
L 92.115905 236.03913 
L 92.49923 269.399983 
L 92.882554 287.251736 
L 93.265879 296.804402 
L 93.649204 301.916136 
L 94.032529 304.651481 
L 94.415853 306.115193 
L 94.799178 306.898442 
L 95.182503 307.317566 
L 95.949153 307.661858 
L 97.099127 307.778833 
L 102.082349 307.799994 
L 398.009064 307.8 
L 398.009064 307.8 
" clip-path="url(#pa01551fec4)" style="fill: none; stroke: #000000; stroke-width: 2; stroke-linecap: square"/>
   </g>
   <g id="line2d_14">
    <path d="M 89.23436 192.816194 
L 91.349255 211.635813 
L 93.464151 227.731549 
L 95.579046 233.100802 
L 97.693941 249.202732 
L 101.923732 265.286446 
L 106.153522 267.980089 
L 114.613103 281.376171 
L 123.072684 292.734942 
L 139.991846 295.636615 
L 190.749331 301.703552 
L 241.506817 306.719592 
L 292.264302 307.617837 
L 343.021788 307.735879 
L 393.779273 307.790892 
" clip-path="url(#pa01551fec4)" style="fill: none; stroke-dasharray: 3.7,1.6; stroke-dashoffset: 0; stroke: #000000"/>
    <defs>
     <path id="m5f1d723336" d="M -3 3 
L 3 3 
L 3 -3 
L -3 -3 
z
" style="stroke: #000000; stroke-linejoin: miter"/>
    </defs>
    <g clip-path="url(#pa01551fec4)">
     <use xlink:href="#m5f1d723336" x="89.23436" y="192.816194" style="stroke: #000000; stroke-linejoin: miter"/>
     <use xlink:href="#m5f1d723336" x="91.349255" y="211.635813" style="stroke: #000000; stroke-linejoin: miter"/>
     <use xlink:href="#m5f1d723336" x="93.464151" y="227.731549" style="stroke: #000000; stroke-linejoin: miter"/>
     <use xlink:href="#m5f1d723336" x="95.579046" y="233.100802" style="stroke: #000000; stroke-linejoin: miter"/>
     <use xlink:href="#m5f1d723336" x="97.693941" y="249.202732" style="stroke: #000000; stroke-linejoin: miter"/>
     <use xlink:href="#m5f1d723336" x="101.923732" y="265.286446" style="stroke: #000000; stroke-linejoin: miter"/>
     <use xlink:href="#m5f1d723336" x="106.153522" y="267.980089" style="stroke: #000000; stroke-linejoin: miter"/>
     <use xlink:href="#m5f1d723336" x="114.613103" y="281.376171" style="stroke: #000000; stroke-linejoin: miter"/>
     <use xlink:href="#m5f1d723336" x="123.072684" y="292.734942" style="stroke: #000000; stroke-linejoin: miter"/>
     <use xlink:href="#m5f1d723336" x="139.991846" y="295.636615" style="stroke: #000000; stroke-linejoin: miter"/>
     <use xlink:href="#m5f1d723336" x="190.749331" y="301.703552" style="stroke: #000000; stroke-linejoin: miter"/>
     <use xlink:href="#m5f1d723336" x="241.506817" y="306.719592" style="stroke: #000000; stroke-linejoin: miter"/>
     <use xlink:href="#m5f1d723336" x="292.264302" y="307.617837" style="stroke: #000000; stroke-linejoin: miter"/>
     <use xlink:href="#m5f1d723336" x="343.021788" y="307.735879" style="stroke: #000000; stroke-linejoin: miter"/>
     <use xlink:href="#m5f1d723336" x="393.779273" y="307.790892" style="stroke: #000000; stroke-linejoin: miter"/>
    </g>
   </g>
   <g id="patch_3">
    <path d="M 73.795625 320.4 
L 73.795625 43.2 
" style="fill: none; stroke: #000000; stroke-width: 0.8; stroke-linejoin: miter; stroke-linecap: square"/>
   </g>
   <g id="patch_4">
    <path d="M 413.447799 320.4 
L 413.447799 43.2 
" style="fill: none; stroke: #000000; stroke-width: 0.8; stroke-linejoin: miter; stroke-linecap: square"/>
   </g>
   <g id="patch_5">
    <path d="M 73.795625 320.4 
L 413.447799 320.4 
" style="fill: none; stroke: #000000; stroke-width: 0.8; stroke-linejoin: miter; stroke-linecap: square"/>
   </g>
   <g id="patch_6">
    <path d="M 73.795625 43.2 
L 413.447799 43.2 
" style="fill: none; stroke: #000000; stroke-width: 0.8; stroke-linejoin: miter; stroke-linecap: square"/>
   </g>
   <g id="legend_1">
    <g id="patch_7">
     <path d="M 238.746236 111.025 
L 406.447799 111.025 
Q 408.447799 111.025 408.447799 109.025 
L 408.447799 50.2 
Q 408.447799 48.2 406.447799 48.2 
L 238.746236 48.2 
Q 236.746236 48.2 236.746236 50.2 
L 236.746236 109.025 
Q 236.746236 111.025 238.746236 111.025 
z
" style="fill: #ffffff; opacity: 0.8; stroke: #cccccc; stroke-linejoin: miter"/>
    </g>
    <g id="line2d_15">
     <path d="M 240.746236 56.298437 
L 260.746236 56.298437 
" style="fill: none; stroke: #ff7f0e; stroke-width: 2; stroke-linecap: square"/>
    </g>
    <g id="line2d_16"/>
    <g id="text_13">
     <!-- ED30_IV, Q300 -->
     <g transform="translate(268.746236 59.798437) scale(0.1 -0.1)">
      <defs>
       <path id="DejaVuSans-45" d="M 628 4666 
L 3578 4666 
L 3578 4134 
L 1259 4134 
L 1259 2753 
L 3481 2753 
L 3481 2222 
L 1259 2222 
L 1259 531 
L 3634 531 
L 3634 0 
L 628 0 
L 628 4666 
z
" transform="scale(0.015625)"/>
       <path id="DejaVuSans-44" d="M 1259 4147 
L 1259 519 
L 2022 519 
Q 2988 519 3436 956 
Q 3884 1394 3884 2338 
Q 3884 3275 3436 3711 
Q 2988 4147 2022 4147 
L 1259 4147 
z
M 628 4666 
L 1925 4666 
Q 3281 4666 3915 4102 
Q 4550 3538 4550 2338 
Q 4550 1131 3912 565 
Q 3275 0 1925 0 
L 628 0 
L 628 4666 
z
" transform="scale(0.015625)"/>
       <path id="DejaVuSans-33" d="M 2597 2516 
Q 3050 2419 3304 2112 
Q 3559 1806 3559 1356 
Q 3559 666 3084 287 
Q 2609 -91 1734 -91 
Q 1441 -91 1130 -33 
Q 819 25 488 141 
L 488 750 
Q 750 597 1062 519 
Q 1375 441 1716 441 
Q 2309 441 2620 675 
Q 2931 909 2931 1356 
Q 2931 1769 2642 2001 
Q 2353 2234 1838 2234 
L 1294 2234 
L 1294 2753 
L 1863 2753 
Q 2328 2753 2575 2939 
Q 2822 3125 2822 3475 
Q 2822 3834 2567 4026 
Q 2313 4219 1838 4219 
Q 1578 4219 1281 4162 
Q 984 4106 628 3988 
L 628 4550 
Q 988 4650 1302 4700 
Q 1616 4750 1894 4750 
Q 2613 4750 3031 4423 
Q 3450 4097 3450 3541 
Q 3450 3153 3228 2886 
Q 3006 2619 2597 2516 
z
" transform="scale(0.015625)"/>
       <path id="DejaVuSans-5f" d="M 3263 -1063 
L 3263 -1509 
L -63 -1509 
L -63 -1063 
L 3263 -1063 
z
" transform="scale(0.015625)"/>
       <path id="DejaVuSans-49" d="M 628 4666 
L 1259 4666 
L 1259 0 
L 628 0 
L 628 4666 
z
" transform="scale(0.015625)"/>
       <path id="DejaVuSans-56" d="M 1831 0 
L 50 4666 
L 709 4666 
L 2188 738 
L 3669 4666 
L 4325 4666 
L 2547 0 
L 1831 0 
z
" transform="scale(0.015625)"/>
       <path id="DejaVuSans-2c" d="M 750 794 
L 1409 794 
L 1409 256 
L 897 -744 
L 494 -744 
L 750 256 
L 750 794 
z
" transform="scale(0.015625)"/>
       <path id="DejaVuSans-20" transform="scale(0.015625)"/>
       <path id="DejaVuSans-51" d="M 2522 4238 
Q 1834 4238 1429 3725 
Q 1025 3213 1025 2328 
Q 1025 1447 1429 934 
Q 1834 422 2522 422 
Q 3209 422 3611 934 
Q 4013 1447 4013 2328 
Q 4013 3213 3611 3725 
Q 3209 4238 2522 4238 
z
M 3406 84 
L 4238 -825 
L 3475 -825 
L 2784 -78 
Q 2681 -84 2626 -87 
Q 2572 -91 2522 -91 
Q 1538 -91 948 567 
Q 359 1225 359 2328 
Q 359 3434 948 4092 
Q 1538 4750 2522 4750 
Q 3503 4750 4090 4092 
Q 4678 3434 4678 2328 
Q 4678 1516 4351 937 
Q 4025 359 3406 84 
z
" transform="scale(0.015625)"/>
      </defs>
      <use xlink:href="#DejaVuSans-45"/>
      <use xlink:href="#DejaVuSans-44" transform="translate(63.183594 0)"/>
      <use xlink:href="#DejaVuSans-33" transform="translate(140.185547 0)"/>
      <use xlink:href="#DejaVuSans-30" transform="translate(203.808594 0)"/>
      <use xlink:href="#DejaVuSans-5f" transform="translate(267.431641 0)"/>
      <use xlink:href="#DejaVuSans-49" transform="translate(317.431641 0)"/>
      <use xlink:href="#DejaVuSans-56" transform="translate(346.923828 0)"/>
      <use xlink:href="#DejaVuSans-2c" transform="translate(415.332031 0)"/>
      <use xlink:href="#DejaVuSans-20" transform="translate(447.119141 0)"/>
      <use xlink:href="#DejaVuSans-51" transform="translate(478.90625 0)"/>
      <use xlink:href="#DejaVuSans-33" transform="translate(557.617188 0)"/>
      <use xlink:href="#DejaVuSans-30" transform="translate(621.240234 0)"/>
      <use xlink:href="#DejaVuSans-30" transform="translate(684.863281 0)"/>
     </g>
    </g>
    <g id="LineCollection_3">
     <path d="M 250.746236 76.254687 
L 250.746236 66.254687 
" style="fill: none; stroke: #ff7f0e"/>
    </g>
    <g id="line2d_17">
     <path d="M 240.746236 71.254687 
L 260.746236 71.254687 
" style="fill: none; stroke-dasharray: 3.7,1.6; stroke-dashoffset: 0; stroke: #ff7f0e"/>
    </g>
    <g id="line2d_18">
     <g>
      <use xlink:href="#m640ce3cc94" x="250.746236" y="71.254687" style="fill: #ff7f0e; stroke: #000000; stroke-linejoin: miter"/>
     </g>
    </g>
    <g id="text_14">
     <!-- ED30_IV, Q300±SD (n=35) -->
     <g transform="translate(268.746236 74.754687) scale(0.1 -0.1)">
      <defs>
       <path id="DejaVuSans-b1" d="M 2944 4013 
L 2944 2803 
L 4684 2803 
L 4684 2272 
L 2944 2272 
L 2944 1063 
L 2419 1063 
L 2419 2272 
L 678 2272 
L 678 2803 
L 2419 2803 
L 2419 4013 
L 2944 4013 
z
M 678 531 
L 4684 531 
L 4684 0 
L 678 0 
L 678 531 
z
" transform="scale(0.015625)"/>
       <path id="DejaVuSans-53" d="M 3425 4513 
L 3425 3897 
Q 3066 4069 2747 4153 
Q 2428 4238 2131 4238 
Q 1616 4238 1336 4038 
Q 1056 3838 1056 3469 
Q 1056 3159 1242 3001 
Q 1428 2844 1947 2747 
L 2328 2669 
Q 3034 2534 3370 2195 
Q 3706 1856 3706 1288 
Q 3706 609 3251 259 
Q 2797 -91 1919 -91 
Q 1588 -91 1214 -16 
Q 841 59 441 206 
L 441 856 
Q 825 641 1194 531 
Q 1563 422 1919 422 
Q 2459 422 2753 634 
Q 3047 847 3047 1241 
Q 3047 1584 2836 1778 
Q 2625 1972 2144 2069 
L 1759 2144 
Q 1053 2284 737 2584 
Q 422 2884 422 3419 
Q 422 4038 858 4394 
Q 1294 4750 2059 4750 
Q 2388 4750 2728 4690 
Q 3069 4631 3425 4513 
z
" transform="scale(0.015625)"/>
       <path id="DejaVuSans-28" d="M 1984 4856 
Q 1566 4138 1362 3434 
Q 1159 2731 1159 2009 
Q 1159 1288 1364 580 
Q 1569 -128 1984 -844 
L 1484 -844 
Q 1016 -109 783 600 
Q 550 1309 550 2009 
Q 550 2706 781 3412 
Q 1013 4119 1484 4856 
L 1984 4856 
z
" transform="scale(0.015625)"/>
       <path id="DejaVuSans-6e" d="M 3513 2113 
L 3513 0 
L 2938 0 
L 2938 2094 
Q 2938 2591 2744 2837 
Q 2550 3084 2163 3084 
Q 1697 3084 1428 2787 
Q 1159 2491 1159 1978 
L 1159 0 
L 581 0 
L 581 3500 
L 1159 3500 
L 1159 2956 
Q 1366 3272 1645 3428 
Q 1925 3584 2291 3584 
Q 2894 3584 3203 3211 
Q 3513 2838 3513 2113 
z
" transform="scale(0.015625)"/>
       <path id="DejaVuSans-3d" d="M 678 2906 
L 4684 2906 
L 4684 2381 
L 678 2381 
L 678 2906 
z
M 678 1631 
L 4684 1631 
L 4684 1100 
L 678 1100 
L 678 1631 
z
" transform="scale(0.015625)"/>
       <path id="DejaVuSans-29" d="M 513 4856 
L 1013 4856 
Q 1481 4119 1714 3412 
Q 1947 2706 1947 2009 
Q 1947 1309 1714 600 
Q 1481 -109 1013 -844 
L 513 -844 
Q 928 -128 1133 580 
Q 1338 1288 1338 2009 
Q 1338 2731 1133 3434 
Q 928 4138 513 4856 
z
" transform="scale(0.015625)"/>
      </defs>
      <use xlink:href="#DejaVuSans-45"/>
      <use xlink:href="#DejaVuSans-44" transform="translate(63.183594 0)"/>
      <use xlink:href="#DejaVuSans-33" transform="translate(140.185547 0)"/>
      <use xlink:href="#DejaVuSans-30" transform="translate(203.808594 0)"/>
      <use xlink:href="#DejaVuSans-5f" transform="translate(267.431641 0)"/>
      <use xlink:href="#DejaVuSans-49" transform="translate(317.431641 0)"/>
      <use xlink:href="#DejaVuSans-56" transform="translate(346.923828 0)"/>
      <use xlink:href="#DejaVuSans-2c" transform="translate(415.332031 0)"/>
      <use xlink:href="#DejaVuSans-20" transform="translate(447.119141 0)"/>
      <use xlink:href="#DejaVuSans-51" transform="translate(478.90625 0)"/>
      <use xlink:href="#DejaVuSans-33" transform="translate(557.617188 0)"/>
      <use xlink:href="#DejaVuSans-30" transform="translate(621.240234 0)"/>
      <use xlink:href="#DejaVuSans-30" transform="translate(684.863281 0)"/>
      <use xlink:href="#DejaVuSans-b1" transform="translate(748.486328 0)"/>
      <use xlink:href="#DejaVuSans-53" transform="translate(832.275391 0)"/>
      <use xlink:href="#DejaVuSans-44" transform="translate(895.751953 0)"/>
      <use xlink:href="#DejaVuSans-20" transform="translate(972.753906 0)"/>
      <use xlink:href="#DejaVuSans-28" transform="translate(1004.541016 0)"/>
      <use xlink:href="#DejaVuSans-6e" transform="translate(1043.554688 0)"/>
      <use xlink:href="#DejaVuSans-3d" transform="translate(1106.933594 0)"/>
      <use xlink:href="#DejaVuSans-33" transform="translate(1190.722656 0)"/>
      <use xlink:href="#DejaVuSans-35" transform="translate(1254.345703 0)"/>
      <use xlink:href="#DejaVuSans-29" transform="translate(1317.96875 0)"/>
     </g>
    </g>
    <g id="line2d_19">
     <path d="M 240.746236 86.210937 
L 260.746236 86.210937 
" style="fill: none; stroke: #000000; stroke-width: 2; stroke-linecap: square"/>
    </g>
    <g id="line2d_20"/>
    <g id="text_15">
     <!-- ED30_IV -->
     <g transform="translate(268.746236 89.710937) scale(0.1 -0.1)">
      <use xlink:href="#DejaVuSans-45"/>
      <use xlink:href="#DejaVuSans-44" transform="translate(63.183594 0)"/>
      <use xlink:href="#DejaVuSans-33" transform="translate(140.185547 0)"/>
      <use xlink:href="#DejaVuSans-30" transform="translate(203.808594 0)"/>
      <use xlink:href="#DejaVuSans-5f" transform="translate(267.431641 0)"/>
      <use xlink:href="#DejaVuSans-49" transform="translate(317.431641 0)"/>
      <use xlink:href="#DejaVuSans-56" transform="translate(346.923828 0)"/>
     </g>
    </g>
    <g id="LineCollection_4">
     <path d="M 250.746236 106.167187 
L 250.746236 96.167187 
" style="fill: none; stroke: #000000"/>
    </g>
    <g id="line2d_21">
     <path d="M 240.746236 101.167187 
L 260.746236 101.167187 
" style="fill: none; stroke-dasharray: 3.7,1.6; stroke-dashoffset: 0; stroke: #000000"/>
    </g>
    <g id="line2d_22">
     <g>
      <use xlink:href="#m5f1d723336" x="250.746236" y="101.167187" style="stroke: #000000; stroke-linejoin: miter"/>
     </g>
    </g>
    <g id="text_16">
     <!-- ED30_IV±SD (n=35) -->
     <g transform="translate(268.746236 104.667187) scale(0.1 -0.1)">
      <use xlink:href="#DejaVuSans-45"/>
      <use xlink:href="#DejaVuSans-44" transform="translate(63.183594 0)"/>
      <use xlink:href="#DejaVuSans-33" transform="translate(140.185547 0)"/>
      <use xlink:href="#DejaVuSans-30" transform="translate(203.808594 0)"/>
      <use xlink:href="#DejaVuSans-5f" transform="translate(267.431641 0)"/>
      <use xlink:href="#DejaVuSans-49" transform="translate(317.431641 0)"/>
      <use xlink:href="#DejaVuSans-56" transform="translate(346.923828 0)"/>
      <use xlink:href="#DejaVuSans-b1" transform="translate(415.332031 0)"/>
      <use xlink:href="#DejaVuSans-53" transform="translate(499.121094 0)"/>
      <use xlink:href="#DejaVuSans-44" transform="translate(562.597656 0)"/>
      <use xlink:href="#DejaVuSans-20" transform="translate(639.599609 0)"/>
      <use xlink:href="#DejaVuSans-28" transform="translate(671.386719 0)"/>
      <use xlink:href="#DejaVuSans-6e" transform="translate(710.400391 0)"/>
      <use xlink:href="#DejaVuSans-3d" transform="translate(773.779297 0)"/>
      <use xlink:href="#DejaVuSans-33" transform="translate(857.568359 0)"/>
      <use xlink:href="#DejaVuSans-35" transform="translate(921.191406 0)"/>
      <use xlink:href="#DejaVuSans-29" transform="translate(984.814453 0)"/>
     </g>
    </g>
   </g>
  </g>
  <g id="axes_2">
   <g id="patch_8">
    <path d="M 515.343451 320.4 
L 854.995625 320.4 
L 854.995625 43.2 
L 515.343451 43.2 
z
" style="fill: #ffffff"/>
   </g>
   <g id="matplotlib.axis_3">
    <g id="xtick_5">
     <g id="line2d_23">
      <g>
       <use xlink:href="#m4e5021d2ff" x="530.782186" y="320.4" style="stroke: #000000; stroke-width: 0.8"/>
      </g>
     </g>
     <g id="text_17">
      <!-- 0 -->
      <g transform="translate(526.010311 338.797656) scale(0.15 -0.15)">
       <use xlink:href="#DejaVuSans-30"/>
      </g>
     </g>
    </g>
    <g id="xtick_6">
     <g id="line2d_24">
      <g>
       <use xlink:href="#m4e5021d2ff" x="615.377995" y="320.4" style="stroke: #000000; stroke-width: 0.8"/>
      </g>
     </g>
     <g id="text_18">
      <!-- 20 -->
      <g transform="translate(605.834245 338.797656) scale(0.15 -0.15)">
       <use xlink:href="#DejaVuSans-32"/>
       <use xlink:href="#DejaVuSans-30" transform="translate(63.623047 0)"/>
      </g>
     </g>
    </g>
    <g id="xtick_7">
     <g id="line2d_25">
      <g>
       <use xlink:href="#m4e5021d2ff" x="699.973805" y="320.4" style="stroke: #000000; stroke-width: 0.8"/>
      </g>
     </g>
     <g id="text_19">
      <!-- 40 -->
      <g transform="translate(690.430055 338.797656) scale(0.15 -0.15)">
       <use xlink:href="#DejaVuSans-34"/>
       <use xlink:href="#DejaVuSans-30" transform="translate(63.623047 0)"/>
      </g>
     </g>
    </g>
    <g id="xtick_8">
     <g id="line2d_26">
      <g>
       <use xlink:href="#m4e5021d2ff" x="784.569614" y="320.4" style="stroke: #000000; stroke-width: 0.8"/>
      </g>
     </g>
     <g id="text_20">
      <!-- 60 -->
      <g transform="translate(775.025864 338.797656) scale(0.15 -0.15)">
       <use xlink:href="#DejaVuSans-36"/>
       <use xlink:href="#DejaVuSans-30" transform="translate(63.623047 0)"/>
      </g>
     </g>
    </g>
    <g id="text_21">
     <!-- time [hr] -->
     <g transform="translate(640.095007 359.594375) scale(0.18 -0.18)">
      <use xlink:href="#DejaVuSans-Bold-74"/>
      <use xlink:href="#DejaVuSans-Bold-69" transform="translate(47.802734 0)"/>
      <use xlink:href="#DejaVuSans-Bold-6d" transform="translate(82.080078 0)"/>
      <use xlink:href="#DejaVuSans-Bold-65" transform="translate(186.279297 0)"/>
      <use xlink:href="#DejaVuSans-Bold-20" transform="translate(254.101562 0)"/>
      <use xlink:href="#DejaVuSans-Bold-5b" transform="translate(288.916016 0)"/>
      <use xlink:href="#DejaVuSans-Bold-68" transform="translate(334.619141 0)"/>
      <use xlink:href="#DejaVuSans-Bold-72" transform="translate(405.810547 0)"/>
      <use xlink:href="#DejaVuSans-Bold-5d" transform="translate(455.126953 0)"/>
     </g>
    </g>
   </g>
   <g id="matplotlib.axis_4">
    <g id="ytick_7">
     <g id="line2d_27">
      <g>
       <use xlink:href="#m8699220bff" x="515.343451" y="307.8" style="stroke: #000000; stroke-width: 0.8"/>
      </g>
     </g>
     <g id="text_22">
      <!-- 0 -->
      <g transform="translate(498.799701 313.498828) scale(0.15 -0.15)">
       <use xlink:href="#DejaVuSans-30"/>
      </g>
     </g>
    </g>
    <g id="ytick_8">
     <g id="line2d_28">
      <g>
       <use xlink:href="#m8699220bff" x="515.343451" y="265.769989" style="stroke: #000000; stroke-width: 0.8"/>
      </g>
     </g>
     <g id="text_23">
      <!-- 5 -->
      <g transform="translate(498.799701 271.468817) scale(0.15 -0.15)">
       <use xlink:href="#DejaVuSans-35"/>
      </g>
     </g>
    </g>
    <g id="ytick_9">
     <g id="line2d_29">
      <g>
       <use xlink:href="#m8699220bff" x="515.343451" y="223.739978" style="stroke: #000000; stroke-width: 0.8"/>
      </g>
     </g>
     <g id="text_24">
      <!-- 10 -->
      <g transform="translate(489.255951 229.438806) scale(0.15 -0.15)">
       <use xlink:href="#DejaVuSans-31"/>
       <use xlink:href="#DejaVuSans-30" transform="translate(63.623047 0)"/>
      </g>
     </g>
    </g>
    <g id="ytick_10">
     <g id="line2d_30">
      <g>
       <use xlink:href="#m8699220bff" x="515.343451" y="181.709967" style="stroke: #000000; stroke-width: 0.8"/>
      </g>
     </g>
     <g id="text_25">
      <!-- 15 -->
      <g transform="translate(489.255951 187.408795) scale(0.15 -0.15)">
       <use xlink:href="#DejaVuSans-31"/>
       <use xlink:href="#DejaVuSans-35" transform="translate(63.623047 0)"/>
      </g>
     </g>
    </g>
    <g id="ytick_11">
     <g id="line2d_31">
      <g>
       <use xlink:href="#m8699220bff" x="515.343451" y="139.679956" style="stroke: #000000; stroke-width: 0.8"/>
      </g>
     </g>
     <g id="text_26">
      <!-- 20 -->
      <g transform="translate(489.255951 145.378784) scale(0.15 -0.15)">
       <use xlink:href="#DejaVuSans-32"/>
       <use xlink:href="#DejaVuSans-30" transform="translate(63.623047 0)"/>
      </g>
     </g>
    </g>
    <g id="ytick_12">
     <g id="line2d_32">
      <g>
       <use xlink:href="#m8699220bff" x="515.343451" y="97.649945" style="stroke: #000000; stroke-width: 0.8"/>
      </g>
     </g>
     <g id="text_27">
      <!-- 25 -->
      <g transform="translate(489.255951 103.348773) scale(0.15 -0.15)">
       <use xlink:href="#DejaVuSans-32"/>
       <use xlink:href="#DejaVuSans-35" transform="translate(63.623047 0)"/>
      </g>
     </g>
    </g>
    <g id="ytick_13">
     <g id="line2d_33">
      <g>
       <use xlink:href="#m8699220bff" x="515.343451" y="55.619934" style="stroke: #000000; stroke-width: 0.8"/>
      </g>
     </g>
     <g id="text_28">
      <!-- 30 -->
      <g transform="translate(489.255951 61.318762) scale(0.15 -0.15)">
       <use xlink:href="#DejaVuSans-33"/>
       <use xlink:href="#DejaVuSans-30" transform="translate(63.623047 0)"/>
      </g>
     </g>
    </g>
    <g id="text_29">
     <!-- edoxaban urine [µmole] -->
     <g transform="translate(481.492826 303.638906) rotate(-90) scale(0.18 -0.18)">
      <defs>
       <path id="DejaVuSans-Bold-75" d="M 500 1363 
L 500 3500 
L 1625 3500 
L 1625 3150 
Q 1625 2866 1622 2436 
Q 1619 2006 1619 1863 
Q 1619 1441 1641 1255 
Q 1663 1069 1716 984 
Q 1784 875 1895 815 
Q 2006 756 2150 756 
Q 2500 756 2700 1025 
Q 2900 1294 2900 1772 
L 2900 3500 
L 4019 3500 
L 4019 0 
L 2900 0 
L 2900 506 
Q 2647 200 2364 54 
Q 2081 -91 1741 -91 
Q 1134 -91 817 281 
Q 500 653 500 1363 
z
" transform="scale(0.015625)"/>
       <path id="DejaVuSans-Bold-b5" d="M 544 -1338 
L 544 3500 
L 1672 3500 
L 1672 1466 
Q 1672 1103 1828 926 
Q 1984 750 2303 750 
Q 2625 750 2781 926 
Q 2938 1103 2938 1466 
L 2938 3500 
L 4063 3500 
L 4063 1159 
Q 4063 938 4114 850 
Q 4166 763 4288 763 
Q 4344 763 4395 778 
Q 4447 794 4506 831 
L 4506 50 
Q 4341 -22 4195 -56 
Q 4050 -91 3909 -91 
Q 3631 -91 3454 26 
Q 3278 144 3169 403 
Q 3022 156 2811 32 
Q 2600 -91 2322 -91 
Q 2091 -91 1928 -17 
Q 1766 56 1672 206 
L 1672 -1338 
L 544 -1338 
z
" transform="scale(0.015625)"/>
      </defs>
      <use xlink:href="#DejaVuSans-Bold-65"/>
      <use xlink:href="#DejaVuSans-Bold-64" transform="translate(67.822266 0)"/>
      <use xlink:href="#DejaVuSans-Bold-6f" transform="translate(139.404297 0)"/>
      <use xlink:href="#DejaVuSans-Bold-78" transform="translate(208.105469 0)"/>
      <use xlink:href="#DejaVuSans-Bold-61" transform="translate(272.607422 0)"/>
      <use xlink:href="#DejaVuSans-Bold-62" transform="translate(340.087891 0)"/>
      <use xlink:href="#DejaVuSans-Bold-61" transform="translate(411.669922 0)"/>
      <use xlink:href="#DejaVuSans-Bold-6e" transform="translate(479.150391 0)"/>
      <use xlink:href="#DejaVuSans-Bold-20" transform="translate(550.341797 0)"/>
      <use xlink:href="#DejaVuSans-Bold-75" transform="translate(585.15625 0)"/>
      <use xlink:href="#DejaVuSans-Bold-72" transform="translate(656.347656 0)"/>
      <use xlink:href="#DejaVuSans-Bold-69" transform="translate(705.664062 0)"/>
      <use xlink:href="#DejaVuSans-Bold-6e" transform="translate(739.941406 0)"/>
      <use xlink:href="#DejaVuSans-Bold-65" transform="translate(811.132812 0)"/>
      <use xlink:href="#DejaVuSans-Bold-20" transform="translate(878.955078 0)"/>
      <use xlink:href="#DejaVuSans-Bold-5b" transform="translate(913.769531 0)"/>
      <use xlink:href="#DejaVuSans-Bold-b5" transform="translate(959.472656 0)"/>
      <use xlink:href="#DejaVuSans-Bold-6d" transform="translate(1033.056641 0)"/>
      <use xlink:href="#DejaVuSans-Bold-6f" transform="translate(1137.255859 0)"/>
      <use xlink:href="#DejaVuSans-Bold-6c" transform="translate(1205.957031 0)"/>
      <use xlink:href="#DejaVuSans-Bold-65" transform="translate(1240.234375 0)"/>
      <use xlink:href="#DejaVuSans-Bold-5d" transform="translate(1308.056641 0)"/>
     </g>
    </g>
   </g>
   <g id="LineCollection_5">
    <path clip-path="url(#p9adb9670a2)" style="fill: none; stroke: #ff7f0e"/>
    <path d="M 835.327099 127.887645 
L 835.327099 73.591844 
" clip-path="url(#p9adb9670a2)" style="fill: none; stroke: #ff7f0e"/>
   </g>
   <g id="LineCollection_6">
    <path clip-path="url(#p9adb9670a2)" style="fill: none; stroke: #000000"/>
    <path d="M 835.327099 139.54437 
L 835.327099 55.8 
" clip-path="url(#p9adb9670a2)" style="fill: none; stroke: #000000"/>
   </g>
   <g id="line2d_34">
    <path d="M 530.782186 307.8 
L 530.832415 307.698354 
L 530.919654 306.509147 
L 531.104708 300.238306 
L 531.432517 280.23819 
L 532.011469 229.133756 
L 533.280406 102.909369 
L 533.663731 85.685293 
L 534.047056 76.468527 
L 534.430381 71.536536 
L 534.813705 68.897374 
L 535.19703 67.48513 
L 535.580355 66.729423 
L 535.96368 66.325036 
L 536.730329 65.992851 
L 537.880303 65.879989 
L 542.863525 65.859573 
L 839.55689 65.859567 
L 839.55689 65.859567 
" clip-path="url(#p9adb9670a2)" style="fill: none; stroke: #ff7f0e; stroke-width: 2; stroke-linecap: square"/>
   </g>
   <g id="line2d_35">
    <g clip-path="url(#p9adb9670a2)">
     <use xlink:href="#m640ce3cc94" x="530.782186" y="307.8" style="fill: #ff7f0e; stroke: #000000; stroke-linejoin: miter"/>
     <use xlink:href="#m640ce3cc94" x="835.327099" y="100.739744" style="fill: #ff7f0e; stroke: #000000; stroke-linejoin: miter"/>
    </g>
   </g>
   <g id="line2d_36">
    <path d="M 530.782186 307.8 
L 530.832415 307.698354 
L 530.919654 306.509147 
L 531.104708 300.238306 
L 531.432517 280.23819 
L 532.011469 229.133756 
L 533.280406 102.909369 
L 533.663731 85.685293 
L 534.047056 76.468527 
L 534.430381 71.536536 
L 534.813705 68.897374 
L 535.19703 67.48513 
L 535.580355 66.729423 
L 535.96368 66.325036 
L 536.730329 65.992851 
L 537.880303 65.879989 
L 542.863525 65.859573 
L 839.55689 65.859567 
L 839.55689 65.859567 
" clip-path="url(#p9adb9670a2)" style="fill: none; stroke: #000000; stroke-width: 2; stroke-linecap: square"/>
   </g>
   <g id="line2d_37">
    <g clip-path="url(#p9adb9670a2)">
     <use xlink:href="#m5f1d723336" x="530.782186" y="307.8" style="stroke: #000000; stroke-linejoin: miter"/>
     <use xlink:href="#m5f1d723336" x="835.327099" y="97.672185" style="stroke: #000000; stroke-linejoin: miter"/>
    </g>
   </g>
   <g id="patch_9">
    <path d="M 515.343451 320.4 
L 515.343451 43.2 
" style="fill: none; stroke: #000000; stroke-width: 0.8; stroke-linejoin: miter; stroke-linecap: square"/>
   </g>
   <g id="patch_10">
    <path d="M 854.995625 320.4 
L 854.995625 43.2 
" style="fill: none; stroke: #000000; stroke-width: 0.8; stroke-linejoin: miter; stroke-linecap: square"/>
   </g>
   <g id="patch_11">
    <path d="M 515.343451 320.4 
L 854.995625 320.4 
" style="fill: none; stroke: #000000; stroke-width: 0.8; stroke-linejoin: miter; stroke-linecap: square"/>
   </g>
   <g id="patch_12">
    <path d="M 515.343451 43.2 
L 854.995625 43.2 
" style="fill: none; stroke: #000000; stroke-width: 0.8; stroke-linejoin: miter; stroke-linecap: square"/>
   </g>
   <g id="legend_2">
    <g id="patch_13">
     <path d="M 680.294063 315.4 
L 847.995625 315.4 
Q 849.995625 315.4 849.995625 313.4 
L 849.995625 254.575 
Q 849.995625 252.575 847.995625 252.575 
L 680.294063 252.575 
Q 678.294063 252.575 678.294063 254.575 
L 678.294063 313.4 
Q 678.294063 315.4 680.294063 315.4 
z
" style="fill: #ffffff; opacity: 0.8; stroke: #cccccc; stroke-linejoin: miter"/>
    </g>
    <g id="line2d_38">
     <path d="M 682.294063 260.673437 
L 702.294063 260.673437 
" style="fill: none; stroke: #ff7f0e; stroke-width: 2; stroke-linecap: square"/>
    </g>
    <g id="line2d_39"/>
    <g id="text_30">
     <!-- ED30_IV, Q300 -->
     <g transform="translate(710.294063 264.173437) scale(0.1 -0.1)">
      <use xlink:href="#DejaVuSans-45"/>
      <use xlink:href="#DejaVuSans-44" transform="translate(63.183594 0)"/>
      <use xlink:href="#DejaVuSans-33" transform="translate(140.185547 0)"/>
      <use xlink:href="#DejaVuSans-30" transform="translate(203.808594 0)"/>
      <use xlink:href="#DejaVuSans-5f" transform="translate(267.431641 0)"/>
      <use xlink:href="#DejaVuSans-49" transform="translate(317.431641 0)"/>
      <use xlink:href="#DejaVuSans-56" transform="translate(346.923828 0)"/>
      <use xlink:href="#DejaVuSans-2c" transform="translate(415.332031 0)"/>
      <use xlink:href="#DejaVuSans-20" transform="translate(447.119141 0)"/>
      <use xlink:href="#DejaVuSans-51" transform="translate(478.90625 0)"/>
      <use xlink:href="#DejaVuSans-33" transform="translate(557.617188 0)"/>
      <use xlink:href="#DejaVuSans-30" transform="translate(621.240234 0)"/>
      <use xlink:href="#DejaVuSans-30" transform="translate(684.863281 0)"/>
     </g>
    </g>
    <g id="LineCollection_7">
     <path d="M 692.294063 280.629687 
L 692.294063 270.629687 
" style="fill: none; stroke: #ff7f0e"/>
    </g>
    <g id="line2d_40"/>
    <g id="line2d_41">
     <g>
      <use xlink:href="#m640ce3cc94" x="692.294063" y="275.629687" style="fill: #ff7f0e; stroke: #000000; stroke-linejoin: miter"/>
     </g>
    </g>
    <g id="text_31">
     <!-- ED30_IV, Q300±SD (n=29) -->
     <g transform="translate(710.294063 279.129687) scale(0.1 -0.1)">
      <defs>
       <path id="DejaVuSans-39" d="M 703 97 
L 703 672 
Q 941 559 1184 500 
Q 1428 441 1663 441 
Q 2288 441 2617 861 
Q 2947 1281 2994 2138 
Q 2813 1869 2534 1725 
Q 2256 1581 1919 1581 
Q 1219 1581 811 2004 
Q 403 2428 403 3163 
Q 403 3881 828 4315 
Q 1253 4750 1959 4750 
Q 2769 4750 3195 4129 
Q 3622 3509 3622 2328 
Q 3622 1225 3098 567 
Q 2575 -91 1691 -91 
Q 1453 -91 1209 -44 
Q 966 3 703 97 
z
M 1959 2075 
Q 2384 2075 2632 2365 
Q 2881 2656 2881 3163 
Q 2881 3666 2632 3958 
Q 2384 4250 1959 4250 
Q 1534 4250 1286 3958 
Q 1038 3666 1038 3163 
Q 1038 2656 1286 2365 
Q 1534 2075 1959 2075 
z
" transform="scale(0.015625)"/>
      </defs>
      <use xlink:href="#DejaVuSans-45"/>
      <use xlink:href="#DejaVuSans-44" transform="translate(63.183594 0)"/>
      <use xlink:href="#DejaVuSans-33" transform="translate(140.185547 0)"/>
      <use xlink:href="#DejaVuSans-30" transform="translate(203.808594 0)"/>
      <use xlink:href="#DejaVuSans-5f" transform="translate(267.431641 0)"/>
      <use xlink:href="#DejaVuSans-49" transform="translate(317.431641 0)"/>
      <use xlink:href="#DejaVuSans-56" transform="translate(346.923828 0)"/>
      <use xlink:href="#DejaVuSans-2c" transform="translate(415.332031 0)"/>
      <use xlink:href="#DejaVuSans-20" transform="translate(447.119141 0)"/>
      <use xlink:href="#DejaVuSans-51" transform="translate(478.90625 0)"/>
      <use xlink:href="#DejaVuSans-33" transform="translate(557.617188 0)"/>
      <use xlink:href="#DejaVuSans-30" transform="translate(621.240234 0)"/>
      <use xlink:href="#DejaVuSans-30" transform="translate(684.863281 0)"/>
      <use xlink:href="#DejaVuSans-b1" transform="translate(748.486328 0)"/>
      <use xlink:href="#DejaVuSans-53" transform="translate(832.275391 0)"/>
      <use xlink:href="#DejaVuSans-44" transform="translate(895.751953 0)"/>
      <use xlink:href="#DejaVuSans-20" transform="translate(972.753906 0)"/>
      <use xlink:href="#DejaVuSans-28" transform="translate(1004.541016 0)"/>
      <use xlink:href="#DejaVuSans-6e" transform="translate(1043.554688 0)"/>
      <use xlink:href="#DejaVuSans-3d" transform="translate(1106.933594 0)"/>
      <use xlink:href="#DejaVuSans-32" transform="translate(1190.722656 0)"/>
      <use xlink:href="#DejaVuSans-39" transform="translate(1254.345703 0)"/>
      <use xlink:href="#DejaVuSans-29" transform="translate(1317.96875 0)"/>
     </g>
    </g>
    <g id="line2d_42">
     <path d="M 682.294063 290.585938 
L 702.294063 290.585938 
" style="fill: none; stroke: #000000; stroke-width: 2; stroke-linecap: square"/>
    </g>
    <g id="line2d_43"/>
    <g id="text_32">
     <!-- ED30_IV -->
     <g transform="translate(710.294063 294.085938) scale(0.1 -0.1)">
      <use xlink:href="#DejaVuSans-45"/>
      <use xlink:href="#DejaVuSans-44" transform="translate(63.183594 0)"/>
      <use xlink:href="#DejaVuSans-33" transform="translate(140.185547 0)"/>
      <use xlink:href="#DejaVuSans-30" transform="translate(203.808594 0)"/>
      <use xlink:href="#DejaVuSans-5f" transform="translate(267.431641 0)"/>
      <use xlink:href="#DejaVuSans-49" transform="translate(317.431641 0)"/>
      <use xlink:href="#DejaVuSans-56" transform="translate(346.923828 0)"/>
     </g>
    </g>
    <g id="LineCollection_8">
     <path d="M 692.294063 310.542187 
L 692.294063 300.542187 
" style="fill: none; stroke: #000000"/>
    </g>
    <g id="line2d_44"/>
    <g id="line2d_45">
     <g>
      <use xlink:href="#m5f1d723336" x="692.294063" y="305.542187" style="stroke: #000000; stroke-linejoin: miter"/>
     </g>
    </g>
    <g id="text_33">
     <!-- ED30_IV±SD (n=35) -->
     <g transform="translate(710.294063 309.042187) scale(0.1 -0.1)">
      <use xlink:href="#DejaVuSans-45"/>
      <use xlink:href="#DejaVuSans-44" transform="translate(63.183594 0)"/>
      <use xlink:href="#DejaVuSans-33" transform="translate(140.185547 0)"/>
      <use xlink:href="#DejaVuSans-30" transform="translate(203.808594 0)"/>
      <use xlink:href="#DejaVuSans-5f" transform="translate(267.431641 0)"/>
      <use xlink:href="#DejaVuSans-49" transform="translate(317.431641 0)"/>
      <use xlink:href="#DejaVuSans-56" transform="translate(346.923828 0)"/>
      <use xlink:href="#DejaVuSans-b1" transform="translate(415.332031 0)"/>
      <use xlink:href="#DejaVuSans-53" transform="translate(499.121094 0)"/>
      <use xlink:href="#DejaVuSans-44" transform="translate(562.597656 0)"/>
      <use xlink:href="#DejaVuSans-20" transform="translate(639.599609 0)"/>
      <use xlink:href="#DejaVuSans-28" transform="translate(671.386719 0)"/>
      <use xlink:href="#DejaVuSans-6e" transform="translate(710.400391 0)"/>
      <use xlink:href="#DejaVuSans-3d" transform="translate(773.779297 0)"/>
      <use xlink:href="#DejaVuSans-33" transform="translate(857.568359 0)"/>
      <use xlink:href="#DejaVuSans-35" transform="translate(921.191406 0)"/>
      <use xlink:href="#DejaVuSans-29" transform="translate(984.814453 0)"/>
     </g>
    </g>
   </g>
  </g>
  <g id="text_34">
   <!-- Matsushima2013 (healthy) -->
   <g transform="translate(262.838594 26.196094) scale(0.25 -0.25)">
    <defs>
     <path id="DejaVuSans-Bold-32" d="M 1844 884 
L 3897 884 
L 3897 0 
L 506 0 
L 506 884 
L 2209 2388 
Q 2438 2594 2547 2791 
Q 2656 2988 2656 3200 
Q 2656 3528 2436 3728 
Q 2216 3928 1850 3928 
Q 1569 3928 1234 3808 
Q 900 3688 519 3450 
L 519 4475 
Q 925 4609 1322 4679 
Q 1719 4750 2100 4750 
Q 2938 4750 3402 4381 
Q 3866 4013 3866 3353 
Q 3866 2972 3669 2642 
Q 3472 2313 2841 1759 
L 1844 884 
z
" transform="scale(0.015625)"/>
     <path id="DejaVuSans-Bold-30" d="M 2944 2338 
Q 2944 3213 2780 3570 
Q 2616 3928 2228 3928 
Q 1841 3928 1675 3570 
Q 1509 3213 1509 2338 
Q 1509 1453 1675 1090 
Q 1841 728 2228 728 
Q 2613 728 2778 1090 
Q 2944 1453 2944 2338 
z
M 4147 2328 
Q 4147 1169 3647 539 
Q 3147 -91 2228 -91 
Q 1306 -91 806 539 
Q 306 1169 306 2328 
Q 306 3491 806 4120 
Q 1306 4750 2228 4750 
Q 3147 4750 3647 4120 
Q 4147 3491 4147 2328 
z
" transform="scale(0.015625)"/>
     <path id="DejaVuSans-Bold-31" d="M 750 831 
L 1813 831 
L 1813 3847 
L 722 3622 
L 722 4441 
L 1806 4666 
L 2950 4666 
L 2950 831 
L 4013 831 
L 4013 0 
L 750 0 
L 750 831 
z
" transform="scale(0.015625)"/>
     <path id="DejaVuSans-Bold-33" d="M 2981 2516 
Q 3453 2394 3698 2092 
Q 3944 1791 3944 1325 
Q 3944 631 3412 270 
Q 2881 -91 1863 -91 
Q 1503 -91 1142 -33 
Q 781 25 428 141 
L 428 1069 
Q 766 900 1098 814 
Q 1431 728 1753 728 
Q 2231 728 2486 893 
Q 2741 1059 2741 1369 
Q 2741 1688 2480 1852 
Q 2219 2016 1709 2016 
L 1228 2016 
L 1228 2791 
L 1734 2791 
Q 2188 2791 2409 2933 
Q 2631 3075 2631 3366 
Q 2631 3634 2415 3781 
Q 2200 3928 1806 3928 
Q 1516 3928 1219 3862 
Q 922 3797 628 3669 
L 628 4550 
Q 984 4650 1334 4700 
Q 1684 4750 2022 4750 
Q 2931 4750 3382 4451 
Q 3834 4153 3834 3553 
Q 3834 3144 3618 2883 
Q 3403 2622 2981 2516 
z
" transform="scale(0.015625)"/>
     <path id="DejaVuSans-Bold-28" d="M 2413 -844 
L 1484 -844 
Q 1006 -72 778 623 
Q 550 1319 550 2003 
Q 550 2688 779 3389 
Q 1009 4091 1484 4856 
L 2413 4856 
Q 2013 4116 1813 3408 
Q 1613 2700 1613 2009 
Q 1613 1319 1811 609 
Q 2009 -100 2413 -844 
z
" transform="scale(0.015625)"/>
     <path id="DejaVuSans-Bold-79" d="M 78 3500 
L 1197 3500 
L 2138 1125 
L 2938 3500 
L 4056 3500 
L 2584 -331 
Q 2363 -916 2067 -1148 
Q 1772 -1381 1288 -1381 
L 641 -1381 
L 641 -647 
L 991 -647 
Q 1275 -647 1404 -556 
Q 1534 -466 1606 -231 
L 1638 -134 
L 78 3500 
z
" transform="scale(0.015625)"/>
     <path id="DejaVuSans-Bold-29" d="M 513 -844 
Q 913 -100 1113 609 
Q 1313 1319 1313 2009 
Q 1313 2700 1113 3408 
Q 913 4116 513 4856 
L 1441 4856 
Q 1916 4091 2145 3389 
Q 2375 2688 2375 2003 
Q 2375 1319 2147 623 
Q 1919 -72 1441 -844 
L 513 -844 
z
" transform="scale(0.015625)"/>
    </defs>
    <use xlink:href="#DejaVuSans-Bold-4d"/>
    <use xlink:href="#DejaVuSans-Bold-61" transform="translate(99.511719 0)"/>
    <use xlink:href="#DejaVuSans-Bold-74" transform="translate(166.992188 0)"/>
    <use xlink:href="#DejaVuSans-Bold-73" transform="translate(214.794922 0)"/>
    <use xlink:href="#DejaVuSans-Bold-75" transform="translate(274.316406 0)"/>
    <use xlink:href="#DejaVuSans-Bold-73" transform="translate(345.507812 0)"/>
    <use xlink:href="#DejaVuSans-Bold-68" transform="translate(405.029297 0)"/>
    <use xlink:href="#DejaVuSans-Bold-69" transform="translate(476.220703 0)"/>
    <use xlink:href="#DejaVuSans-Bold-6d" transform="translate(510.498047 0)"/>
    <use xlink:href="#DejaVuSans-Bold-61" transform="translate(614.697266 0)"/>
    <use xlink:href="#DejaVuSans-Bold-32" transform="translate(682.177734 0)"/>
    <use xlink:href="#DejaVuSans-Bold-30" transform="translate(751.757812 0)"/>
    <use xlink:href="#DejaVuSans-Bold-31" transform="translate(821.337891 0)"/>
    <use xlink:href="#DejaVuSans-Bold-33" transform="translate(890.917969 0)"/>
    <use xlink:href="#DejaVuSans-Bold-20" transform="translate(960.498047 0)"/>
    <use xlink:href="#DejaVuSans-Bold-28" transform="translate(995.3125 0)"/>
    <use xlink:href="#DejaVuSans-Bold-68" transform="translate(1041.015625 0)"/>
    <use xlink:href="#DejaVuSans-Bold-65" transform="translate(1112.207031 0)"/>
    <use xlink:href="#DejaVuSans-Bold-61" transform="translate(1180.029297 0)"/>
    <use xlink:href="#DejaVuSans-Bold-6c" transform="translate(1247.509766 0)"/>
    <use xlink:href="#DejaVuSans-Bold-74" transform="translate(1281.787109 0)"/>
    <use xlink:href="#DejaVuSans-Bold-68" transform="translate(1329.589844 0)"/>
    <use xlink:href="#DejaVuSans-Bold-79" transform="translate(1400.78125 0)"/>
    <use xlink:href="#DejaVuSans-Bold-29" transform="translate(1465.966797 0)"/>
   </g>
  </g>
 </g>
 <defs>
  <clipPath id="pa01551fec4">
   <rect x="73.795625" y="43.2" width="339.652174" height="277.2"/>
  </clipPath>
  <clipPath id="p9adb9670a2">
   <rect x="515.343451" y="43.2" width="339.652174" height="277.2"/>
  </clipPath>
 </defs>
</svg>
