<?xml version="1.0" encoding="utf-8" standalone="no"?>
<!DOCTYPE svg PUBLIC "-//W3C//DTD SVG 1.1//EN"
  "http://www.w3.org/Graphics/SVG/1.1/DTD/svg11.dtd">
<svg xmlns:xlink="http://www.w3.org/1999/xlink" width="843.108125pt" height="370.537812pt" viewBox="0 0 843.108125 370.537812" xmlns="http://www.w3.org/2000/svg" version="1.1">
 <metadata>
  <rdf:RDF xmlns:dc="http://purl.org/dc/elements/1.1/" xmlns:cc="http://creativecommons.org/ns#" xmlns:rdf="http://www.w3.org/1999/02/22-rdf-syntax-ns#">
   <cc:Work>
    <dc:type rdf:resource="http://purl.org/dc/dcmitype/StillImage"/>
    <dc:date>2026-01-06T17:44:27.956774</dc:date>
    <dc:format>image/svg+xml</dc:format>
    <dc:creator>
     <cc:Agent>
      <dc:title>Matplotlib v3.10.7, https://matplotlib.org/</dc:title>
     </cc:Agent>
    </dc:creator>
   </cc:Work>
  </rdf:RDF>
 </metadata>
 <defs>
  <style type="text/css">*{stroke-linejoin: round; stroke-linecap: butt}</style>
 </defs>
 <g id="figure_1">
  <g id="patch_1">
   <path d="M 0 370.537812 
L 843.108125 370.537812 
L 843.108125 0 
L 0 0 
z
" style="fill: #ffffff"/>
  </g>
  <g id="axes_1">
   <g id="patch_2">
    <path d="M 54.708125 320.4 
L 394.360299 320.4 
L 394.360299 43.2 
L 54.708125 43.2 
z
" style="fill: #ffffff"/>
   </g>
   <g id="matplotlib.axis_1">
    <g id="xtick_1">
     <g id="line2d_1">
      <defs>
       <path id="m5a0127e787" d="M 0 0 
L 0 3.5 
" style="stroke: #000000; stroke-width: 0.8"/>
      </defs>
      <g>
       <use xlink:href="#m5a0127e787" x="70.14686" y="320.4" style="stroke: #000000; stroke-width: 0.8"/>
      </g>
     </g>
     <g id="text_1">
      <!-- 0 -->
      <g transform="translate(65.374985 338.797656) scale(0.15 -0.15)">
       <defs>
        <path id="DejaVuSans-30" d="M 2034 4250 
Q 1547 4250 1301 3770 
Q 1056 3291 1056 2328 
Q 1056 1369 1301 889 
Q 1547 409 2034 409 
Q 2525 409 2770 889 
Q 3016 1369 3016 2328 
Q 3016 3291 2770 3770 
Q 2525 4250 2034 4250 
z
M 2034 4750 
Q 2819 4750 3233 4129 
Q 3647 3509 3647 2328 
Q 3647 1150 3233 529 
Q 2819 -91 2034 -91 
Q 1250 -91 836 529 
Q 422 1150 422 2328 
Q 422 3509 836 4129 
Q 1250 4750 2034 4750 
z
" transform="scale(0.015625)"/>
       </defs>
       <use xlink:href="#DejaVuSans-30"/>
      </g>
     </g>
    </g>
    <g id="xtick_2">
     <g id="line2d_2">
      <g>
       <use xlink:href="#m5a0127e787" x="154.742669" y="320.4" style="stroke: #000000; stroke-width: 0.8"/>
      </g>
     </g>
     <g id="text_2">
      <!-- 20 -->
      <g transform="translate(145.198919 338.797656) scale(0.15 -0.15)">
       <defs>
        <path id="DejaVuSans-32" d="M 1228 531 
L 3431 531 
L 3431 0 
L 469 0 
L 469 531 
Q 828 903 1448 1529 
Q 2069 2156 2228 2338 
Q 2531 2678 2651 2914 
Q 2772 3150 2772 3378 
Q 2772 3750 2511 3984 
Q 2250 4219 1831 4219 
Q 1534 4219 1204 4116 
Q 875 4013 500 3803 
L 500 4441 
Q 881 4594 1212 4672 
Q 1544 4750 1819 4750 
Q 2544 4750 2975 4387 
Q 3406 4025 3406 3419 
Q 3406 3131 3298 2873 
Q 3191 2616 2906 2266 
Q 2828 2175 2409 1742 
Q 1991 1309 1228 531 
z
" transform="scale(0.015625)"/>
       </defs>
       <use xlink:href="#DejaVuSans-32"/>
       <use xlink:href="#DejaVuSans-30" transform="translate(63.623047 0)"/>
      </g>
     </g>
    </g>
    <g id="xtick_3">
     <g id="line2d_3">
      <g>
       <use xlink:href="#m5a0127e787" x="239.338479" y="320.4" style="stroke: #000000; stroke-width: 0.8"/>
      </g>
     </g>
     <g id="text_3">
      <!-- 40 -->
      <g transform="translate(229.794729 338.797656) scale(0.15 -0.15)">
       <defs>
        <path id="DejaVuSans-34" d="M 2419 4116 
L 825 1625 
L 2419 1625 
L 2419 4116 
z
M 2253 4666 
L 3047 4666 
L 3047 1625 
L 3713 1625 
L 3713 1100 
L 3047 1100 
L 3047 0 
L 2419 0 
L 2419 1100 
L 313 1100 
L 313 1709 
L 2253 4666 
z
" transform="scale(0.015625)"/>
       </defs>
       <use xlink:href="#DejaVuSans-34"/>
       <use xlink:href="#DejaVuSans-30" transform="translate(63.623047 0)"/>
      </g>
     </g>
    </g>
    <g id="xtick_4">
     <g id="line2d_4">
      <g>
       <use xlink:href="#m5a0127e787" x="323.934288" y="320.4" style="stroke: #000000; stroke-width: 0.8"/>
      </g>
     </g>
     <g id="text_4">
      <!-- 60 -->
      <g transform="translate(314.390538 338.797656) scale(0.15 -0.15)">
       <defs>
        <path id="DejaVuSans-36" d="M 2113 2584 
Q 1688 2584 1439 2293 
Q 1191 2003 1191 1497 
Q 1191 994 1439 701 
Q 1688 409 2113 409 
Q 2538 409 2786 701 
Q 3034 994 3034 1497 
Q 3034 2003 2786 2293 
Q 2538 2584 2113 2584 
z
M 3366 4563 
L 3366 3988 
Q 3128 4100 2886 4159 
Q 2644 4219 2406 4219 
Q 1781 4219 1451 3797 
Q 1122 3375 1075 2522 
Q 1259 2794 1537 2939 
Q 1816 3084 2150 3084 
Q 2853 3084 3261 2657 
Q 3669 2231 3669 1497 
Q 3669 778 3244 343 
Q 2819 -91 2113 -91 
Q 1303 -91 875 529 
Q 447 1150 447 2328 
Q 447 3434 972 4092 
Q 1497 4750 2381 4750 
Q 2619 4750 2861 4703 
Q 3103 4656 3366 4563 
z
" transform="scale(0.015625)"/>
       </defs>
       <use xlink:href="#DejaVuSans-36"/>
       <use xlink:href="#DejaVuSans-30" transform="translate(63.623047 0)"/>
      </g>
     </g>
    </g>
    <g id="text_5">
     <!-- time [hr] -->
     <g transform="translate(179.459681 359.594375) scale(0.18 -0.18)">
      <defs>
       <path id="DejaVuSans-Bold-74" d="M 1759 4494 
L 1759 3500 
L 2913 3500 
L 2913 2700 
L 1759 2700 
L 1759 1216 
Q 1759 972 1856 886 
Q 1953 800 2241 800 
L 2816 800 
L 2816 0 
L 1856 0 
Q 1194 0 917 276 
Q 641 553 641 1216 
L 641 2700 
L 84 2700 
L 84 3500 
L 641 3500 
L 641 4494 
L 1759 4494 
z
" transform="scale(0.015625)"/>
       <path id="DejaVuSans-Bold-69" d="M 538 3500 
L 1656 3500 
L 1656 0 
L 538 0 
L 538 3500 
z
M 538 4863 
L 1656 4863 
L 1656 3950 
L 538 3950 
L 538 4863 
z
" transform="scale(0.015625)"/>
       <path id="DejaVuSans-Bold-6d" d="M 3781 2919 
Q 3994 3244 4286 3414 
Q 4578 3584 4928 3584 
Q 5531 3584 5847 3212 
Q 6163 2841 6163 2131 
L 6163 0 
L 5038 0 
L 5038 1825 
Q 5041 1866 5042 1909 
Q 5044 1953 5044 2034 
Q 5044 2406 4934 2573 
Q 4825 2741 4581 2741 
Q 4263 2741 4089 2478 
Q 3916 2216 3909 1719 
L 3909 0 
L 2784 0 
L 2784 1825 
Q 2784 2406 2684 2573 
Q 2584 2741 2328 2741 
Q 2006 2741 1831 2477 
Q 1656 2213 1656 1722 
L 1656 0 
L 531 0 
L 531 3500 
L 1656 3500 
L 1656 2988 
Q 1863 3284 2130 3434 
Q 2397 3584 2719 3584 
Q 3081 3584 3359 3409 
Q 3638 3234 3781 2919 
z
" transform="scale(0.015625)"/>
       <path id="DejaVuSans-Bold-65" d="M 4031 1759 
L 4031 1441 
L 1416 1441 
Q 1456 1047 1700 850 
Q 1944 653 2381 653 
Q 2734 653 3104 758 
Q 3475 863 3866 1075 
L 3866 213 
Q 3469 63 3072 -14 
Q 2675 -91 2278 -91 
Q 1328 -91 801 392 
Q 275 875 275 1747 
Q 275 2603 792 3093 
Q 1309 3584 2216 3584 
Q 3041 3584 3536 3087 
Q 4031 2591 4031 1759 
z
M 2881 2131 
Q 2881 2450 2695 2645 
Q 2509 2841 2209 2841 
Q 1884 2841 1681 2658 
Q 1478 2475 1428 2131 
L 2881 2131 
z
" transform="scale(0.015625)"/>
       <path id="DejaVuSans-Bold-20" transform="scale(0.015625)"/>
       <path id="DejaVuSans-Bold-5b" d="M 550 4863 
L 2491 4863 
L 2491 4159 
L 1613 4159 
L 1613 -141 
L 2491 -141 
L 2491 -844 
L 550 -844 
L 550 4863 
z
" transform="scale(0.015625)"/>
       <path id="DejaVuSans-Bold-68" d="M 4056 2131 
L 4056 0 
L 2931 0 
L 2931 347 
L 2931 1625 
Q 2931 2084 2911 2256 
Q 2891 2428 2841 2509 
Q 2775 2619 2662 2680 
Q 2550 2741 2406 2741 
Q 2056 2741 1856 2470 
Q 1656 2200 1656 1722 
L 1656 0 
L 538 0 
L 538 4863 
L 1656 4863 
L 1656 2988 
Q 1909 3294 2193 3439 
Q 2478 3584 2822 3584 
Q 3428 3584 3742 3212 
Q 4056 2841 4056 2131 
z
" transform="scale(0.015625)"/>
       <path id="DejaVuSans-Bold-72" d="M 3138 2547 
Q 2991 2616 2845 2648 
Q 2700 2681 2553 2681 
Q 2122 2681 1889 2404 
Q 1656 2128 1656 1613 
L 1656 0 
L 538 0 
L 538 3500 
L 1656 3500 
L 1656 2925 
Q 1872 3269 2151 3426 
Q 2431 3584 2822 3584 
Q 2878 3584 2943 3579 
Q 3009 3575 3134 3559 
L 3138 2547 
z
" transform="scale(0.015625)"/>
       <path id="DejaVuSans-Bold-5d" d="M 2375 -844 
L 434 -844 
L 434 -141 
L 1313 -141 
L 1313 4159 
L 434 4159 
L 434 4863 
L 2375 4863 
L 2375 -844 
z
" transform="scale(0.015625)"/>
      </defs>
      <use xlink:href="#DejaVuSans-Bold-74"/>
      <use xlink:href="#DejaVuSans-Bold-69" transform="translate(47.802734 0)"/>
      <use xlink:href="#DejaVuSans-Bold-6d" transform="translate(82.080078 0)"/>
      <use xlink:href="#DejaVuSans-Bold-65" transform="translate(186.279297 0)"/>
      <use xlink:href="#DejaVuSans-Bold-20" transform="translate(254.101562 0)"/>
      <use xlink:href="#DejaVuSans-Bold-5b" transform="translate(288.916016 0)"/>
      <use xlink:href="#DejaVuSans-Bold-68" transform="translate(334.619141 0)"/>
      <use xlink:href="#DejaVuSans-Bold-72" transform="translate(405.810547 0)"/>
      <use xlink:href="#DejaVuSans-Bold-5d" transform="translate(455.126953 0)"/>
     </g>
    </g>
   </g>
   <g id="matplotlib.axis_2">
    <g id="ytick_1">
     <g id="line2d_5">
      <defs>
       <path id="m57aa363e5b" d="M 0 0 
L -3.5 0 
" style="stroke: #000000; stroke-width: 0.8"/>
      </defs>
      <g>
       <use xlink:href="#m57aa363e5b" x="54.708125" y="297.9224" style="stroke: #000000; stroke-width: 0.8"/>
      </g>
     </g>
     <g id="text_6">
      <!-- 30 -->
      <g transform="translate(28.620625 303.621229) scale(0.15 -0.15)">
       <defs>
        <path id="DejaVuSans-33" d="M 2597 2516 
Q 3050 2419 3304 2112 
Q 3559 1806 3559 1356 
Q 3559 666 3084 287 
Q 2609 -91 1734 -91 
Q 1441 -91 1130 -33 
Q 819 25 488 141 
L 488 750 
Q 750 597 1062 519 
Q 1375 441 1716 441 
Q 2309 441 2620 675 
Q 2931 909 2931 1356 
Q 2931 1769 2642 2001 
Q 2353 2234 1838 2234 
L 1294 2234 
L 1294 2753 
L 1863 2753 
Q 2328 2753 2575 2939 
Q 2822 3125 2822 3475 
Q 2822 3834 2567 4026 
Q 2313 4219 1838 4219 
Q 1578 4219 1281 4162 
Q 984 4106 628 3988 
L 628 4550 
Q 988 4650 1302 4700 
Q 1616 4750 1894 4750 
Q 2613 4750 3031 4423 
Q 3450 4097 3450 3541 
Q 3450 3153 3228 2886 
Q 3006 2619 2597 2516 
z
" transform="scale(0.015625)"/>
       </defs>
       <use xlink:href="#DejaVuSans-33"/>
       <use xlink:href="#DejaVuSans-30" transform="translate(63.623047 0)"/>
      </g>
     </g>
    </g>
    <g id="ytick_2">
     <g id="line2d_6">
      <g>
       <use xlink:href="#m57aa363e5b" x="54.708125" y="236.949564" style="stroke: #000000; stroke-width: 0.8"/>
      </g>
     </g>
     <g id="text_7">
      <!-- 40 -->
      <g transform="translate(28.620625 242.648392) scale(0.15 -0.15)">
       <use xlink:href="#DejaVuSans-34"/>
       <use xlink:href="#DejaVuSans-30" transform="translate(63.623047 0)"/>
      </g>
     </g>
    </g>
    <g id="ytick_3">
     <g id="line2d_7">
      <g>
       <use xlink:href="#m57aa363e5b" x="54.708125" y="175.976727" style="stroke: #000000; stroke-width: 0.8"/>
      </g>
     </g>
     <g id="text_8">
      <!-- 50 -->
      <g transform="translate(28.620625 181.675556) scale(0.15 -0.15)">
       <defs>
        <path id="DejaVuSans-35" d="M 691 4666 
L 3169 4666 
L 3169 4134 
L 1269 4134 
L 1269 2991 
Q 1406 3038 1543 3061 
Q 1681 3084 1819 3084 
Q 2600 3084 3056 2656 
Q 3513 2228 3513 1497 
Q 3513 744 3044 326 
Q 2575 -91 1722 -91 
Q 1428 -91 1123 -41 
Q 819 9 494 109 
L 494 744 
Q 775 591 1075 516 
Q 1375 441 1709 441 
Q 2250 441 2565 725 
Q 2881 1009 2881 1497 
Q 2881 1984 2565 2268 
Q 2250 2553 1709 2553 
Q 1456 2553 1204 2497 
Q 953 2441 691 2322 
L 691 4666 
z
" transform="scale(0.015625)"/>
       </defs>
       <use xlink:href="#DejaVuSans-35"/>
       <use xlink:href="#DejaVuSans-30" transform="translate(63.623047 0)"/>
      </g>
     </g>
    </g>
    <g id="ytick_4">
     <g id="line2d_8">
      <g>
       <use xlink:href="#m57aa363e5b" x="54.708125" y="115.003891" style="stroke: #000000; stroke-width: 0.8"/>
      </g>
     </g>
     <g id="text_9">
      <!-- 60 -->
      <g transform="translate(28.620625 120.702719) scale(0.15 -0.15)">
       <use xlink:href="#DejaVuSans-36"/>
       <use xlink:href="#DejaVuSans-30" transform="translate(63.623047 0)"/>
      </g>
     </g>
    </g>
    <g id="ytick_5">
     <g id="line2d_9">
      <g>
       <use xlink:href="#m57aa363e5b" x="54.708125" y="54.031054" style="stroke: #000000; stroke-width: 0.8"/>
      </g>
     </g>
     <g id="text_10">
      <!-- 70 -->
      <g transform="translate(28.620625 59.729883) scale(0.15 -0.15)">
       <defs>
        <path id="DejaVuSans-37" d="M 525 4666 
L 3525 4666 
L 3525 4397 
L 1831 0 
L 1172 0 
L 2766 4134 
L 525 4134 
L 525 4666 
z
" transform="scale(0.015625)"/>
       </defs>
       <use xlink:href="#DejaVuSans-37"/>
       <use xlink:href="#DejaVuSans-30" transform="translate(63.623047 0)"/>
      </g>
     </g>
    </g>
    <g id="text_11">
     <!-- aPTT [s] -->
     <g transform="translate(20.877188 223.668281) rotate(-90) scale(0.18 -0.18)">
      <defs>
       <path id="DejaVuSans-Bold-61" d="M 2106 1575 
Q 1756 1575 1579 1456 
Q 1403 1338 1403 1106 
Q 1403 894 1545 773 
Q 1688 653 1941 653 
Q 2256 653 2472 879 
Q 2688 1106 2688 1447 
L 2688 1575 
L 2106 1575 
z
M 3816 1997 
L 3816 0 
L 2688 0 
L 2688 519 
Q 2463 200 2181 54 
Q 1900 -91 1497 -91 
Q 953 -91 614 226 
Q 275 544 275 1050 
Q 275 1666 698 1953 
Q 1122 2241 2028 2241 
L 2688 2241 
L 2688 2328 
Q 2688 2594 2478 2717 
Q 2269 2841 1825 2841 
Q 1466 2841 1156 2769 
Q 847 2697 581 2553 
L 581 3406 
Q 941 3494 1303 3539 
Q 1666 3584 2028 3584 
Q 2975 3584 3395 3211 
Q 3816 2838 3816 1997 
z
" transform="scale(0.015625)"/>
       <path id="DejaVuSans-Bold-50" d="M 588 4666 
L 2584 4666 
Q 3475 4666 3951 4270 
Q 4428 3875 4428 3144 
Q 4428 2409 3951 2014 
Q 3475 1619 2584 1619 
L 1791 1619 
L 1791 0 
L 588 0 
L 588 4666 
z
M 1791 3794 
L 1791 2491 
L 2456 2491 
Q 2806 2491 2997 2661 
Q 3188 2831 3188 3144 
Q 3188 3456 2997 3625 
Q 2806 3794 2456 3794 
L 1791 3794 
z
" transform="scale(0.015625)"/>
       <path id="DejaVuSans-Bold-54" d="M 31 4666 
L 4331 4666 
L 4331 3756 
L 2784 3756 
L 2784 0 
L 1581 0 
L 1581 3756 
L 31 3756 
L 31 4666 
z
" transform="scale(0.015625)"/>
       <path id="DejaVuSans-Bold-73" d="M 3272 3391 
L 3272 2541 
Q 2913 2691 2578 2766 
Q 2244 2841 1947 2841 
Q 1628 2841 1473 2761 
Q 1319 2681 1319 2516 
Q 1319 2381 1436 2309 
Q 1553 2238 1856 2203 
L 2053 2175 
Q 2913 2066 3209 1816 
Q 3506 1566 3506 1031 
Q 3506 472 3093 190 
Q 2681 -91 1863 -91 
Q 1516 -91 1145 -36 
Q 775 19 384 128 
L 384 978 
Q 719 816 1070 734 
Q 1422 653 1784 653 
Q 2113 653 2278 743 
Q 2444 834 2444 1013 
Q 2444 1163 2330 1236 
Q 2216 1309 1875 1350 
L 1678 1375 
Q 931 1469 631 1722 
Q 331 1975 331 2491 
Q 331 3047 712 3315 
Q 1094 3584 1881 3584 
Q 2191 3584 2531 3537 
Q 2872 3491 3272 3391 
z
" transform="scale(0.015625)"/>
      </defs>
      <use xlink:href="#DejaVuSans-Bold-61"/>
      <use xlink:href="#DejaVuSans-Bold-50" transform="translate(67.480469 0)"/>
      <use xlink:href="#DejaVuSans-Bold-54" transform="translate(140.771484 0)"/>
      <use xlink:href="#DejaVuSans-Bold-54" transform="translate(211.234375 0)"/>
      <use xlink:href="#DejaVuSans-Bold-20" transform="translate(279.447266 0)"/>
      <use xlink:href="#DejaVuSans-Bold-5b" transform="translate(314.261719 0)"/>
      <use xlink:href="#DejaVuSans-Bold-73" transform="translate(359.964844 0)"/>
      <use xlink:href="#DejaVuSans-Bold-5d" transform="translate(419.486328 0)"/>
     </g>
    </g>
   </g>
   <g id="LineCollection_1">
    <path clip-path="url(#pb6c91981f9)" style="fill: none; stroke: #1f77b4"/>
    <path clip-path="url(#pb6c91981f9)" style="fill: none; stroke: #1f77b4"/>
    <path clip-path="url(#pb6c91981f9)" style="fill: none; stroke: #1f77b4"/>
    <path clip-path="url(#pb6c91981f9)" style="fill: none; stroke: #1f77b4"/>
    <path clip-path="url(#pb6c91981f9)" style="fill: none; stroke: #1f77b4"/>
    <path clip-path="url(#pb6c91981f9)" style="fill: none; stroke: #1f77b4"/>
    <path clip-path="url(#pb6c91981f9)" style="fill: none; stroke: #1f77b4"/>
   </g>
   <g id="LineCollection_2">
    <path clip-path="url(#pb6c91981f9)" style="fill: none; stroke: #000000"/>
    <path clip-path="url(#pb6c91981f9)" style="fill: none; stroke: #000000"/>
    <path clip-path="url(#pb6c91981f9)" style="fill: none; stroke: #000000"/>
    <path clip-path="url(#pb6c91981f9)" style="fill: none; stroke: #000000"/>
    <path clip-path="url(#pb6c91981f9)" style="fill: none; stroke: #000000"/>
    <path clip-path="url(#pb6c91981f9)" style="fill: none; stroke: #000000"/>
    <path clip-path="url(#pb6c91981f9)" style="fill: none; stroke: #000000"/>
   </g>
   <g id="line2d_10">
    <path d="M 70.14686 307.8 
L 70.532829 302.344331 
L 72.46267 240.665686 
L 73.234607 226.707399 
L 74.006544 217.755455 
L 74.778481 212.264626 
L 75.550417 209.196737 
L 75.936386 208.34645 
L 76.322354 207.86326 
L 76.708323 207.694666 
L 77.094291 207.796659 
L 77.480259 208.132056 
L 78.252196 209.380942 
L 79.024133 211.237602 
L 80.182038 214.836745 
L 81.725912 220.602714 
L 84.42769 231.841269 
L 88.287374 247.72692 
L 90.603184 256.352418 
L 92.918995 264.075005 
L 94.848836 269.793984 
L 96.778678 274.878367 
L 98.70852 279.364197 
L 100.638362 283.297777 
L 102.568204 286.729951 
L 104.498046 289.712382 
L 106.427888 292.295205 
L 108.35773 294.525615 
L 110.287572 296.447108 
L 112.217414 298.099144 
L 114.533224 299.77543 
L 116.849034 301.168076 
L 119.164844 302.323133 
L 121.866623 303.422383 
L 124.95437 304.413978 
L 128.428085 305.265758 
L 132.287769 305.964739 
L 136.91939 306.554936 
L 142.322947 307.008785 
L 149.270378 307.358595 
L 158.919587 307.603889 
L 174.358323 307.746489 
L 210.63935 307.797473 
L 378.921564 307.8 
L 378.921564 307.8 
" clip-path="url(#pb6c91981f9)" style="fill: none; stroke: #1f77b4; stroke-width: 2; stroke-linecap: square"/>
   </g>
   <g id="line2d_11">
    <path d="M 70.14686 307.8 
L 78.606441 258.412002 
L 87.066022 266.765281 
L 103.985184 284.508376 
L 120.904346 296.154188 
L 171.661831 302.922173 
L 374.691773 306.702489 
" clip-path="url(#pb6c91981f9)" style="fill: none; stroke-dasharray: 3.7,1.6; stroke-dashoffset: 0; stroke: #1f77b4"/>
    <defs>
     <path id="ma4972af920" d="M -3 3 
L 3 3 
L 3 -3 
L -3 -3 
z
" style="stroke: #000000; stroke-linejoin: miter"/>
    </defs>
    <g clip-path="url(#pb6c91981f9)">
     <use xlink:href="#ma4972af920" x="70.14686" y="307.8" style="fill: #1f77b4; stroke: #000000; stroke-linejoin: miter"/>
     <use xlink:href="#ma4972af920" x="78.606441" y="258.412002" style="fill: #1f77b4; stroke: #000000; stroke-linejoin: miter"/>
     <use xlink:href="#ma4972af920" x="87.066022" y="266.765281" style="fill: #1f77b4; stroke: #000000; stroke-linejoin: miter"/>
     <use xlink:href="#ma4972af920" x="103.985184" y="284.508376" style="fill: #1f77b4; stroke: #000000; stroke-linejoin: miter"/>
     <use xlink:href="#ma4972af920" x="120.904346" y="296.154188" style="fill: #1f77b4; stroke: #000000; stroke-linejoin: miter"/>
     <use xlink:href="#ma4972af920" x="171.661831" y="302.922173" style="fill: #1f77b4; stroke: #000000; stroke-linejoin: miter"/>
     <use xlink:href="#ma4972af920" x="374.691773" y="306.702489" style="fill: #1f77b4; stroke: #000000; stroke-linejoin: miter"/>
    </g>
   </g>
   <g id="line2d_12">
    <path d="M 70.14686 307.556109 
L 70.173296 275.881247 
L 70.374211 142.441759 
L 70.641217 95.330086 
L 70.958451 74.357232 
L 71.312696 64.189563 
L 71.690734 59.093907 
L 72.084633 56.496093 
L 72.261755 55.8 
L 72.261755 55.8 
L 73.795054 241.780501 
L 74.178379 268.836522 
L 74.561704 285.664524 
L 74.945029 295.475932 
L 75.328353 300.98204 
L 75.711678 304.005975 
L 76.095003 305.64702 
L 76.478328 306.53183 
L 76.861653 307.007229 
L 77.628302 307.398757 
L 78.778276 307.531989 
L 83.378173 307.556095 
L 378.921564 307.556109 
L 378.921564 307.556109 
" clip-path="url(#pb6c91981f9)" style="fill: none; stroke: #000000; stroke-width: 2; stroke-linecap: square"/>
   </g>
   <g id="line2d_13">
    <path d="M 70.14686 307.556109 
L 78.606441 266.09458 
L 87.066022 276.398989 
L 103.985184 295.910297 
L 120.904346 301.153961 
L 171.661831 305.300114 
L 374.691773 305.787896 
" clip-path="url(#pb6c91981f9)" style="fill: none; stroke-dasharray: 3.7,1.6; stroke-dashoffset: 0; stroke: #000000"/>
    <defs>
     <path id="med87011c4c" d="M -3 3 
L 3 3 
L 3 -3 
L -3 -3 
z
" style="stroke: #000000; stroke-linejoin: miter"/>
    </defs>
    <g clip-path="url(#pb6c91981f9)">
     <use xlink:href="#med87011c4c" x="70.14686" y="307.556109" style="stroke: #000000; stroke-linejoin: miter"/>
     <use xlink:href="#med87011c4c" x="78.606441" y="266.09458" style="stroke: #000000; stroke-linejoin: miter"/>
     <use xlink:href="#med87011c4c" x="87.066022" y="276.398989" style="stroke: #000000; stroke-linejoin: miter"/>
     <use xlink:href="#med87011c4c" x="103.985184" y="295.910297" style="stroke: #000000; stroke-linejoin: miter"/>
     <use xlink:href="#med87011c4c" x="120.904346" y="301.153961" style="stroke: #000000; stroke-linejoin: miter"/>
     <use xlink:href="#med87011c4c" x="171.661831" y="305.300114" style="stroke: #000000; stroke-linejoin: miter"/>
     <use xlink:href="#med87011c4c" x="374.691773" y="305.787896" style="stroke: #000000; stroke-linejoin: miter"/>
    </g>
   </g>
   <g id="patch_3">
    <path d="M 54.708125 320.4 
L 54.708125 43.2 
" style="fill: none; stroke: #000000; stroke-width: 0.8; stroke-linejoin: miter; stroke-linecap: square"/>
   </g>
   <g id="patch_4">
    <path d="M 394.360299 320.4 
L 394.360299 43.2 
" style="fill: none; stroke: #000000; stroke-width: 0.8; stroke-linejoin: miter; stroke-linecap: square"/>
   </g>
   <g id="patch_5">
    <path d="M 54.708125 320.4 
L 394.360299 320.4 
" style="fill: none; stroke: #000000; stroke-width: 0.8; stroke-linejoin: miter; stroke-linecap: square"/>
   </g>
   <g id="patch_6">
    <path d="M 54.708125 43.2 
L 394.360299 43.2 
" style="fill: none; stroke: #000000; stroke-width: 0.8; stroke-linejoin: miter; stroke-linecap: square"/>
   </g>
   <g id="legend_1">
    <g id="patch_7">
     <path d="M 252.974361 110.46875 
L 387.360299 110.46875 
Q 389.360299 110.46875 389.360299 108.46875 
L 389.360299 50.2 
Q 389.360299 48.2 387.360299 48.2 
L 252.974361 48.2 
Q 250.974361 48.2 250.974361 50.2 
L 250.974361 108.46875 
Q 250.974361 110.46875 252.974361 110.46875 
z
" style="fill: #ffffff; opacity: 0.8; stroke: #cccccc; stroke-linejoin: miter"/>
    </g>
    <g id="line2d_14">
     <path d="M 254.974361 56.298437 
L 274.974361 56.298437 
" style="fill: none; stroke: #1f77b4; stroke-width: 2; stroke-linecap: square"/>
    </g>
    <g id="line2d_15"/>
    <g id="text_12">
     <!-- ED60 -->
     <g transform="translate(282.974361 59.798437) scale(0.1 -0.1)">
      <defs>
       <path id="DejaVuSans-45" d="M 628 4666 
L 3578 4666 
L 3578 4134 
L 1259 4134 
L 1259 2753 
L 3481 2753 
L 3481 2222 
L 1259 2222 
L 1259 531 
L 3634 531 
L 3634 0 
L 628 0 
L 628 4666 
z
" transform="scale(0.015625)"/>
       <path id="DejaVuSans-44" d="M 1259 4147 
L 1259 519 
L 2022 519 
Q 2988 519 3436 956 
Q 3884 1394 3884 2338 
Q 3884 3275 3436 3711 
Q 2988 4147 2022 4147 
L 1259 4147 
z
M 628 4666 
L 1925 4666 
Q 3281 4666 3915 4102 
Q 4550 3538 4550 2338 
Q 4550 1131 3912 565 
Q 3275 0 1925 0 
L 628 0 
L 628 4666 
z
" transform="scale(0.015625)"/>
      </defs>
      <use xlink:href="#DejaVuSans-45"/>
      <use xlink:href="#DejaVuSans-44" transform="translate(63.183594 0)"/>
      <use xlink:href="#DejaVuSans-36" transform="translate(140.185547 0)"/>
      <use xlink:href="#DejaVuSans-30" transform="translate(203.808594 0)"/>
     </g>
    </g>
    <g id="LineCollection_3">
     <path d="M 264.974361 75.976562 
L 264.974361 65.976562 
" style="fill: none; stroke: #1f77b4"/>
    </g>
    <g id="line2d_16">
     <path d="M 254.974361 70.976562 
L 274.974361 70.976562 
" style="fill: none; stroke-dasharray: 3.7,1.6; stroke-dashoffset: 0; stroke: #1f77b4"/>
    </g>
    <g id="line2d_17">
     <g>
      <use xlink:href="#ma4972af920" x="264.974361" y="70.976562" style="fill: #1f77b4; stroke: #000000; stroke-linejoin: miter"/>
     </g>
    </g>
    <g id="text_13">
     <!-- ED60±SD (n=35) -->
     <g transform="translate(282.974361 74.476562) scale(0.1 -0.1)">
      <defs>
       <path id="DejaVuSans-b1" d="M 2944 4013 
L 2944 2803 
L 4684 2803 
L 4684 2272 
L 2944 2272 
L 2944 1063 
L 2419 1063 
L 2419 2272 
L 678 2272 
L 678 2803 
L 2419 2803 
L 2419 4013 
L 2944 4013 
z
M 678 531 
L 4684 531 
L 4684 0 
L 678 0 
L 678 531 
z
" transform="scale(0.015625)"/>
       <path id="DejaVuSans-53" d="M 3425 4513 
L 3425 3897 
Q 3066 4069 2747 4153 
Q 2428 4238 2131 4238 
Q 1616 4238 1336 4038 
Q 1056 3838 1056 3469 
Q 1056 3159 1242 3001 
Q 1428 2844 1947 2747 
L 2328 2669 
Q 3034 2534 3370 2195 
Q 3706 1856 3706 1288 
Q 3706 609 3251 259 
Q 2797 -91 1919 -91 
Q 1588 -91 1214 -16 
Q 841 59 441 206 
L 441 856 
Q 825 641 1194 531 
Q 1563 422 1919 422 
Q 2459 422 2753 634 
Q 3047 847 3047 1241 
Q 3047 1584 2836 1778 
Q 2625 1972 2144 2069 
L 1759 2144 
Q 1053 2284 737 2584 
Q 422 2884 422 3419 
Q 422 4038 858 4394 
Q 1294 4750 2059 4750 
Q 2388 4750 2728 4690 
Q 3069 4631 3425 4513 
z
" transform="scale(0.015625)"/>
       <path id="DejaVuSans-20" transform="scale(0.015625)"/>
       <path id="DejaVuSans-28" d="M 1984 4856 
Q 1566 4138 1362 3434 
Q 1159 2731 1159 2009 
Q 1159 1288 1364 580 
Q 1569 -128 1984 -844 
L 1484 -844 
Q 1016 -109 783 600 
Q 550 1309 550 2009 
Q 550 2706 781 3412 
Q 1013 4119 1484 4856 
L 1984 4856 
z
" transform="scale(0.015625)"/>
       <path id="DejaVuSans-6e" d="M 3513 2113 
L 3513 0 
L 2938 0 
L 2938 2094 
Q 2938 2591 2744 2837 
Q 2550 3084 2163 3084 
Q 1697 3084 1428 2787 
Q 1159 2491 1159 1978 
L 1159 0 
L 581 0 
L 581 3500 
L 1159 3500 
L 1159 2956 
Q 1366 3272 1645 3428 
Q 1925 3584 2291 3584 
Q 2894 3584 3203 3211 
Q 3513 2838 3513 2113 
z
" transform="scale(0.015625)"/>
       <path id="DejaVuSans-3d" d="M 678 2906 
L 4684 2906 
L 4684 2381 
L 678 2381 
L 678 2906 
z
M 678 1631 
L 4684 1631 
L 4684 1100 
L 678 1100 
L 678 1631 
z
" transform="scale(0.015625)"/>
       <path id="DejaVuSans-29" d="M 513 4856 
L 1013 4856 
Q 1481 4119 1714 3412 
Q 1947 2706 1947 2009 
Q 1947 1309 1714 600 
Q 1481 -109 1013 -844 
L 513 -844 
Q 928 -128 1133 580 
Q 1338 1288 1338 2009 
Q 1338 2731 1133 3434 
Q 928 4138 513 4856 
z
" transform="scale(0.015625)"/>
      </defs>
      <use xlink:href="#DejaVuSans-45"/>
      <use xlink:href="#DejaVuSans-44" transform="translate(63.183594 0)"/>
      <use xlink:href="#DejaVuSans-36" transform="translate(140.185547 0)"/>
      <use xlink:href="#DejaVuSans-30" transform="translate(203.808594 0)"/>
      <use xlink:href="#DejaVuSans-b1" transform="translate(267.431641 0)"/>
      <use xlink:href="#DejaVuSans-53" transform="translate(351.220703 0)"/>
      <use xlink:href="#DejaVuSans-44" transform="translate(414.697266 0)"/>
      <use xlink:href="#DejaVuSans-20" transform="translate(491.699219 0)"/>
      <use xlink:href="#DejaVuSans-28" transform="translate(523.486328 0)"/>
      <use xlink:href="#DejaVuSans-6e" transform="translate(562.5 0)"/>
      <use xlink:href="#DejaVuSans-3d" transform="translate(625.878906 0)"/>
      <use xlink:href="#DejaVuSans-33" transform="translate(709.667969 0)"/>
      <use xlink:href="#DejaVuSans-35" transform="translate(773.291016 0)"/>
      <use xlink:href="#DejaVuSans-29" transform="translate(836.914062 0)"/>
     </g>
    </g>
    <g id="line2d_18">
     <path d="M 254.974361 85.654687 
L 274.974361 85.654687 
" style="fill: none; stroke: #000000; stroke-width: 2; stroke-linecap: square"/>
    </g>
    <g id="line2d_19"/>
    <g id="text_14">
     <!-- ED30_IV -->
     <g transform="translate(282.974361 89.154687) scale(0.1 -0.1)">
      <defs>
       <path id="DejaVuSans-5f" d="M 3263 -1063 
L 3263 -1509 
L -63 -1509 
L -63 -1063 
L 3263 -1063 
z
" transform="scale(0.015625)"/>
       <path id="DejaVuSans-49" d="M 628 4666 
L 1259 4666 
L 1259 0 
L 628 0 
L 628 4666 
z
" transform="scale(0.015625)"/>
       <path id="DejaVuSans-56" d="M 1831 0 
L 50 4666 
L 709 4666 
L 2188 738 
L 3669 4666 
L 4325 4666 
L 2547 0 
L 1831 0 
z
" transform="scale(0.015625)"/>
      </defs>
      <use xlink:href="#DejaVuSans-45"/>
      <use xlink:href="#DejaVuSans-44" transform="translate(63.183594 0)"/>
      <use xlink:href="#DejaVuSans-33" transform="translate(140.185547 0)"/>
      <use xlink:href="#DejaVuSans-30" transform="translate(203.808594 0)"/>
      <use xlink:href="#DejaVuSans-5f" transform="translate(267.431641 0)"/>
      <use xlink:href="#DejaVuSans-49" transform="translate(317.431641 0)"/>
      <use xlink:href="#DejaVuSans-56" transform="translate(346.923828 0)"/>
     </g>
    </g>
    <g id="LineCollection_4">
     <path d="M 264.974361 105.610937 
L 264.974361 95.610937 
" style="fill: none; stroke: #000000"/>
    </g>
    <g id="line2d_20">
     <path d="M 254.974361 100.610937 
L 274.974361 100.610937 
" style="fill: none; stroke-dasharray: 3.7,1.6; stroke-dashoffset: 0; stroke: #000000"/>
    </g>
    <g id="line2d_21">
     <g>
      <use xlink:href="#med87011c4c" x="264.974361" y="100.610937" style="stroke: #000000; stroke-linejoin: miter"/>
     </g>
    </g>
    <g id="text_15">
     <!-- ED30_IV±SD (n=35) -->
     <g transform="translate(282.974361 104.110937) scale(0.1 -0.1)">
      <use xlink:href="#DejaVuSans-45"/>
      <use xlink:href="#DejaVuSans-44" transform="translate(63.183594 0)"/>
      <use xlink:href="#DejaVuSans-33" transform="translate(140.185547 0)"/>
      <use xlink:href="#DejaVuSans-30" transform="translate(203.808594 0)"/>
      <use xlink:href="#DejaVuSans-5f" transform="translate(267.431641 0)"/>
      <use xlink:href="#DejaVuSans-49" transform="translate(317.431641 0)"/>
      <use xlink:href="#DejaVuSans-56" transform="translate(346.923828 0)"/>
      <use xlink:href="#DejaVuSans-b1" transform="translate(415.332031 0)"/>
      <use xlink:href="#DejaVuSans-53" transform="translate(499.121094 0)"/>
      <use xlink:href="#DejaVuSans-44" transform="translate(562.597656 0)"/>
      <use xlink:href="#DejaVuSans-20" transform="translate(639.599609 0)"/>
      <use xlink:href="#DejaVuSans-28" transform="translate(671.386719 0)"/>
      <use xlink:href="#DejaVuSans-6e" transform="translate(710.400391 0)"/>
      <use xlink:href="#DejaVuSans-3d" transform="translate(773.779297 0)"/>
      <use xlink:href="#DejaVuSans-33" transform="translate(857.568359 0)"/>
      <use xlink:href="#DejaVuSans-35" transform="translate(921.191406 0)"/>
      <use xlink:href="#DejaVuSans-29" transform="translate(984.814453 0)"/>
     </g>
    </g>
   </g>
  </g>
  <g id="axes_2">
   <g id="patch_8">
    <path d="M 496.255951 320.4 
L 835.908125 320.4 
L 835.908125 43.2 
L 496.255951 43.2 
z
" style="fill: #ffffff"/>
   </g>
   <g id="matplotlib.axis_3">
    <g id="xtick_5">
     <g id="line2d_22">
      <g>
       <use xlink:href="#m5a0127e787" x="511.694686" y="320.4" style="stroke: #000000; stroke-width: 0.8"/>
      </g>
     </g>
     <g id="text_16">
      <!-- 0 -->
      <g transform="translate(506.922811 338.797656) scale(0.15 -0.15)">
       <use xlink:href="#DejaVuSans-30"/>
      </g>
     </g>
    </g>
    <g id="xtick_6">
     <g id="line2d_23">
      <g>
       <use xlink:href="#m5a0127e787" x="596.290495" y="320.4" style="stroke: #000000; stroke-width: 0.8"/>
      </g>
     </g>
     <g id="text_17">
      <!-- 20 -->
      <g transform="translate(586.746745 338.797656) scale(0.15 -0.15)">
       <use xlink:href="#DejaVuSans-32"/>
       <use xlink:href="#DejaVuSans-30" transform="translate(63.623047 0)"/>
      </g>
     </g>
    </g>
    <g id="xtick_7">
     <g id="line2d_24">
      <g>
       <use xlink:href="#m5a0127e787" x="680.886305" y="320.4" style="stroke: #000000; stroke-width: 0.8"/>
      </g>
     </g>
     <g id="text_18">
      <!-- 40 -->
      <g transform="translate(671.342555 338.797656) scale(0.15 -0.15)">
       <use xlink:href="#DejaVuSans-34"/>
       <use xlink:href="#DejaVuSans-30" transform="translate(63.623047 0)"/>
      </g>
     </g>
    </g>
    <g id="xtick_8">
     <g id="line2d_25">
      <g>
       <use xlink:href="#m5a0127e787" x="765.482114" y="320.4" style="stroke: #000000; stroke-width: 0.8"/>
      </g>
     </g>
     <g id="text_19">
      <!-- 60 -->
      <g transform="translate(755.938364 338.797656) scale(0.15 -0.15)">
       <use xlink:href="#DejaVuSans-36"/>
       <use xlink:href="#DejaVuSans-30" transform="translate(63.623047 0)"/>
      </g>
     </g>
    </g>
    <g id="text_20">
     <!-- time [hr] -->
     <g transform="translate(621.007507 359.594375) scale(0.18 -0.18)">
      <use xlink:href="#DejaVuSans-Bold-74"/>
      <use xlink:href="#DejaVuSans-Bold-69" transform="translate(47.802734 0)"/>
      <use xlink:href="#DejaVuSans-Bold-6d" transform="translate(82.080078 0)"/>
      <use xlink:href="#DejaVuSans-Bold-65" transform="translate(186.279297 0)"/>
      <use xlink:href="#DejaVuSans-Bold-20" transform="translate(254.101562 0)"/>
      <use xlink:href="#DejaVuSans-Bold-5b" transform="translate(288.916016 0)"/>
      <use xlink:href="#DejaVuSans-Bold-68" transform="translate(334.619141 0)"/>
      <use xlink:href="#DejaVuSans-Bold-72" transform="translate(405.810547 0)"/>
      <use xlink:href="#DejaVuSans-Bold-5d" transform="translate(455.126953 0)"/>
     </g>
    </g>
   </g>
   <g id="matplotlib.axis_4">
    <g id="ytick_6">
     <g id="line2d_26">
      <g>
       <use xlink:href="#m57aa363e5b" x="496.255951" y="313.84422" style="stroke: #000000; stroke-width: 0.8"/>
      </g>
     </g>
     <g id="text_21">
      <!-- 10.0 -->
      <g transform="translate(455.857514 319.543048) scale(0.15 -0.15)">
       <defs>
        <path id="DejaVuSans-31" d="M 794 531 
L 1825 531 
L 1825 4091 
L 703 3866 
L 703 4441 
L 1819 4666 
L 2450 4666 
L 2450 531 
L 3481 531 
L 3481 0 
L 794 0 
L 794 531 
z
" transform="scale(0.015625)"/>
        <path id="DejaVuSans-2e" d="M 684 794 
L 1344 794 
L 1344 0 
L 684 0 
L 684 794 
z
" transform="scale(0.015625)"/>
       </defs>
       <use xlink:href="#DejaVuSans-31"/>
       <use xlink:href="#DejaVuSans-30" transform="translate(63.623047 0)"/>
       <use xlink:href="#DejaVuSans-2e" transform="translate(127.246094 0)"/>
       <use xlink:href="#DejaVuSans-30" transform="translate(159.033203 0)"/>
      </g>
     </g>
    </g>
    <g id="ytick_7">
     <g id="line2d_27">
      <g>
       <use xlink:href="#m57aa363e5b" x="496.255951" y="280.26522" style="stroke: #000000; stroke-width: 0.8"/>
      </g>
     </g>
     <g id="text_22">
      <!-- 12.5 -->
      <g transform="translate(455.857514 285.964048) scale(0.15 -0.15)">
       <use xlink:href="#DejaVuSans-31"/>
       <use xlink:href="#DejaVuSans-32" transform="translate(63.623047 0)"/>
       <use xlink:href="#DejaVuSans-2e" transform="translate(127.246094 0)"/>
       <use xlink:href="#DejaVuSans-35" transform="translate(159.033203 0)"/>
      </g>
     </g>
    </g>
    <g id="ytick_8">
     <g id="line2d_28">
      <g>
       <use xlink:href="#m57aa363e5b" x="496.255951" y="246.686221" style="stroke: #000000; stroke-width: 0.8"/>
      </g>
     </g>
     <g id="text_23">
      <!-- 15.0 -->
      <g transform="translate(455.857514 252.385049) scale(0.15 -0.15)">
       <use xlink:href="#DejaVuSans-31"/>
       <use xlink:href="#DejaVuSans-35" transform="translate(63.623047 0)"/>
       <use xlink:href="#DejaVuSans-2e" transform="translate(127.246094 0)"/>
       <use xlink:href="#DejaVuSans-30" transform="translate(159.033203 0)"/>
      </g>
     </g>
    </g>
    <g id="ytick_9">
     <g id="line2d_29">
      <g>
       <use xlink:href="#m57aa363e5b" x="496.255951" y="213.107221" style="stroke: #000000; stroke-width: 0.8"/>
      </g>
     </g>
     <g id="text_24">
      <!-- 17.5 -->
      <g transform="translate(455.857514 218.806049) scale(0.15 -0.15)">
       <use xlink:href="#DejaVuSans-31"/>
       <use xlink:href="#DejaVuSans-37" transform="translate(63.623047 0)"/>
       <use xlink:href="#DejaVuSans-2e" transform="translate(127.246094 0)"/>
       <use xlink:href="#DejaVuSans-35" transform="translate(159.033203 0)"/>
      </g>
     </g>
    </g>
    <g id="ytick_10">
     <g id="line2d_30">
      <g>
       <use xlink:href="#m57aa363e5b" x="496.255951" y="179.528222" style="stroke: #000000; stroke-width: 0.8"/>
      </g>
     </g>
     <g id="text_25">
      <!-- 20.0 -->
      <g transform="translate(455.857514 185.22705) scale(0.15 -0.15)">
       <use xlink:href="#DejaVuSans-32"/>
       <use xlink:href="#DejaVuSans-30" transform="translate(63.623047 0)"/>
       <use xlink:href="#DejaVuSans-2e" transform="translate(127.246094 0)"/>
       <use xlink:href="#DejaVuSans-30" transform="translate(159.033203 0)"/>
      </g>
     </g>
    </g>
    <g id="ytick_11">
     <g id="line2d_31">
      <g>
       <use xlink:href="#m57aa363e5b" x="496.255951" y="145.949222" style="stroke: #000000; stroke-width: 0.8"/>
      </g>
     </g>
     <g id="text_26">
      <!-- 22.5 -->
      <g transform="translate(455.857514 151.64805) scale(0.15 -0.15)">
       <use xlink:href="#DejaVuSans-32"/>
       <use xlink:href="#DejaVuSans-32" transform="translate(63.623047 0)"/>
       <use xlink:href="#DejaVuSans-2e" transform="translate(127.246094 0)"/>
       <use xlink:href="#DejaVuSans-35" transform="translate(159.033203 0)"/>
      </g>
     </g>
    </g>
    <g id="ytick_12">
     <g id="line2d_32">
      <g>
       <use xlink:href="#m57aa363e5b" x="496.255951" y="112.370222" style="stroke: #000000; stroke-width: 0.8"/>
      </g>
     </g>
     <g id="text_27">
      <!-- 25.0 -->
      <g transform="translate(455.857514 118.069051) scale(0.15 -0.15)">
       <use xlink:href="#DejaVuSans-32"/>
       <use xlink:href="#DejaVuSans-35" transform="translate(63.623047 0)"/>
       <use xlink:href="#DejaVuSans-2e" transform="translate(127.246094 0)"/>
       <use xlink:href="#DejaVuSans-30" transform="translate(159.033203 0)"/>
      </g>
     </g>
    </g>
    <g id="ytick_13">
     <g id="line2d_33">
      <g>
       <use xlink:href="#m57aa363e5b" x="496.255951" y="78.791223" style="stroke: #000000; stroke-width: 0.8"/>
      </g>
     </g>
     <g id="text_28">
      <!-- 27.5 -->
      <g transform="translate(455.857514 84.490051) scale(0.15 -0.15)">
       <use xlink:href="#DejaVuSans-32"/>
       <use xlink:href="#DejaVuSans-37" transform="translate(63.623047 0)"/>
       <use xlink:href="#DejaVuSans-2e" transform="translate(127.246094 0)"/>
       <use xlink:href="#DejaVuSans-35" transform="translate(159.033203 0)"/>
      </g>
     </g>
    </g>
    <g id="ytick_14">
     <g id="line2d_34">
      <g>
       <use xlink:href="#m57aa363e5b" x="496.255951" y="45.212223" style="stroke: #000000; stroke-width: 0.8"/>
      </g>
     </g>
     <g id="text_29">
      <!-- 30.0 -->
      <g transform="translate(455.857514 50.911051) scale(0.15 -0.15)">
       <use xlink:href="#DejaVuSans-33"/>
       <use xlink:href="#DejaVuSans-30" transform="translate(63.623047 0)"/>
       <use xlink:href="#DejaVuSans-2e" transform="translate(127.246094 0)"/>
       <use xlink:href="#DejaVuSans-30" transform="translate(159.033203 0)"/>
      </g>
     </g>
    </g>
    <g id="text_30">
     <!-- PT [s] -->
     <g transform="translate(448.114076 211.2525) rotate(-90) scale(0.18 -0.18)">
      <use xlink:href="#DejaVuSans-Bold-50"/>
      <use xlink:href="#DejaVuSans-Bold-54" transform="translate(73.291016 0)"/>
      <use xlink:href="#DejaVuSans-Bold-20" transform="translate(141.503906 0)"/>
      <use xlink:href="#DejaVuSans-Bold-5b" transform="translate(176.318359 0)"/>
      <use xlink:href="#DejaVuSans-Bold-73" transform="translate(222.021484 0)"/>
      <use xlink:href="#DejaVuSans-Bold-5d" transform="translate(281.542969 0)"/>
     </g>
    </g>
   </g>
   <g id="LineCollection_5">
    <path clip-path="url(#p4abec3e45b)" style="fill: none; stroke: #1f77b4"/>
    <path clip-path="url(#p4abec3e45b)" style="fill: none; stroke: #1f77b4"/>
    <path clip-path="url(#p4abec3e45b)" style="fill: none; stroke: #1f77b4"/>
    <path clip-path="url(#p4abec3e45b)" style="fill: none; stroke: #1f77b4"/>
    <path clip-path="url(#p4abec3e45b)" style="fill: none; stroke: #1f77b4"/>
    <path clip-path="url(#p4abec3e45b)" style="fill: none; stroke: #1f77b4"/>
    <path clip-path="url(#p4abec3e45b)" style="fill: none; stroke: #1f77b4"/>
   </g>
   <g id="LineCollection_6">
    <path clip-path="url(#p4abec3e45b)" style="fill: none; stroke: #000000"/>
    <path clip-path="url(#p4abec3e45b)" style="fill: none; stroke: #000000"/>
    <path clip-path="url(#p4abec3e45b)" style="fill: none; stroke: #000000"/>
    <path clip-path="url(#p4abec3e45b)" style="fill: none; stroke: #000000"/>
    <path clip-path="url(#p4abec3e45b)" style="fill: none; stroke: #000000"/>
    <path clip-path="url(#p4abec3e45b)" style="fill: none; stroke: #000000"/>
    <path clip-path="url(#p4abec3e45b)" style="fill: none; stroke: #000000"/>
   </g>
   <g id="line2d_35">
    <path d="M 511.694686 307.8 
L 512.080655 305.148609 
L 512.852591 290.852381 
L 513.624528 276.381111 
L 514.396465 265.312972 
L 515.168402 257.577707 
L 515.940338 252.485531 
L 516.712275 249.389069 
L 517.098244 248.426062 
L 517.484212 247.783112 
L 517.87018 247.416491 
L 518.256149 247.288354 
L 518.642117 247.365885 
L 519.028085 247.620553 
L 519.800022 248.56498 
L 520.571959 249.957886 
L 521.729864 252.620776 
L 523.659706 257.886336 
L 528.291327 270.96074 
L 530.607137 276.724226 
L 532.536979 280.973963 
L 534.466821 284.720996 
L 536.396663 287.994372 
L 538.326504 290.835484 
L 540.256346 293.289965 
L 542.186188 295.403204 
L 544.11603 297.218005 
L 546.43184 299.056621 
L 548.747651 300.581458 
L 551.063461 301.844045 
L 553.76524 303.043681 
L 556.467018 304.003651 
L 559.554765 304.867332 
L 563.028481 305.60749 
L 567.274133 306.264206 
L 572.291722 306.79214 
L 578.467216 307.200145 
L 586.572552 307.496564 
L 598.537572 307.689098 
L 620.537769 307.782583 
L 709.310497 307.79999 
L 820.46939 307.8 
L 820.46939 307.8 
" clip-path="url(#p4abec3e45b)" style="fill: none; stroke: #1f77b4; stroke-width: 2; stroke-linecap: square"/>
   </g>
   <g id="line2d_36">
    <path d="M 511.694686 307.8 
L 520.154267 278.787744 
L 528.613848 285.369228 
L 545.53301 290.473236 
L 562.452172 302.158728 
L 613.209657 304.039152 
L 816.239599 306.322524 
" clip-path="url(#p4abec3e45b)" style="fill: none; stroke-dasharray: 3.7,1.6; stroke-dashoffset: 0; stroke: #1f77b4"/>
    <g clip-path="url(#p4abec3e45b)">
     <use xlink:href="#ma4972af920" x="511.694686" y="307.8" style="fill: #1f77b4; stroke: #000000; stroke-linejoin: miter"/>
     <use xlink:href="#ma4972af920" x="520.154267" y="278.787744" style="fill: #1f77b4; stroke: #000000; stroke-linejoin: miter"/>
     <use xlink:href="#ma4972af920" x="528.613848" y="285.369228" style="fill: #1f77b4; stroke: #000000; stroke-linejoin: miter"/>
     <use xlink:href="#ma4972af920" x="545.53301" y="290.473236" style="fill: #1f77b4; stroke: #000000; stroke-linejoin: miter"/>
     <use xlink:href="#ma4972af920" x="562.452172" y="302.158728" style="fill: #1f77b4; stroke: #000000; stroke-linejoin: miter"/>
     <use xlink:href="#ma4972af920" x="613.209657" y="304.039152" style="fill: #1f77b4; stroke: #000000; stroke-linejoin: miter"/>
     <use xlink:href="#ma4972af920" x="816.239599" y="306.322524" style="fill: #1f77b4; stroke: #000000; stroke-linejoin: miter"/>
    </g>
   </g>
   <g id="line2d_37">
    <path d="M 511.694686 306.725472 
L 511.721122 290.348054 
L 511.977554 169.324032 
L 512.300075 110.473369 
L 512.656964 81.570706 
L 513.037645 66.922066 
L 513.431544 59.459547 
L 513.809581 55.8 
L 513.809581 55.8 
L 514.576231 197.606622 
L 514.959556 242.022192 
L 515.342881 269.976068 
L 515.726205 286.392377 
L 516.10953 295.643547 
L 516.492855 300.73607 
L 516.87618 303.503223 
L 517.259504 304.99623 
L 517.642829 305.798703 
L 518.026154 306.229137 
L 518.792803 306.583253 
L 519.942778 306.703675 
L 524.926 306.725466 
L 820.46939 306.725472 
L 820.46939 306.725472 
" clip-path="url(#p4abec3e45b)" style="fill: none; stroke: #000000; stroke-width: 2; stroke-linecap: square"/>
   </g>
   <g id="line2d_38">
    <path d="M 511.694686 306.725472 
L 520.154267 279.59364 
L 528.613848 288.727128 
L 545.53301 299.472408 
L 562.452172 303.233256 
L 613.209657 306.053892 
L 816.239599 305.919576 
" clip-path="url(#p4abec3e45b)" style="fill: none; stroke-dasharray: 3.7,1.6; stroke-dashoffset: 0; stroke: #000000"/>
    <g clip-path="url(#p4abec3e45b)">
     <use xlink:href="#med87011c4c" x="511.694686" y="306.725472" style="stroke: #000000; stroke-linejoin: miter"/>
     <use xlink:href="#med87011c4c" x="520.154267" y="279.59364" style="stroke: #000000; stroke-linejoin: miter"/>
     <use xlink:href="#med87011c4c" x="528.613848" y="288.727128" style="stroke: #000000; stroke-linejoin: miter"/>
     <use xlink:href="#med87011c4c" x="545.53301" y="299.472408" style="stroke: #000000; stroke-linejoin: miter"/>
     <use xlink:href="#med87011c4c" x="562.452172" y="303.233256" style="stroke: #000000; stroke-linejoin: miter"/>
     <use xlink:href="#med87011c4c" x="613.209657" y="306.053892" style="stroke: #000000; stroke-linejoin: miter"/>
     <use xlink:href="#med87011c4c" x="816.239599" y="305.919576" style="stroke: #000000; stroke-linejoin: miter"/>
    </g>
   </g>
   <g id="patch_9">
    <path d="M 496.255951 320.4 
L 496.255951 43.2 
" style="fill: none; stroke: #000000; stroke-width: 0.8; stroke-linejoin: miter; stroke-linecap: square"/>
   </g>
   <g id="patch_10">
    <path d="M 835.908125 320.4 
L 835.908125 43.2 
" style="fill: none; stroke: #000000; stroke-width: 0.8; stroke-linejoin: miter; stroke-linecap: square"/>
   </g>
   <g id="patch_11">
    <path d="M 496.255951 320.4 
L 835.908125 320.4 
" style="fill: none; stroke: #000000; stroke-width: 0.8; stroke-linejoin: miter; stroke-linecap: square"/>
   </g>
   <g id="patch_12">
    <path d="M 496.255951 43.2 
L 835.908125 43.2 
" style="fill: none; stroke: #000000; stroke-width: 0.8; stroke-linejoin: miter; stroke-linecap: square"/>
   </g>
   <g id="legend_2">
    <g id="patch_13">
     <path d="M 694.522188 110.46875 
L 828.908125 110.46875 
Q 830.908125 110.46875 830.908125 108.46875 
L 830.908125 50.2 
Q 830.908125 48.2 828.908125 48.2 
L 694.522188 48.2 
Q 692.522188 48.2 692.522188 50.2 
L 692.522188 108.46875 
Q 692.522188 110.46875 694.522188 110.46875 
z
" style="fill: #ffffff; opacity: 0.8; stroke: #cccccc; stroke-linejoin: miter"/>
    </g>
    <g id="line2d_39">
     <path d="M 696.522188 56.298437 
L 716.522188 56.298437 
" style="fill: none; stroke: #1f77b4; stroke-width: 2; stroke-linecap: square"/>
    </g>
    <g id="line2d_40"/>
    <g id="text_31">
     <!-- ED60 -->
     <g transform="translate(724.522188 59.798437) scale(0.1 -0.1)">
      <use xlink:href="#DejaVuSans-45"/>
      <use xlink:href="#DejaVuSans-44" transform="translate(63.183594 0)"/>
      <use xlink:href="#DejaVuSans-36" transform="translate(140.185547 0)"/>
      <use xlink:href="#DejaVuSans-30" transform="translate(203.808594 0)"/>
     </g>
    </g>
    <g id="LineCollection_7">
     <path d="M 706.522188 75.976562 
L 706.522188 65.976562 
" style="fill: none; stroke: #1f77b4"/>
    </g>
    <g id="line2d_41">
     <path d="M 696.522188 70.976562 
L 716.522188 70.976562 
" style="fill: none; stroke-dasharray: 3.7,1.6; stroke-dashoffset: 0; stroke: #1f77b4"/>
    </g>
    <g id="line2d_42">
     <g>
      <use xlink:href="#ma4972af920" x="706.522188" y="70.976562" style="fill: #1f77b4; stroke: #000000; stroke-linejoin: miter"/>
     </g>
    </g>
    <g id="text_32">
     <!-- ED60±SD (n=35) -->
     <g transform="translate(724.522188 74.476562) scale(0.1 -0.1)">
      <use xlink:href="#DejaVuSans-45"/>
      <use xlink:href="#DejaVuSans-44" transform="translate(63.183594 0)"/>
      <use xlink:href="#DejaVuSans-36" transform="translate(140.185547 0)"/>
      <use xlink:href="#DejaVuSans-30" transform="translate(203.808594 0)"/>
      <use xlink:href="#DejaVuSans-b1" transform="translate(267.431641 0)"/>
      <use xlink:href="#DejaVuSans-53" transform="translate(351.220703 0)"/>
      <use xlink:href="#DejaVuSans-44" transform="translate(414.697266 0)"/>
      <use xlink:href="#DejaVuSans-20" transform="translate(491.699219 0)"/>
      <use xlink:href="#DejaVuSans-28" transform="translate(523.486328 0)"/>
      <use xlink:href="#DejaVuSans-6e" transform="translate(562.5 0)"/>
      <use xlink:href="#DejaVuSans-3d" transform="translate(625.878906 0)"/>
      <use xlink:href="#DejaVuSans-33" transform="translate(709.667969 0)"/>
      <use xlink:href="#DejaVuSans-35" transform="translate(773.291016 0)"/>
      <use xlink:href="#DejaVuSans-29" transform="translate(836.914062 0)"/>
     </g>
    </g>
    <g id="line2d_43">
     <path d="M 696.522188 85.654687 
L 716.522188 85.654687 
" style="fill: none; stroke: #000000; stroke-width: 2; stroke-linecap: square"/>
    </g>
    <g id="line2d_44"/>
    <g id="text_33">
     <!-- ED30_IV -->
     <g transform="translate(724.522188 89.154687) scale(0.1 -0.1)">
      <use xlink:href="#DejaVuSans-45"/>
      <use xlink:href="#DejaVuSans-44" transform="translate(63.183594 0)"/>
      <use xlink:href="#DejaVuSans-33" transform="translate(140.185547 0)"/>
      <use xlink:href="#DejaVuSans-30" transform="translate(203.808594 0)"/>
      <use xlink:href="#DejaVuSans-5f" transform="translate(267.431641 0)"/>
      <use xlink:href="#DejaVuSans-49" transform="translate(317.431641 0)"/>
      <use xlink:href="#DejaVuSans-56" transform="translate(346.923828 0)"/>
     </g>
    </g>
    <g id="LineCollection_8">
     <path d="M 706.522188 105.610937 
L 706.522188 95.610937 
" style="fill: none; stroke: #000000"/>
    </g>
    <g id="line2d_45">
     <path d="M 696.522188 100.610937 
L 716.522188 100.610937 
" style="fill: none; stroke-dasharray: 3.7,1.6; stroke-dashoffset: 0; stroke: #000000"/>
    </g>
    <g id="line2d_46">
     <g>
      <use xlink:href="#med87011c4c" x="706.522188" y="100.610937" style="stroke: #000000; stroke-linejoin: miter"/>
     </g>
    </g>
    <g id="text_34">
     <!-- ED30_IV±SD (n=35) -->
     <g transform="translate(724.522188 104.110937) scale(0.1 -0.1)">
      <use xlink:href="#DejaVuSans-45"/>
      <use xlink:href="#DejaVuSans-44" transform="translate(63.183594 0)"/>
      <use xlink:href="#DejaVuSans-33" transform="translate(140.185547 0)"/>
      <use xlink:href="#DejaVuSans-30" transform="translate(203.808594 0)"/>
      <use xlink:href="#DejaVuSans-5f" transform="translate(267.431641 0)"/>
      <use xlink:href="#DejaVuSans-49" transform="translate(317.431641 0)"/>
      <use xlink:href="#DejaVuSans-56" transform="translate(346.923828 0)"/>
      <use xlink:href="#DejaVuSans-b1" transform="translate(415.332031 0)"/>
      <use xlink:href="#DejaVuSans-53" transform="translate(499.121094 0)"/>
      <use xlink:href="#DejaVuSans-44" transform="translate(562.597656 0)"/>
      <use xlink:href="#DejaVuSans-20" transform="translate(639.599609 0)"/>
      <use xlink:href="#DejaVuSans-28" transform="translate(671.386719 0)"/>
      <use xlink:href="#DejaVuSans-6e" transform="translate(710.400391 0)"/>
      <use xlink:href="#DejaVuSans-3d" transform="translate(773.779297 0)"/>
      <use xlink:href="#DejaVuSans-33" transform="translate(857.568359 0)"/>
      <use xlink:href="#DejaVuSans-35" transform="translate(921.191406 0)"/>
      <use xlink:href="#DejaVuSans-29" transform="translate(984.814453 0)"/>
     </g>
    </g>
   </g>
  </g>
  <g id="text_35">
   <!-- Matsushima2013 (healthy) -->
   <g transform="translate(243.751094 26.196094) scale(0.25 -0.25)">
    <defs>
     <path id="DejaVuSans-Bold-4d" d="M 588 4666 
L 2119 4666 
L 3181 2169 
L 4250 4666 
L 5778 4666 
L 5778 0 
L 4641 0 
L 4641 3413 
L 3566 897 
L 2803 897 
L 1728 3413 
L 1728 0 
L 588 0 
L 588 4666 
z
" transform="scale(0.015625)"/>
     <path id="DejaVuSans-Bold-75" d="M 500 1363 
L 500 3500 
L 1625 3500 
L 1625 3150 
Q 1625 2866 1622 2436 
Q 1619 2006 1619 1863 
Q 1619 1441 1641 1255 
Q 1663 1069 1716 984 
Q 1784 875 1895 815 
Q 2006 756 2150 756 
Q 2500 756 2700 1025 
Q 2900 1294 2900 1772 
L 2900 3500 
L 4019 3500 
L 4019 0 
L 2900 0 
L 2900 506 
Q 2647 200 2364 54 
Q 2081 -91 1741 -91 
Q 1134 -91 817 281 
Q 500 653 500 1363 
z
" transform="scale(0.015625)"/>
     <path id="DejaVuSans-Bold-32" d="M 1844 884 
L 3897 884 
L 3897 0 
L 506 0 
L 506 884 
L 2209 2388 
Q 2438 2594 2547 2791 
Q 2656 2988 2656 3200 
Q 2656 3528 2436 3728 
Q 2216 3928 1850 3928 
Q 1569 3928 1234 3808 
Q 900 3688 519 3450 
L 519 4475 
Q 925 4609 1322 4679 
Q 1719 4750 2100 4750 
Q 2938 4750 3402 4381 
Q 3866 4013 3866 3353 
Q 3866 2972 3669 2642 
Q 3472 2313 2841 1759 
L 1844 884 
z
" transform="scale(0.015625)"/>
     <path id="DejaVuSans-Bold-30" d="M 2944 2338 
Q 2944 3213 2780 3570 
Q 2616 3928 2228 3928 
Q 1841 3928 1675 3570 
Q 1509 3213 1509 2338 
Q 1509 1453 1675 1090 
Q 1841 728 2228 728 
Q 2613 728 2778 1090 
Q 2944 1453 2944 2338 
z
M 4147 2328 
Q 4147 1169 3647 539 
Q 3147 -91 2228 -91 
Q 1306 -91 806 539 
Q 306 1169 306 2328 
Q 306 3491 806 4120 
Q 1306 4750 2228 4750 
Q 3147 4750 3647 4120 
Q 4147 3491 4147 2328 
z
" transform="scale(0.015625)"/>
     <path id="DejaVuSans-Bold-31" d="M 750 831 
L 1813 831 
L 1813 3847 
L 722 3622 
L 722 4441 
L 1806 4666 
L 2950 4666 
L 2950 831 
L 4013 831 
L 4013 0 
L 750 0 
L 750 831 
z
" transform="scale(0.015625)"/>
     <path id="DejaVuSans-Bold-33" d="M 2981 2516 
Q 3453 2394 3698 2092 
Q 3944 1791 3944 1325 
Q 3944 631 3412 270 
Q 2881 -91 1863 -91 
Q 1503 -91 1142 -33 
Q 781 25 428 141 
L 428 1069 
Q 766 900 1098 814 
Q 1431 728 1753 728 
Q 2231 728 2486 893 
Q 2741 1059 2741 1369 
Q 2741 1688 2480 1852 
Q 2219 2016 1709 2016 
L 1228 2016 
L 1228 2791 
L 1734 2791 
Q 2188 2791 2409 2933 
Q 2631 3075 2631 3366 
Q 2631 3634 2415 3781 
Q 2200 3928 1806 3928 
Q 1516 3928 1219 3862 
Q 922 3797 628 3669 
L 628 4550 
Q 984 4650 1334 4700 
Q 1684 4750 2022 4750 
Q 2931 4750 3382 4451 
Q 3834 4153 3834 3553 
Q 3834 3144 3618 2883 
Q 3403 2622 2981 2516 
z
" transform="scale(0.015625)"/>
     <path id="DejaVuSans-Bold-28" d="M 2413 -844 
L 1484 -844 
Q 1006 -72 778 623 
Q 550 1319 550 2003 
Q 550 2688 779 3389 
Q 1009 4091 1484 4856 
L 2413 4856 
Q 2013 4116 1813 3408 
Q 1613 2700 1613 2009 
Q 1613 1319 1811 609 
Q 2009 -100 2413 -844 
z
" transform="scale(0.015625)"/>
     <path id="DejaVuSans-Bold-6c" d="M 538 4863 
L 1656 4863 
L 1656 0 
L 538 0 
L 538 4863 
z
" transform="scale(0.015625)"/>
     <path id="DejaVuSans-Bold-79" d="M 78 3500 
L 1197 3500 
L 2138 1125 
L 2938 3500 
L 4056 3500 
L 2584 -331 
Q 2363 -916 2067 -1148 
Q 1772 -1381 1288 -1381 
L 641 -1381 
L 641 -647 
L 991 -647 
Q 1275 -647 1404 -556 
Q 1534 -466 1606 -231 
L 1638 -134 
L 78 3500 
z
" transform="scale(0.015625)"/>
     <path id="DejaVuSans-Bold-29" d="M 513 -844 
Q 913 -100 1113 609 
Q 1313 1319 1313 2009 
Q 1313 2700 1113 3408 
Q 913 4116 513 4856 
L 1441 4856 
Q 1916 4091 2145 3389 
Q 2375 2688 2375 2003 
Q 2375 1319 2147 623 
Q 1919 -72 1441 -844 
L 513 -844 
z
" transform="scale(0.015625)"/>
    </defs>
    <use xlink:href="#DejaVuSans-Bold-4d"/>
    <use xlink:href="#DejaVuSans-Bold-61" transform="translate(99.511719 0)"/>
    <use xlink:href="#DejaVuSans-Bold-74" transform="translate(166.992188 0)"/>
    <use xlink:href="#DejaVuSans-Bold-73" transform="translate(214.794922 0)"/>
    <use xlink:href="#DejaVuSans-Bold-75" transform="translate(274.316406 0)"/>
    <use xlink:href="#DejaVuSans-Bold-73" transform="translate(345.507812 0)"/>
    <use xlink:href="#DejaVuSans-Bold-68" transform="translate(405.029297 0)"/>
    <use xlink:href="#DejaVuSans-Bold-69" transform="translate(476.220703 0)"/>
    <use xlink:href="#DejaVuSans-Bold-6d" transform="translate(510.498047 0)"/>
    <use xlink:href="#DejaVuSans-Bold-61" transform="translate(614.697266 0)"/>
    <use xlink:href="#DejaVuSans-Bold-32" transform="translate(682.177734 0)"/>
    <use xlink:href="#DejaVuSans-Bold-30" transform="translate(751.757812 0)"/>
    <use xlink:href="#DejaVuSans-Bold-31" transform="translate(821.337891 0)"/>
    <use xlink:href="#DejaVuSans-Bold-33" transform="translate(890.917969 0)"/>
    <use xlink:href="#DejaVuSans-Bold-20" transform="translate(960.498047 0)"/>
    <use xlink:href="#DejaVuSans-Bold-28" transform="translate(995.3125 0)"/>
    <use xlink:href="#DejaVuSans-Bold-68" transform="translate(1041.015625 0)"/>
    <use xlink:href="#DejaVuSans-Bold-65" transform="translate(1112.207031 0)"/>
    <use xlink:href="#DejaVuSans-Bold-61" transform="translate(1180.029297 0)"/>
    <use xlink:href="#DejaVuSans-Bold-6c" transform="translate(1247.509766 0)"/>
    <use xlink:href="#DejaVuSans-Bold-74" transform="translate(1281.787109 0)"/>
    <use xlink:href="#DejaVuSans-Bold-68" transform="translate(1329.589844 0)"/>
    <use xlink:href="#DejaVuSans-Bold-79" transform="translate(1400.78125 0)"/>
    <use xlink:href="#DejaVuSans-Bold-29" transform="translate(1465.966797 0)"/>
   </g>
  </g>
 </g>
 <defs>
  <clipPath id="pb6c91981f9">
   <rect x="54.708125" y="43.2" width="339.652174" height="277.2"/>
  </clipPath>
  <clipPath id="p4abec3e45b">
   <rect x="496.255951" y="43.2" width="339.652174" height="277.2"/>
  </clipPath>
 </defs>
</svg>
