<?xml version="1.0" encoding="utf-8" standalone="no"?>
<!DOCTYPE svg PUBLIC "-//W3C//DTD SVG 1.1//EN"
  "http://www.w3.org/Graphics/SVG/1.1/DTD/svg11.dtd">
<svg xmlns:xlink="http://www.w3.org/1999/xlink" width="1243.251875pt" height="370.537812pt" viewBox="0 0 1243.251875 370.537812" xmlns="http://www.w3.org/2000/svg" version="1.1">
 <metadata>
  <rdf:RDF xmlns:dc="http://purl.org/dc/elements/1.1/" xmlns:cc="http://creativecommons.org/ns#" xmlns:rdf="http://www.w3.org/1999/02/22-rdf-syntax-ns#">
   <cc:Work>
    <dc:type rdf:resource="http://purl.org/dc/dcmitype/StillImage"/>
    <dc:date>2026-01-06T17:44:34.324667</dc:date>
    <dc:format>image/svg+xml</dc:format>
    <dc:creator>
     <cc:Agent>
      <dc:title>Matplotlib v3.10.7, https://matplotlib.org/</dc:title>
     </cc:Agent>
    </dc:creator>
   </cc:Work>
  </rdf:RDF>
 </metadata>
 <defs>
  <style type="text/css">*{stroke-linejoin: round; stroke-linecap: butt}</style>
 </defs>
 <g id="figure_1">
  <g id="patch_1">
   <path d="M 0 370.537812 
L 1243.251875 370.537812 
L 1243.251875 0 
L 0 0 
z
" style="fill: #ffffff"/>
  </g>
  <g id="axes_1">
   <g id="patch_2">
    <path d="M 64.251875 320.4 
L 389.751875 320.4 
L 389.751875 43.2 
L 64.251875 43.2 
z
" style="fill: #ffffff"/>
   </g>
   <g id="matplotlib.axis_1">
    <g id="xtick_1">
     <g id="line2d_1">
      <defs>
       <path id="m84af25aa37" d="M 0 0 
L 0 3.5 
" style="stroke: #000000; stroke-width: 0.8"/>
      </defs>
      <g>
       <use xlink:href="#m84af25aa37" x="79.04733" y="320.4" style="stroke: #000000; stroke-width: 0.8"/>
      </g>
     </g>
     <g id="text_1">
      <!-- 0 -->
      <g transform="translate(74.275455 338.797656) scale(0.15 -0.15)">
       <defs>
        <path id="DejaVuSans-30" d="M 2034 4250 
Q 1547 4250 1301 3770 
Q 1056 3291 1056 2328 
Q 1056 1369 1301 889 
Q 1547 409 2034 409 
Q 2525 409 2770 889 
Q 3016 1369 3016 2328 
Q 3016 3291 2770 3770 
Q 2525 4250 2034 4250 
z
M 2034 4750 
Q 2819 4750 3233 4129 
Q 3647 3509 3647 2328 
Q 3647 1150 3233 529 
Q 2819 -91 2034 -91 
Q 1250 -91 836 529 
Q 422 1150 422 2328 
Q 422 3509 836 4129 
Q 1250 4750 2034 4750 
z
" transform="scale(0.015625)"/>
       </defs>
       <use xlink:href="#DejaVuSans-30"/>
      </g>
     </g>
    </g>
    <g id="xtick_2">
     <g id="line2d_2">
      <g>
       <use xlink:href="#m84af25aa37" x="160.118313" y="320.4" style="stroke: #000000; stroke-width: 0.8"/>
      </g>
     </g>
     <g id="text_2">
      <!-- 20 -->
      <g transform="translate(150.574563 338.797656) scale(0.15 -0.15)">
       <defs>
        <path id="DejaVuSans-32" d="M 1228 531 
L 3431 531 
L 3431 0 
L 469 0 
L 469 531 
Q 828 903 1448 1529 
Q 2069 2156 2228 2338 
Q 2531 2678 2651 2914 
Q 2772 3150 2772 3378 
Q 2772 3750 2511 3984 
Q 2250 4219 1831 4219 
Q 1534 4219 1204 4116 
Q 875 4013 500 3803 
L 500 4441 
Q 881 4594 1212 4672 
Q 1544 4750 1819 4750 
Q 2544 4750 2975 4387 
Q 3406 4025 3406 3419 
Q 3406 3131 3298 2873 
Q 3191 2616 2906 2266 
Q 2828 2175 2409 1742 
Q 1991 1309 1228 531 
z
" transform="scale(0.015625)"/>
       </defs>
       <use xlink:href="#DejaVuSans-32"/>
       <use xlink:href="#DejaVuSans-30" transform="translate(63.623047 0)"/>
      </g>
     </g>
    </g>
    <g id="xtick_3">
     <g id="line2d_3">
      <g>
       <use xlink:href="#m84af25aa37" x="241.189297" y="320.4" style="stroke: #000000; stroke-width: 0.8"/>
      </g>
     </g>
     <g id="text_3">
      <!-- 40 -->
      <g transform="translate(231.645547 338.797656) scale(0.15 -0.15)">
       <defs>
        <path id="DejaVuSans-34" d="M 2419 4116 
L 825 1625 
L 2419 1625 
L 2419 4116 
z
M 2253 4666 
L 3047 4666 
L 3047 1625 
L 3713 1625 
L 3713 1100 
L 3047 1100 
L 3047 0 
L 2419 0 
L 2419 1100 
L 313 1100 
L 313 1709 
L 2253 4666 
z
" transform="scale(0.015625)"/>
       </defs>
       <use xlink:href="#DejaVuSans-34"/>
       <use xlink:href="#DejaVuSans-30" transform="translate(63.623047 0)"/>
      </g>
     </g>
    </g>
    <g id="xtick_4">
     <g id="line2d_4">
      <g>
       <use xlink:href="#m84af25aa37" x="322.260281" y="320.4" style="stroke: #000000; stroke-width: 0.8"/>
      </g>
     </g>
     <g id="text_4">
      <!-- 60 -->
      <g transform="translate(312.716531 338.797656) scale(0.15 -0.15)">
       <defs>
        <path id="DejaVuSans-36" d="M 2113 2584 
Q 1688 2584 1439 2293 
Q 1191 2003 1191 1497 
Q 1191 994 1439 701 
Q 1688 409 2113 409 
Q 2538 409 2786 701 
Q 3034 994 3034 1497 
Q 3034 2003 2786 2293 
Q 2538 2584 2113 2584 
z
M 3366 4563 
L 3366 3988 
Q 3128 4100 2886 4159 
Q 2644 4219 2406 4219 
Q 1781 4219 1451 3797 
Q 1122 3375 1075 2522 
Q 1259 2794 1537 2939 
Q 1816 3084 2150 3084 
Q 2853 3084 3261 2657 
Q 3669 2231 3669 1497 
Q 3669 778 3244 343 
Q 2819 -91 2113 -91 
Q 1303 -91 875 529 
Q 447 1150 447 2328 
Q 447 3434 972 4092 
Q 1497 4750 2381 4750 
Q 2619 4750 2861 4703 
Q 3103 4656 3366 4563 
z
" transform="scale(0.015625)"/>
       </defs>
       <use xlink:href="#DejaVuSans-36"/>
       <use xlink:href="#DejaVuSans-30" transform="translate(63.623047 0)"/>
      </g>
     </g>
    </g>
    <g id="text_5">
     <!-- time [hr] -->
     <g transform="translate(181.927344 359.594375) scale(0.18 -0.18)">
      <defs>
       <path id="DejaVuSans-Bold-74" d="M 1759 4494 
L 1759 3500 
L 2913 3500 
L 2913 2700 
L 1759 2700 
L 1759 1216 
Q 1759 972 1856 886 
Q 1953 800 2241 800 
L 2816 800 
L 2816 0 
L 1856 0 
Q 1194 0 917 276 
Q 641 553 641 1216 
L 641 2700 
L 84 2700 
L 84 3500 
L 641 3500 
L 641 4494 
L 1759 4494 
z
" transform="scale(0.015625)"/>
       <path id="DejaVuSans-Bold-69" d="M 538 3500 
L 1656 3500 
L 1656 0 
L 538 0 
L 538 3500 
z
M 538 4863 
L 1656 4863 
L 1656 3950 
L 538 3950 
L 538 4863 
z
" transform="scale(0.015625)"/>
       <path id="DejaVuSans-Bold-6d" d="M 3781 2919 
Q 3994 3244 4286 3414 
Q 4578 3584 4928 3584 
Q 5531 3584 5847 3212 
Q 6163 2841 6163 2131 
L 6163 0 
L 5038 0 
L 5038 1825 
Q 5041 1866 5042 1909 
Q 5044 1953 5044 2034 
Q 5044 2406 4934 2573 
Q 4825 2741 4581 2741 
Q 4263 2741 4089 2478 
Q 3916 2216 3909 1719 
L 3909 0 
L 2784 0 
L 2784 1825 
Q 2784 2406 2684 2573 
Q 2584 2741 2328 2741 
Q 2006 2741 1831 2477 
Q 1656 2213 1656 1722 
L 1656 0 
L 531 0 
L 531 3500 
L 1656 3500 
L 1656 2988 
Q 1863 3284 2130 3434 
Q 2397 3584 2719 3584 
Q 3081 3584 3359 3409 
Q 3638 3234 3781 2919 
z
" transform="scale(0.015625)"/>
       <path id="DejaVuSans-Bold-65" d="M 4031 1759 
L 4031 1441 
L 1416 1441 
Q 1456 1047 1700 850 
Q 1944 653 2381 653 
Q 2734 653 3104 758 
Q 3475 863 3866 1075 
L 3866 213 
Q 3469 63 3072 -14 
Q 2675 -91 2278 -91 
Q 1328 -91 801 392 
Q 275 875 275 1747 
Q 275 2603 792 3093 
Q 1309 3584 2216 3584 
Q 3041 3584 3536 3087 
Q 4031 2591 4031 1759 
z
M 2881 2131 
Q 2881 2450 2695 2645 
Q 2509 2841 2209 2841 
Q 1884 2841 1681 2658 
Q 1478 2475 1428 2131 
L 2881 2131 
z
" transform="scale(0.015625)"/>
       <path id="DejaVuSans-Bold-20" transform="scale(0.015625)"/>
       <path id="DejaVuSans-Bold-5b" d="M 550 4863 
L 2491 4863 
L 2491 4159 
L 1613 4159 
L 1613 -141 
L 2491 -141 
L 2491 -844 
L 550 -844 
L 550 4863 
z
" transform="scale(0.015625)"/>
       <path id="DejaVuSans-Bold-68" d="M 4056 2131 
L 4056 0 
L 2931 0 
L 2931 347 
L 2931 1625 
Q 2931 2084 2911 2256 
Q 2891 2428 2841 2509 
Q 2775 2619 2662 2680 
Q 2550 2741 2406 2741 
Q 2056 2741 1856 2470 
Q 1656 2200 1656 1722 
L 1656 0 
L 538 0 
L 538 4863 
L 1656 4863 
L 1656 2988 
Q 1909 3294 2193 3439 
Q 2478 3584 2822 3584 
Q 3428 3584 3742 3212 
Q 4056 2841 4056 2131 
z
" transform="scale(0.015625)"/>
       <path id="DejaVuSans-Bold-72" d="M 3138 2547 
Q 2991 2616 2845 2648 
Q 2700 2681 2553 2681 
Q 2122 2681 1889 2404 
Q 1656 2128 1656 1613 
L 1656 0 
L 538 0 
L 538 3500 
L 1656 3500 
L 1656 2925 
Q 1872 3269 2151 3426 
Q 2431 3584 2822 3584 
Q 2878 3584 2943 3579 
Q 3009 3575 3134 3559 
L 3138 2547 
z
" transform="scale(0.015625)"/>
       <path id="DejaVuSans-Bold-5d" d="M 2375 -844 
L 434 -844 
L 434 -141 
L 1313 -141 
L 1313 4159 
L 434 4159 
L 434 4863 
L 2375 4863 
L 2375 -844 
z
" transform="scale(0.015625)"/>
      </defs>
      <use xlink:href="#DejaVuSans-Bold-74"/>
      <use xlink:href="#DejaVuSans-Bold-69" transform="translate(47.802734 0)"/>
      <use xlink:href="#DejaVuSans-Bold-6d" transform="translate(82.080078 0)"/>
      <use xlink:href="#DejaVuSans-Bold-65" transform="translate(186.279297 0)"/>
      <use xlink:href="#DejaVuSans-Bold-20" transform="translate(254.101562 0)"/>
      <use xlink:href="#DejaVuSans-Bold-5b" transform="translate(288.916016 0)"/>
      <use xlink:href="#DejaVuSans-Bold-68" transform="translate(334.619141 0)"/>
      <use xlink:href="#DejaVuSans-Bold-72" transform="translate(405.810547 0)"/>
      <use xlink:href="#DejaVuSans-Bold-5d" transform="translate(455.126953 0)"/>
     </g>
    </g>
   </g>
   <g id="matplotlib.axis_2">
    <g id="ytick_1">
     <g id="line2d_5">
      <defs>
       <path id="md3a63d0f80" d="M 0 0 
L -3.5 0 
" style="stroke: #000000; stroke-width: 0.8"/>
      </defs>
      <g>
       <use xlink:href="#md3a63d0f80" x="64.251875" y="307.8" style="stroke: #000000; stroke-width: 0.8"/>
      </g>
     </g>
     <g id="text_6">
      <!-- 0 -->
      <g transform="translate(47.708125 313.498828) scale(0.15 -0.15)">
       <use xlink:href="#DejaVuSans-30"/>
      </g>
     </g>
    </g>
    <g id="ytick_2">
     <g id="line2d_6">
      <g>
       <use xlink:href="#md3a63d0f80" x="64.251875" y="265.795555" style="stroke: #000000; stroke-width: 0.8"/>
      </g>
     </g>
     <g id="text_7">
      <!-- 100 -->
      <g transform="translate(28.620625 271.494383) scale(0.15 -0.15)">
       <defs>
        <path id="DejaVuSans-31" d="M 794 531 
L 1825 531 
L 1825 4091 
L 703 3866 
L 703 4441 
L 1819 4666 
L 2450 4666 
L 2450 531 
L 3481 531 
L 3481 0 
L 794 0 
L 794 531 
z
" transform="scale(0.015625)"/>
       </defs>
       <use xlink:href="#DejaVuSans-31"/>
       <use xlink:href="#DejaVuSans-30" transform="translate(63.623047 0)"/>
       <use xlink:href="#DejaVuSans-30" transform="translate(127.246094 0)"/>
      </g>
     </g>
    </g>
    <g id="ytick_3">
     <g id="line2d_7">
      <g>
       <use xlink:href="#md3a63d0f80" x="64.251875" y="223.791109" style="stroke: #000000; stroke-width: 0.8"/>
      </g>
     </g>
     <g id="text_8">
      <!-- 200 -->
      <g transform="translate(28.620625 229.489938) scale(0.15 -0.15)">
       <use xlink:href="#DejaVuSans-32"/>
       <use xlink:href="#DejaVuSans-30" transform="translate(63.623047 0)"/>
       <use xlink:href="#DejaVuSans-30" transform="translate(127.246094 0)"/>
      </g>
     </g>
    </g>
    <g id="ytick_4">
     <g id="line2d_8">
      <g>
       <use xlink:href="#md3a63d0f80" x="64.251875" y="181.786664" style="stroke: #000000; stroke-width: 0.8"/>
      </g>
     </g>
     <g id="text_9">
      <!-- 300 -->
      <g transform="translate(28.620625 187.485492) scale(0.15 -0.15)">
       <defs>
        <path id="DejaVuSans-33" d="M 2597 2516 
Q 3050 2419 3304 2112 
Q 3559 1806 3559 1356 
Q 3559 666 3084 287 
Q 2609 -91 1734 -91 
Q 1441 -91 1130 -33 
Q 819 25 488 141 
L 488 750 
Q 750 597 1062 519 
Q 1375 441 1716 441 
Q 2309 441 2620 675 
Q 2931 909 2931 1356 
Q 2931 1769 2642 2001 
Q 2353 2234 1838 2234 
L 1294 2234 
L 1294 2753 
L 1863 2753 
Q 2328 2753 2575 2939 
Q 2822 3125 2822 3475 
Q 2822 3834 2567 4026 
Q 2313 4219 1838 4219 
Q 1578 4219 1281 4162 
Q 984 4106 628 3988 
L 628 4550 
Q 988 4650 1302 4700 
Q 1616 4750 1894 4750 
Q 2613 4750 3031 4423 
Q 3450 4097 3450 3541 
Q 3450 3153 3228 2886 
Q 3006 2619 2597 2516 
z
" transform="scale(0.015625)"/>
       </defs>
       <use xlink:href="#DejaVuSans-33"/>
       <use xlink:href="#DejaVuSans-30" transform="translate(63.623047 0)"/>
       <use xlink:href="#DejaVuSans-30" transform="translate(127.246094 0)"/>
      </g>
     </g>
    </g>
    <g id="ytick_5">
     <g id="line2d_9">
      <g>
       <use xlink:href="#md3a63d0f80" x="64.251875" y="139.782219" style="stroke: #000000; stroke-width: 0.8"/>
      </g>
     </g>
     <g id="text_10">
      <!-- 400 -->
      <g transform="translate(28.620625 145.481047) scale(0.15 -0.15)">
       <use xlink:href="#DejaVuSans-34"/>
       <use xlink:href="#DejaVuSans-30" transform="translate(63.623047 0)"/>
       <use xlink:href="#DejaVuSans-30" transform="translate(127.246094 0)"/>
      </g>
     </g>
    </g>
    <g id="ytick_6">
     <g id="line2d_10">
      <g>
       <use xlink:href="#md3a63d0f80" x="64.251875" y="97.777774" style="stroke: #000000; stroke-width: 0.8"/>
      </g>
     </g>
     <g id="text_11">
      <!-- 500 -->
      <g transform="translate(28.620625 103.476602) scale(0.15 -0.15)">
       <defs>
        <path id="DejaVuSans-35" d="M 691 4666 
L 3169 4666 
L 3169 4134 
L 1269 4134 
L 1269 2991 
Q 1406 3038 1543 3061 
Q 1681 3084 1819 3084 
Q 2600 3084 3056 2656 
Q 3513 2228 3513 1497 
Q 3513 744 3044 326 
Q 2575 -91 1722 -91 
Q 1428 -91 1123 -41 
Q 819 9 494 109 
L 494 744 
Q 775 591 1075 516 
Q 1375 441 1709 441 
Q 2250 441 2565 725 
Q 2881 1009 2881 1497 
Q 2881 1984 2565 2268 
Q 2250 2553 1709 2553 
Q 1456 2553 1204 2497 
Q 953 2441 691 2322 
L 691 4666 
z
" transform="scale(0.015625)"/>
       </defs>
       <use xlink:href="#DejaVuSans-35"/>
       <use xlink:href="#DejaVuSans-30" transform="translate(63.623047 0)"/>
       <use xlink:href="#DejaVuSans-30" transform="translate(127.246094 0)"/>
      </g>
     </g>
    </g>
    <g id="ytick_7">
     <g id="line2d_11">
      <g>
       <use xlink:href="#md3a63d0f80" x="64.251875" y="55.773328" style="stroke: #000000; stroke-width: 0.8"/>
      </g>
     </g>
     <g id="text_12">
      <!-- 600 -->
      <g transform="translate(28.620625 61.472157) scale(0.15 -0.15)">
       <use xlink:href="#DejaVuSans-36"/>
       <use xlink:href="#DejaVuSans-30" transform="translate(63.623047 0)"/>
       <use xlink:href="#DejaVuSans-30" transform="translate(127.246094 0)"/>
      </g>
     </g>
    </g>
    <g id="text_13">
     <!-- edoxaban plasma [nM] -->
     <g transform="translate(20.877187 297.59625) rotate(-90) scale(0.18 -0.18)">
      <defs>
       <path id="DejaVuSans-Bold-64" d="M 2919 2988 
L 2919 4863 
L 4044 4863 
L 4044 0 
L 2919 0 
L 2919 506 
Q 2688 197 2409 53 
Q 2131 -91 1766 -91 
Q 1119 -91 703 423 
Q 288 938 288 1747 
Q 288 2556 703 3070 
Q 1119 3584 1766 3584 
Q 2128 3584 2408 3439 
Q 2688 3294 2919 2988 
z
M 2181 722 
Q 2541 722 2730 984 
Q 2919 1247 2919 1747 
Q 2919 2247 2730 2509 
Q 2541 2772 2181 2772 
Q 1825 2772 1636 2509 
Q 1447 2247 1447 1747 
Q 1447 1247 1636 984 
Q 1825 722 2181 722 
z
" transform="scale(0.015625)"/>
       <path id="DejaVuSans-Bold-6f" d="M 2203 2784 
Q 1831 2784 1636 2517 
Q 1441 2250 1441 1747 
Q 1441 1244 1636 976 
Q 1831 709 2203 709 
Q 2569 709 2762 976 
Q 2956 1244 2956 1747 
Q 2956 2250 2762 2517 
Q 2569 2784 2203 2784 
z
M 2203 3584 
Q 3106 3584 3614 3096 
Q 4122 2609 4122 1747 
Q 4122 884 3614 396 
Q 3106 -91 2203 -91 
Q 1297 -91 786 396 
Q 275 884 275 1747 
Q 275 2609 786 3096 
Q 1297 3584 2203 3584 
z
" transform="scale(0.015625)"/>
       <path id="DejaVuSans-Bold-78" d="M 1422 1791 
L 159 3500 
L 1344 3500 
L 2059 2463 
L 2784 3500 
L 3969 3500 
L 2706 1797 
L 4031 0 
L 2847 0 
L 2059 1106 
L 1281 0 
L 97 0 
L 1422 1791 
z
" transform="scale(0.015625)"/>
       <path id="DejaVuSans-Bold-61" d="M 2106 1575 
Q 1756 1575 1579 1456 
Q 1403 1338 1403 1106 
Q 1403 894 1545 773 
Q 1688 653 1941 653 
Q 2256 653 2472 879 
Q 2688 1106 2688 1447 
L 2688 1575 
L 2106 1575 
z
M 3816 1997 
L 3816 0 
L 2688 0 
L 2688 519 
Q 2463 200 2181 54 
Q 1900 -91 1497 -91 
Q 953 -91 614 226 
Q 275 544 275 1050 
Q 275 1666 698 1953 
Q 1122 2241 2028 2241 
L 2688 2241 
L 2688 2328 
Q 2688 2594 2478 2717 
Q 2269 2841 1825 2841 
Q 1466 2841 1156 2769 
Q 847 2697 581 2553 
L 581 3406 
Q 941 3494 1303 3539 
Q 1666 3584 2028 3584 
Q 2975 3584 3395 3211 
Q 3816 2838 3816 1997 
z
" transform="scale(0.015625)"/>
       <path id="DejaVuSans-Bold-62" d="M 2400 722 
Q 2759 722 2948 984 
Q 3138 1247 3138 1747 
Q 3138 2247 2948 2509 
Q 2759 2772 2400 2772 
Q 2041 2772 1848 2508 
Q 1656 2244 1656 1747 
Q 1656 1250 1848 986 
Q 2041 722 2400 722 
z
M 1656 2988 
Q 1888 3294 2169 3439 
Q 2450 3584 2816 3584 
Q 3463 3584 3878 3070 
Q 4294 2556 4294 1747 
Q 4294 938 3878 423 
Q 3463 -91 2816 -91 
Q 2450 -91 2169 54 
Q 1888 200 1656 506 
L 1656 0 
L 538 0 
L 538 4863 
L 1656 4863 
L 1656 2988 
z
" transform="scale(0.015625)"/>
       <path id="DejaVuSans-Bold-6e" d="M 4056 2131 
L 4056 0 
L 2931 0 
L 2931 347 
L 2931 1631 
Q 2931 2084 2911 2256 
Q 2891 2428 2841 2509 
Q 2775 2619 2662 2680 
Q 2550 2741 2406 2741 
Q 2056 2741 1856 2470 
Q 1656 2200 1656 1722 
L 1656 0 
L 538 0 
L 538 3500 
L 1656 3500 
L 1656 2988 
Q 1909 3294 2193 3439 
Q 2478 3584 2822 3584 
Q 3428 3584 3742 3212 
Q 4056 2841 4056 2131 
z
" transform="scale(0.015625)"/>
       <path id="DejaVuSans-Bold-70" d="M 1656 506 
L 1656 -1331 
L 538 -1331 
L 538 3500 
L 1656 3500 
L 1656 2988 
Q 1888 3294 2169 3439 
Q 2450 3584 2816 3584 
Q 3463 3584 3878 3070 
Q 4294 2556 4294 1747 
Q 4294 938 3878 423 
Q 3463 -91 2816 -91 
Q 2450 -91 2169 54 
Q 1888 200 1656 506 
z
M 2400 2772 
Q 2041 2772 1848 2508 
Q 1656 2244 1656 1747 
Q 1656 1250 1848 986 
Q 2041 722 2400 722 
Q 2759 722 2948 984 
Q 3138 1247 3138 1747 
Q 3138 2247 2948 2509 
Q 2759 2772 2400 2772 
z
" transform="scale(0.015625)"/>
       <path id="DejaVuSans-Bold-6c" d="M 538 4863 
L 1656 4863 
L 1656 0 
L 538 0 
L 538 4863 
z
" transform="scale(0.015625)"/>
       <path id="DejaVuSans-Bold-73" d="M 3272 3391 
L 3272 2541 
Q 2913 2691 2578 2766 
Q 2244 2841 1947 2841 
Q 1628 2841 1473 2761 
Q 1319 2681 1319 2516 
Q 1319 2381 1436 2309 
Q 1553 2238 1856 2203 
L 2053 2175 
Q 2913 2066 3209 1816 
Q 3506 1566 3506 1031 
Q 3506 472 3093 190 
Q 2681 -91 1863 -91 
Q 1516 -91 1145 -36 
Q 775 19 384 128 
L 384 978 
Q 719 816 1070 734 
Q 1422 653 1784 653 
Q 2113 653 2278 743 
Q 2444 834 2444 1013 
Q 2444 1163 2330 1236 
Q 2216 1309 1875 1350 
L 1678 1375 
Q 931 1469 631 1722 
Q 331 1975 331 2491 
Q 331 3047 712 3315 
Q 1094 3584 1881 3584 
Q 2191 3584 2531 3537 
Q 2872 3491 3272 3391 
z
" transform="scale(0.015625)"/>
       <path id="DejaVuSans-Bold-4d" d="M 588 4666 
L 2119 4666 
L 3181 2169 
L 4250 4666 
L 5778 4666 
L 5778 0 
L 4641 0 
L 4641 3413 
L 3566 897 
L 2803 897 
L 1728 3413 
L 1728 0 
L 588 0 
L 588 4666 
z
" transform="scale(0.015625)"/>
      </defs>
      <use xlink:href="#DejaVuSans-Bold-65"/>
      <use xlink:href="#DejaVuSans-Bold-64" transform="translate(67.822266 0)"/>
      <use xlink:href="#DejaVuSans-Bold-6f" transform="translate(139.404297 0)"/>
      <use xlink:href="#DejaVuSans-Bold-78" transform="translate(208.105469 0)"/>
      <use xlink:href="#DejaVuSans-Bold-61" transform="translate(272.607422 0)"/>
      <use xlink:href="#DejaVuSans-Bold-62" transform="translate(340.087891 0)"/>
      <use xlink:href="#DejaVuSans-Bold-61" transform="translate(411.669922 0)"/>
      <use xlink:href="#DejaVuSans-Bold-6e" transform="translate(479.150391 0)"/>
      <use xlink:href="#DejaVuSans-Bold-20" transform="translate(550.341797 0)"/>
      <use xlink:href="#DejaVuSans-Bold-70" transform="translate(585.15625 0)"/>
      <use xlink:href="#DejaVuSans-Bold-6c" transform="translate(656.738281 0)"/>
      <use xlink:href="#DejaVuSans-Bold-61" transform="translate(691.015625 0)"/>
      <use xlink:href="#DejaVuSans-Bold-73" transform="translate(758.496094 0)"/>
      <use xlink:href="#DejaVuSans-Bold-6d" transform="translate(818.017578 0)"/>
      <use xlink:href="#DejaVuSans-Bold-61" transform="translate(922.216797 0)"/>
      <use xlink:href="#DejaVuSans-Bold-20" transform="translate(989.697266 0)"/>
      <use xlink:href="#DejaVuSans-Bold-5b" transform="translate(1024.511719 0)"/>
      <use xlink:href="#DejaVuSans-Bold-6e" transform="translate(1070.214844 0)"/>
      <use xlink:href="#DejaVuSans-Bold-4d" transform="translate(1141.40625 0)"/>
      <use xlink:href="#DejaVuSans-Bold-5d" transform="translate(1240.917969 0)"/>
     </g>
    </g>
   </g>
   <g id="LineCollection_1">
    <path clip-path="url(#p0ab09930b0)" style="fill: none; stroke: #1f77b4"/>
    <path d="M 81.074104 273.172993 
L 81.074104 139.018248 
" clip-path="url(#p0ab09930b0)" style="fill: none; stroke: #1f77b4"/>
    <path d="M 83.100879 194.553285 
L 83.100879 55.8 
" clip-path="url(#p0ab09930b0)" style="fill: none; stroke: #1f77b4"/>
    <path d="M 85.127653 196.936861 
L 85.127653 62.75146 
" clip-path="url(#p0ab09930b0)" style="fill: none; stroke: #1f77b4"/>
    <path d="M 87.154428 217.768248 
L 87.154428 83.613504 
" clip-path="url(#p0ab09930b0)" style="fill: none; stroke: #1f77b4"/>
    <path d="M 91.207977 240.914234 
L 91.207977 129.920803 
" clip-path="url(#p0ab09930b0)" style="fill: none; stroke: #1f77b4"/>
    <path d="M 95.261526 280.285401 
L 95.261526 155.419708 
" clip-path="url(#p0ab09930b0)" style="fill: none; stroke: #1f77b4"/>
    <path d="M 103.368625 264.213504 
L 103.368625 245.712044 
" clip-path="url(#p0ab09930b0)" style="fill: none; stroke: #1f77b4"/>
    <path d="M 111.475723 287.45146 
L 111.475723 273.579197 
" clip-path="url(#p0ab09930b0)" style="fill: none; stroke: #1f77b4"/>
    <path clip-path="url(#p0ab09930b0)" style="fill: none; stroke: #1f77b4"/>
    <path clip-path="url(#p0ab09930b0)" style="fill: none; stroke: #1f77b4"/>
    <path clip-path="url(#p0ab09930b0)" style="fill: none; stroke: #1f77b4"/>
    <path clip-path="url(#p0ab09930b0)" style="fill: none; stroke: #1f77b4"/>
    <path clip-path="url(#p0ab09930b0)" style="fill: none; stroke: #1f77b4"/>
    <path clip-path="url(#p0ab09930b0)" style="fill: none; stroke: #1f77b4"/>
   </g>
   <g id="LineCollection_2">
    <path clip-path="url(#p0ab09930b0)" style="fill: none; stroke: #000000"/>
    <path d="M 81.074104 284.7 
L 81.074104 173.706569 
" clip-path="url(#p0ab09930b0)" style="fill: none; stroke: #000000"/>
    <path d="M 83.100879 215.369343 
L 83.100879 71.971533 
" clip-path="url(#p0ab09930b0)" style="fill: none; stroke: #000000"/>
    <path d="M 85.127653 176.044161 
L 85.127653 83.582847 
" clip-path="url(#p0ab09930b0)" style="fill: none; stroke: #000000"/>
    <path d="M 87.154428 185.287226 
L 87.154428 83.628832 
" clip-path="url(#p0ab09930b0)" style="fill: none; stroke: #000000"/>
    <path d="M 91.207977 181.754015 
L 91.207977 114.967883 
" clip-path="url(#p0ab09930b0)" style="fill: none; stroke: #000000"/>
    <path d="M 95.261526 222.412774 
L 95.261526 129.920803 
" clip-path="url(#p0ab09930b0)" style="fill: none; stroke: #000000"/>
    <path d="M 103.368625 238.637956 
L 103.368625 155.419708 
" clip-path="url(#p0ab09930b0)" style="fill: none; stroke: #000000"/>
    <path d="M 111.475723 252.663504 
L 111.475723 215.660584 
" clip-path="url(#p0ab09930b0)" style="fill: none; stroke: #000000"/>
    <path d="M 127.68992 271.264599 
L 127.68992 238.890876 
" clip-path="url(#p0ab09930b0)" style="fill: none; stroke: #000000"/>
    <path d="M 176.33251 287.696715 
L 176.33251 273.824453 
" clip-path="url(#p0ab09930b0)" style="fill: none; stroke: #000000"/>
    <path d="M 224.9751 304.573358 
L 224.9751 295.314964 
" clip-path="url(#p0ab09930b0)" style="fill: none; stroke: #000000"/>
    <path clip-path="url(#p0ab09930b0)" style="fill: none; stroke: #000000"/>
    <path clip-path="url(#p0ab09930b0)" style="fill: none; stroke: #000000"/>
    <path clip-path="url(#p0ab09930b0)" style="fill: none; stroke: #000000"/>
   </g>
   <g id="line2d_12">
    <path d="M 79.04733 307.8 
L 79.417216 301.928853 
L 80.156989 269.196741 
L 81.266648 218.958464 
L 82.00642 194.602801 
L 82.746193 177.525661 
L 83.485966 166.421093 
L 84.225739 159.992637 
L 84.595625 158.18139 
L 84.965511 157.146296 
L 85.335398 156.784132 
L 85.705284 157.00329 
L 86.07517 157.722636 
L 86.445057 158.870428 
L 87.18483 162.205395 
L 88.294489 169.063248 
L 89.774034 180.147007 
L 94.582557 217.776304 
L 96.431989 230.339787 
L 98.28142 241.4316 
L 100.130852 251.090403 
L 101.980284 259.429488 
L 103.829716 266.590037 
L 105.679148 272.717107 
L 107.52858 277.947982 
L 109.378011 282.407163 
L 111.227443 286.204837 
L 113.076875 289.437102 
L 114.926307 292.187003 
L 116.775739 294.525894 
L 118.62517 296.514854 
L 120.474602 298.206041 
L 122.69392 299.904544 
L 124.913239 301.302442 
L 127.132557 302.452889 
L 129.721761 303.540289 
L 132.680852 304.515015 
L 136.00983 305.347667 
L 139.708693 306.027776 
L 144.14733 306.599823 
L 149.325739 307.038343 
L 155.983693 307.375528 
L 165.600739 307.617573 
L 181.135966 307.753374 
L 219.604148 307.798409 
L 374.95642 307.8 
L 374.95642 307.8 
" clip-path="url(#p0ab09930b0)" style="fill: none; stroke: #1f77b4; stroke-width: 2; stroke-linecap: square"/>
   </g>
   <g id="line2d_13">
    <path d="M 79.04733 307.8 
L 81.074104 206.09562 
L 83.100879 125.176642 
L 85.127653 129.844161 
L 87.154428 150.690876 
L 91.207977 185.417518 
L 95.261526 217.852555 
L 103.368625 254.962774 
L 111.475723 280.515328 
L 127.68992 299.262044 
L 176.33251 306.880292 
L 224.9751 307.033577 
L 273.617691 307.416788 
L 322.260281 307.570073 
L 370.902871 307.8 
" clip-path="url(#p0ab09930b0)" style="fill: none; stroke-dasharray: 3.7,1.6; stroke-dashoffset: 0; stroke: #1f77b4"/>
    <defs>
     <path id="m5431f313f0" d="M -3 3 
L 3 3 
L 3 -3 
L -3 -3 
z
" style="stroke: #000000; stroke-linejoin: miter"/>
    </defs>
    <g clip-path="url(#p0ab09930b0)">
     <use xlink:href="#m5431f313f0" x="79.04733" y="307.8" style="fill: #1f77b4; stroke: #000000; stroke-linejoin: miter"/>
     <use xlink:href="#m5431f313f0" x="81.074104" y="206.09562" style="fill: #1f77b4; stroke: #000000; stroke-linejoin: miter"/>
     <use xlink:href="#m5431f313f0" x="83.100879" y="125.176642" style="fill: #1f77b4; stroke: #000000; stroke-linejoin: miter"/>
     <use xlink:href="#m5431f313f0" x="85.127653" y="129.844161" style="fill: #1f77b4; stroke: #000000; stroke-linejoin: miter"/>
     <use xlink:href="#m5431f313f0" x="87.154428" y="150.690876" style="fill: #1f77b4; stroke: #000000; stroke-linejoin: miter"/>
     <use xlink:href="#m5431f313f0" x="91.207977" y="185.417518" style="fill: #1f77b4; stroke: #000000; stroke-linejoin: miter"/>
     <use xlink:href="#m5431f313f0" x="95.261526" y="217.852555" style="fill: #1f77b4; stroke: #000000; stroke-linejoin: miter"/>
     <use xlink:href="#m5431f313f0" x="103.368625" y="254.962774" style="fill: #1f77b4; stroke: #000000; stroke-linejoin: miter"/>
     <use xlink:href="#m5431f313f0" x="111.475723" y="280.515328" style="fill: #1f77b4; stroke: #000000; stroke-linejoin: miter"/>
     <use xlink:href="#m5431f313f0" x="127.68992" y="299.262044" style="fill: #1f77b4; stroke: #000000; stroke-linejoin: miter"/>
     <use xlink:href="#m5431f313f0" x="176.33251" y="306.880292" style="fill: #1f77b4; stroke: #000000; stroke-linejoin: miter"/>
     <use xlink:href="#m5431f313f0" x="224.9751" y="307.033577" style="fill: #1f77b4; stroke: #000000; stroke-linejoin: miter"/>
     <use xlink:href="#m5431f313f0" x="273.617691" y="307.416788" style="fill: #1f77b4; stroke: #000000; stroke-linejoin: miter"/>
     <use xlink:href="#m5431f313f0" x="322.260281" y="307.570073" style="fill: #1f77b4; stroke: #000000; stroke-linejoin: miter"/>
     <use xlink:href="#m5431f313f0" x="370.902871" y="307.8" style="fill: #1f77b4; stroke: #000000; stroke-linejoin: miter"/>
    </g>
   </g>
   <g id="line2d_14">
    <path d="M 79.04733 307.8 
L 79.417216 301.928853 
L 80.156989 269.196741 
L 81.266648 218.958464 
L 82.00642 194.602801 
L 82.746193 177.525661 
L 83.485966 166.421093 
L 84.225739 159.992637 
L 84.595625 158.18139 
L 84.965511 157.146296 
L 85.335398 156.784132 
L 85.705284 157.00329 
L 86.07517 157.722636 
L 86.445057 158.870428 
L 87.18483 162.205395 
L 88.294489 169.063248 
L 89.774034 180.147007 
L 94.582557 217.776304 
L 96.431989 230.339787 
L 98.28142 241.4316 
L 100.130852 251.090403 
L 101.980284 259.429488 
L 103.829716 266.590037 
L 105.679148 272.717107 
L 107.52858 277.947982 
L 109.378011 282.407163 
L 111.227443 286.204837 
L 113.076875 289.437102 
L 114.926307 292.187003 
L 116.775739 294.525894 
L 118.62517 296.514854 
L 120.474602 298.206041 
L 122.69392 299.904544 
L 124.913239 301.302442 
L 127.132557 302.452889 
L 129.721761 303.540289 
L 132.680852 304.515015 
L 136.00983 305.347667 
L 139.708693 306.027776 
L 144.14733 306.599823 
L 149.325739 307.038343 
L 155.983693 307.375528 
L 165.600739 307.617573 
L 181.135966 307.753374 
L 219.604148 307.798409 
L 374.95642 307.8 
L 374.95642 307.8 
" clip-path="url(#p0ab09930b0)" style="fill: none; stroke: #000000; stroke-width: 2; stroke-linecap: square"/>
   </g>
   <g id="line2d_15">
    <path d="M 79.04733 307.8 
L 81.074104 229.203285 
L 83.100879 143.670438 
L 85.127653 129.813504 
L 87.154428 134.458029 
L 91.207977 148.360949 
L 95.261526 176.166788 
L 103.368625 197.028832 
L 111.475723 234.162044 
L 127.68992 255.077737 
L 176.33251 280.760584 
L 224.9751 299.944161 
L 273.617691 305.24781 
L 322.260281 305.95292 
L 370.902871 307.8 
" clip-path="url(#p0ab09930b0)" style="fill: none; stroke-dasharray: 3.7,1.6; stroke-dashoffset: 0; stroke: #000000"/>
    <defs>
     <path id="mff53d14a2d" d="M -3 3 
L 3 3 
L 3 -3 
L -3 -3 
z
" style="stroke: #000000; stroke-linejoin: miter"/>
    </defs>
    <g clip-path="url(#p0ab09930b0)">
     <use xlink:href="#mff53d14a2d" x="79.04733" y="307.8" style="stroke: #000000; stroke-linejoin: miter"/>
     <use xlink:href="#mff53d14a2d" x="81.074104" y="229.203285" style="stroke: #000000; stroke-linejoin: miter"/>
     <use xlink:href="#mff53d14a2d" x="83.100879" y="143.670438" style="stroke: #000000; stroke-linejoin: miter"/>
     <use xlink:href="#mff53d14a2d" x="85.127653" y="129.813504" style="stroke: #000000; stroke-linejoin: miter"/>
     <use xlink:href="#mff53d14a2d" x="87.154428" y="134.458029" style="stroke: #000000; stroke-linejoin: miter"/>
     <use xlink:href="#mff53d14a2d" x="91.207977" y="148.360949" style="stroke: #000000; stroke-linejoin: miter"/>
     <use xlink:href="#mff53d14a2d" x="95.261526" y="176.166788" style="stroke: #000000; stroke-linejoin: miter"/>
     <use xlink:href="#mff53d14a2d" x="103.368625" y="197.028832" style="stroke: #000000; stroke-linejoin: miter"/>
     <use xlink:href="#mff53d14a2d" x="111.475723" y="234.162044" style="stroke: #000000; stroke-linejoin: miter"/>
     <use xlink:href="#mff53d14a2d" x="127.68992" y="255.077737" style="stroke: #000000; stroke-linejoin: miter"/>
     <use xlink:href="#mff53d14a2d" x="176.33251" y="280.760584" style="stroke: #000000; stroke-linejoin: miter"/>
     <use xlink:href="#mff53d14a2d" x="224.9751" y="299.944161" style="stroke: #000000; stroke-linejoin: miter"/>
     <use xlink:href="#mff53d14a2d" x="273.617691" y="305.24781" style="stroke: #000000; stroke-linejoin: miter"/>
     <use xlink:href="#mff53d14a2d" x="322.260281" y="305.95292" style="stroke: #000000; stroke-linejoin: miter"/>
     <use xlink:href="#mff53d14a2d" x="370.902871" y="307.8" style="stroke: #000000; stroke-linejoin: miter"/>
    </g>
   </g>
   <g id="patch_3">
    <path d="M 64.251875 320.4 
L 64.251875 43.2 
" style="fill: none; stroke: #000000; stroke-width: 0.8; stroke-linejoin: miter; stroke-linecap: square"/>
   </g>
   <g id="patch_4">
    <path d="M 389.751875 320.4 
L 389.751875 43.2 
" style="fill: none; stroke: #000000; stroke-width: 0.8; stroke-linejoin: miter; stroke-linecap: square"/>
   </g>
   <g id="patch_5">
    <path d="M 64.251875 320.4 
L 389.751875 320.4 
" style="fill: none; stroke: #000000; stroke-width: 0.8; stroke-linejoin: miter; stroke-linecap: square"/>
   </g>
   <g id="patch_6">
    <path d="M 64.251875 43.2 
L 389.751875 43.2 
" style="fill: none; stroke: #000000; stroke-width: 0.8; stroke-linejoin: miter; stroke-linecap: square"/>
   </g>
   <g id="legend_1">
    <g id="patch_7">
     <path d="M 241.150312 109.9125 
L 382.751875 109.9125 
Q 384.751875 109.9125 384.751875 107.9125 
L 384.751875 50.2 
Q 384.751875 48.2 382.751875 48.2 
L 241.150312 48.2 
Q 239.150312 48.2 239.150312 50.2 
L 239.150312 107.9125 
Q 239.150312 109.9125 241.150312 109.9125 
z
" style="fill: #ffffff; opacity: 0.8; stroke: #cccccc; stroke-linejoin: miter"/>
    </g>
    <g id="line2d_16">
     <path d="M 243.150312 56.298437 
L 263.150312 56.298437 
" style="fill: none; stroke: #1f77b4; stroke-width: 2; stroke-linecap: square"/>
    </g>
    <g id="line2d_17"/>
    <g id="text_14">
     <!-- ED60, RIF -->
     <g transform="translate(271.150312 59.798437) scale(0.1 -0.1)">
      <defs>
       <path id="DejaVuSans-45" d="M 628 4666 
L 3578 4666 
L 3578 4134 
L 1259 4134 
L 1259 2753 
L 3481 2753 
L 3481 2222 
L 1259 2222 
L 1259 531 
L 3634 531 
L 3634 0 
L 628 0 
L 628 4666 
z
" transform="scale(0.015625)"/>
       <path id="DejaVuSans-44" d="M 1259 4147 
L 1259 519 
L 2022 519 
Q 2988 519 3436 956 
Q 3884 1394 3884 2338 
Q 3884 3275 3436 3711 
Q 2988 4147 2022 4147 
L 1259 4147 
z
M 628 4666 
L 1925 4666 
Q 3281 4666 3915 4102 
Q 4550 3538 4550 2338 
Q 4550 1131 3912 565 
Q 3275 0 1925 0 
L 628 0 
L 628 4666 
z
" transform="scale(0.015625)"/>
       <path id="DejaVuSans-2c" d="M 750 794 
L 1409 794 
L 1409 256 
L 897 -744 
L 494 -744 
L 750 256 
L 750 794 
z
" transform="scale(0.015625)"/>
       <path id="DejaVuSans-20" transform="scale(0.015625)"/>
       <path id="DejaVuSans-52" d="M 2841 2188 
Q 3044 2119 3236 1894 
Q 3428 1669 3622 1275 
L 4263 0 
L 3584 0 
L 2988 1197 
Q 2756 1666 2539 1819 
Q 2322 1972 1947 1972 
L 1259 1972 
L 1259 0 
L 628 0 
L 628 4666 
L 2053 4666 
Q 2853 4666 3247 4331 
Q 3641 3997 3641 3322 
Q 3641 2881 3436 2590 
Q 3231 2300 2841 2188 
z
M 1259 4147 
L 1259 2491 
L 2053 2491 
Q 2509 2491 2742 2702 
Q 2975 2913 2975 3322 
Q 2975 3731 2742 3939 
Q 2509 4147 2053 4147 
L 1259 4147 
z
" transform="scale(0.015625)"/>
       <path id="DejaVuSans-49" d="M 628 4666 
L 1259 4666 
L 1259 0 
L 628 0 
L 628 4666 
z
" transform="scale(0.015625)"/>
       <path id="DejaVuSans-46" d="M 628 4666 
L 3309 4666 
L 3309 4134 
L 1259 4134 
L 1259 2759 
L 3109 2759 
L 3109 2228 
L 1259 2228 
L 1259 0 
L 628 0 
L 628 4666 
z
" transform="scale(0.015625)"/>
      </defs>
      <use xlink:href="#DejaVuSans-45"/>
      <use xlink:href="#DejaVuSans-44" transform="translate(63.183594 0)"/>
      <use xlink:href="#DejaVuSans-36" transform="translate(140.185547 0)"/>
      <use xlink:href="#DejaVuSans-30" transform="translate(203.808594 0)"/>
      <use xlink:href="#DejaVuSans-2c" transform="translate(267.431641 0)"/>
      <use xlink:href="#DejaVuSans-20" transform="translate(299.21875 0)"/>
      <use xlink:href="#DejaVuSans-52" transform="translate(331.005859 0)"/>
      <use xlink:href="#DejaVuSans-49" transform="translate(400.488281 0)"/>
      <use xlink:href="#DejaVuSans-46" transform="translate(429.980469 0)"/>
     </g>
    </g>
    <g id="LineCollection_3">
     <path d="M 253.150312 75.976562 
L 253.150312 65.976562 
" style="fill: none; stroke: #1f77b4"/>
    </g>
    <g id="line2d_18">
     <path d="M 243.150312 70.976562 
L 263.150312 70.976562 
" style="fill: none; stroke-dasharray: 3.7,1.6; stroke-dashoffset: 0; stroke: #1f77b4"/>
    </g>
    <g id="line2d_19">
     <g>
      <use xlink:href="#m5431f313f0" x="253.150312" y="70.976562" style="fill: #1f77b4; stroke: #000000; stroke-linejoin: miter"/>
     </g>
    </g>
    <g id="text_15">
     <!-- ED60, RIF±SD (n=32) -->
     <g transform="translate(271.150312 74.476562) scale(0.1 -0.1)">
      <defs>
       <path id="DejaVuSans-b1" d="M 2944 4013 
L 2944 2803 
L 4684 2803 
L 4684 2272 
L 2944 2272 
L 2944 1063 
L 2419 1063 
L 2419 2272 
L 678 2272 
L 678 2803 
L 2419 2803 
L 2419 4013 
L 2944 4013 
z
M 678 531 
L 4684 531 
L 4684 0 
L 678 0 
L 678 531 
z
" transform="scale(0.015625)"/>
       <path id="DejaVuSans-53" d="M 3425 4513 
L 3425 3897 
Q 3066 4069 2747 4153 
Q 2428 4238 2131 4238 
Q 1616 4238 1336 4038 
Q 1056 3838 1056 3469 
Q 1056 3159 1242 3001 
Q 1428 2844 1947 2747 
L 2328 2669 
Q 3034 2534 3370 2195 
Q 3706 1856 3706 1288 
Q 3706 609 3251 259 
Q 2797 -91 1919 -91 
Q 1588 -91 1214 -16 
Q 841 59 441 206 
L 441 856 
Q 825 641 1194 531 
Q 1563 422 1919 422 
Q 2459 422 2753 634 
Q 3047 847 3047 1241 
Q 3047 1584 2836 1778 
Q 2625 1972 2144 2069 
L 1759 2144 
Q 1053 2284 737 2584 
Q 422 2884 422 3419 
Q 422 4038 858 4394 
Q 1294 4750 2059 4750 
Q 2388 4750 2728 4690 
Q 3069 4631 3425 4513 
z
" transform="scale(0.015625)"/>
       <path id="DejaVuSans-28" d="M 1984 4856 
Q 1566 4138 1362 3434 
Q 1159 2731 1159 2009 
Q 1159 1288 1364 580 
Q 1569 -128 1984 -844 
L 1484 -844 
Q 1016 -109 783 600 
Q 550 1309 550 2009 
Q 550 2706 781 3412 
Q 1013 4119 1484 4856 
L 1984 4856 
z
" transform="scale(0.015625)"/>
       <path id="DejaVuSans-6e" d="M 3513 2113 
L 3513 0 
L 2938 0 
L 2938 2094 
Q 2938 2591 2744 2837 
Q 2550 3084 2163 3084 
Q 1697 3084 1428 2787 
Q 1159 2491 1159 1978 
L 1159 0 
L 581 0 
L 581 3500 
L 1159 3500 
L 1159 2956 
Q 1366 3272 1645 3428 
Q 1925 3584 2291 3584 
Q 2894 3584 3203 3211 
Q 3513 2838 3513 2113 
z
" transform="scale(0.015625)"/>
       <path id="DejaVuSans-3d" d="M 678 2906 
L 4684 2906 
L 4684 2381 
L 678 2381 
L 678 2906 
z
M 678 1631 
L 4684 1631 
L 4684 1100 
L 678 1100 
L 678 1631 
z
" transform="scale(0.015625)"/>
       <path id="DejaVuSans-29" d="M 513 4856 
L 1013 4856 
Q 1481 4119 1714 3412 
Q 1947 2706 1947 2009 
Q 1947 1309 1714 600 
Q 1481 -109 1013 -844 
L 513 -844 
Q 928 -128 1133 580 
Q 1338 1288 1338 2009 
Q 1338 2731 1133 3434 
Q 928 4138 513 4856 
z
" transform="scale(0.015625)"/>
      </defs>
      <use xlink:href="#DejaVuSans-45"/>
      <use xlink:href="#DejaVuSans-44" transform="translate(63.183594 0)"/>
      <use xlink:href="#DejaVuSans-36" transform="translate(140.185547 0)"/>
      <use xlink:href="#DejaVuSans-30" transform="translate(203.808594 0)"/>
      <use xlink:href="#DejaVuSans-2c" transform="translate(267.431641 0)"/>
      <use xlink:href="#DejaVuSans-20" transform="translate(299.21875 0)"/>
      <use xlink:href="#DejaVuSans-52" transform="translate(331.005859 0)"/>
      <use xlink:href="#DejaVuSans-49" transform="translate(400.488281 0)"/>
      <use xlink:href="#DejaVuSans-46" transform="translate(429.980469 0)"/>
      <use xlink:href="#DejaVuSans-b1" transform="translate(487.5 0)"/>
      <use xlink:href="#DejaVuSans-53" transform="translate(571.289062 0)"/>
      <use xlink:href="#DejaVuSans-44" transform="translate(634.765625 0)"/>
      <use xlink:href="#DejaVuSans-20" transform="translate(711.767578 0)"/>
      <use xlink:href="#DejaVuSans-28" transform="translate(743.554688 0)"/>
      <use xlink:href="#DejaVuSans-6e" transform="translate(782.568359 0)"/>
      <use xlink:href="#DejaVuSans-3d" transform="translate(845.947266 0)"/>
      <use xlink:href="#DejaVuSans-33" transform="translate(929.736328 0)"/>
      <use xlink:href="#DejaVuSans-32" transform="translate(993.359375 0)"/>
      <use xlink:href="#DejaVuSans-29" transform="translate(1056.982422 0)"/>
     </g>
    </g>
    <g id="line2d_20">
     <path d="M 243.150312 85.654687 
L 263.150312 85.654687 
" style="fill: none; stroke: #000000; stroke-width: 2; stroke-linecap: square"/>
    </g>
    <g id="line2d_21"/>
    <g id="text_16">
     <!-- ED60 -->
     <g transform="translate(271.150312 89.154687) scale(0.1 -0.1)">
      <use xlink:href="#DejaVuSans-45"/>
      <use xlink:href="#DejaVuSans-44" transform="translate(63.183594 0)"/>
      <use xlink:href="#DejaVuSans-36" transform="translate(140.185547 0)"/>
      <use xlink:href="#DejaVuSans-30" transform="translate(203.808594 0)"/>
     </g>
    </g>
    <g id="LineCollection_4">
     <path d="M 253.150312 105.332812 
L 253.150312 95.332812 
" style="fill: none; stroke: #000000"/>
    </g>
    <g id="line2d_22">
     <path d="M 243.150312 100.332812 
L 263.150312 100.332812 
" style="fill: none; stroke-dasharray: 3.7,1.6; stroke-dashoffset: 0; stroke: #000000"/>
    </g>
    <g id="line2d_23">
     <g>
      <use xlink:href="#mff53d14a2d" x="253.150312" y="100.332812" style="stroke: #000000; stroke-linejoin: miter"/>
     </g>
    </g>
    <g id="text_17">
     <!-- ED60±SD (n=32) -->
     <g transform="translate(271.150312 103.832812) scale(0.1 -0.1)">
      <use xlink:href="#DejaVuSans-45"/>
      <use xlink:href="#DejaVuSans-44" transform="translate(63.183594 0)"/>
      <use xlink:href="#DejaVuSans-36" transform="translate(140.185547 0)"/>
      <use xlink:href="#DejaVuSans-30" transform="translate(203.808594 0)"/>
      <use xlink:href="#DejaVuSans-b1" transform="translate(267.431641 0)"/>
      <use xlink:href="#DejaVuSans-53" transform="translate(351.220703 0)"/>
      <use xlink:href="#DejaVuSans-44" transform="translate(414.697266 0)"/>
      <use xlink:href="#DejaVuSans-20" transform="translate(491.699219 0)"/>
      <use xlink:href="#DejaVuSans-28" transform="translate(523.486328 0)"/>
      <use xlink:href="#DejaVuSans-6e" transform="translate(562.5 0)"/>
      <use xlink:href="#DejaVuSans-3d" transform="translate(625.878906 0)"/>
      <use xlink:href="#DejaVuSans-33" transform="translate(709.667969 0)"/>
      <use xlink:href="#DejaVuSans-32" transform="translate(773.291016 0)"/>
      <use xlink:href="#DejaVuSans-29" transform="translate(836.914062 0)"/>
     </g>
    </g>
   </g>
  </g>
  <g id="axes_2">
   <g id="patch_8">
    <path d="M 487.401875 320.4 
L 812.901875 320.4 
L 812.901875 43.2 
L 487.401875 43.2 
z
" style="fill: #ffffff"/>
   </g>
   <g id="matplotlib.axis_3">
    <g id="xtick_5">
     <g id="line2d_24">
      <g>
       <use xlink:href="#m84af25aa37" x="502.19733" y="320.4" style="stroke: #000000; stroke-width: 0.8"/>
      </g>
     </g>
     <g id="text_18">
      <!-- 0 -->
      <g transform="translate(497.425455 338.797656) scale(0.15 -0.15)">
       <use xlink:href="#DejaVuSans-30"/>
      </g>
     </g>
    </g>
    <g id="xtick_6">
     <g id="line2d_25">
      <g>
       <use xlink:href="#m84af25aa37" x="583.268313" y="320.4" style="stroke: #000000; stroke-width: 0.8"/>
      </g>
     </g>
     <g id="text_19">
      <!-- 20 -->
      <g transform="translate(573.724563 338.797656) scale(0.15 -0.15)">
       <use xlink:href="#DejaVuSans-32"/>
       <use xlink:href="#DejaVuSans-30" transform="translate(63.623047 0)"/>
      </g>
     </g>
    </g>
    <g id="xtick_7">
     <g id="line2d_26">
      <g>
       <use xlink:href="#m84af25aa37" x="664.339297" y="320.4" style="stroke: #000000; stroke-width: 0.8"/>
      </g>
     </g>
     <g id="text_20">
      <!-- 40 -->
      <g transform="translate(654.795547 338.797656) scale(0.15 -0.15)">
       <use xlink:href="#DejaVuSans-34"/>
       <use xlink:href="#DejaVuSans-30" transform="translate(63.623047 0)"/>
      </g>
     </g>
    </g>
    <g id="xtick_8">
     <g id="line2d_27">
      <g>
       <use xlink:href="#m84af25aa37" x="745.410281" y="320.4" style="stroke: #000000; stroke-width: 0.8"/>
      </g>
     </g>
     <g id="text_21">
      <!-- 60 -->
      <g transform="translate(735.866531 338.797656) scale(0.15 -0.15)">
       <use xlink:href="#DejaVuSans-36"/>
       <use xlink:href="#DejaVuSans-30" transform="translate(63.623047 0)"/>
      </g>
     </g>
    </g>
    <g id="text_22">
     <!-- time [hr] -->
     <g transform="translate(605.077344 359.594375) scale(0.18 -0.18)">
      <use xlink:href="#DejaVuSans-Bold-74"/>
      <use xlink:href="#DejaVuSans-Bold-69" transform="translate(47.802734 0)"/>
      <use xlink:href="#DejaVuSans-Bold-6d" transform="translate(82.080078 0)"/>
      <use xlink:href="#DejaVuSans-Bold-65" transform="translate(186.279297 0)"/>
      <use xlink:href="#DejaVuSans-Bold-20" transform="translate(254.101562 0)"/>
      <use xlink:href="#DejaVuSans-Bold-5b" transform="translate(288.916016 0)"/>
      <use xlink:href="#DejaVuSans-Bold-68" transform="translate(334.619141 0)"/>
      <use xlink:href="#DejaVuSans-Bold-72" transform="translate(405.810547 0)"/>
      <use xlink:href="#DejaVuSans-Bold-5d" transform="translate(455.126953 0)"/>
     </g>
    </g>
   </g>
   <g id="matplotlib.axis_4">
    <g id="ytick_8">
     <g id="line2d_28">
      <g>
       <use xlink:href="#md3a63d0f80" x="487.401875" y="291.528563" style="stroke: #000000; stroke-width: 0.8"/>
      </g>
     </g>
     <g id="text_23">
      <!-- 0 -->
      <g transform="translate(470.858125 297.227391) scale(0.15 -0.15)">
       <use xlink:href="#DejaVuSans-30"/>
      </g>
     </g>
    </g>
    <g id="ytick_9">
     <g id="line2d_29">
      <g>
       <use xlink:href="#md3a63d0f80" x="487.401875" y="246.531647" style="stroke: #000000; stroke-width: 0.8"/>
      </g>
     </g>
     <g id="text_24">
      <!-- 50 -->
      <g transform="translate(461.314375 252.230475) scale(0.15 -0.15)">
       <use xlink:href="#DejaVuSans-35"/>
       <use xlink:href="#DejaVuSans-30" transform="translate(63.623047 0)"/>
      </g>
     </g>
    </g>
    <g id="ytick_10">
     <g id="line2d_30">
      <g>
       <use xlink:href="#md3a63d0f80" x="487.401875" y="201.534732" style="stroke: #000000; stroke-width: 0.8"/>
      </g>
     </g>
     <g id="text_25">
      <!-- 100 -->
      <g transform="translate(451.770625 207.23356) scale(0.15 -0.15)">
       <use xlink:href="#DejaVuSans-31"/>
       <use xlink:href="#DejaVuSans-30" transform="translate(63.623047 0)"/>
       <use xlink:href="#DejaVuSans-30" transform="translate(127.246094 0)"/>
      </g>
     </g>
    </g>
    <g id="ytick_11">
     <g id="line2d_31">
      <g>
       <use xlink:href="#md3a63d0f80" x="487.401875" y="156.537816" style="stroke: #000000; stroke-width: 0.8"/>
      </g>
     </g>
     <g id="text_26">
      <!-- 150 -->
      <g transform="translate(451.770625 162.236644) scale(0.15 -0.15)">
       <use xlink:href="#DejaVuSans-31"/>
       <use xlink:href="#DejaVuSans-35" transform="translate(63.623047 0)"/>
       <use xlink:href="#DejaVuSans-30" transform="translate(127.246094 0)"/>
      </g>
     </g>
    </g>
    <g id="ytick_12">
     <g id="line2d_32">
      <g>
       <use xlink:href="#md3a63d0f80" x="487.401875" y="111.540901" style="stroke: #000000; stroke-width: 0.8"/>
      </g>
     </g>
     <g id="text_27">
      <!-- 200 -->
      <g transform="translate(451.770625 117.239729) scale(0.15 -0.15)">
       <use xlink:href="#DejaVuSans-32"/>
       <use xlink:href="#DejaVuSans-30" transform="translate(63.623047 0)"/>
       <use xlink:href="#DejaVuSans-30" transform="translate(127.246094 0)"/>
      </g>
     </g>
    </g>
    <g id="ytick_13">
     <g id="line2d_33">
      <g>
       <use xlink:href="#md3a63d0f80" x="487.401875" y="66.543985" style="stroke: #000000; stroke-width: 0.8"/>
      </g>
     </g>
     <g id="text_28">
      <!-- 250 -->
      <g transform="translate(451.770625 72.242813) scale(0.15 -0.15)">
       <use xlink:href="#DejaVuSans-32"/>
       <use xlink:href="#DejaVuSans-35" transform="translate(63.623047 0)"/>
       <use xlink:href="#DejaVuSans-30" transform="translate(127.246094 0)"/>
      </g>
     </g>
    </g>
    <g id="text_29">
     <!-- M4 plasma [nM] -->
     <g transform="translate(444.027187 263.28375) rotate(-90) scale(0.18 -0.18)">
      <defs>
       <path id="DejaVuSans-Bold-34" d="M 2356 3675 
L 1038 1722 
L 2356 1722 
L 2356 3675 
z
M 2156 4666 
L 3494 4666 
L 3494 1722 
L 4159 1722 
L 4159 850 
L 3494 850 
L 3494 0 
L 2356 0 
L 2356 850 
L 288 850 
L 288 1881 
L 2156 4666 
z
" transform="scale(0.015625)"/>
      </defs>
      <use xlink:href="#DejaVuSans-Bold-4d"/>
      <use xlink:href="#DejaVuSans-Bold-34" transform="translate(99.511719 0)"/>
      <use xlink:href="#DejaVuSans-Bold-20" transform="translate(169.091797 0)"/>
      <use xlink:href="#DejaVuSans-Bold-70" transform="translate(203.90625 0)"/>
      <use xlink:href="#DejaVuSans-Bold-6c" transform="translate(275.488281 0)"/>
      <use xlink:href="#DejaVuSans-Bold-61" transform="translate(309.765625 0)"/>
      <use xlink:href="#DejaVuSans-Bold-73" transform="translate(377.246094 0)"/>
      <use xlink:href="#DejaVuSans-Bold-6d" transform="translate(436.767578 0)"/>
      <use xlink:href="#DejaVuSans-Bold-61" transform="translate(540.966797 0)"/>
      <use xlink:href="#DejaVuSans-Bold-20" transform="translate(608.447266 0)"/>
      <use xlink:href="#DejaVuSans-Bold-5b" transform="translate(643.261719 0)"/>
      <use xlink:href="#DejaVuSans-Bold-6e" transform="translate(688.964844 0)"/>
      <use xlink:href="#DejaVuSans-Bold-4d" transform="translate(760.15625 0)"/>
      <use xlink:href="#DejaVuSans-Bold-5d" transform="translate(859.667969 0)"/>
     </g>
    </g>
   </g>
   <g id="LineCollection_5">
    <path clip-path="url(#p57d1554660)" style="fill: none; stroke: #1f77b4"/>
    <path clip-path="url(#p57d1554660)" style="fill: none; stroke: #1f77b4"/>
    <path d="M 506.250879 226.511906 
L 506.250879 116.757434 
" clip-path="url(#p57d1554660)" style="fill: none; stroke: #1f77b4"/>
    <path d="M 508.277653 173.672918 
L 508.277653 55.8 
" clip-path="url(#p57d1554660)" style="fill: none; stroke: #1f77b4"/>
    <path d="M 510.304428 177.714867 
L 510.304428 55.8 
" clip-path="url(#p57d1554660)" style="fill: none; stroke: #1f77b4"/>
    <path d="M 514.357977 191.930783 
L 514.357977 98.482295 
" clip-path="url(#p57d1554660)" style="fill: none; stroke: #1f77b4"/>
    <path d="M 518.411526 220.397162 
L 518.411526 143.185564 
" clip-path="url(#p57d1554660)" style="fill: none; stroke: #1f77b4"/>
    <path d="M 526.518625 265.100432 
L 526.518625 232.592104 
" clip-path="url(#p57d1554660)" style="fill: none; stroke: #1f77b4"/>
    <path d="M 534.625723 285.431092 
L 534.625723 261.041209 
" clip-path="url(#p57d1554660)" style="fill: none; stroke: #1f77b4"/>
    <path clip-path="url(#p57d1554660)" style="fill: none; stroke: #1f77b4"/>
    <path clip-path="url(#p57d1554660)" style="fill: none; stroke: #1f77b4"/>
   </g>
   <g id="LineCollection_6">
    <path clip-path="url(#p57d1554660)" style="fill: none; stroke: #000000"/>
    <path d="M 504.224104 307.8 
L 504.224104 267.13868 
" clip-path="url(#p57d1554660)" style="fill: none; stroke: #000000"/>
    <path d="M 506.250879 289.507588 
L 506.250879 248.846268 
" clip-path="url(#p57d1554660)" style="fill: none; stroke: #000000"/>
    <path d="M 508.277653 277.295373 
L 508.277653 236.6686 
" clip-path="url(#p57d1554660)" style="fill: none; stroke: #000000"/>
    <path d="M 510.304428 279.333621 
L 510.304428 234.630352 
" clip-path="url(#p57d1554660)" style="fill: none; stroke: #000000"/>
    <path d="M 514.357977 279.350895 
L 514.357977 238.689574 
" clip-path="url(#p57d1554660)" style="fill: none; stroke: #000000"/>
    <path d="M 518.411526 281.389143 
L 518.411526 248.846268 
" clip-path="url(#p57d1554660)" style="fill: none; stroke: #000000"/>
    <path d="M 526.518625 287.452067 
L 526.518625 271.215176 
" clip-path="url(#p57d1554660)" style="fill: none; stroke: #000000"/>
    <path d="M 534.625723 303.706231 
L 534.625723 263.079457 
" clip-path="url(#p57d1554660)" style="fill: none; stroke: #000000"/>
    <path clip-path="url(#p57d1554660)" style="fill: none; stroke: #000000"/>
    <path clip-path="url(#p57d1554660)" style="fill: none; stroke: #000000"/>
   </g>
   <g id="line2d_34">
    <path d="M 502.19733 291.528563 
L 502.567216 291.269058 
L 502.937102 290.070547 
L 503.306989 287.923366 
L 504.046761 281.760423 
L 505.526307 268.301473 
L 506.26608 262.95753 
L 507.005852 258.905058 
L 507.745625 256.076857 
L 508.485398 254.309666 
L 509.22517 253.414938 
L 509.595057 253.237638 
L 509.964943 253.212427 
L 510.704716 253.543837 
L 511.444489 254.27646 
L 512.554148 255.897192 
L 514.033693 258.626114 
L 519.951875 270.184241 
L 521.801307 273.201281 
L 523.650739 275.846729 
L 525.50017 278.140635 
L 527.349602 280.115799 
L 529.199034 281.808897 
L 531.418352 283.518924 
L 533.63767 284.931711 
L 535.856989 286.097093 
L 538.446193 287.20022 
L 541.405284 288.189979 
L 544.734261 289.035939 
L 548.433125 289.727121 
L 552.871761 290.308567 
L 558.05017 290.75432 
L 564.708125 291.097075 
L 573.955284 291.336998 
L 589.120625 291.477984 
L 625.369489 291.526466 
L 798.10642 291.528563 
L 798.10642 291.528563 
" clip-path="url(#p57d1554660)" style="fill: none; stroke: #1f77b4; stroke-width: 2; stroke-linecap: square"/>
   </g>
   <g id="line2d_35">
    <path d="M 502.19733 291.528563 
L 504.224104 279.333621 
L 506.250879 171.63467 
L 508.277653 114.736459 
L 510.304428 116.757434 
L 514.357977 145.206539 
L 518.411526 181.791363 
L 526.518625 248.846268 
L 534.625723 273.236151 
L 550.83992 287.46934 
L 599.48251 291.528563 
" clip-path="url(#p57d1554660)" style="fill: none; stroke-dasharray: 3.7,1.6; stroke-dashoffset: 0; stroke: #1f77b4"/>
    <g clip-path="url(#p57d1554660)">
     <use xlink:href="#m5431f313f0" x="502.19733" y="291.528563" style="fill: #1f77b4; stroke: #000000; stroke-linejoin: miter"/>
     <use xlink:href="#m5431f313f0" x="504.224104" y="279.333621" style="fill: #1f77b4; stroke: #000000; stroke-linejoin: miter"/>
     <use xlink:href="#m5431f313f0" x="506.250879" y="171.63467" style="fill: #1f77b4; stroke: #000000; stroke-linejoin: miter"/>
     <use xlink:href="#m5431f313f0" x="508.277653" y="114.736459" style="fill: #1f77b4; stroke: #000000; stroke-linejoin: miter"/>
     <use xlink:href="#m5431f313f0" x="510.304428" y="116.757434" style="fill: #1f77b4; stroke: #000000; stroke-linejoin: miter"/>
     <use xlink:href="#m5431f313f0" x="514.357977" y="145.206539" style="fill: #1f77b4; stroke: #000000; stroke-linejoin: miter"/>
     <use xlink:href="#m5431f313f0" x="518.411526" y="181.791363" style="fill: #1f77b4; stroke: #000000; stroke-linejoin: miter"/>
     <use xlink:href="#m5431f313f0" x="526.518625" y="248.846268" style="fill: #1f77b4; stroke: #000000; stroke-linejoin: miter"/>
     <use xlink:href="#m5431f313f0" x="534.625723" y="273.236151" style="fill: #1f77b4; stroke: #000000; stroke-linejoin: miter"/>
     <use xlink:href="#m5431f313f0" x="550.83992" y="287.46934" style="fill: #1f77b4; stroke: #000000; stroke-linejoin: miter"/>
     <use xlink:href="#m5431f313f0" x="599.48251" y="291.528563" style="fill: #1f77b4; stroke: #000000; stroke-linejoin: miter"/>
    </g>
   </g>
   <g id="line2d_36">
    <path d="M 502.19733 291.528563 
L 502.567216 291.269058 
L 502.937102 290.070547 
L 503.306989 287.923366 
L 504.046761 281.760423 
L 505.526307 268.301473 
L 506.26608 262.95753 
L 507.005852 258.905058 
L 507.745625 256.076857 
L 508.485398 254.309666 
L 509.22517 253.414938 
L 509.595057 253.237638 
L 509.964943 253.212427 
L 510.704716 253.543837 
L 511.444489 254.27646 
L 512.554148 255.897192 
L 514.033693 258.626114 
L 519.951875 270.184241 
L 521.801307 273.201281 
L 523.650739 275.846729 
L 525.50017 278.140635 
L 527.349602 280.115799 
L 529.199034 281.808897 
L 531.418352 283.518924 
L 533.63767 284.931711 
L 535.856989 286.097093 
L 538.446193 287.20022 
L 541.405284 288.189979 
L 544.734261 289.035939 
L 548.433125 289.727121 
L 552.871761 290.308567 
L 558.05017 290.75432 
L 564.708125 291.097075 
L 573.955284 291.336998 
L 589.120625 291.477984 
L 625.369489 291.526466 
L 798.10642 291.528563 
L 798.10642 291.528563 
" clip-path="url(#p57d1554660)" style="fill: none; stroke: #000000; stroke-width: 2; stroke-linecap: square"/>
   </g>
   <g id="line2d_37">
    <path d="M 502.19733 291.528563 
L 504.224104 287.46934 
L 506.250879 269.176928 
L 508.277653 256.981986 
L 510.304428 256.981986 
L 514.357977 259.020234 
L 518.411526 265.117705 
L 526.518625 279.333621 
L 534.625723 283.392844 
L 550.83992 287.46934 
L 599.48251 289.490315 
" clip-path="url(#p57d1554660)" style="fill: none; stroke-dasharray: 3.7,1.6; stroke-dashoffset: 0; stroke: #000000"/>
    <g clip-path="url(#p57d1554660)">
     <use xlink:href="#mff53d14a2d" x="502.19733" y="291.528563" style="stroke: #000000; stroke-linejoin: miter"/>
     <use xlink:href="#mff53d14a2d" x="504.224104" y="287.46934" style="stroke: #000000; stroke-linejoin: miter"/>
     <use xlink:href="#mff53d14a2d" x="506.250879" y="269.176928" style="stroke: #000000; stroke-linejoin: miter"/>
     <use xlink:href="#mff53d14a2d" x="508.277653" y="256.981986" style="stroke: #000000; stroke-linejoin: miter"/>
     <use xlink:href="#mff53d14a2d" x="510.304428" y="256.981986" style="stroke: #000000; stroke-linejoin: miter"/>
     <use xlink:href="#mff53d14a2d" x="514.357977" y="259.020234" style="stroke: #000000; stroke-linejoin: miter"/>
     <use xlink:href="#mff53d14a2d" x="518.411526" y="265.117705" style="stroke: #000000; stroke-linejoin: miter"/>
     <use xlink:href="#mff53d14a2d" x="526.518625" y="279.333621" style="stroke: #000000; stroke-linejoin: miter"/>
     <use xlink:href="#mff53d14a2d" x="534.625723" y="283.392844" style="stroke: #000000; stroke-linejoin: miter"/>
     <use xlink:href="#mff53d14a2d" x="550.83992" y="287.46934" style="stroke: #000000; stroke-linejoin: miter"/>
     <use xlink:href="#mff53d14a2d" x="599.48251" y="289.490315" style="stroke: #000000; stroke-linejoin: miter"/>
    </g>
   </g>
   <g id="patch_9">
    <path d="M 487.401875 320.4 
L 487.401875 43.2 
" style="fill: none; stroke: #000000; stroke-width: 0.8; stroke-linejoin: miter; stroke-linecap: square"/>
   </g>
   <g id="patch_10">
    <path d="M 812.901875 320.4 
L 812.901875 43.2 
" style="fill: none; stroke: #000000; stroke-width: 0.8; stroke-linejoin: miter; stroke-linecap: square"/>
   </g>
   <g id="patch_11">
    <path d="M 487.401875 320.4 
L 812.901875 320.4 
" style="fill: none; stroke: #000000; stroke-width: 0.8; stroke-linejoin: miter; stroke-linecap: square"/>
   </g>
   <g id="patch_12">
    <path d="M 487.401875 43.2 
L 812.901875 43.2 
" style="fill: none; stroke: #000000; stroke-width: 0.8; stroke-linejoin: miter; stroke-linecap: square"/>
   </g>
   <g id="legend_2">
    <g id="patch_13">
     <path d="M 664.300313 109.9125 
L 805.901875 109.9125 
Q 807.901875 109.9125 807.901875 107.9125 
L 807.901875 50.2 
Q 807.901875 48.2 805.901875 48.2 
L 664.300313 48.2 
Q 662.300313 48.2 662.300313 50.2 
L 662.300313 107.9125 
Q 662.300313 109.9125 664.300313 109.9125 
z
" style="fill: #ffffff; opacity: 0.8; stroke: #cccccc; stroke-linejoin: miter"/>
    </g>
    <g id="line2d_38">
     <path d="M 666.300313 56.298437 
L 686.300313 56.298437 
" style="fill: none; stroke: #1f77b4; stroke-width: 2; stroke-linecap: square"/>
    </g>
    <g id="line2d_39"/>
    <g id="text_30">
     <!-- ED60, RIF -->
     <g transform="translate(694.300313 59.798437) scale(0.1 -0.1)">
      <use xlink:href="#DejaVuSans-45"/>
      <use xlink:href="#DejaVuSans-44" transform="translate(63.183594 0)"/>
      <use xlink:href="#DejaVuSans-36" transform="translate(140.185547 0)"/>
      <use xlink:href="#DejaVuSans-30" transform="translate(203.808594 0)"/>
      <use xlink:href="#DejaVuSans-2c" transform="translate(267.431641 0)"/>
      <use xlink:href="#DejaVuSans-20" transform="translate(299.21875 0)"/>
      <use xlink:href="#DejaVuSans-52" transform="translate(331.005859 0)"/>
      <use xlink:href="#DejaVuSans-49" transform="translate(400.488281 0)"/>
      <use xlink:href="#DejaVuSans-46" transform="translate(429.980469 0)"/>
     </g>
    </g>
    <g id="LineCollection_7">
     <path d="M 676.300313 75.976562 
L 676.300313 65.976562 
" style="fill: none; stroke: #1f77b4"/>
    </g>
    <g id="line2d_40">
     <path d="M 666.300313 70.976562 
L 686.300313 70.976562 
" style="fill: none; stroke-dasharray: 3.7,1.6; stroke-dashoffset: 0; stroke: #1f77b4"/>
    </g>
    <g id="line2d_41">
     <g>
      <use xlink:href="#m5431f313f0" x="676.300313" y="70.976562" style="fill: #1f77b4; stroke: #000000; stroke-linejoin: miter"/>
     </g>
    </g>
    <g id="text_31">
     <!-- ED60, RIF±SD (n=32) -->
     <g transform="translate(694.300313 74.476562) scale(0.1 -0.1)">
      <use xlink:href="#DejaVuSans-45"/>
      <use xlink:href="#DejaVuSans-44" transform="translate(63.183594 0)"/>
      <use xlink:href="#DejaVuSans-36" transform="translate(140.185547 0)"/>
      <use xlink:href="#DejaVuSans-30" transform="translate(203.808594 0)"/>
      <use xlink:href="#DejaVuSans-2c" transform="translate(267.431641 0)"/>
      <use xlink:href="#DejaVuSans-20" transform="translate(299.21875 0)"/>
      <use xlink:href="#DejaVuSans-52" transform="translate(331.005859 0)"/>
      <use xlink:href="#DejaVuSans-49" transform="translate(400.488281 0)"/>
      <use xlink:href="#DejaVuSans-46" transform="translate(429.980469 0)"/>
      <use xlink:href="#DejaVuSans-b1" transform="translate(487.5 0)"/>
      <use xlink:href="#DejaVuSans-53" transform="translate(571.289062 0)"/>
      <use xlink:href="#DejaVuSans-44" transform="translate(634.765625 0)"/>
      <use xlink:href="#DejaVuSans-20" transform="translate(711.767578 0)"/>
      <use xlink:href="#DejaVuSans-28" transform="translate(743.554688 0)"/>
      <use xlink:href="#DejaVuSans-6e" transform="translate(782.568359 0)"/>
      <use xlink:href="#DejaVuSans-3d" transform="translate(845.947266 0)"/>
      <use xlink:href="#DejaVuSans-33" transform="translate(929.736328 0)"/>
      <use xlink:href="#DejaVuSans-32" transform="translate(993.359375 0)"/>
      <use xlink:href="#DejaVuSans-29" transform="translate(1056.982422 0)"/>
     </g>
    </g>
    <g id="line2d_42">
     <path d="M 666.300313 85.654687 
L 686.300313 85.654687 
" style="fill: none; stroke: #000000; stroke-width: 2; stroke-linecap: square"/>
    </g>
    <g id="line2d_43"/>
    <g id="text_32">
     <!-- ED60 -->
     <g transform="translate(694.300313 89.154687) scale(0.1 -0.1)">
      <use xlink:href="#DejaVuSans-45"/>
      <use xlink:href="#DejaVuSans-44" transform="translate(63.183594 0)"/>
      <use xlink:href="#DejaVuSans-36" transform="translate(140.185547 0)"/>
      <use xlink:href="#DejaVuSans-30" transform="translate(203.808594 0)"/>
     </g>
    </g>
    <g id="LineCollection_8">
     <path d="M 676.300313 105.332812 
L 676.300313 95.332812 
" style="fill: none; stroke: #000000"/>
    </g>
    <g id="line2d_44">
     <path d="M 666.300313 100.332812 
L 686.300313 100.332812 
" style="fill: none; stroke-dasharray: 3.7,1.6; stroke-dashoffset: 0; stroke: #000000"/>
    </g>
    <g id="line2d_45">
     <g>
      <use xlink:href="#mff53d14a2d" x="676.300313" y="100.332812" style="stroke: #000000; stroke-linejoin: miter"/>
     </g>
    </g>
    <g id="text_33">
     <!-- ED60±SD (n=32) -->
     <g transform="translate(694.300313 103.832812) scale(0.1 -0.1)">
      <use xlink:href="#DejaVuSans-45"/>
      <use xlink:href="#DejaVuSans-44" transform="translate(63.183594 0)"/>
      <use xlink:href="#DejaVuSans-36" transform="translate(140.185547 0)"/>
      <use xlink:href="#DejaVuSans-30" transform="translate(203.808594 0)"/>
      <use xlink:href="#DejaVuSans-b1" transform="translate(267.431641 0)"/>
      <use xlink:href="#DejaVuSans-53" transform="translate(351.220703 0)"/>
      <use xlink:href="#DejaVuSans-44" transform="translate(414.697266 0)"/>
      <use xlink:href="#DejaVuSans-20" transform="translate(491.699219 0)"/>
      <use xlink:href="#DejaVuSans-28" transform="translate(523.486328 0)"/>
      <use xlink:href="#DejaVuSans-6e" transform="translate(562.5 0)"/>
      <use xlink:href="#DejaVuSans-3d" transform="translate(625.878906 0)"/>
      <use xlink:href="#DejaVuSans-33" transform="translate(709.667969 0)"/>
      <use xlink:href="#DejaVuSans-32" transform="translate(773.291016 0)"/>
      <use xlink:href="#DejaVuSans-29" transform="translate(836.914062 0)"/>
     </g>
    </g>
   </g>
  </g>
  <g id="axes_3">
   <g id="patch_14">
    <path d="M 910.551875 320.4 
L 1236.051875 320.4 
L 1236.051875 43.2 
L 910.551875 43.2 
z
" style="fill: #ffffff"/>
   </g>
   <g id="matplotlib.axis_5">
    <g id="xtick_9">
     <g id="line2d_46">
      <g>
       <use xlink:href="#m84af25aa37" x="925.34733" y="320.4" style="stroke: #000000; stroke-width: 0.8"/>
      </g>
     </g>
     <g id="text_34">
      <!-- 0 -->
      <g transform="translate(920.575455 338.797656) scale(0.15 -0.15)">
       <use xlink:href="#DejaVuSans-30"/>
      </g>
     </g>
    </g>
    <g id="xtick_10">
     <g id="line2d_47">
      <g>
       <use xlink:href="#m84af25aa37" x="1006.418313" y="320.4" style="stroke: #000000; stroke-width: 0.8"/>
      </g>
     </g>
     <g id="text_35">
      <!-- 20 -->
      <g transform="translate(996.874563 338.797656) scale(0.15 -0.15)">
       <use xlink:href="#DejaVuSans-32"/>
       <use xlink:href="#DejaVuSans-30" transform="translate(63.623047 0)"/>
      </g>
     </g>
    </g>
    <g id="xtick_11">
     <g id="line2d_48">
      <g>
       <use xlink:href="#m84af25aa37" x="1087.489297" y="320.4" style="stroke: #000000; stroke-width: 0.8"/>
      </g>
     </g>
     <g id="text_36">
      <!-- 40 -->
      <g transform="translate(1077.945547 338.797656) scale(0.15 -0.15)">
       <use xlink:href="#DejaVuSans-34"/>
       <use xlink:href="#DejaVuSans-30" transform="translate(63.623047 0)"/>
      </g>
     </g>
    </g>
    <g id="xtick_12">
     <g id="line2d_49">
      <g>
       <use xlink:href="#m84af25aa37" x="1168.560281" y="320.4" style="stroke: #000000; stroke-width: 0.8"/>
      </g>
     </g>
     <g id="text_37">
      <!-- 60 -->
      <g transform="translate(1159.016531 338.797656) scale(0.15 -0.15)">
       <use xlink:href="#DejaVuSans-36"/>
       <use xlink:href="#DejaVuSans-30" transform="translate(63.623047 0)"/>
      </g>
     </g>
    </g>
    <g id="text_38">
     <!-- time [hr] -->
     <g transform="translate(1028.227344 359.594375) scale(0.18 -0.18)">
      <use xlink:href="#DejaVuSans-Bold-74"/>
      <use xlink:href="#DejaVuSans-Bold-69" transform="translate(47.802734 0)"/>
      <use xlink:href="#DejaVuSans-Bold-6d" transform="translate(82.080078 0)"/>
      <use xlink:href="#DejaVuSans-Bold-65" transform="translate(186.279297 0)"/>
      <use xlink:href="#DejaVuSans-Bold-20" transform="translate(254.101562 0)"/>
      <use xlink:href="#DejaVuSans-Bold-5b" transform="translate(288.916016 0)"/>
      <use xlink:href="#DejaVuSans-Bold-68" transform="translate(334.619141 0)"/>
      <use xlink:href="#DejaVuSans-Bold-72" transform="translate(405.810547 0)"/>
      <use xlink:href="#DejaVuSans-Bold-5d" transform="translate(455.126953 0)"/>
     </g>
    </g>
   </g>
   <g id="matplotlib.axis_6">
    <g id="ytick_14">
     <g id="line2d_50">
      <g>
       <use xlink:href="#md3a63d0f80" x="910.551875" y="302.121643" style="stroke: #000000; stroke-width: 0.8"/>
      </g>
     </g>
     <g id="text_39">
      <!-- 0 -->
      <g transform="translate(894.008125 307.820471) scale(0.15 -0.15)">
       <use xlink:href="#DejaVuSans-30"/>
      </g>
     </g>
    </g>
    <g id="ytick_15">
     <g id="line2d_51">
      <g>
       <use xlink:href="#md3a63d0f80" x="910.551875" y="253.214501" style="stroke: #000000; stroke-width: 0.8"/>
      </g>
     </g>
     <g id="text_40">
      <!-- 20 -->
      <g transform="translate(884.464375 258.913329) scale(0.15 -0.15)">
       <use xlink:href="#DejaVuSans-32"/>
       <use xlink:href="#DejaVuSans-30" transform="translate(63.623047 0)"/>
      </g>
     </g>
    </g>
    <g id="ytick_16">
     <g id="line2d_52">
      <g>
       <use xlink:href="#md3a63d0f80" x="910.551875" y="204.30736" style="stroke: #000000; stroke-width: 0.8"/>
      </g>
     </g>
     <g id="text_41">
      <!-- 40 -->
      <g transform="translate(884.464375 210.006188) scale(0.15 -0.15)">
       <use xlink:href="#DejaVuSans-34"/>
       <use xlink:href="#DejaVuSans-30" transform="translate(63.623047 0)"/>
      </g>
     </g>
    </g>
    <g id="ytick_17">
     <g id="line2d_53">
      <g>
       <use xlink:href="#md3a63d0f80" x="910.551875" y="155.400218" style="stroke: #000000; stroke-width: 0.8"/>
      </g>
     </g>
     <g id="text_42">
      <!-- 60 -->
      <g transform="translate(884.464375 161.099046) scale(0.15 -0.15)">
       <use xlink:href="#DejaVuSans-36"/>
       <use xlink:href="#DejaVuSans-30" transform="translate(63.623047 0)"/>
      </g>
     </g>
    </g>
    <g id="ytick_18">
     <g id="line2d_54">
      <g>
       <use xlink:href="#md3a63d0f80" x="910.551875" y="106.493077" style="stroke: #000000; stroke-width: 0.8"/>
      </g>
     </g>
     <g id="text_43">
      <!-- 80 -->
      <g transform="translate(884.464375 112.191905) scale(0.15 -0.15)">
       <defs>
        <path id="DejaVuSans-38" d="M 2034 2216 
Q 1584 2216 1326 1975 
Q 1069 1734 1069 1313 
Q 1069 891 1326 650 
Q 1584 409 2034 409 
Q 2484 409 2743 651 
Q 3003 894 3003 1313 
Q 3003 1734 2745 1975 
Q 2488 2216 2034 2216 
z
M 1403 2484 
Q 997 2584 770 2862 
Q 544 3141 544 3541 
Q 544 4100 942 4425 
Q 1341 4750 2034 4750 
Q 2731 4750 3128 4425 
Q 3525 4100 3525 3541 
Q 3525 3141 3298 2862 
Q 3072 2584 2669 2484 
Q 3125 2378 3379 2068 
Q 3634 1759 3634 1313 
Q 3634 634 3220 271 
Q 2806 -91 2034 -91 
Q 1263 -91 848 271 
Q 434 634 434 1313 
Q 434 1759 690 2068 
Q 947 2378 1403 2484 
z
M 1172 3481 
Q 1172 3119 1398 2916 
Q 1625 2713 2034 2713 
Q 2441 2713 2670 2916 
Q 2900 3119 2900 3481 
Q 2900 3844 2670 4047 
Q 2441 4250 2034 4250 
Q 1625 4250 1398 4047 
Q 1172 3844 1172 3481 
z
" transform="scale(0.015625)"/>
       </defs>
       <use xlink:href="#DejaVuSans-38"/>
       <use xlink:href="#DejaVuSans-30" transform="translate(63.623047 0)"/>
      </g>
     </g>
    </g>
    <g id="ytick_19">
     <g id="line2d_55">
      <g>
       <use xlink:href="#md3a63d0f80" x="910.551875" y="57.585935" style="stroke: #000000; stroke-width: 0.8"/>
      </g>
     </g>
     <g id="text_44">
      <!-- 100 -->
      <g transform="translate(874.920625 63.284763) scale(0.15 -0.15)">
       <use xlink:href="#DejaVuSans-31"/>
       <use xlink:href="#DejaVuSans-30" transform="translate(63.623047 0)"/>
       <use xlink:href="#DejaVuSans-30" transform="translate(127.246094 0)"/>
      </g>
     </g>
    </g>
    <g id="text_45">
     <!-- M6 plasma [nM] -->
     <g transform="translate(867.177187 263.28375) rotate(-90) scale(0.18 -0.18)">
      <defs>
       <path id="DejaVuSans-Bold-36" d="M 2316 2303 
Q 2000 2303 1842 2098 
Q 1684 1894 1684 1484 
Q 1684 1075 1842 870 
Q 2000 666 2316 666 
Q 2634 666 2792 870 
Q 2950 1075 2950 1484 
Q 2950 1894 2792 2098 
Q 2634 2303 2316 2303 
z
M 3803 4544 
L 3803 3681 
Q 3506 3822 3243 3889 
Q 2981 3956 2731 3956 
Q 2194 3956 1894 3657 
Q 1594 3359 1544 2772 
Q 1750 2925 1990 3001 
Q 2231 3078 2516 3078 
Q 3231 3078 3670 2659 
Q 4109 2241 4109 1563 
Q 4109 813 3618 361 
Q 3128 -91 2303 -91 
Q 1394 -91 895 523 
Q 397 1138 397 2266 
Q 397 3422 980 4083 
Q 1563 4744 2578 4744 
Q 2900 4744 3203 4694 
Q 3506 4644 3803 4544 
z
" transform="scale(0.015625)"/>
      </defs>
      <use xlink:href="#DejaVuSans-Bold-4d"/>
      <use xlink:href="#DejaVuSans-Bold-36" transform="translate(99.511719 0)"/>
      <use xlink:href="#DejaVuSans-Bold-20" transform="translate(169.091797 0)"/>
      <use xlink:href="#DejaVuSans-Bold-70" transform="translate(203.90625 0)"/>
      <use xlink:href="#DejaVuSans-Bold-6c" transform="translate(275.488281 0)"/>
      <use xlink:href="#DejaVuSans-Bold-61" transform="translate(309.765625 0)"/>
      <use xlink:href="#DejaVuSans-Bold-73" transform="translate(377.246094 0)"/>
      <use xlink:href="#DejaVuSans-Bold-6d" transform="translate(436.767578 0)"/>
      <use xlink:href="#DejaVuSans-Bold-61" transform="translate(540.966797 0)"/>
      <use xlink:href="#DejaVuSans-Bold-20" transform="translate(608.447266 0)"/>
      <use xlink:href="#DejaVuSans-Bold-5b" transform="translate(643.261719 0)"/>
      <use xlink:href="#DejaVuSans-Bold-6e" transform="translate(688.964844 0)"/>
      <use xlink:href="#DejaVuSans-Bold-4d" transform="translate(760.15625 0)"/>
      <use xlink:href="#DejaVuSans-Bold-5d" transform="translate(859.667969 0)"/>
     </g>
    </g>
   </g>
   <g id="LineCollection_9">
    <path clip-path="url(#p9a426c99ae)" style="fill: none; stroke: #1f77b4"/>
    <path d="M 927.374104 290.764928 
L 927.374104 161.902853 
" clip-path="url(#p9a426c99ae)" style="fill: none; stroke: #1f77b4"/>
    <path d="M 929.400879 177.060403 
L 929.400879 55.8 
" clip-path="url(#p9a426c99ae)" style="fill: none; stroke: #1f77b4"/>
    <path d="M 931.427653 169.458732 
L 931.427653 67.156715 
" clip-path="url(#p9a426c99ae)" style="fill: none; stroke: #1f77b4"/>
    <path d="M 933.454428 186.539597 
L 933.454428 99.349337 
" clip-path="url(#p9a426c99ae)" style="fill: none; stroke: #1f77b4"/>
    <path d="M 937.507977 207.375504 
L 937.507977 139.143631 
" clip-path="url(#p9a426c99ae)" style="fill: none; stroke: #1f77b4"/>
    <path d="M 941.561526 218.732219 
L 941.561526 165.703689 
" clip-path="url(#p9a426c99ae)" style="fill: none; stroke: #1f77b4"/>
    <path d="M 949.668625 243.414756 
L 949.668625 209.253026 
" clip-path="url(#p9a426c99ae)" style="fill: none; stroke: #1f77b4"/>
    <path d="M 957.775723 266.128185 
L 957.775723 239.568126 
" clip-path="url(#p9a426c99ae)" style="fill: none; stroke: #1f77b4"/>
    <path d="M 973.98992 285.040778 
L 973.98992 273.684063 
" clip-path="url(#p9a426c99ae)" style="fill: none; stroke: #1f77b4"/>
    <path clip-path="url(#p9a426c99ae)" style="fill: none; stroke: #1f77b4"/>
   </g>
   <g id="LineCollection_10">
    <path clip-path="url(#p9a426c99ae)" style="fill: none; stroke: #000000"/>
    <path d="M 927.374104 307.8 
L 927.374104 277.484899 
" clip-path="url(#p9a426c99ae)" style="fill: none; stroke: #000000"/>
    <path d="M 929.400879 294.565764 
L 929.400879 249.04732 
" clip-path="url(#p9a426c99ae)" style="fill: none; stroke: #000000"/>
    <path d="M 931.427653 292.688243 
L 931.427653 247.169798 
" clip-path="url(#p9a426c99ae)" style="fill: none; stroke: #000000"/>
    <path d="M 933.454428 286.964092 
L 933.454428 249.04732 
" clip-path="url(#p9a426c99ae)" style="fill: none; stroke: #000000"/>
    <path d="M 937.507977 288.841614 
L 937.507977 258.526513 
" clip-path="url(#p9a426c99ae)" style="fill: none; stroke: #000000"/>
    <path d="M 941.561526 288.887407 
L 941.561526 262.327349 
" clip-path="url(#p9a426c99ae)" style="fill: none; stroke: #000000"/>
    <path d="M 949.668625 294.519971 
L 949.668625 271.806542 
" clip-path="url(#p9a426c99ae)" style="fill: none; stroke: #000000"/>
    <path d="M 957.775723 294.565764 
L 957.775723 279.36242 
" clip-path="url(#p9a426c99ae)" style="fill: none; stroke: #000000"/>
    <path d="M 973.98992 298.320807 
L 973.98992 286.964092 
" clip-path="url(#p9a426c99ae)" style="fill: none; stroke: #000000"/>
    <path clip-path="url(#p9a426c99ae)" style="fill: none; stroke: #000000"/>
   </g>
   <g id="line2d_56">
    <path d="M 925.34733 302.121643 
L 925.717216 301.973466 
L 926.087102 301.24574 
L 926.456989 299.848658 
L 927.196761 295.373111 
L 928.30642 286.376942 
L 929.785966 274.326645 
L 930.895625 267.070038 
L 931.635398 263.349064 
L 932.37517 260.522475 
L 933.114943 258.530846 
L 933.854716 257.287713 
L 934.594489 256.69502 
L 934.964375 256.611301 
L 935.334261 256.653032 
L 936.074034 257.066399 
L 936.813807 257.847585 
L 937.923466 259.54102 
L 939.403011 262.44099 
L 941.992216 268.26366 
L 944.951307 274.822251 
L 947.170625 279.21395 
L 949.020057 282.439471 
L 950.869489 285.268161 
L 952.71892 287.723835 
L 954.568352 289.841219 
L 956.417784 291.658536 
L 958.637102 293.496108 
L 960.85642 295.015691 
L 963.075739 296.269995 
L 965.664943 297.457861 
L 968.254148 298.405345 
L 971.213239 299.255267 
L 974.542216 299.98162 
L 978.610966 300.624467 
L 983.419489 301.140115 
L 989.33767 301.537918 
L 997.105284 301.826535 
L 1008.941648 302.017271 
L 1031.13483 302.106776 
L 1129.154716 302.12164 
L 1221.25642 302.121643 
L 1221.25642 302.121643 
" clip-path="url(#p9a426c99ae)" style="fill: none; stroke: #1f77b4; stroke-width: 2; stroke-linecap: square"/>
   </g>
   <g id="line2d_57">
    <path d="M 925.34733 302.121643 
L 927.374104 226.333891 
L 929.400879 116.430202 
L 931.427653 118.307723 
L 933.454428 142.944467 
L 937.507977 173.259568 
L 941.561526 192.217954 
L 949.668625 226.333891 
L 957.775723 252.848156 
L 973.98992 279.36242 
L 1022.63251 296.443285 
" clip-path="url(#p9a426c99ae)" style="fill: none; stroke-dasharray: 3.7,1.6; stroke-dashoffset: 0; stroke: #1f77b4"/>
    <g clip-path="url(#p9a426c99ae)">
     <use xlink:href="#m5431f313f0" x="925.34733" y="302.121643" style="fill: #1f77b4; stroke: #000000; stroke-linejoin: miter"/>
     <use xlink:href="#m5431f313f0" x="927.374104" y="226.333891" style="fill: #1f77b4; stroke: #000000; stroke-linejoin: miter"/>
     <use xlink:href="#m5431f313f0" x="929.400879" y="116.430202" style="fill: #1f77b4; stroke: #000000; stroke-linejoin: miter"/>
     <use xlink:href="#m5431f313f0" x="931.427653" y="118.307723" style="fill: #1f77b4; stroke: #000000; stroke-linejoin: miter"/>
     <use xlink:href="#m5431f313f0" x="933.454428" y="142.944467" style="fill: #1f77b4; stroke: #000000; stroke-linejoin: miter"/>
     <use xlink:href="#m5431f313f0" x="937.507977" y="173.259568" style="fill: #1f77b4; stroke: #000000; stroke-linejoin: miter"/>
     <use xlink:href="#m5431f313f0" x="941.561526" y="192.217954" style="fill: #1f77b4; stroke: #000000; stroke-linejoin: miter"/>
     <use xlink:href="#m5431f313f0" x="949.668625" y="226.333891" style="fill: #1f77b4; stroke: #000000; stroke-linejoin: miter"/>
     <use xlink:href="#m5431f313f0" x="957.775723" y="252.848156" style="fill: #1f77b4; stroke: #000000; stroke-linejoin: miter"/>
     <use xlink:href="#m5431f313f0" x="973.98992" y="279.36242" style="fill: #1f77b4; stroke: #000000; stroke-linejoin: miter"/>
     <use xlink:href="#m5431f313f0" x="1022.63251" y="296.443285" style="fill: #1f77b4; stroke: #000000; stroke-linejoin: miter"/>
    </g>
   </g>
   <g id="line2d_58">
    <path d="M 925.34733 302.121643 
L 925.717216 301.973466 
L 926.087102 301.24574 
L 926.456989 299.848658 
L 927.196761 295.373111 
L 928.30642 286.376942 
L 929.785966 274.326645 
L 930.895625 267.070038 
L 931.635398 263.349064 
L 932.37517 260.522475 
L 933.114943 258.530846 
L 933.854716 257.287713 
L 934.594489 256.69502 
L 934.964375 256.611301 
L 935.334261 256.653032 
L 936.074034 257.066399 
L 936.813807 257.847585 
L 937.923466 259.54102 
L 939.403011 262.44099 
L 941.992216 268.26366 
L 944.951307 274.822251 
L 947.170625 279.21395 
L 949.020057 282.439471 
L 950.869489 285.268161 
L 952.71892 287.723835 
L 954.568352 289.841219 
L 956.417784 291.658536 
L 958.637102 293.496108 
L 960.85642 295.015691 
L 963.075739 296.269995 
L 965.664943 297.457861 
L 968.254148 298.405345 
L 971.213239 299.255267 
L 974.542216 299.98162 
L 978.610966 300.624467 
L 983.419489 301.140115 
L 989.33767 301.537918 
L 997.105284 301.826535 
L 1008.941648 302.017271 
L 1031.13483 302.106776 
L 1129.154716 302.12164 
L 1221.25642 302.121643 
L 1221.25642 302.121643 
" clip-path="url(#p9a426c99ae)" style="fill: none; stroke: #000000; stroke-width: 2; stroke-linecap: square"/>
   </g>
   <g id="line2d_59">
    <path d="M 925.34733 302.121643 
L 927.374104 292.64245 
L 929.400879 271.806542 
L 931.427653 269.929021 
L 933.454428 268.005706 
L 937.507977 273.684063 
L 941.561526 275.607378 
L 949.668625 283.163256 
L 957.775723 286.964092 
L 973.98992 292.64245 
L 1022.63251 298.320807 
" clip-path="url(#p9a426c99ae)" style="fill: none; stroke-dasharray: 3.7,1.6; stroke-dashoffset: 0; stroke: #000000"/>
    <g clip-path="url(#p9a426c99ae)">
     <use xlink:href="#mff53d14a2d" x="925.34733" y="302.121643" style="stroke: #000000; stroke-linejoin: miter"/>
     <use xlink:href="#mff53d14a2d" x="927.374104" y="292.64245" style="stroke: #000000; stroke-linejoin: miter"/>
     <use xlink:href="#mff53d14a2d" x="929.400879" y="271.806542" style="stroke: #000000; stroke-linejoin: miter"/>
     <use xlink:href="#mff53d14a2d" x="931.427653" y="269.929021" style="stroke: #000000; stroke-linejoin: miter"/>
     <use xlink:href="#mff53d14a2d" x="933.454428" y="268.005706" style="stroke: #000000; stroke-linejoin: miter"/>
     <use xlink:href="#mff53d14a2d" x="937.507977" y="273.684063" style="stroke: #000000; stroke-linejoin: miter"/>
     <use xlink:href="#mff53d14a2d" x="941.561526" y="275.607378" style="stroke: #000000; stroke-linejoin: miter"/>
     <use xlink:href="#mff53d14a2d" x="949.668625" y="283.163256" style="stroke: #000000; stroke-linejoin: miter"/>
     <use xlink:href="#mff53d14a2d" x="957.775723" y="286.964092" style="stroke: #000000; stroke-linejoin: miter"/>
     <use xlink:href="#mff53d14a2d" x="973.98992" y="292.64245" style="stroke: #000000; stroke-linejoin: miter"/>
     <use xlink:href="#mff53d14a2d" x="1022.63251" y="298.320807" style="stroke: #000000; stroke-linejoin: miter"/>
    </g>
   </g>
   <g id="patch_15">
    <path d="M 910.551875 320.4 
L 910.551875 43.2 
" style="fill: none; stroke: #000000; stroke-width: 0.8; stroke-linejoin: miter; stroke-linecap: square"/>
   </g>
   <g id="patch_16">
    <path d="M 1236.051875 320.4 
L 1236.051875 43.2 
" style="fill: none; stroke: #000000; stroke-width: 0.8; stroke-linejoin: miter; stroke-linecap: square"/>
   </g>
   <g id="patch_17">
    <path d="M 910.551875 320.4 
L 1236.051875 320.4 
" style="fill: none; stroke: #000000; stroke-width: 0.8; stroke-linejoin: miter; stroke-linecap: square"/>
   </g>
   <g id="patch_18">
    <path d="M 910.551875 43.2 
L 1236.051875 43.2 
" style="fill: none; stroke: #000000; stroke-width: 0.8; stroke-linejoin: miter; stroke-linecap: square"/>
   </g>
   <g id="legend_3">
    <g id="patch_19">
     <path d="M 1087.450312 109.9125 
L 1229.051875 109.9125 
Q 1231.051875 109.9125 1231.051875 107.9125 
L 1231.051875 50.2 
Q 1231.051875 48.2 1229.051875 48.2 
L 1087.450312 48.2 
Q 1085.450312 48.2 1085.450312 50.2 
L 1085.450312 107.9125 
Q 1085.450312 109.9125 1087.450312 109.9125 
z
" style="fill: #ffffff; opacity: 0.8; stroke: #cccccc; stroke-linejoin: miter"/>
    </g>
    <g id="line2d_60">
     <path d="M 1089.450312 56.298437 
L 1109.450312 56.298437 
" style="fill: none; stroke: #1f77b4; stroke-width: 2; stroke-linecap: square"/>
    </g>
    <g id="line2d_61"/>
    <g id="text_46">
     <!-- ED60, RIF -->
     <g transform="translate(1117.450312 59.798437) scale(0.1 -0.1)">
      <use xlink:href="#DejaVuSans-45"/>
      <use xlink:href="#DejaVuSans-44" transform="translate(63.183594 0)"/>
      <use xlink:href="#DejaVuSans-36" transform="translate(140.185547 0)"/>
      <use xlink:href="#DejaVuSans-30" transform="translate(203.808594 0)"/>
      <use xlink:href="#DejaVuSans-2c" transform="translate(267.431641 0)"/>
      <use xlink:href="#DejaVuSans-20" transform="translate(299.21875 0)"/>
      <use xlink:href="#DejaVuSans-52" transform="translate(331.005859 0)"/>
      <use xlink:href="#DejaVuSans-49" transform="translate(400.488281 0)"/>
      <use xlink:href="#DejaVuSans-46" transform="translate(429.980469 0)"/>
     </g>
    </g>
    <g id="LineCollection_11">
     <path d="M 1099.450312 75.976562 
L 1099.450312 65.976562 
" style="fill: none; stroke: #1f77b4"/>
    </g>
    <g id="line2d_62">
     <path d="M 1089.450312 70.976562 
L 1109.450312 70.976562 
" style="fill: none; stroke-dasharray: 3.7,1.6; stroke-dashoffset: 0; stroke: #1f77b4"/>
    </g>
    <g id="line2d_63">
     <g>
      <use xlink:href="#m5431f313f0" x="1099.450312" y="70.976562" style="fill: #1f77b4; stroke: #000000; stroke-linejoin: miter"/>
     </g>
    </g>
    <g id="text_47">
     <!-- ED60, RIF±SD (n=32) -->
     <g transform="translate(1117.450312 74.476562) scale(0.1 -0.1)">
      <use xlink:href="#DejaVuSans-45"/>
      <use xlink:href="#DejaVuSans-44" transform="translate(63.183594 0)"/>
      <use xlink:href="#DejaVuSans-36" transform="translate(140.185547 0)"/>
      <use xlink:href="#DejaVuSans-30" transform="translate(203.808594 0)"/>
      <use xlink:href="#DejaVuSans-2c" transform="translate(267.431641 0)"/>
      <use xlink:href="#DejaVuSans-20" transform="translate(299.21875 0)"/>
      <use xlink:href="#DejaVuSans-52" transform="translate(331.005859 0)"/>
      <use xlink:href="#DejaVuSans-49" transform="translate(400.488281 0)"/>
      <use xlink:href="#DejaVuSans-46" transform="translate(429.980469 0)"/>
      <use xlink:href="#DejaVuSans-b1" transform="translate(487.5 0)"/>
      <use xlink:href="#DejaVuSans-53" transform="translate(571.289062 0)"/>
      <use xlink:href="#DejaVuSans-44" transform="translate(634.765625 0)"/>
      <use xlink:href="#DejaVuSans-20" transform="translate(711.767578 0)"/>
      <use xlink:href="#DejaVuSans-28" transform="translate(743.554688 0)"/>
      <use xlink:href="#DejaVuSans-6e" transform="translate(782.568359 0)"/>
      <use xlink:href="#DejaVuSans-3d" transform="translate(845.947266 0)"/>
      <use xlink:href="#DejaVuSans-33" transform="translate(929.736328 0)"/>
      <use xlink:href="#DejaVuSans-32" transform="translate(993.359375 0)"/>
      <use xlink:href="#DejaVuSans-29" transform="translate(1056.982422 0)"/>
     </g>
    </g>
    <g id="line2d_64">
     <path d="M 1089.450312 85.654687 
L 1109.450312 85.654687 
" style="fill: none; stroke: #000000; stroke-width: 2; stroke-linecap: square"/>
    </g>
    <g id="line2d_65"/>
    <g id="text_48">
     <!-- ED60 -->
     <g transform="translate(1117.450312 89.154687) scale(0.1 -0.1)">
      <use xlink:href="#DejaVuSans-45"/>
      <use xlink:href="#DejaVuSans-44" transform="translate(63.183594 0)"/>
      <use xlink:href="#DejaVuSans-36" transform="translate(140.185547 0)"/>
      <use xlink:href="#DejaVuSans-30" transform="translate(203.808594 0)"/>
     </g>
    </g>
    <g id="LineCollection_12">
     <path d="M 1099.450312 105.332812 
L 1099.450312 95.332812 
" style="fill: none; stroke: #000000"/>
    </g>
    <g id="line2d_66">
     <path d="M 1089.450312 100.332812 
L 1109.450312 100.332812 
" style="fill: none; stroke-dasharray: 3.7,1.6; stroke-dashoffset: 0; stroke: #000000"/>
    </g>
    <g id="line2d_67">
     <g>
      <use xlink:href="#mff53d14a2d" x="1099.450312" y="100.332812" style="stroke: #000000; stroke-linejoin: miter"/>
     </g>
    </g>
    <g id="text_49">
     <!-- ED60±SD (n=32) -->
     <g transform="translate(1117.450312 103.832812) scale(0.1 -0.1)">
      <use xlink:href="#DejaVuSans-45"/>
      <use xlink:href="#DejaVuSans-44" transform="translate(63.183594 0)"/>
      <use xlink:href="#DejaVuSans-36" transform="translate(140.185547 0)"/>
      <use xlink:href="#DejaVuSans-30" transform="translate(203.808594 0)"/>
      <use xlink:href="#DejaVuSans-b1" transform="translate(267.431641 0)"/>
      <use xlink:href="#DejaVuSans-53" transform="translate(351.220703 0)"/>
      <use xlink:href="#DejaVuSans-44" transform="translate(414.697266 0)"/>
      <use xlink:href="#DejaVuSans-20" transform="translate(491.699219 0)"/>
      <use xlink:href="#DejaVuSans-28" transform="translate(523.486328 0)"/>
      <use xlink:href="#DejaVuSans-6e" transform="translate(562.5 0)"/>
      <use xlink:href="#DejaVuSans-3d" transform="translate(625.878906 0)"/>
      <use xlink:href="#DejaVuSans-33" transform="translate(709.667969 0)"/>
      <use xlink:href="#DejaVuSans-32" transform="translate(773.291016 0)"/>
      <use xlink:href="#DejaVuSans-29" transform="translate(836.914062 0)"/>
     </g>
    </g>
   </g>
  </g>
  <g id="text_50">
   <!-- Mendell2015a (healthy) -->
   <g transform="translate(463.318281 26.196094) scale(0.25 -0.25)">
    <defs>
     <path id="DejaVuSans-Bold-32" d="M 1844 884 
L 3897 884 
L 3897 0 
L 506 0 
L 506 884 
L 2209 2388 
Q 2438 2594 2547 2791 
Q 2656 2988 2656 3200 
Q 2656 3528 2436 3728 
Q 2216 3928 1850 3928 
Q 1569 3928 1234 3808 
Q 900 3688 519 3450 
L 519 4475 
Q 925 4609 1322 4679 
Q 1719 4750 2100 4750 
Q 2938 4750 3402 4381 
Q 3866 4013 3866 3353 
Q 3866 2972 3669 2642 
Q 3472 2313 2841 1759 
L 1844 884 
z
" transform="scale(0.015625)"/>
     <path id="DejaVuSans-Bold-30" d="M 2944 2338 
Q 2944 3213 2780 3570 
Q 2616 3928 2228 3928 
Q 1841 3928 1675 3570 
Q 1509 3213 1509 2338 
Q 1509 1453 1675 1090 
Q 1841 728 2228 728 
Q 2613 728 2778 1090 
Q 2944 1453 2944 2338 
z
M 4147 2328 
Q 4147 1169 3647 539 
Q 3147 -91 2228 -91 
Q 1306 -91 806 539 
Q 306 1169 306 2328 
Q 306 3491 806 4120 
Q 1306 4750 2228 4750 
Q 3147 4750 3647 4120 
Q 4147 3491 4147 2328 
z
" transform="scale(0.015625)"/>
     <path id="DejaVuSans-Bold-31" d="M 750 831 
L 1813 831 
L 1813 3847 
L 722 3622 
L 722 4441 
L 1806 4666 
L 2950 4666 
L 2950 831 
L 4013 831 
L 4013 0 
L 750 0 
L 750 831 
z
" transform="scale(0.015625)"/>
     <path id="DejaVuSans-Bold-35" d="M 678 4666 
L 3669 4666 
L 3669 3781 
L 1638 3781 
L 1638 3059 
Q 1775 3097 1914 3117 
Q 2053 3138 2203 3138 
Q 3056 3138 3531 2711 
Q 4006 2284 4006 1522 
Q 4006 766 3489 337 
Q 2972 -91 2053 -91 
Q 1656 -91 1267 -14 
Q 878 63 494 219 
L 494 1166 
Q 875 947 1217 837 
Q 1559 728 1863 728 
Q 2300 728 2551 942 
Q 2803 1156 2803 1522 
Q 2803 1891 2551 2103 
Q 2300 2316 1863 2316 
Q 1603 2316 1309 2248 
Q 1016 2181 678 2041 
L 678 4666 
z
" transform="scale(0.015625)"/>
     <path id="DejaVuSans-Bold-28" d="M 2413 -844 
L 1484 -844 
Q 1006 -72 778 623 
Q 550 1319 550 2003 
Q 550 2688 779 3389 
Q 1009 4091 1484 4856 
L 2413 4856 
Q 2013 4116 1813 3408 
Q 1613 2700 1613 2009 
Q 1613 1319 1811 609 
Q 2009 -100 2413 -844 
z
" transform="scale(0.015625)"/>
     <path id="DejaVuSans-Bold-79" d="M 78 3500 
L 1197 3500 
L 2138 1125 
L 2938 3500 
L 4056 3500 
L 2584 -331 
Q 2363 -916 2067 -1148 
Q 1772 -1381 1288 -1381 
L 641 -1381 
L 641 -647 
L 991 -647 
Q 1275 -647 1404 -556 
Q 1534 -466 1606 -231 
L 1638 -134 
L 78 3500 
z
" transform="scale(0.015625)"/>
     <path id="DejaVuSans-Bold-29" d="M 513 -844 
Q 913 -100 1113 609 
Q 1313 1319 1313 2009 
Q 1313 2700 1113 3408 
Q 913 4116 513 4856 
L 1441 4856 
Q 1916 4091 2145 3389 
Q 2375 2688 2375 2003 
Q 2375 1319 2147 623 
Q 1919 -72 1441 -844 
L 513 -844 
z
" transform="scale(0.015625)"/>
    </defs>
    <use xlink:href="#DejaVuSans-Bold-4d"/>
    <use xlink:href="#DejaVuSans-Bold-65" transform="translate(99.511719 0)"/>
    <use xlink:href="#DejaVuSans-Bold-6e" transform="translate(167.333984 0)"/>
    <use xlink:href="#DejaVuSans-Bold-64" transform="translate(238.525391 0)"/>
    <use xlink:href="#DejaVuSans-Bold-65" transform="translate(310.107422 0)"/>
    <use xlink:href="#DejaVuSans-Bold-6c" transform="translate(377.929688 0)"/>
    <use xlink:href="#DejaVuSans-Bold-6c" transform="translate(412.207031 0)"/>
    <use xlink:href="#DejaVuSans-Bold-32" transform="translate(446.484375 0)"/>
    <use xlink:href="#DejaVuSans-Bold-30" transform="translate(516.064453 0)"/>
    <use xlink:href="#DejaVuSans-Bold-31" transform="translate(585.644531 0)"/>
    <use xlink:href="#DejaVuSans-Bold-35" transform="translate(655.224609 0)"/>
    <use xlink:href="#DejaVuSans-Bold-61" transform="translate(724.804688 0)"/>
    <use xlink:href="#DejaVuSans-Bold-20" transform="translate(792.285156 0)"/>
    <use xlink:href="#DejaVuSans-Bold-28" transform="translate(827.099609 0)"/>
    <use xlink:href="#DejaVuSans-Bold-68" transform="translate(872.802734 0)"/>
    <use xlink:href="#DejaVuSans-Bold-65" transform="translate(943.994141 0)"/>
    <use xlink:href="#DejaVuSans-Bold-61" transform="translate(1011.816406 0)"/>
    <use xlink:href="#DejaVuSans-Bold-6c" transform="translate(1079.296875 0)"/>
    <use xlink:href="#DejaVuSans-Bold-74" transform="translate(1113.574219 0)"/>
    <use xlink:href="#DejaVuSans-Bold-68" transform="translate(1161.376953 0)"/>
    <use xlink:href="#DejaVuSans-Bold-79" transform="translate(1232.568359 0)"/>
    <use xlink:href="#DejaVuSans-Bold-29" transform="translate(1297.753906 0)"/>
   </g>
  </g>
 </g>
 <defs>
  <clipPath id="p0ab09930b0">
   <rect x="64.251875" y="43.2" width="325.5" height="277.2"/>
  </clipPath>
  <clipPath id="p57d1554660">
   <rect x="487.401875" y="43.2" width="325.5" height="277.2"/>
  </clipPath>
  <clipPath id="p9a426c99ae">
   <rect x="910.551875" y="43.2" width="325.5" height="277.2"/>
  </clipPath>
 </defs>
</svg>
