<?xml version="1.0" encoding="utf-8" standalone="no"?>
<!DOCTYPE svg PUBLIC "-//W3C//DTD SVG 1.1//EN"
  "http://www.w3.org/Graphics/SVG/1.1/DTD/svg11.dtd">
<svg xmlns:xlink="http://www.w3.org/1999/xlink" width="843.108125pt" height="370.537812pt" viewBox="0 0 843.108125 370.537812" xmlns="http://www.w3.org/2000/svg" version="1.1">
 <metadata>
  <rdf:RDF xmlns:dc="http://purl.org/dc/elements/1.1/" xmlns:cc="http://creativecommons.org/ns#" xmlns:rdf="http://www.w3.org/1999/02/22-rdf-syntax-ns#">
   <cc:Work>
    <dc:type rdf:resource="http://purl.org/dc/dcmitype/StillImage"/>
    <dc:date>2026-01-06T17:44:30.854928</dc:date>
    <dc:format>image/svg+xml</dc:format>
    <dc:creator>
     <cc:Agent>
      <dc:title>Matplotlib v3.10.7, https://matplotlib.org/</dc:title>
     </cc:Agent>
    </dc:creator>
   </cc:Work>
  </rdf:RDF>
 </metadata>
 <defs>
  <style type="text/css">*{stroke-linejoin: round; stroke-linecap: butt}</style>
 </defs>
 <g id="figure_1">
  <g id="patch_1">
   <path d="M 0 370.537812 
L 843.108125 370.537812 
L 843.108125 0 
L 0 0 
z
" style="fill: #ffffff"/>
  </g>
  <g id="axes_1">
   <g id="patch_2">
    <path d="M 54.708125 320.4 
L 394.360299 320.4 
L 394.360299 43.2 
L 54.708125 43.2 
z
" style="fill: #ffffff"/>
   </g>
   <g id="matplotlib.axis_1">
    <g id="xtick_1">
     <g id="line2d_1">
      <defs>
       <path id="mace345ca03" d="M 0 0 
L 0 3.5 
" style="stroke: #000000; stroke-width: 0.8"/>
      </defs>
      <g>
       <use xlink:href="#mace345ca03" x="70.14686" y="320.4" style="stroke: #000000; stroke-width: 0.8"/>
      </g>
     </g>
     <g id="text_1">
      <!-- 0 -->
      <g transform="translate(65.374985 338.797656) scale(0.15 -0.15)">
       <defs>
        <path id="DejaVuSans-30" d="M 2034 4250 
Q 1547 4250 1301 3770 
Q 1056 3291 1056 2328 
Q 1056 1369 1301 889 
Q 1547 409 2034 409 
Q 2525 409 2770 889 
Q 3016 1369 3016 2328 
Q 3016 3291 2770 3770 
Q 2525 4250 2034 4250 
z
M 2034 4750 
Q 2819 4750 3233 4129 
Q 3647 3509 3647 2328 
Q 3647 1150 3233 529 
Q 2819 -91 2034 -91 
Q 1250 -91 836 529 
Q 422 1150 422 2328 
Q 422 3509 836 4129 
Q 1250 4750 2034 4750 
z
" transform="scale(0.015625)"/>
       </defs>
       <use xlink:href="#DejaVuSans-30"/>
      </g>
     </g>
    </g>
    <g id="xtick_2">
     <g id="line2d_2">
      <g>
       <use xlink:href="#mace345ca03" x="131.901801" y="320.4" style="stroke: #000000; stroke-width: 0.8"/>
      </g>
     </g>
     <g id="text_2">
      <!-- 5 -->
      <g transform="translate(127.129926 338.797656) scale(0.15 -0.15)">
       <defs>
        <path id="DejaVuSans-35" d="M 691 4666 
L 3169 4666 
L 3169 4134 
L 1269 4134 
L 1269 2991 
Q 1406 3038 1543 3061 
Q 1681 3084 1819 3084 
Q 2600 3084 3056 2656 
Q 3513 2228 3513 1497 
Q 3513 744 3044 326 
Q 2575 -91 1722 -91 
Q 1428 -91 1123 -41 
Q 819 9 494 109 
L 494 744 
Q 775 591 1075 516 
Q 1375 441 1709 441 
Q 2250 441 2565 725 
Q 2881 1009 2881 1497 
Q 2881 1984 2565 2268 
Q 2250 2553 1709 2553 
Q 1456 2553 1204 2497 
Q 953 2441 691 2322 
L 691 4666 
z
" transform="scale(0.015625)"/>
       </defs>
       <use xlink:href="#DejaVuSans-35"/>
      </g>
     </g>
    </g>
    <g id="xtick_3">
     <g id="line2d_3">
      <g>
       <use xlink:href="#mace345ca03" x="193.656742" y="320.4" style="stroke: #000000; stroke-width: 0.8"/>
      </g>
     </g>
     <g id="text_3">
      <!-- 10 -->
      <g transform="translate(184.112992 338.797656) scale(0.15 -0.15)">
       <defs>
        <path id="DejaVuSans-31" d="M 794 531 
L 1825 531 
L 1825 4091 
L 703 3866 
L 703 4441 
L 1819 4666 
L 2450 4666 
L 2450 531 
L 3481 531 
L 3481 0 
L 794 0 
L 794 531 
z
" transform="scale(0.015625)"/>
       </defs>
       <use xlink:href="#DejaVuSans-31"/>
       <use xlink:href="#DejaVuSans-30" transform="translate(63.623047 0)"/>
      </g>
     </g>
    </g>
    <g id="xtick_4">
     <g id="line2d_4">
      <g>
       <use xlink:href="#mace345ca03" x="255.411682" y="320.4" style="stroke: #000000; stroke-width: 0.8"/>
      </g>
     </g>
     <g id="text_4">
      <!-- 15 -->
      <g transform="translate(245.867932 338.797656) scale(0.15 -0.15)">
       <use xlink:href="#DejaVuSans-31"/>
       <use xlink:href="#DejaVuSans-35" transform="translate(63.623047 0)"/>
      </g>
     </g>
    </g>
    <g id="xtick_5">
     <g id="line2d_5">
      <g>
       <use xlink:href="#mace345ca03" x="317.166623" y="320.4" style="stroke: #000000; stroke-width: 0.8"/>
      </g>
     </g>
     <g id="text_5">
      <!-- 20 -->
      <g transform="translate(307.622873 338.797656) scale(0.15 -0.15)">
       <defs>
        <path id="DejaVuSans-32" d="M 1228 531 
L 3431 531 
L 3431 0 
L 469 0 
L 469 531 
Q 828 903 1448 1529 
Q 2069 2156 2228 2338 
Q 2531 2678 2651 2914 
Q 2772 3150 2772 3378 
Q 2772 3750 2511 3984 
Q 2250 4219 1831 4219 
Q 1534 4219 1204 4116 
Q 875 4013 500 3803 
L 500 4441 
Q 881 4594 1212 4672 
Q 1544 4750 1819 4750 
Q 2544 4750 2975 4387 
Q 3406 4025 3406 3419 
Q 3406 3131 3298 2873 
Q 3191 2616 2906 2266 
Q 2828 2175 2409 1742 
Q 1991 1309 1228 531 
z
" transform="scale(0.015625)"/>
       </defs>
       <use xlink:href="#DejaVuSans-32"/>
       <use xlink:href="#DejaVuSans-30" transform="translate(63.623047 0)"/>
      </g>
     </g>
    </g>
    <g id="xtick_6">
     <g id="line2d_6">
      <g>
       <use xlink:href="#mace345ca03" x="378.921564" y="320.4" style="stroke: #000000; stroke-width: 0.8"/>
      </g>
     </g>
     <g id="text_6">
      <!-- 25 -->
      <g transform="translate(369.377814 338.797656) scale(0.15 -0.15)">
       <use xlink:href="#DejaVuSans-32"/>
       <use xlink:href="#DejaVuSans-35" transform="translate(63.623047 0)"/>
      </g>
     </g>
    </g>
    <g id="text_7">
     <!-- time [hr] -->
     <g transform="translate(179.459681 359.594375) scale(0.18 -0.18)">
      <defs>
       <path id="DejaVuSans-Bold-74" d="M 1759 4494 
L 1759 3500 
L 2913 3500 
L 2913 2700 
L 1759 2700 
L 1759 1216 
Q 1759 972 1856 886 
Q 1953 800 2241 800 
L 2816 800 
L 2816 0 
L 1856 0 
Q 1194 0 917 276 
Q 641 553 641 1216 
L 641 2700 
L 84 2700 
L 84 3500 
L 641 3500 
L 641 4494 
L 1759 4494 
z
" transform="scale(0.015625)"/>
       <path id="DejaVuSans-Bold-69" d="M 538 3500 
L 1656 3500 
L 1656 0 
L 538 0 
L 538 3500 
z
M 538 4863 
L 1656 4863 
L 1656 3950 
L 538 3950 
L 538 4863 
z
" transform="scale(0.015625)"/>
       <path id="DejaVuSans-Bold-6d" d="M 3781 2919 
Q 3994 3244 4286 3414 
Q 4578 3584 4928 3584 
Q 5531 3584 5847 3212 
Q 6163 2841 6163 2131 
L 6163 0 
L 5038 0 
L 5038 1825 
Q 5041 1866 5042 1909 
Q 5044 1953 5044 2034 
Q 5044 2406 4934 2573 
Q 4825 2741 4581 2741 
Q 4263 2741 4089 2478 
Q 3916 2216 3909 1719 
L 3909 0 
L 2784 0 
L 2784 1825 
Q 2784 2406 2684 2573 
Q 2584 2741 2328 2741 
Q 2006 2741 1831 2477 
Q 1656 2213 1656 1722 
L 1656 0 
L 531 0 
L 531 3500 
L 1656 3500 
L 1656 2988 
Q 1863 3284 2130 3434 
Q 2397 3584 2719 3584 
Q 3081 3584 3359 3409 
Q 3638 3234 3781 2919 
z
" transform="scale(0.015625)"/>
       <path id="DejaVuSans-Bold-65" d="M 4031 1759 
L 4031 1441 
L 1416 1441 
Q 1456 1047 1700 850 
Q 1944 653 2381 653 
Q 2734 653 3104 758 
Q 3475 863 3866 1075 
L 3866 213 
Q 3469 63 3072 -14 
Q 2675 -91 2278 -91 
Q 1328 -91 801 392 
Q 275 875 275 1747 
Q 275 2603 792 3093 
Q 1309 3584 2216 3584 
Q 3041 3584 3536 3087 
Q 4031 2591 4031 1759 
z
M 2881 2131 
Q 2881 2450 2695 2645 
Q 2509 2841 2209 2841 
Q 1884 2841 1681 2658 
Q 1478 2475 1428 2131 
L 2881 2131 
z
" transform="scale(0.015625)"/>
       <path id="DejaVuSans-Bold-20" transform="scale(0.015625)"/>
       <path id="DejaVuSans-Bold-5b" d="M 550 4863 
L 2491 4863 
L 2491 4159 
L 1613 4159 
L 1613 -141 
L 2491 -141 
L 2491 -844 
L 550 -844 
L 550 4863 
z
" transform="scale(0.015625)"/>
       <path id="DejaVuSans-Bold-68" d="M 4056 2131 
L 4056 0 
L 2931 0 
L 2931 347 
L 2931 1625 
Q 2931 2084 2911 2256 
Q 2891 2428 2841 2509 
Q 2775 2619 2662 2680 
Q 2550 2741 2406 2741 
Q 2056 2741 1856 2470 
Q 1656 2200 1656 1722 
L 1656 0 
L 538 0 
L 538 4863 
L 1656 4863 
L 1656 2988 
Q 1909 3294 2193 3439 
Q 2478 3584 2822 3584 
Q 3428 3584 3742 3212 
Q 4056 2841 4056 2131 
z
" transform="scale(0.015625)"/>
       <path id="DejaVuSans-Bold-72" d="M 3138 2547 
Q 2991 2616 2845 2648 
Q 2700 2681 2553 2681 
Q 2122 2681 1889 2404 
Q 1656 2128 1656 1613 
L 1656 0 
L 538 0 
L 538 3500 
L 1656 3500 
L 1656 2925 
Q 1872 3269 2151 3426 
Q 2431 3584 2822 3584 
Q 2878 3584 2943 3579 
Q 3009 3575 3134 3559 
L 3138 2547 
z
" transform="scale(0.015625)"/>
       <path id="DejaVuSans-Bold-5d" d="M 2375 -844 
L 434 -844 
L 434 -141 
L 1313 -141 
L 1313 4159 
L 434 4159 
L 434 4863 
L 2375 4863 
L 2375 -844 
z
" transform="scale(0.015625)"/>
      </defs>
      <use xlink:href="#DejaVuSans-Bold-74"/>
      <use xlink:href="#DejaVuSans-Bold-69" transform="translate(47.802734 0)"/>
      <use xlink:href="#DejaVuSans-Bold-6d" transform="translate(82.080078 0)"/>
      <use xlink:href="#DejaVuSans-Bold-65" transform="translate(186.279297 0)"/>
      <use xlink:href="#DejaVuSans-Bold-20" transform="translate(254.101562 0)"/>
      <use xlink:href="#DejaVuSans-Bold-5b" transform="translate(288.916016 0)"/>
      <use xlink:href="#DejaVuSans-Bold-68" transform="translate(334.619141 0)"/>
      <use xlink:href="#DejaVuSans-Bold-72" transform="translate(405.810547 0)"/>
      <use xlink:href="#DejaVuSans-Bold-5d" transform="translate(455.126953 0)"/>
     </g>
    </g>
   </g>
   <g id="matplotlib.axis_2">
    <g id="ytick_1">
     <g id="line2d_7">
      <defs>
       <path id="m9c2536ea23" d="M 0 0 
L -3.5 0 
" style="stroke: #000000; stroke-width: 0.8"/>
      </defs>
      <g>
       <use xlink:href="#m9c2536ea23" x="54.708125" y="305.762578" style="stroke: #000000; stroke-width: 0.8"/>
      </g>
     </g>
     <g id="text_8">
      <!-- 35 -->
      <g transform="translate(28.620625 311.461406) scale(0.15 -0.15)">
       <defs>
        <path id="DejaVuSans-33" d="M 2597 2516 
Q 3050 2419 3304 2112 
Q 3559 1806 3559 1356 
Q 3559 666 3084 287 
Q 2609 -91 1734 -91 
Q 1441 -91 1130 -33 
Q 819 25 488 141 
L 488 750 
Q 750 597 1062 519 
Q 1375 441 1716 441 
Q 2309 441 2620 675 
Q 2931 909 2931 1356 
Q 2931 1769 2642 2001 
Q 2353 2234 1838 2234 
L 1294 2234 
L 1294 2753 
L 1863 2753 
Q 2328 2753 2575 2939 
Q 2822 3125 2822 3475 
Q 2822 3834 2567 4026 
Q 2313 4219 1838 4219 
Q 1578 4219 1281 4162 
Q 984 4106 628 3988 
L 628 4550 
Q 988 4650 1302 4700 
Q 1616 4750 1894 4750 
Q 2613 4750 3031 4423 
Q 3450 4097 3450 3541 
Q 3450 3153 3228 2886 
Q 3006 2619 2597 2516 
z
" transform="scale(0.015625)"/>
       </defs>
       <use xlink:href="#DejaVuSans-33"/>
       <use xlink:href="#DejaVuSans-35" transform="translate(63.623047 0)"/>
      </g>
     </g>
    </g>
    <g id="ytick_2">
     <g id="line2d_8">
      <g>
       <use xlink:href="#m9c2536ea23" x="54.708125" y="254.827036" style="stroke: #000000; stroke-width: 0.8"/>
      </g>
     </g>
     <g id="text_9">
      <!-- 40 -->
      <g transform="translate(28.620625 260.525864) scale(0.15 -0.15)">
       <defs>
        <path id="DejaVuSans-34" d="M 2419 4116 
L 825 1625 
L 2419 1625 
L 2419 4116 
z
M 2253 4666 
L 3047 4666 
L 3047 1625 
L 3713 1625 
L 3713 1100 
L 3047 1100 
L 3047 0 
L 2419 0 
L 2419 1100 
L 313 1100 
L 313 1709 
L 2253 4666 
z
" transform="scale(0.015625)"/>
       </defs>
       <use xlink:href="#DejaVuSans-34"/>
       <use xlink:href="#DejaVuSans-30" transform="translate(63.623047 0)"/>
      </g>
     </g>
    </g>
    <g id="ytick_3">
     <g id="line2d_9">
      <g>
       <use xlink:href="#m9c2536ea23" x="54.708125" y="203.891494" style="stroke: #000000; stroke-width: 0.8"/>
      </g>
     </g>
     <g id="text_10">
      <!-- 45 -->
      <g transform="translate(28.620625 209.590322) scale(0.15 -0.15)">
       <use xlink:href="#DejaVuSans-34"/>
       <use xlink:href="#DejaVuSans-35" transform="translate(63.623047 0)"/>
      </g>
     </g>
    </g>
    <g id="ytick_4">
     <g id="line2d_10">
      <g>
       <use xlink:href="#m9c2536ea23" x="54.708125" y="152.955952" style="stroke: #000000; stroke-width: 0.8"/>
      </g>
     </g>
     <g id="text_11">
      <!-- 50 -->
      <g transform="translate(28.620625 158.65478) scale(0.15 -0.15)">
       <use xlink:href="#DejaVuSans-35"/>
       <use xlink:href="#DejaVuSans-30" transform="translate(63.623047 0)"/>
      </g>
     </g>
    </g>
    <g id="ytick_5">
     <g id="line2d_11">
      <g>
       <use xlink:href="#m9c2536ea23" x="54.708125" y="102.020409" style="stroke: #000000; stroke-width: 0.8"/>
      </g>
     </g>
     <g id="text_12">
      <!-- 55 -->
      <g transform="translate(28.620625 107.719237) scale(0.15 -0.15)">
       <use xlink:href="#DejaVuSans-35"/>
       <use xlink:href="#DejaVuSans-35" transform="translate(63.623047 0)"/>
      </g>
     </g>
    </g>
    <g id="ytick_6">
     <g id="line2d_12">
      <g>
       <use xlink:href="#m9c2536ea23" x="54.708125" y="51.084867" style="stroke: #000000; stroke-width: 0.8"/>
      </g>
     </g>
     <g id="text_13">
      <!-- 60 -->
      <g transform="translate(28.620625 56.783695) scale(0.15 -0.15)">
       <defs>
        <path id="DejaVuSans-36" d="M 2113 2584 
Q 1688 2584 1439 2293 
Q 1191 2003 1191 1497 
Q 1191 994 1439 701 
Q 1688 409 2113 409 
Q 2538 409 2786 701 
Q 3034 994 3034 1497 
Q 3034 2003 2786 2293 
Q 2538 2584 2113 2584 
z
M 3366 4563 
L 3366 3988 
Q 3128 4100 2886 4159 
Q 2644 4219 2406 4219 
Q 1781 4219 1451 3797 
Q 1122 3375 1075 2522 
Q 1259 2794 1537 2939 
Q 1816 3084 2150 3084 
Q 2853 3084 3261 2657 
Q 3669 2231 3669 1497 
Q 3669 778 3244 343 
Q 2819 -91 2113 -91 
Q 1303 -91 875 529 
Q 447 1150 447 2328 
Q 447 3434 972 4092 
Q 1497 4750 2381 4750 
Q 2619 4750 2861 4703 
Q 3103 4656 3366 4563 
z
" transform="scale(0.015625)"/>
       </defs>
       <use xlink:href="#DejaVuSans-36"/>
       <use xlink:href="#DejaVuSans-30" transform="translate(63.623047 0)"/>
      </g>
     </g>
    </g>
    <g id="text_14">
     <!-- aPTT [s] -->
     <g transform="translate(20.877188 223.668281) rotate(-90) scale(0.18 -0.18)">
      <defs>
       <path id="DejaVuSans-Bold-61" d="M 2106 1575 
Q 1756 1575 1579 1456 
Q 1403 1338 1403 1106 
Q 1403 894 1545 773 
Q 1688 653 1941 653 
Q 2256 653 2472 879 
Q 2688 1106 2688 1447 
L 2688 1575 
L 2106 1575 
z
M 3816 1997 
L 3816 0 
L 2688 0 
L 2688 519 
Q 2463 200 2181 54 
Q 1900 -91 1497 -91 
Q 953 -91 614 226 
Q 275 544 275 1050 
Q 275 1666 698 1953 
Q 1122 2241 2028 2241 
L 2688 2241 
L 2688 2328 
Q 2688 2594 2478 2717 
Q 2269 2841 1825 2841 
Q 1466 2841 1156 2769 
Q 847 2697 581 2553 
L 581 3406 
Q 941 3494 1303 3539 
Q 1666 3584 2028 3584 
Q 2975 3584 3395 3211 
Q 3816 2838 3816 1997 
z
" transform="scale(0.015625)"/>
       <path id="DejaVuSans-Bold-50" d="M 588 4666 
L 2584 4666 
Q 3475 4666 3951 4270 
Q 4428 3875 4428 3144 
Q 4428 2409 3951 2014 
Q 3475 1619 2584 1619 
L 1791 1619 
L 1791 0 
L 588 0 
L 588 4666 
z
M 1791 3794 
L 1791 2491 
L 2456 2491 
Q 2806 2491 2997 2661 
Q 3188 2831 3188 3144 
Q 3188 3456 2997 3625 
Q 2806 3794 2456 3794 
L 1791 3794 
z
" transform="scale(0.015625)"/>
       <path id="DejaVuSans-Bold-54" d="M 31 4666 
L 4331 4666 
L 4331 3756 
L 2784 3756 
L 2784 0 
L 1581 0 
L 1581 3756 
L 31 3756 
L 31 4666 
z
" transform="scale(0.015625)"/>
       <path id="DejaVuSans-Bold-73" d="M 3272 3391 
L 3272 2541 
Q 2913 2691 2578 2766 
Q 2244 2841 1947 2841 
Q 1628 2841 1473 2761 
Q 1319 2681 1319 2516 
Q 1319 2381 1436 2309 
Q 1553 2238 1856 2203 
L 2053 2175 
Q 2913 2066 3209 1816 
Q 3506 1566 3506 1031 
Q 3506 472 3093 190 
Q 2681 -91 1863 -91 
Q 1516 -91 1145 -36 
Q 775 19 384 128 
L 384 978 
Q 719 816 1070 734 
Q 1422 653 1784 653 
Q 2113 653 2278 743 
Q 2444 834 2444 1013 
Q 2444 1163 2330 1236 
Q 2216 1309 1875 1350 
L 1678 1375 
Q 931 1469 631 1722 
Q 331 1975 331 2491 
Q 331 3047 712 3315 
Q 1094 3584 1881 3584 
Q 2191 3584 2531 3537 
Q 2872 3491 3272 3391 
z
" transform="scale(0.015625)"/>
      </defs>
      <use xlink:href="#DejaVuSans-Bold-61"/>
      <use xlink:href="#DejaVuSans-Bold-50" transform="translate(67.480469 0)"/>
      <use xlink:href="#DejaVuSans-Bold-54" transform="translate(140.771484 0)"/>
      <use xlink:href="#DejaVuSans-Bold-54" transform="translate(211.234375 0)"/>
      <use xlink:href="#DejaVuSans-Bold-20" transform="translate(279.447266 0)"/>
      <use xlink:href="#DejaVuSans-Bold-5b" transform="translate(314.261719 0)"/>
      <use xlink:href="#DejaVuSans-Bold-73" transform="translate(359.964844 0)"/>
      <use xlink:href="#DejaVuSans-Bold-5d" transform="translate(419.486328 0)"/>
     </g>
    </g>
   </g>
   <g id="line2d_13">
    <path d="M 70.14686 300.669024 
L 70.76441 297.013628 
L 71.381959 285.540778 
L 72.617058 251.560848 
L 74.469706 199.215267 
L 75.704805 170.418915 
L 76.939904 147.109957 
L 78.175002 128.59822 
L 79.410101 114.048832 
L 80.6452 102.713066 
L 81.880299 93.977381 
L 83.115398 87.354728 
L 84.350497 82.461738 
L 85.585595 78.996001 
L 86.203145 77.721264 
L 86.820694 76.717237 
L 87.438244 75.961199 
L 88.055793 75.432688 
L 88.673342 75.113226 
L 89.290892 74.986086 
L 89.908441 75.036081 
L 90.525991 75.249391 
L 91.14354 75.613408 
L 92.378639 76.748404 
L 93.613738 78.359765 
L 94.848836 80.378606 
L 96.083935 82.746096 
L 97.936583 86.842235 
L 99.789232 91.467194 
L 102.259429 98.257388 
L 105.347176 107.444313 
L 110.287572 123.019756 
L 120.168362 154.431822 
L 125.108757 169.288382 
L 129.431603 181.54002 
L 133.1369 191.416036 
L 136.842196 200.685756 
L 140.547493 209.340479 
L 144.252789 217.384798 
L 147.958085 224.83303 
L 151.663382 231.706428 
L 155.368678 238.031003 
L 159.073975 243.835831 
L 162.779271 249.151742 
L 166.484568 254.010321 
L 170.189864 258.443153 
L 173.895161 262.481261 
L 177.600457 266.154697 
L 181.305753 269.492261 
L 185.01105 272.521305 
L 188.716346 275.267624 
L 192.421643 277.755394 
L 196.126939 280.007158 
L 200.449785 282.363764 
L 204.772631 284.458101 
L 209.095477 286.317929 
L 214.035872 288.188427 
L 218.976267 289.819014 
L 224.534212 291.40364 
L 230.092157 292.7595 
L 236.267651 294.036838 
L 243.060694 295.206859 
L 250.471287 296.250641 
L 258.499429 297.158702 
L 267.76267 297.978012 
L 278.26101 298.678574 
L 290.611999 299.273515 
L 305.433184 299.758005 
L 323.959667 300.134608 
L 349.279192 300.411306 
L 378.921564 300.559319 
L 378.921564 300.559319 
" clip-path="url(#p8a881d09ab)" style="fill: none; stroke: #000000; stroke-width: 2; stroke-linecap: square"/>
   </g>
   <g id="line2d_14">
    <path d="M 70.14686 300.669024 
L 88.673342 195.741807 
L 107.199825 186.573409 
L 144.252789 224.265711 
L 218.358718 248.714771 
L 366.570576 270.107699 
" clip-path="url(#p8a881d09ab)" style="fill: none; stroke-dasharray: 3.7,1.6; stroke-dashoffset: 0; stroke: #000000"/>
    <defs>
     <path id="m3047b74c56" d="M -3 3 
L 3 3 
L 3 -3 
L -3 -3 
z
" style="stroke: #000000; stroke-linejoin: miter"/>
    </defs>
    <g clip-path="url(#p8a881d09ab)">
     <use xlink:href="#m3047b74c56" x="70.14686" y="300.669024" style="stroke: #000000; stroke-linejoin: miter"/>
     <use xlink:href="#m3047b74c56" x="88.673342" y="195.741807" style="stroke: #000000; stroke-linejoin: miter"/>
     <use xlink:href="#m3047b74c56" x="107.199825" y="186.573409" style="stroke: #000000; stroke-linejoin: miter"/>
     <use xlink:href="#m3047b74c56" x="144.252789" y="224.265711" style="stroke: #000000; stroke-linejoin: miter"/>
     <use xlink:href="#m3047b74c56" x="218.358718" y="248.714771" style="stroke: #000000; stroke-linejoin: miter"/>
     <use xlink:href="#m3047b74c56" x="366.570576" y="270.107699" style="stroke: #000000; stroke-linejoin: miter"/>
    </g>
   </g>
   <g id="line2d_15">
    <path d="M 70.14686 307.8 
L 70.76441 303.435093 
L 71.381959 289.799914 
L 72.617058 249.981353 
L 74.469706 190.247414 
L 75.704805 158.188259 
L 76.939904 132.641957 
L 78.175002 112.605284 
L 79.410101 97.011294 
L 80.6452 84.954324 
L 81.880299 75.717669 
L 83.115398 68.74677 
L 84.350497 63.613859 
L 85.585595 59.987078 
L 86.203145 58.654956 
L 86.820694 57.60643 
L 87.438244 56.817291 
L 88.055793 56.265847 
L 88.673342 55.932607 
L 89.290892 55.8 
L 89.908441 55.852143 
L 90.525991 56.074637 
L 91.14354 56.454391 
L 92.378639 57.63897 
L 93.613738 59.322077 
L 94.848836 61.433047 
L 96.083935 63.911759 
L 97.936583 68.208457 
L 99.789232 73.072295 
L 102.259429 80.23719 
L 105.347176 89.976775 
L 109.670022 104.489339 
L 123.873659 152.936411 
L 128.196504 166.704372 
L 132.51935 179.716931 
L 136.224647 190.211695 
L 139.929943 200.072303 
L 143.63524 209.291135 
L 147.340536 217.872943 
L 151.045833 225.831786 
L 154.751129 233.188557 
L 158.456425 239.969004 
L 162.161722 246.202134 
L 165.249469 251.000651 
L 168.954765 256.311637 
L 172.660062 261.165188 
L 176.365358 265.593268 
L 180.070655 269.6271 
L 183.775951 273.29682 
L 187.481248 276.631239 
L 191.186544 279.657682 
L 194.89184 282.401892 
L 198.597137 284.887986 
L 202.302433 287.138443 
L 206.625279 289.493914 
L 210.948125 291.587456 
L 215.270971 293.446754 
L 220.211366 295.316895 
L 225.151761 296.947319 
L 230.709706 298.531922 
L 236.267651 299.887871 
L 242.443145 301.165387 
L 249.236188 302.335651 
L 256.646781 303.379716 
L 264.674923 304.288075 
L 273.938165 305.107694 
L 284.436504 305.808552 
L 296.787493 306.403767 
L 311.608678 306.888495 
L 330.135161 307.265294 
L 355.454686 307.542139 
L 378.921564 307.668856 
L 378.921564 307.668856 
" clip-path="url(#p8a881d09ab)" style="fill: none; stroke: #1f77b4; stroke-width: 2; stroke-linecap: square"/>
   </g>
   <g id="line2d_16">
    <path d="M 70.14686 307.8 
L 88.673342 195.741807 
L 107.199825 186.573409 
L 144.252789 239.546373 
L 218.358718 276.219964 
L 366.570576 294.556759 
" clip-path="url(#p8a881d09ab)" style="fill: none; stroke-dasharray: 3.7,1.6; stroke-dashoffset: 0; stroke: #1f77b4"/>
    <defs>
     <path id="m4c5a586456" d="M -3 3 
L 3 3 
L 3 -3 
L -3 -3 
z
" style="stroke: #000000; stroke-linejoin: miter"/>
    </defs>
    <g clip-path="url(#p8a881d09ab)">
     <use xlink:href="#m4c5a586456" x="70.14686" y="307.8" style="fill: #1f77b4; stroke: #000000; stroke-linejoin: miter"/>
     <use xlink:href="#m4c5a586456" x="88.673342" y="195.741807" style="fill: #1f77b4; stroke: #000000; stroke-linejoin: miter"/>
     <use xlink:href="#m4c5a586456" x="107.199825" y="186.573409" style="fill: #1f77b4; stroke: #000000; stroke-linejoin: miter"/>
     <use xlink:href="#m4c5a586456" x="144.252789" y="239.546373" style="fill: #1f77b4; stroke: #000000; stroke-linejoin: miter"/>
     <use xlink:href="#m4c5a586456" x="218.358718" y="276.219964" style="fill: #1f77b4; stroke: #000000; stroke-linejoin: miter"/>
     <use xlink:href="#m4c5a586456" x="366.570576" y="294.556759" style="fill: #1f77b4; stroke: #000000; stroke-linejoin: miter"/>
    </g>
   </g>
   <g id="patch_3">
    <path d="M 54.708125 320.4 
L 54.708125 43.2 
" style="fill: none; stroke: #000000; stroke-width: 0.8; stroke-linejoin: miter; stroke-linecap: square"/>
   </g>
   <g id="patch_4">
    <path d="M 394.360299 320.4 
L 394.360299 43.2 
" style="fill: none; stroke: #000000; stroke-width: 0.8; stroke-linejoin: miter; stroke-linecap: square"/>
   </g>
   <g id="patch_5">
    <path d="M 54.708125 320.4 
L 394.360299 320.4 
" style="fill: none; stroke: #000000; stroke-width: 0.8; stroke-linejoin: miter; stroke-linecap: square"/>
   </g>
   <g id="patch_6">
    <path d="M 54.708125 43.2 
L 394.360299 43.2 
" style="fill: none; stroke: #000000; stroke-width: 0.8; stroke-linejoin: miter; stroke-linecap: square"/>
   </g>
   <g id="legend_1">
    <g id="patch_7">
     <path d="M 296.839986 109.9125 
L 387.360299 109.9125 
Q 389.360299 109.9125 389.360299 107.9125 
L 389.360299 50.2 
Q 389.360299 48.2 387.360299 48.2 
L 296.839986 48.2 
Q 294.839986 48.2 294.839986 50.2 
L 294.839986 107.9125 
Q 294.839986 109.9125 296.839986 109.9125 
z
" style="fill: #ffffff; opacity: 0.8; stroke: #cccccc; stroke-linejoin: miter"/>
    </g>
    <g id="line2d_17">
     <path d="M 298.839986 56.298437 
L 318.839986 56.298437 
" style="fill: none; stroke: #000000; stroke-width: 2; stroke-linecap: square"/>
    </g>
    <g id="line2d_18"/>
    <g id="text_15">
     <!-- Fast -->
     <g transform="translate(326.839986 59.798437) scale(0.1 -0.1)">
      <defs>
       <path id="DejaVuSans-46" d="M 628 4666 
L 3309 4666 
L 3309 4134 
L 1259 4134 
L 1259 2759 
L 3109 2759 
L 3109 2228 
L 1259 2228 
L 1259 0 
L 628 0 
L 628 4666 
z
" transform="scale(0.015625)"/>
       <path id="DejaVuSans-61" d="M 2194 1759 
Q 1497 1759 1228 1600 
Q 959 1441 959 1056 
Q 959 750 1161 570 
Q 1363 391 1709 391 
Q 2188 391 2477 730 
Q 2766 1069 2766 1631 
L 2766 1759 
L 2194 1759 
z
M 3341 1997 
L 3341 0 
L 2766 0 
L 2766 531 
Q 2569 213 2275 61 
Q 1981 -91 1556 -91 
Q 1019 -91 701 211 
Q 384 513 384 1019 
Q 384 1609 779 1909 
Q 1175 2209 1959 2209 
L 2766 2209 
L 2766 2266 
Q 2766 2663 2505 2880 
Q 2244 3097 1772 3097 
Q 1472 3097 1187 3025 
Q 903 2953 641 2809 
L 641 3341 
Q 956 3463 1253 3523 
Q 1550 3584 1831 3584 
Q 2591 3584 2966 3190 
Q 3341 2797 3341 1997 
z
" transform="scale(0.015625)"/>
       <path id="DejaVuSans-73" d="M 2834 3397 
L 2834 2853 
Q 2591 2978 2328 3040 
Q 2066 3103 1784 3103 
Q 1356 3103 1142 2972 
Q 928 2841 928 2578 
Q 928 2378 1081 2264 
Q 1234 2150 1697 2047 
L 1894 2003 
Q 2506 1872 2764 1633 
Q 3022 1394 3022 966 
Q 3022 478 2636 193 
Q 2250 -91 1575 -91 
Q 1294 -91 989 -36 
Q 684 19 347 128 
L 347 722 
Q 666 556 975 473 
Q 1284 391 1588 391 
Q 1994 391 2212 530 
Q 2431 669 2431 922 
Q 2431 1156 2273 1281 
Q 2116 1406 1581 1522 
L 1381 1569 
Q 847 1681 609 1914 
Q 372 2147 372 2553 
Q 372 3047 722 3315 
Q 1072 3584 1716 3584 
Q 2034 3584 2315 3537 
Q 2597 3491 2834 3397 
z
" transform="scale(0.015625)"/>
       <path id="DejaVuSans-74" d="M 1172 4494 
L 1172 3500 
L 2356 3500 
L 2356 3053 
L 1172 3053 
L 1172 1153 
Q 1172 725 1289 603 
Q 1406 481 1766 481 
L 2356 481 
L 2356 0 
L 1766 0 
Q 1100 0 847 248 
Q 594 497 594 1153 
L 594 3053 
L 172 3053 
L 172 3500 
L 594 3500 
L 594 4494 
L 1172 4494 
z
" transform="scale(0.015625)"/>
      </defs>
      <use xlink:href="#DejaVuSans-46"/>
      <use xlink:href="#DejaVuSans-61" transform="translate(48.394531 0)"/>
      <use xlink:href="#DejaVuSans-73" transform="translate(109.673828 0)"/>
      <use xlink:href="#DejaVuSans-74" transform="translate(161.773438 0)"/>
     </g>
    </g>
    <g id="line2d_19">
     <path d="M 298.839986 70.976562 
L 318.839986 70.976562 
" style="fill: none; stroke-dasharray: 3.7,1.6; stroke-dashoffset: 0; stroke: #000000"/>
    </g>
    <g id="line2d_20">
     <g>
      <use xlink:href="#m3047b74c56" x="308.839986" y="70.976562" style="stroke: #000000; stroke-linejoin: miter"/>
     </g>
    </g>
    <g id="text_16">
     <!-- Fast (n=16) -->
     <g transform="translate(326.839986 74.476562) scale(0.1 -0.1)">
      <defs>
       <path id="DejaVuSans-20" transform="scale(0.015625)"/>
       <path id="DejaVuSans-28" d="M 1984 4856 
Q 1566 4138 1362 3434 
Q 1159 2731 1159 2009 
Q 1159 1288 1364 580 
Q 1569 -128 1984 -844 
L 1484 -844 
Q 1016 -109 783 600 
Q 550 1309 550 2009 
Q 550 2706 781 3412 
Q 1013 4119 1484 4856 
L 1984 4856 
z
" transform="scale(0.015625)"/>
       <path id="DejaVuSans-6e" d="M 3513 2113 
L 3513 0 
L 2938 0 
L 2938 2094 
Q 2938 2591 2744 2837 
Q 2550 3084 2163 3084 
Q 1697 3084 1428 2787 
Q 1159 2491 1159 1978 
L 1159 0 
L 581 0 
L 581 3500 
L 1159 3500 
L 1159 2956 
Q 1366 3272 1645 3428 
Q 1925 3584 2291 3584 
Q 2894 3584 3203 3211 
Q 3513 2838 3513 2113 
z
" transform="scale(0.015625)"/>
       <path id="DejaVuSans-3d" d="M 678 2906 
L 4684 2906 
L 4684 2381 
L 678 2381 
L 678 2906 
z
M 678 1631 
L 4684 1631 
L 4684 1100 
L 678 1100 
L 678 1631 
z
" transform="scale(0.015625)"/>
       <path id="DejaVuSans-29" d="M 513 4856 
L 1013 4856 
Q 1481 4119 1714 3412 
Q 1947 2706 1947 2009 
Q 1947 1309 1714 600 
Q 1481 -109 1013 -844 
L 513 -844 
Q 928 -128 1133 580 
Q 1338 1288 1338 2009 
Q 1338 2731 1133 3434 
Q 928 4138 513 4856 
z
" transform="scale(0.015625)"/>
      </defs>
      <use xlink:href="#DejaVuSans-46"/>
      <use xlink:href="#DejaVuSans-61" transform="translate(48.394531 0)"/>
      <use xlink:href="#DejaVuSans-73" transform="translate(109.673828 0)"/>
      <use xlink:href="#DejaVuSans-74" transform="translate(161.773438 0)"/>
      <use xlink:href="#DejaVuSans-20" transform="translate(200.982422 0)"/>
      <use xlink:href="#DejaVuSans-28" transform="translate(232.769531 0)"/>
      <use xlink:href="#DejaVuSans-6e" transform="translate(271.783203 0)"/>
      <use xlink:href="#DejaVuSans-3d" transform="translate(335.162109 0)"/>
      <use xlink:href="#DejaVuSans-31" transform="translate(418.951172 0)"/>
      <use xlink:href="#DejaVuSans-36" transform="translate(482.574219 0)"/>
      <use xlink:href="#DejaVuSans-29" transform="translate(546.197266 0)"/>
     </g>
    </g>
    <g id="line2d_21">
     <path d="M 298.839986 85.654687 
L 318.839986 85.654687 
" style="fill: none; stroke: #1f77b4; stroke-width: 2; stroke-linecap: square"/>
    </g>
    <g id="line2d_22"/>
    <g id="text_17">
     <!-- Fed -->
     <g transform="translate(326.839986 89.154687) scale(0.1 -0.1)">
      <defs>
       <path id="DejaVuSans-65" d="M 3597 1894 
L 3597 1613 
L 953 1613 
Q 991 1019 1311 708 
Q 1631 397 2203 397 
Q 2534 397 2845 478 
Q 3156 559 3463 722 
L 3463 178 
Q 3153 47 2828 -22 
Q 2503 -91 2169 -91 
Q 1331 -91 842 396 
Q 353 884 353 1716 
Q 353 2575 817 3079 
Q 1281 3584 2069 3584 
Q 2775 3584 3186 3129 
Q 3597 2675 3597 1894 
z
M 3022 2063 
Q 3016 2534 2758 2815 
Q 2500 3097 2075 3097 
Q 1594 3097 1305 2825 
Q 1016 2553 972 2059 
L 3022 2063 
z
" transform="scale(0.015625)"/>
       <path id="DejaVuSans-64" d="M 2906 2969 
L 2906 4863 
L 3481 4863 
L 3481 0 
L 2906 0 
L 2906 525 
Q 2725 213 2448 61 
Q 2172 -91 1784 -91 
Q 1150 -91 751 415 
Q 353 922 353 1747 
Q 353 2572 751 3078 
Q 1150 3584 1784 3584 
Q 2172 3584 2448 3432 
Q 2725 3281 2906 2969 
z
M 947 1747 
Q 947 1113 1208 752 
Q 1469 391 1925 391 
Q 2381 391 2643 752 
Q 2906 1113 2906 1747 
Q 2906 2381 2643 2742 
Q 2381 3103 1925 3103 
Q 1469 3103 1208 2742 
Q 947 2381 947 1747 
z
" transform="scale(0.015625)"/>
      </defs>
      <use xlink:href="#DejaVuSans-46"/>
      <use xlink:href="#DejaVuSans-65" transform="translate(52.019531 0)"/>
      <use xlink:href="#DejaVuSans-64" transform="translate(113.542969 0)"/>
     </g>
    </g>
    <g id="line2d_23">
     <path d="M 298.839986 100.332812 
L 318.839986 100.332812 
" style="fill: none; stroke-dasharray: 3.7,1.6; stroke-dashoffset: 0; stroke: #1f77b4"/>
    </g>
    <g id="line2d_24">
     <g>
      <use xlink:href="#m4c5a586456" x="308.839986" y="100.332812" style="fill: #1f77b4; stroke: #000000; stroke-linejoin: miter"/>
     </g>
    </g>
    <g id="text_18">
     <!-- Fed (n=16) -->
     <g transform="translate(326.839986 103.832812) scale(0.1 -0.1)">
      <use xlink:href="#DejaVuSans-46"/>
      <use xlink:href="#DejaVuSans-65" transform="translate(52.019531 0)"/>
      <use xlink:href="#DejaVuSans-64" transform="translate(113.542969 0)"/>
      <use xlink:href="#DejaVuSans-20" transform="translate(177.019531 0)"/>
      <use xlink:href="#DejaVuSans-28" transform="translate(208.806641 0)"/>
      <use xlink:href="#DejaVuSans-6e" transform="translate(247.820312 0)"/>
      <use xlink:href="#DejaVuSans-3d" transform="translate(311.199219 0)"/>
      <use xlink:href="#DejaVuSans-31" transform="translate(394.988281 0)"/>
      <use xlink:href="#DejaVuSans-36" transform="translate(458.611328 0)"/>
      <use xlink:href="#DejaVuSans-29" transform="translate(522.234375 0)"/>
     </g>
    </g>
   </g>
  </g>
  <g id="axes_2">
   <g id="patch_8">
    <path d="M 496.255951 320.4 
L 835.908125 320.4 
L 835.908125 43.2 
L 496.255951 43.2 
z
" style="fill: #ffffff"/>
   </g>
   <g id="matplotlib.axis_3">
    <g id="xtick_7">
     <g id="line2d_25">
      <g>
       <use xlink:href="#mace345ca03" x="511.694686" y="320.4" style="stroke: #000000; stroke-width: 0.8"/>
      </g>
     </g>
     <g id="text_19">
      <!-- 0 -->
      <g transform="translate(506.922811 338.797656) scale(0.15 -0.15)">
       <use xlink:href="#DejaVuSans-30"/>
      </g>
     </g>
    </g>
    <g id="xtick_8">
     <g id="line2d_26">
      <g>
       <use xlink:href="#mace345ca03" x="573.449627" y="320.4" style="stroke: #000000; stroke-width: 0.8"/>
      </g>
     </g>
     <g id="text_20">
      <!-- 5 -->
      <g transform="translate(568.677752 338.797656) scale(0.15 -0.15)">
       <use xlink:href="#DejaVuSans-35"/>
      </g>
     </g>
    </g>
    <g id="xtick_9">
     <g id="line2d_27">
      <g>
       <use xlink:href="#mace345ca03" x="635.204568" y="320.4" style="stroke: #000000; stroke-width: 0.8"/>
      </g>
     </g>
     <g id="text_21">
      <!-- 10 -->
      <g transform="translate(625.660818 338.797656) scale(0.15 -0.15)">
       <use xlink:href="#DejaVuSans-31"/>
       <use xlink:href="#DejaVuSans-30" transform="translate(63.623047 0)"/>
      </g>
     </g>
    </g>
    <g id="xtick_10">
     <g id="line2d_28">
      <g>
       <use xlink:href="#mace345ca03" x="696.959508" y="320.4" style="stroke: #000000; stroke-width: 0.8"/>
      </g>
     </g>
     <g id="text_22">
      <!-- 15 -->
      <g transform="translate(687.415758 338.797656) scale(0.15 -0.15)">
       <use xlink:href="#DejaVuSans-31"/>
       <use xlink:href="#DejaVuSans-35" transform="translate(63.623047 0)"/>
      </g>
     </g>
    </g>
    <g id="xtick_11">
     <g id="line2d_29">
      <g>
       <use xlink:href="#mace345ca03" x="758.714449" y="320.4" style="stroke: #000000; stroke-width: 0.8"/>
      </g>
     </g>
     <g id="text_23">
      <!-- 20 -->
      <g transform="translate(749.170699 338.797656) scale(0.15 -0.15)">
       <use xlink:href="#DejaVuSans-32"/>
       <use xlink:href="#DejaVuSans-30" transform="translate(63.623047 0)"/>
      </g>
     </g>
    </g>
    <g id="xtick_12">
     <g id="line2d_30">
      <g>
       <use xlink:href="#mace345ca03" x="820.46939" y="320.4" style="stroke: #000000; stroke-width: 0.8"/>
      </g>
     </g>
     <g id="text_24">
      <!-- 25 -->
      <g transform="translate(810.92564 338.797656) scale(0.15 -0.15)">
       <use xlink:href="#DejaVuSans-32"/>
       <use xlink:href="#DejaVuSans-35" transform="translate(63.623047 0)"/>
      </g>
     </g>
    </g>
    <g id="text_25">
     <!-- time [hr] -->
     <g transform="translate(621.007507 359.594375) scale(0.18 -0.18)">
      <use xlink:href="#DejaVuSans-Bold-74"/>
      <use xlink:href="#DejaVuSans-Bold-69" transform="translate(47.802734 0)"/>
      <use xlink:href="#DejaVuSans-Bold-6d" transform="translate(82.080078 0)"/>
      <use xlink:href="#DejaVuSans-Bold-65" transform="translate(186.279297 0)"/>
      <use xlink:href="#DejaVuSans-Bold-20" transform="translate(254.101562 0)"/>
      <use xlink:href="#DejaVuSans-Bold-5b" transform="translate(288.916016 0)"/>
      <use xlink:href="#DejaVuSans-Bold-68" transform="translate(334.619141 0)"/>
      <use xlink:href="#DejaVuSans-Bold-72" transform="translate(405.810547 0)"/>
      <use xlink:href="#DejaVuSans-Bold-5d" transform="translate(455.126953 0)"/>
     </g>
    </g>
   </g>
   <g id="matplotlib.axis_4">
    <g id="ytick_7">
     <g id="line2d_31">
      <g>
       <use xlink:href="#m9c2536ea23" x="496.255951" y="286.139468" style="stroke: #000000; stroke-width: 0.8"/>
      </g>
     </g>
     <g id="text_26">
      <!-- 13 -->
      <g transform="translate(470.168451 291.838296) scale(0.15 -0.15)">
       <use xlink:href="#DejaVuSans-31"/>
       <use xlink:href="#DejaVuSans-33" transform="translate(63.623047 0)"/>
      </g>
     </g>
    </g>
    <g id="ytick_8">
     <g id="line2d_32">
      <g>
       <use xlink:href="#m9c2536ea23" x="496.255951" y="250.03858" style="stroke: #000000; stroke-width: 0.8"/>
      </g>
     </g>
     <g id="text_27">
      <!-- 14 -->
      <g transform="translate(470.168451 255.737408) scale(0.15 -0.15)">
       <use xlink:href="#DejaVuSans-31"/>
       <use xlink:href="#DejaVuSans-34" transform="translate(63.623047 0)"/>
      </g>
     </g>
    </g>
    <g id="ytick_9">
     <g id="line2d_33">
      <g>
       <use xlink:href="#m9c2536ea23" x="496.255951" y="213.937693" style="stroke: #000000; stroke-width: 0.8"/>
      </g>
     </g>
     <g id="text_28">
      <!-- 15 -->
      <g transform="translate(470.168451 219.636521) scale(0.15 -0.15)">
       <use xlink:href="#DejaVuSans-31"/>
       <use xlink:href="#DejaVuSans-35" transform="translate(63.623047 0)"/>
      </g>
     </g>
    </g>
    <g id="ytick_10">
     <g id="line2d_34">
      <g>
       <use xlink:href="#m9c2536ea23" x="496.255951" y="177.836806" style="stroke: #000000; stroke-width: 0.8"/>
      </g>
     </g>
     <g id="text_29">
      <!-- 16 -->
      <g transform="translate(470.168451 183.535634) scale(0.15 -0.15)">
       <use xlink:href="#DejaVuSans-31"/>
       <use xlink:href="#DejaVuSans-36" transform="translate(63.623047 0)"/>
      </g>
     </g>
    </g>
    <g id="ytick_11">
     <g id="line2d_35">
      <g>
       <use xlink:href="#m9c2536ea23" x="496.255951" y="141.735918" style="stroke: #000000; stroke-width: 0.8"/>
      </g>
     </g>
     <g id="text_30">
      <!-- 17 -->
      <g transform="translate(470.168451 147.434746) scale(0.15 -0.15)">
       <defs>
        <path id="DejaVuSans-37" d="M 525 4666 
L 3525 4666 
L 3525 4397 
L 1831 0 
L 1172 0 
L 2766 4134 
L 525 4134 
L 525 4666 
z
" transform="scale(0.015625)"/>
       </defs>
       <use xlink:href="#DejaVuSans-31"/>
       <use xlink:href="#DejaVuSans-37" transform="translate(63.623047 0)"/>
      </g>
     </g>
    </g>
    <g id="ytick_12">
     <g id="line2d_36">
      <g>
       <use xlink:href="#m9c2536ea23" x="496.255951" y="105.635031" style="stroke: #000000; stroke-width: 0.8"/>
      </g>
     </g>
     <g id="text_31">
      <!-- 18 -->
      <g transform="translate(470.168451 111.333859) scale(0.15 -0.15)">
       <defs>
        <path id="DejaVuSans-38" d="M 2034 2216 
Q 1584 2216 1326 1975 
Q 1069 1734 1069 1313 
Q 1069 891 1326 650 
Q 1584 409 2034 409 
Q 2484 409 2743 651 
Q 3003 894 3003 1313 
Q 3003 1734 2745 1975 
Q 2488 2216 2034 2216 
z
M 1403 2484 
Q 997 2584 770 2862 
Q 544 3141 544 3541 
Q 544 4100 942 4425 
Q 1341 4750 2034 4750 
Q 2731 4750 3128 4425 
Q 3525 4100 3525 3541 
Q 3525 3141 3298 2862 
Q 3072 2584 2669 2484 
Q 3125 2378 3379 2068 
Q 3634 1759 3634 1313 
Q 3634 634 3220 271 
Q 2806 -91 2034 -91 
Q 1263 -91 848 271 
Q 434 634 434 1313 
Q 434 1759 690 2068 
Q 947 2378 1403 2484 
z
M 1172 3481 
Q 1172 3119 1398 2916 
Q 1625 2713 2034 2713 
Q 2441 2713 2670 2916 
Q 2900 3119 2900 3481 
Q 2900 3844 2670 4047 
Q 2441 4250 2034 4250 
Q 1625 4250 1398 4047 
Q 1172 3844 1172 3481 
z
" transform="scale(0.015625)"/>
       </defs>
       <use xlink:href="#DejaVuSans-31"/>
       <use xlink:href="#DejaVuSans-38" transform="translate(63.623047 0)"/>
      </g>
     </g>
    </g>
    <g id="ytick_13">
     <g id="line2d_37">
      <g>
       <use xlink:href="#m9c2536ea23" x="496.255951" y="69.534144" style="stroke: #000000; stroke-width: 0.8"/>
      </g>
     </g>
     <g id="text_32">
      <!-- 19 -->
      <g transform="translate(470.168451 75.232972) scale(0.15 -0.15)">
       <defs>
        <path id="DejaVuSans-39" d="M 703 97 
L 703 672 
Q 941 559 1184 500 
Q 1428 441 1663 441 
Q 2288 441 2617 861 
Q 2947 1281 2994 2138 
Q 2813 1869 2534 1725 
Q 2256 1581 1919 1581 
Q 1219 1581 811 2004 
Q 403 2428 403 3163 
Q 403 3881 828 4315 
Q 1253 4750 1959 4750 
Q 2769 4750 3195 4129 
Q 3622 3509 3622 2328 
Q 3622 1225 3098 567 
Q 2575 -91 1691 -91 
Q 1453 -91 1209 -44 
Q 966 3 703 97 
z
M 1959 2075 
Q 2384 2075 2632 2365 
Q 2881 2656 2881 3163 
Q 2881 3666 2632 3958 
Q 2384 4250 1959 4250 
Q 1534 4250 1286 3958 
Q 1038 3666 1038 3163 
Q 1038 2656 1286 2365 
Q 1534 2075 1959 2075 
z
" transform="scale(0.015625)"/>
       </defs>
       <use xlink:href="#DejaVuSans-31"/>
       <use xlink:href="#DejaVuSans-39" transform="translate(63.623047 0)"/>
      </g>
     </g>
    </g>
    <g id="text_33">
     <!-- PT [s] -->
     <g transform="translate(462.425014 211.2525) rotate(-90) scale(0.18 -0.18)">
      <use xlink:href="#DejaVuSans-Bold-50"/>
      <use xlink:href="#DejaVuSans-Bold-54" transform="translate(73.291016 0)"/>
      <use xlink:href="#DejaVuSans-Bold-20" transform="translate(141.503906 0)"/>
      <use xlink:href="#DejaVuSans-Bold-5b" transform="translate(176.318359 0)"/>
      <use xlink:href="#DejaVuSans-Bold-73" transform="translate(222.021484 0)"/>
      <use xlink:href="#DejaVuSans-Bold-5d" transform="translate(281.542969 0)"/>
     </g>
    </g>
   </g>
   <g id="line2d_38">
    <path d="M 511.694686 293.359645 
L 512.312236 290.582539 
L 512.929785 281.735144 
L 514.164884 254.305117 
L 516.635082 193.744444 
L 517.87018 167.921819 
L 519.105279 146.125022 
L 520.340378 128.151147 
L 521.575477 113.587437 
L 522.810576 101.982075 
L 524.045674 92.910905 
L 525.280773 85.999008 
L 526.515872 80.923537 
L 527.750971 77.409466 
L 528.36852 76.163535 
L 528.98607 75.223268 
L 529.603619 74.564909 
L 530.221168 74.166536 
L 530.838718 74.007901 
L 531.456267 74.070286 
L 532.073817 74.336374 
L 532.691366 74.790129 
L 533.308916 75.416686 
L 534.544014 77.134052 
L 535.779113 79.38957 
L 537.014212 82.097779 
L 538.86686 86.849658 
L 540.719508 92.24573 
L 543.189706 100.152718 
L 546.895002 112.92385 
L 558.010892 152.000164 
L 562.333738 166.09682 
L 566.039034 177.398922 
L 569.744331 187.925954 
L 572.832078 196.096748 
L 575.919825 203.726733 
L 579.007572 210.830489 
L 582.095319 217.428107 
L 585.183066 223.543202 
L 588.270813 229.201451 
L 591.35856 234.429515 
L 594.446307 239.254272 
L 597.534054 243.702258 
L 600.621801 247.799291 
L 603.709548 251.570202 
L 606.797295 255.038677 
L 610.502591 258.833132 
L 614.207888 262.260629 
L 617.913184 265.354778 
L 621.618481 268.146539 
L 625.323777 270.664325 
L 629.029074 272.934129 
L 633.351919 275.300338 
L 637.674765 277.39526 
L 641.997611 279.249348 
L 646.938006 281.108146 
L 651.878402 282.723694 
L 657.436346 284.289395 
L 662.994291 285.625696 
L 669.169785 286.881777 
L 675.962829 288.029919 
L 683.373421 289.052244 
L 691.401564 289.940156 
L 700.664805 290.740102 
L 711.163145 291.423219 
L 723.514133 292.002703 
L 738.952868 292.489781 
L 758.0969 292.858534 
L 784.033975 293.122307 
L 820.46939 293.276589 
L 820.46939 293.276589 
" clip-path="url(#p9d004a0deb)" style="fill: none; stroke: #000000; stroke-width: 2; stroke-linecap: square"/>
   </g>
   <g id="line2d_39">
    <path d="M 511.694686 293.359645 
L 530.221168 102.024942 
L 548.747651 152.566185 
L 585.800615 195.887249 
L 659.906544 264.478935 
L 808.118402 293.359645 
" clip-path="url(#p9d004a0deb)" style="fill: none; stroke-dasharray: 3.7,1.6; stroke-dashoffset: 0; stroke: #000000"/>
    <g clip-path="url(#p9d004a0deb)">
     <use xlink:href="#m3047b74c56" x="511.694686" y="293.359645" style="stroke: #000000; stroke-linejoin: miter"/>
     <use xlink:href="#m3047b74c56" x="530.221168" y="102.024942" style="stroke: #000000; stroke-linejoin: miter"/>
     <use xlink:href="#m3047b74c56" x="548.747651" y="152.566185" style="stroke: #000000; stroke-linejoin: miter"/>
     <use xlink:href="#m3047b74c56" x="585.800615" y="195.887249" style="stroke: #000000; stroke-linejoin: miter"/>
     <use xlink:href="#m3047b74c56" x="659.906544" y="264.478935" style="stroke: #000000; stroke-linejoin: miter"/>
     <use xlink:href="#m3047b74c56" x="808.118402" y="293.359645" style="stroke: #000000; stroke-linejoin: miter"/>
    </g>
   </g>
   <g id="line2d_40">
    <path d="M 511.694686 307.8 
L 512.312236 304.520297 
L 512.929785 294.087384 
L 514.164884 261.892558 
L 516.635082 191.609955 
L 517.87018 161.971144 
L 519.105279 137.104184 
L 520.340378 116.701795 
L 521.575477 100.23826 
L 522.810576 87.162277 
L 524.045674 76.968236 
L 525.280773 69.216376 
L 526.515872 63.532692 
L 527.750971 59.601767 
L 528.36852 58.208873 
L 528.98607 57.157985 
L 529.603619 56.422319 
L 530.221168 55.977227 
L 530.838718 55.8 
L 531.456267 55.869696 
L 532.073817 56.166978 
L 532.691366 56.673971 
L 533.308916 57.374138 
L 534.544014 59.293829 
L 535.779113 61.816333 
L 537.014212 64.847003 
L 538.86686 70.169672 
L 540.719508 76.221639 
L 543.189706 85.104597 
L 546.895002 99.489551 
L 559.245991 148.490446 
L 562.951287 162.09811 
L 566.656583 174.901229 
L 570.36188 186.844281 
L 573.449627 196.127732 
L 576.537374 204.808389 
L 579.625121 212.901083 
L 582.712868 220.426872 
L 585.800615 227.4109 
L 588.888362 233.88079 
L 591.976109 239.865462 
L 595.063856 245.394261 
L 598.151603 250.496328 
L 601.23935 255.200152 
L 604.327097 259.53326 
L 607.414844 263.522011 
L 610.502591 267.191464 
L 613.590338 270.565314 
L 617.295635 274.255031 
L 621.000931 277.586996 
L 624.706228 280.594277 
L 628.411524 283.307234 
L 632.116821 285.753662 
L 635.822117 287.958942 
L 640.144963 290.257726 
L 644.467809 292.292842 
L 648.790655 294.093931 
L 653.73105 295.899544 
L 658.671445 297.468836 
L 664.22939 298.989687 
L 669.787334 300.287699 
L 675.962829 301.507782 
L 682.755872 302.623017 
L 690.166465 303.616041 
L 698.812157 304.536979 
L 708.075398 305.30034 
L 719.191287 305.984765 
L 732.159825 306.550417 
L 748.216109 307.013094 
L 768.59524 307.362533 
L 797.002512 307.607044 
L 820.46939 307.701878 
L 820.46939 307.701878 
" clip-path="url(#p9d004a0deb)" style="fill: none; stroke: #1f77b4; stroke-width: 2; stroke-linecap: square"/>
   </g>
   <g id="line2d_41">
    <path d="M 511.694686 307.8 
L 530.221168 127.295563 
L 548.747651 130.905652 
L 585.800615 213.937693 
L 659.906544 286.139468 
L 808.118402 307.8 
" clip-path="url(#p9d004a0deb)" style="fill: none; stroke-dasharray: 3.7,1.6; stroke-dashoffset: 0; stroke: #1f77b4"/>
    <g clip-path="url(#p9d004a0deb)">
     <use xlink:href="#m4c5a586456" x="511.694686" y="307.8" style="fill: #1f77b4; stroke: #000000; stroke-linejoin: miter"/>
     <use xlink:href="#m4c5a586456" x="530.221168" y="127.295563" style="fill: #1f77b4; stroke: #000000; stroke-linejoin: miter"/>
     <use xlink:href="#m4c5a586456" x="548.747651" y="130.905652" style="fill: #1f77b4; stroke: #000000; stroke-linejoin: miter"/>
     <use xlink:href="#m4c5a586456" x="585.800615" y="213.937693" style="fill: #1f77b4; stroke: #000000; stroke-linejoin: miter"/>
     <use xlink:href="#m4c5a586456" x="659.906544" y="286.139468" style="fill: #1f77b4; stroke: #000000; stroke-linejoin: miter"/>
     <use xlink:href="#m4c5a586456" x="808.118402" y="307.8" style="fill: #1f77b4; stroke: #000000; stroke-linejoin: miter"/>
    </g>
   </g>
   <g id="patch_9">
    <path d="M 496.255951 320.4 
L 496.255951 43.2 
" style="fill: none; stroke: #000000; stroke-width: 0.8; stroke-linejoin: miter; stroke-linecap: square"/>
   </g>
   <g id="patch_10">
    <path d="M 835.908125 320.4 
L 835.908125 43.2 
" style="fill: none; stroke: #000000; stroke-width: 0.8; stroke-linejoin: miter; stroke-linecap: square"/>
   </g>
   <g id="patch_11">
    <path d="M 496.255951 320.4 
L 835.908125 320.4 
" style="fill: none; stroke: #000000; stroke-width: 0.8; stroke-linejoin: miter; stroke-linecap: square"/>
   </g>
   <g id="patch_12">
    <path d="M 496.255951 43.2 
L 835.908125 43.2 
" style="fill: none; stroke: #000000; stroke-width: 0.8; stroke-linejoin: miter; stroke-linecap: square"/>
   </g>
   <g id="legend_2">
    <g id="patch_13">
     <path d="M 738.387813 109.9125 
L 828.908125 109.9125 
Q 830.908125 109.9125 830.908125 107.9125 
L 830.908125 50.2 
Q 830.908125 48.2 828.908125 48.2 
L 738.387813 48.2 
Q 736.387813 48.2 736.387813 50.2 
L 736.387813 107.9125 
Q 736.387813 109.9125 738.387813 109.9125 
z
" style="fill: #ffffff; opacity: 0.8; stroke: #cccccc; stroke-linejoin: miter"/>
    </g>
    <g id="line2d_42">
     <path d="M 740.387813 56.298437 
L 760.387813 56.298437 
" style="fill: none; stroke: #000000; stroke-width: 2; stroke-linecap: square"/>
    </g>
    <g id="line2d_43"/>
    <g id="text_34">
     <!-- Fast -->
     <g transform="translate(768.387813 59.798437) scale(0.1 -0.1)">
      <use xlink:href="#DejaVuSans-46"/>
      <use xlink:href="#DejaVuSans-61" transform="translate(48.394531 0)"/>
      <use xlink:href="#DejaVuSans-73" transform="translate(109.673828 0)"/>
      <use xlink:href="#DejaVuSans-74" transform="translate(161.773438 0)"/>
     </g>
    </g>
    <g id="line2d_44">
     <path d="M 740.387813 70.976562 
L 760.387813 70.976562 
" style="fill: none; stroke-dasharray: 3.7,1.6; stroke-dashoffset: 0; stroke: #000000"/>
    </g>
    <g id="line2d_45">
     <g>
      <use xlink:href="#m3047b74c56" x="750.387813" y="70.976562" style="stroke: #000000; stroke-linejoin: miter"/>
     </g>
    </g>
    <g id="text_35">
     <!-- Fast (n=16) -->
     <g transform="translate(768.387813 74.476562) scale(0.1 -0.1)">
      <use xlink:href="#DejaVuSans-46"/>
      <use xlink:href="#DejaVuSans-61" transform="translate(48.394531 0)"/>
      <use xlink:href="#DejaVuSans-73" transform="translate(109.673828 0)"/>
      <use xlink:href="#DejaVuSans-74" transform="translate(161.773438 0)"/>
      <use xlink:href="#DejaVuSans-20" transform="translate(200.982422 0)"/>
      <use xlink:href="#DejaVuSans-28" transform="translate(232.769531 0)"/>
      <use xlink:href="#DejaVuSans-6e" transform="translate(271.783203 0)"/>
      <use xlink:href="#DejaVuSans-3d" transform="translate(335.162109 0)"/>
      <use xlink:href="#DejaVuSans-31" transform="translate(418.951172 0)"/>
      <use xlink:href="#DejaVuSans-36" transform="translate(482.574219 0)"/>
      <use xlink:href="#DejaVuSans-29" transform="translate(546.197266 0)"/>
     </g>
    </g>
    <g id="line2d_46">
     <path d="M 740.387813 85.654687 
L 760.387813 85.654687 
" style="fill: none; stroke: #1f77b4; stroke-width: 2; stroke-linecap: square"/>
    </g>
    <g id="line2d_47"/>
    <g id="text_36">
     <!-- Fed -->
     <g transform="translate(768.387813 89.154687) scale(0.1 -0.1)">
      <use xlink:href="#DejaVuSans-46"/>
      <use xlink:href="#DejaVuSans-65" transform="translate(52.019531 0)"/>
      <use xlink:href="#DejaVuSans-64" transform="translate(113.542969 0)"/>
     </g>
    </g>
    <g id="line2d_48">
     <path d="M 740.387813 100.332812 
L 760.387813 100.332812 
" style="fill: none; stroke-dasharray: 3.7,1.6; stroke-dashoffset: 0; stroke: #1f77b4"/>
    </g>
    <g id="line2d_49">
     <g>
      <use xlink:href="#m4c5a586456" x="750.387813" y="100.332812" style="fill: #1f77b4; stroke: #000000; stroke-linejoin: miter"/>
     </g>
    </g>
    <g id="text_37">
     <!-- Fed (n=16) -->
     <g transform="translate(768.387813 103.832812) scale(0.1 -0.1)">
      <use xlink:href="#DejaVuSans-46"/>
      <use xlink:href="#DejaVuSans-65" transform="translate(52.019531 0)"/>
      <use xlink:href="#DejaVuSans-64" transform="translate(113.542969 0)"/>
      <use xlink:href="#DejaVuSans-20" transform="translate(177.019531 0)"/>
      <use xlink:href="#DejaVuSans-28" transform="translate(208.806641 0)"/>
      <use xlink:href="#DejaVuSans-6e" transform="translate(247.820312 0)"/>
      <use xlink:href="#DejaVuSans-3d" transform="translate(311.199219 0)"/>
      <use xlink:href="#DejaVuSans-31" transform="translate(394.988281 0)"/>
      <use xlink:href="#DejaVuSans-36" transform="translate(458.611328 0)"/>
      <use xlink:href="#DejaVuSans-29" transform="translate(522.234375 0)"/>
     </g>
    </g>
   </g>
  </g>
  <g id="text_38">
   <!-- Mendell2011 (healthy, Japanese) -->
   <g transform="translate(201.315547 26.196094) scale(0.25 -0.25)">
    <defs>
     <path id="DejaVuSans-Bold-4d" d="M 588 4666 
L 2119 4666 
L 3181 2169 
L 4250 4666 
L 5778 4666 
L 5778 0 
L 4641 0 
L 4641 3413 
L 3566 897 
L 2803 897 
L 1728 3413 
L 1728 0 
L 588 0 
L 588 4666 
z
" transform="scale(0.015625)"/>
     <path id="DejaVuSans-Bold-6e" d="M 4056 2131 
L 4056 0 
L 2931 0 
L 2931 347 
L 2931 1631 
Q 2931 2084 2911 2256 
Q 2891 2428 2841 2509 
Q 2775 2619 2662 2680 
Q 2550 2741 2406 2741 
Q 2056 2741 1856 2470 
Q 1656 2200 1656 1722 
L 1656 0 
L 538 0 
L 538 3500 
L 1656 3500 
L 1656 2988 
Q 1909 3294 2193 3439 
Q 2478 3584 2822 3584 
Q 3428 3584 3742 3212 
Q 4056 2841 4056 2131 
z
" transform="scale(0.015625)"/>
     <path id="DejaVuSans-Bold-64" d="M 2919 2988 
L 2919 4863 
L 4044 4863 
L 4044 0 
L 2919 0 
L 2919 506 
Q 2688 197 2409 53 
Q 2131 -91 1766 -91 
Q 1119 -91 703 423 
Q 288 938 288 1747 
Q 288 2556 703 3070 
Q 1119 3584 1766 3584 
Q 2128 3584 2408 3439 
Q 2688 3294 2919 2988 
z
M 2181 722 
Q 2541 722 2730 984 
Q 2919 1247 2919 1747 
Q 2919 2247 2730 2509 
Q 2541 2772 2181 2772 
Q 1825 2772 1636 2509 
Q 1447 2247 1447 1747 
Q 1447 1247 1636 984 
Q 1825 722 2181 722 
z
" transform="scale(0.015625)"/>
     <path id="DejaVuSans-Bold-6c" d="M 538 4863 
L 1656 4863 
L 1656 0 
L 538 0 
L 538 4863 
z
" transform="scale(0.015625)"/>
     <path id="DejaVuSans-Bold-32" d="M 1844 884 
L 3897 884 
L 3897 0 
L 506 0 
L 506 884 
L 2209 2388 
Q 2438 2594 2547 2791 
Q 2656 2988 2656 3200 
Q 2656 3528 2436 3728 
Q 2216 3928 1850 3928 
Q 1569 3928 1234 3808 
Q 900 3688 519 3450 
L 519 4475 
Q 925 4609 1322 4679 
Q 1719 4750 2100 4750 
Q 2938 4750 3402 4381 
Q 3866 4013 3866 3353 
Q 3866 2972 3669 2642 
Q 3472 2313 2841 1759 
L 1844 884 
z
" transform="scale(0.015625)"/>
     <path id="DejaVuSans-Bold-30" d="M 2944 2338 
Q 2944 3213 2780 3570 
Q 2616 3928 2228 3928 
Q 1841 3928 1675 3570 
Q 1509 3213 1509 2338 
Q 1509 1453 1675 1090 
Q 1841 728 2228 728 
Q 2613 728 2778 1090 
Q 2944 1453 2944 2338 
z
M 4147 2328 
Q 4147 1169 3647 539 
Q 3147 -91 2228 -91 
Q 1306 -91 806 539 
Q 306 1169 306 2328 
Q 306 3491 806 4120 
Q 1306 4750 2228 4750 
Q 3147 4750 3647 4120 
Q 4147 3491 4147 2328 
z
" transform="scale(0.015625)"/>
     <path id="DejaVuSans-Bold-31" d="M 750 831 
L 1813 831 
L 1813 3847 
L 722 3622 
L 722 4441 
L 1806 4666 
L 2950 4666 
L 2950 831 
L 4013 831 
L 4013 0 
L 750 0 
L 750 831 
z
" transform="scale(0.015625)"/>
     <path id="DejaVuSans-Bold-28" d="M 2413 -844 
L 1484 -844 
Q 1006 -72 778 623 
Q 550 1319 550 2003 
Q 550 2688 779 3389 
Q 1009 4091 1484 4856 
L 2413 4856 
Q 2013 4116 1813 3408 
Q 1613 2700 1613 2009 
Q 1613 1319 1811 609 
Q 2009 -100 2413 -844 
z
" transform="scale(0.015625)"/>
     <path id="DejaVuSans-Bold-79" d="M 78 3500 
L 1197 3500 
L 2138 1125 
L 2938 3500 
L 4056 3500 
L 2584 -331 
Q 2363 -916 2067 -1148 
Q 1772 -1381 1288 -1381 
L 641 -1381 
L 641 -647 
L 991 -647 
Q 1275 -647 1404 -556 
Q 1534 -466 1606 -231 
L 1638 -134 
L 78 3500 
z
" transform="scale(0.015625)"/>
     <path id="DejaVuSans-Bold-2c" d="M 653 1209 
L 1778 1209 
L 1778 256 
L 1006 -909 
L 341 -909 
L 653 256 
L 653 1209 
z
" transform="scale(0.015625)"/>
     <path id="DejaVuSans-Bold-4a" d="M 588 4666 
L 1791 4666 
L 1791 453 
Q 1791 -419 1317 -850 
Q 844 -1281 -116 -1281 
L -359 -1281 
L -359 -372 
L -172 -372 
Q 203 -372 395 -162 
Q 588 47 588 453 
L 588 4666 
z
" transform="scale(0.015625)"/>
     <path id="DejaVuSans-Bold-70" d="M 1656 506 
L 1656 -1331 
L 538 -1331 
L 538 3500 
L 1656 3500 
L 1656 2988 
Q 1888 3294 2169 3439 
Q 2450 3584 2816 3584 
Q 3463 3584 3878 3070 
Q 4294 2556 4294 1747 
Q 4294 938 3878 423 
Q 3463 -91 2816 -91 
Q 2450 -91 2169 54 
Q 1888 200 1656 506 
z
M 2400 2772 
Q 2041 2772 1848 2508 
Q 1656 2244 1656 1747 
Q 1656 1250 1848 986 
Q 2041 722 2400 722 
Q 2759 722 2948 984 
Q 3138 1247 3138 1747 
Q 3138 2247 2948 2509 
Q 2759 2772 2400 2772 
z
" transform="scale(0.015625)"/>
     <path id="DejaVuSans-Bold-29" d="M 513 -844 
Q 913 -100 1113 609 
Q 1313 1319 1313 2009 
Q 1313 2700 1113 3408 
Q 913 4116 513 4856 
L 1441 4856 
Q 1916 4091 2145 3389 
Q 2375 2688 2375 2003 
Q 2375 1319 2147 623 
Q 1919 -72 1441 -844 
L 513 -844 
z
" transform="scale(0.015625)"/>
    </defs>
    <use xlink:href="#DejaVuSans-Bold-4d"/>
    <use xlink:href="#DejaVuSans-Bold-65" transform="translate(99.511719 0)"/>
    <use xlink:href="#DejaVuSans-Bold-6e" transform="translate(167.333984 0)"/>
    <use xlink:href="#DejaVuSans-Bold-64" transform="translate(238.525391 0)"/>
    <use xlink:href="#DejaVuSans-Bold-65" transform="translate(310.107422 0)"/>
    <use xlink:href="#DejaVuSans-Bold-6c" transform="translate(377.929688 0)"/>
    <use xlink:href="#DejaVuSans-Bold-6c" transform="translate(412.207031 0)"/>
    <use xlink:href="#DejaVuSans-Bold-32" transform="translate(446.484375 0)"/>
    <use xlink:href="#DejaVuSans-Bold-30" transform="translate(516.064453 0)"/>
    <use xlink:href="#DejaVuSans-Bold-31" transform="translate(585.644531 0)"/>
    <use xlink:href="#DejaVuSans-Bold-31" transform="translate(655.224609 0)"/>
    <use xlink:href="#DejaVuSans-Bold-20" transform="translate(724.804688 0)"/>
    <use xlink:href="#DejaVuSans-Bold-28" transform="translate(759.619141 0)"/>
    <use xlink:href="#DejaVuSans-Bold-68" transform="translate(805.322266 0)"/>
    <use xlink:href="#DejaVuSans-Bold-65" transform="translate(876.513672 0)"/>
    <use xlink:href="#DejaVuSans-Bold-61" transform="translate(944.335938 0)"/>
    <use xlink:href="#DejaVuSans-Bold-6c" transform="translate(1011.816406 0)"/>
    <use xlink:href="#DejaVuSans-Bold-74" transform="translate(1046.09375 0)"/>
    <use xlink:href="#DejaVuSans-Bold-68" transform="translate(1093.896484 0)"/>
    <use xlink:href="#DejaVuSans-Bold-79" transform="translate(1165.087891 0)"/>
    <use xlink:href="#DejaVuSans-Bold-2c" transform="translate(1222.523438 0)"/>
    <use xlink:href="#DejaVuSans-Bold-20" transform="translate(1260.511719 0)"/>
    <use xlink:href="#DejaVuSans-Bold-4a" transform="translate(1295.326172 0)"/>
    <use xlink:href="#DejaVuSans-Bold-61" transform="translate(1332.533203 0)"/>
    <use xlink:href="#DejaVuSans-Bold-70" transform="translate(1400.013672 0)"/>
    <use xlink:href="#DejaVuSans-Bold-61" transform="translate(1471.595703 0)"/>
    <use xlink:href="#DejaVuSans-Bold-6e" transform="translate(1539.076172 0)"/>
    <use xlink:href="#DejaVuSans-Bold-65" transform="translate(1610.267578 0)"/>
    <use xlink:href="#DejaVuSans-Bold-73" transform="translate(1678.089844 0)"/>
    <use xlink:href="#DejaVuSans-Bold-65" transform="translate(1737.611328 0)"/>
    <use xlink:href="#DejaVuSans-Bold-29" transform="translate(1805.433594 0)"/>
   </g>
  </g>
 </g>
 <defs>
  <clipPath id="p8a881d09ab">
   <rect x="54.708125" y="43.2" width="339.652174" height="277.2"/>
  </clipPath>
  <clipPath id="p9d004a0deb">
   <rect x="496.255951" y="43.2" width="339.652174" height="277.2"/>
  </clipPath>
 </defs>
</svg>
