<?xml version="1.0" encoding="utf-8" standalone="no"?>
<!DOCTYPE svg PUBLIC "-//W3C//DTD SVG 1.1//EN"
  "http://www.w3.org/Graphics/SVG/1.1/DTD/svg11.dtd">
<svg xmlns:xlink="http://www.w3.org/1999/xlink" width="852.651875pt" height="370.537812pt" viewBox="0 0 852.651875 370.537812" xmlns="http://www.w3.org/2000/svg" version="1.1">
 <metadata>
  <rdf:RDF xmlns:dc="http://purl.org/dc/elements/1.1/" xmlns:cc="http://creativecommons.org/ns#" xmlns:rdf="http://www.w3.org/1999/02/22-rdf-syntax-ns#">
   <cc:Work>
    <dc:type rdf:resource="http://purl.org/dc/dcmitype/StillImage"/>
    <dc:date>2026-01-06T17:44:29.434101</dc:date>
    <dc:format>image/svg+xml</dc:format>
    <dc:creator>
     <cc:Agent>
      <dc:title>Matplotlib v3.10.7, https://matplotlib.org/</dc:title>
     </cc:Agent>
    </dc:creator>
   </cc:Work>
  </rdf:RDF>
 </metadata>
 <defs>
  <style type="text/css">*{stroke-linejoin: round; stroke-linecap: butt}</style>
 </defs>
 <g id="figure_1">
  <g id="patch_1">
   <path d="M 0 370.537812 
L 852.651875 370.537812 
L 852.651875 0 
L 0 0 
z
" style="fill: #ffffff"/>
  </g>
  <g id="axes_1">
   <g id="patch_2">
    <path d="M 64.251875 320.4 
L 403.904049 320.4 
L 403.904049 43.2 
L 64.251875 43.2 
z
" style="fill: #ffffff"/>
   </g>
   <g id="matplotlib.axis_1">
    <g id="xtick_1">
     <g id="line2d_1">
      <defs>
       <path id="m652e16eaf4" d="M 0 0 
L 0 3.5 
" style="stroke: #000000; stroke-width: 0.8"/>
      </defs>
      <g>
       <use xlink:href="#m652e16eaf4" x="79.69061" y="320.4" style="stroke: #000000; stroke-width: 0.8"/>
      </g>
     </g>
     <g id="text_1">
      <!-- 0 -->
      <g transform="translate(74.918735 338.797656) scale(0.15 -0.15)">
       <defs>
        <path id="DejaVuSans-30" d="M 2034 4250 
Q 1547 4250 1301 3770 
Q 1056 3291 1056 2328 
Q 1056 1369 1301 889 
Q 1547 409 2034 409 
Q 2525 409 2770 889 
Q 3016 1369 3016 2328 
Q 3016 3291 2770 3770 
Q 2525 4250 2034 4250 
z
M 2034 4750 
Q 2819 4750 3233 4129 
Q 3647 3509 3647 2328 
Q 3647 1150 3233 529 
Q 2819 -91 2034 -91 
Q 1250 -91 836 529 
Q 422 1150 422 2328 
Q 422 3509 836 4129 
Q 1250 4750 2034 4750 
z
" transform="scale(0.015625)"/>
       </defs>
       <use xlink:href="#DejaVuSans-30"/>
      </g>
     </g>
    </g>
    <g id="xtick_2">
     <g id="line2d_2">
      <g>
       <use xlink:href="#m652e16eaf4" x="141.445551" y="320.4" style="stroke: #000000; stroke-width: 0.8"/>
      </g>
     </g>
     <g id="text_2">
      <!-- 5 -->
      <g transform="translate(136.673676 338.797656) scale(0.15 -0.15)">
       <defs>
        <path id="DejaVuSans-35" d="M 691 4666 
L 3169 4666 
L 3169 4134 
L 1269 4134 
L 1269 2991 
Q 1406 3038 1543 3061 
Q 1681 3084 1819 3084 
Q 2600 3084 3056 2656 
Q 3513 2228 3513 1497 
Q 3513 744 3044 326 
Q 2575 -91 1722 -91 
Q 1428 -91 1123 -41 
Q 819 9 494 109 
L 494 744 
Q 775 591 1075 516 
Q 1375 441 1709 441 
Q 2250 441 2565 725 
Q 2881 1009 2881 1497 
Q 2881 1984 2565 2268 
Q 2250 2553 1709 2553 
Q 1456 2553 1204 2497 
Q 953 2441 691 2322 
L 691 4666 
z
" transform="scale(0.015625)"/>
       </defs>
       <use xlink:href="#DejaVuSans-35"/>
      </g>
     </g>
    </g>
    <g id="xtick_3">
     <g id="line2d_3">
      <g>
       <use xlink:href="#m652e16eaf4" x="203.200492" y="320.4" style="stroke: #000000; stroke-width: 0.8"/>
      </g>
     </g>
     <g id="text_3">
      <!-- 10 -->
      <g transform="translate(193.656742 338.797656) scale(0.15 -0.15)">
       <defs>
        <path id="DejaVuSans-31" d="M 794 531 
L 1825 531 
L 1825 4091 
L 703 3866 
L 703 4441 
L 1819 4666 
L 2450 4666 
L 2450 531 
L 3481 531 
L 3481 0 
L 794 0 
L 794 531 
z
" transform="scale(0.015625)"/>
       </defs>
       <use xlink:href="#DejaVuSans-31"/>
       <use xlink:href="#DejaVuSans-30" transform="translate(63.623047 0)"/>
      </g>
     </g>
    </g>
    <g id="xtick_4">
     <g id="line2d_4">
      <g>
       <use xlink:href="#m652e16eaf4" x="264.955432" y="320.4" style="stroke: #000000; stroke-width: 0.8"/>
      </g>
     </g>
     <g id="text_4">
      <!-- 15 -->
      <g transform="translate(255.411682 338.797656) scale(0.15 -0.15)">
       <use xlink:href="#DejaVuSans-31"/>
       <use xlink:href="#DejaVuSans-35" transform="translate(63.623047 0)"/>
      </g>
     </g>
    </g>
    <g id="xtick_5">
     <g id="line2d_5">
      <g>
       <use xlink:href="#m652e16eaf4" x="326.710373" y="320.4" style="stroke: #000000; stroke-width: 0.8"/>
      </g>
     </g>
     <g id="text_5">
      <!-- 20 -->
      <g transform="translate(317.166623 338.797656) scale(0.15 -0.15)">
       <defs>
        <path id="DejaVuSans-32" d="M 1228 531 
L 3431 531 
L 3431 0 
L 469 0 
L 469 531 
Q 828 903 1448 1529 
Q 2069 2156 2228 2338 
Q 2531 2678 2651 2914 
Q 2772 3150 2772 3378 
Q 2772 3750 2511 3984 
Q 2250 4219 1831 4219 
Q 1534 4219 1204 4116 
Q 875 4013 500 3803 
L 500 4441 
Q 881 4594 1212 4672 
Q 1544 4750 1819 4750 
Q 2544 4750 2975 4387 
Q 3406 4025 3406 3419 
Q 3406 3131 3298 2873 
Q 3191 2616 2906 2266 
Q 2828 2175 2409 1742 
Q 1991 1309 1228 531 
z
" transform="scale(0.015625)"/>
       </defs>
       <use xlink:href="#DejaVuSans-32"/>
       <use xlink:href="#DejaVuSans-30" transform="translate(63.623047 0)"/>
      </g>
     </g>
    </g>
    <g id="xtick_6">
     <g id="line2d_6">
      <g>
       <use xlink:href="#m652e16eaf4" x="388.465314" y="320.4" style="stroke: #000000; stroke-width: 0.8"/>
      </g>
     </g>
     <g id="text_6">
      <!-- 25 -->
      <g transform="translate(378.921564 338.797656) scale(0.15 -0.15)">
       <use xlink:href="#DejaVuSans-32"/>
       <use xlink:href="#DejaVuSans-35" transform="translate(63.623047 0)"/>
      </g>
     </g>
    </g>
    <g id="text_7">
     <!-- time [hr] -->
     <g transform="translate(189.003431 359.594375) scale(0.18 -0.18)">
      <defs>
       <path id="DejaVuSans-Bold-74" d="M 1759 4494 
L 1759 3500 
L 2913 3500 
L 2913 2700 
L 1759 2700 
L 1759 1216 
Q 1759 972 1856 886 
Q 1953 800 2241 800 
L 2816 800 
L 2816 0 
L 1856 0 
Q 1194 0 917 276 
Q 641 553 641 1216 
L 641 2700 
L 84 2700 
L 84 3500 
L 641 3500 
L 641 4494 
L 1759 4494 
z
" transform="scale(0.015625)"/>
       <path id="DejaVuSans-Bold-69" d="M 538 3500 
L 1656 3500 
L 1656 0 
L 538 0 
L 538 3500 
z
M 538 4863 
L 1656 4863 
L 1656 3950 
L 538 3950 
L 538 4863 
z
" transform="scale(0.015625)"/>
       <path id="DejaVuSans-Bold-6d" d="M 3781 2919 
Q 3994 3244 4286 3414 
Q 4578 3584 4928 3584 
Q 5531 3584 5847 3212 
Q 6163 2841 6163 2131 
L 6163 0 
L 5038 0 
L 5038 1825 
Q 5041 1866 5042 1909 
Q 5044 1953 5044 2034 
Q 5044 2406 4934 2573 
Q 4825 2741 4581 2741 
Q 4263 2741 4089 2478 
Q 3916 2216 3909 1719 
L 3909 0 
L 2784 0 
L 2784 1825 
Q 2784 2406 2684 2573 
Q 2584 2741 2328 2741 
Q 2006 2741 1831 2477 
Q 1656 2213 1656 1722 
L 1656 0 
L 531 0 
L 531 3500 
L 1656 3500 
L 1656 2988 
Q 1863 3284 2130 3434 
Q 2397 3584 2719 3584 
Q 3081 3584 3359 3409 
Q 3638 3234 3781 2919 
z
" transform="scale(0.015625)"/>
       <path id="DejaVuSans-Bold-65" d="M 4031 1759 
L 4031 1441 
L 1416 1441 
Q 1456 1047 1700 850 
Q 1944 653 2381 653 
Q 2734 653 3104 758 
Q 3475 863 3866 1075 
L 3866 213 
Q 3469 63 3072 -14 
Q 2675 -91 2278 -91 
Q 1328 -91 801 392 
Q 275 875 275 1747 
Q 275 2603 792 3093 
Q 1309 3584 2216 3584 
Q 3041 3584 3536 3087 
Q 4031 2591 4031 1759 
z
M 2881 2131 
Q 2881 2450 2695 2645 
Q 2509 2841 2209 2841 
Q 1884 2841 1681 2658 
Q 1478 2475 1428 2131 
L 2881 2131 
z
" transform="scale(0.015625)"/>
       <path id="DejaVuSans-Bold-20" transform="scale(0.015625)"/>
       <path id="DejaVuSans-Bold-5b" d="M 550 4863 
L 2491 4863 
L 2491 4159 
L 1613 4159 
L 1613 -141 
L 2491 -141 
L 2491 -844 
L 550 -844 
L 550 4863 
z
" transform="scale(0.015625)"/>
       <path id="DejaVuSans-Bold-68" d="M 4056 2131 
L 4056 0 
L 2931 0 
L 2931 347 
L 2931 1625 
Q 2931 2084 2911 2256 
Q 2891 2428 2841 2509 
Q 2775 2619 2662 2680 
Q 2550 2741 2406 2741 
Q 2056 2741 1856 2470 
Q 1656 2200 1656 1722 
L 1656 0 
L 538 0 
L 538 4863 
L 1656 4863 
L 1656 2988 
Q 1909 3294 2193 3439 
Q 2478 3584 2822 3584 
Q 3428 3584 3742 3212 
Q 4056 2841 4056 2131 
z
" transform="scale(0.015625)"/>
       <path id="DejaVuSans-Bold-72" d="M 3138 2547 
Q 2991 2616 2845 2648 
Q 2700 2681 2553 2681 
Q 2122 2681 1889 2404 
Q 1656 2128 1656 1613 
L 1656 0 
L 538 0 
L 538 3500 
L 1656 3500 
L 1656 2925 
Q 1872 3269 2151 3426 
Q 2431 3584 2822 3584 
Q 2878 3584 2943 3579 
Q 3009 3575 3134 3559 
L 3138 2547 
z
" transform="scale(0.015625)"/>
       <path id="DejaVuSans-Bold-5d" d="M 2375 -844 
L 434 -844 
L 434 -141 
L 1313 -141 
L 1313 4159 
L 434 4159 
L 434 4863 
L 2375 4863 
L 2375 -844 
z
" transform="scale(0.015625)"/>
      </defs>
      <use xlink:href="#DejaVuSans-Bold-74"/>
      <use xlink:href="#DejaVuSans-Bold-69" transform="translate(47.802734 0)"/>
      <use xlink:href="#DejaVuSans-Bold-6d" transform="translate(82.080078 0)"/>
      <use xlink:href="#DejaVuSans-Bold-65" transform="translate(186.279297 0)"/>
      <use xlink:href="#DejaVuSans-Bold-20" transform="translate(254.101562 0)"/>
      <use xlink:href="#DejaVuSans-Bold-5b" transform="translate(288.916016 0)"/>
      <use xlink:href="#DejaVuSans-Bold-68" transform="translate(334.619141 0)"/>
      <use xlink:href="#DejaVuSans-Bold-72" transform="translate(405.810547 0)"/>
      <use xlink:href="#DejaVuSans-Bold-5d" transform="translate(455.126953 0)"/>
     </g>
    </g>
   </g>
   <g id="matplotlib.axis_2">
    <g id="ytick_1">
     <g id="line2d_7">
      <defs>
       <path id="m3761562a7c" d="M 0 0 
L -3.5 0 
" style="stroke: #000000; stroke-width: 0.8"/>
      </defs>
      <g>
       <use xlink:href="#m3761562a7c" x="64.251875" y="307.8" style="stroke: #000000; stroke-width: 0.8"/>
      </g>
     </g>
     <g id="text_8">
      <!-- 0 -->
      <g transform="translate(47.708125 313.498828) scale(0.15 -0.15)">
       <use xlink:href="#DejaVuSans-30"/>
      </g>
     </g>
    </g>
    <g id="ytick_2">
     <g id="line2d_8">
      <g>
       <use xlink:href="#m3761562a7c" x="64.251875" y="256.301156" style="stroke: #000000; stroke-width: 0.8"/>
      </g>
     </g>
     <g id="text_9">
      <!-- 100 -->
      <g transform="translate(28.620625 261.999984) scale(0.15 -0.15)">
       <use xlink:href="#DejaVuSans-31"/>
       <use xlink:href="#DejaVuSans-30" transform="translate(63.623047 0)"/>
       <use xlink:href="#DejaVuSans-30" transform="translate(127.246094 0)"/>
      </g>
     </g>
    </g>
    <g id="ytick_3">
     <g id="line2d_9">
      <g>
       <use xlink:href="#m3761562a7c" x="64.251875" y="204.802312" style="stroke: #000000; stroke-width: 0.8"/>
      </g>
     </g>
     <g id="text_10">
      <!-- 200 -->
      <g transform="translate(28.620625 210.50114) scale(0.15 -0.15)">
       <use xlink:href="#DejaVuSans-32"/>
       <use xlink:href="#DejaVuSans-30" transform="translate(63.623047 0)"/>
       <use xlink:href="#DejaVuSans-30" transform="translate(127.246094 0)"/>
      </g>
     </g>
    </g>
    <g id="ytick_4">
     <g id="line2d_10">
      <g>
       <use xlink:href="#m3761562a7c" x="64.251875" y="153.303468" style="stroke: #000000; stroke-width: 0.8"/>
      </g>
     </g>
     <g id="text_11">
      <!-- 300 -->
      <g transform="translate(28.620625 159.002296) scale(0.15 -0.15)">
       <defs>
        <path id="DejaVuSans-33" d="M 2597 2516 
Q 3050 2419 3304 2112 
Q 3559 1806 3559 1356 
Q 3559 666 3084 287 
Q 2609 -91 1734 -91 
Q 1441 -91 1130 -33 
Q 819 25 488 141 
L 488 750 
Q 750 597 1062 519 
Q 1375 441 1716 441 
Q 2309 441 2620 675 
Q 2931 909 2931 1356 
Q 2931 1769 2642 2001 
Q 2353 2234 1838 2234 
L 1294 2234 
L 1294 2753 
L 1863 2753 
Q 2328 2753 2575 2939 
Q 2822 3125 2822 3475 
Q 2822 3834 2567 4026 
Q 2313 4219 1838 4219 
Q 1578 4219 1281 4162 
Q 984 4106 628 3988 
L 628 4550 
Q 988 4650 1302 4700 
Q 1616 4750 1894 4750 
Q 2613 4750 3031 4423 
Q 3450 4097 3450 3541 
Q 3450 3153 3228 2886 
Q 3006 2619 2597 2516 
z
" transform="scale(0.015625)"/>
       </defs>
       <use xlink:href="#DejaVuSans-33"/>
       <use xlink:href="#DejaVuSans-30" transform="translate(63.623047 0)"/>
       <use xlink:href="#DejaVuSans-30" transform="translate(127.246094 0)"/>
      </g>
     </g>
    </g>
    <g id="ytick_5">
     <g id="line2d_11">
      <g>
       <use xlink:href="#m3761562a7c" x="64.251875" y="101.804624" style="stroke: #000000; stroke-width: 0.8"/>
      </g>
     </g>
     <g id="text_12">
      <!-- 400 -->
      <g transform="translate(28.620625 107.503452) scale(0.15 -0.15)">
       <defs>
        <path id="DejaVuSans-34" d="M 2419 4116 
L 825 1625 
L 2419 1625 
L 2419 4116 
z
M 2253 4666 
L 3047 4666 
L 3047 1625 
L 3713 1625 
L 3713 1100 
L 3047 1100 
L 3047 0 
L 2419 0 
L 2419 1100 
L 313 1100 
L 313 1709 
L 2253 4666 
z
" transform="scale(0.015625)"/>
       </defs>
       <use xlink:href="#DejaVuSans-34"/>
       <use xlink:href="#DejaVuSans-30" transform="translate(63.623047 0)"/>
       <use xlink:href="#DejaVuSans-30" transform="translate(127.246094 0)"/>
      </g>
     </g>
    </g>
    <g id="ytick_6">
     <g id="line2d_12">
      <g>
       <use xlink:href="#m3761562a7c" x="64.251875" y="50.30578" style="stroke: #000000; stroke-width: 0.8"/>
      </g>
     </g>
     <g id="text_13">
      <!-- 500 -->
      <g transform="translate(28.620625 56.004608) scale(0.15 -0.15)">
       <use xlink:href="#DejaVuSans-35"/>
       <use xlink:href="#DejaVuSans-30" transform="translate(63.623047 0)"/>
       <use xlink:href="#DejaVuSans-30" transform="translate(127.246094 0)"/>
      </g>
     </g>
    </g>
    <g id="text_14">
     <!-- edoxaban plasma [nM] -->
     <g transform="translate(20.877187 297.59625) rotate(-90) scale(0.18 -0.18)">
      <defs>
       <path id="DejaVuSans-Bold-64" d="M 2919 2988 
L 2919 4863 
L 4044 4863 
L 4044 0 
L 2919 0 
L 2919 506 
Q 2688 197 2409 53 
Q 2131 -91 1766 -91 
Q 1119 -91 703 423 
Q 288 938 288 1747 
Q 288 2556 703 3070 
Q 1119 3584 1766 3584 
Q 2128 3584 2408 3439 
Q 2688 3294 2919 2988 
z
M 2181 722 
Q 2541 722 2730 984 
Q 2919 1247 2919 1747 
Q 2919 2247 2730 2509 
Q 2541 2772 2181 2772 
Q 1825 2772 1636 2509 
Q 1447 2247 1447 1747 
Q 1447 1247 1636 984 
Q 1825 722 2181 722 
z
" transform="scale(0.015625)"/>
       <path id="DejaVuSans-Bold-6f" d="M 2203 2784 
Q 1831 2784 1636 2517 
Q 1441 2250 1441 1747 
Q 1441 1244 1636 976 
Q 1831 709 2203 709 
Q 2569 709 2762 976 
Q 2956 1244 2956 1747 
Q 2956 2250 2762 2517 
Q 2569 2784 2203 2784 
z
M 2203 3584 
Q 3106 3584 3614 3096 
Q 4122 2609 4122 1747 
Q 4122 884 3614 396 
Q 3106 -91 2203 -91 
Q 1297 -91 786 396 
Q 275 884 275 1747 
Q 275 2609 786 3096 
Q 1297 3584 2203 3584 
z
" transform="scale(0.015625)"/>
       <path id="DejaVuSans-Bold-78" d="M 1422 1791 
L 159 3500 
L 1344 3500 
L 2059 2463 
L 2784 3500 
L 3969 3500 
L 2706 1797 
L 4031 0 
L 2847 0 
L 2059 1106 
L 1281 0 
L 97 0 
L 1422 1791 
z
" transform="scale(0.015625)"/>
       <path id="DejaVuSans-Bold-61" d="M 2106 1575 
Q 1756 1575 1579 1456 
Q 1403 1338 1403 1106 
Q 1403 894 1545 773 
Q 1688 653 1941 653 
Q 2256 653 2472 879 
Q 2688 1106 2688 1447 
L 2688 1575 
L 2106 1575 
z
M 3816 1997 
L 3816 0 
L 2688 0 
L 2688 519 
Q 2463 200 2181 54 
Q 1900 -91 1497 -91 
Q 953 -91 614 226 
Q 275 544 275 1050 
Q 275 1666 698 1953 
Q 1122 2241 2028 2241 
L 2688 2241 
L 2688 2328 
Q 2688 2594 2478 2717 
Q 2269 2841 1825 2841 
Q 1466 2841 1156 2769 
Q 847 2697 581 2553 
L 581 3406 
Q 941 3494 1303 3539 
Q 1666 3584 2028 3584 
Q 2975 3584 3395 3211 
Q 3816 2838 3816 1997 
z
" transform="scale(0.015625)"/>
       <path id="DejaVuSans-Bold-62" d="M 2400 722 
Q 2759 722 2948 984 
Q 3138 1247 3138 1747 
Q 3138 2247 2948 2509 
Q 2759 2772 2400 2772 
Q 2041 2772 1848 2508 
Q 1656 2244 1656 1747 
Q 1656 1250 1848 986 
Q 2041 722 2400 722 
z
M 1656 2988 
Q 1888 3294 2169 3439 
Q 2450 3584 2816 3584 
Q 3463 3584 3878 3070 
Q 4294 2556 4294 1747 
Q 4294 938 3878 423 
Q 3463 -91 2816 -91 
Q 2450 -91 2169 54 
Q 1888 200 1656 506 
L 1656 0 
L 538 0 
L 538 4863 
L 1656 4863 
L 1656 2988 
z
" transform="scale(0.015625)"/>
       <path id="DejaVuSans-Bold-6e" d="M 4056 2131 
L 4056 0 
L 2931 0 
L 2931 347 
L 2931 1631 
Q 2931 2084 2911 2256 
Q 2891 2428 2841 2509 
Q 2775 2619 2662 2680 
Q 2550 2741 2406 2741 
Q 2056 2741 1856 2470 
Q 1656 2200 1656 1722 
L 1656 0 
L 538 0 
L 538 3500 
L 1656 3500 
L 1656 2988 
Q 1909 3294 2193 3439 
Q 2478 3584 2822 3584 
Q 3428 3584 3742 3212 
Q 4056 2841 4056 2131 
z
" transform="scale(0.015625)"/>
       <path id="DejaVuSans-Bold-70" d="M 1656 506 
L 1656 -1331 
L 538 -1331 
L 538 3500 
L 1656 3500 
L 1656 2988 
Q 1888 3294 2169 3439 
Q 2450 3584 2816 3584 
Q 3463 3584 3878 3070 
Q 4294 2556 4294 1747 
Q 4294 938 3878 423 
Q 3463 -91 2816 -91 
Q 2450 -91 2169 54 
Q 1888 200 1656 506 
z
M 2400 2772 
Q 2041 2772 1848 2508 
Q 1656 2244 1656 1747 
Q 1656 1250 1848 986 
Q 2041 722 2400 722 
Q 2759 722 2948 984 
Q 3138 1247 3138 1747 
Q 3138 2247 2948 2509 
Q 2759 2772 2400 2772 
z
" transform="scale(0.015625)"/>
       <path id="DejaVuSans-Bold-6c" d="M 538 4863 
L 1656 4863 
L 1656 0 
L 538 0 
L 538 4863 
z
" transform="scale(0.015625)"/>
       <path id="DejaVuSans-Bold-73" d="M 3272 3391 
L 3272 2541 
Q 2913 2691 2578 2766 
Q 2244 2841 1947 2841 
Q 1628 2841 1473 2761 
Q 1319 2681 1319 2516 
Q 1319 2381 1436 2309 
Q 1553 2238 1856 2203 
L 2053 2175 
Q 2913 2066 3209 1816 
Q 3506 1566 3506 1031 
Q 3506 472 3093 190 
Q 2681 -91 1863 -91 
Q 1516 -91 1145 -36 
Q 775 19 384 128 
L 384 978 
Q 719 816 1070 734 
Q 1422 653 1784 653 
Q 2113 653 2278 743 
Q 2444 834 2444 1013 
Q 2444 1163 2330 1236 
Q 2216 1309 1875 1350 
L 1678 1375 
Q 931 1469 631 1722 
Q 331 1975 331 2491 
Q 331 3047 712 3315 
Q 1094 3584 1881 3584 
Q 2191 3584 2531 3537 
Q 2872 3491 3272 3391 
z
" transform="scale(0.015625)"/>
       <path id="DejaVuSans-Bold-4d" d="M 588 4666 
L 2119 4666 
L 3181 2169 
L 4250 4666 
L 5778 4666 
L 5778 0 
L 4641 0 
L 4641 3413 
L 3566 897 
L 2803 897 
L 1728 3413 
L 1728 0 
L 588 0 
L 588 4666 
z
" transform="scale(0.015625)"/>
      </defs>
      <use xlink:href="#DejaVuSans-Bold-65"/>
      <use xlink:href="#DejaVuSans-Bold-64" transform="translate(67.822266 0)"/>
      <use xlink:href="#DejaVuSans-Bold-6f" transform="translate(139.404297 0)"/>
      <use xlink:href="#DejaVuSans-Bold-78" transform="translate(208.105469 0)"/>
      <use xlink:href="#DejaVuSans-Bold-61" transform="translate(272.607422 0)"/>
      <use xlink:href="#DejaVuSans-Bold-62" transform="translate(340.087891 0)"/>
      <use xlink:href="#DejaVuSans-Bold-61" transform="translate(411.669922 0)"/>
      <use xlink:href="#DejaVuSans-Bold-6e" transform="translate(479.150391 0)"/>
      <use xlink:href="#DejaVuSans-Bold-20" transform="translate(550.341797 0)"/>
      <use xlink:href="#DejaVuSans-Bold-70" transform="translate(585.15625 0)"/>
      <use xlink:href="#DejaVuSans-Bold-6c" transform="translate(656.738281 0)"/>
      <use xlink:href="#DejaVuSans-Bold-61" transform="translate(691.015625 0)"/>
      <use xlink:href="#DejaVuSans-Bold-73" transform="translate(758.496094 0)"/>
      <use xlink:href="#DejaVuSans-Bold-6d" transform="translate(818.017578 0)"/>
      <use xlink:href="#DejaVuSans-Bold-61" transform="translate(922.216797 0)"/>
      <use xlink:href="#DejaVuSans-Bold-20" transform="translate(989.697266 0)"/>
      <use xlink:href="#DejaVuSans-Bold-5b" transform="translate(1024.511719 0)"/>
      <use xlink:href="#DejaVuSans-Bold-6e" transform="translate(1070.214844 0)"/>
      <use xlink:href="#DejaVuSans-Bold-4d" transform="translate(1141.40625 0)"/>
      <use xlink:href="#DejaVuSans-Bold-5d" transform="translate(1240.917969 0)"/>
     </g>
    </g>
   </g>
   <g id="line2d_13">
    <path d="M 79.69061 307.8 
L 80.30816 305.517907 
L 80.925709 298.197449 
L 82.160808 275.005385 
L 85.248555 208.463557 
L 86.483654 185.704921 
L 87.718752 166.202507 
L 88.953851 149.890272 
L 90.18895 136.527707 
L 91.424049 125.812402 
L 92.659148 117.433411 
L 93.894247 111.095286 
L 95.129345 106.527747 
L 95.746895 104.831112 
L 96.364444 103.488408 
L 96.981994 102.473612 
L 97.599543 101.762302 
L 98.217092 101.331581 
L 98.834642 101.16 
L 99.452191 101.227481 
L 100.069741 101.515239 
L 100.68729 102.005707 
L 101.304839 102.682467 
L 102.539938 104.534501 
L 103.775037 106.960379 
L 105.010136 109.86342 
L 106.862784 114.931691 
L 108.715432 120.64805 
L 111.18563 128.95035 
L 115.508476 144.420237 
L 122.301519 168.765669 
L 126.006816 181.301216 
L 129.712112 193.059749 
L 132.799859 202.206601 
L 135.887606 210.744998 
L 138.975353 218.680138 
L 142.0631 226.029526 
L 145.150847 232.818445 
L 148.238594 239.076752 
L 151.326341 244.836648 
L 154.414088 250.131147 
L 157.501835 254.993027 
L 160.589583 259.454151 
L 163.67733 263.545027 
L 166.765077 267.294558 
L 169.852824 270.729899 
L 172.940571 273.876419 
L 176.645867 277.304083 
L 180.351164 280.387192 
L 184.05646 283.159812 
L 187.761756 285.652825 
L 191.467053 287.894165 
L 195.789899 290.224492 
L 200.112745 292.282342 
L 204.43559 294.099455 
L 209.375986 295.917254 
L 214.316381 297.49397 
L 219.874326 299.019197 
L 225.43227 300.318742 
L 231.607764 301.538417 
L 238.400808 302.651707 
L 245.811401 303.641736 
L 254.457092 304.558833 
L 263.720333 305.318233 
L 274.836223 305.998508 
L 287.80476 306.560304 
L 303.861045 307.019539 
L 324.240175 307.366209 
L 352.647448 307.608694 
L 388.465314 307.731857 
L 388.465314 307.731857 
" clip-path="url(#pe5f4f86e01)" style="fill: none; stroke: #000000; stroke-width: 2; stroke-linecap: square"/>
   </g>
   <g id="line2d_14">
    <path d="M 79.69061 307.8 
L 85.866104 134.714541 
L 92.041598 79.462505 
L 98.217092 91.959989 
L 104.392586 100.792797 
L 110.568081 131.143831 
L 116.743575 152.56809 
L 122.919069 159.709509 
L 129.094563 181.133768 
L 135.270057 190.060542 
L 141.445551 198.987317 
L 153.796539 211.484801 
L 178.498515 239.956514 
L 227.902468 273.878257 
L 277.30642 288.161096 
L 376.114326 307.8 
" clip-path="url(#pe5f4f86e01)" style="fill: none; stroke-dasharray: 3.7,1.6; stroke-dashoffset: 0; stroke: #000000"/>
    <defs>
     <path id="m4118f97805" d="M -3 3 
L 3 3 
L 3 -3 
L -3 -3 
z
" style="stroke: #000000; stroke-linejoin: miter"/>
    </defs>
    <g clip-path="url(#pe5f4f86e01)">
     <use xlink:href="#m4118f97805" x="79.69061" y="307.8" style="stroke: #000000; stroke-linejoin: miter"/>
     <use xlink:href="#m4118f97805" x="85.866104" y="134.714541" style="stroke: #000000; stroke-linejoin: miter"/>
     <use xlink:href="#m4118f97805" x="92.041598" y="79.462505" style="stroke: #000000; stroke-linejoin: miter"/>
     <use xlink:href="#m4118f97805" x="98.217092" y="91.959989" style="stroke: #000000; stroke-linejoin: miter"/>
     <use xlink:href="#m4118f97805" x="104.392586" y="100.792797" style="stroke: #000000; stroke-linejoin: miter"/>
     <use xlink:href="#m4118f97805" x="110.568081" y="131.143831" style="stroke: #000000; stroke-linejoin: miter"/>
     <use xlink:href="#m4118f97805" x="116.743575" y="152.56809" style="stroke: #000000; stroke-linejoin: miter"/>
     <use xlink:href="#m4118f97805" x="122.919069" y="159.709509" style="stroke: #000000; stroke-linejoin: miter"/>
     <use xlink:href="#m4118f97805" x="129.094563" y="181.133768" style="stroke: #000000; stroke-linejoin: miter"/>
     <use xlink:href="#m4118f97805" x="135.270057" y="190.060542" style="stroke: #000000; stroke-linejoin: miter"/>
     <use xlink:href="#m4118f97805" x="141.445551" y="198.987317" style="stroke: #000000; stroke-linejoin: miter"/>
     <use xlink:href="#m4118f97805" x="153.796539" y="211.484801" style="stroke: #000000; stroke-linejoin: miter"/>
     <use xlink:href="#m4118f97805" x="178.498515" y="239.956514" style="stroke: #000000; stroke-linejoin: miter"/>
     <use xlink:href="#m4118f97805" x="227.902468" y="273.878257" style="stroke: #000000; stroke-linejoin: miter"/>
     <use xlink:href="#m4118f97805" x="277.30642" y="288.161096" style="stroke: #000000; stroke-linejoin: miter"/>
     <use xlink:href="#m4118f97805" x="376.114326" y="307.8" style="stroke: #000000; stroke-linejoin: miter"/>
    </g>
   </g>
   <g id="line2d_15">
    <path d="M 79.69061 307.8 
L 80.30816 305.01696 
L 80.925709 296.089571 
L 82.160808 267.806567 
L 85.248555 186.657996 
L 86.483654 158.903562 
L 87.718752 135.12013 
L 88.953851 115.227161 
L 90.18895 98.93135 
L 91.424049 85.863906 
L 92.659148 75.645623 
L 93.894247 67.916203 
L 95.129345 62.346033 
L 95.746895 60.276966 
L 96.364444 58.639522 
L 96.981994 57.401966 
L 97.599543 56.534515 
L 98.217092 56.009245 
L 98.834642 55.8 
L 99.452191 55.882294 
L 100.069741 56.233218 
L 100.68729 56.83135 
L 101.304839 57.656667 
L 102.539938 59.915245 
L 103.775037 62.873633 
L 105.010136 66.413927 
L 106.862784 72.594745 
L 108.715432 79.565914 
L 111.18563 89.69067 
L 115.508476 108.556387 
L 122.301519 138.245939 
L 126.006816 153.53319 
L 129.712112 167.872865 
L 132.799859 179.027562 
L 135.887606 189.440241 
L 138.975353 199.117241 
L 142.0631 208.07991 
L 145.150847 216.35908 
L 148.238594 223.991161 
L 151.326341 231.015425 
L 154.414088 237.47213 
L 157.501835 243.401252 
L 160.589583 248.841647 
L 163.67733 253.830521 
L 166.765077 258.403119 
L 169.852824 262.59256 
L 172.940571 266.429779 
L 176.028318 269.943539 
L 179.116065 273.16049 
L 182.203812 276.105257 
L 185.909108 279.311533 
L 189.614405 282.194289 
L 193.319701 284.785903 
L 197.024998 287.1156 
L 200.730294 289.209726 
L 205.05314 291.386672 
L 209.375986 293.308847 
L 213.698832 295.006013 
L 218.639227 296.70371 
L 223.579622 298.176179 
L 229.137567 299.600513 
L 235.313061 300.937294 
L 242.106104 302.15747 
L 249.516697 303.242546 
L 257.544839 304.183896 
L 266.808081 305.031144 
L 277.30642 305.754022 
L 289.657409 306.366779 
L 304.478594 306.865008 
L 323.005077 307.251817 
L 347.707053 307.531001 
L 384.760017 307.707533 
L 388.465314 307.716898 
L 388.465314 307.716898 
" clip-path="url(#pe5f4f86e01)" style="fill: none; stroke: #1f77b4; stroke-width: 2; stroke-linecap: square"/>
   </g>
   <g id="line2d_16">
    <path d="M 79.69061 307.8 
L 85.866104 263.166127 
L 92.041598 140.070605 
L 98.217092 116.860991 
L 104.392586 58.038246 
L 110.568081 74.10644 
L 116.743575 88.389279 
L 122.919069 104.363507 
L 129.094563 120.431701 
L 135.270057 134.714541 
L 141.445551 150.782735 
L 153.796539 188.275188 
L 178.498515 227.552995 
L 227.902468 270.307547 
L 277.30642 288.161096 
L 376.114326 307.8 
" clip-path="url(#pe5f4f86e01)" style="fill: none; stroke-dasharray: 3.7,1.6; stroke-dashoffset: 0; stroke: #1f77b4"/>
    <defs>
     <path id="md00144d7b7" d="M -3 3 
L 3 3 
L 3 -3 
L -3 -3 
z
" style="stroke: #000000; stroke-linejoin: miter"/>
    </defs>
    <g clip-path="url(#pe5f4f86e01)">
     <use xlink:href="#md00144d7b7" x="79.69061" y="307.8" style="fill: #1f77b4; stroke: #000000; stroke-linejoin: miter"/>
     <use xlink:href="#md00144d7b7" x="85.866104" y="263.166127" style="fill: #1f77b4; stroke: #000000; stroke-linejoin: miter"/>
     <use xlink:href="#md00144d7b7" x="92.041598" y="140.070605" style="fill: #1f77b4; stroke: #000000; stroke-linejoin: miter"/>
     <use xlink:href="#md00144d7b7" x="98.217092" y="116.860991" style="fill: #1f77b4; stroke: #000000; stroke-linejoin: miter"/>
     <use xlink:href="#md00144d7b7" x="104.392586" y="58.038246" style="fill: #1f77b4; stroke: #000000; stroke-linejoin: miter"/>
     <use xlink:href="#md00144d7b7" x="110.568081" y="74.10644" style="fill: #1f77b4; stroke: #000000; stroke-linejoin: miter"/>
     <use xlink:href="#md00144d7b7" x="116.743575" y="88.389279" style="fill: #1f77b4; stroke: #000000; stroke-linejoin: miter"/>
     <use xlink:href="#md00144d7b7" x="122.919069" y="104.363507" style="fill: #1f77b4; stroke: #000000; stroke-linejoin: miter"/>
     <use xlink:href="#md00144d7b7" x="129.094563" y="120.431701" style="fill: #1f77b4; stroke: #000000; stroke-linejoin: miter"/>
     <use xlink:href="#md00144d7b7" x="135.270057" y="134.714541" style="fill: #1f77b4; stroke: #000000; stroke-linejoin: miter"/>
     <use xlink:href="#md00144d7b7" x="141.445551" y="150.782735" style="fill: #1f77b4; stroke: #000000; stroke-linejoin: miter"/>
     <use xlink:href="#md00144d7b7" x="153.796539" y="188.275188" style="fill: #1f77b4; stroke: #000000; stroke-linejoin: miter"/>
     <use xlink:href="#md00144d7b7" x="178.498515" y="227.552995" style="fill: #1f77b4; stroke: #000000; stroke-linejoin: miter"/>
     <use xlink:href="#md00144d7b7" x="227.902468" y="270.307547" style="fill: #1f77b4; stroke: #000000; stroke-linejoin: miter"/>
     <use xlink:href="#md00144d7b7" x="277.30642" y="288.161096" style="fill: #1f77b4; stroke: #000000; stroke-linejoin: miter"/>
     <use xlink:href="#md00144d7b7" x="376.114326" y="307.8" style="fill: #1f77b4; stroke: #000000; stroke-linejoin: miter"/>
    </g>
   </g>
   <g id="patch_3">
    <path d="M 64.251875 320.4 
L 64.251875 43.2 
" style="fill: none; stroke: #000000; stroke-width: 0.8; stroke-linejoin: miter; stroke-linecap: square"/>
   </g>
   <g id="patch_4">
    <path d="M 403.904049 320.4 
L 403.904049 43.2 
" style="fill: none; stroke: #000000; stroke-width: 0.8; stroke-linejoin: miter; stroke-linecap: square"/>
   </g>
   <g id="patch_5">
    <path d="M 64.251875 320.4 
L 403.904049 320.4 
" style="fill: none; stroke: #000000; stroke-width: 0.8; stroke-linejoin: miter; stroke-linecap: square"/>
   </g>
   <g id="patch_6">
    <path d="M 64.251875 43.2 
L 403.904049 43.2 
" style="fill: none; stroke: #000000; stroke-width: 0.8; stroke-linejoin: miter; stroke-linecap: square"/>
   </g>
   <g id="legend_1">
    <g id="patch_7">
     <path d="M 306.383736 109.9125 
L 396.904049 109.9125 
Q 398.904049 109.9125 398.904049 107.9125 
L 398.904049 50.2 
Q 398.904049 48.2 396.904049 48.2 
L 306.383736 48.2 
Q 304.383736 48.2 304.383736 50.2 
L 304.383736 107.9125 
Q 304.383736 109.9125 306.383736 109.9125 
z
" style="fill: #ffffff; opacity: 0.8; stroke: #cccccc; stroke-linejoin: miter"/>
    </g>
    <g id="line2d_17">
     <path d="M 308.383736 56.298437 
L 328.383736 56.298437 
" style="fill: none; stroke: #000000; stroke-width: 2; stroke-linecap: square"/>
    </g>
    <g id="line2d_18"/>
    <g id="text_15">
     <!-- Fast -->
     <g transform="translate(336.383736 59.798437) scale(0.1 -0.1)">
      <defs>
       <path id="DejaVuSans-46" d="M 628 4666 
L 3309 4666 
L 3309 4134 
L 1259 4134 
L 1259 2759 
L 3109 2759 
L 3109 2228 
L 1259 2228 
L 1259 0 
L 628 0 
L 628 4666 
z
" transform="scale(0.015625)"/>
       <path id="DejaVuSans-61" d="M 2194 1759 
Q 1497 1759 1228 1600 
Q 959 1441 959 1056 
Q 959 750 1161 570 
Q 1363 391 1709 391 
Q 2188 391 2477 730 
Q 2766 1069 2766 1631 
L 2766 1759 
L 2194 1759 
z
M 3341 1997 
L 3341 0 
L 2766 0 
L 2766 531 
Q 2569 213 2275 61 
Q 1981 -91 1556 -91 
Q 1019 -91 701 211 
Q 384 513 384 1019 
Q 384 1609 779 1909 
Q 1175 2209 1959 2209 
L 2766 2209 
L 2766 2266 
Q 2766 2663 2505 2880 
Q 2244 3097 1772 3097 
Q 1472 3097 1187 3025 
Q 903 2953 641 2809 
L 641 3341 
Q 956 3463 1253 3523 
Q 1550 3584 1831 3584 
Q 2591 3584 2966 3190 
Q 3341 2797 3341 1997 
z
" transform="scale(0.015625)"/>
       <path id="DejaVuSans-73" d="M 2834 3397 
L 2834 2853 
Q 2591 2978 2328 3040 
Q 2066 3103 1784 3103 
Q 1356 3103 1142 2972 
Q 928 2841 928 2578 
Q 928 2378 1081 2264 
Q 1234 2150 1697 2047 
L 1894 2003 
Q 2506 1872 2764 1633 
Q 3022 1394 3022 966 
Q 3022 478 2636 193 
Q 2250 -91 1575 -91 
Q 1294 -91 989 -36 
Q 684 19 347 128 
L 347 722 
Q 666 556 975 473 
Q 1284 391 1588 391 
Q 1994 391 2212 530 
Q 2431 669 2431 922 
Q 2431 1156 2273 1281 
Q 2116 1406 1581 1522 
L 1381 1569 
Q 847 1681 609 1914 
Q 372 2147 372 2553 
Q 372 3047 722 3315 
Q 1072 3584 1716 3584 
Q 2034 3584 2315 3537 
Q 2597 3491 2834 3397 
z
" transform="scale(0.015625)"/>
       <path id="DejaVuSans-74" d="M 1172 4494 
L 1172 3500 
L 2356 3500 
L 2356 3053 
L 1172 3053 
L 1172 1153 
Q 1172 725 1289 603 
Q 1406 481 1766 481 
L 2356 481 
L 2356 0 
L 1766 0 
Q 1100 0 847 248 
Q 594 497 594 1153 
L 594 3053 
L 172 3053 
L 172 3500 
L 594 3500 
L 594 4494 
L 1172 4494 
z
" transform="scale(0.015625)"/>
      </defs>
      <use xlink:href="#DejaVuSans-46"/>
      <use xlink:href="#DejaVuSans-61" transform="translate(48.394531 0)"/>
      <use xlink:href="#DejaVuSans-73" transform="translate(109.673828 0)"/>
      <use xlink:href="#DejaVuSans-74" transform="translate(161.773438 0)"/>
     </g>
    </g>
    <g id="line2d_19">
     <path d="M 308.383736 70.976562 
L 328.383736 70.976562 
" style="fill: none; stroke-dasharray: 3.7,1.6; stroke-dashoffset: 0; stroke: #000000"/>
    </g>
    <g id="line2d_20">
     <g>
      <use xlink:href="#m4118f97805" x="318.383736" y="70.976562" style="stroke: #000000; stroke-linejoin: miter"/>
     </g>
    </g>
    <g id="text_16">
     <!-- Fast (n=16) -->
     <g transform="translate(336.383736 74.476562) scale(0.1 -0.1)">
      <defs>
       <path id="DejaVuSans-20" transform="scale(0.015625)"/>
       <path id="DejaVuSans-28" d="M 1984 4856 
Q 1566 4138 1362 3434 
Q 1159 2731 1159 2009 
Q 1159 1288 1364 580 
Q 1569 -128 1984 -844 
L 1484 -844 
Q 1016 -109 783 600 
Q 550 1309 550 2009 
Q 550 2706 781 3412 
Q 1013 4119 1484 4856 
L 1984 4856 
z
" transform="scale(0.015625)"/>
       <path id="DejaVuSans-6e" d="M 3513 2113 
L 3513 0 
L 2938 0 
L 2938 2094 
Q 2938 2591 2744 2837 
Q 2550 3084 2163 3084 
Q 1697 3084 1428 2787 
Q 1159 2491 1159 1978 
L 1159 0 
L 581 0 
L 581 3500 
L 1159 3500 
L 1159 2956 
Q 1366 3272 1645 3428 
Q 1925 3584 2291 3584 
Q 2894 3584 3203 3211 
Q 3513 2838 3513 2113 
z
" transform="scale(0.015625)"/>
       <path id="DejaVuSans-3d" d="M 678 2906 
L 4684 2906 
L 4684 2381 
L 678 2381 
L 678 2906 
z
M 678 1631 
L 4684 1631 
L 4684 1100 
L 678 1100 
L 678 1631 
z
" transform="scale(0.015625)"/>
       <path id="DejaVuSans-36" d="M 2113 2584 
Q 1688 2584 1439 2293 
Q 1191 2003 1191 1497 
Q 1191 994 1439 701 
Q 1688 409 2113 409 
Q 2538 409 2786 701 
Q 3034 994 3034 1497 
Q 3034 2003 2786 2293 
Q 2538 2584 2113 2584 
z
M 3366 4563 
L 3366 3988 
Q 3128 4100 2886 4159 
Q 2644 4219 2406 4219 
Q 1781 4219 1451 3797 
Q 1122 3375 1075 2522 
Q 1259 2794 1537 2939 
Q 1816 3084 2150 3084 
Q 2853 3084 3261 2657 
Q 3669 2231 3669 1497 
Q 3669 778 3244 343 
Q 2819 -91 2113 -91 
Q 1303 -91 875 529 
Q 447 1150 447 2328 
Q 447 3434 972 4092 
Q 1497 4750 2381 4750 
Q 2619 4750 2861 4703 
Q 3103 4656 3366 4563 
z
" transform="scale(0.015625)"/>
       <path id="DejaVuSans-29" d="M 513 4856 
L 1013 4856 
Q 1481 4119 1714 3412 
Q 1947 2706 1947 2009 
Q 1947 1309 1714 600 
Q 1481 -109 1013 -844 
L 513 -844 
Q 928 -128 1133 580 
Q 1338 1288 1338 2009 
Q 1338 2731 1133 3434 
Q 928 4138 513 4856 
z
" transform="scale(0.015625)"/>
      </defs>
      <use xlink:href="#DejaVuSans-46"/>
      <use xlink:href="#DejaVuSans-61" transform="translate(48.394531 0)"/>
      <use xlink:href="#DejaVuSans-73" transform="translate(109.673828 0)"/>
      <use xlink:href="#DejaVuSans-74" transform="translate(161.773438 0)"/>
      <use xlink:href="#DejaVuSans-20" transform="translate(200.982422 0)"/>
      <use xlink:href="#DejaVuSans-28" transform="translate(232.769531 0)"/>
      <use xlink:href="#DejaVuSans-6e" transform="translate(271.783203 0)"/>
      <use xlink:href="#DejaVuSans-3d" transform="translate(335.162109 0)"/>
      <use xlink:href="#DejaVuSans-31" transform="translate(418.951172 0)"/>
      <use xlink:href="#DejaVuSans-36" transform="translate(482.574219 0)"/>
      <use xlink:href="#DejaVuSans-29" transform="translate(546.197266 0)"/>
     </g>
    </g>
    <g id="line2d_21">
     <path d="M 308.383736 85.654687 
L 328.383736 85.654687 
" style="fill: none; stroke: #1f77b4; stroke-width: 2; stroke-linecap: square"/>
    </g>
    <g id="line2d_22"/>
    <g id="text_17">
     <!-- Fed -->
     <g transform="translate(336.383736 89.154687) scale(0.1 -0.1)">
      <defs>
       <path id="DejaVuSans-65" d="M 3597 1894 
L 3597 1613 
L 953 1613 
Q 991 1019 1311 708 
Q 1631 397 2203 397 
Q 2534 397 2845 478 
Q 3156 559 3463 722 
L 3463 178 
Q 3153 47 2828 -22 
Q 2503 -91 2169 -91 
Q 1331 -91 842 396 
Q 353 884 353 1716 
Q 353 2575 817 3079 
Q 1281 3584 2069 3584 
Q 2775 3584 3186 3129 
Q 3597 2675 3597 1894 
z
M 3022 2063 
Q 3016 2534 2758 2815 
Q 2500 3097 2075 3097 
Q 1594 3097 1305 2825 
Q 1016 2553 972 2059 
L 3022 2063 
z
" transform="scale(0.015625)"/>
       <path id="DejaVuSans-64" d="M 2906 2969 
L 2906 4863 
L 3481 4863 
L 3481 0 
L 2906 0 
L 2906 525 
Q 2725 213 2448 61 
Q 2172 -91 1784 -91 
Q 1150 -91 751 415 
Q 353 922 353 1747 
Q 353 2572 751 3078 
Q 1150 3584 1784 3584 
Q 2172 3584 2448 3432 
Q 2725 3281 2906 2969 
z
M 947 1747 
Q 947 1113 1208 752 
Q 1469 391 1925 391 
Q 2381 391 2643 752 
Q 2906 1113 2906 1747 
Q 2906 2381 2643 2742 
Q 2381 3103 1925 3103 
Q 1469 3103 1208 2742 
Q 947 2381 947 1747 
z
" transform="scale(0.015625)"/>
      </defs>
      <use xlink:href="#DejaVuSans-46"/>
      <use xlink:href="#DejaVuSans-65" transform="translate(52.019531 0)"/>
      <use xlink:href="#DejaVuSans-64" transform="translate(113.542969 0)"/>
     </g>
    </g>
    <g id="line2d_23">
     <path d="M 308.383736 100.332812 
L 328.383736 100.332812 
" style="fill: none; stroke-dasharray: 3.7,1.6; stroke-dashoffset: 0; stroke: #1f77b4"/>
    </g>
    <g id="line2d_24">
     <g>
      <use xlink:href="#md00144d7b7" x="318.383736" y="100.332812" style="fill: #1f77b4; stroke: #000000; stroke-linejoin: miter"/>
     </g>
    </g>
    <g id="text_18">
     <!-- Fed (n=16) -->
     <g transform="translate(336.383736 103.832812) scale(0.1 -0.1)">
      <use xlink:href="#DejaVuSans-46"/>
      <use xlink:href="#DejaVuSans-65" transform="translate(52.019531 0)"/>
      <use xlink:href="#DejaVuSans-64" transform="translate(113.542969 0)"/>
      <use xlink:href="#DejaVuSans-20" transform="translate(177.019531 0)"/>
      <use xlink:href="#DejaVuSans-28" transform="translate(208.806641 0)"/>
      <use xlink:href="#DejaVuSans-6e" transform="translate(247.820312 0)"/>
      <use xlink:href="#DejaVuSans-3d" transform="translate(311.199219 0)"/>
      <use xlink:href="#DejaVuSans-31" transform="translate(394.988281 0)"/>
      <use xlink:href="#DejaVuSans-36" transform="translate(458.611328 0)"/>
      <use xlink:href="#DejaVuSans-29" transform="translate(522.234375 0)"/>
     </g>
    </g>
   </g>
  </g>
  <g id="axes_2">
   <g id="patch_8">
    <path d="M 505.799701 320.4 
L 845.451875 320.4 
L 845.451875 43.2 
L 505.799701 43.2 
z
" style="fill: #ffffff"/>
   </g>
   <g id="matplotlib.axis_3">
    <g id="xtick_7">
     <g id="line2d_25">
      <g>
       <use xlink:href="#m652e16eaf4" x="521.238436" y="320.4" style="stroke: #000000; stroke-width: 0.8"/>
      </g>
     </g>
     <g id="text_19">
      <!-- 0 -->
      <g transform="translate(516.466561 338.797656) scale(0.15 -0.15)">
       <use xlink:href="#DejaVuSans-30"/>
      </g>
     </g>
    </g>
    <g id="xtick_8">
     <g id="line2d_26">
      <g>
       <use xlink:href="#m652e16eaf4" x="582.993377" y="320.4" style="stroke: #000000; stroke-width: 0.8"/>
      </g>
     </g>
     <g id="text_20">
      <!-- 5 -->
      <g transform="translate(578.221502 338.797656) scale(0.15 -0.15)">
       <use xlink:href="#DejaVuSans-35"/>
      </g>
     </g>
    </g>
    <g id="xtick_9">
     <g id="line2d_27">
      <g>
       <use xlink:href="#m652e16eaf4" x="644.748318" y="320.4" style="stroke: #000000; stroke-width: 0.8"/>
      </g>
     </g>
     <g id="text_21">
      <!-- 10 -->
      <g transform="translate(635.204568 338.797656) scale(0.15 -0.15)">
       <use xlink:href="#DejaVuSans-31"/>
       <use xlink:href="#DejaVuSans-30" transform="translate(63.623047 0)"/>
      </g>
     </g>
    </g>
    <g id="xtick_10">
     <g id="line2d_28">
      <g>
       <use xlink:href="#m652e16eaf4" x="706.503258" y="320.4" style="stroke: #000000; stroke-width: 0.8"/>
      </g>
     </g>
     <g id="text_22">
      <!-- 15 -->
      <g transform="translate(696.959508 338.797656) scale(0.15 -0.15)">
       <use xlink:href="#DejaVuSans-31"/>
       <use xlink:href="#DejaVuSans-35" transform="translate(63.623047 0)"/>
      </g>
     </g>
    </g>
    <g id="xtick_11">
     <g id="line2d_29">
      <g>
       <use xlink:href="#m652e16eaf4" x="768.258199" y="320.4" style="stroke: #000000; stroke-width: 0.8"/>
      </g>
     </g>
     <g id="text_23">
      <!-- 20 -->
      <g transform="translate(758.714449 338.797656) scale(0.15 -0.15)">
       <use xlink:href="#DejaVuSans-32"/>
       <use xlink:href="#DejaVuSans-30" transform="translate(63.623047 0)"/>
      </g>
     </g>
    </g>
    <g id="xtick_12">
     <g id="line2d_30">
      <g>
       <use xlink:href="#m652e16eaf4" x="830.01314" y="320.4" style="stroke: #000000; stroke-width: 0.8"/>
      </g>
     </g>
     <g id="text_24">
      <!-- 25 -->
      <g transform="translate(820.46939 338.797656) scale(0.15 -0.15)">
       <use xlink:href="#DejaVuSans-32"/>
       <use xlink:href="#DejaVuSans-35" transform="translate(63.623047 0)"/>
      </g>
     </g>
    </g>
    <g id="text_25">
     <!-- time [hr] -->
     <g transform="translate(630.551257 359.594375) scale(0.18 -0.18)">
      <use xlink:href="#DejaVuSans-Bold-74"/>
      <use xlink:href="#DejaVuSans-Bold-69" transform="translate(47.802734 0)"/>
      <use xlink:href="#DejaVuSans-Bold-6d" transform="translate(82.080078 0)"/>
      <use xlink:href="#DejaVuSans-Bold-65" transform="translate(186.279297 0)"/>
      <use xlink:href="#DejaVuSans-Bold-20" transform="translate(254.101562 0)"/>
      <use xlink:href="#DejaVuSans-Bold-5b" transform="translate(288.916016 0)"/>
      <use xlink:href="#DejaVuSans-Bold-68" transform="translate(334.619141 0)"/>
      <use xlink:href="#DejaVuSans-Bold-72" transform="translate(405.810547 0)"/>
      <use xlink:href="#DejaVuSans-Bold-5d" transform="translate(455.126953 0)"/>
     </g>
    </g>
   </g>
   <g id="matplotlib.axis_4">
    <g id="ytick_7">
     <g id="line2d_31">
      <g>
       <use xlink:href="#m3761562a7c" x="505.799701" y="307.8" style="stroke: #000000; stroke-width: 0.8"/>
      </g>
     </g>
     <g id="text_26">
      <!-- 0 -->
      <g transform="translate(489.255951 313.498828) scale(0.15 -0.15)">
       <use xlink:href="#DejaVuSans-30"/>
      </g>
     </g>
    </g>
    <g id="ytick_8">
     <g id="line2d_32">
      <g>
       <use xlink:href="#m3761562a7c" x="505.799701" y="269.400741" style="stroke: #000000; stroke-width: 0.8"/>
      </g>
     </g>
     <g id="text_27">
      <!-- 10 -->
      <g transform="translate(479.712201 275.099569) scale(0.15 -0.15)">
       <use xlink:href="#DejaVuSans-31"/>
       <use xlink:href="#DejaVuSans-30" transform="translate(63.623047 0)"/>
      </g>
     </g>
    </g>
    <g id="ytick_9">
     <g id="line2d_33">
      <g>
       <use xlink:href="#m3761562a7c" x="505.799701" y="231.001481" style="stroke: #000000; stroke-width: 0.8"/>
      </g>
     </g>
     <g id="text_28">
      <!-- 20 -->
      <g transform="translate(479.712201 236.700309) scale(0.15 -0.15)">
       <use xlink:href="#DejaVuSans-32"/>
       <use xlink:href="#DejaVuSans-30" transform="translate(63.623047 0)"/>
      </g>
     </g>
    </g>
    <g id="ytick_10">
     <g id="line2d_34">
      <g>
       <use xlink:href="#m3761562a7c" x="505.799701" y="192.602222" style="stroke: #000000; stroke-width: 0.8"/>
      </g>
     </g>
     <g id="text_29">
      <!-- 30 -->
      <g transform="translate(479.712201 198.30105) scale(0.15 -0.15)">
       <use xlink:href="#DejaVuSans-33"/>
       <use xlink:href="#DejaVuSans-30" transform="translate(63.623047 0)"/>
      </g>
     </g>
    </g>
    <g id="ytick_11">
     <g id="line2d_35">
      <g>
       <use xlink:href="#m3761562a7c" x="505.799701" y="154.202963" style="stroke: #000000; stroke-width: 0.8"/>
      </g>
     </g>
     <g id="text_30">
      <!-- 40 -->
      <g transform="translate(479.712201 159.901791) scale(0.15 -0.15)">
       <use xlink:href="#DejaVuSans-34"/>
       <use xlink:href="#DejaVuSans-30" transform="translate(63.623047 0)"/>
      </g>
     </g>
    </g>
    <g id="ytick_12">
     <g id="line2d_36">
      <g>
       <use xlink:href="#m3761562a7c" x="505.799701" y="115.803703" style="stroke: #000000; stroke-width: 0.8"/>
      </g>
     </g>
     <g id="text_31">
      <!-- 50 -->
      <g transform="translate(479.712201 121.502532) scale(0.15 -0.15)">
       <use xlink:href="#DejaVuSans-35"/>
       <use xlink:href="#DejaVuSans-30" transform="translate(63.623047 0)"/>
      </g>
     </g>
    </g>
    <g id="ytick_13">
     <g id="line2d_37">
      <g>
       <use xlink:href="#m3761562a7c" x="505.799701" y="77.404444" style="stroke: #000000; stroke-width: 0.8"/>
      </g>
     </g>
     <g id="text_32">
      <!-- 60 -->
      <g transform="translate(479.712201 83.103272) scale(0.15 -0.15)">
       <use xlink:href="#DejaVuSans-36"/>
       <use xlink:href="#DejaVuSans-30" transform="translate(63.623047 0)"/>
      </g>
     </g>
    </g>
    <g id="text_33">
     <!-- edoxaban urine [µmole] -->
     <g transform="translate(471.949076 303.638906) rotate(-90) scale(0.18 -0.18)">
      <defs>
       <path id="DejaVuSans-Bold-75" d="M 500 1363 
L 500 3500 
L 1625 3500 
L 1625 3150 
Q 1625 2866 1622 2436 
Q 1619 2006 1619 1863 
Q 1619 1441 1641 1255 
Q 1663 1069 1716 984 
Q 1784 875 1895 815 
Q 2006 756 2150 756 
Q 2500 756 2700 1025 
Q 2900 1294 2900 1772 
L 2900 3500 
L 4019 3500 
L 4019 0 
L 2900 0 
L 2900 506 
Q 2647 200 2364 54 
Q 2081 -91 1741 -91 
Q 1134 -91 817 281 
Q 500 653 500 1363 
z
" transform="scale(0.015625)"/>
       <path id="DejaVuSans-Bold-b5" d="M 544 -1338 
L 544 3500 
L 1672 3500 
L 1672 1466 
Q 1672 1103 1828 926 
Q 1984 750 2303 750 
Q 2625 750 2781 926 
Q 2938 1103 2938 1466 
L 2938 3500 
L 4063 3500 
L 4063 1159 
Q 4063 938 4114 850 
Q 4166 763 4288 763 
Q 4344 763 4395 778 
Q 4447 794 4506 831 
L 4506 50 
Q 4341 -22 4195 -56 
Q 4050 -91 3909 -91 
Q 3631 -91 3454 26 
Q 3278 144 3169 403 
Q 3022 156 2811 32 
Q 2600 -91 2322 -91 
Q 2091 -91 1928 -17 
Q 1766 56 1672 206 
L 1672 -1338 
L 544 -1338 
z
" transform="scale(0.015625)"/>
      </defs>
      <use xlink:href="#DejaVuSans-Bold-65"/>
      <use xlink:href="#DejaVuSans-Bold-64" transform="translate(67.822266 0)"/>
      <use xlink:href="#DejaVuSans-Bold-6f" transform="translate(139.404297 0)"/>
      <use xlink:href="#DejaVuSans-Bold-78" transform="translate(208.105469 0)"/>
      <use xlink:href="#DejaVuSans-Bold-61" transform="translate(272.607422 0)"/>
      <use xlink:href="#DejaVuSans-Bold-62" transform="translate(340.087891 0)"/>
      <use xlink:href="#DejaVuSans-Bold-61" transform="translate(411.669922 0)"/>
      <use xlink:href="#DejaVuSans-Bold-6e" transform="translate(479.150391 0)"/>
      <use xlink:href="#DejaVuSans-Bold-20" transform="translate(550.341797 0)"/>
      <use xlink:href="#DejaVuSans-Bold-75" transform="translate(585.15625 0)"/>
      <use xlink:href="#DejaVuSans-Bold-72" transform="translate(656.347656 0)"/>
      <use xlink:href="#DejaVuSans-Bold-69" transform="translate(705.664062 0)"/>
      <use xlink:href="#DejaVuSans-Bold-6e" transform="translate(739.941406 0)"/>
      <use xlink:href="#DejaVuSans-Bold-65" transform="translate(811.132812 0)"/>
      <use xlink:href="#DejaVuSans-Bold-20" transform="translate(878.955078 0)"/>
      <use xlink:href="#DejaVuSans-Bold-5b" transform="translate(913.769531 0)"/>
      <use xlink:href="#DejaVuSans-Bold-b5" transform="translate(959.472656 0)"/>
      <use xlink:href="#DejaVuSans-Bold-6d" transform="translate(1033.056641 0)"/>
      <use xlink:href="#DejaVuSans-Bold-6f" transform="translate(1137.255859 0)"/>
      <use xlink:href="#DejaVuSans-Bold-6c" transform="translate(1205.957031 0)"/>
      <use xlink:href="#DejaVuSans-Bold-65" transform="translate(1240.234375 0)"/>
      <use xlink:href="#DejaVuSans-Bold-5d" transform="translate(1308.056641 0)"/>
     </g>
    </g>
   </g>
   <g id="LineCollection_1">
    <path clip-path="url(#pe176d41f6f)" style="fill: none; stroke: #000000"/>
    <path d="M 817.662152 190.305096 
L 817.662152 112.808458 
" clip-path="url(#pe176d41f6f)" style="fill: none; stroke: #000000"/>
   </g>
   <g id="LineCollection_2">
    <path clip-path="url(#pe176d41f6f)" style="fill: none; stroke: #1f77b4"/>
    <path d="M 817.662152 160.433914 
L 817.662152 55.8 
" clip-path="url(#pe176d41f6f)" style="fill: none; stroke: #1f77b4"/>
   </g>
   <g id="line2d_38">
    <path d="M 521.238436 307.8 
L 522.473535 307.758384 
L 523.708634 307.467036 
L 524.943733 306.797696 
L 526.178832 305.726012 
L 527.41393 304.27494 
L 528.649029 302.486612 
L 530.501677 299.276111 
L 532.354326 295.569368 
L 534.824523 290.086969 
L 538.52982 281.20933 
L 547.793061 258.722635 
L 551.498357 250.349282 
L 555.203654 242.522981 
L 558.90895 235.284234 
L 561.996697 229.7057 
L 565.084444 224.531218 
L 568.172191 219.745791 
L 571.259938 215.330391 
L 574.347685 211.263751 
L 577.435432 207.523616 
L 580.523179 204.087587 
L 583.610926 200.933696 
L 587.316223 197.491709 
L 591.021519 194.390953 
L 594.726816 191.599218 
L 598.432112 189.086808 
L 602.137409 186.826524 
L 606.460254 184.47524 
L 610.7831 182.397997 
L 615.105946 180.563192 
L 620.046341 178.727262 
L 624.986737 177.134538 
L 630.544681 175.59363 
L 636.102626 174.280603 
L 642.27812 173.048198 
L 649.071164 171.923239 
L 656.481756 170.922804 
L 665.127448 169.996051 
L 674.390689 169.228646 
L 685.506579 168.541195 
L 698.475116 167.973472 
L 714.531401 167.50939 
L 734.910531 167.159063 
L 763.317804 166.914019 
L 809.01646 166.772492 
L 830.01314 166.748976 
L 830.01314 166.748976 
" clip-path="url(#pe176d41f6f)" style="fill: none; stroke: #000000; stroke-width: 2; stroke-linecap: square"/>
   </g>
   <g id="line2d_39">
    <g clip-path="url(#pe176d41f6f)">
     <use xlink:href="#m4118f97805" x="521.238436" y="307.8" style="stroke: #000000; stroke-linejoin: miter"/>
     <use xlink:href="#m4118f97805" x="817.662152" y="151.556777" style="stroke: #000000; stroke-linejoin: miter"/>
    </g>
   </g>
   <g id="line2d_40">
    <path d="M 521.238436 307.8 
L 522.473535 307.749248 
L 523.708634 307.393947 
L 524.943733 306.577679 
L 526.178832 305.270746 
L 527.41393 303.501147 
L 528.649029 301.320259 
L 530.501677 297.405014 
L 532.354326 292.884596 
L 534.824523 286.198742 
L 538.52982 275.372354 
L 547.793061 247.949555 
L 551.498357 237.738148 
L 555.203654 228.193879 
L 558.291401 220.786974 
L 561.379148 213.88378 
L 564.466895 207.476144 
L 567.554642 201.547102 
L 570.642389 196.07423 
L 573.730136 191.032 
L 576.817883 186.393416 
L 579.90563 182.131132 
L 582.993377 178.218211 
L 586.081124 174.628612 
L 589.168871 171.337498 
L 592.256618 168.321411 
L 595.961915 165.034275 
L 599.667211 162.076389 
L 603.372507 159.415577 
L 607.077804 157.022549 
L 610.7831 154.870727 
L 615.105946 152.633161 
L 619.428792 150.657006 
L 623.751638 148.91189 
L 628.692033 147.166008 
L 633.632428 145.651602 
L 639.190373 144.186602 
L 645.365867 142.811585 
L 651.541361 141.660686 
L 658.334405 140.610162 
L 666.362547 139.606727 
L 675.008239 138.756592 
L 684.889029 138.012055 
L 696.622468 137.363633 
L 710.208555 136.841502 
L 727.499938 136.413945 
L 749.731717 136.100821 
L 781.844286 135.890292 
L 830.01314 135.786556 
L 830.01314 135.786556 
" clip-path="url(#pe176d41f6f)" style="fill: none; stroke: #1f77b4; stroke-width: 2; stroke-linecap: square"/>
   </g>
   <g id="line2d_41">
    <g clip-path="url(#pe176d41f6f)">
     <use xlink:href="#md00144d7b7" x="521.238436" y="307.8" style="fill: #1f77b4; stroke: #000000; stroke-linejoin: miter"/>
     <use xlink:href="#md00144d7b7" x="817.662152" y="108.116957" style="fill: #1f77b4; stroke: #000000; stroke-linejoin: miter"/>
    </g>
   </g>
   <g id="patch_9">
    <path d="M 505.799701 320.4 
L 505.799701 43.2 
" style="fill: none; stroke: #000000; stroke-width: 0.8; stroke-linejoin: miter; stroke-linecap: square"/>
   </g>
   <g id="patch_10">
    <path d="M 845.451875 320.4 
L 845.451875 43.2 
" style="fill: none; stroke: #000000; stroke-width: 0.8; stroke-linejoin: miter; stroke-linecap: square"/>
   </g>
   <g id="patch_11">
    <path d="M 505.799701 320.4 
L 845.451875 320.4 
" style="fill: none; stroke: #000000; stroke-width: 0.8; stroke-linejoin: miter; stroke-linecap: square"/>
   </g>
   <g id="patch_12">
    <path d="M 505.799701 43.2 
L 845.451875 43.2 
" style="fill: none; stroke: #000000; stroke-width: 0.8; stroke-linejoin: miter; stroke-linecap: square"/>
   </g>
   <g id="legend_2">
    <g id="patch_13">
     <path d="M 512.799701 109.9125 
L 625.748139 109.9125 
Q 627.748139 109.9125 627.748139 107.9125 
L 627.748139 50.2 
Q 627.748139 48.2 625.748139 48.2 
L 512.799701 48.2 
Q 510.799701 48.2 510.799701 50.2 
L 510.799701 107.9125 
Q 510.799701 109.9125 512.799701 109.9125 
z
" style="fill: #ffffff; opacity: 0.8; stroke: #cccccc; stroke-linejoin: miter"/>
    </g>
    <g id="line2d_42">
     <path d="M 514.799701 56.298437 
L 534.799701 56.298437 
" style="fill: none; stroke: #000000; stroke-width: 2; stroke-linecap: square"/>
    </g>
    <g id="line2d_43"/>
    <g id="text_34">
     <!-- Fast -->
     <g transform="translate(542.799701 59.798437) scale(0.1 -0.1)">
      <use xlink:href="#DejaVuSans-46"/>
      <use xlink:href="#DejaVuSans-61" transform="translate(48.394531 0)"/>
      <use xlink:href="#DejaVuSans-73" transform="translate(109.673828 0)"/>
      <use xlink:href="#DejaVuSans-74" transform="translate(161.773438 0)"/>
     </g>
    </g>
    <g id="LineCollection_3">
     <path d="M 524.799701 75.976562 
L 524.799701 65.976562 
" style="fill: none; stroke: #000000"/>
    </g>
    <g id="line2d_44"/>
    <g id="line2d_45">
     <g>
      <use xlink:href="#m4118f97805" x="524.799701" y="70.976562" style="stroke: #000000; stroke-linejoin: miter"/>
     </g>
    </g>
    <g id="text_35">
     <!-- Fast±SD (n=16) -->
     <g transform="translate(542.799701 74.476562) scale(0.1 -0.1)">
      <defs>
       <path id="DejaVuSans-b1" d="M 2944 4013 
L 2944 2803 
L 4684 2803 
L 4684 2272 
L 2944 2272 
L 2944 1063 
L 2419 1063 
L 2419 2272 
L 678 2272 
L 678 2803 
L 2419 2803 
L 2419 4013 
L 2944 4013 
z
M 678 531 
L 4684 531 
L 4684 0 
L 678 0 
L 678 531 
z
" transform="scale(0.015625)"/>
       <path id="DejaVuSans-53" d="M 3425 4513 
L 3425 3897 
Q 3066 4069 2747 4153 
Q 2428 4238 2131 4238 
Q 1616 4238 1336 4038 
Q 1056 3838 1056 3469 
Q 1056 3159 1242 3001 
Q 1428 2844 1947 2747 
L 2328 2669 
Q 3034 2534 3370 2195 
Q 3706 1856 3706 1288 
Q 3706 609 3251 259 
Q 2797 -91 1919 -91 
Q 1588 -91 1214 -16 
Q 841 59 441 206 
L 441 856 
Q 825 641 1194 531 
Q 1563 422 1919 422 
Q 2459 422 2753 634 
Q 3047 847 3047 1241 
Q 3047 1584 2836 1778 
Q 2625 1972 2144 2069 
L 1759 2144 
Q 1053 2284 737 2584 
Q 422 2884 422 3419 
Q 422 4038 858 4394 
Q 1294 4750 2059 4750 
Q 2388 4750 2728 4690 
Q 3069 4631 3425 4513 
z
" transform="scale(0.015625)"/>
       <path id="DejaVuSans-44" d="M 1259 4147 
L 1259 519 
L 2022 519 
Q 2988 519 3436 956 
Q 3884 1394 3884 2338 
Q 3884 3275 3436 3711 
Q 2988 4147 2022 4147 
L 1259 4147 
z
M 628 4666 
L 1925 4666 
Q 3281 4666 3915 4102 
Q 4550 3538 4550 2338 
Q 4550 1131 3912 565 
Q 3275 0 1925 0 
L 628 0 
L 628 4666 
z
" transform="scale(0.015625)"/>
      </defs>
      <use xlink:href="#DejaVuSans-46"/>
      <use xlink:href="#DejaVuSans-61" transform="translate(48.394531 0)"/>
      <use xlink:href="#DejaVuSans-73" transform="translate(109.673828 0)"/>
      <use xlink:href="#DejaVuSans-74" transform="translate(161.773438 0)"/>
      <use xlink:href="#DejaVuSans-b1" transform="translate(200.982422 0)"/>
      <use xlink:href="#DejaVuSans-53" transform="translate(284.771484 0)"/>
      <use xlink:href="#DejaVuSans-44" transform="translate(348.248047 0)"/>
      <use xlink:href="#DejaVuSans-20" transform="translate(425.25 0)"/>
      <use xlink:href="#DejaVuSans-28" transform="translate(457.037109 0)"/>
      <use xlink:href="#DejaVuSans-6e" transform="translate(496.050781 0)"/>
      <use xlink:href="#DejaVuSans-3d" transform="translate(559.429688 0)"/>
      <use xlink:href="#DejaVuSans-31" transform="translate(643.21875 0)"/>
      <use xlink:href="#DejaVuSans-36" transform="translate(706.841797 0)"/>
      <use xlink:href="#DejaVuSans-29" transform="translate(770.464844 0)"/>
     </g>
    </g>
    <g id="line2d_46">
     <path d="M 514.799701 85.654687 
L 534.799701 85.654687 
" style="fill: none; stroke: #1f77b4; stroke-width: 2; stroke-linecap: square"/>
    </g>
    <g id="line2d_47"/>
    <g id="text_36">
     <!-- Fed -->
     <g transform="translate(542.799701 89.154687) scale(0.1 -0.1)">
      <use xlink:href="#DejaVuSans-46"/>
      <use xlink:href="#DejaVuSans-65" transform="translate(52.019531 0)"/>
      <use xlink:href="#DejaVuSans-64" transform="translate(113.542969 0)"/>
     </g>
    </g>
    <g id="LineCollection_4">
     <path d="M 524.799701 105.332812 
L 524.799701 95.332812 
" style="fill: none; stroke: #1f77b4"/>
    </g>
    <g id="line2d_48"/>
    <g id="line2d_49">
     <g>
      <use xlink:href="#md00144d7b7" x="524.799701" y="100.332812" style="fill: #1f77b4; stroke: #000000; stroke-linejoin: miter"/>
     </g>
    </g>
    <g id="text_37">
     <!-- Fed±SD (n=16) -->
     <g transform="translate(542.799701 103.832812) scale(0.1 -0.1)">
      <use xlink:href="#DejaVuSans-46"/>
      <use xlink:href="#DejaVuSans-65" transform="translate(52.019531 0)"/>
      <use xlink:href="#DejaVuSans-64" transform="translate(113.542969 0)"/>
      <use xlink:href="#DejaVuSans-b1" transform="translate(177.019531 0)"/>
      <use xlink:href="#DejaVuSans-53" transform="translate(260.808594 0)"/>
      <use xlink:href="#DejaVuSans-44" transform="translate(324.285156 0)"/>
      <use xlink:href="#DejaVuSans-20" transform="translate(401.287109 0)"/>
      <use xlink:href="#DejaVuSans-28" transform="translate(433.074219 0)"/>
      <use xlink:href="#DejaVuSans-6e" transform="translate(472.087891 0)"/>
      <use xlink:href="#DejaVuSans-3d" transform="translate(535.466797 0)"/>
      <use xlink:href="#DejaVuSans-31" transform="translate(619.255859 0)"/>
      <use xlink:href="#DejaVuSans-36" transform="translate(682.878906 0)"/>
      <use xlink:href="#DejaVuSans-29" transform="translate(746.501953 0)"/>
     </g>
    </g>
   </g>
  </g>
  <g id="text_38">
   <!-- Mendell2011 (healthy, Japanese) -->
   <g transform="translate(210.859297 26.196094) scale(0.25 -0.25)">
    <defs>
     <path id="DejaVuSans-Bold-32" d="M 1844 884 
L 3897 884 
L 3897 0 
L 506 0 
L 506 884 
L 2209 2388 
Q 2438 2594 2547 2791 
Q 2656 2988 2656 3200 
Q 2656 3528 2436 3728 
Q 2216 3928 1850 3928 
Q 1569 3928 1234 3808 
Q 900 3688 519 3450 
L 519 4475 
Q 925 4609 1322 4679 
Q 1719 4750 2100 4750 
Q 2938 4750 3402 4381 
Q 3866 4013 3866 3353 
Q 3866 2972 3669 2642 
Q 3472 2313 2841 1759 
L 1844 884 
z
" transform="scale(0.015625)"/>
     <path id="DejaVuSans-Bold-30" d="M 2944 2338 
Q 2944 3213 2780 3570 
Q 2616 3928 2228 3928 
Q 1841 3928 1675 3570 
Q 1509 3213 1509 2338 
Q 1509 1453 1675 1090 
Q 1841 728 2228 728 
Q 2613 728 2778 1090 
Q 2944 1453 2944 2338 
z
M 4147 2328 
Q 4147 1169 3647 539 
Q 3147 -91 2228 -91 
Q 1306 -91 806 539 
Q 306 1169 306 2328 
Q 306 3491 806 4120 
Q 1306 4750 2228 4750 
Q 3147 4750 3647 4120 
Q 4147 3491 4147 2328 
z
" transform="scale(0.015625)"/>
     <path id="DejaVuSans-Bold-31" d="M 750 831 
L 1813 831 
L 1813 3847 
L 722 3622 
L 722 4441 
L 1806 4666 
L 2950 4666 
L 2950 831 
L 4013 831 
L 4013 0 
L 750 0 
L 750 831 
z
" transform="scale(0.015625)"/>
     <path id="DejaVuSans-Bold-28" d="M 2413 -844 
L 1484 -844 
Q 1006 -72 778 623 
Q 550 1319 550 2003 
Q 550 2688 779 3389 
Q 1009 4091 1484 4856 
L 2413 4856 
Q 2013 4116 1813 3408 
Q 1613 2700 1613 2009 
Q 1613 1319 1811 609 
Q 2009 -100 2413 -844 
z
" transform="scale(0.015625)"/>
     <path id="DejaVuSans-Bold-79" d="M 78 3500 
L 1197 3500 
L 2138 1125 
L 2938 3500 
L 4056 3500 
L 2584 -331 
Q 2363 -916 2067 -1148 
Q 1772 -1381 1288 -1381 
L 641 -1381 
L 641 -647 
L 991 -647 
Q 1275 -647 1404 -556 
Q 1534 -466 1606 -231 
L 1638 -134 
L 78 3500 
z
" transform="scale(0.015625)"/>
     <path id="DejaVuSans-Bold-2c" d="M 653 1209 
L 1778 1209 
L 1778 256 
L 1006 -909 
L 341 -909 
L 653 256 
L 653 1209 
z
" transform="scale(0.015625)"/>
     <path id="DejaVuSans-Bold-4a" d="M 588 4666 
L 1791 4666 
L 1791 453 
Q 1791 -419 1317 -850 
Q 844 -1281 -116 -1281 
L -359 -1281 
L -359 -372 
L -172 -372 
Q 203 -372 395 -162 
Q 588 47 588 453 
L 588 4666 
z
" transform="scale(0.015625)"/>
     <path id="DejaVuSans-Bold-29" d="M 513 -844 
Q 913 -100 1113 609 
Q 1313 1319 1313 2009 
Q 1313 2700 1113 3408 
Q 913 4116 513 4856 
L 1441 4856 
Q 1916 4091 2145 3389 
Q 2375 2688 2375 2003 
Q 2375 1319 2147 623 
Q 1919 -72 1441 -844 
L 513 -844 
z
" transform="scale(0.015625)"/>
    </defs>
    <use xlink:href="#DejaVuSans-Bold-4d"/>
    <use xlink:href="#DejaVuSans-Bold-65" transform="translate(99.511719 0)"/>
    <use xlink:href="#DejaVuSans-Bold-6e" transform="translate(167.333984 0)"/>
    <use xlink:href="#DejaVuSans-Bold-64" transform="translate(238.525391 0)"/>
    <use xlink:href="#DejaVuSans-Bold-65" transform="translate(310.107422 0)"/>
    <use xlink:href="#DejaVuSans-Bold-6c" transform="translate(377.929688 0)"/>
    <use xlink:href="#DejaVuSans-Bold-6c" transform="translate(412.207031 0)"/>
    <use xlink:href="#DejaVuSans-Bold-32" transform="translate(446.484375 0)"/>
    <use xlink:href="#DejaVuSans-Bold-30" transform="translate(516.064453 0)"/>
    <use xlink:href="#DejaVuSans-Bold-31" transform="translate(585.644531 0)"/>
    <use xlink:href="#DejaVuSans-Bold-31" transform="translate(655.224609 0)"/>
    <use xlink:href="#DejaVuSans-Bold-20" transform="translate(724.804688 0)"/>
    <use xlink:href="#DejaVuSans-Bold-28" transform="translate(759.619141 0)"/>
    <use xlink:href="#DejaVuSans-Bold-68" transform="translate(805.322266 0)"/>
    <use xlink:href="#DejaVuSans-Bold-65" transform="translate(876.513672 0)"/>
    <use xlink:href="#DejaVuSans-Bold-61" transform="translate(944.335938 0)"/>
    <use xlink:href="#DejaVuSans-Bold-6c" transform="translate(1011.816406 0)"/>
    <use xlink:href="#DejaVuSans-Bold-74" transform="translate(1046.09375 0)"/>
    <use xlink:href="#DejaVuSans-Bold-68" transform="translate(1093.896484 0)"/>
    <use xlink:href="#DejaVuSans-Bold-79" transform="translate(1165.087891 0)"/>
    <use xlink:href="#DejaVuSans-Bold-2c" transform="translate(1222.523438 0)"/>
    <use xlink:href="#DejaVuSans-Bold-20" transform="translate(1260.511719 0)"/>
    <use xlink:href="#DejaVuSans-Bold-4a" transform="translate(1295.326172 0)"/>
    <use xlink:href="#DejaVuSans-Bold-61" transform="translate(1332.533203 0)"/>
    <use xlink:href="#DejaVuSans-Bold-70" transform="translate(1400.013672 0)"/>
    <use xlink:href="#DejaVuSans-Bold-61" transform="translate(1471.595703 0)"/>
    <use xlink:href="#DejaVuSans-Bold-6e" transform="translate(1539.076172 0)"/>
    <use xlink:href="#DejaVuSans-Bold-65" transform="translate(1610.267578 0)"/>
    <use xlink:href="#DejaVuSans-Bold-73" transform="translate(1678.089844 0)"/>
    <use xlink:href="#DejaVuSans-Bold-65" transform="translate(1737.611328 0)"/>
    <use xlink:href="#DejaVuSans-Bold-29" transform="translate(1805.433594 0)"/>
   </g>
  </g>
 </g>
 <defs>
  <clipPath id="pe5f4f86e01">
   <rect x="64.251875" y="43.2" width="339.652174" height="277.2"/>
  </clipPath>
  <clipPath id="pe176d41f6f">
   <rect x="505.799701" y="43.2" width="339.652174" height="277.2"/>
  </clipPath>
 </defs>
</svg>
