<?xml version="1.0" encoding="utf-8" standalone="no"?>
<!DOCTYPE svg PUBLIC "-//W3C//DTD SVG 1.1//EN"
  "http://www.w3.org/Graphics/SVG/1.1/DTD/svg11.dtd">
<svg xmlns:xlink="http://www.w3.org/1999/xlink" width="852.651875pt" height="370.537812pt" viewBox="0 0 852.651875 370.537812" xmlns="http://www.w3.org/2000/svg" version="1.1">
 <metadata>
  <rdf:RDF xmlns:dc="http://purl.org/dc/elements/1.1/" xmlns:cc="http://creativecommons.org/ns#" xmlns:rdf="http://www.w3.org/1999/02/22-rdf-syntax-ns#">
   <cc:Work>
    <dc:type rdf:resource="http://purl.org/dc/dcmitype/StillImage"/>
    <dc:date>2026-01-06T17:44:23.868229</dc:date>
    <dc:format>image/svg+xml</dc:format>
    <dc:creator>
     <cc:Agent>
      <dc:title>Matplotlib v3.10.7, https://matplotlib.org/</dc:title>
     </cc:Agent>
    </dc:creator>
   </cc:Work>
  </rdf:RDF>
 </metadata>
 <defs>
  <style type="text/css">*{stroke-linejoin: round; stroke-linecap: butt}</style>
 </defs>
 <g id="figure_1">
  <g id="patch_1">
   <path d="M 0 370.537812 
L 852.651875 370.537812 
L 852.651875 0 
L 0 0 
z
" style="fill: #ffffff"/>
  </g>
  <g id="axes_1">
   <g id="patch_2">
    <path d="M 64.251875 320.4 
L 403.904049 320.4 
L 403.904049 43.2 
L 64.251875 43.2 
z
" style="fill: #ffffff"/>
   </g>
   <g id="matplotlib.axis_1">
    <g id="xtick_1">
     <g id="line2d_1">
      <defs>
       <path id="m432eb8acc9" d="M 0 0 
L 0 3.5 
" style="stroke: #000000; stroke-width: 0.8"/>
      </defs>
      <g>
       <use xlink:href="#m432eb8acc9" x="79.69061" y="320.4" style="stroke: #000000; stroke-width: 0.8"/>
      </g>
     </g>
     <g id="text_1">
      <!-- 0 -->
      <g transform="translate(74.918735 338.797656) scale(0.15 -0.15)">
       <defs>
        <path id="DejaVuSans-30" d="M 2034 4250 
Q 1547 4250 1301 3770 
Q 1056 3291 1056 2328 
Q 1056 1369 1301 889 
Q 1547 409 2034 409 
Q 2525 409 2770 889 
Q 3016 1369 3016 2328 
Q 3016 3291 2770 3770 
Q 2525 4250 2034 4250 
z
M 2034 4750 
Q 2819 4750 3233 4129 
Q 3647 3509 3647 2328 
Q 3647 1150 3233 529 
Q 2819 -91 2034 -91 
Q 1250 -91 836 529 
Q 422 1150 422 2328 
Q 422 3509 836 4129 
Q 1250 4750 2034 4750 
z
" transform="scale(0.015625)"/>
       </defs>
       <use xlink:href="#DejaVuSans-30"/>
      </g>
     </g>
    </g>
    <g id="xtick_2">
     <g id="line2d_2">
      <g>
       <use xlink:href="#m432eb8acc9" x="141.445551" y="320.4" style="stroke: #000000; stroke-width: 0.8"/>
      </g>
     </g>
     <g id="text_2">
      <!-- 10 -->
      <g transform="translate(131.901801 338.797656) scale(0.15 -0.15)">
       <defs>
        <path id="DejaVuSans-31" d="M 794 531 
L 1825 531 
L 1825 4091 
L 703 3866 
L 703 4441 
L 1819 4666 
L 2450 4666 
L 2450 531 
L 3481 531 
L 3481 0 
L 794 0 
L 794 531 
z
" transform="scale(0.015625)"/>
       </defs>
       <use xlink:href="#DejaVuSans-31"/>
       <use xlink:href="#DejaVuSans-30" transform="translate(63.623047 0)"/>
      </g>
     </g>
    </g>
    <g id="xtick_3">
     <g id="line2d_3">
      <g>
       <use xlink:href="#m432eb8acc9" x="203.200492" y="320.4" style="stroke: #000000; stroke-width: 0.8"/>
      </g>
     </g>
     <g id="text_3">
      <!-- 20 -->
      <g transform="translate(193.656742 338.797656) scale(0.15 -0.15)">
       <defs>
        <path id="DejaVuSans-32" d="M 1228 531 
L 3431 531 
L 3431 0 
L 469 0 
L 469 531 
Q 828 903 1448 1529 
Q 2069 2156 2228 2338 
Q 2531 2678 2651 2914 
Q 2772 3150 2772 3378 
Q 2772 3750 2511 3984 
Q 2250 4219 1831 4219 
Q 1534 4219 1204 4116 
Q 875 4013 500 3803 
L 500 4441 
Q 881 4594 1212 4672 
Q 1544 4750 1819 4750 
Q 2544 4750 2975 4387 
Q 3406 4025 3406 3419 
Q 3406 3131 3298 2873 
Q 3191 2616 2906 2266 
Q 2828 2175 2409 1742 
Q 1991 1309 1228 531 
z
" transform="scale(0.015625)"/>
       </defs>
       <use xlink:href="#DejaVuSans-32"/>
       <use xlink:href="#DejaVuSans-30" transform="translate(63.623047 0)"/>
      </g>
     </g>
    </g>
    <g id="xtick_4">
     <g id="line2d_4">
      <g>
       <use xlink:href="#m432eb8acc9" x="264.955432" y="320.4" style="stroke: #000000; stroke-width: 0.8"/>
      </g>
     </g>
     <g id="text_4">
      <!-- 30 -->
      <g transform="translate(255.411682 338.797656) scale(0.15 -0.15)">
       <defs>
        <path id="DejaVuSans-33" d="M 2597 2516 
Q 3050 2419 3304 2112 
Q 3559 1806 3559 1356 
Q 3559 666 3084 287 
Q 2609 -91 1734 -91 
Q 1441 -91 1130 -33 
Q 819 25 488 141 
L 488 750 
Q 750 597 1062 519 
Q 1375 441 1716 441 
Q 2309 441 2620 675 
Q 2931 909 2931 1356 
Q 2931 1769 2642 2001 
Q 2353 2234 1838 2234 
L 1294 2234 
L 1294 2753 
L 1863 2753 
Q 2328 2753 2575 2939 
Q 2822 3125 2822 3475 
Q 2822 3834 2567 4026 
Q 2313 4219 1838 4219 
Q 1578 4219 1281 4162 
Q 984 4106 628 3988 
L 628 4550 
Q 988 4650 1302 4700 
Q 1616 4750 1894 4750 
Q 2613 4750 3031 4423 
Q 3450 4097 3450 3541 
Q 3450 3153 3228 2886 
Q 3006 2619 2597 2516 
z
" transform="scale(0.015625)"/>
       </defs>
       <use xlink:href="#DejaVuSans-33"/>
       <use xlink:href="#DejaVuSans-30" transform="translate(63.623047 0)"/>
      </g>
     </g>
    </g>
    <g id="xtick_5">
     <g id="line2d_5">
      <g>
       <use xlink:href="#m432eb8acc9" x="326.710373" y="320.4" style="stroke: #000000; stroke-width: 0.8"/>
      </g>
     </g>
     <g id="text_5">
      <!-- 40 -->
      <g transform="translate(317.166623 338.797656) scale(0.15 -0.15)">
       <defs>
        <path id="DejaVuSans-34" d="M 2419 4116 
L 825 1625 
L 2419 1625 
L 2419 4116 
z
M 2253 4666 
L 3047 4666 
L 3047 1625 
L 3713 1625 
L 3713 1100 
L 3047 1100 
L 3047 0 
L 2419 0 
L 2419 1100 
L 313 1100 
L 313 1709 
L 2253 4666 
z
" transform="scale(0.015625)"/>
       </defs>
       <use xlink:href="#DejaVuSans-34"/>
       <use xlink:href="#DejaVuSans-30" transform="translate(63.623047 0)"/>
      </g>
     </g>
    </g>
    <g id="xtick_6">
     <g id="line2d_6">
      <g>
       <use xlink:href="#m432eb8acc9" x="388.465314" y="320.4" style="stroke: #000000; stroke-width: 0.8"/>
      </g>
     </g>
     <g id="text_6">
      <!-- 50 -->
      <g transform="translate(378.921564 338.797656) scale(0.15 -0.15)">
       <defs>
        <path id="DejaVuSans-35" d="M 691 4666 
L 3169 4666 
L 3169 4134 
L 1269 4134 
L 1269 2991 
Q 1406 3038 1543 3061 
Q 1681 3084 1819 3084 
Q 2600 3084 3056 2656 
Q 3513 2228 3513 1497 
Q 3513 744 3044 326 
Q 2575 -91 1722 -91 
Q 1428 -91 1123 -41 
Q 819 9 494 109 
L 494 744 
Q 775 591 1075 516 
Q 1375 441 1709 441 
Q 2250 441 2565 725 
Q 2881 1009 2881 1497 
Q 2881 1984 2565 2268 
Q 2250 2553 1709 2553 
Q 1456 2553 1204 2497 
Q 953 2441 691 2322 
L 691 4666 
z
" transform="scale(0.015625)"/>
       </defs>
       <use xlink:href="#DejaVuSans-35"/>
       <use xlink:href="#DejaVuSans-30" transform="translate(63.623047 0)"/>
      </g>
     </g>
    </g>
    <g id="text_7">
     <!-- time [hr] -->
     <g transform="translate(189.003431 359.594375) scale(0.18 -0.18)">
      <defs>
       <path id="DejaVuSans-Bold-74" d="M 1759 4494 
L 1759 3500 
L 2913 3500 
L 2913 2700 
L 1759 2700 
L 1759 1216 
Q 1759 972 1856 886 
Q 1953 800 2241 800 
L 2816 800 
L 2816 0 
L 1856 0 
Q 1194 0 917 276 
Q 641 553 641 1216 
L 641 2700 
L 84 2700 
L 84 3500 
L 641 3500 
L 641 4494 
L 1759 4494 
z
" transform="scale(0.015625)"/>
       <path id="DejaVuSans-Bold-69" d="M 538 3500 
L 1656 3500 
L 1656 0 
L 538 0 
L 538 3500 
z
M 538 4863 
L 1656 4863 
L 1656 3950 
L 538 3950 
L 538 4863 
z
" transform="scale(0.015625)"/>
       <path id="DejaVuSans-Bold-6d" d="M 3781 2919 
Q 3994 3244 4286 3414 
Q 4578 3584 4928 3584 
Q 5531 3584 5847 3212 
Q 6163 2841 6163 2131 
L 6163 0 
L 5038 0 
L 5038 1825 
Q 5041 1866 5042 1909 
Q 5044 1953 5044 2034 
Q 5044 2406 4934 2573 
Q 4825 2741 4581 2741 
Q 4263 2741 4089 2478 
Q 3916 2216 3909 1719 
L 3909 0 
L 2784 0 
L 2784 1825 
Q 2784 2406 2684 2573 
Q 2584 2741 2328 2741 
Q 2006 2741 1831 2477 
Q 1656 2213 1656 1722 
L 1656 0 
L 531 0 
L 531 3500 
L 1656 3500 
L 1656 2988 
Q 1863 3284 2130 3434 
Q 2397 3584 2719 3584 
Q 3081 3584 3359 3409 
Q 3638 3234 3781 2919 
z
" transform="scale(0.015625)"/>
       <path id="DejaVuSans-Bold-65" d="M 4031 1759 
L 4031 1441 
L 1416 1441 
Q 1456 1047 1700 850 
Q 1944 653 2381 653 
Q 2734 653 3104 758 
Q 3475 863 3866 1075 
L 3866 213 
Q 3469 63 3072 -14 
Q 2675 -91 2278 -91 
Q 1328 -91 801 392 
Q 275 875 275 1747 
Q 275 2603 792 3093 
Q 1309 3584 2216 3584 
Q 3041 3584 3536 3087 
Q 4031 2591 4031 1759 
z
M 2881 2131 
Q 2881 2450 2695 2645 
Q 2509 2841 2209 2841 
Q 1884 2841 1681 2658 
Q 1478 2475 1428 2131 
L 2881 2131 
z
" transform="scale(0.015625)"/>
       <path id="DejaVuSans-Bold-20" transform="scale(0.015625)"/>
       <path id="DejaVuSans-Bold-5b" d="M 550 4863 
L 2491 4863 
L 2491 4159 
L 1613 4159 
L 1613 -141 
L 2491 -141 
L 2491 -844 
L 550 -844 
L 550 4863 
z
" transform="scale(0.015625)"/>
       <path id="DejaVuSans-Bold-68" d="M 4056 2131 
L 4056 0 
L 2931 0 
L 2931 347 
L 2931 1625 
Q 2931 2084 2911 2256 
Q 2891 2428 2841 2509 
Q 2775 2619 2662 2680 
Q 2550 2741 2406 2741 
Q 2056 2741 1856 2470 
Q 1656 2200 1656 1722 
L 1656 0 
L 538 0 
L 538 4863 
L 1656 4863 
L 1656 2988 
Q 1909 3294 2193 3439 
Q 2478 3584 2822 3584 
Q 3428 3584 3742 3212 
Q 4056 2841 4056 2131 
z
" transform="scale(0.015625)"/>
       <path id="DejaVuSans-Bold-72" d="M 3138 2547 
Q 2991 2616 2845 2648 
Q 2700 2681 2553 2681 
Q 2122 2681 1889 2404 
Q 1656 2128 1656 1613 
L 1656 0 
L 538 0 
L 538 3500 
L 1656 3500 
L 1656 2925 
Q 1872 3269 2151 3426 
Q 2431 3584 2822 3584 
Q 2878 3584 2943 3579 
Q 3009 3575 3134 3559 
L 3138 2547 
z
" transform="scale(0.015625)"/>
       <path id="DejaVuSans-Bold-5d" d="M 2375 -844 
L 434 -844 
L 434 -141 
L 1313 -141 
L 1313 4159 
L 434 4159 
L 434 4863 
L 2375 4863 
L 2375 -844 
z
" transform="scale(0.015625)"/>
      </defs>
      <use xlink:href="#DejaVuSans-Bold-74"/>
      <use xlink:href="#DejaVuSans-Bold-69" transform="translate(47.802734 0)"/>
      <use xlink:href="#DejaVuSans-Bold-6d" transform="translate(82.080078 0)"/>
      <use xlink:href="#DejaVuSans-Bold-65" transform="translate(186.279297 0)"/>
      <use xlink:href="#DejaVuSans-Bold-20" transform="translate(254.101562 0)"/>
      <use xlink:href="#DejaVuSans-Bold-5b" transform="translate(288.916016 0)"/>
      <use xlink:href="#DejaVuSans-Bold-68" transform="translate(334.619141 0)"/>
      <use xlink:href="#DejaVuSans-Bold-72" transform="translate(405.810547 0)"/>
      <use xlink:href="#DejaVuSans-Bold-5d" transform="translate(455.126953 0)"/>
     </g>
    </g>
   </g>
   <g id="matplotlib.axis_2">
    <g id="ytick_1">
     <g id="line2d_7">
      <defs>
       <path id="m26f9370881" d="M 0 0 
L -3.5 0 
" style="stroke: #000000; stroke-width: 0.8"/>
      </defs>
      <g>
       <use xlink:href="#m26f9370881" x="64.251875" y="307.8" style="stroke: #000000; stroke-width: 0.8"/>
      </g>
     </g>
     <g id="text_8">
      <!-- 0 -->
      <g transform="translate(47.708125 313.498828) scale(0.15 -0.15)">
       <use xlink:href="#DejaVuSans-30"/>
      </g>
     </g>
    </g>
    <g id="ytick_2">
     <g id="line2d_8">
      <g>
       <use xlink:href="#m26f9370881" x="64.251875" y="258.169909" style="stroke: #000000; stroke-width: 0.8"/>
      </g>
     </g>
     <g id="text_9">
      <!-- 100 -->
      <g transform="translate(28.620625 263.868738) scale(0.15 -0.15)">
       <use xlink:href="#DejaVuSans-31"/>
       <use xlink:href="#DejaVuSans-30" transform="translate(63.623047 0)"/>
       <use xlink:href="#DejaVuSans-30" transform="translate(127.246094 0)"/>
      </g>
     </g>
    </g>
    <g id="ytick_3">
     <g id="line2d_9">
      <g>
       <use xlink:href="#m26f9370881" x="64.251875" y="208.539819" style="stroke: #000000; stroke-width: 0.8"/>
      </g>
     </g>
     <g id="text_10">
      <!-- 200 -->
      <g transform="translate(28.620625 214.238647) scale(0.15 -0.15)">
       <use xlink:href="#DejaVuSans-32"/>
       <use xlink:href="#DejaVuSans-30" transform="translate(63.623047 0)"/>
       <use xlink:href="#DejaVuSans-30" transform="translate(127.246094 0)"/>
      </g>
     </g>
    </g>
    <g id="ytick_4">
     <g id="line2d_10">
      <g>
       <use xlink:href="#m26f9370881" x="64.251875" y="158.909728" style="stroke: #000000; stroke-width: 0.8"/>
      </g>
     </g>
     <g id="text_11">
      <!-- 300 -->
      <g transform="translate(28.620625 164.608556) scale(0.15 -0.15)">
       <use xlink:href="#DejaVuSans-33"/>
       <use xlink:href="#DejaVuSans-30" transform="translate(63.623047 0)"/>
       <use xlink:href="#DejaVuSans-30" transform="translate(127.246094 0)"/>
      </g>
     </g>
    </g>
    <g id="ytick_5">
     <g id="line2d_11">
      <g>
       <use xlink:href="#m26f9370881" x="64.251875" y="109.279638" style="stroke: #000000; stroke-width: 0.8"/>
      </g>
     </g>
     <g id="text_12">
      <!-- 400 -->
      <g transform="translate(28.620625 114.978466) scale(0.15 -0.15)">
       <use xlink:href="#DejaVuSans-34"/>
       <use xlink:href="#DejaVuSans-30" transform="translate(63.623047 0)"/>
       <use xlink:href="#DejaVuSans-30" transform="translate(127.246094 0)"/>
      </g>
     </g>
    </g>
    <g id="ytick_6">
     <g id="line2d_12">
      <g>
       <use xlink:href="#m26f9370881" x="64.251875" y="59.649547" style="stroke: #000000; stroke-width: 0.8"/>
      </g>
     </g>
     <g id="text_13">
      <!-- 500 -->
      <g transform="translate(28.620625 65.348375) scale(0.15 -0.15)">
       <use xlink:href="#DejaVuSans-35"/>
       <use xlink:href="#DejaVuSans-30" transform="translate(63.623047 0)"/>
       <use xlink:href="#DejaVuSans-30" transform="translate(127.246094 0)"/>
      </g>
     </g>
    </g>
    <g id="text_14">
     <!-- edoxaban plasma [nM] -->
     <g transform="translate(20.877187 297.59625) rotate(-90) scale(0.18 -0.18)">
      <defs>
       <path id="DejaVuSans-Bold-64" d="M 2919 2988 
L 2919 4863 
L 4044 4863 
L 4044 0 
L 2919 0 
L 2919 506 
Q 2688 197 2409 53 
Q 2131 -91 1766 -91 
Q 1119 -91 703 423 
Q 288 938 288 1747 
Q 288 2556 703 3070 
Q 1119 3584 1766 3584 
Q 2128 3584 2408 3439 
Q 2688 3294 2919 2988 
z
M 2181 722 
Q 2541 722 2730 984 
Q 2919 1247 2919 1747 
Q 2919 2247 2730 2509 
Q 2541 2772 2181 2772 
Q 1825 2772 1636 2509 
Q 1447 2247 1447 1747 
Q 1447 1247 1636 984 
Q 1825 722 2181 722 
z
" transform="scale(0.015625)"/>
       <path id="DejaVuSans-Bold-6f" d="M 2203 2784 
Q 1831 2784 1636 2517 
Q 1441 2250 1441 1747 
Q 1441 1244 1636 976 
Q 1831 709 2203 709 
Q 2569 709 2762 976 
Q 2956 1244 2956 1747 
Q 2956 2250 2762 2517 
Q 2569 2784 2203 2784 
z
M 2203 3584 
Q 3106 3584 3614 3096 
Q 4122 2609 4122 1747 
Q 4122 884 3614 396 
Q 3106 -91 2203 -91 
Q 1297 -91 786 396 
Q 275 884 275 1747 
Q 275 2609 786 3096 
Q 1297 3584 2203 3584 
z
" transform="scale(0.015625)"/>
       <path id="DejaVuSans-Bold-78" d="M 1422 1791 
L 159 3500 
L 1344 3500 
L 2059 2463 
L 2784 3500 
L 3969 3500 
L 2706 1797 
L 4031 0 
L 2847 0 
L 2059 1106 
L 1281 0 
L 97 0 
L 1422 1791 
z
" transform="scale(0.015625)"/>
       <path id="DejaVuSans-Bold-61" d="M 2106 1575 
Q 1756 1575 1579 1456 
Q 1403 1338 1403 1106 
Q 1403 894 1545 773 
Q 1688 653 1941 653 
Q 2256 653 2472 879 
Q 2688 1106 2688 1447 
L 2688 1575 
L 2106 1575 
z
M 3816 1997 
L 3816 0 
L 2688 0 
L 2688 519 
Q 2463 200 2181 54 
Q 1900 -91 1497 -91 
Q 953 -91 614 226 
Q 275 544 275 1050 
Q 275 1666 698 1953 
Q 1122 2241 2028 2241 
L 2688 2241 
L 2688 2328 
Q 2688 2594 2478 2717 
Q 2269 2841 1825 2841 
Q 1466 2841 1156 2769 
Q 847 2697 581 2553 
L 581 3406 
Q 941 3494 1303 3539 
Q 1666 3584 2028 3584 
Q 2975 3584 3395 3211 
Q 3816 2838 3816 1997 
z
" transform="scale(0.015625)"/>
       <path id="DejaVuSans-Bold-62" d="M 2400 722 
Q 2759 722 2948 984 
Q 3138 1247 3138 1747 
Q 3138 2247 2948 2509 
Q 2759 2772 2400 2772 
Q 2041 2772 1848 2508 
Q 1656 2244 1656 1747 
Q 1656 1250 1848 986 
Q 2041 722 2400 722 
z
M 1656 2988 
Q 1888 3294 2169 3439 
Q 2450 3584 2816 3584 
Q 3463 3584 3878 3070 
Q 4294 2556 4294 1747 
Q 4294 938 3878 423 
Q 3463 -91 2816 -91 
Q 2450 -91 2169 54 
Q 1888 200 1656 506 
L 1656 0 
L 538 0 
L 538 4863 
L 1656 4863 
L 1656 2988 
z
" transform="scale(0.015625)"/>
       <path id="DejaVuSans-Bold-6e" d="M 4056 2131 
L 4056 0 
L 2931 0 
L 2931 347 
L 2931 1631 
Q 2931 2084 2911 2256 
Q 2891 2428 2841 2509 
Q 2775 2619 2662 2680 
Q 2550 2741 2406 2741 
Q 2056 2741 1856 2470 
Q 1656 2200 1656 1722 
L 1656 0 
L 538 0 
L 538 3500 
L 1656 3500 
L 1656 2988 
Q 1909 3294 2193 3439 
Q 2478 3584 2822 3584 
Q 3428 3584 3742 3212 
Q 4056 2841 4056 2131 
z
" transform="scale(0.015625)"/>
       <path id="DejaVuSans-Bold-70" d="M 1656 506 
L 1656 -1331 
L 538 -1331 
L 538 3500 
L 1656 3500 
L 1656 2988 
Q 1888 3294 2169 3439 
Q 2450 3584 2816 3584 
Q 3463 3584 3878 3070 
Q 4294 2556 4294 1747 
Q 4294 938 3878 423 
Q 3463 -91 2816 -91 
Q 2450 -91 2169 54 
Q 1888 200 1656 506 
z
M 2400 2772 
Q 2041 2772 1848 2508 
Q 1656 2244 1656 1747 
Q 1656 1250 1848 986 
Q 2041 722 2400 722 
Q 2759 722 2948 984 
Q 3138 1247 3138 1747 
Q 3138 2247 2948 2509 
Q 2759 2772 2400 2772 
z
" transform="scale(0.015625)"/>
       <path id="DejaVuSans-Bold-6c" d="M 538 4863 
L 1656 4863 
L 1656 0 
L 538 0 
L 538 4863 
z
" transform="scale(0.015625)"/>
       <path id="DejaVuSans-Bold-73" d="M 3272 3391 
L 3272 2541 
Q 2913 2691 2578 2766 
Q 2244 2841 1947 2841 
Q 1628 2841 1473 2761 
Q 1319 2681 1319 2516 
Q 1319 2381 1436 2309 
Q 1553 2238 1856 2203 
L 2053 2175 
Q 2913 2066 3209 1816 
Q 3506 1566 3506 1031 
Q 3506 472 3093 190 
Q 2681 -91 1863 -91 
Q 1516 -91 1145 -36 
Q 775 19 384 128 
L 384 978 
Q 719 816 1070 734 
Q 1422 653 1784 653 
Q 2113 653 2278 743 
Q 2444 834 2444 1013 
Q 2444 1163 2330 1236 
Q 2216 1309 1875 1350 
L 1678 1375 
Q 931 1469 631 1722 
Q 331 1975 331 2491 
Q 331 3047 712 3315 
Q 1094 3584 1881 3584 
Q 2191 3584 2531 3537 
Q 2872 3491 3272 3391 
z
" transform="scale(0.015625)"/>
       <path id="DejaVuSans-Bold-4d" d="M 588 4666 
L 2119 4666 
L 3181 2169 
L 4250 4666 
L 5778 4666 
L 5778 0 
L 4641 0 
L 4641 3413 
L 3566 897 
L 2803 897 
L 1728 3413 
L 1728 0 
L 588 0 
L 588 4666 
z
" transform="scale(0.015625)"/>
      </defs>
      <use xlink:href="#DejaVuSans-Bold-65"/>
      <use xlink:href="#DejaVuSans-Bold-64" transform="translate(67.822266 0)"/>
      <use xlink:href="#DejaVuSans-Bold-6f" transform="translate(139.404297 0)"/>
      <use xlink:href="#DejaVuSans-Bold-78" transform="translate(208.105469 0)"/>
      <use xlink:href="#DejaVuSans-Bold-61" transform="translate(272.607422 0)"/>
      <use xlink:href="#DejaVuSans-Bold-62" transform="translate(340.087891 0)"/>
      <use xlink:href="#DejaVuSans-Bold-61" transform="translate(411.669922 0)"/>
      <use xlink:href="#DejaVuSans-Bold-6e" transform="translate(479.150391 0)"/>
      <use xlink:href="#DejaVuSans-Bold-20" transform="translate(550.341797 0)"/>
      <use xlink:href="#DejaVuSans-Bold-70" transform="translate(585.15625 0)"/>
      <use xlink:href="#DejaVuSans-Bold-6c" transform="translate(656.738281 0)"/>
      <use xlink:href="#DejaVuSans-Bold-61" transform="translate(691.015625 0)"/>
      <use xlink:href="#DejaVuSans-Bold-73" transform="translate(758.496094 0)"/>
      <use xlink:href="#DejaVuSans-Bold-6d" transform="translate(818.017578 0)"/>
      <use xlink:href="#DejaVuSans-Bold-61" transform="translate(922.216797 0)"/>
      <use xlink:href="#DejaVuSans-Bold-20" transform="translate(989.697266 0)"/>
      <use xlink:href="#DejaVuSans-Bold-5b" transform="translate(1024.511719 0)"/>
      <use xlink:href="#DejaVuSans-Bold-6e" transform="translate(1070.214844 0)"/>
      <use xlink:href="#DejaVuSans-Bold-4d" transform="translate(1141.40625 0)"/>
      <use xlink:href="#DejaVuSans-Bold-5d" transform="translate(1240.917969 0)"/>
     </g>
    </g>
   </g>
   <g id="LineCollection_1">
    <path clip-path="url(#pa462d04ee9)" style="fill: none; stroke: #1f77b4"/>
    <path d="M 81.234484 307.790944 
L 81.234484 285.677102 
" clip-path="url(#pa462d04ee9)" style="fill: none; stroke: #1f77b4"/>
    <path d="M 82.778357 238.95912 
L 82.778357 170.118241 
" clip-path="url(#pa462d04ee9)" style="fill: none; stroke: #1f77b4"/>
    <path d="M 84.322231 167.65511 
L 84.322231 57.031565 
" clip-path="url(#pa462d04ee9)" style="fill: none; stroke: #1f77b4"/>
    <path d="M 85.866104 160.292885 
L 85.866104 61.948771 
" clip-path="url(#pa462d04ee9)" style="fill: none; stroke: #1f77b4"/>
    <path d="M 88.953851 136.938422 
L 88.953851 73.005692 
" clip-path="url(#pa462d04ee9)" style="fill: none; stroke: #1f77b4"/>
    <path d="M 92.041598 124.631824 
L 92.041598 60.717206 
" clip-path="url(#pa462d04ee9)" style="fill: none; stroke: #1f77b4"/>
    <path d="M 95.129345 124.64088 
L 95.129345 55.8 
" clip-path="url(#pa462d04ee9)" style="fill: none; stroke: #1f77b4"/>
    <path d="M 98.217092 139.401552 
L 98.217092 73.005692 
" clip-path="url(#pa462d04ee9)" style="fill: none; stroke: #1f77b4"/>
    <path d="M 101.304839 155.375679 
L 101.304839 93.90608 
" clip-path="url(#pa462d04ee9)" style="fill: none; stroke: #1f77b4"/>
    <path d="M 104.392586 168.886675 
L 104.392586 122.177749 
" clip-path="url(#pa462d04ee9)" style="fill: none; stroke: #1f77b4"/>
    <path d="M 110.568081 191.009573 
L 110.568081 159.06132 
" clip-path="url(#pa462d04ee9)" style="fill: none; stroke: #1f77b4"/>
    <path d="M 116.743575 210.687451 
L 116.743575 191.018629 
" clip-path="url(#pa462d04ee9)" style="fill: none; stroke: #1f77b4"/>
    <path d="M 129.094563 242.653816 
L 129.094563 230.356274 
" clip-path="url(#pa462d04ee9)" style="fill: none; stroke: #1f77b4"/>
    <path d="M 141.445551 262.313583 
L 141.445551 254.942303 
" clip-path="url(#pa462d04ee9)" style="fill: none; stroke: #1f77b4"/>
    <path d="M 153.796539 277.065201 
L 153.796539 269.69392 
" clip-path="url(#pa462d04ee9)" style="fill: none; stroke: #1f77b4"/>
    <path clip-path="url(#pa462d04ee9)" style="fill: none; stroke: #1f77b4"/>
    <path clip-path="url(#pa462d04ee9)" style="fill: none; stroke: #1f77b4"/>
   </g>
   <g id="LineCollection_2">
    <path clip-path="url(#pa462d04ee9)" style="fill: none; stroke: #000000"/>
    <path d="M 81.234484 301.651229 
L 81.234484 259.868564 
" clip-path="url(#pa462d04ee9)" style="fill: none; stroke: #000000"/>
    <path d="M 82.778357 232.810349 
L 82.778357 139.392497 
" clip-path="url(#pa462d04ee9)" style="fill: none; stroke: #000000"/>
    <path d="M 84.322231 194.704269 
L 84.322231 118.492109 
" clip-path="url(#pa462d04ee9)" style="fill: none; stroke: #000000"/>
    <path d="M 85.866104 202.084605 
L 85.866104 106.203622 
" clip-path="url(#pa462d04ee9)" style="fill: none; stroke: #000000"/>
    <path d="M 88.953851 202.084605 
L 88.953851 116.038034 
" clip-path="url(#pa462d04ee9)" style="fill: none; stroke: #000000"/>
    <path d="M 92.041598 204.53868 
L 92.041598 128.32652 
" clip-path="url(#pa462d04ee9)" style="fill: none; stroke: #000000"/>
    <path d="M 95.129345 198.398965 
L 95.129345 134.466235 
" clip-path="url(#pa462d04ee9)" style="fill: none; stroke: #000000"/>
    <path d="M 98.217092 209.455886 
L 98.217092 157.83881 
" clip-path="url(#pa462d04ee9)" style="fill: none; stroke: #000000"/>
    <path d="M 101.304839 221.753428 
L 101.304839 177.489521 
" clip-path="url(#pa462d04ee9)" style="fill: none; stroke: #000000"/>
    <path d="M 104.392586 230.356274 
L 104.392586 200.85304 
" clip-path="url(#pa462d04ee9)" style="fill: none; stroke: #000000"/>
    <path d="M 110.568081 243.876326 
L 110.568081 219.299353 
" clip-path="url(#pa462d04ee9)" style="fill: none; stroke: #000000"/>
    <path d="M 116.743575 257.396378 
L 116.743575 235.282536 
" clip-path="url(#pa462d04ee9)" style="fill: none; stroke: #000000"/>
    <path d="M 129.094563 273.37956 
L 129.094563 261.082018 
" clip-path="url(#pa462d04ee9)" style="fill: none; stroke: #000000"/>
    <path d="M 141.445551 281.982406 
L 141.445551 274.611125 
" clip-path="url(#pa462d04ee9)" style="fill: none; stroke: #000000"/>
    <path d="M 153.796539 289.362743 
L 153.796539 281.991462 
" clip-path="url(#pa462d04ee9)" style="fill: none; stroke: #000000"/>
    <path clip-path="url(#pa462d04ee9)" style="fill: none; stroke: #000000"/>
    <path clip-path="url(#pa462d04ee9)" style="fill: none; stroke: #000000"/>
   </g>
   <g id="line2d_13">
    <path d="M 79.69061 307.8 
L 80.30816 299.508326 
L 81.543258 255.943399 
L 82.778357 211.853697 
L 84.013456 178.156357 
L 84.631005 165.375271 
L 85.248555 155.013612 
L 85.866104 146.802801 
L 86.483654 140.47942 
L 87.101203 135.798653 
L 87.718752 132.539088 
L 88.336302 130.503418 
L 88.953851 129.517289 
L 89.571401 129.4274 
L 90.18895 130.099388 
L 90.8065 131.415745 
L 91.424049 133.273874 
L 92.659148 138.269209 
L 93.894247 144.500299 
L 95.746895 155.22985 
L 103.157488 200.311425 
L 105.627685 213.525069 
L 108.097883 225.405998 
L 110.568081 235.96256 
L 112.420729 243.054433 
L 114.273377 249.486636 
L 116.126025 255.307308 
L 117.978673 260.565663 
L 119.831322 265.309984 
L 121.68397 269.586425 
L 123.536618 273.438349 
L 126.006816 277.982999 
L 128.477013 281.93072 
L 130.947211 285.358252 
L 133.417409 288.333143 
L 135.887606 290.914574 
L 138.357804 293.154224 
L 140.828001 295.097133 
L 143.298199 296.782487 
L 146.385946 298.578456 
L 149.473693 300.081755 
L 152.56144 301.340035 
L 156.266737 302.582271 
L 159.972033 303.585645 
L 164.294879 304.515108 
L 169.235274 305.32912 
L 174.793219 306.006411 
L 181.586262 306.587515 
L 189.614405 307.03667 
L 200.112745 307.383214 
L 214.93393 307.622621 
L 239.018357 307.75574 
L 300.155749 307.798695 
L 388.465314 307.799992 
L 388.465314 307.799992 
" clip-path="url(#pa462d04ee9)" style="fill: none; stroke: #1f77b4; stroke-width: 2; stroke-linecap: square"/>
   </g>
   <g id="line2d_14">
    <path d="M 79.69061 306.568435 
L 81.234484 296.734023 
L 82.778357 204.53868 
L 84.322231 112.343338 
L 85.866104 111.120828 
L 88.953851 104.972057 
L 92.041598 92.674515 
L 95.129345 90.22044 
L 98.217092 106.203622 
L 101.304839 124.64088 
L 104.392586 145.532212 
L 110.568081 175.035446 
L 116.743575 200.85304 
L 129.094563 236.505045 
L 141.445551 258.627943 
L 153.796539 273.37956 
L 227.902468 299.197154 
L 376.114326 305.345925 
" clip-path="url(#pa462d04ee9)" style="fill: none; stroke-dasharray: 3.7,1.6; stroke-dashoffset: 0; stroke: #1f77b4"/>
    <defs>
     <path id="mc00fe3d8d0" d="M -3 3 
L 3 3 
L 3 -3 
L -3 -3 
z
" style="stroke: #000000; stroke-linejoin: miter"/>
    </defs>
    <g clip-path="url(#pa462d04ee9)">
     <use xlink:href="#mc00fe3d8d0" x="79.69061" y="306.568435" style="fill: #1f77b4; stroke: #000000; stroke-linejoin: miter"/>
     <use xlink:href="#mc00fe3d8d0" x="81.234484" y="296.734023" style="fill: #1f77b4; stroke: #000000; stroke-linejoin: miter"/>
     <use xlink:href="#mc00fe3d8d0" x="82.778357" y="204.53868" style="fill: #1f77b4; stroke: #000000; stroke-linejoin: miter"/>
     <use xlink:href="#mc00fe3d8d0" x="84.322231" y="112.343338" style="fill: #1f77b4; stroke: #000000; stroke-linejoin: miter"/>
     <use xlink:href="#mc00fe3d8d0" x="85.866104" y="111.120828" style="fill: #1f77b4; stroke: #000000; stroke-linejoin: miter"/>
     <use xlink:href="#mc00fe3d8d0" x="88.953851" y="104.972057" style="fill: #1f77b4; stroke: #000000; stroke-linejoin: miter"/>
     <use xlink:href="#mc00fe3d8d0" x="92.041598" y="92.674515" style="fill: #1f77b4; stroke: #000000; stroke-linejoin: miter"/>
     <use xlink:href="#mc00fe3d8d0" x="95.129345" y="90.22044" style="fill: #1f77b4; stroke: #000000; stroke-linejoin: miter"/>
     <use xlink:href="#mc00fe3d8d0" x="98.217092" y="106.203622" style="fill: #1f77b4; stroke: #000000; stroke-linejoin: miter"/>
     <use xlink:href="#mc00fe3d8d0" x="101.304839" y="124.64088" style="fill: #1f77b4; stroke: #000000; stroke-linejoin: miter"/>
     <use xlink:href="#mc00fe3d8d0" x="104.392586" y="145.532212" style="fill: #1f77b4; stroke: #000000; stroke-linejoin: miter"/>
     <use xlink:href="#mc00fe3d8d0" x="110.568081" y="175.035446" style="fill: #1f77b4; stroke: #000000; stroke-linejoin: miter"/>
     <use xlink:href="#mc00fe3d8d0" x="116.743575" y="200.85304" style="fill: #1f77b4; stroke: #000000; stroke-linejoin: miter"/>
     <use xlink:href="#mc00fe3d8d0" x="129.094563" y="236.505045" style="fill: #1f77b4; stroke: #000000; stroke-linejoin: miter"/>
     <use xlink:href="#mc00fe3d8d0" x="141.445551" y="258.627943" style="fill: #1f77b4; stroke: #000000; stroke-linejoin: miter"/>
     <use xlink:href="#mc00fe3d8d0" x="153.796539" y="273.37956" style="fill: #1f77b4; stroke: #000000; stroke-linejoin: miter"/>
     <use xlink:href="#mc00fe3d8d0" x="227.902468" y="299.197154" style="fill: #1f77b4; stroke: #000000; stroke-linejoin: miter"/>
     <use xlink:href="#mc00fe3d8d0" x="376.114326" y="305.345925" style="fill: #1f77b4; stroke: #000000; stroke-linejoin: miter"/>
    </g>
   </g>
   <g id="line2d_15">
    <path d="M 79.69061 307.8 
L 80.30816 299.508326 
L 81.543258 255.943399 
L 82.778357 211.853697 
L 84.013456 178.156357 
L 84.631005 165.375271 
L 85.248555 155.013612 
L 85.866104 146.802801 
L 86.483654 140.47942 
L 87.101203 135.798653 
L 87.718752 132.539088 
L 88.336302 130.503418 
L 88.953851 129.517289 
L 89.571401 129.4274 
L 90.18895 130.099388 
L 90.8065 131.415745 
L 91.424049 133.273874 
L 92.659148 138.269209 
L 93.894247 144.500299 
L 95.746895 155.22985 
L 103.157488 200.311425 
L 105.627685 213.525069 
L 108.097883 225.405998 
L 110.568081 235.96256 
L 112.420729 243.054433 
L 114.273377 249.486636 
L 116.126025 255.307308 
L 117.978673 260.565663 
L 119.831322 265.309984 
L 121.68397 269.586425 
L 123.536618 273.438349 
L 126.006816 277.982999 
L 128.477013 281.93072 
L 130.947211 285.358252 
L 133.417409 288.333143 
L 135.887606 290.914574 
L 138.357804 293.154224 
L 140.828001 295.097133 
L 143.298199 296.782487 
L 146.385946 298.578456 
L 149.473693 300.081755 
L 152.56144 301.340035 
L 156.266737 302.582271 
L 159.972033 303.585645 
L 164.294879 304.515108 
L 169.235274 305.32912 
L 174.793219 306.006411 
L 181.586262 306.587515 
L 189.614405 307.03667 
L 200.112745 307.383214 
L 214.93393 307.622621 
L 239.018357 307.75574 
L 300.155749 307.798695 
L 388.465314 307.799992 
L 388.465314 307.799992 
" clip-path="url(#pa462d04ee9)" style="fill: none; stroke: #000000; stroke-width: 2; stroke-linecap: square"/>
   </g>
   <g id="line2d_16">
    <path d="M 79.69061 307.8 
L 81.234484 280.759897 
L 82.778357 186.101423 
L 84.322231 156.598189 
L 85.866104 154.144114 
L 88.953851 159.06132 
L 92.041598 166.4326 
L 95.129345 166.4326 
L 98.217092 183.647348 
L 101.304839 199.621475 
L 104.392586 215.604657 
L 110.568081 231.58784 
L 116.743575 246.339457 
L 129.094563 267.230789 
L 141.445551 278.296766 
L 153.796539 285.677102 
L 227.902468 300.428719 
L 376.114326 305.345925 
" clip-path="url(#pa462d04ee9)" style="fill: none; stroke-dasharray: 3.7,1.6; stroke-dashoffset: 0; stroke: #000000"/>
    <defs>
     <path id="m4a1267affd" d="M -3 3 
L 3 3 
L 3 -3 
L -3 -3 
z
" style="stroke: #000000; stroke-linejoin: miter"/>
    </defs>
    <g clip-path="url(#pa462d04ee9)">
     <use xlink:href="#m4a1267affd" x="79.69061" y="307.8" style="stroke: #000000; stroke-linejoin: miter"/>
     <use xlink:href="#m4a1267affd" x="81.234484" y="280.759897" style="stroke: #000000; stroke-linejoin: miter"/>
     <use xlink:href="#m4a1267affd" x="82.778357" y="186.101423" style="stroke: #000000; stroke-linejoin: miter"/>
     <use xlink:href="#m4a1267affd" x="84.322231" y="156.598189" style="stroke: #000000; stroke-linejoin: miter"/>
     <use xlink:href="#m4a1267affd" x="85.866104" y="154.144114" style="stroke: #000000; stroke-linejoin: miter"/>
     <use xlink:href="#m4a1267affd" x="88.953851" y="159.06132" style="stroke: #000000; stroke-linejoin: miter"/>
     <use xlink:href="#m4a1267affd" x="92.041598" y="166.4326" style="stroke: #000000; stroke-linejoin: miter"/>
     <use xlink:href="#m4a1267affd" x="95.129345" y="166.4326" style="stroke: #000000; stroke-linejoin: miter"/>
     <use xlink:href="#m4a1267affd" x="98.217092" y="183.647348" style="stroke: #000000; stroke-linejoin: miter"/>
     <use xlink:href="#m4a1267affd" x="101.304839" y="199.621475" style="stroke: #000000; stroke-linejoin: miter"/>
     <use xlink:href="#m4a1267affd" x="104.392586" y="215.604657" style="stroke: #000000; stroke-linejoin: miter"/>
     <use xlink:href="#m4a1267affd" x="110.568081" y="231.58784" style="stroke: #000000; stroke-linejoin: miter"/>
     <use xlink:href="#m4a1267affd" x="116.743575" y="246.339457" style="stroke: #000000; stroke-linejoin: miter"/>
     <use xlink:href="#m4a1267affd" x="129.094563" y="267.230789" style="stroke: #000000; stroke-linejoin: miter"/>
     <use xlink:href="#m4a1267affd" x="141.445551" y="278.296766" style="stroke: #000000; stroke-linejoin: miter"/>
     <use xlink:href="#m4a1267affd" x="153.796539" y="285.677102" style="stroke: #000000; stroke-linejoin: miter"/>
     <use xlink:href="#m4a1267affd" x="227.902468" y="300.428719" style="stroke: #000000; stroke-linejoin: miter"/>
     <use xlink:href="#m4a1267affd" x="376.114326" y="305.345925" style="stroke: #000000; stroke-linejoin: miter"/>
    </g>
   </g>
   <g id="patch_3">
    <path d="M 64.251875 320.4 
L 64.251875 43.2 
" style="fill: none; stroke: #000000; stroke-width: 0.8; stroke-linejoin: miter; stroke-linecap: square"/>
   </g>
   <g id="patch_4">
    <path d="M 403.904049 320.4 
L 403.904049 43.2 
" style="fill: none; stroke: #000000; stroke-width: 0.8; stroke-linejoin: miter; stroke-linecap: square"/>
   </g>
   <g id="patch_5">
    <path d="M 64.251875 320.4 
L 403.904049 320.4 
" style="fill: none; stroke: #000000; stroke-width: 0.8; stroke-linejoin: miter; stroke-linecap: square"/>
   </g>
   <g id="patch_6">
    <path d="M 64.251875 43.2 
L 403.904049 43.2 
" style="fill: none; stroke: #000000; stroke-width: 0.8; stroke-linejoin: miter; stroke-linecap: square"/>
   </g>
   <g id="legend_1">
    <g id="patch_7">
     <path d="M 236.511861 109.9125 
L 396.904049 109.9125 
Q 398.904049 109.9125 398.904049 107.9125 
L 398.904049 50.2 
Q 398.904049 48.2 396.904049 48.2 
L 236.511861 48.2 
Q 234.511861 48.2 234.511861 50.2 
L 234.511861 107.9125 
Q 234.511861 109.9125 236.511861 109.9125 
z
" style="fill: #ffffff; opacity: 0.8; stroke: #cccccc; stroke-linejoin: miter"/>
    </g>
    <g id="line2d_17">
     <path d="M 238.511861 56.298437 
L 258.511861 56.298437 
" style="fill: none; stroke: #1f77b4; stroke-width: 2; stroke-linecap: square"/>
    </g>
    <g id="line2d_18"/>
    <g id="text_15">
     <!-- EDO60, CLAR -->
     <g transform="translate(266.511861 59.798437) scale(0.1 -0.1)">
      <defs>
       <path id="DejaVuSans-45" d="M 628 4666 
L 3578 4666 
L 3578 4134 
L 1259 4134 
L 1259 2753 
L 3481 2753 
L 3481 2222 
L 1259 2222 
L 1259 531 
L 3634 531 
L 3634 0 
L 628 0 
L 628 4666 
z
" transform="scale(0.015625)"/>
       <path id="DejaVuSans-44" d="M 1259 4147 
L 1259 519 
L 2022 519 
Q 2988 519 3436 956 
Q 3884 1394 3884 2338 
Q 3884 3275 3436 3711 
Q 2988 4147 2022 4147 
L 1259 4147 
z
M 628 4666 
L 1925 4666 
Q 3281 4666 3915 4102 
Q 4550 3538 4550 2338 
Q 4550 1131 3912 565 
Q 3275 0 1925 0 
L 628 0 
L 628 4666 
z
" transform="scale(0.015625)"/>
       <path id="DejaVuSans-4f" d="M 2522 4238 
Q 1834 4238 1429 3725 
Q 1025 3213 1025 2328 
Q 1025 1447 1429 934 
Q 1834 422 2522 422 
Q 3209 422 3611 934 
Q 4013 1447 4013 2328 
Q 4013 3213 3611 3725 
Q 3209 4238 2522 4238 
z
M 2522 4750 
Q 3503 4750 4090 4092 
Q 4678 3434 4678 2328 
Q 4678 1225 4090 567 
Q 3503 -91 2522 -91 
Q 1538 -91 948 565 
Q 359 1222 359 2328 
Q 359 3434 948 4092 
Q 1538 4750 2522 4750 
z
" transform="scale(0.015625)"/>
       <path id="DejaVuSans-36" d="M 2113 2584 
Q 1688 2584 1439 2293 
Q 1191 2003 1191 1497 
Q 1191 994 1439 701 
Q 1688 409 2113 409 
Q 2538 409 2786 701 
Q 3034 994 3034 1497 
Q 3034 2003 2786 2293 
Q 2538 2584 2113 2584 
z
M 3366 4563 
L 3366 3988 
Q 3128 4100 2886 4159 
Q 2644 4219 2406 4219 
Q 1781 4219 1451 3797 
Q 1122 3375 1075 2522 
Q 1259 2794 1537 2939 
Q 1816 3084 2150 3084 
Q 2853 3084 3261 2657 
Q 3669 2231 3669 1497 
Q 3669 778 3244 343 
Q 2819 -91 2113 -91 
Q 1303 -91 875 529 
Q 447 1150 447 2328 
Q 447 3434 972 4092 
Q 1497 4750 2381 4750 
Q 2619 4750 2861 4703 
Q 3103 4656 3366 4563 
z
" transform="scale(0.015625)"/>
       <path id="DejaVuSans-2c" d="M 750 794 
L 1409 794 
L 1409 256 
L 897 -744 
L 494 -744 
L 750 256 
L 750 794 
z
" transform="scale(0.015625)"/>
       <path id="DejaVuSans-20" transform="scale(0.015625)"/>
       <path id="DejaVuSans-43" d="M 4122 4306 
L 4122 3641 
Q 3803 3938 3442 4084 
Q 3081 4231 2675 4231 
Q 1875 4231 1450 3742 
Q 1025 3253 1025 2328 
Q 1025 1406 1450 917 
Q 1875 428 2675 428 
Q 3081 428 3442 575 
Q 3803 722 4122 1019 
L 4122 359 
Q 3791 134 3420 21 
Q 3050 -91 2638 -91 
Q 1578 -91 968 557 
Q 359 1206 359 2328 
Q 359 3453 968 4101 
Q 1578 4750 2638 4750 
Q 3056 4750 3426 4639 
Q 3797 4528 4122 4306 
z
" transform="scale(0.015625)"/>
       <path id="DejaVuSans-4c" d="M 628 4666 
L 1259 4666 
L 1259 531 
L 3531 531 
L 3531 0 
L 628 0 
L 628 4666 
z
" transform="scale(0.015625)"/>
       <path id="DejaVuSans-41" d="M 2188 4044 
L 1331 1722 
L 3047 1722 
L 2188 4044 
z
M 1831 4666 
L 2547 4666 
L 4325 0 
L 3669 0 
L 3244 1197 
L 1141 1197 
L 716 0 
L 50 0 
L 1831 4666 
z
" transform="scale(0.015625)"/>
       <path id="DejaVuSans-52" d="M 2841 2188 
Q 3044 2119 3236 1894 
Q 3428 1669 3622 1275 
L 4263 0 
L 3584 0 
L 2988 1197 
Q 2756 1666 2539 1819 
Q 2322 1972 1947 1972 
L 1259 1972 
L 1259 0 
L 628 0 
L 628 4666 
L 2053 4666 
Q 2853 4666 3247 4331 
Q 3641 3997 3641 3322 
Q 3641 2881 3436 2590 
Q 3231 2300 2841 2188 
z
M 1259 4147 
L 1259 2491 
L 2053 2491 
Q 2509 2491 2742 2702 
Q 2975 2913 2975 3322 
Q 2975 3731 2742 3939 
Q 2509 4147 2053 4147 
L 1259 4147 
z
" transform="scale(0.015625)"/>
      </defs>
      <use xlink:href="#DejaVuSans-45"/>
      <use xlink:href="#DejaVuSans-44" transform="translate(63.183594 0)"/>
      <use xlink:href="#DejaVuSans-4f" transform="translate(140.185547 0)"/>
      <use xlink:href="#DejaVuSans-36" transform="translate(218.896484 0)"/>
      <use xlink:href="#DejaVuSans-30" transform="translate(282.519531 0)"/>
      <use xlink:href="#DejaVuSans-2c" transform="translate(346.142578 0)"/>
      <use xlink:href="#DejaVuSans-20" transform="translate(377.929688 0)"/>
      <use xlink:href="#DejaVuSans-43" transform="translate(409.716797 0)"/>
      <use xlink:href="#DejaVuSans-4c" transform="translate(479.541016 0)"/>
      <use xlink:href="#DejaVuSans-41" transform="translate(537.503906 0)"/>
      <use xlink:href="#DejaVuSans-52" transform="translate(605.912109 0)"/>
     </g>
    </g>
    <g id="LineCollection_3">
     <path d="M 248.511861 75.976562 
L 248.511861 65.976562 
" style="fill: none; stroke: #1f77b4"/>
    </g>
    <g id="line2d_19">
     <path d="M 238.511861 70.976562 
L 258.511861 70.976562 
" style="fill: none; stroke-dasharray: 3.7,1.6; stroke-dashoffset: 0; stroke: #1f77b4"/>
    </g>
    <g id="line2d_20">
     <g>
      <use xlink:href="#mc00fe3d8d0" x="248.511861" y="70.976562" style="fill: #1f77b4; stroke: #000000; stroke-linejoin: miter"/>
     </g>
    </g>
    <g id="text_16">
     <!-- EDO60, CLAR±SD (n=12) -->
     <g transform="translate(266.511861 74.476562) scale(0.1 -0.1)">
      <defs>
       <path id="DejaVuSans-b1" d="M 2944 4013 
L 2944 2803 
L 4684 2803 
L 4684 2272 
L 2944 2272 
L 2944 1063 
L 2419 1063 
L 2419 2272 
L 678 2272 
L 678 2803 
L 2419 2803 
L 2419 4013 
L 2944 4013 
z
M 678 531 
L 4684 531 
L 4684 0 
L 678 0 
L 678 531 
z
" transform="scale(0.015625)"/>
       <path id="DejaVuSans-53" d="M 3425 4513 
L 3425 3897 
Q 3066 4069 2747 4153 
Q 2428 4238 2131 4238 
Q 1616 4238 1336 4038 
Q 1056 3838 1056 3469 
Q 1056 3159 1242 3001 
Q 1428 2844 1947 2747 
L 2328 2669 
Q 3034 2534 3370 2195 
Q 3706 1856 3706 1288 
Q 3706 609 3251 259 
Q 2797 -91 1919 -91 
Q 1588 -91 1214 -16 
Q 841 59 441 206 
L 441 856 
Q 825 641 1194 531 
Q 1563 422 1919 422 
Q 2459 422 2753 634 
Q 3047 847 3047 1241 
Q 3047 1584 2836 1778 
Q 2625 1972 2144 2069 
L 1759 2144 
Q 1053 2284 737 2584 
Q 422 2884 422 3419 
Q 422 4038 858 4394 
Q 1294 4750 2059 4750 
Q 2388 4750 2728 4690 
Q 3069 4631 3425 4513 
z
" transform="scale(0.015625)"/>
       <path id="DejaVuSans-28" d="M 1984 4856 
Q 1566 4138 1362 3434 
Q 1159 2731 1159 2009 
Q 1159 1288 1364 580 
Q 1569 -128 1984 -844 
L 1484 -844 
Q 1016 -109 783 600 
Q 550 1309 550 2009 
Q 550 2706 781 3412 
Q 1013 4119 1484 4856 
L 1984 4856 
z
" transform="scale(0.015625)"/>
       <path id="DejaVuSans-6e" d="M 3513 2113 
L 3513 0 
L 2938 0 
L 2938 2094 
Q 2938 2591 2744 2837 
Q 2550 3084 2163 3084 
Q 1697 3084 1428 2787 
Q 1159 2491 1159 1978 
L 1159 0 
L 581 0 
L 581 3500 
L 1159 3500 
L 1159 2956 
Q 1366 3272 1645 3428 
Q 1925 3584 2291 3584 
Q 2894 3584 3203 3211 
Q 3513 2838 3513 2113 
z
" transform="scale(0.015625)"/>
       <path id="DejaVuSans-3d" d="M 678 2906 
L 4684 2906 
L 4684 2381 
L 678 2381 
L 678 2906 
z
M 678 1631 
L 4684 1631 
L 4684 1100 
L 678 1100 
L 678 1631 
z
" transform="scale(0.015625)"/>
       <path id="DejaVuSans-29" d="M 513 4856 
L 1013 4856 
Q 1481 4119 1714 3412 
Q 1947 2706 1947 2009 
Q 1947 1309 1714 600 
Q 1481 -109 1013 -844 
L 513 -844 
Q 928 -128 1133 580 
Q 1338 1288 1338 2009 
Q 1338 2731 1133 3434 
Q 928 4138 513 4856 
z
" transform="scale(0.015625)"/>
      </defs>
      <use xlink:href="#DejaVuSans-45"/>
      <use xlink:href="#DejaVuSans-44" transform="translate(63.183594 0)"/>
      <use xlink:href="#DejaVuSans-4f" transform="translate(140.185547 0)"/>
      <use xlink:href="#DejaVuSans-36" transform="translate(218.896484 0)"/>
      <use xlink:href="#DejaVuSans-30" transform="translate(282.519531 0)"/>
      <use xlink:href="#DejaVuSans-2c" transform="translate(346.142578 0)"/>
      <use xlink:href="#DejaVuSans-20" transform="translate(377.929688 0)"/>
      <use xlink:href="#DejaVuSans-43" transform="translate(409.716797 0)"/>
      <use xlink:href="#DejaVuSans-4c" transform="translate(479.541016 0)"/>
      <use xlink:href="#DejaVuSans-41" transform="translate(537.503906 0)"/>
      <use xlink:href="#DejaVuSans-52" transform="translate(605.912109 0)"/>
      <use xlink:href="#DejaVuSans-b1" transform="translate(675.394531 0)"/>
      <use xlink:href="#DejaVuSans-53" transform="translate(759.183594 0)"/>
      <use xlink:href="#DejaVuSans-44" transform="translate(822.660156 0)"/>
      <use xlink:href="#DejaVuSans-20" transform="translate(899.662109 0)"/>
      <use xlink:href="#DejaVuSans-28" transform="translate(931.449219 0)"/>
      <use xlink:href="#DejaVuSans-6e" transform="translate(970.462891 0)"/>
      <use xlink:href="#DejaVuSans-3d" transform="translate(1033.841797 0)"/>
      <use xlink:href="#DejaVuSans-31" transform="translate(1117.630859 0)"/>
      <use xlink:href="#DejaVuSans-32" transform="translate(1181.253906 0)"/>
      <use xlink:href="#DejaVuSans-29" transform="translate(1244.876953 0)"/>
     </g>
    </g>
    <g id="line2d_21">
     <path d="M 238.511861 85.654687 
L 258.511861 85.654687 
" style="fill: none; stroke: #000000; stroke-width: 2; stroke-linecap: square"/>
    </g>
    <g id="line2d_22"/>
    <g id="text_17">
     <!-- EDO60 -->
     <g transform="translate(266.511861 89.154687) scale(0.1 -0.1)">
      <use xlink:href="#DejaVuSans-45"/>
      <use xlink:href="#DejaVuSans-44" transform="translate(63.183594 0)"/>
      <use xlink:href="#DejaVuSans-4f" transform="translate(140.185547 0)"/>
      <use xlink:href="#DejaVuSans-36" transform="translate(218.896484 0)"/>
      <use xlink:href="#DejaVuSans-30" transform="translate(282.519531 0)"/>
     </g>
    </g>
    <g id="LineCollection_4">
     <path d="M 248.511861 105.332812 
L 248.511861 95.332812 
" style="fill: none; stroke: #000000"/>
    </g>
    <g id="line2d_23">
     <path d="M 238.511861 100.332812 
L 258.511861 100.332812 
" style="fill: none; stroke-dasharray: 3.7,1.6; stroke-dashoffset: 0; stroke: #000000"/>
    </g>
    <g id="line2d_24">
     <g>
      <use xlink:href="#m4a1267affd" x="248.511861" y="100.332812" style="stroke: #000000; stroke-linejoin: miter"/>
     </g>
    </g>
    <g id="text_18">
     <!-- EDO60±SD (n=12) -->
     <g transform="translate(266.511861 103.832812) scale(0.1 -0.1)">
      <use xlink:href="#DejaVuSans-45"/>
      <use xlink:href="#DejaVuSans-44" transform="translate(63.183594 0)"/>
      <use xlink:href="#DejaVuSans-4f" transform="translate(140.185547 0)"/>
      <use xlink:href="#DejaVuSans-36" transform="translate(218.896484 0)"/>
      <use xlink:href="#DejaVuSans-30" transform="translate(282.519531 0)"/>
      <use xlink:href="#DejaVuSans-b1" transform="translate(346.142578 0)"/>
      <use xlink:href="#DejaVuSans-53" transform="translate(429.931641 0)"/>
      <use xlink:href="#DejaVuSans-44" transform="translate(493.408203 0)"/>
      <use xlink:href="#DejaVuSans-20" transform="translate(570.410156 0)"/>
      <use xlink:href="#DejaVuSans-28" transform="translate(602.197266 0)"/>
      <use xlink:href="#DejaVuSans-6e" transform="translate(641.210938 0)"/>
      <use xlink:href="#DejaVuSans-3d" transform="translate(704.589844 0)"/>
      <use xlink:href="#DejaVuSans-31" transform="translate(788.378906 0)"/>
      <use xlink:href="#DejaVuSans-32" transform="translate(852.001953 0)"/>
      <use xlink:href="#DejaVuSans-29" transform="translate(915.625 0)"/>
     </g>
    </g>
   </g>
  </g>
  <g id="axes_2">
   <g id="patch_8">
    <path d="M 505.799701 320.4 
L 845.451875 320.4 
L 845.451875 43.2 
L 505.799701 43.2 
z
" style="fill: #ffffff"/>
   </g>
   <g id="matplotlib.axis_3">
    <g id="xtick_7">
     <g id="line2d_25">
      <g>
       <use xlink:href="#m432eb8acc9" x="521.238436" y="320.4" style="stroke: #000000; stroke-width: 0.8"/>
      </g>
     </g>
     <g id="text_19">
      <!-- 0 -->
      <g transform="translate(516.466561 338.797656) scale(0.15 -0.15)">
       <use xlink:href="#DejaVuSans-30"/>
      </g>
     </g>
    </g>
    <g id="xtick_8">
     <g id="line2d_26">
      <g>
       <use xlink:href="#m432eb8acc9" x="582.993377" y="320.4" style="stroke: #000000; stroke-width: 0.8"/>
      </g>
     </g>
     <g id="text_20">
      <!-- 10 -->
      <g transform="translate(573.449627 338.797656) scale(0.15 -0.15)">
       <use xlink:href="#DejaVuSans-31"/>
       <use xlink:href="#DejaVuSans-30" transform="translate(63.623047 0)"/>
      </g>
     </g>
    </g>
    <g id="xtick_9">
     <g id="line2d_27">
      <g>
       <use xlink:href="#m432eb8acc9" x="644.748318" y="320.4" style="stroke: #000000; stroke-width: 0.8"/>
      </g>
     </g>
     <g id="text_21">
      <!-- 20 -->
      <g transform="translate(635.204568 338.797656) scale(0.15 -0.15)">
       <use xlink:href="#DejaVuSans-32"/>
       <use xlink:href="#DejaVuSans-30" transform="translate(63.623047 0)"/>
      </g>
     </g>
    </g>
    <g id="xtick_10">
     <g id="line2d_28">
      <g>
       <use xlink:href="#m432eb8acc9" x="706.503258" y="320.4" style="stroke: #000000; stroke-width: 0.8"/>
      </g>
     </g>
     <g id="text_22">
      <!-- 30 -->
      <g transform="translate(696.959508 338.797656) scale(0.15 -0.15)">
       <use xlink:href="#DejaVuSans-33"/>
       <use xlink:href="#DejaVuSans-30" transform="translate(63.623047 0)"/>
      </g>
     </g>
    </g>
    <g id="xtick_11">
     <g id="line2d_29">
      <g>
       <use xlink:href="#m432eb8acc9" x="768.258199" y="320.4" style="stroke: #000000; stroke-width: 0.8"/>
      </g>
     </g>
     <g id="text_23">
      <!-- 40 -->
      <g transform="translate(758.714449 338.797656) scale(0.15 -0.15)">
       <use xlink:href="#DejaVuSans-34"/>
       <use xlink:href="#DejaVuSans-30" transform="translate(63.623047 0)"/>
      </g>
     </g>
    </g>
    <g id="xtick_12">
     <g id="line2d_30">
      <g>
       <use xlink:href="#m432eb8acc9" x="830.01314" y="320.4" style="stroke: #000000; stroke-width: 0.8"/>
      </g>
     </g>
     <g id="text_24">
      <!-- 50 -->
      <g transform="translate(820.46939 338.797656) scale(0.15 -0.15)">
       <use xlink:href="#DejaVuSans-35"/>
       <use xlink:href="#DejaVuSans-30" transform="translate(63.623047 0)"/>
      </g>
     </g>
    </g>
    <g id="text_25">
     <!-- time [hr] -->
     <g transform="translate(630.551257 359.594375) scale(0.18 -0.18)">
      <use xlink:href="#DejaVuSans-Bold-74"/>
      <use xlink:href="#DejaVuSans-Bold-69" transform="translate(47.802734 0)"/>
      <use xlink:href="#DejaVuSans-Bold-6d" transform="translate(82.080078 0)"/>
      <use xlink:href="#DejaVuSans-Bold-65" transform="translate(186.279297 0)"/>
      <use xlink:href="#DejaVuSans-Bold-20" transform="translate(254.101562 0)"/>
      <use xlink:href="#DejaVuSans-Bold-5b" transform="translate(288.916016 0)"/>
      <use xlink:href="#DejaVuSans-Bold-68" transform="translate(334.619141 0)"/>
      <use xlink:href="#DejaVuSans-Bold-72" transform="translate(405.810547 0)"/>
      <use xlink:href="#DejaVuSans-Bold-5d" transform="translate(455.126953 0)"/>
     </g>
    </g>
   </g>
   <g id="matplotlib.axis_4">
    <g id="ytick_7">
     <g id="line2d_31">
      <g>
       <use xlink:href="#m26f9370881" x="505.799701" y="307.8" style="stroke: #000000; stroke-width: 0.8"/>
      </g>
     </g>
     <g id="text_26">
      <!-- 0.0 -->
      <g transform="translate(474.945014 313.498828) scale(0.15 -0.15)">
       <defs>
        <path id="DejaVuSans-2e" d="M 684 794 
L 1344 794 
L 1344 0 
L 684 0 
L 684 794 
z
" transform="scale(0.015625)"/>
       </defs>
       <use xlink:href="#DejaVuSans-30"/>
       <use xlink:href="#DejaVuSans-2e" transform="translate(63.623047 0)"/>
       <use xlink:href="#DejaVuSans-30" transform="translate(95.410156 0)"/>
      </g>
     </g>
    </g>
    <g id="ytick_8">
     <g id="line2d_32">
      <g>
       <use xlink:href="#m26f9370881" x="505.799701" y="247.35904" style="stroke: #000000; stroke-width: 0.8"/>
      </g>
     </g>
     <g id="text_27">
      <!-- 0.2 -->
      <g transform="translate(474.945014 253.057868) scale(0.15 -0.15)">
       <use xlink:href="#DejaVuSans-30"/>
       <use xlink:href="#DejaVuSans-2e" transform="translate(63.623047 0)"/>
       <use xlink:href="#DejaVuSans-32" transform="translate(95.410156 0)"/>
      </g>
     </g>
    </g>
    <g id="ytick_9">
     <g id="line2d_33">
      <g>
       <use xlink:href="#m26f9370881" x="505.799701" y="186.91808" style="stroke: #000000; stroke-width: 0.8"/>
      </g>
     </g>
     <g id="text_28">
      <!-- 0.4 -->
      <g transform="translate(474.945014 192.616908) scale(0.15 -0.15)">
       <use xlink:href="#DejaVuSans-30"/>
       <use xlink:href="#DejaVuSans-2e" transform="translate(63.623047 0)"/>
       <use xlink:href="#DejaVuSans-34" transform="translate(95.410156 0)"/>
      </g>
     </g>
    </g>
    <g id="ytick_10">
     <g id="line2d_34">
      <g>
       <use xlink:href="#m26f9370881" x="505.799701" y="126.47712" style="stroke: #000000; stroke-width: 0.8"/>
      </g>
     </g>
     <g id="text_29">
      <!-- 0.6 -->
      <g transform="translate(474.945014 132.175948) scale(0.15 -0.15)">
       <use xlink:href="#DejaVuSans-30"/>
       <use xlink:href="#DejaVuSans-2e" transform="translate(63.623047 0)"/>
       <use xlink:href="#DejaVuSans-36" transform="translate(95.410156 0)"/>
      </g>
     </g>
    </g>
    <g id="ytick_11">
     <g id="line2d_35">
      <g>
       <use xlink:href="#m26f9370881" x="505.799701" y="66.036159" style="stroke: #000000; stroke-width: 0.8"/>
      </g>
     </g>
     <g id="text_30">
      <!-- 0.8 -->
      <g transform="translate(474.945014 71.734988) scale(0.15 -0.15)">
       <defs>
        <path id="DejaVuSans-38" d="M 2034 2216 
Q 1584 2216 1326 1975 
Q 1069 1734 1069 1313 
Q 1069 891 1326 650 
Q 1584 409 2034 409 
Q 2484 409 2743 651 
Q 3003 894 3003 1313 
Q 3003 1734 2745 1975 
Q 2488 2216 2034 2216 
z
M 1403 2484 
Q 997 2584 770 2862 
Q 544 3141 544 3541 
Q 544 4100 942 4425 
Q 1341 4750 2034 4750 
Q 2731 4750 3128 4425 
Q 3525 4100 3525 3541 
Q 3525 3141 3298 2862 
Q 3072 2584 2669 2484 
Q 3125 2378 3379 2068 
Q 3634 1759 3634 1313 
Q 3634 634 3220 271 
Q 2806 -91 2034 -91 
Q 1263 -91 848 271 
Q 434 634 434 1313 
Q 434 1759 690 2068 
Q 947 2378 1403 2484 
z
M 1172 3481 
Q 1172 3119 1398 2916 
Q 1625 2713 2034 2713 
Q 2441 2713 2670 2916 
Q 2900 3119 2900 3481 
Q 2900 3844 2670 4047 
Q 2441 4250 2034 4250 
Q 1625 4250 1398 4047 
Q 1172 3844 1172 3481 
z
" transform="scale(0.015625)"/>
       </defs>
       <use xlink:href="#DejaVuSans-30"/>
       <use xlink:href="#DejaVuSans-2e" transform="translate(63.623047 0)"/>
       <use xlink:href="#DejaVuSans-38" transform="translate(95.410156 0)"/>
      </g>
     </g>
    </g>
    <g id="text_31">
     <!-- edoxaban plasma [nM] -->
     <g transform="translate(467.201576 297.59625) rotate(-90) scale(0.18 -0.18)">
      <use xlink:href="#DejaVuSans-Bold-65"/>
      <use xlink:href="#DejaVuSans-Bold-64" transform="translate(67.822266 0)"/>
      <use xlink:href="#DejaVuSans-Bold-6f" transform="translate(139.404297 0)"/>
      <use xlink:href="#DejaVuSans-Bold-78" transform="translate(208.105469 0)"/>
      <use xlink:href="#DejaVuSans-Bold-61" transform="translate(272.607422 0)"/>
      <use xlink:href="#DejaVuSans-Bold-62" transform="translate(340.087891 0)"/>
      <use xlink:href="#DejaVuSans-Bold-61" transform="translate(411.669922 0)"/>
      <use xlink:href="#DejaVuSans-Bold-6e" transform="translate(479.150391 0)"/>
      <use xlink:href="#DejaVuSans-Bold-20" transform="translate(550.341797 0)"/>
      <use xlink:href="#DejaVuSans-Bold-70" transform="translate(585.15625 0)"/>
      <use xlink:href="#DejaVuSans-Bold-6c" transform="translate(656.738281 0)"/>
      <use xlink:href="#DejaVuSans-Bold-61" transform="translate(691.015625 0)"/>
      <use xlink:href="#DejaVuSans-Bold-73" transform="translate(758.496094 0)"/>
      <use xlink:href="#DejaVuSans-Bold-6d" transform="translate(818.017578 0)"/>
      <use xlink:href="#DejaVuSans-Bold-61" transform="translate(922.216797 0)"/>
      <use xlink:href="#DejaVuSans-Bold-20" transform="translate(989.697266 0)"/>
      <use xlink:href="#DejaVuSans-Bold-5b" transform="translate(1024.511719 0)"/>
      <use xlink:href="#DejaVuSans-Bold-6e" transform="translate(1070.214844 0)"/>
      <use xlink:href="#DejaVuSans-Bold-4d" transform="translate(1141.40625 0)"/>
      <use xlink:href="#DejaVuSans-Bold-5d" transform="translate(1240.917969 0)"/>
     </g>
    </g>
   </g>
   <g id="LineCollection_5">
    <path clip-path="url(#pe1c2a41ca4)" style="fill: none; stroke: #1f77b4"/>
    <path d="M 522.78231 296.578801 
L 522.78231 181.797243 
" clip-path="url(#pe1c2a41ca4)" style="fill: none; stroke: #1f77b4"/>
    <path d="M 524.326183 219.221457 
L 524.326183 91.978027 
" clip-path="url(#pe1c2a41ca4)" style="fill: none; stroke: #1f77b4"/>
    <path d="M 525.870057 220.473158 
L 525.870057 55.8 
" clip-path="url(#pe1c2a41ca4)" style="fill: none; stroke: #1f77b4"/>
    <path d="M 527.41393 193.02947 
L 527.41393 95.716588 
" clip-path="url(#pe1c2a41ca4)" style="fill: none; stroke: #1f77b4"/>
    <path d="M 530.501677 195.51633 
L 530.501677 108.195002 
" clip-path="url(#pe1c2a41ca4)" style="fill: none; stroke: #1f77b4"/>
    <path d="M 533.589424 190.531581 
L 533.589424 120.667902 
" clip-path="url(#pe1c2a41ca4)" style="fill: none; stroke: #1f77b4"/>
    <path d="M 536.677171 183.04343 
L 536.677171 118.175528 
" clip-path="url(#pe1c2a41ca4)" style="fill: none; stroke: #1f77b4"/>
    <path d="M 539.764918 199.260406 
L 539.764918 141.880655 
" clip-path="url(#pe1c2a41ca4)" style="fill: none; stroke: #1f77b4"/>
    <path d="M 542.852666 205.496856 
L 542.852666 158.09763 
" clip-path="url(#pe1c2a41ca4)" style="fill: none; stroke: #1f77b4"/>
    <path d="M 545.940413 217.97527 
L 545.940413 183.048944 
" clip-path="url(#pe1c2a41ca4)" style="fill: none; stroke: #1f77b4"/>
    <path d="M 552.115907 231.705385 
L 552.115907 206.748557 
" clip-path="url(#pe1c2a41ca4)" style="fill: none; stroke: #1f77b4"/>
    <path d="M 558.291401 250.414735 
L 558.291401 222.965532 
" clip-path="url(#pe1c2a41ca4)" style="fill: none; stroke: #1f77b4"/>
    <path d="M 570.642389 266.63171 
L 570.642389 259.143559 
" clip-path="url(#pe1c2a41ca4)" style="fill: none; stroke: #1f77b4"/>
    <path d="M 582.993377 282.848686 
L 582.993377 270.375786 
" clip-path="url(#pe1c2a41ca4)" style="fill: none; stroke: #1f77b4"/>
    <path clip-path="url(#pe1c2a41ca4)" style="fill: none; stroke: #1f77b4"/>
    <path clip-path="url(#pe1c2a41ca4)" style="fill: none; stroke: #1f77b4"/>
   </g>
   <g id="LineCollection_6">
    <path clip-path="url(#pe1c2a41ca4)" style="fill: none; stroke: #000000"/>
    <path d="M 522.78231 295.3271 
L 522.78231 277.858423 
" clip-path="url(#pe1c2a41ca4)" style="fill: none; stroke: #000000"/>
    <path d="M 524.326183 265.385523 
L 524.326183 250.409221 
" clip-path="url(#pe1c2a41ca4)" style="fill: none; stroke: #000000"/>
    <path d="M 525.870057 246.670659 
L 525.870057 226.709608 
" clip-path="url(#pe1c2a41ca4)" style="fill: none; stroke: #000000"/>
    <path d="M 527.41393 240.434209 
L 527.41393 210.492633 
" clip-path="url(#pe1c2a41ca4)" style="fill: none; stroke: #000000"/>
    <path d="M 530.501677 246.670659 
L 530.501677 224.217234 
" clip-path="url(#pe1c2a41ca4)" style="fill: none; stroke: #000000"/>
    <path d="M 533.589424 254.153296 
L 533.589424 226.715122 
" clip-path="url(#pe1c2a41ca4)" style="fill: none; stroke: #000000"/>
    <path d="M 536.677171 251.660922 
L 536.677171 224.21172 
" clip-path="url(#pe1c2a41ca4)" style="fill: none; stroke: #000000"/>
    <path d="M 539.764918 251.660922 
L 539.764918 229.207497 
" clip-path="url(#pe1c2a41ca4)" style="fill: none; stroke: #000000"/>
    <path d="M 542.852666 252.907109 
L 542.852666 235.449461 
" clip-path="url(#pe1c2a41ca4)" style="fill: none; stroke: #000000"/>
    <path d="M 545.940413 256.651185 
L 545.940413 241.685911 
" clip-path="url(#pe1c2a41ca4)" style="fill: none; stroke: #000000"/>
    <path d="M 552.115907 264.133822 
L 552.115907 251.660922 
" clip-path="url(#pe1c2a41ca4)" style="fill: none; stroke: #000000"/>
    <path d="M 558.291401 271.621973 
L 558.291401 261.641448 
" clip-path="url(#pe1c2a41ca4)" style="fill: none; stroke: #000000"/>
    <path clip-path="url(#pe1c2a41ca4)" style="fill: none; stroke: #000000"/>
    <path clip-path="url(#pe1c2a41ca4)" style="fill: none; stroke: #000000"/>
    <path clip-path="url(#pe1c2a41ca4)" style="fill: none; stroke: #000000"/>
    <path clip-path="url(#pe1c2a41ca4)" style="fill: none; stroke: #000000"/>
   </g>
   <g id="line2d_36">
    <path d="M 521.238436 307.8 
L 521.855986 303.592568 
L 523.091084 281.486471 
L 524.326183 259.114088 
L 525.561282 242.015091 
L 526.178832 235.5296 
L 526.796381 230.271797 
L 527.41393 226.105397 
L 528.03148 222.896732 
L 528.649029 220.521575 
L 529.266579 218.867579 
L 529.884128 217.834622 
L 530.501677 217.334232 
L 531.119227 217.28862 
L 531.736776 217.629606 
L 532.354326 218.297563 
L 532.971875 219.240432 
L 534.206974 221.775208 
L 535.442073 224.937042 
L 537.294721 230.381525 
L 545.322863 254.995041 
L 547.793061 261.533419 
L 550.263258 267.392014 
L 552.733456 272.585795 
L 555.203654 277.157872 
L 557.673851 281.163701 
L 560.144049 284.662208 
L 562.614247 287.710994 
L 565.084444 290.363911 
L 567.554642 292.669997 
L 570.024839 294.673184 
L 572.495037 296.412412 
L 574.965235 297.921958 
L 578.052982 299.531277 
L 581.140729 300.878771 
L 584.228476 302.006864 
L 587.933772 303.120724 
L 592.256618 304.15264 
L 596.579464 304.957025 
L 601.519859 305.661515 
L 607.695353 306.301971 
L 615.105946 306.822728 
L 624.369187 307.227027 
L 636.720175 307.518837 
L 655.246658 307.703352 
L 690.446974 307.787293 
L 830.01314 307.799996 
L 830.01314 307.799996 
" clip-path="url(#pe1c2a41ca4)" style="fill: none; stroke: #1f77b4; stroke-width: 2; stroke-linecap: square"/>
   </g>
   <g id="line2d_37">
    <path d="M 521.238436 305.307626 
L 522.78231 239.188022 
L 524.326183 155.599742 
L 525.870057 138.136579 
L 527.41393 144.373029 
L 530.501677 151.855666 
L 533.589424 155.599742 
L 536.677171 150.609479 
L 539.764918 170.57053 
L 542.852666 181.797243 
L 545.940413 200.512107 
L 552.115907 219.226971 
L 558.291401 236.690134 
L 570.642389 262.887635 
L 582.993377 276.612236 
L 595.344365 285.346574 
L 669.450294 300.317363 
" clip-path="url(#pe1c2a41ca4)" style="fill: none; stroke-dasharray: 3.7,1.6; stroke-dashoffset: 0; stroke: #1f77b4"/>
    <g clip-path="url(#pe1c2a41ca4)">
     <use xlink:href="#mc00fe3d8d0" x="521.238436" y="305.307626" style="fill: #1f77b4; stroke: #000000; stroke-linejoin: miter"/>
     <use xlink:href="#mc00fe3d8d0" x="522.78231" y="239.188022" style="fill: #1f77b4; stroke: #000000; stroke-linejoin: miter"/>
     <use xlink:href="#mc00fe3d8d0" x="524.326183" y="155.599742" style="fill: #1f77b4; stroke: #000000; stroke-linejoin: miter"/>
     <use xlink:href="#mc00fe3d8d0" x="525.870057" y="138.136579" style="fill: #1f77b4; stroke: #000000; stroke-linejoin: miter"/>
     <use xlink:href="#mc00fe3d8d0" x="527.41393" y="144.373029" style="fill: #1f77b4; stroke: #000000; stroke-linejoin: miter"/>
     <use xlink:href="#mc00fe3d8d0" x="530.501677" y="151.855666" style="fill: #1f77b4; stroke: #000000; stroke-linejoin: miter"/>
     <use xlink:href="#mc00fe3d8d0" x="533.589424" y="155.599742" style="fill: #1f77b4; stroke: #000000; stroke-linejoin: miter"/>
     <use xlink:href="#mc00fe3d8d0" x="536.677171" y="150.609479" style="fill: #1f77b4; stroke: #000000; stroke-linejoin: miter"/>
     <use xlink:href="#mc00fe3d8d0" x="539.764918" y="170.57053" style="fill: #1f77b4; stroke: #000000; stroke-linejoin: miter"/>
     <use xlink:href="#mc00fe3d8d0" x="542.852666" y="181.797243" style="fill: #1f77b4; stroke: #000000; stroke-linejoin: miter"/>
     <use xlink:href="#mc00fe3d8d0" x="545.940413" y="200.512107" style="fill: #1f77b4; stroke: #000000; stroke-linejoin: miter"/>
     <use xlink:href="#mc00fe3d8d0" x="552.115907" y="219.226971" style="fill: #1f77b4; stroke: #000000; stroke-linejoin: miter"/>
     <use xlink:href="#mc00fe3d8d0" x="558.291401" y="236.690134" style="fill: #1f77b4; stroke: #000000; stroke-linejoin: miter"/>
     <use xlink:href="#mc00fe3d8d0" x="570.642389" y="262.887635" style="fill: #1f77b4; stroke: #000000; stroke-linejoin: miter"/>
     <use xlink:href="#mc00fe3d8d0" x="582.993377" y="276.612236" style="fill: #1f77b4; stroke: #000000; stroke-linejoin: miter"/>
     <use xlink:href="#mc00fe3d8d0" x="595.344365" y="285.346574" style="fill: #1f77b4; stroke: #000000; stroke-linejoin: miter"/>
     <use xlink:href="#mc00fe3d8d0" x="669.450294" y="300.317363" style="fill: #1f77b4; stroke: #000000; stroke-linejoin: miter"/>
    </g>
   </g>
   <g id="line2d_38">
    <path d="M 521.238436 307.8 
L 521.855986 303.592568 
L 523.091084 281.486471 
L 524.326183 259.114088 
L 525.561282 242.015091 
L 526.178832 235.5296 
L 526.796381 230.271797 
L 527.41393 226.105397 
L 528.03148 222.896732 
L 528.649029 220.521575 
L 529.266579 218.867579 
L 529.884128 217.834622 
L 530.501677 217.334232 
L 531.119227 217.28862 
L 531.736776 217.629606 
L 532.354326 218.297563 
L 532.971875 219.240432 
L 534.206974 221.775208 
L 535.442073 224.937042 
L 537.294721 230.381525 
L 545.322863 254.995041 
L 547.793061 261.533419 
L 550.263258 267.392014 
L 552.733456 272.585795 
L 555.203654 277.157872 
L 557.673851 281.163701 
L 560.144049 284.662208 
L 562.614247 287.710994 
L 565.084444 290.363911 
L 567.554642 292.669997 
L 570.024839 294.673184 
L 572.495037 296.412412 
L 574.965235 297.921958 
L 578.052982 299.531277 
L 581.140729 300.878771 
L 584.228476 302.006864 
L 587.933772 303.120724 
L 592.256618 304.15264 
L 596.579464 304.957025 
L 601.519859 305.661515 
L 607.695353 306.301971 
L 615.105946 306.822728 
L 624.369187 307.227027 
L 636.720175 307.518837 
L 655.246658 307.703352 
L 690.446974 307.787293 
L 830.01314 307.799996 
L 830.01314 307.799996 
" clip-path="url(#pe1c2a41ca4)" style="fill: none; stroke: #000000; stroke-width: 2; stroke-linecap: square"/>
   </g>
   <g id="line2d_39">
    <path d="M 521.238436 307.8 
L 522.78231 286.592762 
L 524.326183 257.897372 
L 525.870057 236.690134 
L 527.41393 225.463421 
L 530.501677 235.443947 
L 533.589424 240.434209 
L 536.677171 237.936321 
L 539.764918 240.434209 
L 542.852666 244.178285 
L 545.940413 249.168548 
L 552.115907 257.897372 
L 558.291401 266.63171 
L 570.642389 281.602499 
L 582.993377 291.583024 
L 595.344365 295.3271 
L 669.450294 304.055924 
" clip-path="url(#pe1c2a41ca4)" style="fill: none; stroke-dasharray: 3.7,1.6; stroke-dashoffset: 0; stroke: #000000"/>
    <g clip-path="url(#pe1c2a41ca4)">
     <use xlink:href="#m4a1267affd" x="521.238436" y="307.8" style="stroke: #000000; stroke-linejoin: miter"/>
     <use xlink:href="#m4a1267affd" x="522.78231" y="286.592762" style="stroke: #000000; stroke-linejoin: miter"/>
     <use xlink:href="#m4a1267affd" x="524.326183" y="257.897372" style="stroke: #000000; stroke-linejoin: miter"/>
     <use xlink:href="#m4a1267affd" x="525.870057" y="236.690134" style="stroke: #000000; stroke-linejoin: miter"/>
     <use xlink:href="#m4a1267affd" x="527.41393" y="225.463421" style="stroke: #000000; stroke-linejoin: miter"/>
     <use xlink:href="#m4a1267affd" x="530.501677" y="235.443947" style="stroke: #000000; stroke-linejoin: miter"/>
     <use xlink:href="#m4a1267affd" x="533.589424" y="240.434209" style="stroke: #000000; stroke-linejoin: miter"/>
     <use xlink:href="#m4a1267affd" x="536.677171" y="237.936321" style="stroke: #000000; stroke-linejoin: miter"/>
     <use xlink:href="#m4a1267affd" x="539.764918" y="240.434209" style="stroke: #000000; stroke-linejoin: miter"/>
     <use xlink:href="#m4a1267affd" x="542.852666" y="244.178285" style="stroke: #000000; stroke-linejoin: miter"/>
     <use xlink:href="#m4a1267affd" x="545.940413" y="249.168548" style="stroke: #000000; stroke-linejoin: miter"/>
     <use xlink:href="#m4a1267affd" x="552.115907" y="257.897372" style="stroke: #000000; stroke-linejoin: miter"/>
     <use xlink:href="#m4a1267affd" x="558.291401" y="266.63171" style="stroke: #000000; stroke-linejoin: miter"/>
     <use xlink:href="#m4a1267affd" x="570.642389" y="281.602499" style="stroke: #000000; stroke-linejoin: miter"/>
     <use xlink:href="#m4a1267affd" x="582.993377" y="291.583024" style="stroke: #000000; stroke-linejoin: miter"/>
     <use xlink:href="#m4a1267affd" x="595.344365" y="295.3271" style="stroke: #000000; stroke-linejoin: miter"/>
     <use xlink:href="#m4a1267affd" x="669.450294" y="304.055924" style="stroke: #000000; stroke-linejoin: miter"/>
    </g>
   </g>
   <g id="patch_9">
    <path d="M 505.799701 320.4 
L 505.799701 43.2 
" style="fill: none; stroke: #000000; stroke-width: 0.8; stroke-linejoin: miter; stroke-linecap: square"/>
   </g>
   <g id="patch_10">
    <path d="M 845.451875 320.4 
L 845.451875 43.2 
" style="fill: none; stroke: #000000; stroke-width: 0.8; stroke-linejoin: miter; stroke-linecap: square"/>
   </g>
   <g id="patch_11">
    <path d="M 505.799701 320.4 
L 845.451875 320.4 
" style="fill: none; stroke: #000000; stroke-width: 0.8; stroke-linejoin: miter; stroke-linecap: square"/>
   </g>
   <g id="patch_12">
    <path d="M 505.799701 43.2 
L 845.451875 43.2 
" style="fill: none; stroke: #000000; stroke-width: 0.8; stroke-linejoin: miter; stroke-linecap: square"/>
   </g>
   <g id="legend_2">
    <g id="patch_13">
     <path d="M 678.059688 109.9125 
L 838.451875 109.9125 
Q 840.451875 109.9125 840.451875 107.9125 
L 840.451875 50.2 
Q 840.451875 48.2 838.451875 48.2 
L 678.059688 48.2 
Q 676.059688 48.2 676.059688 50.2 
L 676.059688 107.9125 
Q 676.059688 109.9125 678.059688 109.9125 
z
" style="fill: #ffffff; opacity: 0.8; stroke: #cccccc; stroke-linejoin: miter"/>
    </g>
    <g id="line2d_40">
     <path d="M 680.059688 56.298437 
L 700.059688 56.298437 
" style="fill: none; stroke: #1f77b4; stroke-width: 2; stroke-linecap: square"/>
    </g>
    <g id="line2d_41"/>
    <g id="text_32">
     <!-- EDO50, CLAR -->
     <g transform="translate(708.059688 59.798437) scale(0.1 -0.1)">
      <use xlink:href="#DejaVuSans-45"/>
      <use xlink:href="#DejaVuSans-44" transform="translate(63.183594 0)"/>
      <use xlink:href="#DejaVuSans-4f" transform="translate(140.185547 0)"/>
      <use xlink:href="#DejaVuSans-35" transform="translate(218.896484 0)"/>
      <use xlink:href="#DejaVuSans-30" transform="translate(282.519531 0)"/>
      <use xlink:href="#DejaVuSans-2c" transform="translate(346.142578 0)"/>
      <use xlink:href="#DejaVuSans-20" transform="translate(377.929688 0)"/>
      <use xlink:href="#DejaVuSans-43" transform="translate(409.716797 0)"/>
      <use xlink:href="#DejaVuSans-4c" transform="translate(479.541016 0)"/>
      <use xlink:href="#DejaVuSans-41" transform="translate(537.503906 0)"/>
      <use xlink:href="#DejaVuSans-52" transform="translate(605.912109 0)"/>
     </g>
    </g>
    <g id="LineCollection_7">
     <path d="M 690.059688 75.976562 
L 690.059688 65.976562 
" style="fill: none; stroke: #1f77b4"/>
    </g>
    <g id="line2d_42">
     <path d="M 680.059688 70.976562 
L 700.059688 70.976562 
" style="fill: none; stroke-dasharray: 3.7,1.6; stroke-dashoffset: 0; stroke: #1f77b4"/>
    </g>
    <g id="line2d_43">
     <g>
      <use xlink:href="#mc00fe3d8d0" x="690.059688" y="70.976562" style="fill: #1f77b4; stroke: #000000; stroke-linejoin: miter"/>
     </g>
    </g>
    <g id="text_33">
     <!-- EDO50, CLAR±SD (n=12) -->
     <g transform="translate(708.059688 74.476562) scale(0.1 -0.1)">
      <use xlink:href="#DejaVuSans-45"/>
      <use xlink:href="#DejaVuSans-44" transform="translate(63.183594 0)"/>
      <use xlink:href="#DejaVuSans-4f" transform="translate(140.185547 0)"/>
      <use xlink:href="#DejaVuSans-35" transform="translate(218.896484 0)"/>
      <use xlink:href="#DejaVuSans-30" transform="translate(282.519531 0)"/>
      <use xlink:href="#DejaVuSans-2c" transform="translate(346.142578 0)"/>
      <use xlink:href="#DejaVuSans-20" transform="translate(377.929688 0)"/>
      <use xlink:href="#DejaVuSans-43" transform="translate(409.716797 0)"/>
      <use xlink:href="#DejaVuSans-4c" transform="translate(479.541016 0)"/>
      <use xlink:href="#DejaVuSans-41" transform="translate(537.503906 0)"/>
      <use xlink:href="#DejaVuSans-52" transform="translate(605.912109 0)"/>
      <use xlink:href="#DejaVuSans-b1" transform="translate(675.394531 0)"/>
      <use xlink:href="#DejaVuSans-53" transform="translate(759.183594 0)"/>
      <use xlink:href="#DejaVuSans-44" transform="translate(822.660156 0)"/>
      <use xlink:href="#DejaVuSans-20" transform="translate(899.662109 0)"/>
      <use xlink:href="#DejaVuSans-28" transform="translate(931.449219 0)"/>
      <use xlink:href="#DejaVuSans-6e" transform="translate(970.462891 0)"/>
      <use xlink:href="#DejaVuSans-3d" transform="translate(1033.841797 0)"/>
      <use xlink:href="#DejaVuSans-31" transform="translate(1117.630859 0)"/>
      <use xlink:href="#DejaVuSans-32" transform="translate(1181.253906 0)"/>
      <use xlink:href="#DejaVuSans-29" transform="translate(1244.876953 0)"/>
     </g>
    </g>
    <g id="line2d_44">
     <path d="M 680.059688 85.654687 
L 700.059688 85.654687 
" style="fill: none; stroke: #000000; stroke-width: 2; stroke-linecap: square"/>
    </g>
    <g id="line2d_45"/>
    <g id="text_34">
     <!-- EDO50 -->
     <g transform="translate(708.059688 89.154687) scale(0.1 -0.1)">
      <use xlink:href="#DejaVuSans-45"/>
      <use xlink:href="#DejaVuSans-44" transform="translate(63.183594 0)"/>
      <use xlink:href="#DejaVuSans-4f" transform="translate(140.185547 0)"/>
      <use xlink:href="#DejaVuSans-35" transform="translate(218.896484 0)"/>
      <use xlink:href="#DejaVuSans-30" transform="translate(282.519531 0)"/>
     </g>
    </g>
    <g id="LineCollection_8">
     <path d="M 690.059688 105.332812 
L 690.059688 95.332812 
" style="fill: none; stroke: #000000"/>
    </g>
    <g id="line2d_46">
     <path d="M 680.059688 100.332812 
L 700.059688 100.332812 
" style="fill: none; stroke-dasharray: 3.7,1.6; stroke-dashoffset: 0; stroke: #000000"/>
    </g>
    <g id="line2d_47">
     <g>
      <use xlink:href="#m4a1267affd" x="690.059688" y="100.332812" style="stroke: #000000; stroke-linejoin: miter"/>
     </g>
    </g>
    <g id="text_35">
     <!-- EDO50±SD (n=12) -->
     <g transform="translate(708.059688 103.832812) scale(0.1 -0.1)">
      <use xlink:href="#DejaVuSans-45"/>
      <use xlink:href="#DejaVuSans-44" transform="translate(63.183594 0)"/>
      <use xlink:href="#DejaVuSans-4f" transform="translate(140.185547 0)"/>
      <use xlink:href="#DejaVuSans-35" transform="translate(218.896484 0)"/>
      <use xlink:href="#DejaVuSans-30" transform="translate(282.519531 0)"/>
      <use xlink:href="#DejaVuSans-b1" transform="translate(346.142578 0)"/>
      <use xlink:href="#DejaVuSans-53" transform="translate(429.931641 0)"/>
      <use xlink:href="#DejaVuSans-44" transform="translate(493.408203 0)"/>
      <use xlink:href="#DejaVuSans-20" transform="translate(570.410156 0)"/>
      <use xlink:href="#DejaVuSans-28" transform="translate(602.197266 0)"/>
      <use xlink:href="#DejaVuSans-6e" transform="translate(641.210938 0)"/>
      <use xlink:href="#DejaVuSans-3d" transform="translate(704.589844 0)"/>
      <use xlink:href="#DejaVuSans-31" transform="translate(788.378906 0)"/>
      <use xlink:href="#DejaVuSans-32" transform="translate(852.001953 0)"/>
      <use xlink:href="#DejaVuSans-29" transform="translate(915.625 0)"/>
     </g>
    </g>
   </g>
  </g>
  <g id="text_36">
   <!-- Lenard2024 (healthy) -->
   <g transform="translate(289.677656 26.196094) scale(0.25 -0.25)">
    <defs>
     <path id="DejaVuSans-Bold-4c" d="M 588 4666 
L 1791 4666 
L 1791 909 
L 3903 909 
L 3903 0 
L 588 0 
L 588 4666 
z
" transform="scale(0.015625)"/>
     <path id="DejaVuSans-Bold-32" d="M 1844 884 
L 3897 884 
L 3897 0 
L 506 0 
L 506 884 
L 2209 2388 
Q 2438 2594 2547 2791 
Q 2656 2988 2656 3200 
Q 2656 3528 2436 3728 
Q 2216 3928 1850 3928 
Q 1569 3928 1234 3808 
Q 900 3688 519 3450 
L 519 4475 
Q 925 4609 1322 4679 
Q 1719 4750 2100 4750 
Q 2938 4750 3402 4381 
Q 3866 4013 3866 3353 
Q 3866 2972 3669 2642 
Q 3472 2313 2841 1759 
L 1844 884 
z
" transform="scale(0.015625)"/>
     <path id="DejaVuSans-Bold-30" d="M 2944 2338 
Q 2944 3213 2780 3570 
Q 2616 3928 2228 3928 
Q 1841 3928 1675 3570 
Q 1509 3213 1509 2338 
Q 1509 1453 1675 1090 
Q 1841 728 2228 728 
Q 2613 728 2778 1090 
Q 2944 1453 2944 2338 
z
M 4147 2328 
Q 4147 1169 3647 539 
Q 3147 -91 2228 -91 
Q 1306 -91 806 539 
Q 306 1169 306 2328 
Q 306 3491 806 4120 
Q 1306 4750 2228 4750 
Q 3147 4750 3647 4120 
Q 4147 3491 4147 2328 
z
" transform="scale(0.015625)"/>
     <path id="DejaVuSans-Bold-34" d="M 2356 3675 
L 1038 1722 
L 2356 1722 
L 2356 3675 
z
M 2156 4666 
L 3494 4666 
L 3494 1722 
L 4159 1722 
L 4159 850 
L 3494 850 
L 3494 0 
L 2356 0 
L 2356 850 
L 288 850 
L 288 1881 
L 2156 4666 
z
" transform="scale(0.015625)"/>
     <path id="DejaVuSans-Bold-28" d="M 2413 -844 
L 1484 -844 
Q 1006 -72 778 623 
Q 550 1319 550 2003 
Q 550 2688 779 3389 
Q 1009 4091 1484 4856 
L 2413 4856 
Q 2013 4116 1813 3408 
Q 1613 2700 1613 2009 
Q 1613 1319 1811 609 
Q 2009 -100 2413 -844 
z
" transform="scale(0.015625)"/>
     <path id="DejaVuSans-Bold-79" d="M 78 3500 
L 1197 3500 
L 2138 1125 
L 2938 3500 
L 4056 3500 
L 2584 -331 
Q 2363 -916 2067 -1148 
Q 1772 -1381 1288 -1381 
L 641 -1381 
L 641 -647 
L 991 -647 
Q 1275 -647 1404 -556 
Q 1534 -466 1606 -231 
L 1638 -134 
L 78 3500 
z
" transform="scale(0.015625)"/>
     <path id="DejaVuSans-Bold-29" d="M 513 -844 
Q 913 -100 1113 609 
Q 1313 1319 1313 2009 
Q 1313 2700 1113 3408 
Q 913 4116 513 4856 
L 1441 4856 
Q 1916 4091 2145 3389 
Q 2375 2688 2375 2003 
Q 2375 1319 2147 623 
Q 1919 -72 1441 -844 
L 513 -844 
z
" transform="scale(0.015625)"/>
    </defs>
    <use xlink:href="#DejaVuSans-Bold-4c"/>
    <use xlink:href="#DejaVuSans-Bold-65" transform="translate(63.720703 0)"/>
    <use xlink:href="#DejaVuSans-Bold-6e" transform="translate(131.542969 0)"/>
    <use xlink:href="#DejaVuSans-Bold-61" transform="translate(202.734375 0)"/>
    <use xlink:href="#DejaVuSans-Bold-72" transform="translate(270.214844 0)"/>
    <use xlink:href="#DejaVuSans-Bold-64" transform="translate(319.53125 0)"/>
    <use xlink:href="#DejaVuSans-Bold-32" transform="translate(391.113281 0)"/>
    <use xlink:href="#DejaVuSans-Bold-30" transform="translate(460.693359 0)"/>
    <use xlink:href="#DejaVuSans-Bold-32" transform="translate(530.273438 0)"/>
    <use xlink:href="#DejaVuSans-Bold-34" transform="translate(599.853516 0)"/>
    <use xlink:href="#DejaVuSans-Bold-20" transform="translate(669.433594 0)"/>
    <use xlink:href="#DejaVuSans-Bold-28" transform="translate(704.248047 0)"/>
    <use xlink:href="#DejaVuSans-Bold-68" transform="translate(749.951172 0)"/>
    <use xlink:href="#DejaVuSans-Bold-65" transform="translate(821.142578 0)"/>
    <use xlink:href="#DejaVuSans-Bold-61" transform="translate(888.964844 0)"/>
    <use xlink:href="#DejaVuSans-Bold-6c" transform="translate(956.445312 0)"/>
    <use xlink:href="#DejaVuSans-Bold-74" transform="translate(990.722656 0)"/>
    <use xlink:href="#DejaVuSans-Bold-68" transform="translate(1038.525391 0)"/>
    <use xlink:href="#DejaVuSans-Bold-79" transform="translate(1109.716797 0)"/>
    <use xlink:href="#DejaVuSans-Bold-29" transform="translate(1174.902344 0)"/>
   </g>
  </g>
 </g>
 <defs>
  <clipPath id="pa462d04ee9">
   <rect x="64.251875" y="43.2" width="339.652174" height="277.2"/>
  </clipPath>
  <clipPath id="pe1c2a41ca4">
   <rect x="505.799701" y="43.2" width="339.652174" height="277.2"/>
  </clipPath>
 </defs>
</svg>
