<?xml version="1.0" encoding="utf-8" standalone="no"?>
<!DOCTYPE svg PUBLIC "-//W3C//DTD SVG 1.1//EN"
  "http://www.w3.org/Graphics/SVG/1.1/DTD/svg11.dtd">
<svg xmlns:xlink="http://www.w3.org/1999/xlink" width="471.595625pt" height="370.537812pt" viewBox="0 0 471.595625 370.537812" xmlns="http://www.w3.org/2000/svg" version="1.1">
 <metadata>
  <rdf:RDF xmlns:dc="http://purl.org/dc/elements/1.1/" xmlns:cc="http://creativecommons.org/ns#" xmlns:rdf="http://www.w3.org/1999/02/22-rdf-syntax-ns#">
   <cc:Work>
    <dc:type rdf:resource="http://purl.org/dc/dcmitype/StillImage"/>
    <dc:date>2026-01-06T17:44:19.661403</dc:date>
    <dc:format>image/svg+xml</dc:format>
    <dc:creator>
     <cc:Agent>
      <dc:title>Matplotlib v3.10.7, https://matplotlib.org/</dc:title>
     </cc:Agent>
    </dc:creator>
   </cc:Work>
  </rdf:RDF>
 </metadata>
 <defs>
  <style type="text/css">*{stroke-linejoin: round; stroke-linecap: butt}</style>
 </defs>
 <g id="figure_1">
  <g id="patch_1">
   <path d="M 0 370.537812 
L 471.595625 370.537812 
L 471.595625 0 
L 0 0 
z
" style="fill: #ffffff"/>
  </g>
  <g id="axes_1">
   <g id="patch_2">
    <path d="M 73.795625 320.4 
L 464.395625 320.4 
L 464.395625 43.2 
L 73.795625 43.2 
z
" style="fill: #ffffff"/>
   </g>
   <g id="matplotlib.axis_1">
    <g id="xtick_1">
     <g id="line2d_1">
      <defs>
       <path id="m84c8fe4fbf" d="M 0 0 
L 0 3.5 
" style="stroke: #000000; stroke-width: 0.8"/>
      </defs>
      <g>
       <use xlink:href="#m84c8fe4fbf" x="91.55017" y="320.4" style="stroke: #000000; stroke-width: 0.8"/>
      </g>
     </g>
     <g id="text_1">
      <!-- 0 -->
      <g transform="translate(86.778295 338.797656) scale(0.15 -0.15)">
       <defs>
        <path id="DejaVuSans-30" d="M 2034 4250 
Q 1547 4250 1301 3770 
Q 1056 3291 1056 2328 
Q 1056 1369 1301 889 
Q 1547 409 2034 409 
Q 2525 409 2770 889 
Q 3016 1369 3016 2328 
Q 3016 3291 2770 3770 
Q 2525 4250 2034 4250 
z
M 2034 4750 
Q 2819 4750 3233 4129 
Q 3647 3509 3647 2328 
Q 3647 1150 3233 529 
Q 2819 -91 2034 -91 
Q 1250 -91 836 529 
Q 422 1150 422 2328 
Q 422 3509 836 4129 
Q 1250 4750 2034 4750 
z
" transform="scale(0.015625)"/>
       </defs>
       <use xlink:href="#DejaVuSans-30"/>
      </g>
     </g>
    </g>
    <g id="xtick_2">
     <g id="line2d_2">
      <g>
       <use xlink:href="#m84c8fe4fbf" x="188.835351" y="320.4" style="stroke: #000000; stroke-width: 0.8"/>
      </g>
     </g>
     <g id="text_2">
      <!-- 20 -->
      <g transform="translate(179.291601 338.797656) scale(0.15 -0.15)">
       <defs>
        <path id="DejaVuSans-32" d="M 1228 531 
L 3431 531 
L 3431 0 
L 469 0 
L 469 531 
Q 828 903 1448 1529 
Q 2069 2156 2228 2338 
Q 2531 2678 2651 2914 
Q 2772 3150 2772 3378 
Q 2772 3750 2511 3984 
Q 2250 4219 1831 4219 
Q 1534 4219 1204 4116 
Q 875 4013 500 3803 
L 500 4441 
Q 881 4594 1212 4672 
Q 1544 4750 1819 4750 
Q 2544 4750 2975 4387 
Q 3406 4025 3406 3419 
Q 3406 3131 3298 2873 
Q 3191 2616 2906 2266 
Q 2828 2175 2409 1742 
Q 1991 1309 1228 531 
z
" transform="scale(0.015625)"/>
       </defs>
       <use xlink:href="#DejaVuSans-32"/>
       <use xlink:href="#DejaVuSans-30" transform="translate(63.623047 0)"/>
      </g>
     </g>
    </g>
    <g id="xtick_3">
     <g id="line2d_3">
      <g>
       <use xlink:href="#m84c8fe4fbf" x="286.120532" y="320.4" style="stroke: #000000; stroke-width: 0.8"/>
      </g>
     </g>
     <g id="text_3">
      <!-- 40 -->
      <g transform="translate(276.576782 338.797656) scale(0.15 -0.15)">
       <defs>
        <path id="DejaVuSans-34" d="M 2419 4116 
L 825 1625 
L 2419 1625 
L 2419 4116 
z
M 2253 4666 
L 3047 4666 
L 3047 1625 
L 3713 1625 
L 3713 1100 
L 3047 1100 
L 3047 0 
L 2419 0 
L 2419 1100 
L 313 1100 
L 313 1709 
L 2253 4666 
z
" transform="scale(0.015625)"/>
       </defs>
       <use xlink:href="#DejaVuSans-34"/>
       <use xlink:href="#DejaVuSans-30" transform="translate(63.623047 0)"/>
      </g>
     </g>
    </g>
    <g id="xtick_4">
     <g id="line2d_4">
      <g>
       <use xlink:href="#m84c8fe4fbf" x="383.405712" y="320.4" style="stroke: #000000; stroke-width: 0.8"/>
      </g>
     </g>
     <g id="text_4">
      <!-- 60 -->
      <g transform="translate(373.861962 338.797656) scale(0.15 -0.15)">
       <defs>
        <path id="DejaVuSans-36" d="M 2113 2584 
Q 1688 2584 1439 2293 
Q 1191 2003 1191 1497 
Q 1191 994 1439 701 
Q 1688 409 2113 409 
Q 2538 409 2786 701 
Q 3034 994 3034 1497 
Q 3034 2003 2786 2293 
Q 2538 2584 2113 2584 
z
M 3366 4563 
L 3366 3988 
Q 3128 4100 2886 4159 
Q 2644 4219 2406 4219 
Q 1781 4219 1451 3797 
Q 1122 3375 1075 2522 
Q 1259 2794 1537 2939 
Q 1816 3084 2150 3084 
Q 2853 3084 3261 2657 
Q 3669 2231 3669 1497 
Q 3669 778 3244 343 
Q 2819 -91 2113 -91 
Q 1303 -91 875 529 
Q 447 1150 447 2328 
Q 447 3434 972 4092 
Q 1497 4750 2381 4750 
Q 2619 4750 2861 4703 
Q 3103 4656 3366 4563 
z
" transform="scale(0.015625)"/>
       </defs>
       <use xlink:href="#DejaVuSans-36"/>
       <use xlink:href="#DejaVuSans-30" transform="translate(63.623047 0)"/>
      </g>
     </g>
    </g>
    <g id="text_5">
     <!-- time [hr] -->
     <g transform="translate(224.021094 359.594375) scale(0.18 -0.18)">
      <defs>
       <path id="DejaVuSans-Bold-74" d="M 1759 4494 
L 1759 3500 
L 2913 3500 
L 2913 2700 
L 1759 2700 
L 1759 1216 
Q 1759 972 1856 886 
Q 1953 800 2241 800 
L 2816 800 
L 2816 0 
L 1856 0 
Q 1194 0 917 276 
Q 641 553 641 1216 
L 641 2700 
L 84 2700 
L 84 3500 
L 641 3500 
L 641 4494 
L 1759 4494 
z
" transform="scale(0.015625)"/>
       <path id="DejaVuSans-Bold-69" d="M 538 3500 
L 1656 3500 
L 1656 0 
L 538 0 
L 538 3500 
z
M 538 4863 
L 1656 4863 
L 1656 3950 
L 538 3950 
L 538 4863 
z
" transform="scale(0.015625)"/>
       <path id="DejaVuSans-Bold-6d" d="M 3781 2919 
Q 3994 3244 4286 3414 
Q 4578 3584 4928 3584 
Q 5531 3584 5847 3212 
Q 6163 2841 6163 2131 
L 6163 0 
L 5038 0 
L 5038 1825 
Q 5041 1866 5042 1909 
Q 5044 1953 5044 2034 
Q 5044 2406 4934 2573 
Q 4825 2741 4581 2741 
Q 4263 2741 4089 2478 
Q 3916 2216 3909 1719 
L 3909 0 
L 2784 0 
L 2784 1825 
Q 2784 2406 2684 2573 
Q 2584 2741 2328 2741 
Q 2006 2741 1831 2477 
Q 1656 2213 1656 1722 
L 1656 0 
L 531 0 
L 531 3500 
L 1656 3500 
L 1656 2988 
Q 1863 3284 2130 3434 
Q 2397 3584 2719 3584 
Q 3081 3584 3359 3409 
Q 3638 3234 3781 2919 
z
" transform="scale(0.015625)"/>
       <path id="DejaVuSans-Bold-65" d="M 4031 1759 
L 4031 1441 
L 1416 1441 
Q 1456 1047 1700 850 
Q 1944 653 2381 653 
Q 2734 653 3104 758 
Q 3475 863 3866 1075 
L 3866 213 
Q 3469 63 3072 -14 
Q 2675 -91 2278 -91 
Q 1328 -91 801 392 
Q 275 875 275 1747 
Q 275 2603 792 3093 
Q 1309 3584 2216 3584 
Q 3041 3584 3536 3087 
Q 4031 2591 4031 1759 
z
M 2881 2131 
Q 2881 2450 2695 2645 
Q 2509 2841 2209 2841 
Q 1884 2841 1681 2658 
Q 1478 2475 1428 2131 
L 2881 2131 
z
" transform="scale(0.015625)"/>
       <path id="DejaVuSans-Bold-20" transform="scale(0.015625)"/>
       <path id="DejaVuSans-Bold-5b" d="M 550 4863 
L 2491 4863 
L 2491 4159 
L 1613 4159 
L 1613 -141 
L 2491 -141 
L 2491 -844 
L 550 -844 
L 550 4863 
z
" transform="scale(0.015625)"/>
       <path id="DejaVuSans-Bold-68" d="M 4056 2131 
L 4056 0 
L 2931 0 
L 2931 347 
L 2931 1625 
Q 2931 2084 2911 2256 
Q 2891 2428 2841 2509 
Q 2775 2619 2662 2680 
Q 2550 2741 2406 2741 
Q 2056 2741 1856 2470 
Q 1656 2200 1656 1722 
L 1656 0 
L 538 0 
L 538 4863 
L 1656 4863 
L 1656 2988 
Q 1909 3294 2193 3439 
Q 2478 3584 2822 3584 
Q 3428 3584 3742 3212 
Q 4056 2841 4056 2131 
z
" transform="scale(0.015625)"/>
       <path id="DejaVuSans-Bold-72" d="M 3138 2547 
Q 2991 2616 2845 2648 
Q 2700 2681 2553 2681 
Q 2122 2681 1889 2404 
Q 1656 2128 1656 1613 
L 1656 0 
L 538 0 
L 538 3500 
L 1656 3500 
L 1656 2925 
Q 1872 3269 2151 3426 
Q 2431 3584 2822 3584 
Q 2878 3584 2943 3579 
Q 3009 3575 3134 3559 
L 3138 2547 
z
" transform="scale(0.015625)"/>
       <path id="DejaVuSans-Bold-5d" d="M 2375 -844 
L 434 -844 
L 434 -141 
L 1313 -141 
L 1313 4159 
L 434 4159 
L 434 4863 
L 2375 4863 
L 2375 -844 
z
" transform="scale(0.015625)"/>
      </defs>
      <use xlink:href="#DejaVuSans-Bold-74"/>
      <use xlink:href="#DejaVuSans-Bold-69" transform="translate(47.802734 0)"/>
      <use xlink:href="#DejaVuSans-Bold-6d" transform="translate(82.080078 0)"/>
      <use xlink:href="#DejaVuSans-Bold-65" transform="translate(186.279297 0)"/>
      <use xlink:href="#DejaVuSans-Bold-20" transform="translate(254.101562 0)"/>
      <use xlink:href="#DejaVuSans-Bold-5b" transform="translate(288.916016 0)"/>
      <use xlink:href="#DejaVuSans-Bold-68" transform="translate(334.619141 0)"/>
      <use xlink:href="#DejaVuSans-Bold-72" transform="translate(405.810547 0)"/>
      <use xlink:href="#DejaVuSans-Bold-5d" transform="translate(455.126953 0)"/>
     </g>
    </g>
   </g>
   <g id="matplotlib.axis_2">
    <g id="ytick_1">
     <g id="line2d_5">
      <defs>
       <path id="m3dae5ab8e5" d="M 0 0 
L -3.5 0 
" style="stroke: #000000; stroke-width: 0.8"/>
      </defs>
      <g>
       <use xlink:href="#m3dae5ab8e5" x="73.795625" y="290.125242" style="stroke: #000000; stroke-width: 0.8"/>
      </g>
     </g>
     <g id="text_6">
      <!-- 0 -->
      <g transform="translate(57.251875 295.824071) scale(0.15 -0.15)">
       <use xlink:href="#DejaVuSans-30"/>
      </g>
     </g>
    </g>
    <g id="ytick_2">
     <g id="line2d_6">
      <g>
       <use xlink:href="#m3dae5ab8e5" x="73.795625" y="248.533176" style="stroke: #000000; stroke-width: 0.8"/>
      </g>
     </g>
     <g id="text_7">
      <!-- 200 -->
      <g transform="translate(38.164375 254.232004) scale(0.15 -0.15)">
       <use xlink:href="#DejaVuSans-32"/>
       <use xlink:href="#DejaVuSans-30" transform="translate(63.623047 0)"/>
       <use xlink:href="#DejaVuSans-30" transform="translate(127.246094 0)"/>
      </g>
     </g>
    </g>
    <g id="ytick_3">
     <g id="line2d_7">
      <g>
       <use xlink:href="#m3dae5ab8e5" x="73.795625" y="206.941109" style="stroke: #000000; stroke-width: 0.8"/>
      </g>
     </g>
     <g id="text_8">
      <!-- 400 -->
      <g transform="translate(38.164375 212.639938) scale(0.15 -0.15)">
       <use xlink:href="#DejaVuSans-34"/>
       <use xlink:href="#DejaVuSans-30" transform="translate(63.623047 0)"/>
       <use xlink:href="#DejaVuSans-30" transform="translate(127.246094 0)"/>
      </g>
     </g>
    </g>
    <g id="ytick_4">
     <g id="line2d_8">
      <g>
       <use xlink:href="#m3dae5ab8e5" x="73.795625" y="165.349043" style="stroke: #000000; stroke-width: 0.8"/>
      </g>
     </g>
     <g id="text_9">
      <!-- 600 -->
      <g transform="translate(38.164375 171.047871) scale(0.15 -0.15)">
       <use xlink:href="#DejaVuSans-36"/>
       <use xlink:href="#DejaVuSans-30" transform="translate(63.623047 0)"/>
       <use xlink:href="#DejaVuSans-30" transform="translate(127.246094 0)"/>
      </g>
     </g>
    </g>
    <g id="ytick_5">
     <g id="line2d_9">
      <g>
       <use xlink:href="#m3dae5ab8e5" x="73.795625" y="123.756976" style="stroke: #000000; stroke-width: 0.8"/>
      </g>
     </g>
     <g id="text_10">
      <!-- 800 -->
      <g transform="translate(38.164375 129.455805) scale(0.15 -0.15)">
       <defs>
        <path id="DejaVuSans-38" d="M 2034 2216 
Q 1584 2216 1326 1975 
Q 1069 1734 1069 1313 
Q 1069 891 1326 650 
Q 1584 409 2034 409 
Q 2484 409 2743 651 
Q 3003 894 3003 1313 
Q 3003 1734 2745 1975 
Q 2488 2216 2034 2216 
z
M 1403 2484 
Q 997 2584 770 2862 
Q 544 3141 544 3541 
Q 544 4100 942 4425 
Q 1341 4750 2034 4750 
Q 2731 4750 3128 4425 
Q 3525 4100 3525 3541 
Q 3525 3141 3298 2862 
Q 3072 2584 2669 2484 
Q 3125 2378 3379 2068 
Q 3634 1759 3634 1313 
Q 3634 634 3220 271 
Q 2806 -91 2034 -91 
Q 1263 -91 848 271 
Q 434 634 434 1313 
Q 434 1759 690 2068 
Q 947 2378 1403 2484 
z
M 1172 3481 
Q 1172 3119 1398 2916 
Q 1625 2713 2034 2713 
Q 2441 2713 2670 2916 
Q 2900 3119 2900 3481 
Q 2900 3844 2670 4047 
Q 2441 4250 2034 4250 
Q 1625 4250 1398 4047 
Q 1172 3844 1172 3481 
z
" transform="scale(0.015625)"/>
       </defs>
       <use xlink:href="#DejaVuSans-38"/>
       <use xlink:href="#DejaVuSans-30" transform="translate(63.623047 0)"/>
       <use xlink:href="#DejaVuSans-30" transform="translate(127.246094 0)"/>
      </g>
     </g>
    </g>
    <g id="ytick_6">
     <g id="line2d_10">
      <g>
       <use xlink:href="#m3dae5ab8e5" x="73.795625" y="82.16491" style="stroke: #000000; stroke-width: 0.8"/>
      </g>
     </g>
     <g id="text_11">
      <!-- 1000 -->
      <g transform="translate(28.620625 87.863738) scale(0.15 -0.15)">
       <defs>
        <path id="DejaVuSans-31" d="M 794 531 
L 1825 531 
L 1825 4091 
L 703 3866 
L 703 4441 
L 1819 4666 
L 2450 4666 
L 2450 531 
L 3481 531 
L 3481 0 
L 794 0 
L 794 531 
z
" transform="scale(0.015625)"/>
       </defs>
       <use xlink:href="#DejaVuSans-31"/>
       <use xlink:href="#DejaVuSans-30" transform="translate(63.623047 0)"/>
       <use xlink:href="#DejaVuSans-30" transform="translate(127.246094 0)"/>
       <use xlink:href="#DejaVuSans-30" transform="translate(190.869141 0)"/>
      </g>
     </g>
    </g>
    <g id="text_12">
     <!-- edoxaban plasma [nM] -->
     <g transform="translate(20.877187 297.59625) rotate(-90) scale(0.18 -0.18)">
      <defs>
       <path id="DejaVuSans-Bold-64" d="M 2919 2988 
L 2919 4863 
L 4044 4863 
L 4044 0 
L 2919 0 
L 2919 506 
Q 2688 197 2409 53 
Q 2131 -91 1766 -91 
Q 1119 -91 703 423 
Q 288 938 288 1747 
Q 288 2556 703 3070 
Q 1119 3584 1766 3584 
Q 2128 3584 2408 3439 
Q 2688 3294 2919 2988 
z
M 2181 722 
Q 2541 722 2730 984 
Q 2919 1247 2919 1747 
Q 2919 2247 2730 2509 
Q 2541 2772 2181 2772 
Q 1825 2772 1636 2509 
Q 1447 2247 1447 1747 
Q 1447 1247 1636 984 
Q 1825 722 2181 722 
z
" transform="scale(0.015625)"/>
       <path id="DejaVuSans-Bold-6f" d="M 2203 2784 
Q 1831 2784 1636 2517 
Q 1441 2250 1441 1747 
Q 1441 1244 1636 976 
Q 1831 709 2203 709 
Q 2569 709 2762 976 
Q 2956 1244 2956 1747 
Q 2956 2250 2762 2517 
Q 2569 2784 2203 2784 
z
M 2203 3584 
Q 3106 3584 3614 3096 
Q 4122 2609 4122 1747 
Q 4122 884 3614 396 
Q 3106 -91 2203 -91 
Q 1297 -91 786 396 
Q 275 884 275 1747 
Q 275 2609 786 3096 
Q 1297 3584 2203 3584 
z
" transform="scale(0.015625)"/>
       <path id="DejaVuSans-Bold-78" d="M 1422 1791 
L 159 3500 
L 1344 3500 
L 2059 2463 
L 2784 3500 
L 3969 3500 
L 2706 1797 
L 4031 0 
L 2847 0 
L 2059 1106 
L 1281 0 
L 97 0 
L 1422 1791 
z
" transform="scale(0.015625)"/>
       <path id="DejaVuSans-Bold-61" d="M 2106 1575 
Q 1756 1575 1579 1456 
Q 1403 1338 1403 1106 
Q 1403 894 1545 773 
Q 1688 653 1941 653 
Q 2256 653 2472 879 
Q 2688 1106 2688 1447 
L 2688 1575 
L 2106 1575 
z
M 3816 1997 
L 3816 0 
L 2688 0 
L 2688 519 
Q 2463 200 2181 54 
Q 1900 -91 1497 -91 
Q 953 -91 614 226 
Q 275 544 275 1050 
Q 275 1666 698 1953 
Q 1122 2241 2028 2241 
L 2688 2241 
L 2688 2328 
Q 2688 2594 2478 2717 
Q 2269 2841 1825 2841 
Q 1466 2841 1156 2769 
Q 847 2697 581 2553 
L 581 3406 
Q 941 3494 1303 3539 
Q 1666 3584 2028 3584 
Q 2975 3584 3395 3211 
Q 3816 2838 3816 1997 
z
" transform="scale(0.015625)"/>
       <path id="DejaVuSans-Bold-62" d="M 2400 722 
Q 2759 722 2948 984 
Q 3138 1247 3138 1747 
Q 3138 2247 2948 2509 
Q 2759 2772 2400 2772 
Q 2041 2772 1848 2508 
Q 1656 2244 1656 1747 
Q 1656 1250 1848 986 
Q 2041 722 2400 722 
z
M 1656 2988 
Q 1888 3294 2169 3439 
Q 2450 3584 2816 3584 
Q 3463 3584 3878 3070 
Q 4294 2556 4294 1747 
Q 4294 938 3878 423 
Q 3463 -91 2816 -91 
Q 2450 -91 2169 54 
Q 1888 200 1656 506 
L 1656 0 
L 538 0 
L 538 4863 
L 1656 4863 
L 1656 2988 
z
" transform="scale(0.015625)"/>
       <path id="DejaVuSans-Bold-6e" d="M 4056 2131 
L 4056 0 
L 2931 0 
L 2931 347 
L 2931 1631 
Q 2931 2084 2911 2256 
Q 2891 2428 2841 2509 
Q 2775 2619 2662 2680 
Q 2550 2741 2406 2741 
Q 2056 2741 1856 2470 
Q 1656 2200 1656 1722 
L 1656 0 
L 538 0 
L 538 3500 
L 1656 3500 
L 1656 2988 
Q 1909 3294 2193 3439 
Q 2478 3584 2822 3584 
Q 3428 3584 3742 3212 
Q 4056 2841 4056 2131 
z
" transform="scale(0.015625)"/>
       <path id="DejaVuSans-Bold-70" d="M 1656 506 
L 1656 -1331 
L 538 -1331 
L 538 3500 
L 1656 3500 
L 1656 2988 
Q 1888 3294 2169 3439 
Q 2450 3584 2816 3584 
Q 3463 3584 3878 3070 
Q 4294 2556 4294 1747 
Q 4294 938 3878 423 
Q 3463 -91 2816 -91 
Q 2450 -91 2169 54 
Q 1888 200 1656 506 
z
M 2400 2772 
Q 2041 2772 1848 2508 
Q 1656 2244 1656 1747 
Q 1656 1250 1848 986 
Q 2041 722 2400 722 
Q 2759 722 2948 984 
Q 3138 1247 3138 1747 
Q 3138 2247 2948 2509 
Q 2759 2772 2400 2772 
z
" transform="scale(0.015625)"/>
       <path id="DejaVuSans-Bold-6c" d="M 538 4863 
L 1656 4863 
L 1656 0 
L 538 0 
L 538 4863 
z
" transform="scale(0.015625)"/>
       <path id="DejaVuSans-Bold-73" d="M 3272 3391 
L 3272 2541 
Q 2913 2691 2578 2766 
Q 2244 2841 1947 2841 
Q 1628 2841 1473 2761 
Q 1319 2681 1319 2516 
Q 1319 2381 1436 2309 
Q 1553 2238 1856 2203 
L 2053 2175 
Q 2913 2066 3209 1816 
Q 3506 1566 3506 1031 
Q 3506 472 3093 190 
Q 2681 -91 1863 -91 
Q 1516 -91 1145 -36 
Q 775 19 384 128 
L 384 978 
Q 719 816 1070 734 
Q 1422 653 1784 653 
Q 2113 653 2278 743 
Q 2444 834 2444 1013 
Q 2444 1163 2330 1236 
Q 2216 1309 1875 1350 
L 1678 1375 
Q 931 1469 631 1722 
Q 331 1975 331 2491 
Q 331 3047 712 3315 
Q 1094 3584 1881 3584 
Q 2191 3584 2531 3537 
Q 2872 3491 3272 3391 
z
" transform="scale(0.015625)"/>
       <path id="DejaVuSans-Bold-4d" d="M 588 4666 
L 2119 4666 
L 3181 2169 
L 4250 4666 
L 5778 4666 
L 5778 0 
L 4641 0 
L 4641 3413 
L 3566 897 
L 2803 897 
L 1728 3413 
L 1728 0 
L 588 0 
L 588 4666 
z
" transform="scale(0.015625)"/>
      </defs>
      <use xlink:href="#DejaVuSans-Bold-65"/>
      <use xlink:href="#DejaVuSans-Bold-64" transform="translate(67.822266 0)"/>
      <use xlink:href="#DejaVuSans-Bold-6f" transform="translate(139.404297 0)"/>
      <use xlink:href="#DejaVuSans-Bold-78" transform="translate(208.105469 0)"/>
      <use xlink:href="#DejaVuSans-Bold-61" transform="translate(272.607422 0)"/>
      <use xlink:href="#DejaVuSans-Bold-62" transform="translate(340.087891 0)"/>
      <use xlink:href="#DejaVuSans-Bold-61" transform="translate(411.669922 0)"/>
      <use xlink:href="#DejaVuSans-Bold-6e" transform="translate(479.150391 0)"/>
      <use xlink:href="#DejaVuSans-Bold-20" transform="translate(550.341797 0)"/>
      <use xlink:href="#DejaVuSans-Bold-70" transform="translate(585.15625 0)"/>
      <use xlink:href="#DejaVuSans-Bold-6c" transform="translate(656.738281 0)"/>
      <use xlink:href="#DejaVuSans-Bold-61" transform="translate(691.015625 0)"/>
      <use xlink:href="#DejaVuSans-Bold-73" transform="translate(758.496094 0)"/>
      <use xlink:href="#DejaVuSans-Bold-6d" transform="translate(818.017578 0)"/>
      <use xlink:href="#DejaVuSans-Bold-61" transform="translate(922.216797 0)"/>
      <use xlink:href="#DejaVuSans-Bold-20" transform="translate(989.697266 0)"/>
      <use xlink:href="#DejaVuSans-Bold-5b" transform="translate(1024.511719 0)"/>
      <use xlink:href="#DejaVuSans-Bold-6e" transform="translate(1070.214844 0)"/>
      <use xlink:href="#DejaVuSans-Bold-4d" transform="translate(1141.40625 0)"/>
      <use xlink:href="#DejaVuSans-Bold-5d" transform="translate(1240.917969 0)"/>
     </g>
    </g>
   </g>
   <g id="LineCollection_1">
    <path clip-path="url(#pb352988f3d)" style="fill: none; stroke: #ff7f0e"/>
    <path d="M 93.9823 294.284009 
L 93.9823 198.639969 
" clip-path="url(#pb352988f3d)" style="fill: none; stroke: #ff7f0e"/>
    <path d="M 96.414429 222.55667 
L 96.414429 164.33394 
" clip-path="url(#pb352988f3d)" style="fill: none; stroke: #ff7f0e"/>
    <path d="M 98.846559 243.339119 
L 98.846559 151.861435 
" clip-path="url(#pb352988f3d)" style="fill: none; stroke: #ff7f0e"/>
    <path d="M 101.278689 252.696344 
L 101.278689 157.059893 
" clip-path="url(#pb352988f3d)" style="fill: none; stroke: #ff7f0e"/>
    <path d="M 103.710818 258.938288 
L 103.710818 169.532398 
" clip-path="url(#pb352988f3d)" style="fill: none; stroke: #ff7f0e"/>
    <path d="M 106.142948 259.97798 
L 106.142948 185.127772 
" clip-path="url(#pb352988f3d)" style="fill: none; stroke: #ff7f0e"/>
    <path d="M 108.575077 267.255821 
L 108.575077 192.405613 
" clip-path="url(#pb352988f3d)" style="fill: none; stroke: #ff7f0e"/>
    <path d="M 111.007207 268.291718 
L 111.007207 199.67966 
" clip-path="url(#pb352988f3d)" style="fill: none; stroke: #ff7f0e"/>
    <path d="M 120.735725 290.125242 
L 120.735725 206.957502 
" clip-path="url(#pb352988f3d)" style="fill: none; stroke: #ff7f0e"/>
    <path d="M 130.464243 307.8 
L 130.464243 212.15596 
" clip-path="url(#pb352988f3d)" style="fill: none; stroke: #ff7f0e"/>
    <path d="M 149.921279 284.718087 
L 149.921279 264.341649 
" clip-path="url(#pb352988f3d)" style="fill: none; stroke: #ff7f0e"/>
    <path clip-path="url(#pb352988f3d)" style="fill: none; stroke: #ff7f0e"/>
    <path clip-path="url(#pb352988f3d)" style="fill: none; stroke: #ff7f0e"/>
    <path clip-path="url(#pb352988f3d)" style="fill: none; stroke: #ff7f0e"/>
    <path clip-path="url(#pb352988f3d)" style="fill: none; stroke: #ff7f0e"/>
    <path clip-path="url(#pb352988f3d)" style="fill: none; stroke: #ff7f0e"/>
   </g>
   <g id="LineCollection_2">
    <path clip-path="url(#pb352988f3d)" style="fill: none; stroke: #8c564b"/>
    <path d="M 93.9823 275.922448 
L 93.9823 172.962621 
" clip-path="url(#pb352988f3d)" style="fill: none; stroke: #8c564b"/>
    <path d="M 96.414429 203.144034 
L 96.414429 82.425971 
" clip-path="url(#pb352988f3d)" style="fill: none; stroke: #8c564b"/>
    <path d="M 98.846559 151.656532 
L 98.846559 55.8 
" clip-path="url(#pb352988f3d)" style="fill: none; stroke: #8c564b"/>
    <path d="M 101.278689 128.578414 
L 101.278689 75.326471 
" clip-path="url(#pb352988f3d)" style="fill: none; stroke: #8c564b"/>
    <path d="M 103.710818 153.432356 
L 103.710818 71.774824 
" clip-path="url(#pb352988f3d)" style="fill: none; stroke: #8c564b"/>
    <path d="M 106.142948 160.53565 
L 106.142948 100.180413 
" clip-path="url(#pb352988f3d)" style="fill: none; stroke: #8c564b"/>
    <path d="M 108.575077 164.083503 
L 108.575077 125.030561 
" clip-path="url(#pb352988f3d)" style="fill: none; stroke: #8c564b"/>
    <path d="M 111.007207 169.843546 
L 111.007207 140.572812 
" clip-path="url(#pb352988f3d)" style="fill: none; stroke: #8c564b"/>
    <path d="M 120.735725 208.536012 
L 120.735725 183.545468 
" clip-path="url(#pb352988f3d)" style="fill: none; stroke: #8c564b"/>
    <path d="M 130.464243 236.546973 
L 130.464243 215.889743 
" clip-path="url(#pb352988f3d)" style="fill: none; stroke: #8c564b"/>
    <path clip-path="url(#pb352988f3d)" style="fill: none; stroke: #8c564b"/>
    <path clip-path="url(#pb352988f3d)" style="fill: none; stroke: #8c564b"/>
    <path clip-path="url(#pb352988f3d)" style="fill: none; stroke: #8c564b"/>
    <path clip-path="url(#pb352988f3d)" style="fill: none; stroke: #8c564b"/>
    <path clip-path="url(#pb352988f3d)" style="fill: none; stroke: #8c564b"/>
    <path clip-path="url(#pb352988f3d)" style="fill: none; stroke: #8c564b"/>
   </g>
   <g id="line2d_11">
    <path d="M 91.55017 290.125242 
L 91.994034 287.218489 
L 92.881761 271.013107 
L 94.213352 246.140576 
L 95.10108 234.0823 
L 95.988807 225.627557 
L 96.876534 220.129783 
L 97.320398 218.285517 
L 97.764261 216.947111 
L 98.208125 216.050378 
L 98.651989 215.537912 
L 99.095852 215.358608 
L 99.539716 215.467111 
L 99.98358 215.823253 
L 100.427443 216.391515 
L 101.31517 218.042628 
L 102.202898 220.21147 
L 103.534489 224.091657 
L 106.19767 232.818826 
L 109.304716 242.872785 
L 111.524034 249.373784 
L 113.743352 255.157626 
L 115.96267 260.218059 
L 117.738125 263.774896 
L 119.51358 266.930809 
L 121.289034 269.72255 
L 123.508352 272.756009 
L 125.72767 275.345769 
L 127.946989 277.553471 
L 130.166307 279.433666 
L 132.385625 281.033932 
L 134.604943 282.395384 
L 137.268125 283.763266 
L 139.931307 284.889361 
L 143.038352 285.953954 
L 146.589261 286.908359 
L 150.584034 287.723713 
L 155.02267 288.389719 
L 160.349034 288.949916 
L 167.006989 289.403192 
L 175.440398 289.735704 
L 187.424716 289.963179 
L 207.39858 290.087667 
L 261.993807 290.124551 
L 446.64108 290.125242 
L 446.64108 290.125242 
" clip-path="url(#pb352988f3d)" style="fill: none; stroke: #ff7f0e; stroke-width: 2; stroke-linecap: square"/>
   </g>
   <g id="line2d_12">
    <path d="M 91.55017 290.125242 
L 93.9823 246.461989 
L 96.414429 193.445305 
L 98.846559 197.600277 
L 101.278689 204.878118 
L 103.710818 214.235343 
L 106.142948 222.552876 
L 108.575077 229.830717 
L 111.007207 233.985689 
L 120.735725 248.541372 
L 130.464243 259.97798 
L 149.921279 274.529868 
L 208.292387 283.887093 
L 266.663495 286.626718 
L 325.034604 287.006168 
L 383.405712 289.085551 
L 441.776821 290.125242 
" clip-path="url(#pb352988f3d)" style="fill: none; stroke-dasharray: 3.7,1.6; stroke-dashoffset: 0; stroke: #ff7f0e"/>
    <defs>
     <path id="m9528fab9f8" d="M -3 3 
L 3 3 
L 3 -3 
L -3 -3 
z
" style="stroke: #000000; stroke-linejoin: miter"/>
    </defs>
    <g clip-path="url(#pb352988f3d)">
     <use xlink:href="#m9528fab9f8" x="91.55017" y="290.125242" style="fill: #ff7f0e; stroke: #000000; stroke-linejoin: miter"/>
     <use xlink:href="#m9528fab9f8" x="93.9823" y="246.461989" style="fill: #ff7f0e; stroke: #000000; stroke-linejoin: miter"/>
     <use xlink:href="#m9528fab9f8" x="96.414429" y="193.445305" style="fill: #ff7f0e; stroke: #000000; stroke-linejoin: miter"/>
     <use xlink:href="#m9528fab9f8" x="98.846559" y="197.600277" style="fill: #ff7f0e; stroke: #000000; stroke-linejoin: miter"/>
     <use xlink:href="#m9528fab9f8" x="101.278689" y="204.878118" style="fill: #ff7f0e; stroke: #000000; stroke-linejoin: miter"/>
     <use xlink:href="#m9528fab9f8" x="103.710818" y="214.235343" style="fill: #ff7f0e; stroke: #000000; stroke-linejoin: miter"/>
     <use xlink:href="#m9528fab9f8" x="106.142948" y="222.552876" style="fill: #ff7f0e; stroke: #000000; stroke-linejoin: miter"/>
     <use xlink:href="#m9528fab9f8" x="108.575077" y="229.830717" style="fill: #ff7f0e; stroke: #000000; stroke-linejoin: miter"/>
     <use xlink:href="#m9528fab9f8" x="111.007207" y="233.985689" style="fill: #ff7f0e; stroke: #000000; stroke-linejoin: miter"/>
     <use xlink:href="#m9528fab9f8" x="120.735725" y="248.541372" style="fill: #ff7f0e; stroke: #000000; stroke-linejoin: miter"/>
     <use xlink:href="#m9528fab9f8" x="130.464243" y="259.97798" style="fill: #ff7f0e; stroke: #000000; stroke-linejoin: miter"/>
     <use xlink:href="#m9528fab9f8" x="149.921279" y="274.529868" style="fill: #ff7f0e; stroke: #000000; stroke-linejoin: miter"/>
     <use xlink:href="#m9528fab9f8" x="208.292387" y="283.887093" style="fill: #ff7f0e; stroke: #000000; stroke-linejoin: miter"/>
     <use xlink:href="#m9528fab9f8" x="266.663495" y="286.626718" style="fill: #ff7f0e; stroke: #000000; stroke-linejoin: miter"/>
     <use xlink:href="#m9528fab9f8" x="325.034604" y="287.006168" style="fill: #ff7f0e; stroke: #000000; stroke-linejoin: miter"/>
     <use xlink:href="#m9528fab9f8" x="383.405712" y="289.085551" style="fill: #ff7f0e; stroke: #000000; stroke-linejoin: miter"/>
     <use xlink:href="#m9528fab9f8" x="441.776821" y="290.125242" style="fill: #ff7f0e; stroke: #000000; stroke-linejoin: miter"/>
    </g>
   </g>
   <g id="line2d_13">
    <path d="M 91.55017 290.125242 
L 91.994034 281.404982 
L 92.881761 232.788836 
L 94.213352 158.171242 
L 95.10108 121.996414 
L 95.988807 96.632187 
L 96.876534 80.138864 
L 97.320398 74.606067 
L 97.764261 70.590847 
L 98.208125 67.900649 
L 98.651989 66.363251 
L 99.095852 65.825338 
L 99.539716 66.150847 
L 99.98358 67.219273 
L 100.427443 68.92406 
L 101.31517 73.877398 
L 102.202898 80.383926 
L 103.534489 92.024486 
L 106.19767 118.205992 
L 109.304716 148.367869 
L 111.524034 167.870866 
L 113.743352 185.222393 
L 115.518807 197.535902 
L 117.294261 208.52353 
L 119.069716 218.281791 
L 120.84517 226.919691 
L 122.620625 234.548164 
L 124.39608 241.274164 
L 126.171534 247.197592 
L 127.946989 252.409928 
L 129.722443 256.993856 
L 131.497898 261.023461 
L 133.273352 264.564726 
L 135.048807 267.676174 
L 136.824261 270.409562 
L 138.599716 272.810567 
L 140.819034 275.405272 
L 143.038352 277.611377 
L 145.25767 279.486977 
L 147.476989 281.081532 
L 149.696307 282.437121 
L 152.359489 283.798405 
L 155.02267 284.918672 
L 158.129716 285.977516 
L 161.680625 286.926629 
L 165.675398 287.737393 
L 170.114034 288.399621 
L 175.440398 288.956626 
L 182.098352 289.407316 
L 190.531761 289.737929 
L 202.51608 289.964105 
L 222.489943 290.087881 
L 277.08517 290.124555 
L 446.64108 290.125242 
L 446.64108 290.125242 
" clip-path="url(#pb352988f3d)" style="fill: none; stroke: #8c564b; stroke-width: 2; stroke-linecap: square"/>
   </g>
   <g id="line2d_14">
    <path d="M 91.55017 290.125242 
L 93.9823 224.442534 
L 96.414429 142.785003 
L 98.846559 103.728266 
L 101.278689 101.952442 
L 103.710818 112.60359 
L 106.142948 130.358032 
L 108.575077 144.557032 
L 111.007207 155.208179 
L 120.735725 196.04074 
L 130.464243 226.218358 
L 149.921279 249.296477 
L 208.292387 267.047124 
L 266.663495 279.474095 
L 325.034604 284.797771 
L 383.405712 288.045859 
L 441.776821 290.125242 
" clip-path="url(#pb352988f3d)" style="fill: none; stroke-dasharray: 3.7,1.6; stroke-dashoffset: 0; stroke: #8c564b"/>
    <defs>
     <path id="ma0acc034ed" d="M -3 3 
L 3 3 
L 3 -3 
L -3 -3 
z
" style="stroke: #000000; stroke-linejoin: miter"/>
    </defs>
    <g clip-path="url(#pb352988f3d)">
     <use xlink:href="#ma0acc034ed" x="91.55017" y="290.125242" style="fill: #8c564b; stroke: #000000; stroke-linejoin: miter"/>
     <use xlink:href="#ma0acc034ed" x="93.9823" y="224.442534" style="fill: #8c564b; stroke: #000000; stroke-linejoin: miter"/>
     <use xlink:href="#ma0acc034ed" x="96.414429" y="142.785003" style="fill: #8c564b; stroke: #000000; stroke-linejoin: miter"/>
     <use xlink:href="#ma0acc034ed" x="98.846559" y="103.728266" style="fill: #8c564b; stroke: #000000; stroke-linejoin: miter"/>
     <use xlink:href="#ma0acc034ed" x="101.278689" y="101.952442" style="fill: #8c564b; stroke: #000000; stroke-linejoin: miter"/>
     <use xlink:href="#ma0acc034ed" x="103.710818" y="112.60359" style="fill: #8c564b; stroke: #000000; stroke-linejoin: miter"/>
     <use xlink:href="#ma0acc034ed" x="106.142948" y="130.358032" style="fill: #8c564b; stroke: #000000; stroke-linejoin: miter"/>
     <use xlink:href="#ma0acc034ed" x="108.575077" y="144.557032" style="fill: #8c564b; stroke: #000000; stroke-linejoin: miter"/>
     <use xlink:href="#ma0acc034ed" x="111.007207" y="155.208179" style="fill: #8c564b; stroke: #000000; stroke-linejoin: miter"/>
     <use xlink:href="#ma0acc034ed" x="120.735725" y="196.04074" style="fill: #8c564b; stroke: #000000; stroke-linejoin: miter"/>
     <use xlink:href="#ma0acc034ed" x="130.464243" y="226.218358" style="fill: #8c564b; stroke: #000000; stroke-linejoin: miter"/>
     <use xlink:href="#ma0acc034ed" x="149.921279" y="249.296477" style="fill: #8c564b; stroke: #000000; stroke-linejoin: miter"/>
     <use xlink:href="#ma0acc034ed" x="208.292387" y="267.047124" style="fill: #8c564b; stroke: #000000; stroke-linejoin: miter"/>
     <use xlink:href="#ma0acc034ed" x="266.663495" y="279.474095" style="fill: #8c564b; stroke: #000000; stroke-linejoin: miter"/>
     <use xlink:href="#ma0acc034ed" x="325.034604" y="284.797771" style="fill: #8c564b; stroke: #000000; stroke-linejoin: miter"/>
     <use xlink:href="#ma0acc034ed" x="383.405712" y="288.045859" style="fill: #8c564b; stroke: #000000; stroke-linejoin: miter"/>
     <use xlink:href="#ma0acc034ed" x="441.776821" y="290.125242" style="fill: #8c564b; stroke: #000000; stroke-linejoin: miter"/>
    </g>
   </g>
   <g id="patch_3">
    <path d="M 73.795625 320.4 
L 73.795625 43.2 
" style="fill: none; stroke: #000000; stroke-width: 0.8; stroke-linejoin: miter; stroke-linecap: square"/>
   </g>
   <g id="patch_4">
    <path d="M 464.395625 320.4 
L 464.395625 43.2 
" style="fill: none; stroke: #000000; stroke-width: 0.8; stroke-linejoin: miter; stroke-linecap: square"/>
   </g>
   <g id="patch_5">
    <path d="M 73.795625 320.4 
L 464.395625 320.4 
" style="fill: none; stroke: #000000; stroke-width: 0.8; stroke-linejoin: miter; stroke-linecap: square"/>
   </g>
   <g id="patch_6">
    <path d="M 73.795625 43.2 
L 464.395625 43.2 
" style="fill: none; stroke: #000000; stroke-width: 0.8; stroke-linejoin: miter; stroke-linecap: square"/>
   </g>
   <g id="legend_1">
    <g id="patch_7">
     <path d="M 331.437813 109.9125 
L 457.395625 109.9125 
Q 459.395625 109.9125 459.395625 107.9125 
L 459.395625 50.2 
Q 459.395625 48.2 457.395625 48.2 
L 331.437813 48.2 
Q 329.437813 48.2 329.437813 50.2 
L 329.437813 107.9125 
Q 329.437813 109.9125 331.437813 109.9125 
z
" style="fill: #ffffff; opacity: 0.8; stroke: #cccccc; stroke-linejoin: miter"/>
    </g>
    <g id="line2d_15">
     <path d="M 333.437813 56.298437 
L 353.437813 56.298437 
" style="fill: none; stroke: #ff7f0e; stroke-width: 2; stroke-linecap: square"/>
    </g>
    <g id="line2d_16"/>
    <g id="text_13">
     <!-- ED60 -->
     <g transform="translate(361.437813 59.798437) scale(0.1 -0.1)">
      <defs>
       <path id="DejaVuSans-45" d="M 628 4666 
L 3578 4666 
L 3578 4134 
L 1259 4134 
L 1259 2753 
L 3481 2753 
L 3481 2222 
L 1259 2222 
L 1259 531 
L 3634 531 
L 3634 0 
L 628 0 
L 628 4666 
z
" transform="scale(0.015625)"/>
       <path id="DejaVuSans-44" d="M 1259 4147 
L 1259 519 
L 2022 519 
Q 2988 519 3436 956 
Q 3884 1394 3884 2338 
Q 3884 3275 3436 3711 
Q 2988 4147 2022 4147 
L 1259 4147 
z
M 628 4666 
L 1925 4666 
Q 3281 4666 3915 4102 
Q 4550 3538 4550 2338 
Q 4550 1131 3912 565 
Q 3275 0 1925 0 
L 628 0 
L 628 4666 
z
" transform="scale(0.015625)"/>
      </defs>
      <use xlink:href="#DejaVuSans-45"/>
      <use xlink:href="#DejaVuSans-44" transform="translate(63.183594 0)"/>
      <use xlink:href="#DejaVuSans-36" transform="translate(140.185547 0)"/>
      <use xlink:href="#DejaVuSans-30" transform="translate(203.808594 0)"/>
     </g>
    </g>
    <g id="LineCollection_3">
     <path d="M 343.437813 75.976562 
L 343.437813 65.976562 
" style="fill: none; stroke: #ff7f0e"/>
    </g>
    <g id="line2d_17">
     <path d="M 333.437813 70.976562 
L 353.437813 70.976562 
" style="fill: none; stroke-dasharray: 3.7,1.6; stroke-dashoffset: 0; stroke: #ff7f0e"/>
    </g>
    <g id="line2d_18">
     <g>
      <use xlink:href="#m9528fab9f8" x="343.437813" y="70.976562" style="fill: #ff7f0e; stroke: #000000; stroke-linejoin: miter"/>
     </g>
    </g>
    <g id="text_14">
     <!-- ED60±SD (n=12) -->
     <g transform="translate(361.437813 74.476562) scale(0.1 -0.1)">
      <defs>
       <path id="DejaVuSans-b1" d="M 2944 4013 
L 2944 2803 
L 4684 2803 
L 4684 2272 
L 2944 2272 
L 2944 1063 
L 2419 1063 
L 2419 2272 
L 678 2272 
L 678 2803 
L 2419 2803 
L 2419 4013 
L 2944 4013 
z
M 678 531 
L 4684 531 
L 4684 0 
L 678 0 
L 678 531 
z
" transform="scale(0.015625)"/>
       <path id="DejaVuSans-53" d="M 3425 4513 
L 3425 3897 
Q 3066 4069 2747 4153 
Q 2428 4238 2131 4238 
Q 1616 4238 1336 4038 
Q 1056 3838 1056 3469 
Q 1056 3159 1242 3001 
Q 1428 2844 1947 2747 
L 2328 2669 
Q 3034 2534 3370 2195 
Q 3706 1856 3706 1288 
Q 3706 609 3251 259 
Q 2797 -91 1919 -91 
Q 1588 -91 1214 -16 
Q 841 59 441 206 
L 441 856 
Q 825 641 1194 531 
Q 1563 422 1919 422 
Q 2459 422 2753 634 
Q 3047 847 3047 1241 
Q 3047 1584 2836 1778 
Q 2625 1972 2144 2069 
L 1759 2144 
Q 1053 2284 737 2584 
Q 422 2884 422 3419 
Q 422 4038 858 4394 
Q 1294 4750 2059 4750 
Q 2388 4750 2728 4690 
Q 3069 4631 3425 4513 
z
" transform="scale(0.015625)"/>
       <path id="DejaVuSans-20" transform="scale(0.015625)"/>
       <path id="DejaVuSans-28" d="M 1984 4856 
Q 1566 4138 1362 3434 
Q 1159 2731 1159 2009 
Q 1159 1288 1364 580 
Q 1569 -128 1984 -844 
L 1484 -844 
Q 1016 -109 783 600 
Q 550 1309 550 2009 
Q 550 2706 781 3412 
Q 1013 4119 1484 4856 
L 1984 4856 
z
" transform="scale(0.015625)"/>
       <path id="DejaVuSans-6e" d="M 3513 2113 
L 3513 0 
L 2938 0 
L 2938 2094 
Q 2938 2591 2744 2837 
Q 2550 3084 2163 3084 
Q 1697 3084 1428 2787 
Q 1159 2491 1159 1978 
L 1159 0 
L 581 0 
L 581 3500 
L 1159 3500 
L 1159 2956 
Q 1366 3272 1645 3428 
Q 1925 3584 2291 3584 
Q 2894 3584 3203 3211 
Q 3513 2838 3513 2113 
z
" transform="scale(0.015625)"/>
       <path id="DejaVuSans-3d" d="M 678 2906 
L 4684 2906 
L 4684 2381 
L 678 2381 
L 678 2906 
z
M 678 1631 
L 4684 1631 
L 4684 1100 
L 678 1100 
L 678 1631 
z
" transform="scale(0.015625)"/>
       <path id="DejaVuSans-29" d="M 513 4856 
L 1013 4856 
Q 1481 4119 1714 3412 
Q 1947 2706 1947 2009 
Q 1947 1309 1714 600 
Q 1481 -109 1013 -844 
L 513 -844 
Q 928 -128 1133 580 
Q 1338 1288 1338 2009 
Q 1338 2731 1133 3434 
Q 928 4138 513 4856 
z
" transform="scale(0.015625)"/>
      </defs>
      <use xlink:href="#DejaVuSans-45"/>
      <use xlink:href="#DejaVuSans-44" transform="translate(63.183594 0)"/>
      <use xlink:href="#DejaVuSans-36" transform="translate(140.185547 0)"/>
      <use xlink:href="#DejaVuSans-30" transform="translate(203.808594 0)"/>
      <use xlink:href="#DejaVuSans-b1" transform="translate(267.431641 0)"/>
      <use xlink:href="#DejaVuSans-53" transform="translate(351.220703 0)"/>
      <use xlink:href="#DejaVuSans-44" transform="translate(414.697266 0)"/>
      <use xlink:href="#DejaVuSans-20" transform="translate(491.699219 0)"/>
      <use xlink:href="#DejaVuSans-28" transform="translate(523.486328 0)"/>
      <use xlink:href="#DejaVuSans-6e" transform="translate(562.5 0)"/>
      <use xlink:href="#DejaVuSans-3d" transform="translate(625.878906 0)"/>
      <use xlink:href="#DejaVuSans-31" transform="translate(709.667969 0)"/>
      <use xlink:href="#DejaVuSans-32" transform="translate(773.291016 0)"/>
      <use xlink:href="#DejaVuSans-29" transform="translate(836.914062 0)"/>
     </g>
    </g>
    <g id="line2d_19">
     <path d="M 333.437813 85.654687 
L 353.437813 85.654687 
" style="fill: none; stroke: #8c564b; stroke-width: 2; stroke-linecap: square"/>
    </g>
    <g id="line2d_20"/>
    <g id="text_15">
     <!-- ED180 -->
     <g transform="translate(361.437813 89.154687) scale(0.1 -0.1)">
      <use xlink:href="#DejaVuSans-45"/>
      <use xlink:href="#DejaVuSans-44" transform="translate(63.183594 0)"/>
      <use xlink:href="#DejaVuSans-31" transform="translate(140.185547 0)"/>
      <use xlink:href="#DejaVuSans-38" transform="translate(203.808594 0)"/>
      <use xlink:href="#DejaVuSans-30" transform="translate(267.431641 0)"/>
     </g>
    </g>
    <g id="LineCollection_4">
     <path d="M 343.437813 105.332812 
L 343.437813 95.332812 
" style="fill: none; stroke: #8c564b"/>
    </g>
    <g id="line2d_21">
     <path d="M 333.437813 100.332812 
L 353.437813 100.332812 
" style="fill: none; stroke-dasharray: 3.7,1.6; stroke-dashoffset: 0; stroke: #8c564b"/>
    </g>
    <g id="line2d_22">
     <g>
      <use xlink:href="#ma0acc034ed" x="343.437813" y="100.332812" style="fill: #8c564b; stroke: #000000; stroke-linejoin: miter"/>
     </g>
    </g>
    <g id="text_16">
     <!-- ED180±SD (n=12) -->
     <g transform="translate(361.437813 103.832812) scale(0.1 -0.1)">
      <use xlink:href="#DejaVuSans-45"/>
      <use xlink:href="#DejaVuSans-44" transform="translate(63.183594 0)"/>
      <use xlink:href="#DejaVuSans-31" transform="translate(140.185547 0)"/>
      <use xlink:href="#DejaVuSans-38" transform="translate(203.808594 0)"/>
      <use xlink:href="#DejaVuSans-30" transform="translate(267.431641 0)"/>
      <use xlink:href="#DejaVuSans-b1" transform="translate(331.054688 0)"/>
      <use xlink:href="#DejaVuSans-53" transform="translate(414.84375 0)"/>
      <use xlink:href="#DejaVuSans-44" transform="translate(478.320312 0)"/>
      <use xlink:href="#DejaVuSans-20" transform="translate(555.322266 0)"/>
      <use xlink:href="#DejaVuSans-28" transform="translate(587.109375 0)"/>
      <use xlink:href="#DejaVuSans-6e" transform="translate(626.123047 0)"/>
      <use xlink:href="#DejaVuSans-3d" transform="translate(689.501953 0)"/>
      <use xlink:href="#DejaVuSans-31" transform="translate(773.291016 0)"/>
      <use xlink:href="#DejaVuSans-32" transform="translate(836.914062 0)"/>
      <use xlink:href="#DejaVuSans-29" transform="translate(900.537109 0)"/>
     </g>
    </g>
   </g>
  </g>
  <g id="text_17">
   <!-- Brown2015 (healthy) -->
   <g transform="translate(114.383516 26.196094) scale(0.25 -0.25)">
    <defs>
     <path id="DejaVuSans-Bold-42" d="M 2456 2859 
Q 2741 2859 2887 2984 
Q 3034 3109 3034 3353 
Q 3034 3594 2887 3720 
Q 2741 3847 2456 3847 
L 1791 3847 
L 1791 2859 
L 2456 2859 
z
M 2497 819 
Q 2859 819 3042 972 
Q 3225 1125 3225 1434 
Q 3225 1738 3044 1889 
Q 2863 2041 2497 2041 
L 1791 2041 
L 1791 819 
L 2497 819 
z
M 3616 2497 
Q 4003 2384 4215 2081 
Q 4428 1778 4428 1338 
Q 4428 663 3972 331 
Q 3516 0 2584 0 
L 588 0 
L 588 4666 
L 2394 4666 
Q 3366 4666 3802 4372 
Q 4238 4078 4238 3431 
Q 4238 3091 4078 2852 
Q 3919 2613 3616 2497 
z
" transform="scale(0.015625)"/>
     <path id="DejaVuSans-Bold-77" d="M 225 3500 
L 1313 3500 
L 1900 1088 
L 2491 3500 
L 3425 3500 
L 4013 1113 
L 4603 3500 
L 5691 3500 
L 4769 0 
L 3547 0 
L 2956 2406 
L 2369 0 
L 1147 0 
L 225 3500 
z
" transform="scale(0.015625)"/>
     <path id="DejaVuSans-Bold-32" d="M 1844 884 
L 3897 884 
L 3897 0 
L 506 0 
L 506 884 
L 2209 2388 
Q 2438 2594 2547 2791 
Q 2656 2988 2656 3200 
Q 2656 3528 2436 3728 
Q 2216 3928 1850 3928 
Q 1569 3928 1234 3808 
Q 900 3688 519 3450 
L 519 4475 
Q 925 4609 1322 4679 
Q 1719 4750 2100 4750 
Q 2938 4750 3402 4381 
Q 3866 4013 3866 3353 
Q 3866 2972 3669 2642 
Q 3472 2313 2841 1759 
L 1844 884 
z
" transform="scale(0.015625)"/>
     <path id="DejaVuSans-Bold-30" d="M 2944 2338 
Q 2944 3213 2780 3570 
Q 2616 3928 2228 3928 
Q 1841 3928 1675 3570 
Q 1509 3213 1509 2338 
Q 1509 1453 1675 1090 
Q 1841 728 2228 728 
Q 2613 728 2778 1090 
Q 2944 1453 2944 2338 
z
M 4147 2328 
Q 4147 1169 3647 539 
Q 3147 -91 2228 -91 
Q 1306 -91 806 539 
Q 306 1169 306 2328 
Q 306 3491 806 4120 
Q 1306 4750 2228 4750 
Q 3147 4750 3647 4120 
Q 4147 3491 4147 2328 
z
" transform="scale(0.015625)"/>
     <path id="DejaVuSans-Bold-31" d="M 750 831 
L 1813 831 
L 1813 3847 
L 722 3622 
L 722 4441 
L 1806 4666 
L 2950 4666 
L 2950 831 
L 4013 831 
L 4013 0 
L 750 0 
L 750 831 
z
" transform="scale(0.015625)"/>
     <path id="DejaVuSans-Bold-35" d="M 678 4666 
L 3669 4666 
L 3669 3781 
L 1638 3781 
L 1638 3059 
Q 1775 3097 1914 3117 
Q 2053 3138 2203 3138 
Q 3056 3138 3531 2711 
Q 4006 2284 4006 1522 
Q 4006 766 3489 337 
Q 2972 -91 2053 -91 
Q 1656 -91 1267 -14 
Q 878 63 494 219 
L 494 1166 
Q 875 947 1217 837 
Q 1559 728 1863 728 
Q 2300 728 2551 942 
Q 2803 1156 2803 1522 
Q 2803 1891 2551 2103 
Q 2300 2316 1863 2316 
Q 1603 2316 1309 2248 
Q 1016 2181 678 2041 
L 678 4666 
z
" transform="scale(0.015625)"/>
     <path id="DejaVuSans-Bold-28" d="M 2413 -844 
L 1484 -844 
Q 1006 -72 778 623 
Q 550 1319 550 2003 
Q 550 2688 779 3389 
Q 1009 4091 1484 4856 
L 2413 4856 
Q 2013 4116 1813 3408 
Q 1613 2700 1613 2009 
Q 1613 1319 1811 609 
Q 2009 -100 2413 -844 
z
" transform="scale(0.015625)"/>
     <path id="DejaVuSans-Bold-79" d="M 78 3500 
L 1197 3500 
L 2138 1125 
L 2938 3500 
L 4056 3500 
L 2584 -331 
Q 2363 -916 2067 -1148 
Q 1772 -1381 1288 -1381 
L 641 -1381 
L 641 -647 
L 991 -647 
Q 1275 -647 1404 -556 
Q 1534 -466 1606 -231 
L 1638 -134 
L 78 3500 
z
" transform="scale(0.015625)"/>
     <path id="DejaVuSans-Bold-29" d="M 513 -844 
Q 913 -100 1113 609 
Q 1313 1319 1313 2009 
Q 1313 2700 1113 3408 
Q 913 4116 513 4856 
L 1441 4856 
Q 1916 4091 2145 3389 
Q 2375 2688 2375 2003 
Q 2375 1319 2147 623 
Q 1919 -72 1441 -844 
L 513 -844 
z
" transform="scale(0.015625)"/>
    </defs>
    <use xlink:href="#DejaVuSans-Bold-42"/>
    <use xlink:href="#DejaVuSans-Bold-72" transform="translate(76.220703 0)"/>
    <use xlink:href="#DejaVuSans-Bold-6f" transform="translate(125.537109 0)"/>
    <use xlink:href="#DejaVuSans-Bold-77" transform="translate(194.238281 0)"/>
    <use xlink:href="#DejaVuSans-Bold-6e" transform="translate(286.621094 0)"/>
    <use xlink:href="#DejaVuSans-Bold-32" transform="translate(357.8125 0)"/>
    <use xlink:href="#DejaVuSans-Bold-30" transform="translate(427.392578 0)"/>
    <use xlink:href="#DejaVuSans-Bold-31" transform="translate(496.972656 0)"/>
    <use xlink:href="#DejaVuSans-Bold-35" transform="translate(566.552734 0)"/>
    <use xlink:href="#DejaVuSans-Bold-20" transform="translate(636.132812 0)"/>
    <use xlink:href="#DejaVuSans-Bold-28" transform="translate(670.947266 0)"/>
    <use xlink:href="#DejaVuSans-Bold-68" transform="translate(716.650391 0)"/>
    <use xlink:href="#DejaVuSans-Bold-65" transform="translate(787.841797 0)"/>
    <use xlink:href="#DejaVuSans-Bold-61" transform="translate(855.664062 0)"/>
    <use xlink:href="#DejaVuSans-Bold-6c" transform="translate(923.144531 0)"/>
    <use xlink:href="#DejaVuSans-Bold-74" transform="translate(957.421875 0)"/>
    <use xlink:href="#DejaVuSans-Bold-68" transform="translate(1005.224609 0)"/>
    <use xlink:href="#DejaVuSans-Bold-79" transform="translate(1076.416016 0)"/>
    <use xlink:href="#DejaVuSans-Bold-29" transform="translate(1141.601562 0)"/>
   </g>
  </g>
 </g>
 <defs>
  <clipPath id="pb352988f3d">
   <rect x="73.795625" y="43.2" width="390.6" height="277.2"/>
  </clipPath>
 </defs>
</svg>
