<?xml version="1.0" encoding="utf-8" standalone="no"?>
<!DOCTYPE svg PUBLIC "-//W3C//DTD SVG 1.1//EN"
  "http://www.w3.org/Graphics/SVG/1.1/DTD/svg11.dtd">
<svg xmlns:xlink="http://www.w3.org/1999/xlink" width="469.985469pt" height="370.537812pt" viewBox="0 0 469.985469 370.537812" xmlns="http://www.w3.org/2000/svg" version="1.1">
 <metadata>
  <rdf:RDF xmlns:dc="http://purl.org/dc/elements/1.1/" xmlns:cc="http://creativecommons.org/ns#" xmlns:rdf="http://www.w3.org/1999/02/22-rdf-syntax-ns#">
   <cc:Work>
    <dc:type rdf:resource="http://purl.org/dc/dcmitype/StillImage"/>
    <dc:date>2026-01-06T17:44:20.032856</dc:date>
    <dc:format>image/svg+xml</dc:format>
    <dc:creator>
     <cc:Agent>
      <dc:title>Matplotlib v3.10.7, https://matplotlib.org/</dc:title>
     </cc:Agent>
    </dc:creator>
   </cc:Work>
  </rdf:RDF>
 </metadata>
 <defs>
  <style type="text/css">*{stroke-linejoin: round; stroke-linecap: butt}</style>
 </defs>
 <g id="figure_1">
  <g id="patch_1">
   <path d="M -0 370.537812 
L 469.985469 370.537812 
L 469.985469 0 
L -0 0 
z
" style="fill: #ffffff"/>
  </g>
  <g id="axes_1">
   <g id="patch_2">
    <path d="M 72.185469 320.4 
L 462.785469 320.4 
L 462.785469 43.2 
L 72.185469 43.2 
z
" style="fill: #ffffff"/>
   </g>
   <g id="matplotlib.axis_1">
    <g id="xtick_1">
     <g id="line2d_1">
      <defs>
       <path id="mb679c7161f" d="M 0 0 
L 0 3.5 
" style="stroke: #000000; stroke-width: 0.8"/>
      </defs>
      <g>
       <use xlink:href="#mb679c7161f" x="89.940014" y="320.4" style="stroke: #000000; stroke-width: 0.8"/>
      </g>
     </g>
     <g id="text_1">
      <!-- 0 -->
      <g transform="translate(85.168139 338.797656) scale(0.15 -0.15)">
       <defs>
        <path id="DejaVuSans-30" d="M 2034 4250 
Q 1547 4250 1301 3770 
Q 1056 3291 1056 2328 
Q 1056 1369 1301 889 
Q 1547 409 2034 409 
Q 2525 409 2770 889 
Q 3016 1369 3016 2328 
Q 3016 3291 2770 3770 
Q 2525 4250 2034 4250 
z
M 2034 4750 
Q 2819 4750 3233 4129 
Q 3647 3509 3647 2328 
Q 3647 1150 3233 529 
Q 2819 -91 2034 -91 
Q 1250 -91 836 529 
Q 422 1150 422 2328 
Q 422 3509 836 4129 
Q 1250 4750 2034 4750 
z
" transform="scale(0.015625)"/>
       </defs>
       <use xlink:href="#DejaVuSans-30"/>
      </g>
     </g>
    </g>
    <g id="xtick_2">
     <g id="line2d_2">
      <g>
       <use xlink:href="#mb679c7161f" x="187.225195" y="320.4" style="stroke: #000000; stroke-width: 0.8"/>
      </g>
     </g>
     <g id="text_2">
      <!-- 20 -->
      <g transform="translate(177.681445 338.797656) scale(0.15 -0.15)">
       <defs>
        <path id="DejaVuSans-32" d="M 1228 531 
L 3431 531 
L 3431 0 
L 469 0 
L 469 531 
Q 828 903 1448 1529 
Q 2069 2156 2228 2338 
Q 2531 2678 2651 2914 
Q 2772 3150 2772 3378 
Q 2772 3750 2511 3984 
Q 2250 4219 1831 4219 
Q 1534 4219 1204 4116 
Q 875 4013 500 3803 
L 500 4441 
Q 881 4594 1212 4672 
Q 1544 4750 1819 4750 
Q 2544 4750 2975 4387 
Q 3406 4025 3406 3419 
Q 3406 3131 3298 2873 
Q 3191 2616 2906 2266 
Q 2828 2175 2409 1742 
Q 1991 1309 1228 531 
z
" transform="scale(0.015625)"/>
       </defs>
       <use xlink:href="#DejaVuSans-32"/>
       <use xlink:href="#DejaVuSans-30" transform="translate(63.623047 0)"/>
      </g>
     </g>
    </g>
    <g id="xtick_3">
     <g id="line2d_3">
      <g>
       <use xlink:href="#mb679c7161f" x="284.510375" y="320.4" style="stroke: #000000; stroke-width: 0.8"/>
      </g>
     </g>
     <g id="text_3">
      <!-- 40 -->
      <g transform="translate(274.966625 338.797656) scale(0.15 -0.15)">
       <defs>
        <path id="DejaVuSans-34" d="M 2419 4116 
L 825 1625 
L 2419 1625 
L 2419 4116 
z
M 2253 4666 
L 3047 4666 
L 3047 1625 
L 3713 1625 
L 3713 1100 
L 3047 1100 
L 3047 0 
L 2419 0 
L 2419 1100 
L 313 1100 
L 313 1709 
L 2253 4666 
z
" transform="scale(0.015625)"/>
       </defs>
       <use xlink:href="#DejaVuSans-34"/>
       <use xlink:href="#DejaVuSans-30" transform="translate(63.623047 0)"/>
      </g>
     </g>
    </g>
    <g id="xtick_4">
     <g id="line2d_4">
      <g>
       <use xlink:href="#mb679c7161f" x="381.795556" y="320.4" style="stroke: #000000; stroke-width: 0.8"/>
      </g>
     </g>
     <g id="text_4">
      <!-- 60 -->
      <g transform="translate(372.251806 338.797656) scale(0.15 -0.15)">
       <defs>
        <path id="DejaVuSans-36" d="M 2113 2584 
Q 1688 2584 1439 2293 
Q 1191 2003 1191 1497 
Q 1191 994 1439 701 
Q 1688 409 2113 409 
Q 2538 409 2786 701 
Q 3034 994 3034 1497 
Q 3034 2003 2786 2293 
Q 2538 2584 2113 2584 
z
M 3366 4563 
L 3366 3988 
Q 3128 4100 2886 4159 
Q 2644 4219 2406 4219 
Q 1781 4219 1451 3797 
Q 1122 3375 1075 2522 
Q 1259 2794 1537 2939 
Q 1816 3084 2150 3084 
Q 2853 3084 3261 2657 
Q 3669 2231 3669 1497 
Q 3669 778 3244 343 
Q 2819 -91 2113 -91 
Q 1303 -91 875 529 
Q 447 1150 447 2328 
Q 447 3434 972 4092 
Q 1497 4750 2381 4750 
Q 2619 4750 2861 4703 
Q 3103 4656 3366 4563 
z
" transform="scale(0.015625)"/>
       </defs>
       <use xlink:href="#DejaVuSans-36"/>
       <use xlink:href="#DejaVuSans-30" transform="translate(63.623047 0)"/>
      </g>
     </g>
    </g>
    <g id="text_5">
     <!-- time [hr] -->
     <g transform="translate(222.410937 359.594375) scale(0.18 -0.18)">
      <defs>
       <path id="DejaVuSans-Bold-74" d="M 1759 4494 
L 1759 3500 
L 2913 3500 
L 2913 2700 
L 1759 2700 
L 1759 1216 
Q 1759 972 1856 886 
Q 1953 800 2241 800 
L 2816 800 
L 2816 0 
L 1856 0 
Q 1194 0 917 276 
Q 641 553 641 1216 
L 641 2700 
L 84 2700 
L 84 3500 
L 641 3500 
L 641 4494 
L 1759 4494 
z
" transform="scale(0.015625)"/>
       <path id="DejaVuSans-Bold-69" d="M 538 3500 
L 1656 3500 
L 1656 0 
L 538 0 
L 538 3500 
z
M 538 4863 
L 1656 4863 
L 1656 3950 
L 538 3950 
L 538 4863 
z
" transform="scale(0.015625)"/>
       <path id="DejaVuSans-Bold-6d" d="M 3781 2919 
Q 3994 3244 4286 3414 
Q 4578 3584 4928 3584 
Q 5531 3584 5847 3212 
Q 6163 2841 6163 2131 
L 6163 0 
L 5038 0 
L 5038 1825 
Q 5041 1866 5042 1909 
Q 5044 1953 5044 2034 
Q 5044 2406 4934 2573 
Q 4825 2741 4581 2741 
Q 4263 2741 4089 2478 
Q 3916 2216 3909 1719 
L 3909 0 
L 2784 0 
L 2784 1825 
Q 2784 2406 2684 2573 
Q 2584 2741 2328 2741 
Q 2006 2741 1831 2477 
Q 1656 2213 1656 1722 
L 1656 0 
L 531 0 
L 531 3500 
L 1656 3500 
L 1656 2988 
Q 1863 3284 2130 3434 
Q 2397 3584 2719 3584 
Q 3081 3584 3359 3409 
Q 3638 3234 3781 2919 
z
" transform="scale(0.015625)"/>
       <path id="DejaVuSans-Bold-65" d="M 4031 1759 
L 4031 1441 
L 1416 1441 
Q 1456 1047 1700 850 
Q 1944 653 2381 653 
Q 2734 653 3104 758 
Q 3475 863 3866 1075 
L 3866 213 
Q 3469 63 3072 -14 
Q 2675 -91 2278 -91 
Q 1328 -91 801 392 
Q 275 875 275 1747 
Q 275 2603 792 3093 
Q 1309 3584 2216 3584 
Q 3041 3584 3536 3087 
Q 4031 2591 4031 1759 
z
M 2881 2131 
Q 2881 2450 2695 2645 
Q 2509 2841 2209 2841 
Q 1884 2841 1681 2658 
Q 1478 2475 1428 2131 
L 2881 2131 
z
" transform="scale(0.015625)"/>
       <path id="DejaVuSans-Bold-20" transform="scale(0.015625)"/>
       <path id="DejaVuSans-Bold-5b" d="M 550 4863 
L 2491 4863 
L 2491 4159 
L 1613 4159 
L 1613 -141 
L 2491 -141 
L 2491 -844 
L 550 -844 
L 550 4863 
z
" transform="scale(0.015625)"/>
       <path id="DejaVuSans-Bold-68" d="M 4056 2131 
L 4056 0 
L 2931 0 
L 2931 347 
L 2931 1625 
Q 2931 2084 2911 2256 
Q 2891 2428 2841 2509 
Q 2775 2619 2662 2680 
Q 2550 2741 2406 2741 
Q 2056 2741 1856 2470 
Q 1656 2200 1656 1722 
L 1656 0 
L 538 0 
L 538 4863 
L 1656 4863 
L 1656 2988 
Q 1909 3294 2193 3439 
Q 2478 3584 2822 3584 
Q 3428 3584 3742 3212 
Q 4056 2841 4056 2131 
z
" transform="scale(0.015625)"/>
       <path id="DejaVuSans-Bold-72" d="M 3138 2547 
Q 2991 2616 2845 2648 
Q 2700 2681 2553 2681 
Q 2122 2681 1889 2404 
Q 1656 2128 1656 1613 
L 1656 0 
L 538 0 
L 538 3500 
L 1656 3500 
L 1656 2925 
Q 1872 3269 2151 3426 
Q 2431 3584 2822 3584 
Q 2878 3584 2943 3579 
Q 3009 3575 3134 3559 
L 3138 2547 
z
" transform="scale(0.015625)"/>
       <path id="DejaVuSans-Bold-5d" d="M 2375 -844 
L 434 -844 
L 434 -141 
L 1313 -141 
L 1313 4159 
L 434 4159 
L 434 4863 
L 2375 4863 
L 2375 -844 
z
" transform="scale(0.015625)"/>
      </defs>
      <use xlink:href="#DejaVuSans-Bold-74"/>
      <use xlink:href="#DejaVuSans-Bold-69" transform="translate(47.802734 0)"/>
      <use xlink:href="#DejaVuSans-Bold-6d" transform="translate(82.080078 0)"/>
      <use xlink:href="#DejaVuSans-Bold-65" transform="translate(186.279297 0)"/>
      <use xlink:href="#DejaVuSans-Bold-20" transform="translate(254.101562 0)"/>
      <use xlink:href="#DejaVuSans-Bold-5b" transform="translate(288.916016 0)"/>
      <use xlink:href="#DejaVuSans-Bold-68" transform="translate(334.619141 0)"/>
      <use xlink:href="#DejaVuSans-Bold-72" transform="translate(405.810547 0)"/>
      <use xlink:href="#DejaVuSans-Bold-5d" transform="translate(455.126953 0)"/>
     </g>
    </g>
   </g>
   <g id="matplotlib.axis_2">
    <g id="ytick_1">
     <g id="line2d_5">
      <defs>
       <path id="m02bf030cc3" d="M 0 0 
L -3.5 0 
" style="stroke: #000000; stroke-width: 0.8"/>
      </defs>
      <g>
       <use xlink:href="#m02bf030cc3" x="72.185469" y="304.853452" style="stroke: #000000; stroke-width: 0.8"/>
      </g>
     </g>
     <g id="text_6">
      <!-- −2.5 -->
      <g transform="translate(28.76125 310.55228) scale(0.15 -0.15)">
       <defs>
        <path id="DejaVuSans-2212" d="M 678 2272 
L 4684 2272 
L 4684 1741 
L 678 1741 
L 678 2272 
z
" transform="scale(0.015625)"/>
        <path id="DejaVuSans-2e" d="M 684 794 
L 1344 794 
L 1344 0 
L 684 0 
L 684 794 
z
" transform="scale(0.015625)"/>
        <path id="DejaVuSans-35" d="M 691 4666 
L 3169 4666 
L 3169 4134 
L 1269 4134 
L 1269 2991 
Q 1406 3038 1543 3061 
Q 1681 3084 1819 3084 
Q 2600 3084 3056 2656 
Q 3513 2228 3513 1497 
Q 3513 744 3044 326 
Q 2575 -91 1722 -91 
Q 1428 -91 1123 -41 
Q 819 9 494 109 
L 494 744 
Q 775 591 1075 516 
Q 1375 441 1709 441 
Q 2250 441 2565 725 
Q 2881 1009 2881 1497 
Q 2881 1984 2565 2268 
Q 2250 2553 1709 2553 
Q 1456 2553 1204 2497 
Q 953 2441 691 2322 
L 691 4666 
z
" transform="scale(0.015625)"/>
       </defs>
       <use xlink:href="#DejaVuSans-2212"/>
       <use xlink:href="#DejaVuSans-32" transform="translate(83.789062 0)"/>
       <use xlink:href="#DejaVuSans-2e" transform="translate(147.412109 0)"/>
       <use xlink:href="#DejaVuSans-35" transform="translate(179.199219 0)"/>
      </g>
     </g>
    </g>
    <g id="ytick_2">
     <g id="line2d_6">
      <g>
       <use xlink:href="#m02bf030cc3" x="72.185469" y="269.775501" style="stroke: #000000; stroke-width: 0.8"/>
      </g>
     </g>
     <g id="text_7">
      <!-- 0.0 -->
      <g transform="translate(41.330781 275.474329) scale(0.15 -0.15)">
       <use xlink:href="#DejaVuSans-30"/>
       <use xlink:href="#DejaVuSans-2e" transform="translate(63.623047 0)"/>
       <use xlink:href="#DejaVuSans-30" transform="translate(95.410156 0)"/>
      </g>
     </g>
    </g>
    <g id="ytick_3">
     <g id="line2d_7">
      <g>
       <use xlink:href="#m02bf030cc3" x="72.185469" y="234.69755" style="stroke: #000000; stroke-width: 0.8"/>
      </g>
     </g>
     <g id="text_8">
      <!-- 2.5 -->
      <g transform="translate(41.330781 240.396378) scale(0.15 -0.15)">
       <use xlink:href="#DejaVuSans-32"/>
       <use xlink:href="#DejaVuSans-2e" transform="translate(63.623047 0)"/>
       <use xlink:href="#DejaVuSans-35" transform="translate(95.410156 0)"/>
      </g>
     </g>
    </g>
    <g id="ytick_4">
     <g id="line2d_8">
      <g>
       <use xlink:href="#m02bf030cc3" x="72.185469" y="199.619599" style="stroke: #000000; stroke-width: 0.8"/>
      </g>
     </g>
     <g id="text_9">
      <!-- 5.0 -->
      <g transform="translate(41.330781 205.318427) scale(0.15 -0.15)">
       <use xlink:href="#DejaVuSans-35"/>
       <use xlink:href="#DejaVuSans-2e" transform="translate(63.623047 0)"/>
       <use xlink:href="#DejaVuSans-30" transform="translate(95.410156 0)"/>
      </g>
     </g>
    </g>
    <g id="ytick_5">
     <g id="line2d_9">
      <g>
       <use xlink:href="#m02bf030cc3" x="72.185469" y="164.541648" style="stroke: #000000; stroke-width: 0.8"/>
      </g>
     </g>
     <g id="text_10">
      <!-- 7.5 -->
      <g transform="translate(41.330781 170.240476) scale(0.15 -0.15)">
       <defs>
        <path id="DejaVuSans-37" d="M 525 4666 
L 3525 4666 
L 3525 4397 
L 1831 0 
L 1172 0 
L 2766 4134 
L 525 4134 
L 525 4666 
z
" transform="scale(0.015625)"/>
       </defs>
       <use xlink:href="#DejaVuSans-37"/>
       <use xlink:href="#DejaVuSans-2e" transform="translate(63.623047 0)"/>
       <use xlink:href="#DejaVuSans-35" transform="translate(95.410156 0)"/>
      </g>
     </g>
    </g>
    <g id="ytick_6">
     <g id="line2d_10">
      <g>
       <use xlink:href="#m02bf030cc3" x="72.185469" y="129.463697" style="stroke: #000000; stroke-width: 0.8"/>
      </g>
     </g>
     <g id="text_11">
      <!-- 10.0 -->
      <g transform="translate(31.787031 135.162525) scale(0.15 -0.15)">
       <defs>
        <path id="DejaVuSans-31" d="M 794 531 
L 1825 531 
L 1825 4091 
L 703 3866 
L 703 4441 
L 1819 4666 
L 2450 4666 
L 2450 531 
L 3481 531 
L 3481 0 
L 794 0 
L 794 531 
z
" transform="scale(0.015625)"/>
       </defs>
       <use xlink:href="#DejaVuSans-31"/>
       <use xlink:href="#DejaVuSans-30" transform="translate(63.623047 0)"/>
       <use xlink:href="#DejaVuSans-2e" transform="translate(127.246094 0)"/>
       <use xlink:href="#DejaVuSans-30" transform="translate(159.033203 0)"/>
      </g>
     </g>
    </g>
    <g id="ytick_7">
     <g id="line2d_11">
      <g>
       <use xlink:href="#m02bf030cc3" x="72.185469" y="94.385746" style="stroke: #000000; stroke-width: 0.8"/>
      </g>
     </g>
     <g id="text_12">
      <!-- 12.5 -->
      <g transform="translate(31.787031 100.084574) scale(0.15 -0.15)">
       <use xlink:href="#DejaVuSans-31"/>
       <use xlink:href="#DejaVuSans-32" transform="translate(63.623047 0)"/>
       <use xlink:href="#DejaVuSans-2e" transform="translate(127.246094 0)"/>
       <use xlink:href="#DejaVuSans-35" transform="translate(159.033203 0)"/>
      </g>
     </g>
    </g>
    <g id="ytick_8">
     <g id="line2d_12">
      <g>
       <use xlink:href="#m02bf030cc3" x="72.185469" y="59.307795" style="stroke: #000000; stroke-width: 0.8"/>
      </g>
     </g>
     <g id="text_13">
      <!-- 15.0 -->
      <g transform="translate(31.787031 65.006623) scale(0.15 -0.15)">
       <use xlink:href="#DejaVuSans-31"/>
       <use xlink:href="#DejaVuSans-35" transform="translate(63.623047 0)"/>
       <use xlink:href="#DejaVuSans-2e" transform="translate(127.246094 0)"/>
       <use xlink:href="#DejaVuSans-30" transform="translate(159.033203 0)"/>
      </g>
     </g>
    </g>
    <g id="text_14">
     <!-- PT change [s] -->
     <g transform="translate(20.877188 251.154844) rotate(-90) scale(0.18 -0.18)">
      <defs>
       <path id="DejaVuSans-Bold-50" d="M 588 4666 
L 2584 4666 
Q 3475 4666 3951 4270 
Q 4428 3875 4428 3144 
Q 4428 2409 3951 2014 
Q 3475 1619 2584 1619 
L 1791 1619 
L 1791 0 
L 588 0 
L 588 4666 
z
M 1791 3794 
L 1791 2491 
L 2456 2491 
Q 2806 2491 2997 2661 
Q 3188 2831 3188 3144 
Q 3188 3456 2997 3625 
Q 2806 3794 2456 3794 
L 1791 3794 
z
" transform="scale(0.015625)"/>
       <path id="DejaVuSans-Bold-54" d="M 31 4666 
L 4331 4666 
L 4331 3756 
L 2784 3756 
L 2784 0 
L 1581 0 
L 1581 3756 
L 31 3756 
L 31 4666 
z
" transform="scale(0.015625)"/>
       <path id="DejaVuSans-Bold-63" d="M 3366 3391 
L 3366 2478 
Q 3138 2634 2908 2709 
Q 2678 2784 2431 2784 
Q 1963 2784 1702 2511 
Q 1441 2238 1441 1747 
Q 1441 1256 1702 982 
Q 1963 709 2431 709 
Q 2694 709 2930 787 
Q 3166 866 3366 1019 
L 3366 103 
Q 3103 6 2833 -42 
Q 2563 -91 2291 -91 
Q 1344 -91 809 395 
Q 275 881 275 1747 
Q 275 2613 809 3098 
Q 1344 3584 2291 3584 
Q 2566 3584 2833 3536 
Q 3100 3488 3366 3391 
z
" transform="scale(0.015625)"/>
       <path id="DejaVuSans-Bold-61" d="M 2106 1575 
Q 1756 1575 1579 1456 
Q 1403 1338 1403 1106 
Q 1403 894 1545 773 
Q 1688 653 1941 653 
Q 2256 653 2472 879 
Q 2688 1106 2688 1447 
L 2688 1575 
L 2106 1575 
z
M 3816 1997 
L 3816 0 
L 2688 0 
L 2688 519 
Q 2463 200 2181 54 
Q 1900 -91 1497 -91 
Q 953 -91 614 226 
Q 275 544 275 1050 
Q 275 1666 698 1953 
Q 1122 2241 2028 2241 
L 2688 2241 
L 2688 2328 
Q 2688 2594 2478 2717 
Q 2269 2841 1825 2841 
Q 1466 2841 1156 2769 
Q 847 2697 581 2553 
L 581 3406 
Q 941 3494 1303 3539 
Q 1666 3584 2028 3584 
Q 2975 3584 3395 3211 
Q 3816 2838 3816 1997 
z
" transform="scale(0.015625)"/>
       <path id="DejaVuSans-Bold-6e" d="M 4056 2131 
L 4056 0 
L 2931 0 
L 2931 347 
L 2931 1631 
Q 2931 2084 2911 2256 
Q 2891 2428 2841 2509 
Q 2775 2619 2662 2680 
Q 2550 2741 2406 2741 
Q 2056 2741 1856 2470 
Q 1656 2200 1656 1722 
L 1656 0 
L 538 0 
L 538 3500 
L 1656 3500 
L 1656 2988 
Q 1909 3294 2193 3439 
Q 2478 3584 2822 3584 
Q 3428 3584 3742 3212 
Q 4056 2841 4056 2131 
z
" transform="scale(0.015625)"/>
       <path id="DejaVuSans-Bold-67" d="M 2919 594 
Q 2688 288 2409 144 
Q 2131 0 1766 0 
Q 1125 0 706 504 
Q 288 1009 288 1791 
Q 288 2575 706 3076 
Q 1125 3578 1766 3578 
Q 2131 3578 2409 3434 
Q 2688 3291 2919 2981 
L 2919 3500 
L 4044 3500 
L 4044 353 
Q 4044 -491 3511 -936 
Q 2978 -1381 1966 -1381 
Q 1638 -1381 1331 -1331 
Q 1025 -1281 716 -1178 
L 716 -306 
Q 1009 -475 1290 -558 
Q 1572 -641 1856 -641 
Q 2406 -641 2662 -400 
Q 2919 -159 2919 353 
L 2919 594 
z
M 2181 2772 
Q 1834 2772 1640 2515 
Q 1447 2259 1447 1791 
Q 1447 1309 1634 1061 
Q 1822 813 2181 813 
Q 2531 813 2725 1069 
Q 2919 1325 2919 1791 
Q 2919 2259 2725 2515 
Q 2531 2772 2181 2772 
z
" transform="scale(0.015625)"/>
       <path id="DejaVuSans-Bold-73" d="M 3272 3391 
L 3272 2541 
Q 2913 2691 2578 2766 
Q 2244 2841 1947 2841 
Q 1628 2841 1473 2761 
Q 1319 2681 1319 2516 
Q 1319 2381 1436 2309 
Q 1553 2238 1856 2203 
L 2053 2175 
Q 2913 2066 3209 1816 
Q 3506 1566 3506 1031 
Q 3506 472 3093 190 
Q 2681 -91 1863 -91 
Q 1516 -91 1145 -36 
Q 775 19 384 128 
L 384 978 
Q 719 816 1070 734 
Q 1422 653 1784 653 
Q 2113 653 2278 743 
Q 2444 834 2444 1013 
Q 2444 1163 2330 1236 
Q 2216 1309 1875 1350 
L 1678 1375 
Q 931 1469 631 1722 
Q 331 1975 331 2491 
Q 331 3047 712 3315 
Q 1094 3584 1881 3584 
Q 2191 3584 2531 3537 
Q 2872 3491 3272 3391 
z
" transform="scale(0.015625)"/>
      </defs>
      <use xlink:href="#DejaVuSans-Bold-50"/>
      <use xlink:href="#DejaVuSans-Bold-54" transform="translate(73.291016 0)"/>
      <use xlink:href="#DejaVuSans-Bold-20" transform="translate(141.503906 0)"/>
      <use xlink:href="#DejaVuSans-Bold-63" transform="translate(176.318359 0)"/>
      <use xlink:href="#DejaVuSans-Bold-68" transform="translate(235.595703 0)"/>
      <use xlink:href="#DejaVuSans-Bold-61" transform="translate(306.787109 0)"/>
      <use xlink:href="#DejaVuSans-Bold-6e" transform="translate(374.267578 0)"/>
      <use xlink:href="#DejaVuSans-Bold-67" transform="translate(445.458984 0)"/>
      <use xlink:href="#DejaVuSans-Bold-65" transform="translate(517.041016 0)"/>
      <use xlink:href="#DejaVuSans-Bold-20" transform="translate(584.863281 0)"/>
      <use xlink:href="#DejaVuSans-Bold-5b" transform="translate(619.677734 0)"/>
      <use xlink:href="#DejaVuSans-Bold-73" transform="translate(665.380859 0)"/>
      <use xlink:href="#DejaVuSans-Bold-5d" transform="translate(724.902344 0)"/>
     </g>
    </g>
   </g>
   <g id="LineCollection_1">
    <path clip-path="url(#pe160ec5c1e)" style="fill: none; stroke: #ff7f0e"/>
    <path d="M 92.372144 271.318931 
L 92.372144 190.779955 
" clip-path="url(#pe160ec5c1e)" style="fill: none; stroke: #ff7f0e"/>
    <path d="M 94.804273 210.142984 
L 94.804273 152.053898 
" clip-path="url(#pe160ec5c1e)" style="fill: none; stroke: #ff7f0e"/>
    <path d="M 97.236403 229.646325 
L 97.236403 142.372383 
" clip-path="url(#pe160ec5c1e)" style="fill: none; stroke: #ff7f0e"/>
    <path d="M 99.668532 244.098441 
L 99.668532 153.737639 
" clip-path="url(#pe160ec5c1e)" style="fill: none; stroke: #ff7f0e"/>
    <path d="M 104.532791 244.098441 
L 104.532791 166.646325 
" clip-path="url(#pe160ec5c1e)" style="fill: none; stroke: #ff7f0e"/>
    <path d="M 109.39705 252.236526 
L 109.39705 177.871269 
" clip-path="url(#pe160ec5c1e)" style="fill: none; stroke: #ff7f0e"/>
    <path d="M 119.125568 268.372383 
L 119.125568 187.552784 
" clip-path="url(#pe160ec5c1e)" style="fill: none; stroke: #ff7f0e"/>
    <path d="M 128.854086 287.735412 
L 128.854086 194.007127 
" clip-path="url(#pe160ec5c1e)" style="fill: none; stroke: #ff7f0e"/>
    <path d="M 148.311123 302.468151 
L 148.311123 205.372383 
" clip-path="url(#pe160ec5c1e)" style="fill: none; stroke: #ff7f0e"/>
    <path d="M 206.682231 307.8 
L 206.682231 219.964811 
" clip-path="url(#pe160ec5c1e)" style="fill: none; stroke: #ff7f0e"/>
    <path d="M 265.053339 298.679733 
L 265.053339 236.100668 
" clip-path="url(#pe160ec5c1e)" style="fill: none; stroke: #ff7f0e"/>
    <path d="M 323.424448 284.508241 
L 323.424448 252.236526 
" clip-path="url(#pe160ec5c1e)" style="fill: none; stroke: #ff7f0e"/>
    <path d="M 381.795556 277.773274 
L 381.795556 260.655234 
" clip-path="url(#pe160ec5c1e)" style="fill: none; stroke: #ff7f0e"/>
    <path clip-path="url(#pe160ec5c1e)" style="fill: none; stroke: #ff7f0e"/>
   </g>
   <g id="LineCollection_2">
    <path clip-path="url(#pe160ec5c1e)" style="fill: none; stroke: #8c564b"/>
    <path d="M 92.372144 247.465924 
L 92.372144 158.508241 
" clip-path="url(#pe160ec5c1e)" style="fill: none; stroke: #8c564b"/>
    <path d="M 94.804273 165.383519 
L 94.804273 79.793318 
" clip-path="url(#pe160ec5c1e)" style="fill: none; stroke: #8c564b"/>
    <path d="M 97.236403 138.022717 
L 97.236403 69.550557 
" clip-path="url(#pe160ec5c1e)" style="fill: none; stroke: #8c564b"/>
    <path d="M 99.668532 127.639644 
L 99.668532 55.8 
" clip-path="url(#pe160ec5c1e)" style="fill: none; stroke: #8c564b"/>
    <path d="M 104.532791 132.83118 
L 104.532791 64.35902 
" clip-path="url(#pe160ec5c1e)" style="fill: none; stroke: #8c564b"/>
    <path d="M 109.39705 153.316704 
L 109.39705 78.109577 
" clip-path="url(#pe160ec5c1e)" style="fill: none; stroke: #8c564b"/>
    <path d="M 119.125568 172.118486 
L 119.125568 83.160802 
" clip-path="url(#pe160ec5c1e)" style="fill: none; stroke: #8c564b"/>
    <path d="M 128.854086 191.060579 
L 128.854086 91.719822 
" clip-path="url(#pe160ec5c1e)" style="fill: none; stroke: #8c564b"/>
    <path d="M 148.311123 245.782183 
L 148.311123 112.205345 
" clip-path="url(#pe160ec5c1e)" style="fill: none; stroke: #8c564b"/>
    <path d="M 206.682231 283.105122 
L 206.682231 125.955902 
" clip-path="url(#pe160ec5c1e)" style="fill: none; stroke: #8c564b"/>
    <path d="M 265.053339 300.223163 
L 265.053339 163.559465 
" clip-path="url(#pe160ec5c1e)" style="fill: none; stroke: #8c564b"/>
    <path d="M 323.424448 294.330067 
L 323.424448 199.479287 
" clip-path="url(#pe160ec5c1e)" style="fill: none; stroke: #8c564b"/>
    <path clip-path="url(#pe160ec5c1e)" style="fill: none; stroke: #8c564b"/>
    <path clip-path="url(#pe160ec5c1e)" style="fill: none; stroke: #8c564b"/>
   </g>
   <g id="line2d_13">
    <path d="M 89.940014 269.775501 
L 90.383878 266.462406 
L 91.271605 248.598285 
L 92.159332 230.515436 
L 93.04706 216.685035 
L 93.934787 207.019289 
L 94.822514 200.656265 
L 95.710241 196.787022 
L 96.154105 195.583679 
L 96.597969 194.780268 
L 97.041832 194.322149 
L 97.485696 194.162034 
L 97.92956 194.258915 
L 98.373423 194.577139 
L 99.261151 195.757266 
L 100.148878 197.497797 
L 101.480469 200.825262 
L 103.255923 206.031529 
L 109.470014 225.002623 
L 111.689332 230.944182 
L 113.908651 236.254522 
L 116.127969 240.936697 
L 118.347287 245.027005 
L 120.566605 248.577171 
L 122.785923 251.644214 
L 125.005241 254.284851 
L 127.22456 256.55257 
L 129.443878 258.496251 
L 131.663196 260.15969 
L 133.882514 261.581607 
L 136.545696 263.016542 
L 139.208878 264.202632 
L 142.315923 265.327965 
L 145.422969 266.227391 
L 148.973878 267.035809 
L 152.968651 267.728028 
L 157.851151 268.341772 
L 163.621378 268.834867 
L 170.723196 269.21577 
L 180.488196 269.501447 
L 195.135696 269.681647 
L 223.542969 269.76376 
L 368.686378 269.775501 
L 445.030923 269.775501 
L 445.030923 269.775501 
" clip-path="url(#pe160ec5c1e)" style="fill: none; stroke: #ff7f0e; stroke-width: 2; stroke-linecap: square"/>
   </g>
   <g id="line2d_14">
    <path d="M 89.940014 269.775501 
L 92.372144 231.049443 
L 94.804273 181.098441 
L 97.236403 186.009354 
L 99.668532 198.91804 
L 104.532791 205.372383 
L 109.39705 215.053898 
L 119.125568 227.962584 
L 128.854086 240.871269 
L 148.311123 253.920267 
L 206.682231 263.882405 
L 265.053339 267.3902 
L 323.424448 268.372383 
L 381.795556 269.214254 
L 440.166664 269.775501 
" clip-path="url(#pe160ec5c1e)" style="fill: none; stroke-dasharray: 3.7,1.6; stroke-dashoffset: 0; stroke: #ff7f0e"/>
    <defs>
     <path id="m0436fd9f2b" d="M -3 3 
L 3 3 
L 3 -3 
L -3 -3 
z
" style="stroke: #000000; stroke-linejoin: miter"/>
    </defs>
    <g clip-path="url(#pe160ec5c1e)">
     <use xlink:href="#m0436fd9f2b" x="89.940014" y="269.775501" style="fill: #ff7f0e; stroke: #000000; stroke-linejoin: miter"/>
     <use xlink:href="#m0436fd9f2b" x="92.372144" y="231.049443" style="fill: #ff7f0e; stroke: #000000; stroke-linejoin: miter"/>
     <use xlink:href="#m0436fd9f2b" x="94.804273" y="181.098441" style="fill: #ff7f0e; stroke: #000000; stroke-linejoin: miter"/>
     <use xlink:href="#m0436fd9f2b" x="97.236403" y="186.009354" style="fill: #ff7f0e; stroke: #000000; stroke-linejoin: miter"/>
     <use xlink:href="#m0436fd9f2b" x="99.668532" y="198.91804" style="fill: #ff7f0e; stroke: #000000; stroke-linejoin: miter"/>
     <use xlink:href="#m0436fd9f2b" x="104.532791" y="205.372383" style="fill: #ff7f0e; stroke: #000000; stroke-linejoin: miter"/>
     <use xlink:href="#m0436fd9f2b" x="109.39705" y="215.053898" style="fill: #ff7f0e; stroke: #000000; stroke-linejoin: miter"/>
     <use xlink:href="#m0436fd9f2b" x="119.125568" y="227.962584" style="fill: #ff7f0e; stroke: #000000; stroke-linejoin: miter"/>
     <use xlink:href="#m0436fd9f2b" x="128.854086" y="240.871269" style="fill: #ff7f0e; stroke: #000000; stroke-linejoin: miter"/>
     <use xlink:href="#m0436fd9f2b" x="148.311123" y="253.920267" style="fill: #ff7f0e; stroke: #000000; stroke-linejoin: miter"/>
     <use xlink:href="#m0436fd9f2b" x="206.682231" y="263.882405" style="fill: #ff7f0e; stroke: #000000; stroke-linejoin: miter"/>
     <use xlink:href="#m0436fd9f2b" x="265.053339" y="267.3902" style="fill: #ff7f0e; stroke: #000000; stroke-linejoin: miter"/>
     <use xlink:href="#m0436fd9f2b" x="323.424448" y="268.372383" style="fill: #ff7f0e; stroke: #000000; stroke-linejoin: miter"/>
     <use xlink:href="#m0436fd9f2b" x="381.795556" y="269.214254" style="fill: #ff7f0e; stroke: #000000; stroke-linejoin: miter"/>
     <use xlink:href="#m0436fd9f2b" x="440.166664" y="269.775501" style="fill: #ff7f0e; stroke: #000000; stroke-linejoin: miter"/>
    </g>
   </g>
   <g id="line2d_15">
    <path d="M 89.940014 269.775501 
L 90.383878 259.937318 
L 92.603196 147.311554 
L 93.490923 121.460949 
L 94.378651 104.810473 
L 95.266378 94.569794 
L 95.710241 91.231707 
L 96.154105 88.838781 
L 96.597969 87.249215 
L 97.041832 86.345689 
L 97.485696 86.030393 
L 97.92956 86.221138 
L 98.373423 86.848335 
L 98.817287 87.852635 
L 99.705014 90.795615 
L 100.592741 94.718752 
L 101.924332 101.904869 
L 103.699787 112.994844 
L 112.57706 171.09584 
L 114.796378 183.502117 
L 117.015696 194.691919 
L 119.235014 204.673555 
L 121.454332 213.501695 
L 123.673651 221.257113 
L 125.449105 226.751738 
L 127.22456 231.66962 
L 129.000014 236.060507 
L 130.775469 239.972613 
L 132.550923 243.451805 
L 134.326378 246.541111 
L 136.545696 249.914999 
L 138.765014 252.812837 
L 140.984332 255.297933 
L 143.203651 257.426273 
L 145.422969 259.247043 
L 147.642287 260.803217 
L 150.305469 262.373638 
L 152.968651 263.671846 
L 156.075696 264.903748 
L 159.182741 265.888533 
L 162.733651 266.773839 
L 166.728423 267.532035 
L 171.16706 268.152655 
L 176.493423 268.675592 
L 183.151378 269.09934 
L 192.028651 269.4222 
L 204.456832 269.633165 
L 226.206151 269.746515 
L 293.22956 269.775286 
L 445.030923 269.775501 
L 445.030923 269.775501 
" clip-path="url(#pe160ec5c1e)" style="fill: none; stroke: #8c564b; stroke-width: 2; stroke-linecap: square"/>
   </g>
   <g id="line2d_16">
    <path d="M 89.940014 269.775501 
L 92.372144 202.987082 
L 94.804273 122.588419 
L 97.236403 103.786637 
L 99.668532 91.719822 
L 104.532791 98.5951 
L 109.39705 115.71314 
L 119.125568 127.639644 
L 128.854086 141.3902 
L 148.311123 178.993764 
L 206.682231 204.530512 
L 265.053339 231.891314 
L 323.424448 246.904677 
L 381.795556 258.690869 
L 440.166664 269.775501 
" clip-path="url(#pe160ec5c1e)" style="fill: none; stroke-dasharray: 3.7,1.6; stroke-dashoffset: 0; stroke: #8c564b"/>
    <defs>
     <path id="me70005797e" d="M -3 3 
L 3 3 
L 3 -3 
L -3 -3 
z
" style="stroke: #000000; stroke-linejoin: miter"/>
    </defs>
    <g clip-path="url(#pe160ec5c1e)">
     <use xlink:href="#me70005797e" x="89.940014" y="269.775501" style="fill: #8c564b; stroke: #000000; stroke-linejoin: miter"/>
     <use xlink:href="#me70005797e" x="92.372144" y="202.987082" style="fill: #8c564b; stroke: #000000; stroke-linejoin: miter"/>
     <use xlink:href="#me70005797e" x="94.804273" y="122.588419" style="fill: #8c564b; stroke: #000000; stroke-linejoin: miter"/>
     <use xlink:href="#me70005797e" x="97.236403" y="103.786637" style="fill: #8c564b; stroke: #000000; stroke-linejoin: miter"/>
     <use xlink:href="#me70005797e" x="99.668532" y="91.719822" style="fill: #8c564b; stroke: #000000; stroke-linejoin: miter"/>
     <use xlink:href="#me70005797e" x="104.532791" y="98.5951" style="fill: #8c564b; stroke: #000000; stroke-linejoin: miter"/>
     <use xlink:href="#me70005797e" x="109.39705" y="115.71314" style="fill: #8c564b; stroke: #000000; stroke-linejoin: miter"/>
     <use xlink:href="#me70005797e" x="119.125568" y="127.639644" style="fill: #8c564b; stroke: #000000; stroke-linejoin: miter"/>
     <use xlink:href="#me70005797e" x="128.854086" y="141.3902" style="fill: #8c564b; stroke: #000000; stroke-linejoin: miter"/>
     <use xlink:href="#me70005797e" x="148.311123" y="178.993764" style="fill: #8c564b; stroke: #000000; stroke-linejoin: miter"/>
     <use xlink:href="#me70005797e" x="206.682231" y="204.530512" style="fill: #8c564b; stroke: #000000; stroke-linejoin: miter"/>
     <use xlink:href="#me70005797e" x="265.053339" y="231.891314" style="fill: #8c564b; stroke: #000000; stroke-linejoin: miter"/>
     <use xlink:href="#me70005797e" x="323.424448" y="246.904677" style="fill: #8c564b; stroke: #000000; stroke-linejoin: miter"/>
     <use xlink:href="#me70005797e" x="381.795556" y="258.690869" style="fill: #8c564b; stroke: #000000; stroke-linejoin: miter"/>
     <use xlink:href="#me70005797e" x="440.166664" y="269.775501" style="fill: #8c564b; stroke: #000000; stroke-linejoin: miter"/>
    </g>
   </g>
   <g id="patch_3">
    <path d="M 72.185469 320.4 
L 72.185469 43.2 
" style="fill: none; stroke: #000000; stroke-width: 0.8; stroke-linejoin: miter; stroke-linecap: square"/>
   </g>
   <g id="patch_4">
    <path d="M 462.785469 320.4 
L 462.785469 43.2 
" style="fill: none; stroke: #000000; stroke-width: 0.8; stroke-linejoin: miter; stroke-linecap: square"/>
   </g>
   <g id="patch_5">
    <path d="M 72.185469 320.4 
L 462.785469 320.4 
" style="fill: none; stroke: #000000; stroke-width: 0.8; stroke-linejoin: miter; stroke-linecap: square"/>
   </g>
   <g id="patch_6">
    <path d="M 72.185469 43.2 
L 462.785469 43.2 
" style="fill: none; stroke: #000000; stroke-width: 0.8; stroke-linejoin: miter; stroke-linecap: square"/>
   </g>
   <g id="legend_1">
    <g id="patch_7">
     <path d="M 329.827656 109.9125 
L 455.785469 109.9125 
Q 457.785469 109.9125 457.785469 107.9125 
L 457.785469 50.2 
Q 457.785469 48.2 455.785469 48.2 
L 329.827656 48.2 
Q 327.827656 48.2 327.827656 50.2 
L 327.827656 107.9125 
Q 327.827656 109.9125 329.827656 109.9125 
z
" style="fill: #ffffff; opacity: 0.8; stroke: #cccccc; stroke-linejoin: miter"/>
    </g>
    <g id="line2d_17">
     <path d="M 331.827656 56.298437 
L 351.827656 56.298437 
" style="fill: none; stroke: #ff7f0e; stroke-width: 2; stroke-linecap: square"/>
    </g>
    <g id="line2d_18"/>
    <g id="text_15">
     <!-- ED60 -->
     <g transform="translate(359.827656 59.798437) scale(0.1 -0.1)">
      <defs>
       <path id="DejaVuSans-45" d="M 628 4666 
L 3578 4666 
L 3578 4134 
L 1259 4134 
L 1259 2753 
L 3481 2753 
L 3481 2222 
L 1259 2222 
L 1259 531 
L 3634 531 
L 3634 0 
L 628 0 
L 628 4666 
z
" transform="scale(0.015625)"/>
       <path id="DejaVuSans-44" d="M 1259 4147 
L 1259 519 
L 2022 519 
Q 2988 519 3436 956 
Q 3884 1394 3884 2338 
Q 3884 3275 3436 3711 
Q 2988 4147 2022 4147 
L 1259 4147 
z
M 628 4666 
L 1925 4666 
Q 3281 4666 3915 4102 
Q 4550 3538 4550 2338 
Q 4550 1131 3912 565 
Q 3275 0 1925 0 
L 628 0 
L 628 4666 
z
" transform="scale(0.015625)"/>
      </defs>
      <use xlink:href="#DejaVuSans-45"/>
      <use xlink:href="#DejaVuSans-44" transform="translate(63.183594 0)"/>
      <use xlink:href="#DejaVuSans-36" transform="translate(140.185547 0)"/>
      <use xlink:href="#DejaVuSans-30" transform="translate(203.808594 0)"/>
     </g>
    </g>
    <g id="LineCollection_3">
     <path d="M 341.827656 75.976562 
L 341.827656 65.976562 
" style="fill: none; stroke: #ff7f0e"/>
    </g>
    <g id="line2d_19">
     <path d="M 331.827656 70.976562 
L 351.827656 70.976562 
" style="fill: none; stroke-dasharray: 3.7,1.6; stroke-dashoffset: 0; stroke: #ff7f0e"/>
    </g>
    <g id="line2d_20">
     <g>
      <use xlink:href="#m0436fd9f2b" x="341.827656" y="70.976562" style="fill: #ff7f0e; stroke: #000000; stroke-linejoin: miter"/>
     </g>
    </g>
    <g id="text_16">
     <!-- ED60±SD (n=12) -->
     <g transform="translate(359.827656 74.476562) scale(0.1 -0.1)">
      <defs>
       <path id="DejaVuSans-b1" d="M 2944 4013 
L 2944 2803 
L 4684 2803 
L 4684 2272 
L 2944 2272 
L 2944 1063 
L 2419 1063 
L 2419 2272 
L 678 2272 
L 678 2803 
L 2419 2803 
L 2419 4013 
L 2944 4013 
z
M 678 531 
L 4684 531 
L 4684 0 
L 678 0 
L 678 531 
z
" transform="scale(0.015625)"/>
       <path id="DejaVuSans-53" d="M 3425 4513 
L 3425 3897 
Q 3066 4069 2747 4153 
Q 2428 4238 2131 4238 
Q 1616 4238 1336 4038 
Q 1056 3838 1056 3469 
Q 1056 3159 1242 3001 
Q 1428 2844 1947 2747 
L 2328 2669 
Q 3034 2534 3370 2195 
Q 3706 1856 3706 1288 
Q 3706 609 3251 259 
Q 2797 -91 1919 -91 
Q 1588 -91 1214 -16 
Q 841 59 441 206 
L 441 856 
Q 825 641 1194 531 
Q 1563 422 1919 422 
Q 2459 422 2753 634 
Q 3047 847 3047 1241 
Q 3047 1584 2836 1778 
Q 2625 1972 2144 2069 
L 1759 2144 
Q 1053 2284 737 2584 
Q 422 2884 422 3419 
Q 422 4038 858 4394 
Q 1294 4750 2059 4750 
Q 2388 4750 2728 4690 
Q 3069 4631 3425 4513 
z
" transform="scale(0.015625)"/>
       <path id="DejaVuSans-20" transform="scale(0.015625)"/>
       <path id="DejaVuSans-28" d="M 1984 4856 
Q 1566 4138 1362 3434 
Q 1159 2731 1159 2009 
Q 1159 1288 1364 580 
Q 1569 -128 1984 -844 
L 1484 -844 
Q 1016 -109 783 600 
Q 550 1309 550 2009 
Q 550 2706 781 3412 
Q 1013 4119 1484 4856 
L 1984 4856 
z
" transform="scale(0.015625)"/>
       <path id="DejaVuSans-6e" d="M 3513 2113 
L 3513 0 
L 2938 0 
L 2938 2094 
Q 2938 2591 2744 2837 
Q 2550 3084 2163 3084 
Q 1697 3084 1428 2787 
Q 1159 2491 1159 1978 
L 1159 0 
L 581 0 
L 581 3500 
L 1159 3500 
L 1159 2956 
Q 1366 3272 1645 3428 
Q 1925 3584 2291 3584 
Q 2894 3584 3203 3211 
Q 3513 2838 3513 2113 
z
" transform="scale(0.015625)"/>
       <path id="DejaVuSans-3d" d="M 678 2906 
L 4684 2906 
L 4684 2381 
L 678 2381 
L 678 2906 
z
M 678 1631 
L 4684 1631 
L 4684 1100 
L 678 1100 
L 678 1631 
z
" transform="scale(0.015625)"/>
       <path id="DejaVuSans-29" d="M 513 4856 
L 1013 4856 
Q 1481 4119 1714 3412 
Q 1947 2706 1947 2009 
Q 1947 1309 1714 600 
Q 1481 -109 1013 -844 
L 513 -844 
Q 928 -128 1133 580 
Q 1338 1288 1338 2009 
Q 1338 2731 1133 3434 
Q 928 4138 513 4856 
z
" transform="scale(0.015625)"/>
      </defs>
      <use xlink:href="#DejaVuSans-45"/>
      <use xlink:href="#DejaVuSans-44" transform="translate(63.183594 0)"/>
      <use xlink:href="#DejaVuSans-36" transform="translate(140.185547 0)"/>
      <use xlink:href="#DejaVuSans-30" transform="translate(203.808594 0)"/>
      <use xlink:href="#DejaVuSans-b1" transform="translate(267.431641 0)"/>
      <use xlink:href="#DejaVuSans-53" transform="translate(351.220703 0)"/>
      <use xlink:href="#DejaVuSans-44" transform="translate(414.697266 0)"/>
      <use xlink:href="#DejaVuSans-20" transform="translate(491.699219 0)"/>
      <use xlink:href="#DejaVuSans-28" transform="translate(523.486328 0)"/>
      <use xlink:href="#DejaVuSans-6e" transform="translate(562.5 0)"/>
      <use xlink:href="#DejaVuSans-3d" transform="translate(625.878906 0)"/>
      <use xlink:href="#DejaVuSans-31" transform="translate(709.667969 0)"/>
      <use xlink:href="#DejaVuSans-32" transform="translate(773.291016 0)"/>
      <use xlink:href="#DejaVuSans-29" transform="translate(836.914062 0)"/>
     </g>
    </g>
    <g id="line2d_21">
     <path d="M 331.827656 85.654687 
L 351.827656 85.654687 
" style="fill: none; stroke: #8c564b; stroke-width: 2; stroke-linecap: square"/>
    </g>
    <g id="line2d_22"/>
    <g id="text_17">
     <!-- ED180 -->
     <g transform="translate(359.827656 89.154687) scale(0.1 -0.1)">
      <defs>
       <path id="DejaVuSans-38" d="M 2034 2216 
Q 1584 2216 1326 1975 
Q 1069 1734 1069 1313 
Q 1069 891 1326 650 
Q 1584 409 2034 409 
Q 2484 409 2743 651 
Q 3003 894 3003 1313 
Q 3003 1734 2745 1975 
Q 2488 2216 2034 2216 
z
M 1403 2484 
Q 997 2584 770 2862 
Q 544 3141 544 3541 
Q 544 4100 942 4425 
Q 1341 4750 2034 4750 
Q 2731 4750 3128 4425 
Q 3525 4100 3525 3541 
Q 3525 3141 3298 2862 
Q 3072 2584 2669 2484 
Q 3125 2378 3379 2068 
Q 3634 1759 3634 1313 
Q 3634 634 3220 271 
Q 2806 -91 2034 -91 
Q 1263 -91 848 271 
Q 434 634 434 1313 
Q 434 1759 690 2068 
Q 947 2378 1403 2484 
z
M 1172 3481 
Q 1172 3119 1398 2916 
Q 1625 2713 2034 2713 
Q 2441 2713 2670 2916 
Q 2900 3119 2900 3481 
Q 2900 3844 2670 4047 
Q 2441 4250 2034 4250 
Q 1625 4250 1398 4047 
Q 1172 3844 1172 3481 
z
" transform="scale(0.015625)"/>
      </defs>
      <use xlink:href="#DejaVuSans-45"/>
      <use xlink:href="#DejaVuSans-44" transform="translate(63.183594 0)"/>
      <use xlink:href="#DejaVuSans-31" transform="translate(140.185547 0)"/>
      <use xlink:href="#DejaVuSans-38" transform="translate(203.808594 0)"/>
      <use xlink:href="#DejaVuSans-30" transform="translate(267.431641 0)"/>
     </g>
    </g>
    <g id="LineCollection_4">
     <path d="M 341.827656 105.332812 
L 341.827656 95.332812 
" style="fill: none; stroke: #8c564b"/>
    </g>
    <g id="line2d_23">
     <path d="M 331.827656 100.332812 
L 351.827656 100.332812 
" style="fill: none; stroke-dasharray: 3.7,1.6; stroke-dashoffset: 0; stroke: #8c564b"/>
    </g>
    <g id="line2d_24">
     <g>
      <use xlink:href="#me70005797e" x="341.827656" y="100.332812" style="fill: #8c564b; stroke: #000000; stroke-linejoin: miter"/>
     </g>
    </g>
    <g id="text_18">
     <!-- ED180±SD (n=12) -->
     <g transform="translate(359.827656 103.832812) scale(0.1 -0.1)">
      <use xlink:href="#DejaVuSans-45"/>
      <use xlink:href="#DejaVuSans-44" transform="translate(63.183594 0)"/>
      <use xlink:href="#DejaVuSans-31" transform="translate(140.185547 0)"/>
      <use xlink:href="#DejaVuSans-38" transform="translate(203.808594 0)"/>
      <use xlink:href="#DejaVuSans-30" transform="translate(267.431641 0)"/>
      <use xlink:href="#DejaVuSans-b1" transform="translate(331.054688 0)"/>
      <use xlink:href="#DejaVuSans-53" transform="translate(414.84375 0)"/>
      <use xlink:href="#DejaVuSans-44" transform="translate(478.320312 0)"/>
      <use xlink:href="#DejaVuSans-20" transform="translate(555.322266 0)"/>
      <use xlink:href="#DejaVuSans-28" transform="translate(587.109375 0)"/>
      <use xlink:href="#DejaVuSans-6e" transform="translate(626.123047 0)"/>
      <use xlink:href="#DejaVuSans-3d" transform="translate(689.501953 0)"/>
      <use xlink:href="#DejaVuSans-31" transform="translate(773.291016 0)"/>
      <use xlink:href="#DejaVuSans-32" transform="translate(836.914062 0)"/>
      <use xlink:href="#DejaVuSans-29" transform="translate(900.537109 0)"/>
     </g>
    </g>
   </g>
  </g>
  <g id="text_19">
   <!-- Brown2015 (healthy) -->
   <g transform="translate(112.773359 26.196094) scale(0.25 -0.25)">
    <defs>
     <path id="DejaVuSans-Bold-42" d="M 2456 2859 
Q 2741 2859 2887 2984 
Q 3034 3109 3034 3353 
Q 3034 3594 2887 3720 
Q 2741 3847 2456 3847 
L 1791 3847 
L 1791 2859 
L 2456 2859 
z
M 2497 819 
Q 2859 819 3042 972 
Q 3225 1125 3225 1434 
Q 3225 1738 3044 1889 
Q 2863 2041 2497 2041 
L 1791 2041 
L 1791 819 
L 2497 819 
z
M 3616 2497 
Q 4003 2384 4215 2081 
Q 4428 1778 4428 1338 
Q 4428 663 3972 331 
Q 3516 0 2584 0 
L 588 0 
L 588 4666 
L 2394 4666 
Q 3366 4666 3802 4372 
Q 4238 4078 4238 3431 
Q 4238 3091 4078 2852 
Q 3919 2613 3616 2497 
z
" transform="scale(0.015625)"/>
     <path id="DejaVuSans-Bold-6f" d="M 2203 2784 
Q 1831 2784 1636 2517 
Q 1441 2250 1441 1747 
Q 1441 1244 1636 976 
Q 1831 709 2203 709 
Q 2569 709 2762 976 
Q 2956 1244 2956 1747 
Q 2956 2250 2762 2517 
Q 2569 2784 2203 2784 
z
M 2203 3584 
Q 3106 3584 3614 3096 
Q 4122 2609 4122 1747 
Q 4122 884 3614 396 
Q 3106 -91 2203 -91 
Q 1297 -91 786 396 
Q 275 884 275 1747 
Q 275 2609 786 3096 
Q 1297 3584 2203 3584 
z
" transform="scale(0.015625)"/>
     <path id="DejaVuSans-Bold-77" d="M 225 3500 
L 1313 3500 
L 1900 1088 
L 2491 3500 
L 3425 3500 
L 4013 1113 
L 4603 3500 
L 5691 3500 
L 4769 0 
L 3547 0 
L 2956 2406 
L 2369 0 
L 1147 0 
L 225 3500 
z
" transform="scale(0.015625)"/>
     <path id="DejaVuSans-Bold-32" d="M 1844 884 
L 3897 884 
L 3897 0 
L 506 0 
L 506 884 
L 2209 2388 
Q 2438 2594 2547 2791 
Q 2656 2988 2656 3200 
Q 2656 3528 2436 3728 
Q 2216 3928 1850 3928 
Q 1569 3928 1234 3808 
Q 900 3688 519 3450 
L 519 4475 
Q 925 4609 1322 4679 
Q 1719 4750 2100 4750 
Q 2938 4750 3402 4381 
Q 3866 4013 3866 3353 
Q 3866 2972 3669 2642 
Q 3472 2313 2841 1759 
L 1844 884 
z
" transform="scale(0.015625)"/>
     <path id="DejaVuSans-Bold-30" d="M 2944 2338 
Q 2944 3213 2780 3570 
Q 2616 3928 2228 3928 
Q 1841 3928 1675 3570 
Q 1509 3213 1509 2338 
Q 1509 1453 1675 1090 
Q 1841 728 2228 728 
Q 2613 728 2778 1090 
Q 2944 1453 2944 2338 
z
M 4147 2328 
Q 4147 1169 3647 539 
Q 3147 -91 2228 -91 
Q 1306 -91 806 539 
Q 306 1169 306 2328 
Q 306 3491 806 4120 
Q 1306 4750 2228 4750 
Q 3147 4750 3647 4120 
Q 4147 3491 4147 2328 
z
" transform="scale(0.015625)"/>
     <path id="DejaVuSans-Bold-31" d="M 750 831 
L 1813 831 
L 1813 3847 
L 722 3622 
L 722 4441 
L 1806 4666 
L 2950 4666 
L 2950 831 
L 4013 831 
L 4013 0 
L 750 0 
L 750 831 
z
" transform="scale(0.015625)"/>
     <path id="DejaVuSans-Bold-35" d="M 678 4666 
L 3669 4666 
L 3669 3781 
L 1638 3781 
L 1638 3059 
Q 1775 3097 1914 3117 
Q 2053 3138 2203 3138 
Q 3056 3138 3531 2711 
Q 4006 2284 4006 1522 
Q 4006 766 3489 337 
Q 2972 -91 2053 -91 
Q 1656 -91 1267 -14 
Q 878 63 494 219 
L 494 1166 
Q 875 947 1217 837 
Q 1559 728 1863 728 
Q 2300 728 2551 942 
Q 2803 1156 2803 1522 
Q 2803 1891 2551 2103 
Q 2300 2316 1863 2316 
Q 1603 2316 1309 2248 
Q 1016 2181 678 2041 
L 678 4666 
z
" transform="scale(0.015625)"/>
     <path id="DejaVuSans-Bold-28" d="M 2413 -844 
L 1484 -844 
Q 1006 -72 778 623 
Q 550 1319 550 2003 
Q 550 2688 779 3389 
Q 1009 4091 1484 4856 
L 2413 4856 
Q 2013 4116 1813 3408 
Q 1613 2700 1613 2009 
Q 1613 1319 1811 609 
Q 2009 -100 2413 -844 
z
" transform="scale(0.015625)"/>
     <path id="DejaVuSans-Bold-6c" d="M 538 4863 
L 1656 4863 
L 1656 0 
L 538 0 
L 538 4863 
z
" transform="scale(0.015625)"/>
     <path id="DejaVuSans-Bold-79" d="M 78 3500 
L 1197 3500 
L 2138 1125 
L 2938 3500 
L 4056 3500 
L 2584 -331 
Q 2363 -916 2067 -1148 
Q 1772 -1381 1288 -1381 
L 641 -1381 
L 641 -647 
L 991 -647 
Q 1275 -647 1404 -556 
Q 1534 -466 1606 -231 
L 1638 -134 
L 78 3500 
z
" transform="scale(0.015625)"/>
     <path id="DejaVuSans-Bold-29" d="M 513 -844 
Q 913 -100 1113 609 
Q 1313 1319 1313 2009 
Q 1313 2700 1113 3408 
Q 913 4116 513 4856 
L 1441 4856 
Q 1916 4091 2145 3389 
Q 2375 2688 2375 2003 
Q 2375 1319 2147 623 
Q 1919 -72 1441 -844 
L 513 -844 
z
" transform="scale(0.015625)"/>
    </defs>
    <use xlink:href="#DejaVuSans-Bold-42"/>
    <use xlink:href="#DejaVuSans-Bold-72" transform="translate(76.220703 0)"/>
    <use xlink:href="#DejaVuSans-Bold-6f" transform="translate(125.537109 0)"/>
    <use xlink:href="#DejaVuSans-Bold-77" transform="translate(194.238281 0)"/>
    <use xlink:href="#DejaVuSans-Bold-6e" transform="translate(286.621094 0)"/>
    <use xlink:href="#DejaVuSans-Bold-32" transform="translate(357.8125 0)"/>
    <use xlink:href="#DejaVuSans-Bold-30" transform="translate(427.392578 0)"/>
    <use xlink:href="#DejaVuSans-Bold-31" transform="translate(496.972656 0)"/>
    <use xlink:href="#DejaVuSans-Bold-35" transform="translate(566.552734 0)"/>
    <use xlink:href="#DejaVuSans-Bold-20" transform="translate(636.132812 0)"/>
    <use xlink:href="#DejaVuSans-Bold-28" transform="translate(670.947266 0)"/>
    <use xlink:href="#DejaVuSans-Bold-68" transform="translate(716.650391 0)"/>
    <use xlink:href="#DejaVuSans-Bold-65" transform="translate(787.841797 0)"/>
    <use xlink:href="#DejaVuSans-Bold-61" transform="translate(855.664062 0)"/>
    <use xlink:href="#DejaVuSans-Bold-6c" transform="translate(923.144531 0)"/>
    <use xlink:href="#DejaVuSans-Bold-74" transform="translate(957.421875 0)"/>
    <use xlink:href="#DejaVuSans-Bold-68" transform="translate(1005.224609 0)"/>
    <use xlink:href="#DejaVuSans-Bold-79" transform="translate(1076.416016 0)"/>
    <use xlink:href="#DejaVuSans-Bold-29" transform="translate(1141.601562 0)"/>
   </g>
  </g>
 </g>
 <defs>
  <clipPath id="pe160ec5c1e">
   <rect x="72.185469" y="43.2" width="390.6" height="277.2"/>
  </clipPath>
 </defs>
</svg>
