<?xml version="1.0" encoding="utf-8" standalone="no"?>
<!DOCTYPE svg PUBLIC "-//W3C//DTD SVG 1.1//EN"
  "http://www.w3.org/Graphics/SVG/1.1/DTD/svg11.dtd">
<svg xmlns:xlink="http://www.w3.org/1999/xlink" width="865.845685pt" height="370.537812pt" viewBox="0 0 865.845685 370.537812" xmlns="http://www.w3.org/2000/svg" version="1.1">
 <metadata>
  <rdf:RDF xmlns:dc="http://purl.org/dc/elements/1.1/" xmlns:cc="http://creativecommons.org/ns#" xmlns:rdf="http://www.w3.org/1999/02/22-rdf-syntax-ns#">
   <cc:Work>
    <dc:type rdf:resource="http://purl.org/dc/dcmitype/StillImage"/>
    <dc:date>2026-01-06T17:44:42.205222</dc:date>
    <dc:format>image/svg+xml</dc:format>
    <dc:creator>
     <cc:Agent>
      <dc:title>Matplotlib v3.10.7, https://matplotlib.org/</dc:title>
     </cc:Agent>
    </dc:creator>
   </cc:Work>
  </rdf:RDF>
 </metadata>
 <defs>
  <style type="text/css">*{stroke-linejoin: round; stroke-linecap: butt}</style>
 </defs>
 <g id="figure_1">
  <g id="patch_1">
   <path d="M 0 370.537812 
L 865.845685 370.537812 
L 865.845685 0 
L 0 0 
z
" style="fill: #ffffff"/>
  </g>
  <g id="axes_1">
   <g id="patch_2">
    <path d="M 69.019063 320.4 
L 408.671236 320.4 
L 408.671236 43.2 
L 69.019063 43.2 
z
" style="fill: #ffffff"/>
   </g>
   <g id="matplotlib.axis_1">
    <g id="xtick_1">
     <g id="line2d_1">
      <defs>
       <path id="mf61ba57063" d="M 0 0 
L 0 3.5 
" style="stroke: #000000; stroke-width: 0.8"/>
      </defs>
      <g>
       <use xlink:href="#mf61ba57063" x="84.457798" y="320.4" style="stroke: #000000; stroke-width: 0.8"/>
      </g>
     </g>
     <g id="text_1">
      <!-- 0 -->
      <g transform="translate(79.685923 338.797656) scale(0.15 -0.15)">
       <defs>
        <path id="DejaVuSans-30" d="M 2034 4250 
Q 1547 4250 1301 3770 
Q 1056 3291 1056 2328 
Q 1056 1369 1301 889 
Q 1547 409 2034 409 
Q 2525 409 2770 889 
Q 3016 1369 3016 2328 
Q 3016 3291 2770 3770 
Q 2525 4250 2034 4250 
z
M 2034 4750 
Q 2819 4750 3233 4129 
Q 3647 3509 3647 2328 
Q 3647 1150 3233 529 
Q 2819 -91 2034 -91 
Q 1250 -91 836 529 
Q 422 1150 422 2328 
Q 422 3509 836 4129 
Q 1250 4750 2034 4750 
z
" transform="scale(0.015625)"/>
       </defs>
       <use xlink:href="#DejaVuSans-30"/>
      </g>
     </g>
    </g>
    <g id="xtick_2">
     <g id="line2d_2">
      <g>
       <use xlink:href="#mf61ba57063" x="148.122685" y="320.4" style="stroke: #000000; stroke-width: 0.8"/>
      </g>
     </g>
     <g id="text_2">
      <!-- 20 -->
      <g transform="translate(138.578935 338.797656) scale(0.15 -0.15)">
       <defs>
        <path id="DejaVuSans-32" d="M 1228 531 
L 3431 531 
L 3431 0 
L 469 0 
L 469 531 
Q 828 903 1448 1529 
Q 2069 2156 2228 2338 
Q 2531 2678 2651 2914 
Q 2772 3150 2772 3378 
Q 2772 3750 2511 3984 
Q 2250 4219 1831 4219 
Q 1534 4219 1204 4116 
Q 875 4013 500 3803 
L 500 4441 
Q 881 4594 1212 4672 
Q 1544 4750 1819 4750 
Q 2544 4750 2975 4387 
Q 3406 4025 3406 3419 
Q 3406 3131 3298 2873 
Q 3191 2616 2906 2266 
Q 2828 2175 2409 1742 
Q 1991 1309 1228 531 
z
" transform="scale(0.015625)"/>
       </defs>
       <use xlink:href="#DejaVuSans-32"/>
       <use xlink:href="#DejaVuSans-30" transform="translate(63.623047 0)"/>
      </g>
     </g>
    </g>
    <g id="xtick_3">
     <g id="line2d_3">
      <g>
       <use xlink:href="#mf61ba57063" x="211.787572" y="320.4" style="stroke: #000000; stroke-width: 0.8"/>
      </g>
     </g>
     <g id="text_3">
      <!-- 40 -->
      <g transform="translate(202.243822 338.797656) scale(0.15 -0.15)">
       <defs>
        <path id="DejaVuSans-34" d="M 2419 4116 
L 825 1625 
L 2419 1625 
L 2419 4116 
z
M 2253 4666 
L 3047 4666 
L 3047 1625 
L 3713 1625 
L 3713 1100 
L 3047 1100 
L 3047 0 
L 2419 0 
L 2419 1100 
L 313 1100 
L 313 1709 
L 2253 4666 
z
" transform="scale(0.015625)"/>
       </defs>
       <use xlink:href="#DejaVuSans-34"/>
       <use xlink:href="#DejaVuSans-30" transform="translate(63.623047 0)"/>
      </g>
     </g>
    </g>
    <g id="xtick_4">
     <g id="line2d_4">
      <g>
       <use xlink:href="#mf61ba57063" x="275.45246" y="320.4" style="stroke: #000000; stroke-width: 0.8"/>
      </g>
     </g>
     <g id="text_4">
      <!-- 60 -->
      <g transform="translate(265.90871 338.797656) scale(0.15 -0.15)">
       <defs>
        <path id="DejaVuSans-36" d="M 2113 2584 
Q 1688 2584 1439 2293 
Q 1191 2003 1191 1497 
Q 1191 994 1439 701 
Q 1688 409 2113 409 
Q 2538 409 2786 701 
Q 3034 994 3034 1497 
Q 3034 2003 2786 2293 
Q 2538 2584 2113 2584 
z
M 3366 4563 
L 3366 3988 
Q 3128 4100 2886 4159 
Q 2644 4219 2406 4219 
Q 1781 4219 1451 3797 
Q 1122 3375 1075 2522 
Q 1259 2794 1537 2939 
Q 1816 3084 2150 3084 
Q 2853 3084 3261 2657 
Q 3669 2231 3669 1497 
Q 3669 778 3244 343 
Q 2819 -91 2113 -91 
Q 1303 -91 875 529 
Q 447 1150 447 2328 
Q 447 3434 972 4092 
Q 1497 4750 2381 4750 
Q 2619 4750 2861 4703 
Q 3103 4656 3366 4563 
z
" transform="scale(0.015625)"/>
       </defs>
       <use xlink:href="#DejaVuSans-36"/>
       <use xlink:href="#DejaVuSans-30" transform="translate(63.623047 0)"/>
      </g>
     </g>
    </g>
    <g id="xtick_5">
     <g id="line2d_5">
      <g>
       <use xlink:href="#mf61ba57063" x="339.117347" y="320.4" style="stroke: #000000; stroke-width: 0.8"/>
      </g>
     </g>
     <g id="text_5">
      <!-- 80 -->
      <g transform="translate(329.573597 338.797656) scale(0.15 -0.15)">
       <defs>
        <path id="DejaVuSans-38" d="M 2034 2216 
Q 1584 2216 1326 1975 
Q 1069 1734 1069 1313 
Q 1069 891 1326 650 
Q 1584 409 2034 409 
Q 2484 409 2743 651 
Q 3003 894 3003 1313 
Q 3003 1734 2745 1975 
Q 2488 2216 2034 2216 
z
M 1403 2484 
Q 997 2584 770 2862 
Q 544 3141 544 3541 
Q 544 4100 942 4425 
Q 1341 4750 2034 4750 
Q 2731 4750 3128 4425 
Q 3525 4100 3525 3541 
Q 3525 3141 3298 2862 
Q 3072 2584 2669 2484 
Q 3125 2378 3379 2068 
Q 3634 1759 3634 1313 
Q 3634 634 3220 271 
Q 2806 -91 2034 -91 
Q 1263 -91 848 271 
Q 434 634 434 1313 
Q 434 1759 690 2068 
Q 947 2378 1403 2484 
z
M 1172 3481 
Q 1172 3119 1398 2916 
Q 1625 2713 2034 2713 
Q 2441 2713 2670 2916 
Q 2900 3119 2900 3481 
Q 2900 3844 2670 4047 
Q 2441 4250 2034 4250 
Q 1625 4250 1398 4047 
Q 1172 3844 1172 3481 
z
" transform="scale(0.015625)"/>
       </defs>
       <use xlink:href="#DejaVuSans-38"/>
       <use xlink:href="#DejaVuSans-30" transform="translate(63.623047 0)"/>
      </g>
     </g>
    </g>
    <g id="xtick_6">
     <g id="line2d_6">
      <g>
       <use xlink:href="#mf61ba57063" x="402.782234" y="320.4" style="stroke: #000000; stroke-width: 0.8"/>
      </g>
     </g>
     <g id="text_6">
      <!-- 100 -->
      <g transform="translate(388.466609 338.797656) scale(0.15 -0.15)">
       <defs>
        <path id="DejaVuSans-31" d="M 794 531 
L 1825 531 
L 1825 4091 
L 703 3866 
L 703 4441 
L 1819 4666 
L 2450 4666 
L 2450 531 
L 3481 531 
L 3481 0 
L 794 0 
L 794 531 
z
" transform="scale(0.015625)"/>
       </defs>
       <use xlink:href="#DejaVuSans-31"/>
       <use xlink:href="#DejaVuSans-30" transform="translate(63.623047 0)"/>
       <use xlink:href="#DejaVuSans-30" transform="translate(127.246094 0)"/>
      </g>
     </g>
    </g>
    <g id="text_7">
     <!-- time [hr] -->
     <g transform="translate(193.770618 359.594375) scale(0.18 -0.18)">
      <defs>
       <path id="DejaVuSans-Bold-74" d="M 1759 4494 
L 1759 3500 
L 2913 3500 
L 2913 2700 
L 1759 2700 
L 1759 1216 
Q 1759 972 1856 886 
Q 1953 800 2241 800 
L 2816 800 
L 2816 0 
L 1856 0 
Q 1194 0 917 276 
Q 641 553 641 1216 
L 641 2700 
L 84 2700 
L 84 3500 
L 641 3500 
L 641 4494 
L 1759 4494 
z
" transform="scale(0.015625)"/>
       <path id="DejaVuSans-Bold-69" d="M 538 3500 
L 1656 3500 
L 1656 0 
L 538 0 
L 538 3500 
z
M 538 4863 
L 1656 4863 
L 1656 3950 
L 538 3950 
L 538 4863 
z
" transform="scale(0.015625)"/>
       <path id="DejaVuSans-Bold-6d" d="M 3781 2919 
Q 3994 3244 4286 3414 
Q 4578 3584 4928 3584 
Q 5531 3584 5847 3212 
Q 6163 2841 6163 2131 
L 6163 0 
L 5038 0 
L 5038 1825 
Q 5041 1866 5042 1909 
Q 5044 1953 5044 2034 
Q 5044 2406 4934 2573 
Q 4825 2741 4581 2741 
Q 4263 2741 4089 2478 
Q 3916 2216 3909 1719 
L 3909 0 
L 2784 0 
L 2784 1825 
Q 2784 2406 2684 2573 
Q 2584 2741 2328 2741 
Q 2006 2741 1831 2477 
Q 1656 2213 1656 1722 
L 1656 0 
L 531 0 
L 531 3500 
L 1656 3500 
L 1656 2988 
Q 1863 3284 2130 3434 
Q 2397 3584 2719 3584 
Q 3081 3584 3359 3409 
Q 3638 3234 3781 2919 
z
" transform="scale(0.015625)"/>
       <path id="DejaVuSans-Bold-65" d="M 4031 1759 
L 4031 1441 
L 1416 1441 
Q 1456 1047 1700 850 
Q 1944 653 2381 653 
Q 2734 653 3104 758 
Q 3475 863 3866 1075 
L 3866 213 
Q 3469 63 3072 -14 
Q 2675 -91 2278 -91 
Q 1328 -91 801 392 
Q 275 875 275 1747 
Q 275 2603 792 3093 
Q 1309 3584 2216 3584 
Q 3041 3584 3536 3087 
Q 4031 2591 4031 1759 
z
M 2881 2131 
Q 2881 2450 2695 2645 
Q 2509 2841 2209 2841 
Q 1884 2841 1681 2658 
Q 1478 2475 1428 2131 
L 2881 2131 
z
" transform="scale(0.015625)"/>
       <path id="DejaVuSans-Bold-20" transform="scale(0.015625)"/>
       <path id="DejaVuSans-Bold-5b" d="M 550 4863 
L 2491 4863 
L 2491 4159 
L 1613 4159 
L 1613 -141 
L 2491 -141 
L 2491 -844 
L 550 -844 
L 550 4863 
z
" transform="scale(0.015625)"/>
       <path id="DejaVuSans-Bold-68" d="M 4056 2131 
L 4056 0 
L 2931 0 
L 2931 347 
L 2931 1625 
Q 2931 2084 2911 2256 
Q 2891 2428 2841 2509 
Q 2775 2619 2662 2680 
Q 2550 2741 2406 2741 
Q 2056 2741 1856 2470 
Q 1656 2200 1656 1722 
L 1656 0 
L 538 0 
L 538 4863 
L 1656 4863 
L 1656 2988 
Q 1909 3294 2193 3439 
Q 2478 3584 2822 3584 
Q 3428 3584 3742 3212 
Q 4056 2841 4056 2131 
z
" transform="scale(0.015625)"/>
       <path id="DejaVuSans-Bold-72" d="M 3138 2547 
Q 2991 2616 2845 2648 
Q 2700 2681 2553 2681 
Q 2122 2681 1889 2404 
Q 1656 2128 1656 1613 
L 1656 0 
L 538 0 
L 538 3500 
L 1656 3500 
L 1656 2925 
Q 1872 3269 2151 3426 
Q 2431 3584 2822 3584 
Q 2878 3584 2943 3579 
Q 3009 3575 3134 3559 
L 3138 2547 
z
" transform="scale(0.015625)"/>
       <path id="DejaVuSans-Bold-5d" d="M 2375 -844 
L 434 -844 
L 434 -141 
L 1313 -141 
L 1313 4159 
L 434 4159 
L 434 4863 
L 2375 4863 
L 2375 -844 
z
" transform="scale(0.015625)"/>
      </defs>
      <use xlink:href="#DejaVuSans-Bold-74"/>
      <use xlink:href="#DejaVuSans-Bold-69" transform="translate(47.802734 0)"/>
      <use xlink:href="#DejaVuSans-Bold-6d" transform="translate(82.080078 0)"/>
      <use xlink:href="#DejaVuSans-Bold-65" transform="translate(186.279297 0)"/>
      <use xlink:href="#DejaVuSans-Bold-20" transform="translate(254.101562 0)"/>
      <use xlink:href="#DejaVuSans-Bold-5b" transform="translate(288.916016 0)"/>
      <use xlink:href="#DejaVuSans-Bold-68" transform="translate(334.619141 0)"/>
      <use xlink:href="#DejaVuSans-Bold-72" transform="translate(405.810547 0)"/>
      <use xlink:href="#DejaVuSans-Bold-5d" transform="translate(455.126953 0)"/>
     </g>
    </g>
   </g>
   <g id="matplotlib.axis_2">
    <g id="ytick_1">
     <g id="line2d_7">
      <defs>
       <path id="mfcc486e45c" d="M 0 0 
L -3.5 0 
" style="stroke: #000000; stroke-width: 0.8"/>
      </defs>
      <g>
       <use xlink:href="#mfcc486e45c" x="69.019063" y="286.65286" style="stroke: #000000; stroke-width: 0.8"/>
      </g>
     </g>
     <g id="text_8">
      <!-- 27.5 -->
      <g transform="translate(28.620625 292.351688) scale(0.15 -0.15)">
       <defs>
        <path id="DejaVuSans-37" d="M 525 4666 
L 3525 4666 
L 3525 4397 
L 1831 0 
L 1172 0 
L 2766 4134 
L 525 4134 
L 525 4666 
z
" transform="scale(0.015625)"/>
        <path id="DejaVuSans-2e" d="M 684 794 
L 1344 794 
L 1344 0 
L 684 0 
L 684 794 
z
" transform="scale(0.015625)"/>
        <path id="DejaVuSans-35" d="M 691 4666 
L 3169 4666 
L 3169 4134 
L 1269 4134 
L 1269 2991 
Q 1406 3038 1543 3061 
Q 1681 3084 1819 3084 
Q 2600 3084 3056 2656 
Q 3513 2228 3513 1497 
Q 3513 744 3044 326 
Q 2575 -91 1722 -91 
Q 1428 -91 1123 -41 
Q 819 9 494 109 
L 494 744 
Q 775 591 1075 516 
Q 1375 441 1709 441 
Q 2250 441 2565 725 
Q 2881 1009 2881 1497 
Q 2881 1984 2565 2268 
Q 2250 2553 1709 2553 
Q 1456 2553 1204 2497 
Q 953 2441 691 2322 
L 691 4666 
z
" transform="scale(0.015625)"/>
       </defs>
       <use xlink:href="#DejaVuSans-32"/>
       <use xlink:href="#DejaVuSans-37" transform="translate(63.623047 0)"/>
       <use xlink:href="#DejaVuSans-2e" transform="translate(127.246094 0)"/>
       <use xlink:href="#DejaVuSans-35" transform="translate(159.033203 0)"/>
      </g>
     </g>
    </g>
    <g id="ytick_2">
     <g id="line2d_8">
      <g>
       <use xlink:href="#mfcc486e45c" x="69.019063" y="248.618434" style="stroke: #000000; stroke-width: 0.8"/>
      </g>
     </g>
     <g id="text_9">
      <!-- 30.0 -->
      <g transform="translate(28.620625 254.317262) scale(0.15 -0.15)">
       <defs>
        <path id="DejaVuSans-33" d="M 2597 2516 
Q 3050 2419 3304 2112 
Q 3559 1806 3559 1356 
Q 3559 666 3084 287 
Q 2609 -91 1734 -91 
Q 1441 -91 1130 -33 
Q 819 25 488 141 
L 488 750 
Q 750 597 1062 519 
Q 1375 441 1716 441 
Q 2309 441 2620 675 
Q 2931 909 2931 1356 
Q 2931 1769 2642 2001 
Q 2353 2234 1838 2234 
L 1294 2234 
L 1294 2753 
L 1863 2753 
Q 2328 2753 2575 2939 
Q 2822 3125 2822 3475 
Q 2822 3834 2567 4026 
Q 2313 4219 1838 4219 
Q 1578 4219 1281 4162 
Q 984 4106 628 3988 
L 628 4550 
Q 988 4650 1302 4700 
Q 1616 4750 1894 4750 
Q 2613 4750 3031 4423 
Q 3450 4097 3450 3541 
Q 3450 3153 3228 2886 
Q 3006 2619 2597 2516 
z
" transform="scale(0.015625)"/>
       </defs>
       <use xlink:href="#DejaVuSans-33"/>
       <use xlink:href="#DejaVuSans-30" transform="translate(63.623047 0)"/>
       <use xlink:href="#DejaVuSans-2e" transform="translate(127.246094 0)"/>
       <use xlink:href="#DejaVuSans-30" transform="translate(159.033203 0)"/>
      </g>
     </g>
    </g>
    <g id="ytick_3">
     <g id="line2d_9">
      <g>
       <use xlink:href="#mfcc486e45c" x="69.019063" y="210.584009" style="stroke: #000000; stroke-width: 0.8"/>
      </g>
     </g>
     <g id="text_10">
      <!-- 32.5 -->
      <g transform="translate(28.620625 216.282837) scale(0.15 -0.15)">
       <use xlink:href="#DejaVuSans-33"/>
       <use xlink:href="#DejaVuSans-32" transform="translate(63.623047 0)"/>
       <use xlink:href="#DejaVuSans-2e" transform="translate(127.246094 0)"/>
       <use xlink:href="#DejaVuSans-35" transform="translate(159.033203 0)"/>
      </g>
     </g>
    </g>
    <g id="ytick_4">
     <g id="line2d_10">
      <g>
       <use xlink:href="#mfcc486e45c" x="69.019063" y="172.549584" style="stroke: #000000; stroke-width: 0.8"/>
      </g>
     </g>
     <g id="text_11">
      <!-- 35.0 -->
      <g transform="translate(28.620625 178.248412) scale(0.15 -0.15)">
       <use xlink:href="#DejaVuSans-33"/>
       <use xlink:href="#DejaVuSans-35" transform="translate(63.623047 0)"/>
       <use xlink:href="#DejaVuSans-2e" transform="translate(127.246094 0)"/>
       <use xlink:href="#DejaVuSans-30" transform="translate(159.033203 0)"/>
      </g>
     </g>
    </g>
    <g id="ytick_5">
     <g id="line2d_11">
      <g>
       <use xlink:href="#mfcc486e45c" x="69.019063" y="134.515158" style="stroke: #000000; stroke-width: 0.8"/>
      </g>
     </g>
     <g id="text_12">
      <!-- 37.5 -->
      <g transform="translate(28.620625 140.213986) scale(0.15 -0.15)">
       <use xlink:href="#DejaVuSans-33"/>
       <use xlink:href="#DejaVuSans-37" transform="translate(63.623047 0)"/>
       <use xlink:href="#DejaVuSans-2e" transform="translate(127.246094 0)"/>
       <use xlink:href="#DejaVuSans-35" transform="translate(159.033203 0)"/>
      </g>
     </g>
    </g>
    <g id="ytick_6">
     <g id="line2d_12">
      <g>
       <use xlink:href="#mfcc486e45c" x="69.019063" y="96.480733" style="stroke: #000000; stroke-width: 0.8"/>
      </g>
     </g>
     <g id="text_13">
      <!-- 40.0 -->
      <g transform="translate(28.620625 102.179561) scale(0.15 -0.15)">
       <use xlink:href="#DejaVuSans-34"/>
       <use xlink:href="#DejaVuSans-30" transform="translate(63.623047 0)"/>
       <use xlink:href="#DejaVuSans-2e" transform="translate(127.246094 0)"/>
       <use xlink:href="#DejaVuSans-30" transform="translate(159.033203 0)"/>
      </g>
     </g>
    </g>
    <g id="ytick_7">
     <g id="line2d_13">
      <g>
       <use xlink:href="#mfcc486e45c" x="69.019063" y="58.446308" style="stroke: #000000; stroke-width: 0.8"/>
      </g>
     </g>
     <g id="text_14">
      <!-- 42.5 -->
      <g transform="translate(28.620625 64.145136) scale(0.15 -0.15)">
       <use xlink:href="#DejaVuSans-34"/>
       <use xlink:href="#DejaVuSans-32" transform="translate(63.623047 0)"/>
       <use xlink:href="#DejaVuSans-2e" transform="translate(127.246094 0)"/>
       <use xlink:href="#DejaVuSans-35" transform="translate(159.033203 0)"/>
      </g>
     </g>
    </g>
    <g id="text_15">
     <!-- aPTT [s] -->
     <g transform="translate(20.877188 223.668281) rotate(-90) scale(0.18 -0.18)">
      <defs>
       <path id="DejaVuSans-Bold-61" d="M 2106 1575 
Q 1756 1575 1579 1456 
Q 1403 1338 1403 1106 
Q 1403 894 1545 773 
Q 1688 653 1941 653 
Q 2256 653 2472 879 
Q 2688 1106 2688 1447 
L 2688 1575 
L 2106 1575 
z
M 3816 1997 
L 3816 0 
L 2688 0 
L 2688 519 
Q 2463 200 2181 54 
Q 1900 -91 1497 -91 
Q 953 -91 614 226 
Q 275 544 275 1050 
Q 275 1666 698 1953 
Q 1122 2241 2028 2241 
L 2688 2241 
L 2688 2328 
Q 2688 2594 2478 2717 
Q 2269 2841 1825 2841 
Q 1466 2841 1156 2769 
Q 847 2697 581 2553 
L 581 3406 
Q 941 3494 1303 3539 
Q 1666 3584 2028 3584 
Q 2975 3584 3395 3211 
Q 3816 2838 3816 1997 
z
" transform="scale(0.015625)"/>
       <path id="DejaVuSans-Bold-50" d="M 588 4666 
L 2584 4666 
Q 3475 4666 3951 4270 
Q 4428 3875 4428 3144 
Q 4428 2409 3951 2014 
Q 3475 1619 2584 1619 
L 1791 1619 
L 1791 0 
L 588 0 
L 588 4666 
z
M 1791 3794 
L 1791 2491 
L 2456 2491 
Q 2806 2491 2997 2661 
Q 3188 2831 3188 3144 
Q 3188 3456 2997 3625 
Q 2806 3794 2456 3794 
L 1791 3794 
z
" transform="scale(0.015625)"/>
       <path id="DejaVuSans-Bold-54" d="M 31 4666 
L 4331 4666 
L 4331 3756 
L 2784 3756 
L 2784 0 
L 1581 0 
L 1581 3756 
L 31 3756 
L 31 4666 
z
" transform="scale(0.015625)"/>
       <path id="DejaVuSans-Bold-73" d="M 3272 3391 
L 3272 2541 
Q 2913 2691 2578 2766 
Q 2244 2841 1947 2841 
Q 1628 2841 1473 2761 
Q 1319 2681 1319 2516 
Q 1319 2381 1436 2309 
Q 1553 2238 1856 2203 
L 2053 2175 
Q 2913 2066 3209 1816 
Q 3506 1566 3506 1031 
Q 3506 472 3093 190 
Q 2681 -91 1863 -91 
Q 1516 -91 1145 -36 
Q 775 19 384 128 
L 384 978 
Q 719 816 1070 734 
Q 1422 653 1784 653 
Q 2113 653 2278 743 
Q 2444 834 2444 1013 
Q 2444 1163 2330 1236 
Q 2216 1309 1875 1350 
L 1678 1375 
Q 931 1469 631 1722 
Q 331 1975 331 2491 
Q 331 3047 712 3315 
Q 1094 3584 1881 3584 
Q 2191 3584 2531 3537 
Q 2872 3491 3272 3391 
z
" transform="scale(0.015625)"/>
      </defs>
      <use xlink:href="#DejaVuSans-Bold-61"/>
      <use xlink:href="#DejaVuSans-Bold-50" transform="translate(67.480469 0)"/>
      <use xlink:href="#DejaVuSans-Bold-54" transform="translate(140.771484 0)"/>
      <use xlink:href="#DejaVuSans-Bold-54" transform="translate(211.234375 0)"/>
      <use xlink:href="#DejaVuSans-Bold-20" transform="translate(279.447266 0)"/>
      <use xlink:href="#DejaVuSans-Bold-5b" transform="translate(314.261719 0)"/>
      <use xlink:href="#DejaVuSans-Bold-73" transform="translate(359.964844 0)"/>
      <use xlink:href="#DejaVuSans-Bold-5d" transform="translate(419.486328 0)"/>
     </g>
    </g>
   </g>
   <g id="LineCollection_1">
    <path clip-path="url(#pa719df2162)" style="fill: none; stroke: #000000"/>
    <path d="M 86.04942 238.881621 
L 86.04942 187.154803 
" clip-path="url(#pa719df2162)" style="fill: none; stroke: #000000"/>
    <path d="M 87.641042 234.621766 
L 87.641042 139.68784 
" clip-path="url(#pa719df2162)" style="fill: none; stroke: #000000"/>
    <path d="M 89.232664 221.690061 
L 89.232664 126.756135 
" clip-path="url(#pa719df2162)" style="fill: none; stroke: #000000"/>
    <path d="M 90.824286 217.278068 
L 90.824286 139.68784 
" clip-path="url(#pa719df2162)" style="fill: none; stroke: #000000"/>
    <path d="M 94.007531 234.469628 
L 94.007531 156.8794 
" clip-path="url(#pa719df2162)" style="fill: none; stroke: #000000"/>
    <path d="M 97.190775 243.293615 
L 97.190775 191.262521 
" clip-path="url(#pa719df2162)" style="fill: none; stroke: #000000"/>
    <path d="M 103.557264 260.485175 
L 103.557264 217.278068 
" clip-path="url(#pa719df2162)" style="fill: none; stroke: #000000"/>
    <path d="M 116.290241 282.240866 
L 116.290241 230.209772 
" clip-path="url(#pa719df2162)" style="fill: none; stroke: #000000"/>
    <path d="M 129.023219 295.020433 
L 129.023219 243.293615 
" clip-path="url(#pa719df2162)" style="fill: none; stroke: #000000"/>
    <path d="M 160.855662 307.8 
L 160.855662 247.55347 
" clip-path="url(#pa719df2162)" style="fill: none; stroke: #000000"/>
   </g>
   <g id="LineCollection_2">
    <path clip-path="url(#pa719df2162)" style="fill: none; stroke: #000000"/>
    <path d="M 315.243014 269.157024 
L 315.243014 165.399112 
" clip-path="url(#pa719df2162)" style="fill: none; stroke: #000000"/>
    <path d="M 316.834636 234.621766 
L 316.834636 139.68784 
" clip-path="url(#pa719df2162)" style="fill: none; stroke: #000000"/>
    <path d="M 318.426259 221.690061 
L 318.426259 126.756135 
" clip-path="url(#pa719df2162)" style="fill: none; stroke: #000000"/>
    <path d="M 320.017881 221.690061 
L 320.017881 126.756135 
" clip-path="url(#pa719df2162)" style="fill: none; stroke: #000000"/>
    <path d="M 323.201125 243.141477 
L 323.201125 139.68784 
" clip-path="url(#pa719df2162)" style="fill: none; stroke: #000000"/>
    <path d="M 326.38437 247.55347 
L 326.38437 152.619545 
" clip-path="url(#pa719df2162)" style="fill: none; stroke: #000000"/>
    <path d="M 332.750858 260.637313 
L 332.750858 182.74281 
" clip-path="url(#pa719df2162)" style="fill: none; stroke: #000000"/>
    <path d="M 345.483836 286.348584 
L 345.483836 217.278068 
" clip-path="url(#pa719df2162)" style="fill: none; stroke: #000000"/>
    <path d="M 358.216813 307.8 
L 358.216813 221.690061 
" clip-path="url(#pa719df2162)" style="fill: none; stroke: #000000"/>
    <path d="M 390.049257 303.540144 
L 390.049257 251.813326 
" clip-path="url(#pa719df2162)" style="fill: none; stroke: #000000"/>
   </g>
   <g id="line2d_14">
    <path d="M 84.457798 295.020433 
L 84.610593 291.584999 
L 84.916185 265.003571 
L 85.985755 150.703306 
L 86.596938 110.181687 
L 87.208121 84.511607 
L 87.819304 68.93547 
L 88.277691 61.905861 
L 88.736078 57.820676 
L 89.04167 56.397293 
L 89.347261 55.831449 
L 89.500057 55.829782 
L 89.805648 56.320135 
L 90.11124 57.389838 
L 90.569627 59.904698 
L 91.18081 64.615406 
L 92.097584 73.780486 
L 93.472746 90.384531 
L 100.042962 173.988753 
L 101.876511 193.089461 
L 103.557264 208.432365 
L 105.238017 221.785259 
L 106.91877 233.297861 
L 108.446727 242.319101 
L 109.974685 250.112046 
L 111.502642 256.817168 
L 113.030599 262.567343 
L 114.558556 267.485081 
L 116.086514 271.681278 
L 117.614471 275.254936 
L 119.142428 278.293514 
L 120.670386 280.873627 
L 122.351139 283.261527 
L 124.031892 285.25145 
L 125.712645 286.908135 
L 127.546193 288.399418 
L 129.532538 289.709348 
L 131.671678 290.833287 
L 133.963614 291.776049 
L 136.561141 292.591388 
L 139.46426 293.263241 
L 142.978562 293.833391 
L 147.256843 294.284316 
L 152.757489 294.622323 
L 160.397275 294.850954 
L 160.855662 294.85942 
L 160.855662 294.85942 
" clip-path="url(#pa719df2162)" style="fill: none; stroke: #000000; stroke-width: 2; stroke-linecap: square"/>
   </g>
   <g id="line2d_15">
    <path d="M 84.457798 295.020433 
L 86.04942 213.018212 
L 87.641042 187.154803 
L 89.232664 174.223098 
L 90.824286 178.482954 
L 94.007531 195.674514 
L 97.190775 217.278068 
L 103.557264 238.881621 
L 116.290241 256.225319 
L 129.023219 269.157024 
L 160.855662 277.676735 
" clip-path="url(#pa719df2162)" style="fill: none; stroke-dasharray: 3.7,1.6; stroke-dashoffset: 0; stroke: #000000"/>
    <defs>
     <path id="m1559d38dc3" d="M -3 3 
L 3 3 
L 3 -3 
L -3 -3 
z
" style="stroke: #000000; stroke-linejoin: miter"/>
    </defs>
    <g clip-path="url(#pa719df2162)">
     <use xlink:href="#m1559d38dc3" x="84.457798" y="295.020433" style="stroke: #000000; stroke-linejoin: miter"/>
     <use xlink:href="#m1559d38dc3" x="86.04942" y="213.018212" style="stroke: #000000; stroke-linejoin: miter"/>
     <use xlink:href="#m1559d38dc3" x="87.641042" y="187.154803" style="stroke: #000000; stroke-linejoin: miter"/>
     <use xlink:href="#m1559d38dc3" x="89.232664" y="174.223098" style="stroke: #000000; stroke-linejoin: miter"/>
     <use xlink:href="#m1559d38dc3" x="90.824286" y="178.482954" style="stroke: #000000; stroke-linejoin: miter"/>
     <use xlink:href="#m1559d38dc3" x="94.007531" y="195.674514" style="stroke: #000000; stroke-linejoin: miter"/>
     <use xlink:href="#m1559d38dc3" x="97.190775" y="217.278068" style="stroke: #000000; stroke-linejoin: miter"/>
     <use xlink:href="#m1559d38dc3" x="103.557264" y="238.881621" style="stroke: #000000; stroke-linejoin: miter"/>
     <use xlink:href="#m1559d38dc3" x="116.290241" y="256.225319" style="stroke: #000000; stroke-linejoin: miter"/>
     <use xlink:href="#m1559d38dc3" x="129.023219" y="269.157024" style="stroke: #000000; stroke-linejoin: miter"/>
     <use xlink:href="#m1559d38dc3" x="160.855662" y="277.676735" style="stroke: #000000; stroke-linejoin: miter"/>
    </g>
   </g>
   <g id="line2d_16">
    <path d="M 84.457798 295.020433 
L 84.610593 291.584999 
L 84.916185 265.003571 
L 85.985755 150.703306 
L 86.596938 110.181687 
L 87.208121 84.511607 
L 87.819304 68.93547 
L 88.277691 61.905861 
L 88.736078 57.820676 
L 89.04167 56.397293 
L 89.347261 55.831449 
L 89.500057 55.829782 
L 89.805648 56.320135 
L 90.11124 57.389838 
L 90.569627 59.904698 
L 91.18081 64.615406 
L 92.097584 73.780486 
L 93.472746 90.384531 
L 100.042962 173.988753 
L 101.876511 193.089461 
L 103.557264 208.432365 
L 105.238017 221.785259 
L 106.91877 233.297861 
L 108.446727 242.319101 
L 109.974685 250.112046 
L 111.502642 256.817168 
L 113.030599 262.567343 
L 114.558556 267.485081 
L 116.086514 271.681278 
L 117.614471 275.254936 
L 119.142428 278.293514 
L 120.670386 280.873627 
L 122.351139 283.261527 
L 124.031892 285.25145 
L 125.712645 286.908135 
L 127.546193 288.399418 
L 129.532538 289.709348 
L 131.671678 290.833287 
L 133.963614 291.776049 
L 136.561141 292.591388 
L 139.46426 293.263241 
L 142.978562 293.833391 
L 147.256843 294.284316 
L 152.757489 294.622323 
L 160.397275 294.850954 
L 160.855662 294.85942 
L 160.855662 294.85942 
L 161.008458 291.428744 
L 161.31405 264.867558 
L 162.38362 150.635385 
L 162.994803 110.134646 
L 163.605986 84.47776 
L 164.217169 68.910364 
L 164.675556 61.885485 
L 165.133943 57.80397 
L 165.439534 56.382592 
L 165.745126 55.818473 
L 165.897922 55.817578 
L 166.203513 56.309322 
L 166.509104 57.380238 
L 166.967492 59.89664 
L 167.578675 64.608995 
L 168.495449 73.775905 
L 169.870611 90.38174 
L 176.440827 173.988494 
L 178.274376 193.089329 
L 179.955129 208.432295 
L 181.635882 221.785222 
L 183.316635 233.297842 
L 184.844592 242.31909 
L 186.372549 250.11204 
L 187.900507 256.817165 
L 189.428464 262.567341 
L 190.956421 267.48508 
L 192.484379 271.681277 
L 194.012336 275.254936 
L 195.540293 278.293514 
L 197.06825 280.873627 
L 198.749003 283.261527 
L 200.429756 285.25145 
L 202.110509 286.908135 
L 203.944058 288.399418 
L 205.930403 289.709348 
L 208.069543 290.833287 
L 210.361479 291.776049 
L 212.959006 292.591388 
L 215.862125 293.263241 
L 219.376427 293.833391 
L 223.654707 294.284316 
L 229.155354 294.622323 
L 236.79514 294.850954 
L 237.253527 294.85942 
L 237.253527 294.85942 
L 237.406323 291.428744 
L 237.711914 264.867558 
L 238.781485 150.635385 
L 239.392667 110.134646 
L 240.00385 84.47776 
L 240.615033 68.910364 
L 241.073421 61.885485 
L 241.531808 57.80397 
L 241.837399 56.382592 
L 242.142991 55.818473 
L 242.295786 55.817578 
L 242.601378 56.309322 
L 242.906969 57.380238 
L 243.365356 59.89664 
L 243.976539 64.608995 
L 244.893314 73.775905 
L 246.268475 90.38174 
L 252.838692 173.988494 
L 254.67224 193.089329 
L 256.352993 208.432295 
L 258.033746 221.785222 
L 259.7145 233.297842 
L 261.242457 242.31909 
L 262.770414 250.11204 
L 264.298371 256.817165 
L 265.826329 262.567341 
L 267.354286 267.48508 
L 268.882243 271.681277 
L 270.410201 275.254936 
L 271.938158 278.293514 
L 273.466115 280.873627 
L 275.146868 283.261527 
L 276.827621 285.25145 
L 278.508374 286.908135 
L 280.341923 288.399418 
L 282.328268 289.709348 
L 284.467408 290.833287 
L 286.759344 291.776049 
L 289.356871 292.591388 
L 292.25999 293.263241 
L 295.774292 293.833391 
L 300.052572 294.284316 
L 305.553218 294.622323 
L 313.193005 294.850954 
L 313.651392 294.85942 
L 313.651392 294.85942 
L 313.810554 291.104266 
L 314.128879 262.727544 
L 315.083852 158.672101 
L 315.720501 113.917042 
L 316.35715 85.95979 
L 316.834636 72.622661 
L 317.312123 63.95087 
L 317.78961 58.782515 
L 318.107934 56.862572 
L 318.426259 55.938071 
L 318.585421 55.8 
L 318.744583 55.855414 
L 319.062907 56.48759 
L 319.381232 57.728575 
L 319.858719 60.539999 
L 320.495367 65.692127 
L 321.450341 75.557847 
L 322.882801 93.179654 
L 328.771803 168.758026 
L 330.681749 189.250438 
L 332.432534 205.682893 
L 334.183318 219.932575 
L 335.77494 231.125763 
L 337.366563 240.797241 
L 338.958185 249.10811 
L 340.549807 256.217994 
L 342.141429 262.27825 
L 343.733051 267.428281 
L 345.324674 271.793871 
L 346.916296 275.486817 
L 348.507918 278.605346 
L 350.09954 281.234992 
L 351.691162 283.449709 
L 353.282784 285.313078 
L 355.033569 287.021664 
L 356.784353 288.432058 
L 358.6943 289.690536 
L 360.763409 290.785576 
L 362.99168 291.715689 
L 365.538275 292.532063 
L 368.403195 293.212599 
L 371.745602 293.77549 
L 375.883819 294.236215 
L 381.136173 294.584362 
L 388.457635 294.828063 
L 393.232501 294.907636 
L 393.232501 294.907636 
" clip-path="url(#pa719df2162)" style="fill: none; stroke: #000000; stroke-width: 2; stroke-linecap: square"/>
   </g>
   <g id="line2d_17">
    <path d="M 313.651392 277.676735 
L 315.243014 217.278068 
L 316.834636 187.154803 
L 318.426259 174.223098 
L 320.017881 174.223098 
L 323.201125 191.414659 
L 326.38437 200.086508 
L 332.750858 221.690061 
L 345.483836 251.813326 
L 358.216813 264.745031 
L 390.049257 277.676735 
" clip-path="url(#pa719df2162)" style="fill: none; stroke-dasharray: 3.7,1.6; stroke-dashoffset: 0; stroke: #000000"/>
    <g clip-path="url(#pa719df2162)">
     <use xlink:href="#m1559d38dc3" x="313.651392" y="277.676735" style="stroke: #000000; stroke-linejoin: miter"/>
     <use xlink:href="#m1559d38dc3" x="315.243014" y="217.278068" style="stroke: #000000; stroke-linejoin: miter"/>
     <use xlink:href="#m1559d38dc3" x="316.834636" y="187.154803" style="stroke: #000000; stroke-linejoin: miter"/>
     <use xlink:href="#m1559d38dc3" x="318.426259" y="174.223098" style="stroke: #000000; stroke-linejoin: miter"/>
     <use xlink:href="#m1559d38dc3" x="320.017881" y="174.223098" style="stroke: #000000; stroke-linejoin: miter"/>
     <use xlink:href="#m1559d38dc3" x="323.201125" y="191.414659" style="stroke: #000000; stroke-linejoin: miter"/>
     <use xlink:href="#m1559d38dc3" x="326.38437" y="200.086508" style="stroke: #000000; stroke-linejoin: miter"/>
     <use xlink:href="#m1559d38dc3" x="332.750858" y="221.690061" style="stroke: #000000; stroke-linejoin: miter"/>
     <use xlink:href="#m1559d38dc3" x="345.483836" y="251.813326" style="stroke: #000000; stroke-linejoin: miter"/>
     <use xlink:href="#m1559d38dc3" x="358.216813" y="264.745031" style="stroke: #000000; stroke-linejoin: miter"/>
     <use xlink:href="#m1559d38dc3" x="390.049257" y="277.676735" style="stroke: #000000; stroke-linejoin: miter"/>
    </g>
   </g>
   <g id="patch_3">
    <path d="M 69.019063 320.4 
L 69.019063 43.2 
" style="fill: none; stroke: #000000; stroke-width: 0.8; stroke-linejoin: miter; stroke-linecap: square"/>
   </g>
   <g id="patch_4">
    <path d="M 408.671236 320.4 
L 408.671236 43.2 
" style="fill: none; stroke: #000000; stroke-width: 0.8; stroke-linejoin: miter; stroke-linecap: square"/>
   </g>
   <g id="patch_5">
    <path d="M 69.019063 320.4 
L 408.671236 320.4 
" style="fill: none; stroke: #000000; stroke-width: 0.8; stroke-linejoin: miter; stroke-linecap: square"/>
   </g>
   <g id="patch_6">
    <path d="M 69.019063 43.2 
L 408.671236 43.2 
" style="fill: none; stroke: #000000; stroke-width: 0.8; stroke-linejoin: miter; stroke-linecap: square"/>
   </g>
   <g id="legend_1">
    <g id="patch_7">
     <path d="M 256.521236 109.9125 
L 401.671236 109.9125 
Q 403.671236 109.9125 403.671236 107.9125 
L 403.671236 50.2 
Q 403.671236 48.2 401.671236 48.2 
L 256.521236 48.2 
Q 254.521236 48.2 254.521236 50.2 
L 254.521236 107.9125 
Q 254.521236 109.9125 256.521236 109.9125 
z
" style="fill: #ffffff; opacity: 0.8; stroke: #cccccc; stroke-linejoin: miter"/>
    </g>
    <g id="line2d_18">
     <path d="M 258.521236 56.298437 
L 278.521236 56.298437 
" style="fill: none; stroke: #000000; stroke-width: 2; stroke-linecap: square"/>
    </g>
    <g id="line2d_19"/>
    <g id="text_16">
     <!-- ED60 -->
     <g transform="translate(286.521236 59.798437) scale(0.1 -0.1)">
      <defs>
       <path id="DejaVuSans-45" d="M 628 4666 
L 3578 4666 
L 3578 4134 
L 1259 4134 
L 1259 2753 
L 3481 2753 
L 3481 2222 
L 1259 2222 
L 1259 531 
L 3634 531 
L 3634 0 
L 628 0 
L 628 4666 
z
" transform="scale(0.015625)"/>
       <path id="DejaVuSans-44" d="M 1259 4147 
L 1259 519 
L 2022 519 
Q 2988 519 3436 956 
Q 3884 1394 3884 2338 
Q 3884 3275 3436 3711 
Q 2988 4147 2022 4147 
L 1259 4147 
z
M 628 4666 
L 1925 4666 
Q 3281 4666 3915 4102 
Q 4550 3538 4550 2338 
Q 4550 1131 3912 565 
Q 3275 0 1925 0 
L 628 0 
L 628 4666 
z
" transform="scale(0.015625)"/>
      </defs>
      <use xlink:href="#DejaVuSans-45"/>
      <use xlink:href="#DejaVuSans-44" transform="translate(63.183594 0)"/>
      <use xlink:href="#DejaVuSans-36" transform="translate(140.185547 0)"/>
      <use xlink:href="#DejaVuSans-30" transform="translate(203.808594 0)"/>
     </g>
    </g>
    <g id="LineCollection_3">
     <path d="M 268.521236 75.976562 
L 268.521236 65.976562 
" style="fill: none; stroke: #000000"/>
    </g>
    <g id="line2d_20">
     <path d="M 258.521236 70.976562 
L 278.521236 70.976562 
" style="fill: none; stroke-dasharray: 3.7,1.6; stroke-dashoffset: 0; stroke: #000000"/>
    </g>
    <g id="line2d_21">
     <g>
      <use xlink:href="#m1559d38dc3" x="268.521236" y="70.976562" style="stroke: #000000; stroke-linejoin: miter"/>
     </g>
    </g>
    <g id="text_17">
     <!-- ED60±SD (n=23) -->
     <g transform="translate(286.521236 74.476562) scale(0.1 -0.1)">
      <defs>
       <path id="DejaVuSans-b1" d="M 2944 4013 
L 2944 2803 
L 4684 2803 
L 4684 2272 
L 2944 2272 
L 2944 1063 
L 2419 1063 
L 2419 2272 
L 678 2272 
L 678 2803 
L 2419 2803 
L 2419 4013 
L 2944 4013 
z
M 678 531 
L 4684 531 
L 4684 0 
L 678 0 
L 678 531 
z
" transform="scale(0.015625)"/>
       <path id="DejaVuSans-53" d="M 3425 4513 
L 3425 3897 
Q 3066 4069 2747 4153 
Q 2428 4238 2131 4238 
Q 1616 4238 1336 4038 
Q 1056 3838 1056 3469 
Q 1056 3159 1242 3001 
Q 1428 2844 1947 2747 
L 2328 2669 
Q 3034 2534 3370 2195 
Q 3706 1856 3706 1288 
Q 3706 609 3251 259 
Q 2797 -91 1919 -91 
Q 1588 -91 1214 -16 
Q 841 59 441 206 
L 441 856 
Q 825 641 1194 531 
Q 1563 422 1919 422 
Q 2459 422 2753 634 
Q 3047 847 3047 1241 
Q 3047 1584 2836 1778 
Q 2625 1972 2144 2069 
L 1759 2144 
Q 1053 2284 737 2584 
Q 422 2884 422 3419 
Q 422 4038 858 4394 
Q 1294 4750 2059 4750 
Q 2388 4750 2728 4690 
Q 3069 4631 3425 4513 
z
" transform="scale(0.015625)"/>
       <path id="DejaVuSans-20" transform="scale(0.015625)"/>
       <path id="DejaVuSans-28" d="M 1984 4856 
Q 1566 4138 1362 3434 
Q 1159 2731 1159 2009 
Q 1159 1288 1364 580 
Q 1569 -128 1984 -844 
L 1484 -844 
Q 1016 -109 783 600 
Q 550 1309 550 2009 
Q 550 2706 781 3412 
Q 1013 4119 1484 4856 
L 1984 4856 
z
" transform="scale(0.015625)"/>
       <path id="DejaVuSans-6e" d="M 3513 2113 
L 3513 0 
L 2938 0 
L 2938 2094 
Q 2938 2591 2744 2837 
Q 2550 3084 2163 3084 
Q 1697 3084 1428 2787 
Q 1159 2491 1159 1978 
L 1159 0 
L 581 0 
L 581 3500 
L 1159 3500 
L 1159 2956 
Q 1366 3272 1645 3428 
Q 1925 3584 2291 3584 
Q 2894 3584 3203 3211 
Q 3513 2838 3513 2113 
z
" transform="scale(0.015625)"/>
       <path id="DejaVuSans-3d" d="M 678 2906 
L 4684 2906 
L 4684 2381 
L 678 2381 
L 678 2906 
z
M 678 1631 
L 4684 1631 
L 4684 1100 
L 678 1100 
L 678 1631 
z
" transform="scale(0.015625)"/>
       <path id="DejaVuSans-29" d="M 513 4856 
L 1013 4856 
Q 1481 4119 1714 3412 
Q 1947 2706 1947 2009 
Q 1947 1309 1714 600 
Q 1481 -109 1013 -844 
L 513 -844 
Q 928 -128 1133 580 
Q 1338 1288 1338 2009 
Q 1338 2731 1133 3434 
Q 928 4138 513 4856 
z
" transform="scale(0.015625)"/>
      </defs>
      <use xlink:href="#DejaVuSans-45"/>
      <use xlink:href="#DejaVuSans-44" transform="translate(63.183594 0)"/>
      <use xlink:href="#DejaVuSans-36" transform="translate(140.185547 0)"/>
      <use xlink:href="#DejaVuSans-30" transform="translate(203.808594 0)"/>
      <use xlink:href="#DejaVuSans-b1" transform="translate(267.431641 0)"/>
      <use xlink:href="#DejaVuSans-53" transform="translate(351.220703 0)"/>
      <use xlink:href="#DejaVuSans-44" transform="translate(414.697266 0)"/>
      <use xlink:href="#DejaVuSans-20" transform="translate(491.699219 0)"/>
      <use xlink:href="#DejaVuSans-28" transform="translate(523.486328 0)"/>
      <use xlink:href="#DejaVuSans-6e" transform="translate(562.5 0)"/>
      <use xlink:href="#DejaVuSans-3d" transform="translate(625.878906 0)"/>
      <use xlink:href="#DejaVuSans-32" transform="translate(709.667969 0)"/>
      <use xlink:href="#DejaVuSans-33" transform="translate(773.291016 0)"/>
      <use xlink:href="#DejaVuSans-29" transform="translate(836.914062 0)"/>
     </g>
    </g>
    <g id="line2d_22">
     <path d="M 258.521236 85.654687 
L 278.521236 85.654687 
" style="fill: none; stroke: #000000; stroke-width: 2; stroke-linecap: square"/>
    </g>
    <g id="line2d_23"/>
    <g id="text_18">
     <!-- multiED60 -->
     <g transform="translate(286.521236 89.154687) scale(0.1 -0.1)">
      <defs>
       <path id="DejaVuSans-6d" d="M 3328 2828 
Q 3544 3216 3844 3400 
Q 4144 3584 4550 3584 
Q 5097 3584 5394 3201 
Q 5691 2819 5691 2113 
L 5691 0 
L 5113 0 
L 5113 2094 
Q 5113 2597 4934 2840 
Q 4756 3084 4391 3084 
Q 3944 3084 3684 2787 
Q 3425 2491 3425 1978 
L 3425 0 
L 2847 0 
L 2847 2094 
Q 2847 2600 2669 2842 
Q 2491 3084 2119 3084 
Q 1678 3084 1418 2786 
Q 1159 2488 1159 1978 
L 1159 0 
L 581 0 
L 581 3500 
L 1159 3500 
L 1159 2956 
Q 1356 3278 1631 3431 
Q 1906 3584 2284 3584 
Q 2666 3584 2933 3390 
Q 3200 3197 3328 2828 
z
" transform="scale(0.015625)"/>
       <path id="DejaVuSans-75" d="M 544 1381 
L 544 3500 
L 1119 3500 
L 1119 1403 
Q 1119 906 1312 657 
Q 1506 409 1894 409 
Q 2359 409 2629 706 
Q 2900 1003 2900 1516 
L 2900 3500 
L 3475 3500 
L 3475 0 
L 2900 0 
L 2900 538 
Q 2691 219 2414 64 
Q 2138 -91 1772 -91 
Q 1169 -91 856 284 
Q 544 659 544 1381 
z
M 1991 3584 
L 1991 3584 
z
" transform="scale(0.015625)"/>
       <path id="DejaVuSans-6c" d="M 603 4863 
L 1178 4863 
L 1178 0 
L 603 0 
L 603 4863 
z
" transform="scale(0.015625)"/>
       <path id="DejaVuSans-74" d="M 1172 4494 
L 1172 3500 
L 2356 3500 
L 2356 3053 
L 1172 3053 
L 1172 1153 
Q 1172 725 1289 603 
Q 1406 481 1766 481 
L 2356 481 
L 2356 0 
L 1766 0 
Q 1100 0 847 248 
Q 594 497 594 1153 
L 594 3053 
L 172 3053 
L 172 3500 
L 594 3500 
L 594 4494 
L 1172 4494 
z
" transform="scale(0.015625)"/>
       <path id="DejaVuSans-69" d="M 603 3500 
L 1178 3500 
L 1178 0 
L 603 0 
L 603 3500 
z
M 603 4863 
L 1178 4863 
L 1178 4134 
L 603 4134 
L 603 4863 
z
" transform="scale(0.015625)"/>
      </defs>
      <use xlink:href="#DejaVuSans-6d"/>
      <use xlink:href="#DejaVuSans-75" transform="translate(97.412109 0)"/>
      <use xlink:href="#DejaVuSans-6c" transform="translate(160.791016 0)"/>
      <use xlink:href="#DejaVuSans-74" transform="translate(188.574219 0)"/>
      <use xlink:href="#DejaVuSans-69" transform="translate(227.783203 0)"/>
      <use xlink:href="#DejaVuSans-45" transform="translate(255.566406 0)"/>
      <use xlink:href="#DejaVuSans-44" transform="translate(318.75 0)"/>
      <use xlink:href="#DejaVuSans-36" transform="translate(395.751953 0)"/>
      <use xlink:href="#DejaVuSans-30" transform="translate(459.375 0)"/>
     </g>
    </g>
    <g id="LineCollection_4">
     <path d="M 268.521236 105.332812 
L 268.521236 95.332812 
" style="fill: none; stroke: #000000"/>
    </g>
    <g id="line2d_24">
     <path d="M 258.521236 100.332812 
L 278.521236 100.332812 
" style="fill: none; stroke-dasharray: 3.7,1.6; stroke-dashoffset: 0; stroke: #000000"/>
    </g>
    <g id="line2d_25">
     <g>
      <use xlink:href="#m1559d38dc3" x="268.521236" y="100.332812" style="stroke: #000000; stroke-linejoin: miter"/>
     </g>
    </g>
    <g id="text_19">
     <!-- multiED60±SD (n=23) -->
     <g transform="translate(286.521236 103.832812) scale(0.1 -0.1)">
      <use xlink:href="#DejaVuSans-6d"/>
      <use xlink:href="#DejaVuSans-75" transform="translate(97.412109 0)"/>
      <use xlink:href="#DejaVuSans-6c" transform="translate(160.791016 0)"/>
      <use xlink:href="#DejaVuSans-74" transform="translate(188.574219 0)"/>
      <use xlink:href="#DejaVuSans-69" transform="translate(227.783203 0)"/>
      <use xlink:href="#DejaVuSans-45" transform="translate(255.566406 0)"/>
      <use xlink:href="#DejaVuSans-44" transform="translate(318.75 0)"/>
      <use xlink:href="#DejaVuSans-36" transform="translate(395.751953 0)"/>
      <use xlink:href="#DejaVuSans-30" transform="translate(459.375 0)"/>
      <use xlink:href="#DejaVuSans-b1" transform="translate(522.998047 0)"/>
      <use xlink:href="#DejaVuSans-53" transform="translate(606.787109 0)"/>
      <use xlink:href="#DejaVuSans-44" transform="translate(670.263672 0)"/>
      <use xlink:href="#DejaVuSans-20" transform="translate(747.265625 0)"/>
      <use xlink:href="#DejaVuSans-28" transform="translate(779.052734 0)"/>
      <use xlink:href="#DejaVuSans-6e" transform="translate(818.066406 0)"/>
      <use xlink:href="#DejaVuSans-3d" transform="translate(881.445312 0)"/>
      <use xlink:href="#DejaVuSans-32" transform="translate(965.234375 0)"/>
      <use xlink:href="#DejaVuSans-33" transform="translate(1028.857422 0)"/>
      <use xlink:href="#DejaVuSans-29" transform="translate(1092.480469 0)"/>
     </g>
    </g>
   </g>
  </g>
  <g id="axes_2">
   <g id="patch_8">
    <path d="M 510.566889 320.4 
L 850.219063 320.4 
L 850.219063 43.2 
L 510.566889 43.2 
z
" style="fill: #ffffff"/>
   </g>
   <g id="matplotlib.axis_3">
    <g id="xtick_7">
     <g id="line2d_26">
      <g>
       <use xlink:href="#mf61ba57063" x="526.005624" y="320.4" style="stroke: #000000; stroke-width: 0.8"/>
      </g>
     </g>
     <g id="text_20">
      <!-- 0 -->
      <g transform="translate(521.233749 338.797656) scale(0.15 -0.15)">
       <use xlink:href="#DejaVuSans-30"/>
      </g>
     </g>
    </g>
    <g id="xtick_8">
     <g id="line2d_27">
      <g>
       <use xlink:href="#mf61ba57063" x="589.670511" y="320.4" style="stroke: #000000; stroke-width: 0.8"/>
      </g>
     </g>
     <g id="text_21">
      <!-- 20 -->
      <g transform="translate(580.126761 338.797656) scale(0.15 -0.15)">
       <use xlink:href="#DejaVuSans-32"/>
       <use xlink:href="#DejaVuSans-30" transform="translate(63.623047 0)"/>
      </g>
     </g>
    </g>
    <g id="xtick_9">
     <g id="line2d_28">
      <g>
       <use xlink:href="#mf61ba57063" x="653.335398" y="320.4" style="stroke: #000000; stroke-width: 0.8"/>
      </g>
     </g>
     <g id="text_22">
      <!-- 40 -->
      <g transform="translate(643.791648 338.797656) scale(0.15 -0.15)">
       <use xlink:href="#DejaVuSans-34"/>
       <use xlink:href="#DejaVuSans-30" transform="translate(63.623047 0)"/>
      </g>
     </g>
    </g>
    <g id="xtick_10">
     <g id="line2d_29">
      <g>
       <use xlink:href="#mf61ba57063" x="717.000286" y="320.4" style="stroke: #000000; stroke-width: 0.8"/>
      </g>
     </g>
     <g id="text_23">
      <!-- 60 -->
      <g transform="translate(707.456536 338.797656) scale(0.15 -0.15)">
       <use xlink:href="#DejaVuSans-36"/>
       <use xlink:href="#DejaVuSans-30" transform="translate(63.623047 0)"/>
      </g>
     </g>
    </g>
    <g id="xtick_11">
     <g id="line2d_30">
      <g>
       <use xlink:href="#mf61ba57063" x="780.665173" y="320.4" style="stroke: #000000; stroke-width: 0.8"/>
      </g>
     </g>
     <g id="text_24">
      <!-- 80 -->
      <g transform="translate(771.121423 338.797656) scale(0.15 -0.15)">
       <use xlink:href="#DejaVuSans-38"/>
       <use xlink:href="#DejaVuSans-30" transform="translate(63.623047 0)"/>
      </g>
     </g>
    </g>
    <g id="xtick_12">
     <g id="line2d_31">
      <g>
       <use xlink:href="#mf61ba57063" x="844.33006" y="320.4" style="stroke: #000000; stroke-width: 0.8"/>
      </g>
     </g>
     <g id="text_25">
      <!-- 100 -->
      <g transform="translate(830.014435 338.797656) scale(0.15 -0.15)">
       <use xlink:href="#DejaVuSans-31"/>
       <use xlink:href="#DejaVuSans-30" transform="translate(63.623047 0)"/>
       <use xlink:href="#DejaVuSans-30" transform="translate(127.246094 0)"/>
      </g>
     </g>
    </g>
    <g id="text_26">
     <!-- time [hr] -->
     <g transform="translate(635.318444 359.594375) scale(0.18 -0.18)">
      <use xlink:href="#DejaVuSans-Bold-74"/>
      <use xlink:href="#DejaVuSans-Bold-69" transform="translate(47.802734 0)"/>
      <use xlink:href="#DejaVuSans-Bold-6d" transform="translate(82.080078 0)"/>
      <use xlink:href="#DejaVuSans-Bold-65" transform="translate(186.279297 0)"/>
      <use xlink:href="#DejaVuSans-Bold-20" transform="translate(254.101562 0)"/>
      <use xlink:href="#DejaVuSans-Bold-5b" transform="translate(288.916016 0)"/>
      <use xlink:href="#DejaVuSans-Bold-68" transform="translate(334.619141 0)"/>
      <use xlink:href="#DejaVuSans-Bold-72" transform="translate(405.810547 0)"/>
      <use xlink:href="#DejaVuSans-Bold-5d" transform="translate(455.126953 0)"/>
     </g>
    </g>
   </g>
   <g id="matplotlib.axis_4">
    <g id="ytick_8">
     <g id="line2d_32">
      <g>
       <use xlink:href="#mfcc486e45c" x="510.566889" y="278.248753" style="stroke: #000000; stroke-width: 0.8"/>
      </g>
     </g>
     <g id="text_27">
      <!-- 14 -->
      <g transform="translate(484.479389 283.947582) scale(0.15 -0.15)">
       <use xlink:href="#DejaVuSans-31"/>
       <use xlink:href="#DejaVuSans-34" transform="translate(63.623047 0)"/>
      </g>
     </g>
    </g>
    <g id="ytick_9">
     <g id="line2d_33">
      <g>
       <use xlink:href="#mfcc486e45c" x="510.566889" y="231.711357" style="stroke: #000000; stroke-width: 0.8"/>
      </g>
     </g>
     <g id="text_28">
      <!-- 16 -->
      <g transform="translate(484.479389 237.410185) scale(0.15 -0.15)">
       <use xlink:href="#DejaVuSans-31"/>
       <use xlink:href="#DejaVuSans-36" transform="translate(63.623047 0)"/>
      </g>
     </g>
    </g>
    <g id="ytick_10">
     <g id="line2d_34">
      <g>
       <use xlink:href="#mfcc486e45c" x="510.566889" y="185.173961" style="stroke: #000000; stroke-width: 0.8"/>
      </g>
     </g>
     <g id="text_29">
      <!-- 18 -->
      <g transform="translate(484.479389 190.872789) scale(0.15 -0.15)">
       <use xlink:href="#DejaVuSans-31"/>
       <use xlink:href="#DejaVuSans-38" transform="translate(63.623047 0)"/>
      </g>
     </g>
    </g>
    <g id="ytick_11">
     <g id="line2d_35">
      <g>
       <use xlink:href="#mfcc486e45c" x="510.566889" y="138.636565" style="stroke: #000000; stroke-width: 0.8"/>
      </g>
     </g>
     <g id="text_30">
      <!-- 20 -->
      <g transform="translate(484.479389 144.335393) scale(0.15 -0.15)">
       <use xlink:href="#DejaVuSans-32"/>
       <use xlink:href="#DejaVuSans-30" transform="translate(63.623047 0)"/>
      </g>
     </g>
    </g>
    <g id="ytick_12">
     <g id="line2d_36">
      <g>
       <use xlink:href="#mfcc486e45c" x="510.566889" y="92.099169" style="stroke: #000000; stroke-width: 0.8"/>
      </g>
     </g>
     <g id="text_31">
      <!-- 22 -->
      <g transform="translate(484.479389 97.797997) scale(0.15 -0.15)">
       <use xlink:href="#DejaVuSans-32"/>
       <use xlink:href="#DejaVuSans-32" transform="translate(63.623047 0)"/>
      </g>
     </g>
    </g>
    <g id="ytick_13">
     <g id="line2d_37">
      <g>
       <use xlink:href="#mfcc486e45c" x="510.566889" y="45.561773" style="stroke: #000000; stroke-width: 0.8"/>
      </g>
     </g>
     <g id="text_32">
      <!-- 24 -->
      <g transform="translate(484.479389 51.260601) scale(0.15 -0.15)">
       <use xlink:href="#DejaVuSans-32"/>
       <use xlink:href="#DejaVuSans-34" transform="translate(63.623047 0)"/>
      </g>
     </g>
    </g>
    <g id="text_33">
     <!-- PT [s] -->
     <g transform="translate(476.735951 211.2525) rotate(-90) scale(0.18 -0.18)">
      <use xlink:href="#DejaVuSans-Bold-50"/>
      <use xlink:href="#DejaVuSans-Bold-54" transform="translate(73.291016 0)"/>
      <use xlink:href="#DejaVuSans-Bold-20" transform="translate(141.503906 0)"/>
      <use xlink:href="#DejaVuSans-Bold-5b" transform="translate(176.318359 0)"/>
      <use xlink:href="#DejaVuSans-Bold-73" transform="translate(222.021484 0)"/>
      <use xlink:href="#DejaVuSans-Bold-5d" transform="translate(281.542969 0)"/>
     </g>
    </g>
   </g>
   <g id="LineCollection_5">
    <path d="M 526.005624 307.8 
L 526.005624 283.600554 
" clip-path="url(#pe48288db7a)" style="fill: none; stroke: #000000"/>
    <path d="M 527.597246 283.367867 
L 527.597246 146.547922 
" clip-path="url(#pe48288db7a)" style="fill: none; stroke: #000000"/>
    <path d="M 529.188868 207.977285 
L 529.188868 81.860942 
" clip-path="url(#pe48288db7a)" style="fill: none; stroke: #000000"/>
    <path d="M 530.78049 183.545152 
L 530.78049 75.113019 
" clip-path="url(#pe48288db7a)" style="fill: none; stroke: #000000"/>
    <path d="M 532.372112 185.406648 
L 532.372112 66.270914 
" clip-path="url(#pe48288db7a)" style="fill: none; stroke: #000000"/>
    <path d="M 535.555357 206.581163 
L 535.555357 108.387258 
" clip-path="url(#pe48288db7a)" style="fill: none; stroke: #000000"/>
    <path d="M 538.738601 220.542382 
L 538.738601 157.716898 
" clip-path="url(#pe48288db7a)" style="fill: none; stroke: #000000"/>
    <path d="M 545.10509 245.207202 
L 545.10509 213.561773 
" clip-path="url(#pe48288db7a)" style="fill: none; stroke: #000000"/>
    <path d="M 557.838067 277.085319 
L 557.838067 249.162881 
" clip-path="url(#pe48288db7a)" style="fill: none; stroke: #000000"/>
    <path d="M 570.571045 286.160111 
L 570.571045 258.237673 
" clip-path="url(#pe48288db7a)" style="fill: none; stroke: #000000"/>
    <path d="M 602.403489 295.700277 
L 602.403489 274.293075 
" clip-path="url(#pe48288db7a)" style="fill: none; stroke: #000000"/>
   </g>
   <g id="LineCollection_6">
    <path d="M 755.199218 293.606094 
L 755.199218 269.406648 
" clip-path="url(#pe48288db7a)" style="fill: none; stroke: #000000"/>
    <path d="M 756.79084 269.406648 
L 756.79084 136.309695 
" clip-path="url(#pe48288db7a)" style="fill: none; stroke: #000000"/>
    <path d="M 758.382463 202.858172 
L 758.382463 76.741828 
" clip-path="url(#pe48288db7a)" style="fill: none; stroke: #000000"/>
    <path d="M 759.974085 178.193352 
L 759.974085 55.8 
" clip-path="url(#pe48288db7a)" style="fill: none; stroke: #000000"/>
    <path d="M 761.565707 178.193352 
L 761.565707 62.780609 
" clip-path="url(#pe48288db7a)" style="fill: none; stroke: #000000"/>
    <path d="M 764.748951 188.664266 
L 764.748951 97.916343 
" clip-path="url(#pe48288db7a)" style="fill: none; stroke: #000000"/>
    <path d="M 767.932196 208.442659 
L 767.932196 124.209972 
" clip-path="url(#pe48288db7a)" style="fill: none; stroke: #000000"/>
    <path d="M 774.298684 227.755679 
L 774.298684 168.187812 
" clip-path="url(#pe48288db7a)" style="fill: none; stroke: #000000"/>
    <path d="M 787.031662 257.772299 
L 787.031662 229.849861 
" clip-path="url(#pe48288db7a)" style="fill: none; stroke: #000000"/>
    <path d="M 799.764639 275.45651 
L 799.764639 247.534072 
" clip-path="url(#pe48288db7a)" style="fill: none; stroke: #000000"/>
    <path d="M 831.597083 297.096399 
L 831.597083 265.916343 
" clip-path="url(#pe48288db7a)" style="fill: none; stroke: #000000"/>
   </g>
   <g id="line2d_38">
    <path d="M 526.005624 295.700277 
L 526.158419 294.165249 
L 526.464011 281.971736 
L 527.991968 203.02764 
L 528.603151 184.579823 
L 529.214334 172.677393 
L 529.672721 167.023828 
L 530.131108 163.538801 
L 530.589496 161.773752 
L 530.895087 161.373412 
L 531.047883 161.372232 
L 531.353474 161.719191 
L 531.659066 162.474798 
L 532.117453 164.244311 
L 532.728636 167.533029 
L 533.64541 173.836629 
L 535.173368 186.241156 
L 538.840465 216.519677 
L 540.674014 229.608631 
L 542.354767 240.034959 
L 543.882724 248.24463 
L 545.410681 255.340858 
L 546.938639 261.437792 
L 548.466596 266.653617 
L 549.994553 271.101618 
L 551.522511 274.885905 
L 553.050468 278.099747 
L 554.578425 280.825345 
L 556.106382 283.13435 
L 557.787136 285.26679 
L 559.467889 287.040393 
L 561.301437 288.635511 
L 563.134986 289.938389 
L 565.121331 291.081292 
L 567.260471 292.060766 
L 569.705202 292.92916 
L 572.455526 293.661485 
L 575.664236 294.275377 
L 579.484129 294.770307 
L 584.220797 295.152519 
L 590.638217 295.432947 
L 600.264348 295.609151 
L 602.403489 295.628536 
L 602.403489 295.628536 
" clip-path="url(#pe48288db7a)" style="fill: none; stroke: #000000; stroke-width: 2; stroke-linecap: square"/>
   </g>
   <g id="line2d_39">
    <path d="M 526.005624 295.700277 
L 527.597246 214.957895 
L 529.188868 144.919114 
L 530.78049 129.329086 
L 532.372112 125.838781 
L 535.555357 157.484211 
L 538.738601 189.12964 
L 545.10509 229.384488 
L 557.838067 263.1241 
L 570.571045 272.198892 
L 602.403489 284.996676 
" clip-path="url(#pe48288db7a)" style="fill: none; stroke-dasharray: 3.7,1.6; stroke-dashoffset: 0; stroke: #000000"/>
    <g clip-path="url(#pe48288db7a)">
     <use xlink:href="#m1559d38dc3" x="526.005624" y="295.700277" style="stroke: #000000; stroke-linejoin: miter"/>
     <use xlink:href="#m1559d38dc3" x="527.597246" y="214.957895" style="stroke: #000000; stroke-linejoin: miter"/>
     <use xlink:href="#m1559d38dc3" x="529.188868" y="144.919114" style="stroke: #000000; stroke-linejoin: miter"/>
     <use xlink:href="#m1559d38dc3" x="530.78049" y="129.329086" style="stroke: #000000; stroke-linejoin: miter"/>
     <use xlink:href="#m1559d38dc3" x="532.372112" y="125.838781" style="stroke: #000000; stroke-linejoin: miter"/>
     <use xlink:href="#m1559d38dc3" x="535.555357" y="157.484211" style="stroke: #000000; stroke-linejoin: miter"/>
     <use xlink:href="#m1559d38dc3" x="538.738601" y="189.12964" style="stroke: #000000; stroke-linejoin: miter"/>
     <use xlink:href="#m1559d38dc3" x="545.10509" y="229.384488" style="stroke: #000000; stroke-linejoin: miter"/>
     <use xlink:href="#m1559d38dc3" x="557.838067" y="263.1241" style="stroke: #000000; stroke-linejoin: miter"/>
     <use xlink:href="#m1559d38dc3" x="570.571045" y="272.198892" style="stroke: #000000; stroke-linejoin: miter"/>
     <use xlink:href="#m1559d38dc3" x="602.403489" y="284.996676" style="stroke: #000000; stroke-linejoin: miter"/>
    </g>
   </g>
   <g id="line2d_40">
    <path d="M 526.005624 295.700277 
L 526.158419 294.165249 
L 526.464011 281.971736 
L 527.991968 203.02764 
L 528.603151 184.579823 
L 529.214334 172.677393 
L 529.672721 167.023828 
L 530.131108 163.538801 
L 530.589496 161.773752 
L 530.895087 161.373412 
L 531.047883 161.372232 
L 531.353474 161.719191 
L 531.659066 162.474798 
L 532.117453 164.244311 
L 532.728636 167.533029 
L 533.64541 173.836629 
L 535.173368 186.241156 
L 538.840465 216.519677 
L 540.674014 229.608631 
L 542.354767 240.034959 
L 543.882724 248.24463 
L 545.410681 255.340858 
L 546.938639 261.437792 
L 548.466596 266.653617 
L 549.994553 271.101618 
L 551.522511 274.885905 
L 553.050468 278.099747 
L 554.578425 280.825345 
L 556.106382 283.13435 
L 557.787136 285.26679 
L 559.467889 287.040393 
L 561.301437 288.635511 
L 563.134986 289.938389 
L 565.121331 291.081292 
L 567.260471 292.060766 
L 569.705202 292.92916 
L 572.455526 293.661485 
L 575.664236 294.275377 
L 579.484129 294.770307 
L 584.220797 295.152519 
L 590.638217 295.432947 
L 600.264348 295.609151 
L 602.403489 295.628536 
L 602.403489 295.628536 
L 602.556284 294.095213 
L 602.861876 281.907864 
L 604.389833 202.995785 
L 605.001016 184.555707 
L 605.612199 172.658946 
L 606.070586 167.00865 
L 606.528973 163.526261 
L 606.98736 161.763357 
L 607.292952 161.364225 
L 607.445748 161.363592 
L 607.751339 161.711544 
L 608.056931 162.468024 
L 608.515318 164.238657 
L 609.126501 167.528576 
L 610.043275 173.833509 
L 611.571232 186.239425 
L 615.23833 216.519257 
L 617.071879 229.608425 
L 618.752632 240.034852 
L 620.280589 248.244571 
L 621.808546 255.340826 
L 623.336504 261.437775 
L 624.864461 266.653607 
L 626.392418 271.101613 
L 627.920375 274.885902 
L 629.448333 278.099745 
L 630.97629 280.825344 
L 632.504247 283.13435 
L 634.185 285.266789 
L 635.865753 287.040393 
L 637.699302 288.635511 
L 639.532851 289.938389 
L 641.519195 291.081292 
L 643.658336 292.060766 
L 646.103067 292.92916 
L 648.85339 293.661485 
L 652.062101 294.275377 
L 655.881994 294.770307 
L 660.618662 295.152519 
L 667.036082 295.432947 
L 676.662213 295.609151 
L 678.801353 295.628536 
L 678.801353 295.628536 
L 678.954149 294.095213 
L 679.259741 281.907864 
L 680.787698 202.995785 
L 681.398881 184.555707 
L 682.010064 172.658946 
L 682.468451 167.00865 
L 682.926838 163.526261 
L 683.385225 161.763357 
L 683.690817 161.364225 
L 683.843612 161.363592 
L 684.149204 161.711544 
L 684.454795 162.468024 
L 684.913183 164.238657 
L 685.524365 167.528576 
L 686.44114 173.833509 
L 687.969097 186.239425 
L 691.636195 216.519257 
L 693.469743 229.608425 
L 695.150496 240.034852 
L 696.678454 248.244571 
L 698.206411 255.340826 
L 699.734368 261.437775 
L 701.262326 266.653607 
L 702.790283 271.101613 
L 704.31824 274.885902 
L 705.846197 278.099745 
L 707.374155 280.825344 
L 708.902112 283.13435 
L 710.582865 285.266789 
L 712.263618 287.040393 
L 714.097167 288.635511 
L 715.930716 289.938389 
L 717.91706 291.081292 
L 720.0562 292.060766 
L 722.500932 292.92916 
L 725.251255 293.661485 
L 728.459965 294.275377 
L 732.279859 294.770307 
L 737.016526 295.152519 
L 743.433947 295.432947 
L 753.060078 295.609151 
L 755.199218 295.628536 
L 755.199218 295.628536 
L 755.35838 293.949717 
L 755.676705 280.900882 
L 757.109165 205.854035 
L 757.745814 185.81689 
L 758.382463 173.047118 
L 758.859949 167.071119 
L 759.337436 163.455911 
L 759.65576 162.102572 
L 759.974085 161.448886 
L 760.133247 161.351147 
L 760.292409 161.390378 
L 760.610734 161.837593 
L 761.08822 163.291547 
L 761.724869 166.367986 
L 762.52068 171.50056 
L 763.793978 181.428461 
L 768.728007 221.679729 
L 770.478791 233.57408 
L 772.070413 242.971556 
L 773.662035 251.090423 
L 775.253658 258.047237 
L 776.84528 263.974407 
L 778.436902 269.003844 
L 780.028524 273.258885 
L 781.620146 276.85082 
L 783.211769 279.8779 
L 784.803391 282.425637 
L 786.395013 284.567748 
L 787.986635 286.367347 
L 789.73742 288.01524 
L 791.488204 289.373893 
L 793.398151 290.584931 
L 795.467259 291.637701 
L 797.69553 292.53118 
L 800.242126 293.314843 
L 803.266208 293.998229 
L 806.767777 294.549114 
L 811.065157 294.988061 
L 816.635834 295.318149 
L 824.434783 295.540485 
L 834.780327 295.650021 
L 834.780327 295.650021 
" clip-path="url(#pe48288db7a)" style="fill: none; stroke: #000000; stroke-width: 2; stroke-linecap: square"/>
   </g>
   <g id="line2d_41">
    <path d="M 755.199218 281.506371 
L 756.79084 202.858172 
L 758.382463 139.8 
L 759.974085 116.996676 
L 761.565707 120.486981 
L 764.748951 143.290305 
L 767.932196 166.326316 
L 774.298684 197.971745 
L 787.031662 243.81108 
L 799.764639 261.495291 
L 831.597083 281.506371 
" clip-path="url(#pe48288db7a)" style="fill: none; stroke-dasharray: 3.7,1.6; stroke-dashoffset: 0; stroke: #000000"/>
    <g clip-path="url(#pe48288db7a)">
     <use xlink:href="#m1559d38dc3" x="755.199218" y="281.506371" style="stroke: #000000; stroke-linejoin: miter"/>
     <use xlink:href="#m1559d38dc3" x="756.79084" y="202.858172" style="stroke: #000000; stroke-linejoin: miter"/>
     <use xlink:href="#m1559d38dc3" x="758.382463" y="139.8" style="stroke: #000000; stroke-linejoin: miter"/>
     <use xlink:href="#m1559d38dc3" x="759.974085" y="116.996676" style="stroke: #000000; stroke-linejoin: miter"/>
     <use xlink:href="#m1559d38dc3" x="761.565707" y="120.486981" style="stroke: #000000; stroke-linejoin: miter"/>
     <use xlink:href="#m1559d38dc3" x="764.748951" y="143.290305" style="stroke: #000000; stroke-linejoin: miter"/>
     <use xlink:href="#m1559d38dc3" x="767.932196" y="166.326316" style="stroke: #000000; stroke-linejoin: miter"/>
     <use xlink:href="#m1559d38dc3" x="774.298684" y="197.971745" style="stroke: #000000; stroke-linejoin: miter"/>
     <use xlink:href="#m1559d38dc3" x="787.031662" y="243.81108" style="stroke: #000000; stroke-linejoin: miter"/>
     <use xlink:href="#m1559d38dc3" x="799.764639" y="261.495291" style="stroke: #000000; stroke-linejoin: miter"/>
     <use xlink:href="#m1559d38dc3" x="831.597083" y="281.506371" style="stroke: #000000; stroke-linejoin: miter"/>
    </g>
   </g>
   <g id="patch_9">
    <path d="M 510.566889 320.4 
L 510.566889 43.2 
" style="fill: none; stroke: #000000; stroke-width: 0.8; stroke-linejoin: miter; stroke-linecap: square"/>
   </g>
   <g id="patch_10">
    <path d="M 850.219063 320.4 
L 850.219063 43.2 
" style="fill: none; stroke: #000000; stroke-width: 0.8; stroke-linejoin: miter; stroke-linecap: square"/>
   </g>
   <g id="patch_11">
    <path d="M 510.566889 320.4 
L 850.219063 320.4 
" style="fill: none; stroke: #000000; stroke-width: 0.8; stroke-linejoin: miter; stroke-linecap: square"/>
   </g>
   <g id="patch_12">
    <path d="M 510.566889 43.2 
L 850.219063 43.2 
" style="fill: none; stroke: #000000; stroke-width: 0.8; stroke-linejoin: miter; stroke-linecap: square"/>
   </g>
   <g id="legend_2">
    <g id="patch_13">
     <path d="M 698.069063 109.9125 
L 843.219063 109.9125 
Q 845.219063 109.9125 845.219063 107.9125 
L 845.219063 50.2 
Q 845.219063 48.2 843.219063 48.2 
L 698.069063 48.2 
Q 696.069063 48.2 696.069063 50.2 
L 696.069063 107.9125 
Q 696.069063 109.9125 698.069063 109.9125 
z
" style="fill: #ffffff; opacity: 0.8; stroke: #cccccc; stroke-linejoin: miter"/>
    </g>
    <g id="line2d_42">
     <path d="M 700.069063 56.298437 
L 720.069063 56.298437 
" style="fill: none; stroke: #000000; stroke-width: 2; stroke-linecap: square"/>
    </g>
    <g id="line2d_43"/>
    <g id="text_34">
     <!-- ED60 -->
     <g transform="translate(728.069063 59.798437) scale(0.1 -0.1)">
      <use xlink:href="#DejaVuSans-45"/>
      <use xlink:href="#DejaVuSans-44" transform="translate(63.183594 0)"/>
      <use xlink:href="#DejaVuSans-36" transform="translate(140.185547 0)"/>
      <use xlink:href="#DejaVuSans-30" transform="translate(203.808594 0)"/>
     </g>
    </g>
    <g id="LineCollection_7">
     <path d="M 710.069063 75.976562 
L 710.069063 65.976562 
" style="fill: none; stroke: #000000"/>
    </g>
    <g id="line2d_44">
     <path d="M 700.069063 70.976562 
L 720.069063 70.976562 
" style="fill: none; stroke-dasharray: 3.7,1.6; stroke-dashoffset: 0; stroke: #000000"/>
    </g>
    <g id="line2d_45">
     <g>
      <use xlink:href="#m1559d38dc3" x="710.069063" y="70.976562" style="stroke: #000000; stroke-linejoin: miter"/>
     </g>
    </g>
    <g id="text_35">
     <!-- ED60±SD (n=23) -->
     <g transform="translate(728.069063 74.476562) scale(0.1 -0.1)">
      <use xlink:href="#DejaVuSans-45"/>
      <use xlink:href="#DejaVuSans-44" transform="translate(63.183594 0)"/>
      <use xlink:href="#DejaVuSans-36" transform="translate(140.185547 0)"/>
      <use xlink:href="#DejaVuSans-30" transform="translate(203.808594 0)"/>
      <use xlink:href="#DejaVuSans-b1" transform="translate(267.431641 0)"/>
      <use xlink:href="#DejaVuSans-53" transform="translate(351.220703 0)"/>
      <use xlink:href="#DejaVuSans-44" transform="translate(414.697266 0)"/>
      <use xlink:href="#DejaVuSans-20" transform="translate(491.699219 0)"/>
      <use xlink:href="#DejaVuSans-28" transform="translate(523.486328 0)"/>
      <use xlink:href="#DejaVuSans-6e" transform="translate(562.5 0)"/>
      <use xlink:href="#DejaVuSans-3d" transform="translate(625.878906 0)"/>
      <use xlink:href="#DejaVuSans-32" transform="translate(709.667969 0)"/>
      <use xlink:href="#DejaVuSans-33" transform="translate(773.291016 0)"/>
      <use xlink:href="#DejaVuSans-29" transform="translate(836.914062 0)"/>
     </g>
    </g>
    <g id="line2d_46">
     <path d="M 700.069063 85.654687 
L 720.069063 85.654687 
" style="fill: none; stroke: #000000; stroke-width: 2; stroke-linecap: square"/>
    </g>
    <g id="line2d_47"/>
    <g id="text_36">
     <!-- multiED60 -->
     <g transform="translate(728.069063 89.154687) scale(0.1 -0.1)">
      <use xlink:href="#DejaVuSans-6d"/>
      <use xlink:href="#DejaVuSans-75" transform="translate(97.412109 0)"/>
      <use xlink:href="#DejaVuSans-6c" transform="translate(160.791016 0)"/>
      <use xlink:href="#DejaVuSans-74" transform="translate(188.574219 0)"/>
      <use xlink:href="#DejaVuSans-69" transform="translate(227.783203 0)"/>
      <use xlink:href="#DejaVuSans-45" transform="translate(255.566406 0)"/>
      <use xlink:href="#DejaVuSans-44" transform="translate(318.75 0)"/>
      <use xlink:href="#DejaVuSans-36" transform="translate(395.751953 0)"/>
      <use xlink:href="#DejaVuSans-30" transform="translate(459.375 0)"/>
     </g>
    </g>
    <g id="LineCollection_8">
     <path d="M 710.069063 105.332812 
L 710.069063 95.332812 
" style="fill: none; stroke: #000000"/>
    </g>
    <g id="line2d_48">
     <path d="M 700.069063 100.332812 
L 720.069063 100.332812 
" style="fill: none; stroke-dasharray: 3.7,1.6; stroke-dashoffset: 0; stroke: #000000"/>
    </g>
    <g id="line2d_49">
     <g>
      <use xlink:href="#m1559d38dc3" x="710.069063" y="100.332812" style="stroke: #000000; stroke-linejoin: miter"/>
     </g>
    </g>
    <g id="text_37">
     <!-- multiED60±SD (n=23) -->
     <g transform="translate(728.069063 103.832812) scale(0.1 -0.1)">
      <use xlink:href="#DejaVuSans-6d"/>
      <use xlink:href="#DejaVuSans-75" transform="translate(97.412109 0)"/>
      <use xlink:href="#DejaVuSans-6c" transform="translate(160.791016 0)"/>
      <use xlink:href="#DejaVuSans-74" transform="translate(188.574219 0)"/>
      <use xlink:href="#DejaVuSans-69" transform="translate(227.783203 0)"/>
      <use xlink:href="#DejaVuSans-45" transform="translate(255.566406 0)"/>
      <use xlink:href="#DejaVuSans-44" transform="translate(318.75 0)"/>
      <use xlink:href="#DejaVuSans-36" transform="translate(395.751953 0)"/>
      <use xlink:href="#DejaVuSans-30" transform="translate(459.375 0)"/>
      <use xlink:href="#DejaVuSans-b1" transform="translate(522.998047 0)"/>
      <use xlink:href="#DejaVuSans-53" transform="translate(606.787109 0)"/>
      <use xlink:href="#DejaVuSans-44" transform="translate(670.263672 0)"/>
      <use xlink:href="#DejaVuSans-20" transform="translate(747.265625 0)"/>
      <use xlink:href="#DejaVuSans-28" transform="translate(779.052734 0)"/>
      <use xlink:href="#DejaVuSans-6e" transform="translate(818.066406 0)"/>
      <use xlink:href="#DejaVuSans-3d" transform="translate(881.445312 0)"/>
      <use xlink:href="#DejaVuSans-32" transform="translate(965.234375 0)"/>
      <use xlink:href="#DejaVuSans-33" transform="translate(1028.857422 0)"/>
      <use xlink:href="#DejaVuSans-29" transform="translate(1092.480469 0)"/>
     </g>
    </g>
   </g>
  </g>
  <g id="text_38">
   <!-- Parasrampuria2016b (healthy) -->
   <g transform="translate(230.722188 26.196094) scale(0.25 -0.25)">
    <defs>
     <path id="DejaVuSans-Bold-70" d="M 1656 506 
L 1656 -1331 
L 538 -1331 
L 538 3500 
L 1656 3500 
L 1656 2988 
Q 1888 3294 2169 3439 
Q 2450 3584 2816 3584 
Q 3463 3584 3878 3070 
Q 4294 2556 4294 1747 
Q 4294 938 3878 423 
Q 3463 -91 2816 -91 
Q 2450 -91 2169 54 
Q 1888 200 1656 506 
z
M 2400 2772 
Q 2041 2772 1848 2508 
Q 1656 2244 1656 1747 
Q 1656 1250 1848 986 
Q 2041 722 2400 722 
Q 2759 722 2948 984 
Q 3138 1247 3138 1747 
Q 3138 2247 2948 2509 
Q 2759 2772 2400 2772 
z
" transform="scale(0.015625)"/>
     <path id="DejaVuSans-Bold-75" d="M 500 1363 
L 500 3500 
L 1625 3500 
L 1625 3150 
Q 1625 2866 1622 2436 
Q 1619 2006 1619 1863 
Q 1619 1441 1641 1255 
Q 1663 1069 1716 984 
Q 1784 875 1895 815 
Q 2006 756 2150 756 
Q 2500 756 2700 1025 
Q 2900 1294 2900 1772 
L 2900 3500 
L 4019 3500 
L 4019 0 
L 2900 0 
L 2900 506 
Q 2647 200 2364 54 
Q 2081 -91 1741 -91 
Q 1134 -91 817 281 
Q 500 653 500 1363 
z
" transform="scale(0.015625)"/>
     <path id="DejaVuSans-Bold-32" d="M 1844 884 
L 3897 884 
L 3897 0 
L 506 0 
L 506 884 
L 2209 2388 
Q 2438 2594 2547 2791 
Q 2656 2988 2656 3200 
Q 2656 3528 2436 3728 
Q 2216 3928 1850 3928 
Q 1569 3928 1234 3808 
Q 900 3688 519 3450 
L 519 4475 
Q 925 4609 1322 4679 
Q 1719 4750 2100 4750 
Q 2938 4750 3402 4381 
Q 3866 4013 3866 3353 
Q 3866 2972 3669 2642 
Q 3472 2313 2841 1759 
L 1844 884 
z
" transform="scale(0.015625)"/>
     <path id="DejaVuSans-Bold-30" d="M 2944 2338 
Q 2944 3213 2780 3570 
Q 2616 3928 2228 3928 
Q 1841 3928 1675 3570 
Q 1509 3213 1509 2338 
Q 1509 1453 1675 1090 
Q 1841 728 2228 728 
Q 2613 728 2778 1090 
Q 2944 1453 2944 2338 
z
M 4147 2328 
Q 4147 1169 3647 539 
Q 3147 -91 2228 -91 
Q 1306 -91 806 539 
Q 306 1169 306 2328 
Q 306 3491 806 4120 
Q 1306 4750 2228 4750 
Q 3147 4750 3647 4120 
Q 4147 3491 4147 2328 
z
" transform="scale(0.015625)"/>
     <path id="DejaVuSans-Bold-31" d="M 750 831 
L 1813 831 
L 1813 3847 
L 722 3622 
L 722 4441 
L 1806 4666 
L 2950 4666 
L 2950 831 
L 4013 831 
L 4013 0 
L 750 0 
L 750 831 
z
" transform="scale(0.015625)"/>
     <path id="DejaVuSans-Bold-36" d="M 2316 2303 
Q 2000 2303 1842 2098 
Q 1684 1894 1684 1484 
Q 1684 1075 1842 870 
Q 2000 666 2316 666 
Q 2634 666 2792 870 
Q 2950 1075 2950 1484 
Q 2950 1894 2792 2098 
Q 2634 2303 2316 2303 
z
M 3803 4544 
L 3803 3681 
Q 3506 3822 3243 3889 
Q 2981 3956 2731 3956 
Q 2194 3956 1894 3657 
Q 1594 3359 1544 2772 
Q 1750 2925 1990 3001 
Q 2231 3078 2516 3078 
Q 3231 3078 3670 2659 
Q 4109 2241 4109 1563 
Q 4109 813 3618 361 
Q 3128 -91 2303 -91 
Q 1394 -91 895 523 
Q 397 1138 397 2266 
Q 397 3422 980 4083 
Q 1563 4744 2578 4744 
Q 2900 4744 3203 4694 
Q 3506 4644 3803 4544 
z
" transform="scale(0.015625)"/>
     <path id="DejaVuSans-Bold-62" d="M 2400 722 
Q 2759 722 2948 984 
Q 3138 1247 3138 1747 
Q 3138 2247 2948 2509 
Q 2759 2772 2400 2772 
Q 2041 2772 1848 2508 
Q 1656 2244 1656 1747 
Q 1656 1250 1848 986 
Q 2041 722 2400 722 
z
M 1656 2988 
Q 1888 3294 2169 3439 
Q 2450 3584 2816 3584 
Q 3463 3584 3878 3070 
Q 4294 2556 4294 1747 
Q 4294 938 3878 423 
Q 3463 -91 2816 -91 
Q 2450 -91 2169 54 
Q 1888 200 1656 506 
L 1656 0 
L 538 0 
L 538 4863 
L 1656 4863 
L 1656 2988 
z
" transform="scale(0.015625)"/>
     <path id="DejaVuSans-Bold-28" d="M 2413 -844 
L 1484 -844 
Q 1006 -72 778 623 
Q 550 1319 550 2003 
Q 550 2688 779 3389 
Q 1009 4091 1484 4856 
L 2413 4856 
Q 2013 4116 1813 3408 
Q 1613 2700 1613 2009 
Q 1613 1319 1811 609 
Q 2009 -100 2413 -844 
z
" transform="scale(0.015625)"/>
     <path id="DejaVuSans-Bold-6c" d="M 538 4863 
L 1656 4863 
L 1656 0 
L 538 0 
L 538 4863 
z
" transform="scale(0.015625)"/>
     <path id="DejaVuSans-Bold-79" d="M 78 3500 
L 1197 3500 
L 2138 1125 
L 2938 3500 
L 4056 3500 
L 2584 -331 
Q 2363 -916 2067 -1148 
Q 1772 -1381 1288 -1381 
L 641 -1381 
L 641 -647 
L 991 -647 
Q 1275 -647 1404 -556 
Q 1534 -466 1606 -231 
L 1638 -134 
L 78 3500 
z
" transform="scale(0.015625)"/>
     <path id="DejaVuSans-Bold-29" d="M 513 -844 
Q 913 -100 1113 609 
Q 1313 1319 1313 2009 
Q 1313 2700 1113 3408 
Q 913 4116 513 4856 
L 1441 4856 
Q 1916 4091 2145 3389 
Q 2375 2688 2375 2003 
Q 2375 1319 2147 623 
Q 1919 -72 1441 -844 
L 513 -844 
z
" transform="scale(0.015625)"/>
    </defs>
    <use xlink:href="#DejaVuSans-Bold-50"/>
    <use xlink:href="#DejaVuSans-Bold-61" transform="translate(70.666016 0)"/>
    <use xlink:href="#DejaVuSans-Bold-72" transform="translate(138.146484 0)"/>
    <use xlink:href="#DejaVuSans-Bold-61" transform="translate(187.462891 0)"/>
    <use xlink:href="#DejaVuSans-Bold-73" transform="translate(254.943359 0)"/>
    <use xlink:href="#DejaVuSans-Bold-72" transform="translate(314.464844 0)"/>
    <use xlink:href="#DejaVuSans-Bold-61" transform="translate(363.78125 0)"/>
    <use xlink:href="#DejaVuSans-Bold-6d" transform="translate(431.261719 0)"/>
    <use xlink:href="#DejaVuSans-Bold-70" transform="translate(535.460938 0)"/>
    <use xlink:href="#DejaVuSans-Bold-75" transform="translate(607.042969 0)"/>
    <use xlink:href="#DejaVuSans-Bold-72" transform="translate(678.234375 0)"/>
    <use xlink:href="#DejaVuSans-Bold-69" transform="translate(727.550781 0)"/>
    <use xlink:href="#DejaVuSans-Bold-61" transform="translate(761.828125 0)"/>
    <use xlink:href="#DejaVuSans-Bold-32" transform="translate(829.308594 0)"/>
    <use xlink:href="#DejaVuSans-Bold-30" transform="translate(898.888672 0)"/>
    <use xlink:href="#DejaVuSans-Bold-31" transform="translate(968.46875 0)"/>
    <use xlink:href="#DejaVuSans-Bold-36" transform="translate(1038.048828 0)"/>
    <use xlink:href="#DejaVuSans-Bold-62" transform="translate(1107.628906 0)"/>
    <use xlink:href="#DejaVuSans-Bold-20" transform="translate(1179.210938 0)"/>
    <use xlink:href="#DejaVuSans-Bold-28" transform="translate(1214.025391 0)"/>
    <use xlink:href="#DejaVuSans-Bold-68" transform="translate(1259.728516 0)"/>
    <use xlink:href="#DejaVuSans-Bold-65" transform="translate(1330.919922 0)"/>
    <use xlink:href="#DejaVuSans-Bold-61" transform="translate(1398.742188 0)"/>
    <use xlink:href="#DejaVuSans-Bold-6c" transform="translate(1466.222656 0)"/>
    <use xlink:href="#DejaVuSans-Bold-74" transform="translate(1500.5 0)"/>
    <use xlink:href="#DejaVuSans-Bold-68" transform="translate(1548.302734 0)"/>
    <use xlink:href="#DejaVuSans-Bold-79" transform="translate(1619.494141 0)"/>
    <use xlink:href="#DejaVuSans-Bold-29" transform="translate(1684.679688 0)"/>
   </g>
  </g>
 </g>
 <defs>
  <clipPath id="pa719df2162">
   <rect x="69.019063" y="43.2" width="339.652174" height="277.2"/>
  </clipPath>
  <clipPath id="pe48288db7a">
   <rect x="510.566889" y="43.2" width="339.652174" height="277.2"/>
  </clipPath>
 </defs>
</svg>
